<svg xmlns="http://www.w3.org/2000/svg" viewBox="0 0 743.02 26.13"><defs><style>.cls-1{fill:#3dbfe0;}</style></defs><title>Calle_ornamento_barra2B</title><g id="Layer_2" data-name="Layer 2"><g id="bloques"><path class="cls-1" d="M221.41,15.13c-1.92,2-4.35.6-6.76,1L212.45,18h-9.69l-2.29,2h-3.86l-2.17,2h-4.3l-3.31,4.13a7.63,7.63,0,0,1-2.43-.25c-4.4-2.44-8.37-5.75-13.77-6-.79,0-1.53-1.16-2.44-1.9h-9.48l-2.25-2.07A17.23,17.23,0,0,1,149,14.6l3.58-1.47L151.81,12h8.44s1.28-1.15,1.74-1.62c2.28-1.48,5.35.94,7.37-1.41,1.84-2.14,5.43.26,6.82-2.78,2.06-.62,4.71.47,6.1-2.1,1.88-.06,3.55-.34,5.49.92,2.51,1.63,5.18,3.85,8.7,2.94.47.47,1.75,2.05,1.75,2.05h8.05l2,2h10Z"/><path class="cls-1" d="M106.38,6l2.14-2h4.12l3.52,3.53c2.53,1.24,6-1.08,8,2.07l6.13.41,2.35,2h12.59c.12,1.25.21,2.17.29,3l-5.77,3H128.5l-2.15,2h-4c-.5.5-1,1-1.43,1.43a23.05,23.05,0,0,0-10.33,4.1L103.87,22h-3.31l-2.13-2h-4L92.3,18H82.37l-1.6-1.59-6.13-1,4.07-3.22,10.15-.59C90.51,8.54,95,11.44,96.44,8h3.88l2.14-2Z"/><path class="cls-1" d="M538.52,8l1.37-1.39c1.83-1.13,3.83-.37,5.73-.6l4.14-2c1.38-.66,2.71-1.72,4.15-1.89,1.69-.2,3.21-.26,4.19-1.84L565,4h3.42l2.16,2h5.92l1.79,2h8c1.6,2.84,4.14,2,6.5,2.22.24,1.06.44,2,.63,2.81-.64.43-1.14,1.06-1.66,1.08-2.64.1-5.28.05-7.93.05a24.64,24.64,0,0,0-4.94.08c-1.14.24-2.35,2-3.12,1.77-3.28-1-5,3.17-8.15,2.13-2.1,1.27-4.58,1.84-6.53,3.37-1.49,1.18-3.12.38-4.68.52-1-2-3.64-1.35-4.74-2.84-1.65-2.24-4.62.21-6.14-2.05-1.36-2-3.77-.21-5.36-1.41A21,21,0,0,1,538.43,14h-14.8c-.12-1.26-.2-2.18-.28-3,2.26-1.77,4.71-.56,7-.92l2.18-2Z"/><path d="M638.51,17.89,634.45,22h-3.3c-5.78-2.87-10.56-6.39-16.41-7.79l-10.68-.59c-1.23-3.06-5-.34-6.51-2.75,1.37-1.68,3.2-.37,5.29-1.36L604.47,8h6.26l1.13-1.28c2.27-1.3,4.58-.41,6.71-.74L620.7,4c3.44.51,5.91-1.64,8.66-2.92,2.92-1.36,3.14-1.43,6,0s6,3.05,9.48,4.86h5.51l2.16,2h9.25l5.94,3.07-7,2.1c0,.27.1.55.14.82-2.6,0-5.32.46-7.79-.11-3-.71-4.17,2.84-7.19,2.27C643.52,15.7,641.68,19.33,638.51,17.89Z"/><path class="cls-1" d="M422.4,8h5.94l2.14,2h12l2.67,2.89c-.27.31-.62,1-1,1.06-4,.08-7.92.05-11.74.05-.61.61-1.09,1.49-1.55,1.48-4.19-.09-7.45,4.12-11.65,2.3-2.94,2.43-7,2.6-8.42,6.15a5.11,5.11,0,0,1-1.3.05,5.57,5.57,0,0,1-1.72-.65c-3.07-2.1-6.84-2.91-9.73-5.33h-5.29l-2.59-2H383c-2.41-3-6-1.73-9.08-2.07-.1-2.2,1.69-2.71,2.48-3.93h9.94l2.16-3h5s5.71-2.17,8.33-3c1.51-.46,2.93-.54,4.37-1.58a4.94,4.94,0,0,1,4.52-.12,25.78,25.78,0,0,0,10.27,4.14C421.47,6.56,422.4,8,422.4,8Zm1.05,2.92c-.22-.22-.5-.66-.66-.62a6,6,0,0,0-1.34.62c.22.23.49.67.65.63A5.69,5.69,0,0,0,423.45,10.92Z"/><path class="cls-1" d="M256.7,24c-2.4-1.43-4.4-3.38-6.67-3.76s-4.08-1.38-6.11-2c-2.37-.73-5.13-.17-7.38-.17-.79-.8-1.26-1.26-2.07-2.07H223.85c-.06-2.23,1.77-2.76,2.57-4h7.89L236,10.08c2.54-.43,5.55.08,8.42-.19l2.21-2c4,.52,6.68-2,10.73-3.91h4.7l7.07,4h3.22l2.17,2h9.93l1.78,2h8c1.45,1.4,1.55,2.55.5,4H283a17.07,17.07,0,0,1-3.26,2.1c-1.15.4-2.65,0-3.67.51s-1.79,1.69-3.28,1.53a33.23,33.23,0,0,0-3.72,0L262.24,24Z"/><path class="cls-1" d="M449.45,14V10H458l2-2h5.81l2.61-2h5.26l7.17-4h5.45c1.4,2.35,5,1.28,5.95,4h6.13l2,2h8l2,2h8.7c.21,1.23.37,2.15.51,3-.36.37-.6.81-.84.81-4,0-8,0-11.88,0L504.36,16H498.6l-2.14,2H493l-7.14,4h-4.61l-11.51-6h-9.65L458,14Z"/><path class="cls-1" d="M299.83,12h5.42l1.43-1.51c2.25-1.18,4.71-.25,7-.68l1.48-1.48c1.94-1,4-.33,6.05-.53l12.31-6.42,8,4.32h3.59c.49.5,1,1,2,2l4.37.25L353.87,10h9.89l5.88,3c-1.89,2.14-5.64-.3-7,3h-9.87l-2.26,2h-3.9l-2.13,2H339l-2.92,3.65c-2.81.49-4.45-.92-6.37-1.63-2.14-.78-3.91-3.2-6.65-2a6.65,6.65,0,0,0-5.84-1.86L314.81,16H299.14C299.42,14.34,299.63,13.13,299.83,12Zm31.62.92c-.22-.22-.5-.66-.66-.62a6,6,0,0,0-1.34.62c.22.23.49.67.66.63A5.81,5.81,0,0,0,331.45,12.92Z"/><path class="cls-1" d="M707.92,0l7,4h5.12l2.65,2h7.77l2,2H743c.11,2.23-1.72,2.75-2.53,4h-7.91l-2.2,1h-7.9a23.5,23.5,0,0,1-2.16,2.93c-3.88-.51-6.52,2-11.2,4a9.67,9.67,0,0,1-3.15-.07c-1.46-.32-2.73-1.48-4.19-1.86s-3.27.42-4.51-1.21-3.08-.53-4.78-.94c-.59-.54-2.07-1.84-2.07-1.84h-7.76l-1.49-1.43c-3-1.85-6.69.53-10-1.46L674,8h9.87l2.55-2H692c1.73-2.46,5-1.18,6.83-2.63s4.57-1,5.64-3.37Zm-4.76,9.21-.71-1.29c-.22.23-.66.5-.63.66a6.53,6.53,0,0,0,.63,1.34Z"/><path class="cls-1" d="M20.69,20l-2.13-2H8.38l-1.6-1.6L0,15.32c2.2-.76,3-.94,3.78-1.32s1.6-1,2.92-1.9c2.66-1,6.7,1.51,9.52-1.87,3.72.86,6.31-3.3,10.13-2.22l2.19-2h3.53l2.55-2.36a43.58,43.58,0,0,0,5,2.29c1.81.59,2.92,2.83,5.25,2.11,2-.61,2.67,1.81,4.25,2,2,.23,4.13-.42,5.42,2h9.59l2.48,2.12c1.15.74,3.51-1.44,4.53,1.15-.24.24-.47.67-.7.67-2.6.05-5.19,0-7.76,0l-2.16,2h-8l-2.13,2H46.89L35.45,26,23.83,20Zm32.47-4.79-.71-1.29c-.22.23-.66.5-.63.66a6.53,6.53,0,0,0,.63,1.34Z"/></g></g></svg>