<svg xmlns="http://www.w3.org/2000/svg" viewBox="0 0 69.77 70.31"><defs><style>.cls-1{isolation:isolate;}.cls-2{opacity:0.9;mix-blend-mode:multiply;}.cls-3{fill:#3dbfe0;}</style></defs><title>Calle_ornamento_matera</title><g class="cls-1"><g id="Layer_2" data-name="Layer 2"><g id="textos"><g class="cls-2"><path class="cls-3" d="M48.17,70.1H42.81c-.23,0-.48.08-.64-.18-.4.06-.8,0-1.21.09a10.34,10.34,0,0,1-2.1,0c-.29,0-.57-.1-.85-.1H22.82a6.64,6.64,0,0,1-1.92-2.5,3.79,3.79,0,0,1-.62-1.19,1.65,1.65,0,0,0-.66-1.07c-.23-1.2-1.12-2.1-1.47-3.26a14,14,0,0,0-.7-1.68c-.12-.25-.3-.47-.43-.72s-.31-.71-.47-1.06a1.91,1.91,0,0,0-.31-.59,3.17,3.17,0,0,1-.63-1c-.21-.46-.57-.85-.5-1.41-.34-.18-.12-.53-.24-.8-.46-1-.86-2-1.35-3.12a8.87,8.87,0,0,0-.64-2.26,7.46,7.46,0,0,0-.63-1.9.18.18,0,0,1,0-.09c0-.33,0-.66,0-1s-.2-.51-.2-.82a7.65,7.65,0,0,1,.28-1.42c.07-.36.31-.66.29-1.05,0-.09.09-.2.15-.29a3.83,3.83,0,0,1,.45-.62,1.07,1.07,0,0,0,.33-.68c0-.12.18-.26.31-.31a12.84,12.84,0,0,1,2.65-1.22c.41-.07.77-.44,1.17-.63a1.3,1.3,0,0,0,.86-1.42L18,37.33l-1.1-.46a18.79,18.79,0,0,1,0-2.54,6.3,6.3,0,0,1,1.57-3.66,9.62,9.62,0,0,1,.65-.8c.25-.21.59-.31,1.06-1.87h1.24c.2,1.07.4.82.67.49l-.24-.67c-.35,0-.74-.11-1.14-.14s-.78,0-1.13,0a6,6,0,0,0-.79.37,1.53,1.53,0,0,0-.58.95h-.71a4.71,4.71,0,0,0-.23-.65,4,4,0,0,1,.34-2.23c-.1-.54-.64-.27-.88-.68a9,9,0,0,0-.55,1.39,4.84,4.84,0,0,1-1.64,2.73,6.68,6.68,0,0,1-1.19.81c-.67.35-1.14,1-1.79,1.31A3.48,3.48,0,0,0,11,32a3.25,3.25,0,0,0-1.12,2.23c-.06.59,0,1.2,0,1.8a2.94,2.94,0,0,1-.14,1.11,1.1,1.1,0,0,0,.44,1.29c.24-.08.56.12.86-.14.14-.13.65.2.65.2v1.21a1.27,1.27,0,0,1-.74.72,3.47,3.47,0,0,0-1.25,1.2c-.12.17-.26.32-.37.46a1,1,0,0,1-.72-.41c-.1-.91.2-1.88-.37-2.71H7.53c-.58.49-.39,1-.19,1.58s.42.81.56,1.25a2.59,2.59,0,0,1,.22,1.06,10.23,10.23,0,0,0,0,1.15c0,.47-.07.88-.6,1.06-.14,0-.24.22-.35.34l-.24,1.32.88.77.31.63c0,.22.16.58-.28.84H6.19c-.28.39-.28.39-.27,1.06.44.81,1.36,1.32,1.52,2.4L7,53H6.51a1.9,1.9,0,0,1-.91-.16,1.62,1.62,0,0,0-1.08-.16,3.7,3.7,0,0,0-.35.9,4,4,0,0,0,.06,1.23A6,6,0,0,0,4.83,56h.43s1-1.14,1.75-1.24a2.91,2.91,0,0,1,.4-.1c.34,0,.64.22,1,.19a3.32,3.32,0,0,1,.91.16c.52.11.78.57,1.18.85s.79.34,1,.81a2.37,2.37,0,0,0,1.23,1,4.72,4.72,0,0,1,1.26.64,3.19,3.19,0,0,1,1.28,2.52c0,.36.17.73.16,1.09A25,25,0,0,0,15.3,65a7.39,7.39,0,0,0-.51,1.4,4.45,4.45,0,0,1-1.31,2.16,6.62,6.62,0,0,1-1.08.88,2.71,2.71,0,0,1-1.34.46c-1,0-2,0-3.05,0-.25,0-.49-.18-.73-.16-.48,0-1-.17-1.46.15a.71.71,0,0,1-.61,0c-.64-.34-1.39,0-2-.34-.09-.05-.24,0-.41,0-.41-.42-.82-.9-1.3-1.31a3.05,3.05,0,0,1-.73-1.41c-.1-.25.05-.58-.18-.83a.37.37,0,0,1,0-.34.87.87,0,0,0,0-1,.78.78,0,0,1,0-.52,3.29,3.29,0,0,0,0-2,2.24,2.24,0,0,1,0-.45c0-.39,0-.78,0-1.17A6.77,6.77,0,0,1,1,57.63l1.28-.51a4.67,4.67,0,0,0,.42-1.65L2.27,55h-1a.79.79,0,0,1,.27-1.33c.21-.11.41-.23.63-.33a1.26,1.26,0,0,0,.73-1.17,1.63,1.63,0,0,0-.22-1.1.41.41,0,0,0-.61.22c-.08.35-.42.43-.56.71H.93l-.21-.2a2.14,2.14,0,0,1,.39-1.58c.22-.39.45-.76.13-1.24-.17-.25,0-.61-.12-.94A10.73,10.73,0,0,1,.31,46c0-.1-.13-.19-.12-.28C.31,44.77,0,43.88,0,43a3,3,0,0,1,.34-1.27A4.72,4.72,0,0,1,1.45,40c.11-.09.15-.27.26-.46V38.37l-1-.78V35.3s.33-.21.6-.42l.77.15c.36-.41.36-.41-.05-.92l-.88.37c-.08-.11.56-.56.56-.56v-1.3l.42-.38,1.72.19.5-.52A2.86,2.86,0,0,0,4,31.32,3.9,3.9,0,0,1,3,30c-.06-.17-.32-.31-.52-.4a1.83,1.83,0,0,1-1.05-1.2A8.55,8.55,0,0,1,.82,25.5,2.11,2.11,0,0,1,1,25a4.25,4.25,0,0,1-.32-1.9A5,5,0,0,1,1.35,21c-.18-.93.31-1.85.35-2.83a1.17,1.17,0,0,1,.3-.57c.48-.62,1-1.22,1.47-1.84A9.7,9.7,0,0,0,4,14.94c.12-.19.22-.46.39-.52.66-.25,1.15-.83,1.88-1,.2,0,.36-.26.56-.33a2.32,2.32,0,0,1,1-.2,1.65,1.65,0,0,0,.53-.12l1.54.28.78-.56A5.65,5.65,0,0,1,11,10a1.47,1.47,0,0,1,.22-.52c.46-.55.94-1.08,1.42-1.6.09-.09.24-.12.35-.2a4,4,0,0,0,.79-.62,4.36,4.36,0,0,1,1.48-.9,2.46,2.46,0,0,1,1-.07,5.55,5.55,0,0,0,3.07,2l.46-.58V6.37s-1.88-.36-2-1.11V4.74c-.11-.08.09-.2.46-.74h1.29a2.75,2.75,0,0,0,1.1.89,2.79,2.79,0,0,0,1.05-1.84,1.14,1.14,0,0,1,.71-.9c.81-.36,1.52-.93,2.37-1.22A6.47,6.47,0,0,1,26.51.56c.87,0,1.74,0,2.61,0A5,5,0,0,0,30.79.25a1.88,1.88,0,0,1,.42-.06A6.07,6.07,0,0,0,32.58,0a2,2,0,0,1,1.25.17,2.86,2.86,0,0,0,.83.16,1.4,1.4,0,0,1,.64.18c.65.48,1.27,1,1.9,1.5A3.6,3.6,0,0,1,38,3a9.94,9.94,0,0,0,.72.93c.35,0,.65.1.85-.21l.27-1.51c.22-.07.47-.14.69-.24.48-.21,1-.45,1.44-.65a.81.81,0,0,1,.51-.06,6.37,6.37,0,0,1,1.71.67,3.72,3.72,0,0,1,1.2,1.57,8.46,8.46,0,0,0,1,1.31c.58.14.88-.4,1.37-.36.1,0,.29-.13.47-.15a7.71,7.71,0,0,1,3.37.56,6.31,6.31,0,0,1,1.52.87A1.59,1.59,0,0,1,53.8,7c.22.12.43.25.66.36s.37.08.45.19c.59.79,1.57.71,2.35,1.07a8.79,8.79,0,0,0,.87.28l1.57,1.81a6.35,6.35,0,0,1,.71,2,2.07,2.07,0,0,0,.06.6c.16.41.14.89.47,1.25.15.16.38.48.38.48h.32a8.53,8.53,0,0,1,.85-.43,8.07,8.07,0,0,1,.95-.24A12.33,12.33,0,0,1,65,15,8.15,8.15,0,0,1,67,16.38a2.55,2.55,0,0,1,.66,1.51,2.74,2.74,0,0,0,.2,1A3.9,3.9,0,0,1,68,20.45a4,4,0,0,0-1,1.34,1.52,1.52,0,0,0,.23,1.83c.21.25.46.46.73.73a7.06,7.06,0,0,1,.2.93,2.36,2.36,0,0,0,.18,1,.59.59,0,0,1,0,.44,8.69,8.69,0,0,0-.16,2.78,3.9,3.9,0,0,0,.17.91c.06.3-.14.65.16.91a7.73,7.73,0,0,1-.1,1.62,2.34,2.34,0,0,1-1.25,1.62l-.47.25a2.69,2.69,0,0,0-.26.19h-.74v1.27s1.38.61,1.95.28a1,1,0,0,1,1.06.14c.26.17.58.34.45.86l-.78.59c-.84-.3-1.44.54-2.33.54L65.62,38c0-.8-.78-1.27-1.33-1.87-.41,0-.41,0-.82.44a5.75,5.75,0,0,1,0,.88,2,2,0,0,0,.4,1.28,8.07,8.07,0,0,0,1,1.22c.47-.07,1-.14,1.48-.23.33-.06.6-.49.92-.33a3.09,3.09,0,0,0,1,.17l.76.54c0,.33.11.62-.22.86a1.9,1.9,0,0,1-1-.14,7.62,7.62,0,0,0-1.25-.26,1.84,1.84,0,0,1-.79.53v.44a2.7,2.7,0,0,1,.9.6,9.37,9.37,0,0,1,1.14.48c.54.31,1.13.59,1.36,1.24a3.06,3.06,0,0,1,.29,1.23c0,.57,0,1.14,0,1.71,0,.25-.09.52.15.75a.61.61,0,0,1,0,.52,7.11,7.11,0,0,0-.17,2.36c0,.32,0,.64-.25.9a1.77,1.77,0,0,1-1,.29,3.11,3.11,0,0,0-.89.34c-.14,1.72.28,3.09,2,3.86l.18,1c-.28.32-.51.44-.81.17a3.48,3.48,0,0,0-.69-.5,1.2,1.2,0,0,0-1-.22c-.17.39.08.7.33.95a5.66,5.66,0,0,0,1.26,1.07,2,2,0,0,1,.93,1.14c0,.05.08.09.1.1.07.66.17,1.29.2,1.93s0,1.32,0,2a9.19,9.19,0,0,1-.31,1.84,1.94,1.94,0,0,0,0,.66,8,8,0,0,1,.26,1.78.78.78,0,0,1-.05.34,5.08,5.08,0,0,1-1.28,1.61,2.31,2.31,0,0,1-1.53.41c-1.3-.14-2.58.26-3.88.18-.18,0-.36,0-.4,0a11.83,11.83,0,0,0-1.26-.52,1,1,0,0,0-.66.13,2.75,2.75,0,0,1-2.38.24,3.41,3.41,0,0,0-1.23,0c-.35-.47-.95-.78-1.22-1.4s0-1.17-.14-1.72a2.74,2.74,0,0,0,.4-.41c.25-.4.44-.85.71-1.23a10.14,10.14,0,0,1,.84-.94c.18-.85-.2-1.51-.16-2.22A4.39,4.39,0,0,1,58,60.39c.13-.24.22-.51.4-.92l1-1A10,10,0,0,0,60.72,58a1.58,1.58,0,0,1,1.19-.27l1-1c0-1.21,0-1.4-.77-1.56l-1.07,1.07c-.43.1-.57-.21-.79-.4l.2-2.42a.43.43,0,0,1,.66-.14A2.62,2.62,0,0,1,62,54h.66a2.68,2.68,0,0,0,.64-1.51c0-.24.18-.5.15-.73a2.38,2.38,0,0,0-.35-.84c-.22-.36-.48-.7-.73-1-.05-.07-.12-.13-.06-.07-.14-.38-.21-.62-.32-.85a3.88,3.88,0,0,1-.47-2.3,6.49,6.49,0,0,0,.14-1.37,9.28,9.28,0,0,0-.14-1l-1.19-.35a1,1,0,0,1,.08-1,6.91,6.91,0,0,1,.6-1.36c.32-.42.38-.93.66-1.35.08-.11.19-.26.17-.37-.12-.8.25-1.56.19-2.35a2.56,2.56,0,0,0-.68-1.62c-.48.25-.48.72-.57,1.11a6.52,6.52,0,0,0,0,.9c0,.36-.15,1.1-.15,1.1H60a3.8,3.8,0,0,1-.44-2c0-.54,0-1.09,0-1.64-.33-.59-.65-1.19-1-1.77a5.59,5.59,0,0,0-.58-.76,11.59,11.59,0,0,1-1.49-1.66,3.91,3.91,0,0,1-.42-.83A2.42,2.42,0,0,0,55.24,29h-.5s-.57.72-.84,1h-.68a2.25,2.25,0,0,1-.34-.75,1.16,1.16,0,0,0-1-1.21c-.08,0-.14-.11-.22-.18a9.86,9.86,0,0,0-3.12.26c-.07.07.15.37.15.37v.61s0,.33.28.37a2.87,2.87,0,0,1,1.89,1.23c.09.11.14.25.23.35a5.18,5.18,0,0,1,1.4,2.48c0,.1.15.19.16.29.08.78.15,1.56.21,2.29a2.82,2.82,0,0,1-2.11,1.65l-.26.51a1.73,1.73,0,0,0,1,1.09,1.92,1.92,0,0,1,.3.14,3.56,3.56,0,0,0,1.37.61c.28,0,.71,0,.9.4.82.33,1.33,1.08,2.06,1.53A2.16,2.16,0,0,1,57,43.43a5.1,5.1,0,0,1,.38,1.28,16.77,16.77,0,0,1,0,2.69c-.11.82-.23,1.64-.34,2.46a9,9,0,0,1-.23.95l-.84,1a7.34,7.34,0,0,0,0,.77,2.7,2.7,0,0,1-.35,1.56c-.26.52-.44,1.07-.65,1.62a.55.55,0,0,0-.07.24,2.66,2.66,0,0,1-.49,1.6c-.45.86-.72,1.8-1.11,2.68a39,39,0,0,0-1.51,4,2.29,2.29,0,0,1-.51.86,4.51,4.51,0,0,0-.86,2.08,2,2,0,0,1-.4.83C49.35,68.75,48.75,69.44,48.17,70.1Zm-19-49.22a18.34,18.34,0,0,0,2.24.49,2.43,2.43,0,0,0,1.68-.47c.49-.36.92-.81,1.4-1.19.22-.18.46-.42.7-.45.49,0,.84-.52,1.38-.4.14,0,.33-.19.49-.3s.37-.35.56-.36a2,2,0,0,0,1.32-.8c.08-.53.18-1,.21-1.49s0-1,0-1.53,0-1.26,0-1.89a3.13,3.13,0,0,1,.24-1.26,4.68,4.68,0,0,1,.48-1,4,4,0,0,0,.54-2.6c-.13-.16-.23-.3-.35-.43L38.91,5.94c-.74-.12-1.09-.74-1.55-1.21s-1.22-1.24-1.84-1.84a4.37,4.37,0,0,0-.82-.63c-.16-.09-.46,0-.57-.11-.25-.26-.55-.12-.82-.21a4.64,4.64,0,0,0-2.05,0,9.09,9.09,0,0,1-2.61.44c-.5-.05-1,0-1.52,0-1.19-.16-2.13.49-3.12.95-.26.12-.43.46-.62.72-.34.46-.62,1-1,1.38a3.88,3.88,0,0,0-.69,1.07c-.24.56-.53,1.1-.75,1.66a2.26,2.26,0,0,0-.09,2,4.61,4.61,0,0,1,.19.82,10.84,10.84,0,0,0,.77,2.2c.24.45.56.85.83,1.28a8.08,8.08,0,0,1,.41,1.17,4.43,4.43,0,0,0,.86,1,1.33,1.33,0,0,1,.19.28,1.64,1.64,0,0,0,.91.81,4.57,4.57,0,0,1,.9.63A13.08,13.08,0,0,0,28.37,20,1.47,1.47,0,0,1,29.2,20.88Zm16.11,1.86a3.47,3.47,0,0,1,.75.28c.83.6,1.86.39,2.76.71.06,0,.16,0,.24-.06a3.87,3.87,0,0,1,2.16,0,4,4,0,0,0,3.44-.28,8.9,8.9,0,0,1,1.7-.88.73.73,0,0,0,.45-.35,4.65,4.65,0,0,1,.3-.42,14.12,14.12,0,0,0,.94-1.32c.4-.71.76-1.43,1.2-2.11a2.72,2.72,0,0,0,.41-1.17,7.4,7.4,0,0,0-.34-3,9,9,0,0,0-.9-2.42c0-.06,0-.18,0-.26A7.52,7.52,0,0,0,56.48,9.9a1.36,1.36,0,0,0-.74-.34c-.55,0-.93-.41-1.43-.47a.5.5,0,0,1-.36-.19c-.45-1-1.47-1.32-2.11-2.07a1.07,1.07,0,0,0-.43-.26,5.49,5.49,0,0,0-2.89-.63c-.09,0-.18,0-.27,0A3.12,3.12,0,0,0,46,7.25c-.19.32-.31.81-.84.91a4.37,4.37,0,0,0-1.26.65h-.09c-.91-.18-1.44.57-2.15.87-.07,0-.07.22-.13.29a4.48,4.48,0,0,0-.68,2.32,17.39,17.39,0,0,0-.2,2.7c0,.45,0,.9,0,1.35A7.06,7.06,0,0,0,41,18.54a5.72,5.72,0,0,0,2.12,2.68.54.54,0,0,0,.29.17,1.84,1.84,0,0,1,1.3.77ZM10.36,30.45a3.67,3.67,0,0,0,2.1-1,6.08,6.08,0,0,1,.86-.72c.36-.24.85-.39,1-.92s.36-.86.5-1.32c.18-.62.09-1.31.51-1.85,0-.5.22-.94.21-1.45A11.76,11.76,0,0,0,15,20.69a4.32,4.32,0,0,0-.93-1.58,3.12,3.12,0,0,0-1.25-.85,2.55,2.55,0,0,1-1.2-1,10.39,10.39,0,0,0-1-1.12l-.92-1.12c-.31-.06-.5-.11-.7-.13s-.71-.2-.93-.07c-.42.25-.93,0-1.3.33a5.57,5.57,0,0,0-2.27,1,1,1,0,0,0-.5.5,3.19,3.19,0,0,1-1,1.37A2.63,2.63,0,0,0,2.18,20,10.38,10.38,0,0,1,2,22.15a2.15,2.15,0,0,1-.57,1.21c0,.69,0,1.38,0,2.06a8.78,8.78,0,0,0,.23,2,1.31,1.31,0,0,0,.41.91,1.94,1.94,0,0,1,.61.81,1.2,1.2,0,0,0,.55.66,6.89,6.89,0,0,1,1.18,1l.2.18h.56a3.5,3.5,0,0,0,2,1.21L9,31.83ZM49.54,32a5.21,5.21,0,0,1-.78-.09c-.27-.07-.51-.25-.78-.29a3.36,3.36,0,0,0-1,0c-.34,0-.61-.17-.92-.18s-.61.13-.92.16a1.73,1.73,0,0,1-.66-.12,3.6,3.6,0,0,0-2.82-.24.42.42,0,0,1-.35,0c-.46-.32-1-.12-1.46-.17s-1-.13-1.54-.18a8.28,8.28,0,0,1-2.27-.17,1.63,1.63,0,0,0-1,0,7.33,7.33,0,0,1-2.82.09,6.19,6.19,0,0,0-2.53,0,.91.91,0,0,1-.39,0,2.59,2.59,0,0,0-1.75,0A2.73,2.73,0,0,1,27,30.8a20.53,20.53,0,0,0-2.28,0,12.65,12.65,0,0,1-1.58.3,3,3,0,0,0-1.22.32c-.62.25-1.25.46-1.93.7a4.89,4.89,0,0,0-1.08,2.61,1,1,0,0,0,.64.72l.57-.35c.09-.88.48-1.44,1-1.44l.66.4L22,35.42c.86.59.85.55,1.72,0V34.2A5.3,5.3,0,0,0,24,33H25.1a7.61,7.61,0,0,1,.45,2.15,1.67,1.67,0,0,0,1.7.78c.61-.46.39-1.12.44-1.61a1.18,1.18,0,0,1,.43-.32h1.17a.72.72,0,0,1,.2.25c.22.5.29,1.15,1,1.28a6.42,6.42,0,0,0,1.28,0l.41-.35c.13-.64.69-2.2.69-2.2h.89a15.32,15.32,0,0,1,.45,1.63,1,1,0,0,0,1.1,1c.21,0,.41,0,.52,0a1.81,1.81,0,0,0,1.11-1c.12-.39.88-.56.88-.56h.85c.08.16.16.31.22.47a3.26,3.26,0,0,0,.41.93,4.16,4.16,0,0,0,1,.6h.86l.63-.64v-1.1L42,34h.79c.6.89,1.07,2,2.49,2.15a1.49,1.49,0,0,0,1-1.35c.31-.19.44-.71,1-.62.52.35.57.91.71,1.42l.41.19c.51-.31.57-1,.92-1.43,1.31.89,1.31.89,1.85.47A3.19,3.19,0,0,0,49.54,32ZM2.18,66.54c.3.39.58.73.83,1.07s.8.4,1.17.64a2,2,0,0,0,1.27.4c.63,0,1.27-.15,1.9-.17,1,0,1.92,0,2.87,0a2.4,2.4,0,0,0,1.37-.4c.28-.16.42-.54.65-.78a6.77,6.77,0,0,0,1.19-1.94,8.29,8.29,0,0,0,.41-2.25,8.5,8.5,0,0,0,0-1.52,6.83,6.83,0,0,0-.61-1.72.36.36,0,0,0-.19-.19c-.18-.08-.36-.13-.54-.2l-.69-.29a9.45,9.45,0,0,0-3.67-2.77l-1.61.22a3.84,3.84,0,0,1-1.76,1.06,11.92,11.92,0,0,0-1.47.69A1.42,1.42,0,0,0,2,59.12a15.48,15.48,0,0,0,.18,2.44c.16.5,0,1.1.2,1.63,0,.1.06.3,0,.35-.29.24-.16.56-.16.83C2.16,65.11,2.18,65.86,2.18,66.54ZM61.33,22.46c-.25.32-.41.68-.69.84a6.05,6.05,0,0,0-.8.66c-.24.2-.5.39-.75.57a21.89,21.89,0,0,0-1.72,1.74,1,1,0,0,0-.26.47,5.78,5.78,0,0,0-.17,2.07,3,3,0,0,0,.33,1.12,21.33,21.33,0,0,0,1.5,2.26,9.68,9.68,0,0,1,1.06,1.34,2.76,2.76,0,0,0,1.39,1.14,4.88,4.88,0,0,0,1.81.39c1,0,2,0,3,0l.36-1c.52-.22,1.09-.43,1.32-1.07V32a5.88,5.88,0,0,0,0-1.34c-.09-.37-.21-.76-.29-1.12a2.38,2.38,0,0,1,.06-1.38,3.84,3.84,0,0,0,.25-1.87,2.35,2.35,0,0,0-.6-1.45c-.44-.41-1-.73-1.41-1.13a2.17,2.17,0,0,0-1-.51,8.25,8.25,0,0,1-1.12-.33A15.49,15.49,0,0,0,61.33,22.46Zm4.35,35.92a16.19,16.19,0,0,0-2.22.23,2.38,2.38,0,0,0-1.65.79,1.15,1.15,0,0,1-.89.45A1.86,1.86,0,0,0,59.36,61c0,.1-.09.2-.13.31a2.58,2.58,0,0,0,.1,2.52c.22.33.48.64.73,1-.15.58.31,1.11.16,1.7.31.29.13.74.41,1.1a3.32,3.32,0,0,0,1,.88,7.39,7.39,0,0,1,.73.53h5c.28-.42.6-.86.89-1.32a1.84,1.84,0,0,0,.24-1.84,5.23,5.23,0,0,1-.17-2.69,4,4,0,0,0,0-2.1,2,2,0,0,0-1.1-1.51c-.15-.36-.6-.15-.81-.44A7.2,7.2,0,0,0,65.69,58.38ZM14.18,13a4,4,0,0,1-1.41-2.6c0-.19-.2-.36-.32-.55a1.89,1.89,0,0,0-.93,1.88,10.22,10.22,0,0,1,0,1.53,2.81,2.81,0,0,0,.8,2,5.35,5.35,0,0,0,1.63,1.25c.27.13.55,0,.85.12a3,3,0,0,0,1.55,0,4.58,4.58,0,0,1,1.59-.26c.65-.71.83-1.75,1.64-2.2l.24-1.47c-.41-.37-.75-.82-.53-1.19a1.13,1.13,0,0,0-.06-1.12,2.22,2.22,0,0,0-1.45-1.58L17.48,9a4.45,4.45,0,0,0-2.07-1h-.9c-.46-.05-.93.33-.8.68v1c-.1.46.37.88.78,1.35.22.26.38.53.85.53.85-.36,1.34-1.27,2.14-1.85.74.6.46,1.41.51,2l.42.91a2.43,2.43,0,0,0-.78,2,.94.94,0,0,1-.8.73L16,14.44c-.87-.29-1.23.73-2,.67a1.25,1.25,0,0,1-.25-.42V14C13.69,13.58,14.35,13.7,14.18,13Zm7,36.09.49-.35a3.88,3.88,0,0,0-.07-2c0-.43.12-.88-.18-1.27a12.19,12.19,0,0,1,.37-3.8,4.44,4.44,0,0,1,.37-.77,1.14,1.14,0,0,0-.94-1l-.47.22a1.74,1.74,0,0,0-.88.88A11.59,11.59,0,0,1,18,43.62c-.09.24.11.57-.15.87a.71.71,0,0,0,0,.68A1.18,1.18,0,0,1,18,46a1.36,1.36,0,0,0,.45,1.08c.47.46.94.92,1.39,1.4A1.52,1.52,0,0,0,21.16,49.08ZM65.2,44a1.33,1.33,0,0,1-.26.18c-.72.24-1.07,1-1.85,1.19a.18.18,0,0,0-.12.12c0,.37-.31.68-.23,1.08.12.58.23,1.16.36,1.74a7,7,0,0,0,.26.73,11.08,11.08,0,0,0,2.1,1.78A1.57,1.57,0,0,0,67,51a1.82,1.82,0,0,0,1.31-2.27,6.11,6.11,0,0,1-.14-.75,4.28,4.28,0,0,1-.17-.73,1.33,1.33,0,0,1,.13-.85c.12-.2,0-.54,0-.84A3,3,0,0,0,66.94,44Zm1.55-22.81a8.08,8.08,0,0,1,.3-1c.26-.57,0-1.17.12-1.74l-1.52-1.88a2.18,2.18,0,0,1-.93-.35A5.17,5.17,0,0,0,63.6,16l-.4.77.67,1.37c.63.08,1.33-.16,1.84.46v.75c-.82.61-.92.63-2.43.59-.43-.26-.65-.45-.74-.75a9.35,9.35,0,0,1-.22-1,2,2,0,0,0-.73-1.33,1.79,1.79,0,0,0-.71,1.44,1.56,1.56,0,0,0,.55,1.39c.14.13.23.33.36.47a2.11,2.11,0,0,0,.38.32l1,.65c.28.08.47.12.65.2s.61.26.9.42a1.41,1.41,0,0,0,1.73-.23C66.54,21.4,66.66,21.27,66.75,21.19Zm-64,22.92V42.34c-.46-.57.06-.84.31-1.23a8,8,0,0,1,2.66,2.21l.24-.23a4,4,0,0,0-.52-2.37,1.75,1.75,0,0,0-1.64-1H2.93L1.39,41.11a5,5,0,0,0-.29.8,1.54,1.54,0,0,0,0,.8,4.74,4.74,0,0,1,.17,1.57c.4.57.45,1.36,1.2,1.54.24-.06.56-.23.65-.14.3.28.63.09.82.14l1.46-.6c0-.47.41-.88.1-1.35-.69,0-1.39-.13-2,.47C3.37,44.52,3,44.48,2.71,44.11Zm21.75,2a4.4,4.4,0,0,0,0-.7c-.25-1.54-.34-1.15.18-2.29.07-.15.11-.31.18-.46.27-.55.55-1.09.89-1.77v-.63L24.93,40a7.9,7.9,0,0,0-1.17,1.29c-.38.67-.47,1.47-.91,2.13-.07.1,0,.29,0,.44a11.14,11.14,0,0,0,.15,2,4.91,4.91,0,0,0,.37,1.38,4.11,4.11,0,0,1,.42,1,1,1,0,0,0,.67.8c.39,0,.51-.28.72-.46A3.65,3.65,0,0,0,24.46,46.1Zm17-42.88a1.31,1.31,0,0,1-.06.23c0,.07-.14.14-.14.21a3.56,3.56,0,0,0,.46,2.56,2.37,2.37,0,0,0,1.27.83,1.31,1.31,0,0,0,1.46-.3c0-.45,0-.9,0-1.34a2,2,0,0,0-.69-1.5A12,12,0,0,0,42.47,3ZM40,24.81a3.45,3.45,0,0,1,.42,0,1.59,1.59,0,0,0,1.45-.62c.28-.31.59-.59.89-.89v-.93c-.72-.79-1.43-1.52-2.63-1.31a2.73,2.73,0,0,0-.77,2.1A1.91,1.91,0,0,0,40,24.81Zm-4.35-3.56c0,.41,0,.86,0,1.3a1.34,1.34,0,0,0,.14.5,3.75,3.75,0,0,1,.4,1.89c0,.61.11,1.19.83,1.41.51-.34,1-1.1.74-1.5a1.47,1.47,0,0,1-.14-.75c0-.69,0-1.39,0-2.16L36.65,21h-.8ZM44.45,29h1.37A14.1,14.1,0,0,1,47,27.45a1.29,1.29,0,0,0,.41-1.55c-.13,0-.34-.14-.5-.09a9,9,0,0,0-1,.42l-1.51.61C43.41,27.78,43.42,28.34,44.45,29ZM32.57,23.66a3.29,3.29,0,0,0,.45.61,3.61,3.61,0,0,1,.8,1.1A3,3,0,0,1,34,26.64a1.64,1.64,0,0,0,.77,1.47,2.35,2.35,0,0,0,.3-.43,7.44,7.44,0,0,0,.18-2.52c0-.07-.12-.14-.13-.21,0-.58-.56-.9-.76-1.39a3.91,3.91,0,0,0-1-1.26C32.65,22.43,32.55,22.62,32.57,23.66ZM19.82,17.09a1,1,0,0,1,.12.18c0,.1.06.21.09.32.36,1.21.55,1.43,1.65,1.76.36.11.74.19,1-.19v-1c-.31-.66-.78-1-.9-1.67a1.13,1.13,0,0,0-.71-.88C20.54,15.83,20.54,15.83,19.82,17.09Zm35.79,7.52c-.92.47-2.08.42-2.75,1.39.18,1.19.53,1.87,2,1.65l.87-.74.24-2ZM29.84,28.26a3.9,3.9,0,0,0-1.27-1,13.79,13.79,0,0,1-1.24-1A2,2,0,0,0,26,24.51l-.26.32v.74a5,5,0,0,0,.65.77,2.27,2.27,0,0,1,.74,1.21,1.89,1.89,0,0,0,.64.9,5,5,0,0,0,.8.56h.92C30,28.82,29.8,28.51,29.84,28.26ZM31.9,25.2a1.73,1.73,0,0,0-1.51-.05.83.83,0,0,1-.95-.17,4.32,4.32,0,0,0-.41.2,3.84,3.84,0,0,0-.33.25v.38l.45.45H30a.67.67,0,0,0,.16-.05.86.86,0,0,1,1.12.41,1.69,1.69,0,0,1,.18.82,1.28,1.28,0,0,0,.57.92c.11.08.31.05.43.07a4.08,4.08,0,0,0,.17-.55,1.58,1.58,0,0,0,0-.66C32.4,26.54,32.15,25.89,31.9,25.2ZM62.82,41a1.48,1.48,0,0,0-.45.92,5.32,5.32,0,0,1-.4,1l.61.89a1.79,1.79,0,0,0,2-1.25L63.83,41ZM27.15,21.85a5.46,5.46,0,0,0,.18.71,3.56,3.56,0,0,0,.36.66,5.11,5.11,0,0,0,.39.47l2.42.22a.62.62,0,0,0,.21-.05V23a2.5,2.5,0,0,0-1.54-.56,3.46,3.46,0,0,0-1.56-1.1ZM5.77,36.14a2.43,2.43,0,0,0-2.16,1,2,2,0,0,0,1.26,1.32c.7.07,1.41,0,1.65-1.08Zm36.69-9.67c-.29-.16-.5-.37-.73-.38a3.32,3.32,0,0,0-.91.22,12.63,12.63,0,0,0-.35,1.46,1,1,0,0,0,.51,1,1.09,1.09,0,0,0,1.26-.08C42.6,28,42.36,27.25,42.46,26.47Zm-4.15.2a3.68,3.68,0,0,0-1.6,1.16v.82l.62.36h1.08C39.1,28.24,39.33,27.34,38.31,26.67ZM23.19,25.21c-.05-.65.4-1.31.13-2l-.2-.2H22l-.61.68A2.08,2.08,0,0,0,22,25.32C22.4,25.19,22.77,25.84,23.19,25.21ZM59.32,68.29a2.55,2.55,0,0,0-1-2.29h-.57l-.41.64c0,.5-.09,1,.37,1.42.3.25.63.45,1,.7Zm1.26-47A1.93,1.93,0,0,0,60.34,20H59.5a7.32,7.32,0,0,1-1.94,2.48c.36.09.6.24.72.17A9.33,9.33,0,0,0,60.59,21.33Zm-34.88.06V19.62L25.12,19h-.8a1.82,1.82,0,0,0-.08,1.51c.2.49.22,1,.65,1.3S25.48,21.55,25.71,21.4ZM25.45,29c.5-.73.07-1.27-.21-1.83-.4-.79-.65-.9-1.67-.81-.08,1.15.69,1.86,1.32,2.63Zm-5.74-7.57.57-.23,1.13,1.07.31-.64L21,20.84l-2.37.27c-.41.29-.13.75-.23,1.11L19,23h.69ZM49.32,27h1.55a3.46,3.46,0,0,1,.43-1.37,2.91,2.91,0,0,0-1-.63h-.83c-.15,0-.27.11-.8.25v.93C49.18,26.25,49.24,26.31,49.32,27ZM16.44,18c-.17.19-.32.36-.43.49,0,.64.39.93.82,1.51h.94a1.94,1.94,0,0,1,.42-.91A1.12,1.12,0,0,0,17.3,18ZM7.83,36.18l.27-.38.23-1.92L8.15,34l-.37-.71-.6.77c0,.13.16.44-.1.7a.43.43,0,0,0,0,.41C7.27,35.49,7.26,36,7.83,36.18ZM66.4,54.94c-.33-.38-.37-1-1.13-.9l-.76,1.23.44.73h.65ZM5.71,34.59v-.95c-.3-.4-.67-.18-1-.27l-.56.87.26.77h.91Zm-2,12.94v1.14a2.61,2.61,0,0,0,.39.65,2.67,2.67,0,0,0,.61-.2v-1c-.14-.24-.27-.64-.62-.76A1.49,1.49,0,0,0,3.71,47.52Zm60.44,5,.21.63c.13.39.13.39.69.36.55-.83.54-1-.1-1.74C64.37,51.68,64.4,52.22,64.15,52.52ZM38.92,19.44l-.79.57.53.18c0,.13.13.13.24.13l.24,0C39.53,19.73,39.48,19.59,38.92,19.44ZM43.71,24h-.46c-.09.4,0,.64.46.71Z"/><path class="cls-3" d="M38.28,14.31c-.25.28-.43.36-.77.21a2.25,2.25,0,0,1-1.3-1.25,2.79,2.79,0,0,0-1.39-1.34L33.33,11h-.72a2.71,2.71,0,0,0-.6,2.32,5.91,5.91,0,0,1,.75,2.61A7.64,7.64,0,0,0,32.93,17a6.57,6.57,0,0,1-.47,2.79l-.75.4-.5-.6a3.67,3.67,0,0,1,.17-1.21,3.83,3.83,0,0,0-.1-2.84c-.1-.28-.19-.56-.26-.84a2.42,2.42,0,0,0-1.35-1.52.77.77,0,0,0-.85.07,14.4,14.4,0,0,1-1.58.79l-.24.1a3.44,3.44,0,0,1-1,.44A3.57,3.57,0,0,1,25,14.39l-.28-.55a1.47,1.47,0,0,1,1.34-1,11,11,0,0,0,2.11-.8l.24-1.1-.84-.73c.08,0,0,0,0,0a26,26,0,0,0-2.66-1c-.33-.11-.66-.24-1-.38a2.26,2.26,0,0,1-1.4-1.18c-.09-.23-.09-.23.18-.69H24a5.49,5.49,0,0,0,1.14,1.26,3.07,3.07,0,0,0,1.37.38h2l.28-.28A7.87,7.87,0,0,0,28.63,7c-.14-.46-.5-.69-.71-1.05a2.15,2.15,0,0,1-.39-1.46l.7-.21a6.8,6.8,0,0,1,1.6,2c.28.43.44.94,1,1A3.64,3.64,0,0,0,32.95,7a1.23,1.23,0,0,0,.44-.23c.37-.39.76-.69,1.34-.34.11.07.29,0,.43,0,.18-.18.53-.48.53-.48h1.43c.31.14.29.42.26.71-.19.45-.71.38-1,.67L35.56,7H35l-1.3,1.65v.68a2,2,0,0,0,1.15.81,1.38,1.38,0,0,1,.53.33c.33.3.63.63.95.94a1.71,1.71,0,0,0,.92.57c.53.1,1,.92,1,1.63C38.29,13.84,38.28,14.06,38.28,14.31Z"/><path class="cls-3" d="M45.92,15.67l.79-.56V13.62A1.63,1.63,0,0,0,45.6,13a2.2,2.2,0,0,1-.94-.36,2.52,2.52,0,0,0-1.48-.35l-.46-.45c0-.19,0-.37,0-.55L43,11a7.67,7.67,0,0,1,4.08,1.08,2,2,0,0,1,.43.31,2.74,2.74,0,0,0,2.45,1,1.76,1.76,0,0,0,.44-1.17c0-.61,0-1.21,0-1.82a3.78,3.78,0,0,0-.18-.92,6.91,6.91,0,0,1-.34-.86,8.25,8.25,0,0,1,0-1.24,1.58,1.58,0,0,1,1.46.93,2.08,2.08,0,0,1,.37,1.31c-.07.74.25,1.45.19,2.2a17.87,17.87,0,0,0,0,2.18,3.86,3.86,0,0,0,.23.82l.6.57,1.21,0c.7-.54,1.46-1,1.63-2L56,13h.78l.42.7c-.24.54-.34,1.12-.84,1.5s-.86.72-1.26,1a2.73,2.73,0,0,0-1.47.75h-.94l-.37.56a1.5,1.5,0,0,0,.42,1.28,13.14,13.14,0,0,1,.9,1.38l-.35.6a.82.82,0,0,1-.9-.11,1.24,1.24,0,0,1-.4-.63,2,2,0,0,0-1-1.38c-.28-.13-.47-.44-.72-.69H49a3.25,3.25,0,0,1-.64.92c0,.76.12,1.57-.4,2.08h-.81c-.12.06-.27-.08-.46-.23V19.51c.45-.28,0-.79.38-1.13.13-.14,0-.52,0-.79a2,2,0,0,0-1.26-.89l-2.06,1.47-1.08-.34V16.75A4.17,4.17,0,0,1,45.92,15.67Z"/><path class="cls-3" d="M6.89,24a16.13,16.13,0,0,1-3,1.14c-.45-.26-.29-.65-.32-1,.48-.77,1.37-.91,2-1.36a.75.75,0,0,1,.43,0A2.34,2.34,0,0,0,7.94,22c-.11-.41.18-.88-.19-1.26,0-.75-.57-1.13-1.11-1.54a8.85,8.85,0,0,1-1-1.1l.71-.37A6.06,6.06,0,0,1,6.2,17h.9a8.48,8.48,0,0,0,1.45,1.67,2.17,2.17,0,0,1,1.09,1.25,3.3,3.3,0,0,0,.64.9c.53.16.65-.24,1.44-.4v-1.1c-.5,0-.47.07-.43.1l.34-.56c.32.32,1.1,1,1.1,1v.78s-1.24,1-.95,2l.57.22A3.82,3.82,0,0,0,13,22h.69v1.29c-.21.15-.14.74-.68.84a7.71,7.71,0,0,0-1.1.36c0,.61,0,.61.67,1.4,0,.09,0,.2,0,.27s-.24.38-.37.59a.94.94,0,0,1-.88-.18c-.4-.31-1-.45-1.2-.92s-.42-.43-.67-.61c-.71.17-.75.78-.82,1.36a7.85,7.85,0,0,0,0,.94L7.93,28a.78.78,0,0,1-.71-.85,1.63,1.63,0,0,1,.13-1c.17-.26,0-.66.2-1,.08-.12-.06-.44-.17-.62A2.93,2.93,0,0,0,6.89,24Z"/><path class="cls-3" d="M8.24,65.19l-.89.29a6.64,6.64,0,0,1-.62.84,7.14,7.14,0,0,1-.9.69H5.16a6,6,0,0,0-.46-.75V65.7c.33-.45,1.13-.36,1.21-1.1,0-1,0-1-.24-1.33a1.57,1.57,0,0,1-1.9-1.11l.43-.72,1.41.66a.84.84,0,0,0,.08-.63V59.4a8.64,8.64,0,0,0,1.12-1.12,1.76,1.76,0,0,1,.88.22v3l.29.4a2.75,2.75,0,0,0,2-.3,1.17,1.17,0,0,1,.63-.18c.35,0,.69,0,1.11,0l.39,1.13-.53.48c-1.67-.18-1.46,0-2.13.61-.15.69.39,1.08.65,1.59a5.52,5.52,0,0,0,.55.74v.82l-.71.24c-.41-.37-.75-.71-.68-1.29Z"/><path class="cls-3" d="M63.46,30.09l-.23,1.41-.66.87c-.37.06-.67.1-.9-.23a1.3,1.3,0,0,1,.52-1.28,2,2,0,0,0-.26-1.4c-.5.08-1-.12-1.55.17-.21.12-.54,0-.88,0l-.79-1V28a1.05,1.05,0,0,1,.22-.09,1.84,1.84,0,0,1,.92.16,3,3,0,0,0,1.57.19l.23-.27c.05-1.33.07-2,.07-2V25l1-1a.44.44,0,0,1,.34.66c-.22.43-.08.84-.15,1.22.38.51,1,.36,1.44.65.41-.2.78-.52,1.38-.28l.35.33-.26.59-1.06.21v.94l1,1c0,.29,0,.61,0,.7l-.28.55-1.19-.85Z"/><path class="cls-3" d="M64.73,67a18.57,18.57,0,0,1-1-2h-.61a5,5,0,0,1-.57,1.21L62,65.7c.06-.41.15-.77.17-1.14a1.28,1.28,0,0,0-.84-1.35c-.64-.29-.73-.51-.77-1.37l.78-.26a2,2,0,0,0,.49.41h.55a2.75,2.75,0,0,0,.84-2.36l.51-.3a.52.52,0,0,1,.8.17l-.23,2.32c.77,1.24,1,1.06,2,1.13.4.26.21.66.25,1l-.93.67c.08.41-.11.86.16,1.35.18.32-.19.64-.34,1Z"/><path class="cls-3" d="M63.82,46.28l.27-.28h.75a2.05,2.05,0,0,0,1.27-1.17l.61.5v.57l-.3.28a.7.7,0,0,0-.05.18,4.56,4.56,0,0,0,.15,1.27A1.51,1.51,0,0,1,66.27,49H65.7c-.46-.46-.46-.46-.6-1.27C64.77,47.16,64,47,63.82,46.28Z"/></g></g></g></g></svg>