<svg xmlns="http://www.w3.org/2000/svg" viewBox="0 0 605 40" preserveAspectRatio="none"><defs><style>.cls-1{fill:#3dbfe0;}.cls-2{fill:none;stroke:#fff;stroke-linecap:round;stroke-linejoin:round;stroke-width:0;}</style></defs><title>Calle_ornamento_linea</title><g id="Layer_2" data-name="Layer 2"><g id="ornamentos"><path class="cls-1" d="M602.63,1.59l-3,2a3.41,3.41,0,0,1-.5-3.62h-4.86l1.22,1.31L593.19,4a3.69,3.69,0,0,1-.75-4h-5.32a4.5,4.5,0,0,1-.35,3.59c-1.39-.15-1.85-1.51-2.83-2.19A16.79,16.79,0,0,0,585.26,0h-5.07c.34.59.23,1.4-.21,4.17l-2.84-2.84L578.66,0h-5.27c.41.76.29,1.46-.22,4.1l-2.73-2.73L571.82,0H567c.35,1.06-.12,2.27-.24,3.56L564.66,4a3.55,3.55,0,0,1-.84-4H538.75l1.48,1.7-3.05,1.63A3.05,3.05,0,0,1,536.91,0h-4.85l1.44,1.38L531,3.71l-2.63-2.3L529.75,0H525c.49,1.08.29,2.47-.87,4L521.6,1l1.9-1h-5.62c.4.76.28,1.46-.22,4.08l-2.73-2.73L516.28,0h-6.1l1.2,1.29L509.07,4a3.7,3.7,0,0,1-.77-4h-5.18l1,2.09-1.59,1.59c-.86-1.28-1-1.52-.64-3.68H111.65c1,1.35,2.33,1.86,2.59,3.44l-3.35.62L111.65,0H0V.82C1,.63,1.93.67,3.06.46,3.27,1.56,3.41,2,3.69,4H.43C.29,3,.17,2.18,0,1.32V29H3.1c.16,1,.31,1.66.52,2.78L.47,32.4,0,30v6H3.1c.16,1,.31,1.52.52,2.65-1,.2-2,.33-3.15.55C.3,38.34.18,37.64,0,36.71V40H605V0h-4ZM524,7.34c1.39,1.2,1.35,1.66.15,3.66h-2c-.18-1-.37-1.88-.61-3.05C522.62,7.73,523.37,7.48,524,7.34Zm-2,10.13c-.22-1.09-.38-1.84-.51-2.51,1.2-1.39,2.46-1.35,3.46-.15v2C524,17,523.23,17.23,522.06,17.47Zm2.94,3v3.26c-1,.16-1.67.31-2.8.52-.2-1-.34-2-.56-3.15C522.75,20.89,523,20.74,525,20.46ZM517.9,6.91c.21,1.1.35,2.09.64,3.09h-3.26a12.71,12.71,0,0,1-.52-2.62C515.8,7.19,516.74,7.12,517.9,6.91ZM517.45,17h-2c-.18-1-.37-1.61-.61-2.78,1.09-.22,1.84-.46,2.51-.59C518.69,14.83,518.65,16,517.45,17Zm.55,3.46v3.26c-1,.16-1.54.31-2.66.52-.2-1-.41-2-.63-3.15C515.82,20.88,517,20.74,518,20.46ZM517.94,28a11.21,11.21,0,0,1,.52,2.52c-1,.2-2,.48-3.15.7-.21-1.1-.35-2.22-.63-3.22ZM508,27.77l2.73-.52.59,3.15L508,31C508,29.47,508,28.73,508,27.77Zm0-4.55v-2c1-.18,1.88-.37,3-.61.22,1.09.32,1.84.46,2.51C510.31,24.46,509,24.42,508,23.23Zm0-15.5c1-.18,1.88-.37,3.05-.61.22,1.09.32,1.84.46,2.51C510.31,11,509,11,508,9.77Zm2.57,6c1.39,1.2,1.34,2.29.15,3.29h-2c-.18-1-.37-1.7-.61-2.87C509.16,13.91,509.91,13.84,510.57,13.71Zm-6-5.95C504.29,9.13,503,9.65,502,11L501.44,8C502.67,6.94,503.6,7,504.56,7.76Zm-.72,5.94c1.39,1.2,1.34,2.29.15,3.29h-2c-.18-1-.37-1.7-.61-2.87C502.43,13.91,503.18,13.84,503.84,13.71ZM502,24.19c-.22-1.09-.33-1.84-.46-2.51,1.2-1.39,2.5-1.35,3.5-.15v2C504,23.76,503.13,24,502,24.19Zm2.59,6.24-2.35.36c-1-1.27-1.06-2.19.3-3.65ZM497.81,1c-.19,1.41-1.54,1.89-2.52,3.29l-.59-3C495.9.2,496.82.26,497.81,1Zm-.69,6.34c1.39,1.2,1.35,1.66.15,3.66h-2c-.18-1-.37-1.88-.61-3.05C495.7,7.73,496.45,7.47,497.11,7.34ZM470,1.33v2c-1,.18-2,.37-3.2.61-.22-1.09-.25-1.84-.38-2.51C467.62.1,468,.14,470,1.33Zm-1,13.46v2a11.93,11.93,0,0,1-2.7.61c-.22-1.09-.5-1.84-.63-2.51C466.87,13.56,468,13.6,469,14.79Zm.52,15c-1.2,1.39-2.52,1.34-3.52.15v-2c1-.18,1.81-.37,3-.61C469.21,28.38,469.39,29.13,469.52,29.79ZM456.33,1c-1.13,1.21-2,2-3.21,3.29l-.74-4Zm-2.81,26.38,2.33,2.5-2.32,2.67A3.7,3.7,0,0,1,453.52,27.37Zm0-6.73L455.81,23c-.21,1.58-1.44.93-2.32,1.06C452.27,22.91,452.43,21.79,453.47,20.64Zm2.75-10.72c-1,.2-2,.28-3.15.5-.21-1.1-.35-1.42-.63-3.42h3.26C455.86,8,456,8.79,456.22,9.92ZM449.29,1.3c-.92.77-1.45,2-3,2.32l-.41-2.17C447,.12,448.15.13,449.29,1.3ZM447,13.68,449,17l-2.35.36C445.69,16.06,445.62,15.13,447,13.68Zm-.19-6.46a2,2,0,0,1,0,3.37A2,2,0,0,1,446.79,7.22Zm.29,13,.59,3c-1.2,1.14-2.13,1.08-3.11.33C444.74,22.14,446.09,21.66,447.08,20.26ZM433.21.4c1.33,1.18,1.32,2.29,0,3.55-.53-.59-1.08-1.17-1.58-1.79a9.65,9.65,0,0,1-.72-1.33Zm-6.76.07c1.39,1.2,1.35,2.54.15,3.54h-2c-.18-1-.37-1.82-.61-3C425,.79,425.79.6,426.45.46ZM427,7v3.26c-1,.16-1.46.31-2.59.52-.2-1-.45-2-.66-3.15C424.85,7.4,426,7.25,427,7Zm-.55,6.72c1.39,1.2,1.35,2.31.15,3.31h-2c-.18-1-.37-1.71-.61-2.88C425,13.9,425.78,13.83,426.45,13.69Zm.55,6.74c0,1.57,0,2.31,0,3.26l-2.73.52-.59-3.15ZM417,1c1-.18,2-.37,3.13-.61.22,1.09.29,1.84.42,2.51C419.34,4.25,418,4.2,417,3ZM406.91,1a11.54,11.54,0,0,1,.52,2.55c-1,.2-2,.47-3.15.69-.21-1.1-.35-2.23-.63-3.23ZM400,.23V3.5a11.55,11.55,0,0,1-2.55.52c-.2-1-.47-2-.68-3.15C397.87.66,399,.51,400,.23Zm-2,20.46L400.29,23c-1.45,1.08-1.45,1.1-4.55.51C396,22.14,397.26,21.62,398,20.69Zm.07-6.85c.53.59,1.08,1.17,1.58,1.79a9.64,9.64,0,0,1,.72,1.33l-2.27.43C396.78,16.21,396.79,15.1,398.09,13.84ZM385,.23c0,1.57,0,2.31,0,3.26L382.27,4,381.68.86Zm-6,0c0,1.57,0,2.31,0,3.26L376.27,4,375.68.86Zm-7,0c0,1.57,0,2.31,0,3.26L369.27,4,368.68.86ZM371.57,7l.52,2.73-3.15.59L368.31,7Zm-.65,21.76c1.39,1.2,1.35,2.24.15,3.24h-2a14.15,14.15,0,0,1-.61-2.84C369.51,28.93,370.25,28.89,370.92,28.76Zm-2.45-5.54a2.49,2.49,0,0,1,3.31-.47C371,24.76,369.94,24.27,368.47,23.22ZM365,.22c0,1.57,0,2.31,0,3.26L362.27,4,361.68.86Zm.31,9.95c-1.1.21-2.31.35-3.31.64V7.54c1-.16,1.6-.31,2.73-.52C364.92,8.06,365.09,9,365.31,10.17ZM358,.22c0,1.57,0,2.31,0,3.26L355.27,4,354.67.85Zm.06,6.66c.21,1.1.35,2.12.63,3.12h-3.26a12.9,12.9,0,0,1-.52-2.63C356,7.17,356.9,7.1,358.06,6.88ZM355,16.43l.42-2.26c1.71.09,1.91,1.78,3.19,2.14C357.31,17.68,356.2,17.53,355,16.43Zm3.21,6.44c-.13,1.47-1.74,1.71-2.5,3.86l-.64-3.61C356.29,22,357.22,22.06,358.2,22.87ZM352,.22c0,1.57,0,2.31,0,3.26L349.27,4,348.68.85Zm-1.26,7.1c1.39,1.2,1.34,1.68.15,3.68h-2c-.18-1-.37-1.89-.61-3.06C349.32,7.71,350.07,7.45,350.74,7.32Zm-1.51,6.53,2.18,2.52c-.22,1.13-1.48,1.66-2.24,2.6C347.81,17.29,347.82,15.63,349.23,13.84ZM344.65,1a11.4,11.4,0,0,1,.52,2.54c-1,.2-2,.47-3.15.69-.21-1.1-.35-2.23-.63-3.23Zm-9.74.28c1.13-1.22,2.25-1.06,3.4,0L336,3.59C334.39,3.39,335,2.16,334.91,1.28Zm0,6.8A5.56,5.56,0,0,1,336,7.46c.19.46.41.91.56,1.38a11.08,11.08,0,0,1,0,1.84l-3.67-.57C333.79,9.18,334.3,8.59,334.88,8.07Zm1.74,8.38c-1.2,1.14-2.13,1.08-3.11.33.19-1.41,1.54-1.89,2.52-3.29ZM323,1.29v2c-1,.18-1.72.37-2.89.61-.22-1.09-.4-1.84-.54-2.51C320.77.05,322,.09,323,1.29ZM322.78,7l.52,2.73-3.15.59L319.51,7ZM316,.21V3.47c-1,.16-1.48.31-2.61.52-.2-1-.44-2-.65-3.15C313.84.63,315,.49,316,.21Zm0,6.73V10.2c-1,.16-1.48.31-2.61.52-.2-1-.43-2-.65-3.15C313.84,7.36,315,7.22,316,6.94ZM302.54.67,303.18,4h-3.26l-.52-2.73Zm-2.15,19.95,2.74,2.75-3,2A3.53,3.53,0,0,1,300.39,20.62Zm0-6.76,2.34,2.34c-.21,1.58-1.44.93-2.32,1.06C299.17,16.13,299.32,15,300.36,13.86ZM302.59,7l.52,2.73-3.15.59L299.32,7ZM295.36.53A2.2,2.2,0,0,1,295.45,4h-1.72c-.75-1-2.05-1.51-2.28-2.88C292.66.07,294.07.8,295.36.53ZM274,.19V3.46c-1,.16-1.51.31-2.64.52-.2-1-.42-2-.64-3.15C271.83.62,273,.47,274,.19Zm-.66,7.11c1.39,1.2,1.35,1.7.15,3.7h-2c-.18-1-.37-1.9-.61-3.07C271.93,7.71,272.68,7.44,273.34,7.3Zm.6,6.7c.17,1,.33,1.54.54,2.49-.8.71-1.59,1.46-2.42,2.15-.11.09-.37,0-.55,0-1.09-1.18-.28-2.64-.72-4.64Zm.13,8.85c-.13,1.47-1.74,1.71-2.5,3.86l-.64-3.61C272.17,22,273.09,22,274.07,22.85ZM242,.91c1-.18,2-.37,3.14-.61.22,1.09.28,1.84.42,2.51C244.35,4.19,243,4.15,242,3Zm3.48,27.94c.2,1,0,2,.22,3.15-1.1.21-1.7.35-3.7.63a5,5,0,0,0,1-3.26A10.64,10.64,0,0,1,245.48,28.85Zm-2.85-6.2,2.35-.36c1,1.27,1.06,2.19-.3,3.65Zm3.13-13c-1.2,1.14-2.13,1.08-3.11.33.19-1.41,1.54-1.89,2.52-3.29Zm-7.58,16-2.34-2.34c.21-1.58,1.44-.93,2.32-1.06C239.39,23.44,239.24,24.55,238.19,25.71Zm-.24,7-2-3.28,2.35-.36C239.24,30.28,239.31,31.21,238,32.67Zm0-18.53c1.1,1.32,1.13,1.32.47,5l-2.75-2.75Zm-2-4.11c.19-1.41,1.54-1.89,2.52-3.29l.59,3C237.84,10.83,236.91,10.77,235.93,10ZM229.74,0h2c.18,1,.37,2,.61,3.16-1.09.22-1.84.27-2.51.4C228.51,2.36,228.55,2,229.74,0ZM222,.9c1-.18,1.87-.37,3-.61.22,1.09.33,1.84.46,2.51-1.2,1.39-2.5,1.35-3.5.15Zm3.48,9.22c-1.1.21-1.48.35-3.48.63V7.49c1-.16,1.68-.31,2.81-.52C225,8,225.27,9,225.48,10.12ZM223,13.84l2.34,2.34c-.21,1.58-1.44.93-2.32,1.06C221.77,16.11,221.93,15,223,13.84Zm2.33,9.82a11.37,11.37,0,0,1-2.23.26c-.23,0-.49-.67-.6-1.06,0-.13.35-.54.54-.53.75,0,1.5.17,2.25.27ZM215,.9c1-.18,2-.37,3.18-.61.22,1.09.26,1.84.4,2.51-1.2,1.39-1.57,1.35-3.57.15Zm.89,5.94c.92.88,1.52,1.39,2,2a5.56,5.56,0,0,1,.62,1.13c-.46.19-.91.41-1.38.56a11,11,0,0,1-1.84,0Zm2.92,9.56-2.28,2.28c-1-1.4-1-1.4-.49-5ZM202.51,0c1,1.36,2.33,1.86,2.59,3.44l-3.35.62ZM189.37.41a2,2,0,0,1,0,3.37A2,2,0,0,1,189.37.41ZM182.67,19l-2.34-2.34c.21-1.58,1.44-.93,2.32-1.06C183.87,16.69,183.72,17.8,182.67,19Zm-.14,6.78c-.53-.59-1.08-1.17-1.58-1.79a9.67,9.67,0,0,1-.72-1.33l2.27-.43C183.84,23.37,183.84,24.48,182.53,25.74Zm.38-25c.13,0,.54.35.53.54,0,.75-.17,1.5-.27,2.25l-1.06,0a11.43,11.43,0,0,1-.26-2.23C181.86,1.08,182.52.82,182.91.71ZM177,.16V3.43c-1,.16-1.8.31-2.93.52-.2-1-.27-2-.49-3.15C174.68.59,175,.44,177,.16Zm-.21,9.51c-1.2,1.14-2.13,1.08-3.11.33.19-1.41,1.54-1.89,2.52-3.29ZM167,.89c1-.18,1.61-.37,2.78-.61.22,1.09.46,1.84.59,2.51-1.2,1.39-2.37,1.35-3.37.15Zm2.19,21.4c1.22,1.13,1.06,2.25,0,3.4l-2.34-2.34C167.08,21.77,168.31,22.41,169.19,22.28ZM167,16.11c0-.13.35-.54.54-.53.75,0,1.5.17,2.25.27l0,1.06a11.41,11.41,0,0,1-2.23.26C167.32,17.16,167.06,16.51,167,16.11Zm2-8.75c1.58.21.93,1.44,1.06,2.32-1.13,1.22-2.25,1.06-3.4,0ZM162.3.42c1.39,1.2,1.34,2.58.15,3.58h-2c-.18-1-.37-1.84-.61-3C160.89.77,161.63.56,162.3.42Zm-9.11,22.67c1.13-1.22,2.25-1.06,3.4,0l-2.34,2.34C152.68,25.2,153.32,24,153.19,23.09Zm1.07-4.41c-1.58-.21-.93-1.44-1.06-2.32,1.13-1.22,2.25-1.06,3.4,0ZM154,10.49c-1.22-1.13-1.06-2.25,0-3.4l2.34,2.34C156.12,11,154.89,10.36,154,10.49ZM146,.88c1-.18,2-.37,3.18-.61.22,1.09.26,1.84.39,2.51-1.2,1.39-1.58,1.34-3.58.15ZM140.43.42c1.39,1.2,1.34,2.58.15,3.58h-2c-.18-1-.37-1.84-.61-3C139,.77,139.76.55,140.43.42Zm1,9.25c-1.13,1.22-2.25,1.06-3.4,0l2.34-2.34C141.92,7.56,141.28,8.79,141.41,9.67Zm.11,6.72-.42,2.26c-1.71-.09-1.91-1.78-3.19-2.14C139.18,15.14,140.3,15.29,141.51,16.39ZM135,.15V3.41c-1,.16-1.83.31-3,.52-.2-1-.26-2-.48-3.15C132.66.57,133,.43,135,.15ZM133,8a5.56,5.56,0,0,1,1.13-.62c.19.46.41.91.56,1.38a11,11,0,0,1,0,1.84L131,10C131.89,9.12,132.4,8.52,133,8Zm.86,11h-2c-.18-1-.37-1.83-.61-3,1.09-.22,1.84-.35,2.51-.48C135.08,16.72,135,18,133.84,19ZM128,.15V3.41c-1,.16-1.7.31-2.83.52-.2-1-.33-2-.54-3.15C125.73.57,126,.43,128,.15Zm0,9.55c-1.23,1.08-2.16,1.06-3.14.25.13-1.47,1.74-1.71,2.5-3.86ZM111.9,6.42l1.86,4L112.16,12C111.1,10.39,111.09,10.39,111.9,6.42Zm.06,7.42,2.74,2.75-3,2A3.53,3.53,0,0,1,112,13.83Zm-6.43.28a4.41,4.41,0,0,1,0,4.46c-1.39-.15-1.85-1.51-2.83-2.19C103.67,15.64,104.19,14.38,105.53,14.12ZM105.28,7l2.14,2.65c-.15,1-1.49,1.53-2.19,2.52C103.83,10.52,103.88,8.87,105.28,7Zm2.52,16.11-2.5,2.33-2.67-2.32A3.7,3.7,0,0,1,107.8,23.11ZM98.41,19c-.53-.59-1.08-1.17-1.58-1.79a9.68,9.68,0,0,1-.72-1.33l2.27-.43C99.72,16.62,99.71,17.73,98.41,19Zm0,6.73c-.53-.59-1.08-1.17-1.58-1.79a9.69,9.69,0,0,1-.72-1.33l2.27-.43C99.72,23.35,99.71,24.46,98.41,25.71ZM95.94,9.58l2.39-2.07c1.05,1,1.09,1,.46,4.92ZM99,.66,99.36,3c-1.27,1-2.19,1.06-3.65-.3ZM89,.72C90,.56,90.81.42,91.94.2c.2,1,.27,2,.49,3.15C91.32,3.56,91,3.71,89,4ZM92,22v3.26a10.86,10.86,0,0,1-2.5.52c-.2-1-.49-2-.71-3.15C89.9,22.43,91,22.29,92,22Zm-2.61-6.14,2.27-.43C93,16.61,93,17.72,91.68,19c-.53-.59-1.08-1.17-1.58-1.79A9.68,9.68,0,0,1,89.39,15.86ZM86,.13c0,1.57,0,2.31,0,3.26l-2.73.52L82.68.77ZM84.9,6.78C86.29,8,86.25,9,85.05,10H83a14,14,0,0,1-.61-2.84C83.49,6.94,84.24,6.91,84.9,6.78ZM85,19c-.53-.59-1.08-1.17-1.58-1.79a9.66,9.66,0,0,1-.72-1.33l2.27-.43C86.26,16.61,86.25,17.72,85,19Zm.14,6.68-2.34-2.34c.21-1.58,1.44-.93,2.32-1.06C86.28,23.39,86.13,24.5,85.09,25.66ZM79,1.21v2c-1,.18-1.7.37-2.87.61-.22-1.09-.41-1.84-.55-2.51C76.78,0,78,0,79,1.21Zm.2,8.43c-1.2,1.14-2.13,1.08-3.11.33.19-1.41,1.54-1.89,2.52-3.29ZM72,.47c.21,1.1.35,1.53.63,3.53H69.41c-.16-1-.31-1.71-.52-2.84C69.94,1,70.88.69,72,.47ZM69.88,25.6c-1.22-1.13-1.06-2.25,0-3.46l2.26.42C71.91,24.14,70.61,24.64,69.88,25.6ZM71.59,32h-2c-.18-1-.37-1.61-.61-2.78,1.09-.22,1.84-.46,2.51-.59C72.82,29.83,72.78,31,71.59,32ZM69.9,7h2c.18,1,.37,1.83.61,3-1.09.22-1.84.35-2.51.48C68.67,9.28,68.71,8,69.9,7ZM59,1.21v2c-1,.18-1.8.37-3,.61-.22-1.09-.37-1.84-.5-2.51C56.74,0,58,0,59,1.21Zm.19,6.88L55.89,9.7,55.6,7.84C56.86,6.84,57.79,6.78,59.19,8.09Zm-2.76,5.73,2.75,2.75-3,2A3.53,3.53,0,0,1,56.44,13.82Zm2.26,8.95c-.27,1.36-1.52,1.89-2.6,3.19L55.58,23C56.81,21.94,57.73,22,58.69,22.76ZM43,10.46a2,2,0,0,1,0-3.37A2,2,0,0,1,43,10.46Zm.29,8.12c-1.17-1.18-1.2-1.18-.43-5.24C44.12,15.6,44.12,17.09,43.28,18.58ZM36.28.37c1.22,1.13,1.06,2.25,0,3.46L34,3.41C34.25,1.83,35.55,1.33,36.28.37ZM27,.85,29.57.29a4.47,4.47,0,0,1,.3,4.79C28.46,4.95,28,3.56,27,2.88,27,2.34,27,1.79,27,.85Zm3.41,8.77c-1.2,1.14-2.13,1.08-3.11.33.19-1.41,1.54-1.89,2.52-3.29ZM30,15.26v3.26c-1,.16-1.5.31-2.62.52-.2-1-.43-2-.65-3.15C27.83,15.68,29,15.54,30,15.26Zm0,7.81v2a13,13,0,0,1-2.77.61c-.22-1.09-.46-1.84-.6-2.51C27.83,21.83,29,21.87,30,23.07ZM20,.7c1-.16,1.82-.31,2.94-.52.2,1,.27,2,.49,3.15C22.33,3.54,22,3.68,20,4Zm2.65,21.64C24,23.54,24,24,22.8,26h-2c-.18-1-.37-1.88-.61-3.05C21.23,22.72,22,22.47,22.65,22.34Zm-2.73-6.45c1.1-.21,2.08-.35,3.08-.63v3.26a12.59,12.59,0,0,1-2.61.52C20.19,18,20.14,17.06,19.92,15.89ZM7,.7C8,.53,8.59.39,9.71.17c.2,1,.38,2,.6,3.15C9.21,3.54,8,3.68,7,4Zm3,8.65c-.6,2.25-2,.22-2.78.56C8.06,8.5,9,8.45,10,9.34ZM7,16c1-.18,1.69-.37,2.86-.61.22,1.09.42,1.84.55,2.51C9.21,19.26,8,19.22,7,18ZM.92,8.79c.75,0,1.5.17,2.25.27l0,1.07A11.39,11.39,0,0,1,1,10.39c-.23,0-.49-.67-.6-1.06C.35,9.2.74,8.78.92,8.79Zm0,6.6,2.26.42c-.26,1.58-1.56,2.08-2.29,3C-.32,17.72-.16,16.6.93,15.39Zm.85,9.31a5.55,5.55,0,0,1-1.13.62c-.19-.46-.41-.91-.56-1.38a11,11,0,0,1,0-1.84l3.67.57C2.87,23.59,2.36,24.19,1.78,24.7ZM7.2,39.24C7,38.14,6.84,37,6.56,36H9.83c.16,1,.31,1.56.52,2.69C9.3,38.89,8.36,39,7.2,39.24ZM7,32.56V29.3c1-.16,1.58-.31,2.71-.52.2,1,.38,2,.6,3.15C9.21,32.14,8,32.28,7,32.56Zm.2-7.05C7,24.41,6.85,24,6.57,22H9.83c.16,1,.31,1.7.52,2.83C9.3,25,8.37,25.29,7.2,25.51ZM17,38.57c-1,.18-1.83.37-3,.61-.22-1.09-.35-1.84-.48-2.51,1.2-1.39,2.49-1.35,3.49-.15Zm-3-7.08v-2a12.18,12.18,0,0,1,2.72-.61c.22,1.09.49,1.84.62,2.51C16.14,32.72,15,32.68,14,31.48Zm-.07-6.16L13.3,22h3.26l.52,2.73ZM13.32,9.46l3.31-1.61.29,1.86C15.65,10.7,14.72,10.77,13.32,9.46ZM17,16.33v2c-1,.18-1.83.37-3,.61-.22-1.09-.35-1.84-.48-2.51C14.72,15.1,16,15.14,17,16.33ZM13.94,3.57C13.73,2.47,13.58,2,13.3,0a5,5,0,0,0,3.26,1,8.94,8.94,0,0,1,.52,2.36C16,3.56,15.1,3.36,13.94,3.57ZM20,39.3V36c1-.16,1.81-.31,2.94-.52.2,1,.27,2,.49,3.15C22.32,38.87,22,39,20,39.3Zm.66-7L20,29h3.26l.52,2.73ZM22.82,12H21.15c-1.6-1-.75-2.86-.59-4.65C21.24,7.21,22,7,22.7,6.88,24.23,8.66,24.2,10,22.82,12ZM27,39.3V36c1-.16,1.68-.31,2.8-.52.2,1,.34,2,.56,3.15C29.26,38.88,29,39,27,39.3Zm.34-7.3c-.16-1-.31-1.52-.52-2.64,1-.2,2-.42,3.15-.64.21,1.1.35,2.28.63,3.28ZM37,38.57c-1,.18-1.74.37-2.91.61-.22-1.09-.39-1.84-.53-2.51,1.2-1.39,2.44-1.35,3.44-.15ZM33.65,15.89c1.1-.21,1.35-.35,3.35-.63v3.26c-1,.16-1.62.31-2.75.52C34.06,18,33.87,17.06,33.65,15.89ZM34,31.49v-2c1-.18,1.65-.37,2.82-.61.22,1.09.44,1.84.58,2.51C36.19,32.73,35,32.69,34,31.49Zm1.83-5.92a9.83,9.83,0,0,1-2-.57c-.25-1.79.07-2.93,2.8-2.68l1.84,2.94C38,25.88,36.86,25.64,35.83,25.57Zm.38-13.38-2.3-2.63,2-2.16c1.4.24,2,1.42,2.78,2.31ZM43,39h-2c-.18-1-.37-1.75-.61-2.92l2.51-.52C44.22,36.76,44.18,38,43,39Zm-2.3-9c.21-1.58,1.44-.93,2.32-1.06,1.22,1.13,1.06,2.25,0,3.4Zm2.82-4.69c-1.71-.09-1.91-1.78-3.19-2.14,1.27-1.37,2.39-1.22,3.6-.12ZM43,3.86c-1.1-1.38-1.16-2.31-.25-3.29C44.57,1.26,44.08,2.33,43,3.86Zm7,35c-1.83-.7-1.34-1.77-.25-3.29C50.81,36.95,50.87,37.88,50,38.86Zm-.2-6.49L47.42,30c.21-1.58,1.44-.93,2.32-1.06C50.95,30.11,50.8,31.22,49.75,32.38Zm.49-7c-1.71-.09-1.91-1.78-3.19-2.14,1.27-1.37,2.39-1.22,3.6-.12Zm-.82-11.23c1.17,1.18,1.2,1.18.43,5.24C48.58,17.09,48.58,15.6,49.42,14.12Zm-2.5-4.23L49.77,7l2.07,2.39C50.84,10.49,50.84,10.52,46.92,9.89ZM52,3.39c-1,.16-1.56.31-2.68.52-.2-1-.4-2-.62-3.15C49.8.55,51,.4,52,.12ZM58.62,29c.16,1,.31,1.66.52,2.79-1,.2-2,.34-3.15.56-.21-1.1-.35-1.35-.63-3.35ZM55.94,39c-.16-1-.31-1.65-.52-2.77l3.15-.57c.21,1.1.35,1.34.64,3.34ZM65.36,1a10.74,10.74,0,0,1,.52,2.49c-1,.2-2,.49-3.15.71C62.52,3.1,62.38,2,62.1,1ZM66,6.86v3.26c-1,.16-1.83.31-3,.52-.2-1-.26-2-.48-3.15C63.67,7.28,64,7.14,66,6.86ZM62.34,23.06c1.13-1.22,2.25-1.06,3.4,0L63.4,25.38C61.82,25.17,62.47,23.94,62.34,23.06ZM66,29.81v2c-1,.18-1.94.37-3.11.61-.22-1.09-.3-1.84-.43-2.51C63.67,28.57,65,28.61,66,29.81Zm-4,8.42v-2c1-.18,1.95-.37,3.12-.61.22,1.09.29,1.84.43,2.51C64.34,39.47,63,39.42,62,38.23ZM62.68,19c-.16-1-.31-1.74-.52-2.87,1-.2,2-.31,3.15-.52.21,1.1.35,1.39.63,3.39ZM69.4,39c-.16-1-.31-1.64-.52-2.77L72,35.66c.21,1.1.35,1.34.63,3.34Zm0-20.4-.36-2.35c1.27-1,2.19-1.06,3.65.3ZM78.31,39h-2c-.18-1-.37-1.75-.61-2.92l2.51-.52C79.55,36.76,79.51,38,78.31,39ZM76,31.5v-2c1-.18,1.68-.37,2.85-.61.22,1.09.43,1.84.56,2.51C78.21,32.74,77,32.7,76,31.5Zm0-8.19c.21-1.58,1.44-.93,2.32-1.06,1.22,1.13,1.06,2.25,0,3.4ZM78.29,19l-2.37-2.73,2.41-2.41C79.71,15.51,79.69,17.17,78.29,19ZM83,38.24v-2a12,12,0,0,1,2.71-.61c.22,1.09.49,1.84.63,2.51C85.14,39.47,84,39.43,83,38.24Zm-.09-5.85c-.21-1.1-.35-1.39-.63-3.39h3.26c.16,1,.31,1.64.52,2.76C85,32,84.08,32.17,82.91,32.39ZM93,38.59c-1,.18-2,.37-3.15.61-.22-1.09-.28-1.84-.41-2.51,1.2-1.39,1.56-1.35,3.56-.15ZM91.78,32h-2c-.18-1-.37-1.61-.61-2.78,1.09-.22,1.84-.46,2.51-.59C93,29.83,93,31,91.78,32ZM90.24,10.51C88.86,9.31,88.9,8,90.09,7h2c.18,1,.37,1.81.61,3C91.66,10.2,90.91,10.38,90.24,10.51ZM98.56,29c1.08,1.23,1.06,2.16.26,3.12-1.36-.27-1.89-1.52-3.19-2.6ZM96.32,39c-.16-1-.31-1.64-.52-2.77L99,35.66c.21,1.1.35,1.34.63,3.34Zm9.68-.26c-1,.16-1.64.31-2.77.52-.2-1-.35-2-.57-3.15,1.1-.21,1.34-.35,3.34-.63ZM105.22,32c-1-.15-1.53-1.49-2.5-2.17.71-1.09,1.83-.9,2.86-.82a17.55,17.55,0,0,1,2.57.64Zm0-28.22c-1.14-1.2-1.08-2.13-.32-3.13,1.53,0,1.68,1.8,4.24,2.35Zm7.6,35.28a11,11,0,0,1-1.84,0l.57-3.67c.92.88,1.52,1.39,2,2a5.54,5.54,0,0,1,.62,1.13C113.75,38.7,113.3,38.92,112.83,39.07Zm-1.6-7.45-1.88-1.88a4.79,4.79,0,0,1,5.47.19Zm.72-6.34c-1-.15-1.53-1.49-2.5-2.17.71-1.09,1.83-.9,2.86-.82a17.56,17.56,0,0,1,2.57.64Zm6.29,14c-.21-1.1-.35-2.26-.63-3.26h3.26c.16,1,.31,1.57.52,2.7C120.34,38.9,119.41,39,118.24,39.26ZM120.92,16c-.19,1.41-1.54,1.89-2.52,3.29l-.59-3C119,15.22,119.94,15.28,120.92,16ZM118.8,7c.53.59,1.08,1.17,1.58,1.79a9.65,9.65,0,0,1,.72,1.33l-2.27.43C117.49,9.39,117.49,8.28,118.8,7Zm2.4,16c-.92.77-1.45,2-3,2.32l-.41-2.17C118.95,21.89,120.06,21.89,121.19,23.07ZM121,29.83v2c-1,.18-1.67.37-2.85.61-.22-1.09-.43-1.84-.56-2.51C118.8,28.59,120,28.63,121,29.83ZM118.25,4.09C118,3,117.9,2,117.62,1h3.26a12.67,12.67,0,0,1,.52,2.62C120.36,3.81,119.42,3.87,118.25,4.09ZM128,38.6c-1,.18-1.81.37-3,.61-.22-1.09-.36-1.84-.49-2.51,1.2-1.39,2.47-1.35,3.47-.15Zm-.89-6.6h-2a13,13,0,0,1-.61-2.77c1.09-.22,1.84-.46,2.51-.6C128.34,29.83,128.3,31,127.11,32Zm.53-6.63c-1.71-.09-1.91-1.78-3.19-2.14,1.27-1.37,2.39-1.22,3.6-.12Zm-.52-6.46-2.75-2.75,3-2A3.53,3.53,0,0,1,127.12,18.91Zm6.77,3.33c1.09,1.23,1.06,2.16.27,3.12-1.36-.27-1.89-1.52-3.19-2.6ZM135,29.83v2c-1,.18-1.94.37-3.12.61-.22-1.09-.29-1.84-.43-2.51C132.66,28.6,134,28.64,135,29.83Zm-2.7,9.49c-1.39-1.2-1.35-2.32-.15-3.32h2c.18,1,.37,1.71.61,2.88C133.71,39.11,133,39.19,132.3,39.32Zm8.28-17.1c1.14,1.2,1.08,2.13.32,3.13-1.53,0-1.68-1.8-4.24-2.35Zm-2.58,16v-2c1-.18,1.8-.37,3-.61.22,1.09.36,1.84.5,2.51C140.27,39.49,139,39.45,138,38.25Zm.39-6.25c-.16-1-.31-1.5-.52-2.63,1-.2,2-.43,3.15-.64.21,1.1.35,2.27.63,3.27ZM147,6.74c1,1.36,2.33,1.86,2.59,3.44l-3.35.62Zm.85,32.08-1.06,0a11.41,11.41,0,0,1-.26-2.23c0-.23.67-.49,1.06-.6.13,0,.54.35.53.54C148.08,37.32,147.94,38.07,147.84,38.82ZM150,31.88c-1,.18-1.87.37-3,.61-.22-1.09-.33-1.84-.46-2.51,1.2-1.39,2.51-1.35,3.51-.15Zm-3.59-8.78c1.2-1.14,2.13-1.08,3.11-.33-.19,1.41-1.54,1.89-2.52,3.29Zm.4-4.47-.36-2.35c1.27-1,2.19-1.06,3.65.3Zm10.19,20c-1,.18-2,.37-3.18.61-.22-1.09-.26-1.84-.39-2.51,1.2-1.39,1.57-1.35,3.57-.15ZM155.71,32h-2a12.93,12.93,0,0,1-.61-2.77c1.09-.22,1.84-.46,2.51-.6C156.95,29.83,156.91,31,155.71,32ZM153,4V.74c1-.16,1.77-.31,2.9-.52.2,1,.29,2,.51,3.15C155.31,3.58,155,3.73,153,4Zm7.79,3L163,9.57c-.22,1.13-1.48,1.66-2.24,2.6C159.37,10.5,159.39,8.84,160.79,7.05ZM163,29.84v2c-1,.18-1.64.37-2.81.61-.22-1.09-.44-1.84-.58-2.51C160.81,28.6,162,28.65,163,29.84Zm-3.32-6.58c1.2-1.39,2.32-1.35,3.32-.15v2c-1,.18-1.71.37-2.88.61C159.9,24.68,159.81,23.93,159.68,23.26Zm1.22,16.07c-1.39-1.2-1.35-2.33-.15-3.33h2c.18,1,.37,1.72.61,2.89C162.31,39.11,161.57,39.19,160.9,39.33ZM160.26,19c-.16-1-.31-1.72-.52-2.85,1-.2,2-.31,3.15-.53.21,1.1.35,1.38.63,3.38Zm7.37,20.33c-1.39-1.2-1.35-2.33-.15-3.33h2c.18,1,.37,1.72.61,2.89C169,39.11,168.3,39.19,167.63,39.33ZM167,32.4c-.21-1.1-.35-1.4-.63-3.4h3.26c.16,1,.31,1.64.52,2.77C169.14,32,168.2,32.18,167,32.4Zm10-3.64V32c-1,.16-1.81.31-2.94.52-.2-1-.27-2-.49-3.15C174.68,29.19,175,29,177,28.76Zm0,9.85c-1,.18-1.91.37-3.08.61-.22-1.09-.31-1.84-.44-2.51,1.2-1.39,2.53-1.35,3.53-.15Zm-1.06-12.93-2.34-2.34c.21-1.58,1.44-.93,2.32-1.06C177.14,23.42,177,24.53,175.94,25.69Zm.28-6.39c-1-1.36-2.33-1.86-2.59-3.44l3.35-.62Zm6.9-11.89.36,2.35c-1.27,1-2.19,1.06-3.65-.3ZM180,38.27v-2c1-.18,1.83-.37,3-.61.22,1.09.35,1.84.48,2.51C182.28,39.5,181,39.46,180,38.27Zm2.95-5.5c-1-1.36-2.33-1.86-2.59-3.44l3.35-.62Zm6.47-17.24c1.09,1.23,1.06,2.16.27,3.12-1.36-.27-1.89-1.52-3.19-2.6Zm.73,9.22c0,.23-.67.49-1.06.6-.13,0-.54-.35-.53-.54,0-.75.17-1.5.27-2.25l1.06,0A11.39,11.39,0,0,1,190.15,24.74ZM190,38.62c-1,.18-1.68.37-2.85.61-.22-1.09-.42-1.84-.56-2.51,1.2-1.39,2.41-1.35,3.41-.15Zm-.25-5.94c-.92-.88-1.52-1.39-2-2a5.56,5.56,0,0,1-.62-1.13c.46-.19.91-.41,1.38-.56a11,11,0,0,1,1.84,0Zm-.49-22.17c-1-1.27-1.06-2.19.3-3.65l2,3.28ZM199,1.25v2c-1,.18-2,.37-3.14.61-.22-1.09-.28-1.84-.41-2.51C196.65,0,197,.05,199,1.25Zm-.68,14.8c-.19,1.41-1.54,1.89-2.52,3.29l-.59-3C196.41,15.25,197.34,15.3,198.32,16.05Zm-2-9.18,2,3.28-2.35.36C195,9.25,194.93,8.32,196.29,6.87Zm-.19,15.31,2.26.42c-.26,1.58-1.56,2.08-2.29,3C194.85,24.51,195,23.4,196.1,22.18Zm0,17.06c-1.1-1.38-1.16-2.31-.25-3.29C197.66,36.64,197.17,37.71,196.08,39.24Zm-.48-7.14-.36-2.35c1.27-1,2.19-1.06,3.65.3ZM202.83,29c1.14,1.2,1.08,2.13.32,3.13-1.53,0-1.68-1.8-4.24-2.35Zm-2.26-6.33,2.35-.36c1,1.27,1.06,2.19-.3,3.65ZM200,39.35c0-1.57,0-2.31,0-3.26l2.73-.52.59,3.15Zm3.14-20c-1-1.36-2.33-1.86-2.59-3.44l3.35-.62ZM200,9.57l3.59-1.69,1.88,1.88A4.79,4.79,0,0,1,200,9.57ZM209.57,29c1.22,1.13,1.06,2.25,0,3.4l-2.34-2.34C207.46,28.51,208.69,29.15,209.57,29Zm-2.25-5.58c.2-1.38,1.54-1.86,2.23-2.84l2.28,2.28C210.5,24,210.5,24,207.32,23.45ZM212,38.77c-1,.16-1.64.31-2.77.52-.2-1-.35-2-.57-3.15,1.1-.21,1.34-.35,3.34-.63Zm-2.41-19.88L207,16.38,209.5,14l2.63,2.3Zm.16-12,2,3.28-2.35.36C208.46,9.25,208.39,8.33,209.75,6.87ZM209,2.94V.9c1-.18,1.64-.37,2.81-.61.22,1.09.44,1.84.58,2.51C211.19,4.18,210,4.14,209,2.94ZM215.78,39c-.16-1-.31-1.62-.52-2.75l3.15-.58c.21,1.1.35,2.33.63,3.33Zm-.34-9.16c1.13-1.22,2.25-1.06,3.4,0l-2.34,2.34C214.93,31.95,215.57,30.72,215.44,29.84Zm.43-3.76-.74-4,4,.75C218,24,217.08,24.83,215.88,26.08ZM222,39.36V36.1c1-.16,1.76-.31,2.89-.52.2,1,.3,2,.51,3.15C224.3,38.94,224,39.08,222,39.36Zm1.15-6.89c-1.39-1.2-1.34-2.47-.15-3.47h2c.18,1,.37,1.79.61,3ZM231.42,39h-2c-.18-1-.37-1.72-.61-2.89,1.09-.22,1.84-.4,2.51-.54C232.66,36.77,232.62,38,231.42,39Zm0-7h-2a12.78,12.78,0,0,1-.61-2.76c1.09-.22,1.84-.47,2.51-.6C232.66,29.84,232.62,31,231.42,32ZM229,23.57c.77-2,1.84-1.52,3.31-.47A2.49,2.49,0,0,1,229,23.57Zm.1-7.68a11.41,11.41,0,0,1,2.23-.26c.23,0,.49.67.6,1.06,0,.13-.35.54-.54.53-.75,0-1.5-.17-2.25-.27Zm.11-5.88a11.58,11.58,0,0,1-.52-2.55c1-.2,2-.47,3.15-.68.21,1.1.35,2.23.63,3.23Zm8.9,29h-2c-.18-1-.37-1.72-.61-2.89,1.09-.22,1.84-.4,2.51-.54C239.39,36.77,239.35,38,238.15,39ZM236,3v-2a13,13,0,0,1,2.77-.61c.22,1.09.46,1.84.6,2.51C238.17,4.19,237,4.15,236,3Zm8,11.82a5.57,5.57,0,0,1,1.13-.62c.19.46.41.91.56,1.38a11,11,0,0,1,0,1.84l-3.67-.57C242.94,15.88,243.44,15.29,244,14.77Zm-1.28,24.5c-.21-1.1-.35-2.28-.63-3.28h3.26c.16,1,.31,1.58.52,2.71Zm9.25-.63a12.31,12.31,0,0,1-2.73.61c-.22-1.09-.48-1.84-.62-2.51,1.2-1.39,2.35-1.35,3.35-.15Zm-3.22-21.84c.88-.92,1.39-1.52,2-2a5.54,5.54,0,0,1,1.13-.62c.19.46.41.91.56,1.38a11,11,0,0,1,0,1.84Zm2.87,15.63-2.34-2.34c.21-1.58,1.44-.93,2.32-1.06C252.85,30.17,252.7,31.29,251.65,32.44Zm-.08-6.66-2.14-2.65c.15-1,1.49-1.53,2.19-2.52C253,22.26,253,23.91,251.57,25.78Zm-2.12-15.52L248.95,8l2.7-1.23,2,3.52C252.84,11.22,251.22,10.41,249.45,10.26Zm2.17-6.47-2.28-2.28c1.32-1.1,1.32-1.13,4.51-.56C253.65,2.33,252.31,2.81,251.62,3.79Zm6.52,35.61-2-3.28,2.35-.36C259.43,37,259.5,37.95,258.14,39.4Zm0-6-.64-3.61c1.23-1.08,2.16-1.06,3.14-.25C260.48,31,258.87,31.29,258.11,33.44Zm.21-7.77c-1.22-1.13-1.06-2.25,0-3.46l2.26.42C260.35,24.2,259.05,24.7,258.32,25.66Zm.22-12,2,3.28-2.35.36C257.25,16,257.18,15.07,258.54,13.62Zm-2.76-3.94,2.5-2.33,2.67,2.32A3.7,3.7,0,0,1,255.78,9.68ZM258,3v-2A12,12,0,0,1,260.71.3c.22,1.09.5,1.84.63,2.51C260.14,4.2,259,4.15,258,3Zm6.62,36.32c-.21-1.1-.35-2.28-.63-3.28h3.26c.16,1,.31,1.58.52,2.71ZM267.3,22.8c-.19,1.41-1.54,1.89-2.52,3.29l-.59-3C265.39,22,266.32,22.05,267.3,22.8Zm-2.12-9c.53.59,1.08,1.17,1.58,1.79a9.66,9.66,0,0,1,.72,1.33l-2.27.43C263.86,16.17,263.87,15.05,265.17,13.8ZM264,29.38c1-.16,1.79-.31,2.92-.52.2,1,.28,2,.5,3.15-1.1.21-1.42.35-3.42.63ZM266.76,11h-2c-.18-1-.37-2-.61-3.19,1.09-.22,1.84-.25,2.51-.39C268,8.62,268,9,266.76,11Zm-2.13-6.89C264.42,3,264.27,2,264,1h3.26a12.86,12.86,0,0,1,.52,2.63C266.73,3.82,265.79,3.9,264.63,4.11Zm7.31,35.23c-1.39-1.2-1.35-2.34-.15-3.34h2c.18,1,.37,1.72.61,2.9C273.36,39.12,272.61,39.21,271.94,39.34Zm-.55-6.52-.74-4,4,.75C273.48,30.75,272.6,31.58,271.4,32.83ZM280.22,11h-2c-.18-1-.37-2-.61-3.19,1.09-.22,1.84-.26,2.51-.39C281.46,8.62,281.42,9,280.22,11Zm1.08,20.42c-1.2,1.39-2.3,1.35-3.3.15v-2c1-.18,1.7-.37,2.88-.61C281.1,30,281.17,30.75,281.3,31.42Zm-.2-15c-1.2,1.14-2.13,1.08-3.11.33.19-1.41,1.54-1.89,2.52-3.29Zm-.87,5.83c1.14,1.2,1.08,2.13.32,3.13-1.53,0-1.68-1.8-4.24-2.35Zm-1.55,17.08c-1.39-1.2-1.35-2.35-.15-3.35h2c.18,1,.37,1.73.61,2.9C280.09,39.12,279.34,39.21,278.67,39.35Zm-.58-35.23C277.88,3,277.73,2,277.45,1h3.26a12.89,12.89,0,0,1,.52,2.63C280.19,3.83,279.25,3.9,278.09,4.12Zm8.61,10c1.1,1.32,1.13,1.32.47,5l-2.75-2.75Zm-2-4.15c.13-1.47,1.74-1.71,2.5-3.86l.64,3.61C286.58,10.83,285.66,10.81,284.68,10Zm3.23,12.32L287.34,26c-.92-.88-1.52-1.39-2-2a5.53,5.53,0,0,1-.62-1.13c.46-.19.91-.41,1.38-.56A11,11,0,0,1,287.91,22.31ZM288,28.8c0,1.57,0,2.31,0,3.26l-2.73.52-.59-3.15Zm-2.6,10.55c-1.39-1.2-1.35-2.35-.15-3.35h2c.18,1,.37,1.73.61,2.9C286.82,39.12,286.07,39.21,285.4,39.35Zm-.62-35.8-.51-2.3L287,0l2,3.52C288.17,4.5,286.55,3.69,284.79,3.55Zm6.13,13.12,2.77-2.76L296,16.18C294.55,17.2,294.55,17.2,290.91,16.67Zm5,6.24c-1.4,1-1.4,1-4.51.56.2-1.38,1.54-1.86,2.23-2.84Zm-1.75,16c-1.71-.09-1.91-1.78-3.19-2.14,1.27-1.37,2.39-1.22,3.6-.12Zm-.47-6.65-2.63-2.3,2.54-2.53,2.62,2.51Zm-1.08-21.78-2.53-.51,4.59-2.69h0l2.53.51Zm8,28.46c-1.58-.21-.93-1.44-1.06-2.32,1.13-1.22,2.25-1.06,3.4,0ZM300,32.84l-.74-4,4,.75C302.09,30.76,301.21,31.58,300,32.84ZM308.83,11h-2c-.18-1-.37-2-.61-3.18,1.09-.22,1.84-.26,2.51-.39C310.06,8.63,310,9,308.83,11Zm.61,5.2c-.21,1.58-1.44.93-2.32,1.06-1.22-1.13-1.06-2.25,0-3.4ZM310,38.8c-1,.16-1.85.31-3,.52-.2-1-.25-2-.47-3.15,1.1-.21,1.45-.35,3.45-.64Zm-2.86-9.85,2.26.42c-.26,1.58-1.56,2.08-2.29,3C305.89,31.28,306,30.16,307.14,28.95Zm-1-5.8.42-2.26c1.71.09,1.91,1.78,3.19,2.14C308.52,24.4,307.4,24.25,306.19,23.15Zm.5-19C306.48,3,306.34,2,306.06,1h3.26a12.91,12.91,0,0,1,.52,2.63C308.8,3.83,307.86,3.9,306.69,4.12ZM316,29.89v2a12.78,12.78,0,0,1-2.76.61c-.22-1.09-.47-1.84-.6-2.51C313.84,28.65,315,28.69,316,29.89Zm-2-9.35c.53.59,1.08,1.17,1.58,1.79a9.68,9.68,0,0,1,.72,1.33l-2.27.43C312.65,22.91,312.66,21.8,314,20.54Zm0,18.81c-1.39-1.2-1.35-2.35-.15-3.35h2c.18,1,.37,1.73.61,2.9C315.42,39.12,314.67,39.22,314,39.35ZM313.37,17l-.52-2.73,3.15-.59.63,3.33Zm9.41-3,.52,2.73-3.15.59L319.51,14ZM323,28.81v3.26c-1,.16-1.62.31-2.75.52-.2-1-.37-2-.58-3.15C320.77,29.23,322,29.09,323,28.81Zm-2.94-5.92c0-.13.35-.54.54-.53.75,0,1.5.17,2.25.27l0,1.07a11.39,11.39,0,0,1-2.23.26C320.42,23.94,320.17,23.28,320.06,22.89Zm0,16.11c-.16-1-.31-1.6-.52-2.73l3.15-.59c.21,1.1.35,2.32.63,3.32Zm9.91-.33c-1,.18-1.86.37-3,.61-.22-1.09-.33-1.84-.47-2.51,1.2-1.39,2.5-1.35,3.5-.15ZM326.35,23.3c1.27-1.37,2.39-1.22,3.6-.12l-.42,2.26C327.82,25.35,327.62,23.66,326.35,23.3Zm1.12,9.19c-1.39-1.2-1.34-2.49-.15-3.49h2c.18,1,.37,1.8.61,3ZM329.2,19c-.78-.78-2.2-1.55-2.2-2.37V14.24c1-.15,1.53-.28,2.24-.4A3.64,3.64,0,0,1,329.2,19ZM327,10.79V7.53A11.62,11.62,0,0,1,329.55,7c.2,1,.46,2,.68,3.15C329.13,10.37,328,10.51,327,10.79ZM326.83,4c-.16-1-.31-1.77-.52-2.9,1-.2,2-.29,3.15-.51.21,1.1.35,1.41.63,3.41Zm9.22,34.88c-1.36-.27-1.89-1.52-3.19-2.6l2.93-.52C336.87,37,336.85,37.92,336.05,38.88Zm-.37-6.41-2.07-2.39c1-1.05,1-1.09,4.92-.46Zm-.11-6.94-2.36-2.36,2.47-2.47,2.85,2.68ZM344.35,7h.25c.14,1,.28,2,.4,2.77a4.85,4.85,0,0,1-5.37-.32C340.92,8.8,342.06,8,344.35,7Zm-1.93,13.6L345,23.14l-2.51,2.62-2.33-2.53Zm-2.16-3.82c.15-1.39,1.51-1.85,2.19-2.83.75.93,2,1.45,2.27,2.79A4.41,4.41,0,0,1,340.26,16.78ZM342.5,39.2l-2.34-2.34c.21-1.58,1.44-.93,2.32-1.06C343.7,36.93,343.55,38,342.5,39.2Zm-.78-7.51-1.88-1.88a4.79,4.79,0,0,1,5.47.19Zm7,7.61c-.21-1.1-.35-2.29-.63-3.29h3.26c.16,1,.31,1.59.52,2.72Zm0-6.44-.74-4,4,.75C350.88,30.78,350,31.6,348.79,32.85Zm0-6.73-.74-4,4,.75C350.88,24,350,24.87,348.79,26.12Zm6.68,13.2L354.84,36h3.26l.52,2.73Zm0-6.47-.74-4,4,.75C357.61,30.78,356.73,31.6,355.52,32.85Zm8.67-4.1c1.39,1.2,1.35,2.24.15,3.24h-2a14.18,14.18,0,0,1-.61-2.85C362.78,28.93,363.52,28.89,364.19,28.76Zm-2.38-5.58a2,2,0,0,1,3.37,0A2,2,0,0,1,361.81,23.18Zm1,16.18c-1.39-1.2-1.34-2.36-.15-3.36h2c.18,1,.37,1.73.61,2.9C364.21,39.12,363.46,39.22,362.8,39.36Zm0-21.94c-1.39-1.2-1.35-2.42-.15-3.42h2c.18,1,.37,1.76.61,2.93Zm7.41-2.61a5.54,5.54,0,0,1,1.13-.62c.19.46.41.91.56,1.38a11.08,11.08,0,0,1,0,1.84l-3.67-.57C369.12,15.92,369.63,15.33,370.21,14.81ZM368.89,39c-.16-1-.31-1.6-.52-2.72l3.15-.6c.21,1.1.35,2.32.63,3.32Zm8.05-17.46a5.54,5.54,0,0,1,1.13-.62c.19.46.41.91.56,1.38a11.07,11.07,0,0,1,0,1.84L375,23.58C375.85,22.66,376.36,22.06,376.94,21.54ZM378,38.82a10.7,10.7,0,0,1-2.49.52c-.2-1-.5-2-.71-3.15,1.1-.21,2.2-.35,3.2-.63Zm-.3-6.29c-.53-.59-1.08-1.17-1.58-1.79a9.7,9.7,0,0,1-.72-1.33l2.27-.43C379,30.16,379,31.27,377.7,32.53Zm-2.4-16c.92-.77,1.45-2,3-2.32l.41,2.17C377.55,17.66,376.44,17.66,375.3,16.48Zm0-6.73c.92-.77,1.45-2,3-2.32l.41,2.17C377.55,10.93,376.44,10.93,375.31,9.75Zm9.08-2.43c1.39,1.2,1.34,1.68.15,3.68h-2c-.18-1-.37-1.89-.61-3.06C383,7.72,383.72,7.46,384.39,7.32Zm.61,31.5c-1,.16-1.49.31-2.62.52-.2-1-.43-2-.65-3.15,1.1-.21,2.27-.35,3.27-.63Zm-3-8.91,2.28-2.28c1.1,1.32,1.13,1.32.47,5Zm2.51-5.79-2.26-.42c.26-1.58,1.56-2.08,2.29-3C385.77,21.8,385.61,22.92,384.52,24.13ZM382,16.46v-2c1-.18,1.79-.37,3-.61l.51,2.51C384.26,17.69,383,17.65,382,16.46Zm9.28-16c1.14,1.2,1.08,2.13.32,3.13-1.53,0-1.68-1.8-4.24-2.35Zm0,38.78L389,36.87c.21-1.58,1.44-.93,2.32-1.06C392.49,36.94,392.34,38.06,391.3,39.21Zm.28-6.38c-1-1.36-2.33-1.86-2.59-3.44l3.35-.62Zm0-12.59.59,3c-1.2,1.14-2.13,1.08-3.11.33C389.22,22.12,390.57,21.65,391.55,20.24ZM389,16.8c.19-1.41,1.54-1.89,2.52-3.29l.59,3C390.95,17.61,390,17.55,389,16.8Zm-.58-6.74c1.13-1.21,2-2,3.21-3.29l.74,4ZM397.92,39h-2c-.16-1-.33-1.72-.48-2.54a4.51,4.51,0,0,1,4.8-.24C400,37.58,398.7,38,397.92,39Zm-.28-8.26a17.51,17.51,0,0,1-2.57-.64L398,27.74c1,.15,1.53,1.49,2.5,2.17C399.79,31,398.67,30.81,397.64,30.74Zm-.1-20.24c-.21-1.1-.35-1.5-.63-3.5h3.26c.16,1,.31,1.69.52,2.82C399.65,10,398.71,10.28,397.54,10.5Zm7.14,16.93,2.62,2.51-2.53,2.33L402.15,30Zm-.51-10c-.22-1.09-.43-1.84-.57-2.51,1.2-1.39,2.4-1.35,3.4-.15v2C406,17,405.34,17.19,404.17,17.43ZM407,23c-.21,1.58-1.44.93-2.32,1.06-1.22-1.13-1.06-2.25,0-3.4Zm-2.34,16.56-2.23-3.13c1.16-1.2,2.73-.55,4.5-.24l.43,2.3ZM404.23,10a11.17,11.17,0,0,1-.52-2.52c1-.2,2-.48,3.15-.7.21,1.1.35,2.22.63,3.22ZM411,39.42V36.16c1-.16,1.48-.31,2.61-.52.2,1,.44,2,.65,3.15C413.16,39,412,39.14,411,39.42Zm.19-7.25a3.53,3.53,0,0,1,.25-4.78l2.74,2.75Zm.24-14.87c-1.22-1.13-1.06-2.25,0-3.4l2.34,2.34C413.54,17.81,412.31,17.17,411.43,17.3ZM413.74,23c-.21,1.58-1.44.93-2.32,1.06-1.22-1.13-1.06-2.25,0-3.4Zm-.6-12h-2c-.18-1-.37-2-.61-3.17,1.09-.22,1.84-.27,2.51-.4C414.38,8.64,414.34,9,413.14,11ZM411,4c-.16-1-.31-1.76-.52-2.88,1-.2,2-.3,3.15-.52.21,1.1.35,1.4.63,3.4Zm10,35h-3a4.33,4.33,0,0,1,0-4.62c1.5.07,2,1.8,3,2.13Zm-3.91-7.93.76-4.06c1,1.36,2.33,1.86,2.59,3.44Zm.14-7.89.42-2.26c1.71.09,1.91,1.78,3.19,2.14C419.56,24.43,418.45,24.28,417.24,23.18Zm.5-5.82c-.21-1.1-.35-1.37-.63-3.37h3.26c.16,1,.31,1.63.52,2.76Zm0-6.87c-.21-1.1-.35-1.5-.63-3.5h3.26c.16,1,.31,1.7.52,2.82C419.84,10,418.9,10.29,417.73,10.5ZM426.59,39h-2c-.18-1-.37-1.69-.61-2.86,1.09-.22,1.84-.42,2.51-.55C427.83,36.79,427.79,38,426.59,39Zm-2.5-9c.92-.77,1.45-2,3-2.32l.41,2.17C426.34,31.14,425.23,31.13,424.09,30Zm10.07-13.47c-1.13,1.22-2.25,1.06-3.4,0l2.34-2.34C434.67,14.38,434,15.61,434.16,16.49ZM434,20.43c0,1.57,0,2.31,0,3.26l-2.73.52-.59-3.15Zm-1.54,7.86a5.55,5.55,0,0,1,1.13-.62c.19.46.41.91.56,1.38a11.08,11.08,0,0,1,0,1.84l-3.67-.57C431.37,29.4,431.88,28.81,432.46,28.29Zm-1.27,11L430.55,36h3.26l.52,2.73Zm0-29.33a11.1,11.1,0,0,1-.52-2.52c1-.2,2-.48,3.15-.7.21,1.1.35,2.22.63,3.22Zm9.74-.24c-1.13,1.22-2.25,1.06-3.4,0l2.34-2.34C441.41,7.65,440.76,8.88,440.89,9.76Zm-.35,4.46.36,2.35c-1.27,1-2.19,1.06-3.65-.3ZM441,38.84c-1,.16-1.73.31-2.86.52-.2-1-.31-2-.53-3.15,1.1-.21,1.39-.35,3.39-.63Zm-3.17-9.19c0-.13.35-.54.54-.53.75,0,1.5.17,2.25.27l0,1.07a11.41,11.41,0,0,1-2.23.26C438.2,30.7,437.94,30.05,437.83,29.65Zm0-6.11c.19-1.41,1.54-1.89,2.52-3.29l.59,3C439.74,24.35,438.81,24.29,437.83,23.55Zm2.55-20c-1.36-.27-1.89-1.52-3.19-2.6l2.93-.52C441.2,1.7,441.17,2.62,440.38,3.58Zm6.42,24.17c1,.15,1.53,1.49,2.5,2.17-.71,1.09-1.83.9-2.86.82a17.52,17.52,0,0,1-2.57-.64Zm-.07,11.48-2.07-2.39c1-1.05,1-1.09,4.92-.46Zm6.85-.23-2.67-2.32a3.7,3.7,0,0,1,5.17,0Zm-.11-21.66c-1.08-1.23-1.06-2.16-.27-3.12,1.36.27,1.89,1.52,3.19,2.6ZM463,38.87l-2.53.4a3.64,3.64,0,0,1,.06-5.14A32.23,32.23,0,0,0,463,36.51Zm-3.7-8.94.42-2.26c1.71.09,1.91,1.78,3.19,2.14C461.63,31.18,460.51,31,459.3,29.93Zm0-6.73.42-2.26c1.71.09,1.91,1.78,3.19,2.14C461.63,24.45,460.51,24.29,459.3,23.2Zm.94-9.2h2c.18,1,.37,1.76.61,2.93l-2.51.52C459,16.25,459,15,460.24,14Zm-.44-3.49c-.21-1.1-.35-1.51-.63-3.51h3.26c.16,1,.31,1.7.52,2.83C461.9,10,461,10.29,459.8,10.51Zm0-6.51c-.16-1-.31-1.75-.52-2.88,1-.2,2-.3,3.15-.52.21,1.1.35,1.4.63,3.4ZM469,20.44v3.26c-1,.16-1.43.31-2.56.52-.2-1-.46-2-.68-3.15C466.87,20.87,468,20.73,469,20.44Zm-1.89,18.93c-1.39-1.2-1.34-2.38-.15-3.38h2c.18,1,.37,1.74.61,2.91C468.53,39.13,467.78,39.24,467.11,39.38Zm0-28.8C465.74,9.37,465.78,8,467,7h2c.18,1,.37,1.84.61,3C468.54,10.23,467.79,10.44,467.12,10.57ZM475.44.47c1.09,1.23,1.06,2.16.27,3.12-1.36-.27-1.89-1.52-3.19-2.6ZM476,17c-1,.16-1.56.31-2.69.52-.2-1-.39-2-.61-3.15,1.1-.21,2.3-.35,3.3-.63Zm.25,6.29c-1.23,1.09-2.16,1.06-3.14.25.13-1.47,1.74-1.71,2.5-3.86ZM473,38.36v-2c1-.18,1.71-.37,2.88-.61.22,1.09.41,1.84.54,2.51C475.22,39.6,474,39.55,473,38.36Zm.85-7.69c-1.39-1.2-1.34-1.67-.15-3.67h2c.18,1,.37,1.89.61,3.06C475.26,30.28,474.51,30.54,473.85,30.67Zm-.59-20.16C473,9.41,472.9,9,472.62,7h3.26c.16,1,.31,1.7.52,2.83C475.36,10,474.42,10.29,473.26,10.51Zm8.92-10c1.08,1.23,1.06,2.16.27,3.12-1.36-.27-1.89-1.52-3.19-2.6ZM482.6,21l.36,2.35c-1.27,1-2.19,1.06-3.65-.3Zm-3.08-6c1.2-1.39,2.48-1.35,3.48-.15v2c-1,.18-1.79.37-3,.61C479.82,16.36,479.65,15.62,479.52,14.95ZM483,29.83c-1.18,1.33-2.29,1.32-3.43.15.92-.77,1.45-2,3-2.32Zm-2.87,9c-.32-.13-.4-.87-.6-1.35.08-1.83,1.86-2.07,2.48-3.49,1.4,1.65.63,3.06,1.06,5.16A12.88,12.88,0,0,1,480.17,38.86ZM480,10.51c-.21-1.1-.35-1.51-.64-3.51h3.26c.16,1,.31,1.7.52,2.83C482.09,10,481.15,10.29,480,10.51ZM488.87,14c1.22,1.13,1.06,2.25,0,3.46L486.58,17C486.83,15.43,488.13,14.93,488.87,14ZM488,9.76c0-.75.17-1.5.27-2.25l1.07,0a11.43,11.43,0,0,1,.26,2.23c0,.23-.67.49-1.06.6C488.45,10.33,488,9.94,488,9.76Zm1.21,10.51.74,4-4-.75C487.16,22.34,488,21.52,489.25,20.27Zm-.45,19-2.14-2.65c.15-1,1.49-1.53,2.19-2.52C490.25,35.79,490.2,37.45,488.8,39.32Zm-2.52-9.38,2.5-2.33,2.67,2.32A3.7,3.7,0,0,1,486.28,29.94Zm2.57-26.07-2.28-2.28c1.4-1,1.4-1,5-.49Zm6.77,16.78L497.7,23c-1,1.05-1,1.09-4.92.46ZM498,37.58v0h0v.77c-3,2.52-3.37-1-5.19-1.51l2.91-2.93C496.38,35,497,36,498,37.61Zm-2.37-5.27L493,30l2.54-2.53L498.15,30ZM495,16.49v-2c1-.18,1.65-.37,2.82-.61.22,1.09.44,1.84.57,2.51C497.19,17.73,496,17.69,495,16.49Zm7,22.43a3.53,3.53,0,0,1,.25-4.78L505,36.89Zm6.73,0a3.53,3.53,0,0,1,.25-4.78l2.74,2.75Zm9.06-.26-3.18-2.17.72-1.78,3.18,2.17ZM524.67,28a11.22,11.22,0,0,1,.52,2.52c-1,.2-2,.48-3.15.7-.21-1.1-.35-2.22-.63-3.22Zm-.55,11.33L522,36.55c.14-.93,1.47-1.41,2.17-2.4C525.58,35.8,525.53,37.46,524.13,39.33Zm6.67-32.18c1.33,1.18,1.32,2.29.15,3.43-.77-.92-2-1.45-2.32-3Zm.6,13.83.36,2.35c-1.27,1-2.19,1.06-3.65-.3Zm-.17,17.94c-1.38-.2-1.86-1.54-2.84-2.23l2.28-2.28C531.75,35.74,531.79,35.74,531.22,38.92Zm-2.56-8.63c0-1.53,1.8-1.68,2.35-4.24l.78,3.92C530.59,31.11,529.66,31.05,528.66,30.29Zm.34-12.7c0-1.57,0-2.31,0-3.26l2.73-.52.59,3.15Zm8.51,3c1.37,1.27,1.22,2.39.12,3.6l-2.26-.42C535.46,22,537.14,21.85,537.51,20.58Zm-.65-5.69c0-.23.67-.49,1.06-.6.13,0,.54.35.53.54,0,.75-.17,1.49-.27,2.24l-1.07.05A11.41,11.41,0,0,1,536.85,14.88Zm.55,12.79c1.58.21.93,1.44,1.06,2.32-1.13,1.22-2.25,1.06-3.4,0Zm.13,11.45-2.48-2.48,2.63-2.3,2.16,2C539.61,37.73,538.43,38.31,537.54,39.12Zm0-27.12-.78-3.92c1.2-1.14,2.13-1.08,3.13-.32C539.86,9.29,538.09,9.45,537.54,12Zm63.89-4.64c1.39,1.2,1.34,1.64.15,3.64h-2c-.18-1-.37-1.87-.61-3C600,7.73,600.76,7.49,601.43,7.36Zm-8,.21c.13,0,.54.35.53.54,0,.75-.17,1.49-.27,2.24l-1.07.05a11.41,11.41,0,0,1-.26-2.23C592.39,7.94,593,7.68,593.44,7.57ZM593.16,14a2,2,0,0,1,0,3.37A2,2,0,0,1,593.16,14Zm2.24,9.74-2.35.36c-1-1.27-1.06-2.19.3-3.65ZM585.56,7.28a11,11,0,0,1,1.84,0l-.57,3.67c-.92-.88-1.52-1.39-2-2a5.56,5.56,0,0,1-.62-1.13C584.64,7.65,585.09,7.42,585.56,7.28Zm0,6.73a11,11,0,0,1,1.84,0l-.57,3.67c-.92-.88-1.52-1.39-2-2a5.55,5.55,0,0,1-.62-1.13C584.64,14.38,585.09,14.15,585.56,14ZM584,21.07l2.73-.52.59,3.15-3.33.64C584,22.76,584,22,584,21.07Zm-16.79,2.74c-1.09.22-1.84.44-2.51.58-1.39-1.2-1.35-2.39-.15-3.39h2C566.77,22,567,22.64,567.21,23.81ZM567,8.1v2c-1,.18-1.74.37-2.91.61-.22-1.09-.39-1.84-.53-2.51C564.76,6.86,566,6.9,567,8.1Zm-.91,5.62c1.39,1.2,1.34,2.28.15,3.28h-2a14.49,14.49,0,0,1-.61-2.87C564.68,13.91,565.43,13.85,566.09,13.72ZM559.54.53c1.22,1.13,1.06,2.25,0,3.4L557.22,1.6C557.43,0,558.66.66,559.54.53ZM560,8.09v2a13,13,0,0,1-2.78.61c-.22-1.09-.46-1.84-.6-2.51C557.83,6.86,559,6.9,560,8.09ZM546.62,1c0,1.53-1.8,1.68-2.35,4.24l-.78-3.92C544.69.21,545.62.27,546.62,1Zm-.71,6.31c1.39,1.2,1.35,1.65.15,3.65h-2c-.18-1-.37-1.88-.61-3C544.49,7.73,545.24,7.48,545.91,7.35Zm1.12,9.6-2.51.51c-1.39-1.2-1.35-2.46-.15-3.46h2C546.59,15,546.78,15.77,547,16.94ZM544.56,39c-1.07-1.58-1.08-1.58-.27-5.55l1.86,4Zm-1.28-7.91.75-4c1.21,1.13,2,2,3.29,3.21Zm0-6.73.75-4c1.21,1.13,2,2,3.29,3.21ZM551,38.92c-1-1.2-.17-2.62-.44-3.9,1.12-1.25,1.47-1.1,3.47-.09v1.72C553,37.4,552.35,38.7,551,38.92Zm-.82-9,.42-2.26c1.71.09,1.91,1.78,3.19,2.14C552.48,31.21,551.36,31.05,550.15,30ZM550,9.78v-2c1-.18,1.91-.37,3.08-.61.22,1.09.31,1.84.44,2.51C552.32,11,551,11,550,9.78ZM553.53,17c-1.1.21-1.53.35-3.53.63V14.33c1-.16,1.71-.31,2.83-.52C553,14.85,553.31,15.79,553.53,17Zm-.44,3.63c.22,1.09.31,1.84.44,2.51-1.2,1.39-2.52,1.35-3.52.15v-2C551,21,551.91,20.83,553.08,20.58ZM552,3a5.55,5.55,0,0,1-1.13.62c-.19-.46-.41-.91-.56-1.38a11.08,11.08,0,0,1,0-1.84l3.67.57C553.05,1.89,552.54,2.49,552,3Zm8,10.74V17c-1,.16-1.5.31-2.63.52-.2-1-.42-2-.64-3.15C557.83,14.17,559,14,560,13.74Zm0,25.05c-1,.15-1.65.32-2.46.46a4.53,4.53,0,0,1-.25-4.8c1.35.28,1.72,1.53,2.72,2.32ZM557,30v-2c1-.18,1.77-.37,2.94-.61l.51,2.51C559.25,31.21,558,31.17,557,30Zm0-6.73v-2c1-.18,1.78-.37,2.95-.61l.51,2.51C559.25,24.48,558,24.44,557,23.24Zm7.08,15.43c-.92-1.13-.9-2.78.5-4.58L567.13,37Zm0-7.56c-.21-1.1-.35-2.12-.63-3.12h3.26a12.93,12.93,0,0,1,.52,2.63C566.21,30.83,565.27,30.9,564.1,31.12ZM573.47,7c.16,1,.31,1.81.52,2.94-1,.2-2,.27-3.15.49-.21-1.1-.35-1.43-.64-3.43ZM573,17h-2a13,13,0,0,1-.61-2.78c1.09-.22,1.84-.46,2.51-.6C574.21,14.83,574.17,16,573,17Zm0,7h-2c-.18-1-.37-1.74-.61-2.91l2.51-.53C574.21,21.76,574.17,23,573,24Zm-1.85,15c-1.24-1-.4-2.71-.77-4.37l2.61-.54c1.41,1.47.56,2.91,1,4.91Zm-.34-8c-.16-1-.31-1.77-.52-2.9,1-.2,2-.29,3.15-.51.21,1.1.35,1.41.63,3.41ZM580,39c-1.36-.27-1.89-1.52-3.19-2.6l2.93-.52C580.83,37.07,580.81,38,580,39Zm-3-9v-2c1-.18,1.87-.37,3-.61.22,1.09.33,1.84.46,2.51C579.3,31.22,578,31.18,577,30Zm.57-5.66L576.93,21h3.26l.52,2.73Zm-.57-7.8v-2c1-.18,1.87-.37,3-.61.22,1.09.33,1.84.46,2.51C579.3,17.76,578,17.72,577,16.52Zm.52-6.52L577,7.27l3.15-.59.63,3.33Zm8.86,29.35-2.12-2.78c.14-.93,1.47-1.41,2.17-2.4C587.83,35.82,587.78,37.48,586.38,39.35Zm-2.76-9c1.13-1.21,2-2,3.21-3.29l.74,4Zm9.47-2.68L595.76,30a3.7,3.7,0,0,1-5.17,0ZM592.9,39a3.53,3.53,0,0,1,.25-4.78l2.74,2.75Zm7-1.41c-1.22-1.13-1.06-2.25,0-3.4l2.34,2.34C602,38.06,600.74,37.42,599.86,37.55ZM602,30.34a12.59,12.59,0,0,1-2.75.61c-.22-1.09-.48-1.84-.61-2.51,1.2-1.39,2.36-1.34,3.36-.15Zm-3.19-9.22c1.1-.21,2.19-.35,3.19-.64v3.26c-1,.16-1.54.31-2.67.52C599.14,23.23,599,22.29,598.81,21.12Zm.63-3.72c-.21-1.1-.35-1.4-.64-3.4h3.26c.16,1,.31,1.64.52,2.77C601.55,17,600.61,17.18,599.44,17.4Z"/><line class="cls-2" x1="498" y1="38" x2="498" y2="38"/><line class="cls-2" x1="344" y1="7" x2="344" y2="7"/></g></g></svg>