<svg xmlns="http://www.w3.org/2000/svg" viewBox="0 0 22.46 1379.01"><defs><style>.cls-1{fill:#3dbfe0;}</style></defs><title>Calle_ornamento_barraLateral1</title><g id="Layer_2" data-name="Layer 2"><g id="ornamentos"><path class="cls-1" d="M2.24,613.74v-4.15l2.65-1,6,6.72A9.32,9.32,0,0,0,15.08,609h5l.63,2.61c-2.65,3.09-6.2,5.27-7.25,9.39H9.35Z"/><path class="cls-1" d="M17,620.6c1.34,1.88,3.06,2.57,3.33,4.11a7.43,7.43,0,0,1-.86,2c-2,2.16-4.16,4.25-6.2,6.31h-4l-7-7v-2c1.22-1.69,3-.73,5.13-1.1l3.39,6Z"/><path class="cls-1" d="M17.16,957.07l2,.12c1.64,1.28.41,3.12,1.08,4.72l-8,7.11H8.84c-2.12-2.87-5.94-4.7-7.08-8.5,1.38-2.19,3.21-1.18,4.72-1.45,2.47.8,3.13,4.43,6.37,4C13.85,960.76,14.9,958.48,17.16,957.07Z"/><path class="cls-1" d="M18.8,1281.06l3.66,2.64c-3,4.94-3,4.94-9.06,8.76-3.35-1.6-6.74-3.14-9.16-6.87v-4.06c1.28-1.05,2.4-1.18,3.53,0,1.63,1.64,3.26,3.27,4.9,4.9.23,0,.58.18.68.08C15.23,1284.63,17.09,1282.76,18.8,1281.06Z"/><path class="cls-1" d="M3,1334l4.55-2.63,5,5c.23,0,.58.18.68.08,1.88-1.84,3.74-3.7,5.54-5.5l3.33,2.56c-.27,1.4-.18,2.2-.53,2.58-2.23,2.36-4.56,4.62-6.72,6.79C10.19,1341.53,6.57,1339.23,3,1334Z"/><path class="cls-1" d="M10.68,596.65c-1.83-3.44-6.12-3.53-8.44-6.74v-4.69l2.7-.55,5.75,5.8a5.36,5.36,0,0,0,1.35-.7c1.67-1.6,3.2-3.38,5-4.82.51-.41,1.75.1,2.85.2l.21,4a7.76,7.76,0,0,1-4.15,3.72C14.22,593.49,12.83,595.06,10.68,596.65Z"/><path class="cls-1" d="M12,1070,2,1060c2.23-2.26,2.26-2.23,4.73-3l3.85,6h2.37a10.72,10.72,0,0,1,4.23-6c2.38-.35,3.26,1.75,4.79,3C18.87,1063.24,15.63,1066.32,12,1070Z"/><path class="cls-1" d="M9.17,497l-7.35-7.35c.27-.7.39-2.07,1-2.31,1.14-.48,2.55-.32,4.29-.46L11,491.81l3.87-4.92c2,.39,3.84-.56,5.07,1.08.16.22.06.64.08,1s.14.81,0,1c-2.36,2.34-4.76,4.63-7.34,7.11Z"/><path class="cls-1" d="M20.31,675.61,13,683H9.19L2,676c.4-2.81.4-2.82,2.67-3,.66-.05,1.33,0,2,0L12,677.57a15.7,15.7,0,0,0,2-2.09c.31-.49.1-1.35.44-1.79a31.18,31.18,0,0,1,2.65-2.7C18.12,672.48,19.84,673.17,20.31,675.61Z"/><path class="cls-1" d="M12.75,863.07c1.32-2.05,1.94-4.63,4.3-6,1,1.26,2.55,2,3,3.5-.26.84-.27,1.59-.65,2-2.05,2.17-4.2,4.25-6.37,6.42H9L2,861.6l.35-2.36L6.25,859C9,859.72,9.49,863.52,12.75,863.07Z"/><path class="cls-1" d="M14.79,1367H12.37l-8.05-8.07.31-1.39c1.45-1.21,3.14-.13,4.81-.68l1.3,3.66c2.62.2,2.62.2,5.5-2.64v-2.16l2.64-.91,2.93,2.74C20.42,1361.1,18.68,1364.36,14.79,1367Z"/><path class="cls-1" d="M9.05,509l-6.69-6.78c.23-2.66.23-2.68,2.24-2.9.63-.07,1.27,0,2.9,0L9.78,503h3.74l.58-2.91c.82-.88.82-.88,5.09-.38A2.23,2.23,0,0,1,19,503c-2,2-4,4.06-6,6Z"/><path class="cls-1" d="M13.34,536.08c3.94,1.17,6.55-.53,6.87,2.36,0,.75.15,1.23,0,1.4-2.34,2.41-4.73,4.77-7.13,7.17H8.88l-7-7.33A11.14,11.14,0,0,1,1.79,538c0-.27.34-.52.69-1H7.21c1.65.68-.56,4.69,4.23,3.48Z"/><path class="cls-1" d="M1.93,527.38c.44-1.92-1.13-4.55,2.7-4.6C7,524,8.4,526.83,11,528.5l4.86-5.5c3.3-.56,4.41.16,4.22,1.95l-9.44,9.44c-.81-.31-1.5-2.37-3.63-1.53Z"/><path class="cls-1" d="M2.24,516.64V511.8c1.31-1,2.47-1.21,3.53,0s2.05,2.51,2.57,3.16c3.85.49,4.6-2.26,6.41-3.53,1.8-.28,3.71-1.13,5.28.66.16.18,0,.63,0,1s.14.8,0,1c-2.33,2.29-4.7,4.54-7.31,7H8.83l-3.09-3.67Z"/><path class="cls-1" d="M11.68,1057.44l-7.44-8.59v-3.19c3.42-2,4.21,1.24,6,2.33v2.21l2.58.94c1.94-1.91,2-4.89,4.72-6.12h2c1.85,1.11.79,2.94,1,3.91Z"/><path class="cls-1" d="M18.51,1032.39l3.11,2.91c.07.29.25.65.16.74-2.78,2.82-5.58,5.62-8.38,8.41-3.35-1.6-6.74-3.14-9.16-6.87v-4.06c1.28-1.05,2.4-1.18,3.53,0,1.63,1.64,3.26,3.27,4.9,4.9C16.37,1038.36,15.11,1033.8,18.51,1032.39Z"/><path class="cls-1" d="M11.44,647.14,5.31,641l-3.07-.64v-4.95c1.43-1.52,3.24-.43,4.83-.79,1.34,2.08,1.73,4.86,4.36,6l6.15-6.15,2.66.74v5L16,641.39Z"/><path class="cls-1" d="M16.68,1207h4.57l.9,2.37-7.93,7.55a2.62,2.62,0,0,1-1.81,0c-2.79-1.36-6-2-8.16-4.76v-4.85c1.09-.08,2.35-.56,2.85-.14,2,1.71,3.83,3.69,5.71,5.57Z"/><path class="cls-1" d="M12,447.29c-2.81.95-4.66-2.54-7.56-2.61L1.71,438.2c1.64-2,3.48-.7,5.09-1.45l2,4.27h4.52l3.32-4h2.71l.87,2.43Z"/><path class="cls-1" d="M3.66,1345H9.42l3.6,5,5.64-7.44,3.35,3.27c-2.55,1.32-1.7,4.92-4.23,6.21-1.91,1-3.85,1.89-5.86,2.87C7.56,1353.44,6.45,1349.05,3.66,1345Z"/><path class="cls-1" d="M3.88,1321.22c-.11-1.63.77-2.3,2.85-2.2l4.48,4c3.25,0,4-2.78,5.84-4.06h4.26l.91,2.4-8,7.6H10.29c-1.71-1.87-4-4.32-6.21-6.8C3.9,1322,3.95,1321.6,3.88,1321.22Z"/><path class="cls-1" d="M15.45,1244.61l5.82.34a2.67,2.67,0,0,1,0,3.67c-2.37,3.2-6,4.44-9.18,6.25-6.95-5.58-6.95-5.58-8.07-9,1.47-2.07,3.46-.88,5.55-.83l.67,3,2.81,1.23Z"/><path class="cls-1" d="M13,1236.74l6.19-6.19,2.73,3.37c.4,2.64-1.89,3.37-3,4.87-2.82-.38-3.76,2.19-5.49,3.52A16.78,16.78,0,0,1,4,1235.47l.21-1.9a6.15,6.15,0,0,1,1.67-.75,24.24,24.24,0,0,1,3,0Z"/><path class="cls-1" d="M17.11,1133h4.32l.85,2.76-7.8,7.24H11c-2.64-2.31-5-5-7.08-7-.21-2.88,1-3.12,2.72-3.11l4.68,4.13C14.48,1136.81,15.23,1134.06,17.11,1133Z"/><path class="cls-1" d="M4.85,1082.71c4.06.05,4.86,3.47,5.73,6.44,4.25-1.42,4.25-1.42,6.18-6.14h5l.71,2.75L14.77,1093H8.61L4,1087.42C3.81,1086.4,2.91,1084.43,4.85,1082.71Z"/><path class="cls-1" d="M12.34,939l6.26-6.83,3.09,3.58c-.31,1.15-1.82,1.88-1.82,3.69,0,2.06-2.75.75-3.77,2.13a29.78,29.78,0,0,1-3.18,3.25c-1-.17-1.83,0-2.2-.4-2.84-2.72-5.6-5.53-9-8.95L6,932.67Z"/><path class="cls-1" d="M4.1,1258.73l.31-1.4c1.45-1.22,3.14-.13,4.64-.63l2.2,4.42c3.63-1,5.09-4.28,7.77-6.23l2.65,2.54-2.31,4.9-2.76.72-1.34,3.59-3.1.15Z"/><path class="cls-1" d="M16.52,970.72l2.67.26c1.52,1.32.48,3.08.88,4.91-4,.78-6.1,4.21-8.77,6.57l-8.63-8.65,2-3c4.82.12,4.62,3.85,6.68,6.46Z"/><path class="cls-1" d="M11.31,933.11,2,923.77l2.6-3c4.87-.08,4.74,3.61,6.24,5.81l1.93.17c1.3-2.08,2-4.64,4.27-6h2c1.69,1.23.72,3,1,4.56C18.36,929.28,13,928.67,11.31,933.11Z"/><path class="cls-1" d="M12.2,919H9.15L2,911.39l.31-2.24,3.88-.21c3.17.84,3.26,3.83,4.59,5.89,2.65-1,2.85-3.9,4.25-5.81h4.22l.93,2.71Z"/><path class="cls-1" d="M8,874l3.11,3,5-6h3c1.68,1.28.67,3.07,1,4.58-1.69,3.89-7.06,3.23-8.38,6.89l-9.18-9.18,2.07-2.24C7.73,870.74,8.29,872,8,874Z"/><path class="cls-1" d="M2.1,798.73l.31-1.36c1.47-1.11,3.13-.39,5.52-.51l2.65,3.81c4.15.56,4.41-3.7,6.47-3.83,2.55-.18,3,.86,3,1.77l-8.15,8.12-1.72.08Z"/><path class="cls-1" d="M4.24,1099.37v-3.86l3.26-1L13,1100.9c2.57-1.37,3.05-3.65,3.94-5.88h2.49c1.43,1.59.5,3.3.72,4.59l-6.8,6.8A16.94,16.94,0,0,1,4.24,1099.37Z"/><path class="cls-1" d="M12,739.57,17.31,735c1.35,0,2.74,0,2.68,2.11,0,.14.14.62,0,.78-2.36,2.33-4.77,4.62-7.35,7.11H9.19L2,738c.4-2.81.4-2.83,2.68-3,.66-.05,1.33,0,2,0Z"/><path class="cls-1" d="M20.83,724a18.32,18.32,0,0,1-10.2,8.3c-1.73-.48-2.45-3.94-5.5-3.51-1.3-1.61-4.25-2.36-2.72-5.46,1.4-1.25,3.11-.07,4.49-.63l3.75,3.75c1.69-.17,2.25-1.87,3.4-2.78a32.37,32.37,0,0,0,2.66-2.62Z"/><path class="cls-1" d="M14.73,709h4.86l.45,2.75-8.79,8.79c-3.3-1.43-4.54-6.07-9-6.08v-5.11l3.29-.9,5.08,6.44C13.47,713.52,13.72,711.1,14.73,709Z"/><path class="cls-1" d="M2,687.83l.13-2.16c1.29-1.59,3.09-.56,4.58-.87,1.65.56,1,2.21,1.58,3.2a31.65,31.65,0,0,0,3.12,3.58L18,684.89l1.4.32c1.11,1.47.39,3.13.46,4.68-1.39,3-5,2.74-7.07,4.8-.68.66-2.55.1-3.42.1Z"/><path class="cls-1" d="M11,670.61l-5.51-5.51-3.23-1V659.5l3.18-1L11,665.05l3-3,.61-3h5.16l.49,2.34Z"/><path class="cls-1" d="M20.24,647.58c0,1.54,0,2.86,0,4.18-4,1.09-6.18,4.44-9.05,7-1.37-1.39-3.13-2.59-4.06-4.26-1.17-2.12-3.77-1-4.89-2.74v-4.2l2.43-1,6.55,7.14,6.52-7.16Z"/><path class="cls-1" d="M2.24,602.05v-4.87L5,596.72l5.38,5.38,5.35-5.36L20,599.85c.12,3-1.86,4.59-3.34,4.75-2.84.3-3.56,2.69-5.71,4.14a32.93,32.93,0,0,1-3.81-3.9C5.94,603.09,4,603,2.24,602.05Z"/><path class="cls-1" d="M5.29,560.54l3.35,4.25c3.67.46,4.34-2.52,6.22-3.78H19.6l.61,2.06a8.89,8.89,0,0,1-.92,1.66c-2,2.29-4,4.55-5.59,6.28H10.32L1.9,562.63l.23-1.45Z"/><path class="cls-1" d="M1.81,551.6A17.86,17.86,0,0,0,2.6,548H7.3c1.61,1.67-.55,5.58,4.12,4.4.36-.84,1.17-2.7,1.5-3.4h6.69c.14,1,.69,2.21.3,2.74-2.5,3.36-6,5.46-9.92,7.05-2.13-.16-2.93-2.22-4.37-3.42C4.37,554.33,3.29,553.08,1.81,551.6Z"/><path class="cls-1" d="M18.62,453.28,12.89,459H7.21c-.89-1.49-1.7-3.06-2.71-4.48s-3.27-2.26-1.75-4.62c1.41-1,3-.36,4.68-.4L8.63,453H13.2c1.35-.72-.2-4,3.8-3.47Z"/><path class="cls-1" d="M20.24,947.83v2L13.09,957H9.21l-3.68-3.67-3.11-5.51c1.23-1.51,3-.47,4.66-.81l4.23,4c3.3.56,3.9-3.17,6.6-4.09Z"/><path class="cls-1" d="M17,1269h4.18l.82,2-9.49,9.49c-2.22-2.22-5-4.93-7.64-7.68a6.76,6.76,0,0,1-.88-1.62c-.1-1.66.76-2.3,2.95-2.19l4.53,6.29C15.52,1273.83,15.54,1270.91,17,1269Z"/><path class="cls-1" d="M14.42,809h4.92l.66,2a6.39,6.39,0,0,1-.84,1.64c-2.06,2.14-4.19,4.22-6.16,6.2H9.75a8.62,8.62,0,0,1-1.62-.9C5.89,816,3.69,814,1.88,812.36l.35-2.82c1.34-1.56,3.17-.16,4.55-.89,1.54,2.1,1.74,4.94,4.38,6L13.82,812Z"/><path class="cls-1" d="M1.75,425H7.44l3.43,4.93,5.7-7.52L20,425.91c-3,3-6.05,6-9.11,8.93-.17.16-.64,0-1,0C2.93,429.17,2.93,429.17,1.75,425Z"/><path class="cls-1" d="M10.79,703.72l6.15-7,2.25.21c1.52,1.31.48,3.08.8,4.56-.6,1.59-2.11,1.1-3.21,1.47l-5.46,5.46-9.37-9.39c-.16-1.05,0-2.53,1.92-2.34Z"/><path class="cls-1" d="M13,1175l6-6,2.91,3.09c-2.64,2.64-5.34,5.37-8.08,8.05a6.84,6.84,0,0,1-1.6.89c-3.69-.29-3.62-3.87-5.24-6H4.84L3.55,1172l3.62-2.78Z"/><path class="cls-1" d="M1.92,463.64c-.22-2.47,1-2.67,2.68-2.81l5.93,7.23c1.32-3.51,2.45-5.75,4.62-7.06H19.5l.8,2.84L12.6,471H8.87Z"/><path class="cls-1" d="M20.24,759.79v1.67l-8.75,9.07-9.25-9.21c0-1.1-.12-2.48,2.28-2.54,2.76,1,4.19,4.2,6.87,5.86L14,762l.56-2.79C17.76,758.83,17.76,758.88,20.24,759.79Z"/><path class="cls-1" d="M21.49,1182.52l.44,2.64L14.08,1193H12.21l-8.14-8.09.14-1.37,2.81-.76,3.56,4.22h4.67l1.11-3.41C17.73,1182.22,19.49,1183.58,21.49,1182.52Z"/><path class="cls-1" d="M4.89,982.86c2.44,1.91,4.35,4.53,6.23,6,1.28-.08,1.74,0,1.91-.13,1.91-1.85,3.78-3.74,6.2-6.16l1.65,3.4.64-.64c.08.24.3.61.22.69-3,3-6,6.06-8.85,8.89-1.08-.24-1.89-.18-2.27-.55-2.88-2.76-5.68-5.62-8.58-8.51Z"/><path class="cls-1" d="M20,749.32l-8.87,9.1L2,749.27l.16-1.66c.78-.78.78-.78,4.62-.82,1.19,2.14,2,4.59,4.83,6.33l5.81-6.33,2.18.37Z"/><path class="cls-1" d="M3.06,1073.23l2.25-2.42c3.43-.19,3.77,3.9,7.25,4,2.62-.94,3.74-4.53,6.39-5.59l2.82,2.22-2.69,5.25-1.94.1c-1.94,1.1-2.7,3.76-5.11,4-.49,0-.93,0-1.11-.12C8.51,1078.44,6.13,1076.16,3.06,1073.23Z"/><path class="cls-1" d="M11.68,1318c-3-3.27-5.27-5.67-7.48-8.1-.18-.2-.14-.6-.2-.9l.57-2H9.24c.17.17.58.39.61.64.15,1.63.08,3.37,1.9,3.18l6.56-6.62,3.7,3.54-6.73,6.72Z"/><path class="cls-1" d="M8.24,821.92v2.22l3.3,3.27,4.7-6.06c3.36-.52,4.23.44,4,2.56a18.25,18.25,0,0,0,0,1.92c-.59,1.64-2.11,1.15-3.21,1.52L13.36,831H9.55l-7-7.38L5.74,821Z"/><path class="cls-1" d="M20.08,899.53,12.8,906.8c-2.75.34-3.47-2.8-5.45-3.47A10.57,10.57,0,0,1,2,899.63l.12-2c1.3-1.59,3.09-.56,4.73-.9l4.24,4c3.3.55,3.9-3.17,6.33-4l2.19.34Z"/><path class="cls-1" d="M4.22,1371.28c-.1-1.51.83-2,3.34-1.95L9.81,1373h5.71l.58-2.92c1.34-1.34,3-.9,4.6-.49l1.05,1.77c-.73,2.81-3,3.62-5.43,4.33L15.21,1379H10.73c-2-2.06-4.19-4.36-6.37-6.69C4.2,1372.14,4.27,1371.73,4.22,1371.28Z"/><path class="cls-1" d="M9.76,484.65s-.93,0-1.17-.36a12,12,0,0,1-.93-2.82l-5.9-5.9,4.73-2.4A4.1,4.1,0,0,0,8,475.82a34.66,34.66,0,0,1,3,3l5.1-6c1.64,0,2.57-.27,2.89.06a4.49,4.49,0,0,1,.88,1.65Z"/><path class="cls-1" d="M14.24,1012v-2.21c1.72-1.09,2.48-4.35,5.84-2.29l.18,2.93-8.41,8.4c-2.83-1.47-5-4.78-7.93-7.28l1.16-2.72c3.55-.6,4.15,3.13,6.85,4.05Z"/><path class="cls-1" d="M13.56,583H10.33L2,574.72c0-.48,0-1.85,2.68-1.67l4.62,4h3.48l4.4-4c2.06-.11,2.92.55,2.82,2.17-.07.37,0,.78-.2,1C17.6,578.63,15.36,581.05,13.56,583Z"/><path class="cls-1" d="M17,885c1.54.35,3.29-.69,5,1-2.48,2.48-4.95,5-7.45,7.44a23.82,23.82,0,0,1-2,1.61c-3-.17-3.76-2.86-5.7-4.07h-2l-2.81-5.78L6.71,885l4.53,4.1C14.43,889,15.18,886.32,17,885Z"/><path class="cls-1" d="M9.24,397l-7-7v-2.19L5,386.75,11,394.12l7-7,1.46.24.83,2.57L13.24,397Z"/><path class="cls-1" d="M15.29,411h4.26l.91,2.39-8,7.6H8.54c-1.71-1.87-4-4.32-6.21-6.8-.18-.2-.13-.61-.21-1-.11-1.63.77-2.3,3.45-2.16l2.66,4.49v.8l2.44.84C13.47,415.86,14.16,413.27,15.29,411Z"/><path class="cls-1" d="M4,1111.84c.08-1.55-.43-3.2.4-4.76,3.35,1,4.18,5,8.09,5.86,2.5-1,1.53-5.39,4.83-6.15,1.18,0,2.57-.13,2.62,1.81,0,.33.12.72,0,1-1,2-3.76,2.72-4,5.32-.2,2.39-2.69,2.46-3.06,4.16-1.37-.47-2.1-.5-2.51-.89C8.26,1116.12,6.18,1114,4,1111.84Z"/><path class="cls-1" d="M4.24,1021.33l2.69-.42,4.78,4.13c3-.45,3.77-3.08,5.62-4h4c1.55,1.15,0,1.52-.34,2.21-.37.85-.64,1.74-1.09,3-3.12,0-4.79,3.22-6.89,4.95-1.23-.46-1.95-.53-2.36-.92-2.17-2.06-4.26-4.21-6.38-6.32Z"/><path class="cls-1" d="M17.13,834.8c1.95-.06,3,.39,2.87,2.15a6.52,6.52,0,0,1-.85,1.65c-2.06,2.14-4.19,4.22-6.18,6.22-.87-.08-1.74.11-2.12-.24-2-1.79-3.8-3.73-5.65-5.57l-2.94-.65-.18-2.65c1.51-1.62,3.28-.57,4.83-.92l4.19,4C14.47,839.22,15.09,835.53,17.13,834.8Z"/><path class="cls-1" d="M7,784.79l3.07,5.35c.68.26,1,.49,1.12.42,1.9-1.85,3.78-3.73,5.65-5.61,1.84-.39,3.33-.29,3.2,1.5l-8.11,8.14A17.73,17.73,0,0,1,2,787.36l.31-1.89C3.7,784.1,5.45,785.14,7,784.79Z"/><path class="cls-1" d="M2.07,773.72l2.81-2.81,6,6.79,6.9-6.9c.92,0,2.26,0,2.19,2.14,0,.11.14.59,0,.75-3,3-6.1,5.92-9.19,8.91Z"/><path class="cls-1" d="M21.14,1121.27l-9.38,9.38a2.06,2.06,0,0,1-1.21-.36c-2.35-2.23-4.61-4.55-6.74-6.68.8-2.12.8-2.12,2.71-3l5.1,4.5c3.21-1.18,4.8-4.27,7.53-6.36Z"/><path class="cls-1" d="M13.67,857H8.51L7.4,852.36l-4.94-4.71c1.22-1.23,3-.16,5.08-.65l3.2,4.05c3.83.54,4.27-3.44,7-3.93,1.53-.08,2.4.58,2.29,2.2-.07.37,0,.78-.2,1C17.6,852.74,15.36,855.17,13.67,857Z"/><path class="cls-1" d="M14.65,1148.66l1.92-3.54c3.17-.42,3.71,1.57,5,2.45-.23,1.69-1.78,2.31-2.75,3.44H17l-3.27,5.72a6,6,0,0,1-1.63-.72c-2.8-2.74-5.55-5.52-8.08-8,0-1.88.19-3.12,2-3a6,6,0,0,1,1.68.76c1.45,1.34,2.82,2.78,4.2,4.16.35,1-.57,2.63,1.43,2.8C14.83,1151.3,13.39,1149.5,14.65,1148.66Z"/><path class="cls-1" d="M16.48,398.27l3.08,3.08L10.93,410l-9-9c-.18-.84-.15-2.35,3.08-2.16,1.64,1.61,3.67,3.67,5.48,5.47Z"/><path class="cls-1" d="M20.24,997.58v2.14l-7.37,7.46a17.91,17.91,0,0,1-3-1.85c-2-1.77-3.77-3.71-5.61-5.56.37-1.61-.69-3.37.94-4.9l6.19,5.91c3.27.49,3.9-3.16,6.59-4.09Z"/><path class="cls-1" d="M12,1161.73l5.26-4.7c2.1-.12,2.85.64,2.75,2.45-.3,1.56-2.09,2.16-2.91,3.49s-1.37,2.7-2,4H10.83c-2.16-2.21-4.45-4.54-6.7-6.91-.17-.18-.09-.61-.13-.92.71-1.56.71-1.56,2.65-2.3Z"/><path class="cls-1" d="M13,1299.55l3.9-4.86c1.95.41,3.75-.64,5.08,1.09l-8.83,8.72-5-2.58-.14-2L4,1295.73c1.3-1.68,3.1-.63,5.05-1Z"/><path class="cls-1" d="M4,1198.47c0-2.3-.07-3.68,1.86-3.68.33,0,.79-.14,1,0,2.11,1.94,4.19,3.92,6.25,5.87l2.94-2.89c-.07-1.31-.33-2.72,1.88-3,2-.15,2.77,1.8,3.91,3.22-2.32,3.22-7.23,3-8.36,6.6-2.25.53-3.08-.47-4.06-1.38C7.46,1201.42,5.45,1199.74,4,1198.47Z"/><path class="cls-1" d="M13.57,1231.08c-2.78-2.4-5.08-6.1-9.34-7.31v-2c1.6-1.81,3.52-1,5.64-.59l.59,2.93,2.91,1,5.44-6.76,3.27,3.27Z"/><path class="cls-1" d="M16.8,286.18l3.66,2.64c-3,4.94-3,4.94-9.06,8.76-3.35-1.6-6.74-3.14-9.16-6.87v-4.06c1.28-1.05,2.4-1.18,3.53,0,1.63,1.64,3.26,3.27,4.9,4.9.23,0,.58.18.68.08C13.23,289.76,15.09,287.88,16.8,286.18Z"/><path class="cls-1" d="M1,339.12l4.55-2.63,5,5c.23,0,.58.18.68.08,1.88-1.84,3.74-3.7,5.54-5.5l3.33,2.56c-.27,1.4-.18,2.2-.53,2.58-2.23,2.36-4.56,4.62-6.72,6.79C8.19,346.66,4.57,344.35,1,339.12Z"/><path class="cls-1" d="M10,75,0,65c2.23-2.26,2.26-2.23,4.73-3l3.85,6h2.37a10.72,10.72,0,0,1,4.23-6c2.38-.35,3.26,1.75,4.79,3C16.87,68.24,13.63,71.32,10,75Z"/><path class="cls-1" d="M12.79,372H10.37l-8.05-8.07.31-1.39c1.45-1.21,3.14-.13,4.81-.68l1.3,3.66c2.62.2,2.62.2,5.5-2.64v-2.16l2.64-.91,2.93,2.74C18.42,366.1,16.68,369.36,12.79,372Z"/><path class="cls-1" d="M9.68,62.44,2.24,53.85V50.66c3.42-2,4.21,1.24,6,2.33V55.2l2.58.94c1.94-1.91,2-4.89,4.72-6.12h2c1.85,1.11.79,2.94,1,3.91Z"/><path class="cls-1" d="M16.51,37.51l3.11,2.91c.07.29.25.65.16.74C17,44,14.2,46.78,11.4,49.58,8.05,48,4.66,46.44,2.24,42.72V38.66c1.28-1.05,2.4-1.18,3.53,0,1.63,1.64,3.26,3.27,4.9,4.9C14.37,43.48,13.11,38.93,16.51,37.51Z"/><path class="cls-1" d="M14.68,212h4.57l.9,2.37-7.93,7.55a2.62,2.62,0,0,1-1.81,0c-2.79-1.36-6-2-8.16-4.76v-4.85c1.09-.08,2.35-.56,2.85-.14,2,1.71,3.83,3.69,5.71,5.57Z"/><path class="cls-1" d="M1.66,350H7.42l3.6,5,5.64-7.44L20,350.86c-2.55,1.32-1.7,4.92-4.23,6.21-1.91,1-3.85,1.89-5.86,2.87C5.56,358.44,4.45,354.05,1.66,350Z"/><path class="cls-1" d="M2,326.32c-.11-1.61.76-2.28,2.82-2.17l4.42,4c3.21,0,3.95-2.74,5.77-4h4.21l.9,2.37L12.21,334H8.32c-1.69-1.84-3.93-4.27-6.14-6.72C2,327.09,2.05,326.69,2,326.32Z"/><path class="cls-1" d="M13.45,249.73l5.82.34a2.67,2.67,0,0,1,0,3.67c-2.37,3.2-6,4.44-9.18,6.25C3.12,254.4,3.12,254.4,2,251c1.47-2.07,3.46-.88,5.55-.83l.67,3L11,254.38Z"/><path class="cls-1" d="M11,241.87l6.19-6.19L20,239.05c.4,2.64-1.89,3.37-3,4.87-2.82-.38-3.76,2.19-5.49,3.52A16.78,16.78,0,0,1,2,240.6l.21-1.9A6.15,6.15,0,0,1,3.87,238a24.24,24.24,0,0,1,3,0Z"/><path class="cls-1" d="M15.11,138h4.32l.85,2.76L12.48,148H9c-2.64-2.31-5-5-7.08-7-.21-2.88,1-3.12,2.72-3.11l4.68,4.13C12.48,141.81,13.23,139.06,15.11,138Z"/><path class="cls-1" d="M2.85,87.71c4.06.05,4.86,3.47,5.73,6.44,4.25-1.42,4.25-1.42,6.18-6.14h5l.71,2.75L12.77,98H6.61L2,92.42C1.81,91.4.91,89.43,2.85,87.71Z"/><path class="cls-1" d="M2.1,263.86l.31-1.4c1.45-1.22,3.14-.13,4.64-.63l2.2,4.42c3.63-1,5.09-4.28,7.77-6.23l2.65,2.54-2.31,4.9-2.76.72-1.34,3.59-3.1.15Z"/><path class="cls-1" d="M2.24,104.37v-3.86l3.26-1L11,105.9c2.57-1.37,3.05-3.65,3.94-5.88h2.49c1.43,1.59.5,3.3.72,4.59l-6.8,6.8A16.94,16.94,0,0,1,2.24,104.37Z"/><path class="cls-1" d="M15,274h4.18l.82,2-9.49,9.49c-2.22-2.22-5-4.93-7.64-7.68A6.76,6.76,0,0,1,2,276.23c-.1-1.66.76-2.3,2.95-2.19l4.53,6.29C13.52,278.83,13.54,275.91,15,274Z"/><path class="cls-1" d="M11,180l6-6,2.91,3.09c-2.64,2.64-5.34,5.37-8.08,8.05a6.84,6.84,0,0,1-1.6.89c-3.69-.29-3.62-3.87-5.24-6H2.84L1.55,177l3.62-2.78Z"/><path class="cls-1" d="M19.49,187.52l.44,2.64L12.08,198H10.21l-8.14-8.09.14-1.37L5,187.79,8.59,192h4.67l1.11-3.41C15.73,187.22,17.49,188.58,19.49,187.52Z"/><path class="cls-1" d="M1.06,78.36l2.25-2.42c3.43-.19,3.77,3.9,7.25,4C13.18,79,14.3,75.41,17,74.35l2.82,2.22-2.69,5.25-1.94.1c-1.94,1.1-2.7,3.76-5.11,4-.49,0-.93,0-1.11-.12C6.51,83.57,4.13,81.29,1.06,78.36Z"/><path class="cls-1" d="M9.68,323c-3-3.27-5.27-5.67-7.48-8.1-.18-.2-.14-.6-.2-.9l.57-2H7.24c.17.17.58.39.61.64.15,1.63.08,3.37,1.9,3.18l6.56-6.62,3.7,3.54-6.73,6.72Z"/><path class="cls-1" d="M2.22,376.28c-.1-1.51.83-2,3.34-1.95L7.81,378h5.71l.58-2.92c1.34-1.34,3-.9,4.6-.49l1.05,1.77c-.73,2.81-3,3.62-5.43,4.33L13.21,384H8.73c-2-2.06-4.19-4.36-6.37-6.69C2.2,377.14,2.27,376.73,2.22,376.28Z"/><path class="cls-1" d="M12.24,17.13V14.92c1.72-1.09,2.48-4.35,5.84-2.29l.18,2.93L9.85,24c-2.83-1.47-5-4.78-7.93-7.28L3.07,14c3.55-.6,4.15,3.13,6.85,4.05Z"/><path class="cls-1" d="M2,117c.08-1.55-.43-3.2.4-4.76,3.35,1,4.18,5,8.09,5.86,2.5-1,1.53-5.39,4.83-6.15,1.18,0,2.57-.13,2.62,1.81,0,.33.12.72,0,1-1,2-3.76,2.72-4,5.32-.2,2.39-2.69,2.46-3.06,4.16-1.37-.47-2.1-.5-2.51-.89C6.26,121.24,4.18,119.1,2,117Z"/><path class="cls-1" d="M2.24,26.33l2.69-.42L9.71,30c3-.45,3.77-3.08,5.62-4h4c1.55,1.15,0,1.52-.34,2.21-.37.85-.64,1.74-1.09,3-3.12,0-4.79,3.22-6.89,4.95-1.23-.46-1.95-.53-2.36-.92C6.45,33.19,4.35,31,2.24,28.93Z"/><path class="cls-1" d="M19.14,126.39l-9.38,9.38a2.06,2.06,0,0,1-1.21-.36c-2.35-2.23-4.61-4.55-6.74-6.68.8-2.12.8-2.12,2.71-3l5.1,4.5c3.21-1.18,4.8-4.27,7.53-6.36Z"/><path class="cls-1" d="M12.65,153.66l1.92-3.54c3.17-.42,3.71,1.57,5,2.45-.23,1.69-1.78,2.31-2.75,3.44H15l-3.27,5.72a6,6,0,0,1-1.63-.72c-2.8-2.74-5.55-5.52-8.08-8,0-1.88.19-3.12,2-3a6,6,0,0,1,1.68.76c1.45,1.34,2.82,2.78,4.2,4.16.35,1-.57,2.63,1.43,2.8C12.83,156.3,11.39,154.5,12.65,153.66Z"/><path class="cls-1" d="M18.24,2.7V4.84L10.87,12.3a17.91,17.91,0,0,1-3-1.85c-2-1.77-3.77-3.71-5.61-5.56.37-1.61-.69-3.37.94-4.9L9.34,5.91c3.27.49,3.9-3.16,6.59-4.09Z"/><path class="cls-1" d="M10,166.73l5.26-4.7c2.1-.12,2.85.64,2.75,2.45-.3,1.56-2.09,2.16-2.91,3.49s-1.37,2.7-2,4H8.83c-2.16-2.21-4.45-4.54-6.7-6.91-.17-.18-.09-.61-.13-.92.71-1.56.71-1.56,2.65-2.3Z"/><path class="cls-1" d="M11,304.68l3.9-4.86c1.95.41,3.75-.64,5.08,1.09l-8.83,8.72-5-2.58L6,305,2,300.86c1.3-1.68,3.1-.63,5.05-1Z"/><path class="cls-1" d="M2,203.6c0-2.3-.07-3.68,1.86-3.68.33,0,.79-.14,1,0,2.11,1.94,4.19,3.92,6.25,5.87L14,202.92c-.07-1.31-.33-2.72,1.88-3,2-.15,2.77,1.8,3.91,3.22-2.32,3.22-7.23,3-8.36,6.6-2.25.53-3.08-.47-4.06-1.38C5.46,206.55,3.45,204.87,2,203.6Z"/><path class="cls-1" d="M11.57,236.21c-2.78-2.4-5.08-6.1-9.34-7.31v-2c1.6-1.81,3.52-1,5.64-.59l.59,2.93,2.91,1,5.44-6.76,3.27,3.27Z"/></g></g></svg>