<svg xmlns="http://www.w3.org/2000/svg" viewBox="0 0 428.94 63.39"><defs><style>.cls-1{fill:#3dbfe0;}</style></defs><title>Calle_ornamento_Barras_inserto_superior</title><g id="Layer_2" data-name="Layer 2"><g id="ornamentos"><path class="cls-1" d="M0,17.36a40.73,40.73,0,0,1,4.41-.5q25.28-.05,50.57,0h136.4q116.23-.06,232.45-.1c1.64,0,3.29.25,4.93.38l.18,1c-.62.39-1.2,1-1.86,1.11a24.07,24.07,0,0,1-3.74.1H195.74q-40.86,0-81.72,0-33.18,0-66.36-.09c-14.5,0-29,0-43.49,0C2.85,19.15,1.15,19.78,0,17.36Z"/><path class="cls-1" d="M18.44.71A16.75,16.75,0,0,1,21.66,0c3.5-.06,7,.07,10.49.07Q77.5.06,122.86,0c15.74,0,31.48.1,47.22.1L405.47,0c1.66,0,3.33.18,5,.28l.24.9c-.59.44-1.12,1.12-1.77,1.25a16.55,16.55,0,0,1-3.36.12q-101,0-202,0c-24,0-48-.08-72-.09q-49.85,0-99.7,0c-3.37,0-6.75.12-10.12.06a18.34,18.34,0,0,1-3.29-.65Z"/><path class="cls-1" d="M150,58.45c3.75.33,6.68.82,9.61.82q55.46.08,110.92,0a32.07,32.07,0,0,0,6.89-1c1.67,0,2.95,1,2.66,2.7a6,6,0,0,1-1.56,2.41,85.5,85.5,0,0,0-8.59-.94q-55.84-.08-111.67,0a23.42,23.42,0,0,0-5.49.73c-2.36.58-3.81.26-4.44-1.34S148.35,59.28,150,58.45Z"/></g></g></svg>