<svg xmlns="http://www.w3.org/2000/svg" viewBox="0 0 2120.71 17.73"><defs><style>.cls-1{fill:#3dbfe0;}</style></defs><title>Calle_ornamento_Barrasfin</title><g id="Layer_2" data-name="Layer 2"><g id="ornamentos"><path class="cls-1" d="M.28,10.55l0-8.34a33.42,33.42,0,0,1,6-1.26C11.9.74,17.59.77,23.25.78q112.67.17,225.35.33c4.66,0,9.31-.42,14-.58,3.28-.11,6.59-.17,9.88-.16q107,.14,214,.31,60.23.1,120.45.3c16.3,0,32.59-.12,48.83-.78.94,0,1.89-.07,2.83,0,7,.24,14,.77,20.92.66S693.24,0,700.45.6c4.87.42,10.19-.31,15.31-.31q160.86.23,321.72.5c10.31,0,20.73.69,30.94-.64a31.78,31.78,0,0,1,5.52.26,37,37,0,0,0,5.54.36c9.55-1,19.27.64,28.87-.51,4-.48,8.45-.14,12.71-.13l141.73.29q124.7.25,249.39.51,114.8.26,229.59.6c39.68.1,79.35.09,119,.3,7.95,0,15.78-.46,23.74-.39,6.34.06,12.87.83,19.29-.32,1.87-.34,4.56.23,6.88.38a31.32,31.32,0,0,0,5.55.31c10.21-1.39,20.65-.64,30.94-.63q80.08,0,160.16.37l6.09,0,7.28,3-4.79,1.65c-5.35.11-10.28-1-15.55-.08-2.3.39-5.46-.26-8.24-.39s-6-.63-8.35-.21c-6.53,1.19-13,.43-19.37.16-5.68-.24-11.16-.16-16.77,0-7.47.26-15,.34-22.48.34-21.26,0-42.55.21-63.77-.22-19.2-.39-38.34.19-57.51,0-19.84-.21-39.68-.2-59.52-.25-19.37,0-38.74,0-58.11-.07s-38.74-.11-58.11-.16L1565.21,5c-7.89,0-15.74-.41-23.67-.14-7.51.25-15.11.07-22.66.07q-12,0-24.09,0c-8,0-16.06-.08-24.09-.1-7.56,0-15.12,0-22.68,0-8,0-16.06-.06-24.09-.09q-85.72-.25-171.43-.49Q1179.56,4,1106.63,4c-3.73,0-7.55.58-11.16.34a36,36,0,0,0-9.52.33,15.7,15.7,0,0,1-4.2.09c-11-1.15-22.21.42-33.21-.56-10.73.92-21.57.38-32.36.37q-103.46-.09-206.92-.25c-35.9-.06-71.81-.5-107.68-.18-15.2.14-30.45.06-45.72.55-20.66.66-41.57.32-62.32-.1-7.53-.15-14.84.38-22.3.28-17-.22-34-.09-51-.16-5.64,0-11.41.07-16.9-.41s-10.77.61-16.31.33-11.31,0-17,0-11.34,0-17,0q-52.44-.08-104.88-.16c-5.16,0-10.3.3-15.4.48-7.81.27-15.79.29-23.71.28Q178,5,46.87,4.82c-11.81,0-23.62-.06-35.43,0-1.7,0-3.39.31-4.9.46C6.26,6.71,8,7,10,7q21.25.1,42.5.12,90,.15,180,.27c7.52,0,15,.16,22.53-.6,4.5-.46,9.4-.16,14.13-.15q89.28.17,178.57.35,85,.14,170,.21c5.15,0,10.32-.59,15.42-.46,5.51.14,10.95-.71,16.55.15a35.28,35.28,0,0,0,9.5.15c8.3-1.19,16.68-.22,25-.39,9.27-.19,18.64-.22,28-.1s18.9,0,28.35.06l28.35,0,28.35,0q73.67.14,147.33.28c31.17,0,62.35-.05,93.52.13,12.19.07,24.36-.2,36.55,0,5.51.08,10.94-1.25,16.58-.27,5.2-1,10.16.2,15.22.32,4.61.1,9.37-.81,13.93-.62,9.87.43,19.66-.2,29.49,0,9.44.17,18.9.1,28.34.12q92.1.18,184.2.35L1589,7.46l259.35.62c22.68.05,45.35.14,68,.12,6.08,0,12.33-.84,18.19-.41,5.68.41,11.27.5,16.87.45,15.53-.12,31-.55,46.57-.62,19.37-.08,38.75.21,58.11.06,5.15,0,10.05.93,15.27.32a51.73,51.73,0,0,1,13.91.44c8.33-1.11,16.89-.46,25.35-.55,2.3,0,4.63.2,6.88.31a13.51,13.51,0,0,1,2.49,1.65c.26.29-.4.74-.74,1.26a25.25,25.25,0,0,1-3.72.52q-32.6,0-65.2-.1L1812.31,11c-9.85,0-19.69.12-29.55,0-8.77-.15-17.55.63-26.35.08-8.41-.52-16.85.31-25.29-.25-5.5-.36-10.84.73-16.67.12a100.81,100.81,0,0,0-16.65,0c-4.82.32-9.4-.74-14-.19-4.17.51-8.18,1-12.4.19-5.44,1.37-11-.76-16.56.13-5.06.81-10.23.25-15.32-.16-10.16,1.5-20.4-.34-30.66.08-9.73.4-19.6.2-29.41.22s-19.58-.32-29.42-.1-19.84,0-29.76,0L1489.13,11l-29.76-.08c-9.92,0-19.85,0-29.76-.07-5.11,0-10.27-.56-15.29-.36a123.8,123.8,0,0,1-14-.19c-4-.28-8.26.4-12.4.39q-64.48-.12-129-.32c-25-.05-50.07,0-75.1-.06-60-.12-120-.33-179.94-.34-13.65,0-27.33-.51-41,.29-5,.29-10.27-.6-15.39-.52-8.8.14-17.66,0-26.39.79a45.75,45.75,0,0,1-9.84,0c-5.26-.71-10.44.58-15.27-.09-4.51-.62-9.32.69-13.44-.73-13.92,1.59-28.12.72-42.18.72-52.42,0-104.85-.15-157.28-.22q-53.14-.06-106.28,0c-3.28,0-6.63,0-9.83.32a155.85,155.85,0,0,1-25.27,0c-2.23-.17-4.57-.05-6.85,0-22.56.09-45.12.29-67.68.28q-102.75,0-205.49-.19c-17.39,0-34.69.82-52.12.76Q115.39,11,21.15,11C14.6,11,8,11.08.28,10.55Z"/><path class="cls-1" d="M2116.57,14.1l3.1,1.8-3,1.61c-2.51.07-5.29.22-8.07.22q-127.54-.24-255.08-.52-167.94-.38-335.87-.79-90.7-.21-181.39-.34c-20,0-39.93-.05-59.9,0-7.37,0-14.78.77-22.17.21-6.91-.53-13.73.19-20.68,0-7.71-.23-15.63-.27-23.53.16s-16,.07-24.07.05l-24.09-.08-24.09,0q-75.81-.09-151.63-.17-73.68-.1-147.36-.24c-14.5,0-29.09-.33-43.47.05-30.56.82-61.1.41-91.65.42q-95,0-189.9-.2c-23.07,0-46.17-.18-69.21.19-54.7.89-109.42.18-164.12.34-31.64.09-63.29-.1-94.94-.09-7,0-14.11-.2-21,.08s-13.89.1-20.76.57a46.93,46.93,0,0,1-5.66,0c-18.6-1-37.2.07-55.81-.11-18.89-.18-37.78,0-56.68-.06-6.14,0-12.28-.09-18.41-.17-3,0-5.46-.59-7.17-2.13l1.9-1.82c1.44-.16,2.29-.33,3.15-.34,11.52-.14,23-.07,34.52.35,4.95.18,10-.55,15.11-.43,2.3.05,4.73-.13,6.89.14a31.43,31.43,0,0,0,9.68,0c5-.91,10.23.74,15.21-.27,11.69,1.3,23.33-.33,35,0s23.61.14,35.42.16l280.59.4c9.91,0,19.82.08,29.72.07,5.63,0,11.23.22,16.83-.6a59.39,59.39,0,0,1,9.85-.16c13.61.41,27.21,0,40.81.08s27.4.07,41.1.09l42.51,0,41.09,0q20.55,0,41.1,0t41.1.1q36.84.07,73.67.11c5.16,0,10.32-.26,15.48-.4a27.69,27.69,0,0,1,4.11-.09,100.23,100.23,0,0,0,22.35.05c12.94,1.41,25.82-.93,39,.11,8.55.68,17.65-.2,26.51-.18q161.55.22,323.09.49c7.52,0,15.09-.61,22.55-.37,7.07.23,14,.74,21-.23,7.82,1,15.58.22,23.42.08s15.86-.17,23.8-.17c6.93,0,13.71.87,20.74.52a136.32,136.32,0,0,1,17.92-.17c5.73.49,11,.06,16.52,0,5-.09,10.12.43,15.19.51,6.1.1,12.26.22,18.33,0,20.17-.7,40.31-.78,60.5,0,4.61.17,9.31-.34,14-.33q80.78.19,161.55.48c8,0,16.06-.7,23.91.57,22.54-1.32,45.19-.26,67.78-.4,23.13-.14,46.28,0,69.42.06l68,.15q34,.06,68,.11,76.53.19,153.06.42C2112.86,13.92,2114.27,14,2116.57,14.1Z"/></g></g></svg>