<svg xmlns="http://www.w3.org/2000/svg" viewBox="0 0 886.02 30.62"><defs><style>.cls-1{fill:#3c2415;}</style></defs><title>Calle_ornamento_titulo_inferior_1</title><g id="Layer_2" data-name="Layer 2"><g id="ornamentos"><path class="cls-1" d="M14.32,9s.29-2.74-1.14-2.74c-1.06,0-.85-1.11-.85-1.11s.08-1.47-1.7-.8a1.14,1.14,0,0,1,1.84-.58s.35-.36.24-.61a1.19,1.19,0,0,1,.8,1.39s.35.83.45-.08a1.89,1.89,0,0,0-.75-1.55.93.93,0,0,1,.21-1.16s.08.39.32.5c0,0-.4-.42.75-1.8h0c1.14,1.39.75,1.8.75,1.8.24-.11.32-.5.32-.5a.93.93,0,0,1,.21,1.16A1.89,1.89,0,0,0,15,4.49c.11.91.45.08.45.08a1.19,1.19,0,0,1,.8-1.39c-.11.25.24.61.24.61a1.14,1.14,0,0,1,1.84.58c-1.78-.67-1.7.8-1.7.8s.21,1.11-.85,1.11C14.36,6.29,14.65,9,14.65,9S14.45,9.16,14.32,9Z"/><path class="cls-1" d="M8.23,15.71s-2.63-.3-2.63,1.19a.84.84,0,0,1-1.07.89s-1.41-.08-.77,1.77a1.21,1.21,0,0,1-.56-1.91s-.35-.36-.59-.25a1.16,1.16,0,0,1,1.33-.83s.8-.36-.08-.47a1.79,1.79,0,0,0-1.49.78.84.84,0,0,1-1.12-.22s.37-.08.48-.33c0,0-.4.42-1.73-.78H0c1.33-1.19,1.73-.78,1.73-.78-.11-.25-.48-.33-.48-.33a.84.84,0,0,1,1.12-.22A1.79,1.79,0,0,0,3.87,15c.88-.11.08-.47.08-.47a1.16,1.16,0,0,1-1.33-.83c.24.11.59-.25.59-.25a1.21,1.21,0,0,1,.56-1.91c-.64,1.86.77,1.77.77,1.77a.84.84,0,0,1,1.06.89c0,1.5,2.64,1.19,2.64,1.19S8.36,15.58,8.23,15.71Z"/><path class="cls-1" d="M14.65,22.06s-.29,2.74,1.14,2.74c1.06,0,.85,1.11.85,1.11s-.08,1.47,1.7.8a1.14,1.14,0,0,1-1.84.58s-.35.36-.24.61a1.19,1.19,0,0,1-.8-1.39s-.35-.83-.45.08a1.89,1.89,0,0,0,.75,1.55.93.93,0,0,1-.21,1.16s-.08-.39-.32-.5c0,0,.4.42-.75,1.8h0c-1.14-1.39-.75-1.8-.75-1.8-.24.11-.32.5-.32.5a.93.93,0,0,1-.21-1.16A1.89,1.89,0,0,0,14,26.59c-.11-.92-.45-.08-.45-.08a1.19,1.19,0,0,1-.8,1.39c.11-.25-.24-.61-.24-.61a1.14,1.14,0,0,1-1.84-.58c1.78.67,1.7-.8,1.7-.8s-.21-1.11.85-1.11c1.44,0,1.15-2.74,1.15-2.74S14.52,21.92,14.65,22.06Z"/><path class="cls-1" d="M20.75,15.37s2.64.31,2.64-1.19a.84.84,0,0,1,1.06-.89s1.41.08.77-1.77a1.21,1.21,0,0,1,.56,1.91s.35.36.59.25a1.16,1.16,0,0,1-1.33.83s-.8.36.08.47a1.79,1.79,0,0,0,1.49-.78.84.84,0,0,1,1.12.22s-.37.08-.48.33c0,0,.4-.42,1.73.78h0c-1.33,1.19-1.73.78-1.73.78.11.25.48.33.48.33a.84.84,0,0,1-1.12.22,1.78,1.78,0,0,0-1.49-.78c-.88.11-.08.47-.08.47a1.16,1.16,0,0,1,1.33.83c-.24-.11-.59.25-.59.25a1.21,1.21,0,0,1-.56,1.91c.64-1.86-.77-1.77-.77-1.77a.84.84,0,0,1-1.06-.89c0-1.5-2.64-1.19-2.64-1.19S20.61,15.5,20.75,15.37Z"/><path class="cls-1" d="M11.09,10.29a.58.58,0,0,1,0,.62A2.22,2.22,0,0,0,9.7,9.07c-.34,0-.09.63-.09.63a2.49,2.49,0,0,0-2.1-1.38A2.62,2.62,0,0,0,8.84,10.5s-.63-.26-.6.09A2.19,2.19,0,0,0,10,12.09a.53.53,0,0,1-.59,0,1.43,1.43,0,0,0,.78,1.09.83.83,0,0,0,1.29-.26.62.62,0,0,1,0-.1.28.28,0,0,1,0,.1,2,2,0,0,0,.61,1.38c.6.7,1,0,1,0a4.77,4.77,0,0,1,.4.48l.17-.17a4.66,4.66,0,0,1-.47-.41s.69-.42,0-1.05a1.82,1.82,0,0,0-1.32-.63l-.09,0h.1c.28-.09.67-.62.25-1.35S11.09,10.29,11.09,10.29Z"/><path class="cls-1" d="M9.45,19.09a.52.52,0,0,1,.59,0,2.19,2.19,0,0,0-1.77,1.49c0,.35.6.09.6.09a2.62,2.62,0,0,0-1.33,2.19,2.49,2.49,0,0,0,2.1-1.38s-.25.65.09.63a2.22,2.22,0,0,0,1.43-1.84.58.58,0,0,1,0,.62s.58,0,1.05-.81,0-1.26-.25-1.35h0A1.84,1.84,0,0,0,13.26,18c.67-.63,0-1,0-1a4.72,4.72,0,0,1,.47-.41l-.17-.17a4.72,4.72,0,0,1-.4.49s-.4-.72-1,0a2,2,0,0,0-.6,1.37.26.26,0,0,1,0,.1.68.68,0,0,1,0-.1c-.09-.29-.6-.7-1.29-.26A1.43,1.43,0,0,0,9.45,19.09Z"/><path class="cls-1" d="M17.89,20.8a.58.58,0,0,1,0-.62A2.22,2.22,0,0,0,19.29,22c.34,0,.09-.63.09-.63a2.49,2.49,0,0,0,2.1,1.38,2.62,2.62,0,0,0-1.33-2.19s.63.26.6-.09A2.19,2.19,0,0,0,19,19a.52.52,0,0,1,.59,0,1.43,1.43,0,0,0-.78-1.09c-.7-.44-1.21,0-1.29.26a.6.6,0,0,1,0,.1.27.27,0,0,1,0-.1,2,2,0,0,0-.61-1.38c-.6-.7-1,0-1,0a4.79,4.79,0,0,1-.4-.48l-.17.17a4.71,4.71,0,0,1,.47.41s-.69.42,0,1.05a1.82,1.82,0,0,0,1.32.63l.09,0h-.1c-.28.09-.67.62-.25,1.35S17.89,20.8,17.89,20.8Z"/><path class="cls-1" d="M19.54,12a.53.53,0,0,1-.59,0,2.19,2.19,0,0,0,1.77-1.49c0-.35-.6-.09-.6-.09a2.62,2.62,0,0,0,1.33-2.19,2.48,2.48,0,0,0-2.1,1.38S19.58,9,19.25,9a2.22,2.22,0,0,0-1.43,1.84.58.58,0,0,1,0-.62s-.58,0-1.05.81,0,1.26.25,1.35h0a1.84,1.84,0,0,0-1.32.63c-.67.63,0,1,0,1a4.74,4.74,0,0,1-.47.41l.17.17a4.85,4.85,0,0,1,.4-.48s.41.72,1,0a2,2,0,0,0,.6-1.37.27.27,0,0,1,0-.1.7.7,0,0,1,0,.1c.09.29.6.7,1.29.26A1.42,1.42,0,0,0,19.54,12Z"/><ellipse class="cls-1" cx="21.51" cy="22.85" rx="0.52" ry="0.54"/><ellipse class="cls-1" cx="21.51" cy="8.24" rx="0.52" ry="0.54"/><ellipse class="cls-1" cx="7.48" cy="8.24" rx="0.52" ry="0.54"/><ellipse class="cls-1" cx="7.48" cy="22.85" rx="0.52" ry="0.54"/><ellipse class="cls-1" cx="14.53" cy="15.59" rx="1.2" ry="1.25"/><path class="cls-1" d="M121.45,9s.29-2.74-1.14-2.74c-1.06,0-.85-1.11-.85-1.11s.08-1.47-1.7-.8a1.14,1.14,0,0,1,1.84-.58s.35-.36.24-.61a1.19,1.19,0,0,1,.8,1.39s.35.83.45-.08a1.89,1.89,0,0,0-.75-1.55.93.93,0,0,1,.21-1.16s.08.39.32.5c0,0-.4-.42.75-1.8h0c1.14,1.39.75,1.8.75,1.8.24-.11.32-.5.32-.5a.93.93,0,0,1,.21,1.16,1.89,1.89,0,0,0-.75,1.55c.11.91.45.08.45.08a1.19,1.19,0,0,1,.8-1.39c-.11.25.24.61.24.61a1.14,1.14,0,0,1,1.84.58c-1.78-.67-1.7.8-1.7.8s.21,1.11-.85,1.11c-1.44,0-1.14,2.74-1.14,2.74S121.58,9.1,121.45,9Z"/><path class="cls-1" d="M115.36,15.65s-2.63-.3-2.63,1.19a.84.84,0,0,1-1.07.89s-1.41-.08-.77,1.77a1.21,1.21,0,0,1-.56-1.91s-.35-.36-.59-.25a1.16,1.16,0,0,1,1.33-.83s.8-.36-.08-.47a1.79,1.79,0,0,0-1.49.78.84.84,0,0,1-1.12-.22s.37-.08.48-.33c0,0-.4.42-1.73-.78h0c1.33-1.19,1.73-.78,1.73-.78-.11-.25-.48-.33-.48-.33a.84.84,0,0,1,1.12-.22,1.79,1.79,0,0,0,1.49.78c.88-.11.08-.47.08-.47a1.16,1.16,0,0,1-1.33-.83c.24.11.59-.25.59-.25a1.21,1.21,0,0,1,.56-1.91c-.64,1.86.77,1.77.77,1.77a.84.84,0,0,1,1.06.89c0,1.5,2.64,1.19,2.64,1.19S115.49,15.52,115.36,15.65Z"/><path class="cls-1" d="M121.78,22s-.29,2.74,1.14,2.74c1.06,0,.85,1.11.85,1.11s-.08,1.47,1.7.8a1.14,1.14,0,0,1-1.84.58s-.35.36-.24.61a1.19,1.19,0,0,1-.8-1.39s-.35-.83-.45.08a1.89,1.89,0,0,0,.75,1.55.93.93,0,0,1-.21,1.16s-.08-.39-.32-.5c0,0,.4.42-.75,1.8h0c-1.14-1.39-.75-1.8-.75-1.8-.24.11-.32.5-.32.5a.93.93,0,0,1-.21-1.16,1.89,1.89,0,0,0,.75-1.55c-.11-.92-.45-.08-.45-.08a1.19,1.19,0,0,1-.8,1.39c.11-.25-.24-.61-.24-.61a1.14,1.14,0,0,1-1.84-.58c1.78.67,1.7-.8,1.7-.8s-.21-1.11.85-1.11c1.44,0,1.15-2.74,1.15-2.74S121.65,21.86,121.78,22Z"/><path class="cls-1" d="M127.88,15.31s2.64.31,2.64-1.19a.84.84,0,0,1,1.06-.89s1.41.08.77-1.77a1.21,1.21,0,0,1,.56,1.91s.35.36.59.25a1.16,1.16,0,0,1-1.33.83s-.8.36.08.47a1.79,1.79,0,0,0,1.49-.78.84.84,0,0,1,1.12.22s-.37.08-.48.33c0,0,.4-.42,1.73.78h0c-1.33,1.19-1.73.78-1.73.78.11.25.48.33.48.33a.84.84,0,0,1-1.12.22,1.78,1.78,0,0,0-1.49-.78c-.88.11-.08.47-.08.47a1.16,1.16,0,0,1,1.33.83c-.24-.11-.59.25-.59.25a1.21,1.21,0,0,1-.56,1.91c.64-1.86-.77-1.77-.77-1.77a.84.84,0,0,1-1.06-.89c0-1.5-2.64-1.19-2.64-1.19S127.74,15.44,127.88,15.31Z"/><path class="cls-1" d="M118.22,10.24a.58.58,0,0,1,0,.62A2.22,2.22,0,0,0,116.83,9c-.34,0-.09.63-.09.63a2.49,2.49,0,0,0-2.1-1.38A2.62,2.62,0,0,0,116,10.45s-.63-.26-.6.09A2.19,2.19,0,0,0,117.13,12a.53.53,0,0,1-.59,0,1.43,1.43,0,0,0,.78,1.09.83.83,0,0,0,1.29-.26.62.62,0,0,1,0-.1.28.28,0,0,1,0,.1,2,2,0,0,0,.61,1.38c.6.7,1,0,1,0a4.77,4.77,0,0,1,.4.48l.17-.17a4.66,4.66,0,0,1-.47-.41s.69-.42,0-1.05A1.82,1.82,0,0,0,119,12.4l-.09,0h.1c.28-.09.67-.62.25-1.35S118.22,10.24,118.22,10.24Z"/><path class="cls-1" d="M116.58,19a.52.52,0,0,1,.59,0,2.19,2.19,0,0,0-1.77,1.49c0,.35.6.09.6.09a2.62,2.62,0,0,0-1.33,2.19,2.49,2.49,0,0,0,2.1-1.38s-.25.65.09.63a2.22,2.22,0,0,0,1.43-1.84.58.58,0,0,1,0,.62s.58,0,1.05-.81,0-1.26-.25-1.35h0a1.84,1.84,0,0,0,1.32-.63c.67-.63,0-1,0-1a4.72,4.72,0,0,1,.47-.41l-.17-.17a4.72,4.72,0,0,1-.4.49s-.4-.72-1,0a2,2,0,0,0-.6,1.37.26.26,0,0,1,0,.1.68.68,0,0,1,0-.1c-.09-.29-.6-.7-1.29-.26A1.43,1.43,0,0,0,116.58,19Z"/><path class="cls-1" d="M125,20.74a.58.58,0,0,1,0-.62A2.22,2.22,0,0,0,126.42,22c.34,0,.09-.63.09-.63a2.49,2.49,0,0,0,2.1,1.38,2.62,2.62,0,0,0-1.33-2.19s.63.26.6-.09a2.19,2.19,0,0,0-1.77-1.49.52.52,0,0,1,.59,0,1.43,1.43,0,0,0-.78-1.09c-.7-.44-1.21,0-1.29.26a.6.6,0,0,1,0,.1.27.27,0,0,1,0-.1,2,2,0,0,0-.61-1.38c-.6-.7-1,0-1,0a4.79,4.79,0,0,1-.4-.48l-.17.17a4.71,4.71,0,0,1,.47.41s-.69.42,0,1.05a1.82,1.82,0,0,0,1.32.63l.09,0h-.1c-.28.09-.67.62-.25,1.35S125,20.74,125,20.74Z"/><path class="cls-1" d="M126.67,11.95a.53.53,0,0,1-.59,0,2.19,2.19,0,0,0,1.77-1.49c0-.35-.6-.09-.6-.09a2.62,2.62,0,0,0,1.33-2.19,2.48,2.48,0,0,0-2.1,1.38s.25-.65-.09-.63a2.22,2.22,0,0,0-1.43,1.84.58.58,0,0,1,0-.62s-.58,0-1.05.81,0,1.26.25,1.35h0a1.84,1.84,0,0,0-1.32.63c-.67.63,0,1,0,1a4.74,4.74,0,0,1-.47.41l.17.17a4.85,4.85,0,0,1,.4-.48s.41.72,1,0a2,2,0,0,0,.6-1.37.27.27,0,0,1,0-.1.7.7,0,0,1,0,.1c.09.29.6.7,1.29.26A1.42,1.42,0,0,0,126.67,11.95Z"/><ellipse class="cls-1" cx="128.64" cy="22.79" rx="0.52" ry="0.54"/><ellipse class="cls-1" cx="128.64" cy="8.18" rx="0.52" ry="0.54"/><ellipse class="cls-1" cx="114.61" cy="8.18" rx="0.52" ry="0.54"/><ellipse class="cls-1" cx="114.61" cy="22.79" rx="0.52" ry="0.54"/><ellipse class="cls-1" cx="121.67" cy="15.53" rx="1.2" ry="1.25"/><path class="cls-1" d="M228.59,8.91s.29-2.74-1.14-2.74c-1.06,0-.85-1.11-.85-1.11s.08-1.47-1.7-.8a1.14,1.14,0,0,1,1.84-.58s.35-.36.24-.61a1.19,1.19,0,0,1,.8,1.39s.35.83.45-.08a1.89,1.89,0,0,0-.75-1.55.93.93,0,0,1,.21-1.16s.08.39.32.5c0,0-.4-.42.75-1.8h0c1.14,1.39.75,1.8.75,1.8.24-.11.32-.5.32-.5A.93.93,0,0,1,230,2.82a1.89,1.89,0,0,0-.75,1.55c.11.91.45.08.45.08a1.19,1.19,0,0,1,.8-1.39c-.11.25.24.61.24.61a1.14,1.14,0,0,1,1.84.58c-1.78-.67-1.7.8-1.7.8s.21,1.11-.85,1.11c-1.44,0-1.14,2.74-1.14,2.74S228.71,9,228.59,8.91Z"/><path class="cls-1" d="M222.49,15.59s-2.63-.3-2.63,1.19a.84.84,0,0,1-1.07.89s-1.41-.08-.77,1.77a1.21,1.21,0,0,1-.56-1.91s-.35-.36-.59-.25a1.16,1.16,0,0,1,1.33-.83s.8-.36-.08-.47a1.79,1.79,0,0,0-1.49.78.84.84,0,0,1-1.12-.22s.37-.08.48-.33c0,0-.4.42-1.73-.78h0c1.33-1.19,1.73-.78,1.73-.78-.11-.25-.48-.33-.48-.33a.84.84,0,0,1,1.12-.22,1.79,1.79,0,0,0,1.49.78c.88-.11.08-.47.08-.47a1.16,1.16,0,0,1-1.33-.83c.24.11.59-.25.59-.25A1.21,1.21,0,0,1,218,11.4c-.64,1.86.77,1.77.77,1.77a.84.84,0,0,1,1.06.89c0,1.5,2.64,1.19,2.64,1.19S222.62,15.46,222.49,15.59Z"/><path class="cls-1" d="M228.91,21.94s-.29,2.74,1.14,2.74c1.06,0,.85,1.11.85,1.11s-.08,1.47,1.7.8a1.14,1.14,0,0,1-1.84.58s-.35.36-.24.61a1.19,1.19,0,0,1-.8-1.39s-.35-.83-.45.08A1.89,1.89,0,0,0,230,28a.93.93,0,0,1-.21,1.16s-.08-.39-.32-.5c0,0,.4.42-.75,1.8h0c-1.14-1.39-.75-1.8-.75-1.8-.24.11-.32.5-.32.5a.93.93,0,0,1-.21-1.16,1.89,1.89,0,0,0,.75-1.55c-.11-.92-.45-.08-.45-.08a1.19,1.19,0,0,1-.8,1.39c.11-.25-.24-.61-.24-.61a1.14,1.14,0,0,1-1.84-.58c1.78.67,1.7-.8,1.7-.8s-.21-1.11.85-1.11c1.44,0,1.15-2.74,1.15-2.74S228.79,21.8,228.91,21.94Z"/><path class="cls-1" d="M235,15.25s2.64.31,2.64-1.19a.84.84,0,0,1,1.06-.89s1.41.08.77-1.77a1.21,1.21,0,0,1,.56,1.91s.35.36.59.25a1.16,1.16,0,0,1-1.33.83s-.8.36.08.47a1.79,1.79,0,0,0,1.49-.78.84.84,0,0,1,1.12.22s-.37.08-.48.33c0,0,.4-.42,1.73.78h0c-1.33,1.19-1.73.78-1.73.78.11.25.48.33.48.33a.84.84,0,0,1-1.12.22,1.78,1.78,0,0,0-1.49-.78c-.88.11-.08.47-.08.47a1.16,1.16,0,0,1,1.33.83c-.24-.11-.59.25-.59.25a1.21,1.21,0,0,1-.56,1.91c.64-1.86-.77-1.77-.77-1.77a.84.84,0,0,1-1.06-.89c0-1.5-2.64-1.19-2.64-1.19S234.88,15.39,235,15.25Z"/><path class="cls-1" d="M225.35,10.18a.58.58,0,0,1,0,.62A2.22,2.22,0,0,0,224,9c-.34,0-.09.63-.09.63a2.49,2.49,0,0,0-2.1-1.38,2.62,2.62,0,0,0,1.33,2.19s-.63-.26-.6.09A2.19,2.19,0,0,0,224.26,12a.53.53,0,0,1-.59,0,1.43,1.43,0,0,0,.78,1.09.83.83,0,0,0,1.29-.26.62.62,0,0,1,0-.1.28.28,0,0,1,0,.1,2,2,0,0,0,.61,1.38c.6.7,1,0,1,0a4.77,4.77,0,0,1,.4.48l.17-.17a4.66,4.66,0,0,1-.47-.41s.69-.42,0-1.05a1.82,1.82,0,0,0-1.32-.63l-.09,0h.1c.28-.09.67-.62.25-1.35S225.35,10.18,225.35,10.18Z"/><path class="cls-1" d="M223.71,19a.52.52,0,0,1,.59,0,2.19,2.19,0,0,0-1.77,1.49c0,.35.6.09.6.09a2.62,2.62,0,0,0-1.33,2.19,2.49,2.49,0,0,0,2.1-1.38s-.25.65.09.63a2.22,2.22,0,0,0,1.43-1.84.58.58,0,0,1,0,.62s.58,0,1.05-.81,0-1.26-.25-1.35h0a1.84,1.84,0,0,0,1.32-.63c.67-.63,0-1,0-1a4.72,4.72,0,0,1,.47-.41l-.17-.17a4.72,4.72,0,0,1-.4.49s-.4-.72-1,0a2,2,0,0,0-.6,1.37.26.26,0,0,1,0,.1.68.68,0,0,1,0-.1c-.09-.29-.6-.7-1.29-.26A1.43,1.43,0,0,0,223.71,19Z"/><path class="cls-1" d="M232.16,20.68a.58.58,0,0,1,0-.62,2.22,2.22,0,0,0,1.43,1.84c.34,0,.09-.63.09-.63a2.49,2.49,0,0,0,2.1,1.38,2.62,2.62,0,0,0-1.33-2.19s.63.26.6-.09a2.19,2.19,0,0,0-1.77-1.49.52.52,0,0,1,.59,0,1.43,1.43,0,0,0-.78-1.09c-.7-.44-1.21,0-1.29.26a.6.6,0,0,1,0,.1.27.27,0,0,1,0-.1,2,2,0,0,0-.61-1.38c-.6-.7-1,0-1,0a4.79,4.79,0,0,1-.4-.48l-.17.17a4.71,4.71,0,0,1,.47.41s-.69.42,0,1.05a1.82,1.82,0,0,0,1.32.63l.09,0h-.1c-.28.09-.67.62-.25,1.35S232.16,20.68,232.16,20.68Z"/><path class="cls-1" d="M233.8,11.89a.53.53,0,0,1-.59,0A2.19,2.19,0,0,0,235,10.44c0-.35-.6-.09-.6-.09a2.62,2.62,0,0,0,1.33-2.19,2.48,2.48,0,0,0-2.1,1.38s.25-.65-.09-.63a2.22,2.22,0,0,0-1.43,1.84.58.58,0,0,1,0-.62s-.58,0-1.05.81,0,1.26.25,1.35h0a1.84,1.84,0,0,0-1.32.63c-.67.63,0,1,0,1a4.74,4.74,0,0,1-.47.41l.17.17a4.85,4.85,0,0,1,.4-.48s.41.72,1,0a2,2,0,0,0,.6-1.37.27.27,0,0,1,0-.1.7.7,0,0,1,0,.1c.09.29.6.7,1.29.26A1.42,1.42,0,0,0,233.8,11.89Z"/><ellipse class="cls-1" cx="235.77" cy="22.74" rx="0.52" ry="0.54"/><ellipse class="cls-1" cx="235.77" cy="8.13" rx="0.52" ry="0.54"/><ellipse class="cls-1" cx="221.74" cy="8.13" rx="0.52" ry="0.54"/><ellipse class="cls-1" cx="221.74" cy="22.74" rx="0.52" ry="0.54"/><ellipse class="cls-1" cx="228.8" cy="15.47" rx="1.2" ry="1.25"/><path class="cls-1" d="M335.72,8.85S336,6.1,334.57,6.1c-1.06,0-.85-1.11-.85-1.11s.08-1.47-1.7-.8a1.14,1.14,0,0,1,1.84-.58s.35-.36.24-.61a1.19,1.19,0,0,1,.8,1.39s.35.83.45-.08a1.89,1.89,0,0,0-.75-1.55.93.93,0,0,1,.21-1.16s.08.39.32.5c0,0-.4-.42.75-1.8h0c1.14,1.39.75,1.8.75,1.8.24-.11.32-.5.32-.5a.93.93,0,0,1,.21,1.16,1.89,1.89,0,0,0-.75,1.55c.11.91.45.08.45.08a1.19,1.19,0,0,1,.8-1.39c-.11.25.24.61.24.61a1.14,1.14,0,0,1,1.84.58C338,3.54,338,5,338,5s.21,1.11-.85,1.11c-1.44,0-1.14,2.74-1.14,2.74S335.84,9,335.72,8.85Z"/><path class="cls-1" d="M329.62,15.54s-2.63-.3-2.63,1.19a.84.84,0,0,1-1.07.89s-1.41-.08-.77,1.77a1.21,1.21,0,0,1-.56-1.91s-.35-.36-.59-.25a1.16,1.16,0,0,1,1.33-.83s.8-.36-.08-.47a1.79,1.79,0,0,0-1.49.78.84.84,0,0,1-1.12-.22s.37-.08.48-.33c0,0-.4.42-1.73-.78h0c1.33-1.19,1.73-.78,1.73-.78-.11-.25-.48-.33-.48-.33a.84.84,0,0,1,1.12-.22,1.79,1.79,0,0,0,1.49.78c.88-.11.08-.47.08-.47a1.16,1.16,0,0,1-1.33-.83c.24.11.59-.25.59-.25a1.21,1.21,0,0,1,.56-1.91c-.64,1.86.77,1.77.77,1.77A.84.84,0,0,1,327,14c0,1.5,2.64,1.19,2.64,1.19S329.75,15.41,329.62,15.54Z"/><path class="cls-1" d="M336,21.89s-.29,2.74,1.14,2.74c1.06,0,.85,1.11.85,1.11s-.08,1.47,1.7.8a1.14,1.14,0,0,1-1.84.58s-.35.36-.24.61a1.19,1.19,0,0,1-.8-1.39s-.35-.83-.45.08a1.89,1.89,0,0,0,.75,1.55.93.93,0,0,1-.21,1.16s-.08-.39-.32-.5c0,0,.4.42-.75,1.8h0c-1.14-1.39-.75-1.8-.75-1.8-.24.11-.32.5-.32.5A.93.93,0,0,1,334.6,28a1.89,1.89,0,0,0,.75-1.55c-.11-.92-.45-.08-.45-.08a1.19,1.19,0,0,1-.8,1.39c.11-.25-.24-.61-.24-.61a1.14,1.14,0,0,1-1.84-.58c1.78.67,1.7-.8,1.7-.8s-.21-1.11.85-1.11c1.44,0,1.15-2.74,1.15-2.74S335.92,21.75,336,21.89Z"/><path class="cls-1" d="M342.14,15.2s2.64.31,2.64-1.19a.84.84,0,0,1,1.06-.89s1.41.08.77-1.77a1.21,1.21,0,0,1,.56,1.91s.35.36.59.25a1.16,1.16,0,0,1-1.33.83s-.8.36.08.47A1.79,1.79,0,0,0,348,14a.84.84,0,0,1,1.12.22s-.37.08-.48.33c0,0,.4-.42,1.73.78h0c-1.33,1.19-1.73.78-1.73.78.11.25.48.33.48.33a.84.84,0,0,1-1.12.22,1.78,1.78,0,0,0-1.49-.78c-.88.11-.08.47-.08.47a1.16,1.16,0,0,1,1.33.83c-.24-.11-.59.25-.59.25a1.21,1.21,0,0,1-.56,1.91c.64-1.86-.77-1.77-.77-1.77a.84.84,0,0,1-1.06-.89c0-1.5-2.64-1.19-2.64-1.19S342,15.33,342.14,15.2Z"/><path class="cls-1" d="M332.49,10.12a.58.58,0,0,1,0,.62,2.22,2.22,0,0,0-1.43-1.84c-.34,0-.09.63-.09.63a2.49,2.49,0,0,0-2.1-1.38,2.62,2.62,0,0,0,1.33,2.19s-.63-.26-.6.09a2.19,2.19,0,0,0,1.77,1.49.53.53,0,0,1-.59,0,1.43,1.43,0,0,0,.78,1.09.83.83,0,0,0,1.29-.26.62.62,0,0,1,0-.1.28.28,0,0,1,0,.1,2,2,0,0,0,.61,1.38c.6.7,1,0,1,0a4.77,4.77,0,0,1,.4.48l.17-.17a4.66,4.66,0,0,1-.47-.41s.69-.42,0-1.05a1.82,1.82,0,0,0-1.32-.63l-.09,0h.1c.28-.09.67-.62.25-1.35S332.49,10.12,332.49,10.12Z"/><path class="cls-1" d="M330.84,18.92a.52.52,0,0,1,.59,0,2.19,2.19,0,0,0-1.77,1.49c0,.35.6.09.6.09a2.62,2.62,0,0,0-1.33,2.19,2.49,2.49,0,0,0,2.1-1.38s-.25.65.09.63a2.22,2.22,0,0,0,1.43-1.84.58.58,0,0,1,0,.62s.58,0,1.05-.81,0-1.26-.25-1.35h0a1.84,1.84,0,0,0,1.32-.63c.67-.63,0-1,0-1a4.72,4.72,0,0,1,.47-.41l-.17-.17a4.72,4.72,0,0,1-.4.49s-.4-.72-1,0a2,2,0,0,0-.6,1.37.26.26,0,0,1,0,.1.68.68,0,0,1,0-.1c-.09-.29-.6-.7-1.29-.26A1.43,1.43,0,0,0,330.84,18.92Z"/><path class="cls-1" d="M339.29,20.63a.58.58,0,0,1,0-.62,2.22,2.22,0,0,0,1.43,1.84c.34,0,.09-.63.09-.63a2.49,2.49,0,0,0,2.1,1.38,2.62,2.62,0,0,0-1.33-2.19s.63.26.6-.09a2.19,2.19,0,0,0-1.77-1.49.52.52,0,0,1,.59,0,1.43,1.43,0,0,0-.78-1.09c-.7-.44-1.21,0-1.29.26a.6.6,0,0,1,0,.1.27.27,0,0,1,0-.1,2,2,0,0,0-.61-1.38c-.6-.7-1,0-1,0a4.79,4.79,0,0,1-.4-.48l-.17.17a4.71,4.71,0,0,1,.47.41s-.69.42,0,1.05a1.82,1.82,0,0,0,1.32.63l.09,0h-.1c-.28.09-.67.62-.25,1.35S339.29,20.63,339.29,20.63Z"/><path class="cls-1" d="M340.93,11.83a.53.53,0,0,1-.59,0,2.19,2.19,0,0,0,1.77-1.49c0-.35-.6-.09-.6-.09a2.62,2.62,0,0,0,1.33-2.19,2.48,2.48,0,0,0-2.1,1.38s.25-.65-.09-.63a2.22,2.22,0,0,0-1.43,1.84.58.58,0,0,1,0-.62s-.58,0-1.05.81,0,1.26.25,1.35h0a1.84,1.84,0,0,0-1.32.63c-.67.63,0,1,0,1a4.74,4.74,0,0,1-.47.41l.17.17a4.85,4.85,0,0,1,.4-.48s.41.72,1,0a2,2,0,0,0,.6-1.37.27.27,0,0,1,0-.1.7.7,0,0,1,0,.1c.09.29.6.7,1.29.26A1.42,1.42,0,0,0,340.93,11.83Z"/><ellipse class="cls-1" cx="342.9" cy="22.68" rx="0.52" ry="0.54"/><ellipse class="cls-1" cx="342.9" cy="8.07" rx="0.52" ry="0.54"/><ellipse class="cls-1" cx="328.87" cy="8.07" rx="0.52" ry="0.54"/><ellipse class="cls-1" cx="328.87" cy="22.68" rx="0.52" ry="0.54"/><ellipse class="cls-1" cx="335.93" cy="15.42" rx="1.2" ry="1.25"/><path class="cls-1" d="M442.85,8.79S443.14,6,441.7,6c-1.06,0-.85-1.11-.85-1.11s.08-1.47-1.7-.8A1.14,1.14,0,0,1,441,3.55s.35-.36.24-.61a1.19,1.19,0,0,1,.8,1.39s.35.83.45-.08a1.89,1.89,0,0,0-.75-1.55.93.93,0,0,1,.21-1.16s.08.39.32.5c0,0-.4-.42.75-1.8h0c1.14,1.39.75,1.8.75,1.8.24-.11.32-.5.32-.5a.93.93,0,0,1,.21,1.16,1.89,1.89,0,0,0-.75,1.55c.11.91.45.08.45.08A1.19,1.19,0,0,1,444.8,3c-.11.25.24.61.24.61a1.14,1.14,0,0,1,1.84.58c-1.78-.67-1.7.8-1.7.8s.21,1.11-.85,1.11c-1.44,0-1.14,2.74-1.14,2.74S443,8.93,442.85,8.79Z"/><path class="cls-1" d="M436.75,15.48s-2.63-.3-2.63,1.19a.84.84,0,0,1-1.07.89s-1.41-.08-.77,1.77a1.21,1.21,0,0,1-.56-1.91s-.35-.36-.59-.25a1.16,1.16,0,0,1,1.33-.83s.8-.36-.08-.47a1.79,1.79,0,0,0-1.49.78.84.84,0,0,1-1.12-.22s.37-.08.48-.33c0,0-.4.42-1.73-.78h0c1.33-1.19,1.73-.78,1.73-.78-.11-.25-.48-.33-.48-.33a.84.84,0,0,1,1.12-.22,1.79,1.79,0,0,0,1.49.78c.88-.11.08-.47.08-.47a1.16,1.16,0,0,1-1.33-.83c.24.11.59-.25.59-.25a1.21,1.21,0,0,1,.56-1.91c-.64,1.86.77,1.77.77,1.77a.84.84,0,0,1,1.06.89c0,1.5,2.64,1.19,2.64,1.19S436.88,15.35,436.75,15.48Z"/><path class="cls-1" d="M443.17,21.83s-.29,2.74,1.14,2.74c1.06,0,.85,1.11.85,1.11s-.08,1.47,1.7.8a1.14,1.14,0,0,1-1.84.58s-.35.36-.24.61a1.19,1.19,0,0,1-.8-1.39s-.35-.83-.45.08a1.89,1.89,0,0,0,.75,1.55.93.93,0,0,1-.21,1.16s-.08-.39-.32-.5c0,0,.4.42-.75,1.8h0c-1.14-1.39-.75-1.8-.75-1.8-.24.11-.32.5-.32.5a.93.93,0,0,1-.21-1.16,1.89,1.89,0,0,0,.75-1.55c-.11-.92-.45-.08-.45-.08a1.19,1.19,0,0,1-.8,1.39c.11-.25-.24-.61-.24-.61a1.14,1.14,0,0,1-1.84-.58c1.78.67,1.7-.8,1.7-.8s-.21-1.11.85-1.11c1.44,0,1.15-2.74,1.15-2.74S443,21.69,443.17,21.83Z"/><path class="cls-1" d="M449.27,15.14s2.64.31,2.64-1.19a.84.84,0,0,1,1.06-.89s1.41.08.77-1.77a1.21,1.21,0,0,1,.56,1.91s.35.36.59.25a1.16,1.16,0,0,1-1.33.83s-.8.36.08.47a1.79,1.79,0,0,0,1.49-.78.84.84,0,0,1,1.12.22s-.37.08-.48.33c0,0,.4-.42,1.73.78h0c-1.33,1.19-1.73.78-1.73.78.11.25.48.33.48.33a.84.84,0,0,1-1.12.22,1.78,1.78,0,0,0-1.49-.78c-.88.11-.08.47-.08.47a1.16,1.16,0,0,1,1.33.83c-.24-.11-.59.25-.59.25a1.21,1.21,0,0,1-.56,1.91c.64-1.86-.77-1.77-.77-1.77a.84.84,0,0,1-1.06-.89c0-1.5-2.64-1.19-2.64-1.19S449.14,15.27,449.27,15.14Z"/><path class="cls-1" d="M439.62,10.07a.58.58,0,0,1,0,.62,2.22,2.22,0,0,0-1.43-1.84c-.34,0-.09.63-.09.63A2.49,2.49,0,0,0,436,8.09a2.62,2.62,0,0,0,1.33,2.19s-.63-.26-.6.09a2.19,2.19,0,0,0,1.77,1.49.53.53,0,0,1-.59,0,1.43,1.43,0,0,0,.78,1.09.83.83,0,0,0,1.29-.26.62.62,0,0,1,0-.1.28.28,0,0,1,0,.1,2,2,0,0,0,.61,1.38c.6.7,1,0,1,0a4.77,4.77,0,0,1,.4.48l.17-.17a4.66,4.66,0,0,1-.47-.41s.69-.42,0-1.05a1.82,1.82,0,0,0-1.32-.63l-.09,0h.1c.28-.09.67-.62.25-1.35S439.62,10.07,439.62,10.07Z"/><path class="cls-1" d="M438,18.86a.52.52,0,0,1,.59,0,2.19,2.19,0,0,0-1.77,1.49c0,.35.6.09.6.09a2.62,2.62,0,0,0-1.33,2.19,2.49,2.49,0,0,0,2.1-1.38s-.25.65.09.63A2.22,2.22,0,0,0,439.69,20a.58.58,0,0,1,0,.62s.58,0,1.05-.81,0-1.26-.25-1.35h0a1.84,1.84,0,0,0,1.32-.63c.67-.63,0-1,0-1a4.72,4.72,0,0,1,.47-.41l-.17-.17a4.72,4.72,0,0,1-.4.49s-.4-.72-1,0A2,2,0,0,0,440,18a.26.26,0,0,1,0,.1.68.68,0,0,1,0-.1c-.09-.29-.6-.7-1.29-.26A1.43,1.43,0,0,0,438,18.86Z"/><path class="cls-1" d="M446.42,20.57a.58.58,0,0,1,0-.62,2.22,2.22,0,0,0,1.43,1.84c.34,0,.09-.63.09-.63a2.49,2.49,0,0,0,2.1,1.38,2.62,2.62,0,0,0-1.33-2.19s.63.26.6-.09a2.19,2.19,0,0,0-1.77-1.49.52.52,0,0,1,.59,0,1.43,1.43,0,0,0-.78-1.09c-.7-.44-1.21,0-1.29.26a.6.6,0,0,1,0,.1.27.27,0,0,1,0-.1,2,2,0,0,0-.61-1.38c-.6-.7-1,0-1,0a4.79,4.79,0,0,1-.4-.48l-.17.17a4.71,4.71,0,0,1,.47.41s-.69.42,0,1.05a1.82,1.82,0,0,0,1.32.63l.09,0h-.1c-.28.09-.67.62-.25,1.35S446.42,20.57,446.42,20.57Z"/><path class="cls-1" d="M448.06,11.78a.53.53,0,0,1-.59,0,2.19,2.19,0,0,0,1.77-1.49c0-.35-.6-.09-.6-.09A2.62,2.62,0,0,0,450,8a2.48,2.48,0,0,0-2.1,1.38s.25-.65-.09-.63a2.22,2.22,0,0,0-1.43,1.84.58.58,0,0,1,0-.62s-.58,0-1.05.81,0,1.26.25,1.35h0a1.84,1.84,0,0,0-1.32.63c-.67.63,0,1,0,1a4.74,4.74,0,0,1-.47.41l.17.17a4.85,4.85,0,0,1,.4-.48s.41.72,1,0a2,2,0,0,0,.6-1.37.27.27,0,0,1,0-.1.7.7,0,0,1,0,.1c.09.29.6.7,1.29.26A1.42,1.42,0,0,0,448.06,11.78Z"/><ellipse class="cls-1" cx="450.03" cy="22.62" rx="0.52" ry="0.54"/><ellipse class="cls-1" cx="450.03" cy="8.01" rx="0.52" ry="0.54"/><ellipse class="cls-1" cx="436" cy="8.01" rx="0.52" ry="0.54"/><ellipse class="cls-1" cx="436" cy="22.62" rx="0.52" ry="0.54"/><ellipse class="cls-1" cx="443.06" cy="15.36" rx="1.2" ry="1.25"/><path class="cls-1" d="M550,8.74S550.27,6,548.83,6c-1.06,0-.85-1.11-.85-1.11s.08-1.47-1.7-.8a1.14,1.14,0,0,1,1.84-.58s.35-.36.24-.61a1.19,1.19,0,0,1,.8,1.39s.35.83.45-.08a1.89,1.89,0,0,0-.75-1.55.93.93,0,0,1,.21-1.16s.08.39.32.5c0,0-.4-.42.75-1.8h0c1.14,1.39.75,1.8.75,1.8.24-.11.32-.5.32-.5a.93.93,0,0,1,.21,1.16,1.89,1.89,0,0,0-.75,1.55c.11.91.45.08.45.08a1.19,1.19,0,0,1,.8-1.39c-.11.25.24.61.24.61a1.14,1.14,0,0,1,1.84.58c-1.78-.67-1.7.8-1.7.8S552.51,6,551.45,6c-1.44,0-1.14,2.74-1.14,2.74S550.11,8.87,550,8.74Z"/><path class="cls-1" d="M543.88,15.42s-2.63-.3-2.63,1.19a.84.84,0,0,1-1.07.89s-1.41-.08-.77,1.77a1.21,1.21,0,0,1-.56-1.91s-.35-.36-.59-.25a1.16,1.16,0,0,1,1.33-.83s.8-.36-.08-.47a1.79,1.79,0,0,0-1.49.78.84.84,0,0,1-1.12-.22s.37-.08.48-.33c0,0-.4.42-1.73-.78h0c1.33-1.19,1.73-.78,1.73-.78-.11-.25-.48-.33-.48-.33a.84.84,0,0,1,1.12-.22,1.79,1.79,0,0,0,1.49.78c.88-.11.08-.47.08-.47a1.16,1.16,0,0,1-1.33-.83c.24.11.59-.25.59-.25a1.21,1.21,0,0,1,.56-1.91c-.64,1.86.77,1.77.77,1.77a.84.84,0,0,1,1.06.89c0,1.5,2.64,1.19,2.64,1.19S544,15.29,543.88,15.42Z"/><path class="cls-1" d="M550.31,21.77s-.29,2.74,1.14,2.74c1.06,0,.85,1.11.85,1.11s-.08,1.47,1.7.8a1.14,1.14,0,0,1-1.84.58s-.35.36-.24.61a1.19,1.19,0,0,1-.8-1.39s-.35-.83-.45.08a1.89,1.89,0,0,0,.75,1.55.93.93,0,0,1-.21,1.16s-.08-.39-.32-.5c0,0,.4.42-.75,1.8h0c-1.14-1.39-.75-1.8-.75-1.8-.24.11-.32.5-.32.5a.93.93,0,0,1-.21-1.16,1.89,1.89,0,0,0,.75-1.55c-.11-.92-.45-.08-.45-.08a1.19,1.19,0,0,1-.8,1.39c.11-.25-.24-.61-.24-.61a1.14,1.14,0,0,1-1.84-.58c1.78.67,1.7-.8,1.7-.8s-.21-1.11.85-1.11c1.44,0,1.15-2.74,1.15-2.74S550.18,21.63,550.31,21.77Z"/><path class="cls-1" d="M556.4,15.08s2.64.31,2.64-1.19A.84.84,0,0,1,560.1,13s1.41.08.77-1.77a1.21,1.21,0,0,1,.56,1.91s.35.36.59.25a1.16,1.16,0,0,1-1.33.83s-.8.36.08.47a1.79,1.79,0,0,0,1.49-.78.84.84,0,0,1,1.12.22s-.37.08-.48.33c0,0,.4-.42,1.73.78h0c-1.33,1.19-1.73.78-1.73.78.11.25.48.33.48.33a.84.84,0,0,1-1.12.22,1.78,1.78,0,0,0-1.49-.78c-.88.11-.08.47-.08.47a1.16,1.16,0,0,1,1.33.83c-.24-.11-.59.25-.59.25a1.21,1.21,0,0,1-.56,1.91c.64-1.86-.77-1.77-.77-1.77a.84.84,0,0,1-1.06-.89c0-1.5-2.64-1.19-2.64-1.19S556.27,15.22,556.4,15.08Z"/><path class="cls-1" d="M546.75,10a.58.58,0,0,1,0,.62,2.22,2.22,0,0,0-1.43-1.84c-.34,0-.09.63-.09.63A2.49,2.49,0,0,0,543.16,8a2.62,2.62,0,0,0,1.33,2.19s-.63-.26-.6.09a2.19,2.19,0,0,0,1.77,1.49.53.53,0,0,1-.59,0,1.43,1.43,0,0,0,.78,1.09.83.83,0,0,0,1.29-.26.62.62,0,0,1,0-.1.28.28,0,0,1,0,.1,2,2,0,0,0,.61,1.38c.6.7,1,0,1,0a4.77,4.77,0,0,1,.4.48l.17-.17a4.66,4.66,0,0,1-.47-.41s.69-.42,0-1.05a1.82,1.82,0,0,0-1.32-.63l-.09,0h.1c.28-.09.67-.62.25-1.35S546.75,10,546.75,10Z"/><path class="cls-1" d="M545.11,18.8a.52.52,0,0,1,.59,0,2.19,2.19,0,0,0-1.77,1.49c0,.35.6.09.6.09a2.62,2.62,0,0,0-1.33,2.19,2.49,2.49,0,0,0,2.1-1.38s-.25.65.09.63a2.22,2.22,0,0,0,1.43-1.84.58.58,0,0,1,0,.62s.58,0,1.05-.81,0-1.26-.25-1.35h0a1.84,1.84,0,0,0,1.32-.63c.67-.63,0-1,0-1a4.72,4.72,0,0,1,.47-.41l-.17-.17a4.72,4.72,0,0,1-.4.49s-.4-.72-1,0a2,2,0,0,0-.6,1.37.26.26,0,0,1,0,.1.68.68,0,0,1,0-.1c-.09-.29-.6-.7-1.29-.26A1.43,1.43,0,0,0,545.11,18.8Z"/><path class="cls-1" d="M553.55,20.51a.58.58,0,0,1,0-.62,2.22,2.22,0,0,0,1.43,1.84c.34,0,.09-.63.09-.63a2.49,2.49,0,0,0,2.1,1.38,2.62,2.62,0,0,0-1.33-2.19s.63.26.6-.09a2.19,2.19,0,0,0-1.77-1.49.52.52,0,0,1,.59,0,1.43,1.43,0,0,0-.78-1.09c-.7-.44-1.21,0-1.29.26a.6.6,0,0,1,0,.1.27.27,0,0,1,0-.1,2,2,0,0,0-.61-1.38c-.6-.7-1,0-1,0a4.79,4.79,0,0,1-.4-.48l-.17.17a4.71,4.71,0,0,1,.47.41s-.69.42,0,1.05a1.82,1.82,0,0,0,1.32.63l.09,0h-.1c-.28.09-.67.62-.25,1.35S553.55,20.51,553.55,20.51Z"/><path class="cls-1" d="M555.19,11.72a.53.53,0,0,1-.59,0,2.19,2.19,0,0,0,1.77-1.49c0-.35-.6-.09-.6-.09A2.62,2.62,0,0,0,557.09,8,2.48,2.48,0,0,0,555,9.37s.25-.65-.09-.63a2.22,2.22,0,0,0-1.43,1.84.58.58,0,0,1,0-.62s-.58,0-1.05.81,0,1.26.25,1.35h0a1.84,1.84,0,0,0-1.32.63c-.67.63,0,1,0,1a4.74,4.74,0,0,1-.47.41l.17.17a4.85,4.85,0,0,1,.4-.48s.41.72,1,0a2,2,0,0,0,.6-1.37.27.27,0,0,1,0-.1.7.7,0,0,1,0,.1c.09.29.6.7,1.29.26A1.42,1.42,0,0,0,555.19,11.72Z"/><ellipse class="cls-1" cx="557.16" cy="22.57" rx="0.52" ry="0.54"/><ellipse class="cls-1" cx="557.16" cy="7.96" rx="0.52" ry="0.54"/><ellipse class="cls-1" cx="543.13" cy="7.96" rx="0.52" ry="0.54"/><ellipse class="cls-1" cx="543.13" cy="22.57" rx="0.52" ry="0.54"/><ellipse class="cls-1" cx="550.19" cy="15.3" rx="1.2" ry="1.25"/><path class="cls-1" d="M657.11,8.68s.29-2.74-1.14-2.74c-1.06,0-.85-1.11-.85-1.11s.08-1.47-1.7-.8a1.14,1.14,0,0,1,1.84-.58s.35-.36.24-.61a1.19,1.19,0,0,1,.8,1.39s.35.83.45-.08A1.89,1.89,0,0,0,656,2.58a.93.93,0,0,1,.21-1.16s.08.39.32.5c0,0-.4-.42.75-1.8h0c1.14,1.39.75,1.8.75,1.8.24-.11.32-.5.32-.5a.93.93,0,0,1,.21,1.16,1.89,1.89,0,0,0-.75,1.55c.11.91.45.08.45.08a1.19,1.19,0,0,1,.8-1.39c-.11.25.24.61.24.61a1.14,1.14,0,0,1,1.84.58c-1.78-.67-1.7.8-1.7.8s.21,1.11-.85,1.11c-1.44,0-1.14,2.74-1.14,2.74S657.24,8.82,657.11,8.68Z"/><path class="cls-1" d="M651,15.37s-2.63-.3-2.63,1.19a.84.84,0,0,1-1.07.89s-1.41-.08-.77,1.77a1.21,1.21,0,0,1-.56-1.91s-.35-.36-.59-.25a1.16,1.16,0,0,1,1.33-.83s.8-.36-.08-.47a1.79,1.79,0,0,0-1.49.78.84.84,0,0,1-1.12-.22s.37-.08.48-.33c0,0-.4.42-1.73-.78h0c1.33-1.19,1.73-.78,1.73-.78-.11-.25-.48-.33-.48-.33a.84.84,0,0,1,1.12-.22,1.79,1.79,0,0,0,1.49.78c.88-.11.08-.47.08-.47a1.16,1.16,0,0,1-1.33-.83c.24.11.59-.25.59-.25a1.21,1.21,0,0,1,.56-1.91c-.64,1.86.77,1.77.77,1.77a.84.84,0,0,1,1.06.89c0,1.5,2.64,1.19,2.64,1.19S651.15,15.24,651,15.37Z"/><path class="cls-1" d="M657.44,21.72s-.29,2.74,1.14,2.74c1.06,0,.85,1.11.85,1.11s-.08,1.47,1.7.8a1.14,1.14,0,0,1-1.84.58s-.35.36-.24.61a1.19,1.19,0,0,1-.8-1.39s-.35-.83-.45.08a1.89,1.89,0,0,0,.75,1.55.93.93,0,0,1-.21,1.16s-.08-.39-.32-.5c0,0,.4.42-.75,1.8h0c-1.14-1.39-.75-1.8-.75-1.8-.24.11-.32.5-.32.5A.93.93,0,0,1,656,27.8a1.89,1.89,0,0,0,.75-1.55c-.11-.92-.45-.08-.45-.08a1.19,1.19,0,0,1-.8,1.39c.11-.25-.24-.61-.24-.61a1.14,1.14,0,0,1-1.84-.58c1.78.67,1.7-.8,1.7-.8s-.21-1.11.85-1.11c1.44,0,1.15-2.74,1.15-2.74S657.31,21.58,657.44,21.72Z"/><path class="cls-1" d="M663.53,15s2.64.31,2.64-1.19a.84.84,0,0,1,1.06-.89s1.41.08.77-1.77a1.21,1.21,0,0,1,.56,1.91s.35.36.59.25a1.16,1.16,0,0,1-1.33.83s-.8.36.08.47a1.79,1.79,0,0,0,1.49-.78.84.84,0,0,1,1.12.22s-.37.08-.48.33c0,0,.4-.42,1.73.78h0C670.42,16.39,670,16,670,16c.11.25.48.33.48.33a.84.84,0,0,1-1.12.22,1.78,1.78,0,0,0-1.49-.78c-.88.11-.08.47-.08.47a1.16,1.16,0,0,1,1.33.83c-.24-.11-.59.25-.59.25a1.21,1.21,0,0,1-.56,1.91c.64-1.86-.77-1.77-.77-1.77a.84.84,0,0,1-1.06-.89c0-1.5-2.64-1.19-2.64-1.19S663.4,15.16,663.53,15Z"/><path class="cls-1" d="M653.88,10a.58.58,0,0,1,0,.62,2.22,2.22,0,0,0-1.43-1.84c-.34,0-.09.63-.09.63A2.49,2.49,0,0,0,650.29,8a2.62,2.62,0,0,0,1.33,2.19s-.63-.26-.6.09a2.19,2.19,0,0,0,1.77,1.49.53.53,0,0,1-.59,0A1.43,1.43,0,0,0,653,12.8a.83.83,0,0,0,1.29-.26.62.62,0,0,1,0-.1.28.28,0,0,1,0,.1,2,2,0,0,0,.61,1.38c.6.7,1,0,1,0a4.77,4.77,0,0,1,.4.48l.17-.17a4.66,4.66,0,0,1-.47-.41s.69-.42,0-1.05a1.82,1.82,0,0,0-1.32-.63l-.09,0h.1c.28-.09.67-.62.25-1.35S653.88,10,653.88,10Z"/><path class="cls-1" d="M652.24,18.75a.52.52,0,0,1,.59,0,2.19,2.19,0,0,0-1.77,1.49c0,.35.6.09.6.09a2.62,2.62,0,0,0-1.33,2.19,2.49,2.49,0,0,0,2.1-1.38s-.25.65.09.63A2.22,2.22,0,0,0,654,19.88a.58.58,0,0,1,0,.62s.58,0,1.05-.81,0-1.26-.25-1.35h0a1.84,1.84,0,0,0,1.32-.63c.67-.63,0-1,0-1a4.72,4.72,0,0,1,.47-.41l-.17-.17a4.72,4.72,0,0,1-.4.49s-.4-.72-1,0a2,2,0,0,0-.6,1.37.26.26,0,0,1,0,.1.68.68,0,0,1,0-.1c-.09-.29-.6-.7-1.29-.26A1.43,1.43,0,0,0,652.24,18.75Z"/><path class="cls-1" d="M660.68,20.46a.58.58,0,0,1,0-.62,2.22,2.22,0,0,0,1.43,1.84c.34,0,.09-.63.09-.63a2.49,2.49,0,0,0,2.1,1.38,2.62,2.62,0,0,0-1.33-2.19s.63.26.6-.09a2.19,2.19,0,0,0-1.77-1.49.52.52,0,0,1,.59,0,1.43,1.43,0,0,0-.78-1.09c-.7-.44-1.21,0-1.29.26a.6.6,0,0,1,0,.1.27.27,0,0,1,0-.1,2,2,0,0,0-.61-1.38c-.6-.7-1,0-1,0a4.79,4.79,0,0,1-.4-.48l-.17.17a4.71,4.71,0,0,1,.47.41s-.69.42,0,1.05a1.82,1.82,0,0,0,1.32.63l.09,0h-.1c-.28.09-.67.62-.25,1.35S660.68,20.46,660.68,20.46Z"/><path class="cls-1" d="M662.32,11.66a.53.53,0,0,1-.59,0,2.19,2.19,0,0,0,1.77-1.49c0-.35-.6-.09-.6-.09a2.62,2.62,0,0,0,1.33-2.19,2.48,2.48,0,0,0-2.1,1.38s.25-.65-.09-.63a2.22,2.22,0,0,0-1.43,1.84.58.58,0,0,1,0-.62s-.58,0-1.05.81,0,1.26.25,1.35h0a1.84,1.84,0,0,0-1.32.63c-.67.63,0,1,0,1a4.74,4.74,0,0,1-.47.41l.17.17a4.85,4.85,0,0,1,.4-.48s.41.72,1,0a2,2,0,0,0,.6-1.37.27.27,0,0,1,0-.1.7.7,0,0,1,0,.1c.09.29.6.7,1.29.26A1.42,1.42,0,0,0,662.32,11.66Z"/><ellipse class="cls-1" cx="664.3" cy="22.51" rx="0.52" ry="0.54"/><ellipse class="cls-1" cx="664.3" cy="7.9" rx="0.52" ry="0.54"/><ellipse class="cls-1" cx="650.26" cy="7.9" rx="0.52" ry="0.54"/><ellipse class="cls-1" cx="650.26" cy="22.51" rx="0.52" ry="0.54"/><ellipse class="cls-1" cx="657.32" cy="15.25" rx="1.2" ry="1.25"/><path class="cls-1" d="M764.24,8.62s.29-2.74-1.14-2.74c-1.06,0-.85-1.11-.85-1.11s.08-1.47-1.7-.8a1.14,1.14,0,0,1,1.84-.58s.35-.36.24-.61a1.19,1.19,0,0,1,.8,1.39s.35.83.45-.08a1.89,1.89,0,0,0-.75-1.55.93.93,0,0,1,.21-1.16s.08.39.32.5c0,0-.4-.42.75-1.8h0c1.14,1.39.75,1.8.75,1.8.24-.11.32-.5.32-.5a.93.93,0,0,1,.21,1.16,1.89,1.89,0,0,0-.75,1.55c.11.91.45.08.45.08a1.19,1.19,0,0,1,.8-1.39c-.11.25.24.61.24.61a1.14,1.14,0,0,1,1.84.58c-1.78-.67-1.7.8-1.7.8s.21,1.11-.85,1.11c-1.44,0-1.14,2.74-1.14,2.74S764.37,8.76,764.24,8.62Z"/><path class="cls-1" d="M758.14,15.31s-2.63-.3-2.63,1.19a.84.84,0,0,1-1.07.89s-1.41-.08-.77,1.77a1.21,1.21,0,0,1-.56-1.91s-.35-.36-.59-.25a1.16,1.16,0,0,1,1.33-.83s.8-.36-.08-.47a1.79,1.79,0,0,0-1.49.78.84.84,0,0,1-1.12-.22s.37-.08.48-.33c0,0-.4.42-1.73-.78h0c1.33-1.19,1.73-.78,1.73-.78-.11-.25-.48-.33-.48-.33a.84.84,0,0,1,1.12-.22,1.79,1.79,0,0,0,1.49.78c.88-.11.08-.47.08-.47a1.16,1.16,0,0,1-1.33-.83c.24.11.59-.25.59-.25a1.21,1.21,0,0,1,.56-1.91c-.64,1.86.77,1.77.77,1.77a.84.84,0,0,1,1.06.89c0,1.5,2.64,1.19,2.64,1.19S758.28,15.18,758.14,15.31Z"/><path class="cls-1" d="M764.57,21.66s-.29,2.74,1.14,2.74c1.06,0,.85,1.11.85,1.11s-.08,1.47,1.7.8a1.14,1.14,0,0,1-1.84.58s-.35.36-.24.61a1.19,1.19,0,0,1-.8-1.39s-.35-.83-.45.08a1.89,1.89,0,0,0,.75,1.55.93.93,0,0,1-.21,1.16s-.08-.39-.32-.5c0,0,.4.42-.75,1.8h0c-1.14-1.39-.75-1.8-.75-1.8-.24.11-.32.5-.32.5a.93.93,0,0,1-.21-1.16,1.89,1.89,0,0,0,.75-1.55c-.11-.92-.45-.08-.45-.08a1.19,1.19,0,0,1-.8,1.39c.11-.25-.24-.61-.24-.61a1.14,1.14,0,0,1-1.84-.58c1.78.67,1.7-.8,1.7-.8s-.21-1.11.85-1.11c1.44,0,1.15-2.74,1.15-2.74S764.44,21.52,764.57,21.66Z"/><path class="cls-1" d="M770.66,15s2.64.31,2.64-1.19a.84.84,0,0,1,1.06-.89s1.41.08.77-1.77A1.21,1.21,0,0,1,775.7,13s.35.36.59.25a1.16,1.16,0,0,1-1.33.83s-.8.36.08.47a1.79,1.79,0,0,0,1.49-.78.84.84,0,0,1,1.12.22s-.37.08-.48.33c0,0,.4-.42,1.73.78h0c-1.33,1.19-1.73.78-1.73.78.11.25.48.33.48.33a.84.84,0,0,1-1.12.22A1.78,1.78,0,0,0,775,15.7c-.88.11-.08.47-.08.47a1.16,1.16,0,0,1,1.33.83c-.24-.11-.59.25-.59.25a1.21,1.21,0,0,1-.56,1.91c.64-1.86-.77-1.77-.77-1.77a.84.84,0,0,1-1.06-.89c0-1.5-2.64-1.19-2.64-1.19S770.53,15.1,770.66,15Z"/><path class="cls-1" d="M761,9.9a.58.58,0,0,1,0,.62,2.22,2.22,0,0,0-1.43-1.84c-.34,0-.09.63-.09.63a2.49,2.49,0,0,0-2.1-1.38,2.62,2.62,0,0,0,1.33,2.19s-.63-.26-.6.09a2.19,2.19,0,0,0,1.77,1.49.53.53,0,0,1-.59,0,1.43,1.43,0,0,0,.78,1.09.83.83,0,0,0,1.29-.26.62.62,0,0,1,0-.1.28.28,0,0,1,0,.1,2,2,0,0,0,.61,1.38c.6.7,1,0,1,0a4.77,4.77,0,0,1,.4.48l.17-.17a4.66,4.66,0,0,1-.47-.41s.69-.42,0-1.05a1.82,1.82,0,0,0-1.32-.63l-.09,0h.1c.28-.09.67-.62.25-1.35S761,9.9,761,9.9Z"/><path class="cls-1" d="M759.37,18.69a.52.52,0,0,1,.59,0,2.19,2.19,0,0,0-1.77,1.49c0,.35.6.09.6.09a2.62,2.62,0,0,0-1.33,2.19,2.49,2.49,0,0,0,2.1-1.38s-.25.65.09.63a2.22,2.22,0,0,0,1.43-1.84.58.58,0,0,1,0,.62s.58,0,1.05-.81,0-1.26-.25-1.35h0a1.84,1.84,0,0,0,1.32-.63c.67-.63,0-1,0-1a4.72,4.72,0,0,1,.47-.41l-.17-.17a4.72,4.72,0,0,1-.4.49s-.4-.72-1,0a2,2,0,0,0-.6,1.37.26.26,0,0,1,0,.1.68.68,0,0,1,0-.1c-.09-.29-.6-.7-1.29-.26A1.43,1.43,0,0,0,759.37,18.69Z"/><path class="cls-1" d="M767.81,20.4a.58.58,0,0,1,0-.62,2.22,2.22,0,0,0,1.43,1.84c.34,0,.09-.63.09-.63a2.49,2.49,0,0,0,2.1,1.38,2.62,2.62,0,0,0-1.33-2.19s.63.26.6-.09a2.19,2.19,0,0,0-1.77-1.49.52.52,0,0,1,.59,0,1.43,1.43,0,0,0-.78-1.09c-.7-.44-1.21,0-1.29.26a.6.6,0,0,1,0,.1.27.27,0,0,1,0-.1,2,2,0,0,0-.61-1.38c-.6-.7-1,0-1,0a4.79,4.79,0,0,1-.4-.48l-.17.17a4.71,4.71,0,0,1,.47.41s-.69.42,0,1.05a1.82,1.82,0,0,0,1.32.63l.09,0H767c-.28.09-.67.62-.25,1.35S767.81,20.4,767.81,20.4Z"/><path class="cls-1" d="M769.45,11.61a.53.53,0,0,1-.59,0,2.19,2.19,0,0,0,1.77-1.49c0-.35-.6-.09-.6-.09a2.62,2.62,0,0,0,1.33-2.19,2.48,2.48,0,0,0-2.1,1.38s.25-.65-.09-.63a2.22,2.22,0,0,0-1.43,1.84.58.58,0,0,1,0-.62s-.58,0-1.05.81,0,1.26.25,1.35h0a1.84,1.84,0,0,0-1.32.63c-.67.63,0,1,0,1a4.74,4.74,0,0,1-.47.41l.17.17a4.85,4.85,0,0,1,.4-.48s.41.72,1,0a2,2,0,0,0,.6-1.37.27.27,0,0,1,0-.1.7.7,0,0,1,0,.1c.09.29.6.7,1.29.26A1.42,1.42,0,0,0,769.45,11.61Z"/><ellipse class="cls-1" cx="771.43" cy="22.45" rx="0.52" ry="0.54"/><ellipse class="cls-1" cx="771.43" cy="7.84" rx="0.52" ry="0.54"/><ellipse class="cls-1" cx="757.39" cy="7.84" rx="0.52" ry="0.54"/><ellipse class="cls-1" cx="757.39" cy="22.45" rx="0.52" ry="0.54"/><ellipse class="cls-1" cx="764.45" cy="15.19" rx="1.2" ry="1.25"/><path class="cls-1" d="M871.37,8.57s.29-2.74-1.14-2.74c-1.06,0-.85-1.11-.85-1.11s.08-1.47-1.7-.8a1.14,1.14,0,0,1,1.84-.58s.35-.36.24-.61a1.19,1.19,0,0,1,.8,1.39s.35.83.45-.08a1.89,1.89,0,0,0-.75-1.55.93.93,0,0,1,.21-1.16s.08.39.32.5c0,0-.4-.42.75-1.8h0c1.14,1.39.75,1.8.75,1.8.24-.11.32-.5.32-.5a.93.93,0,0,1,.21,1.16A1.89,1.89,0,0,0,872.07,4c.11.91.45.08.45.08a1.19,1.19,0,0,1,.8-1.39c-.11.25.24.61.24.61a1.14,1.14,0,0,1,1.84.58c-1.78-.67-1.7.8-1.7.8s.21,1.11-.85,1.11c-1.44,0-1.14,2.74-1.14,2.74S871.5,8.7,871.37,8.57Z"/><path class="cls-1" d="M865.27,15.25s-2.63-.3-2.63,1.19a.84.84,0,0,1-1.07.89s-1.41-.08-.77,1.77a1.21,1.21,0,0,1-.56-1.91s-.35-.36-.59-.25a1.16,1.16,0,0,1,1.33-.83s.8-.36-.08-.47a1.79,1.79,0,0,0-1.49.78.84.84,0,0,1-1.12-.22s.37-.08.48-.33c0,0-.4.42-1.73-.78h0c1.33-1.19,1.73-.78,1.73-.78-.11-.25-.48-.33-.48-.33a.84.84,0,0,1,1.12-.22,1.79,1.79,0,0,0,1.49.78c.88-.11.08-.47.08-.47a1.16,1.16,0,0,1-1.33-.83c.24.11.59-.25.59-.25a1.21,1.21,0,0,1,.56-1.91c-.64,1.86.77,1.77.77,1.77a.84.84,0,0,1,1.06.89c0,1.5,2.64,1.19,2.64,1.19S865.41,15.12,865.27,15.25Z"/><path class="cls-1" d="M871.7,21.6s-.29,2.74,1.14,2.74c1.06,0,.85,1.11.85,1.11s-.08,1.47,1.7.8a1.14,1.14,0,0,1-1.84.58s-.35.36-.24.61a1.19,1.19,0,0,1-.8-1.39s-.35-.83-.45.08a1.89,1.89,0,0,0,.75,1.55.93.93,0,0,1-.21,1.16s-.08-.39-.32-.5c0,0,.4.42-.75,1.8h0c-1.14-1.39-.75-1.8-.75-1.8-.24.11-.32.5-.32.5a.93.93,0,0,1-.21-1.16,1.89,1.89,0,0,0,.75-1.55c-.11-.92-.45-.08-.45-.08a1.19,1.19,0,0,1-.8,1.39c.11-.25-.24-.61-.24-.61a1.14,1.14,0,0,1-1.84-.58c1.78.67,1.7-.8,1.7-.8s-.21-1.11.85-1.11c1.44,0,1.15-2.74,1.15-2.74S871.57,21.46,871.7,21.6Z"/><path class="cls-1" d="M877.8,14.91s2.64.31,2.64-1.19a.84.84,0,0,1,1.06-.89s1.41.08.77-1.77a1.21,1.21,0,0,1,.56,1.91s.35.36.59.25a1.16,1.16,0,0,1-1.33.83s-.8.36.08.47a1.79,1.79,0,0,0,1.49-.78.84.84,0,0,1,1.12.22s-.37.08-.48.33c0,0,.4-.42,1.73.78h0c-1.33,1.19-1.73.78-1.73.78.11.25.48.33.48.33a.84.84,0,0,1-1.12.22,1.78,1.78,0,0,0-1.49-.78c-.88.11-.08.47-.08.47a1.16,1.16,0,0,1,1.33.83c-.24-.11-.59.25-.59.25a1.21,1.21,0,0,1-.56,1.91c.64-1.86-.77-1.77-.77-1.77a.84.84,0,0,1-1.06-.89c0-1.5-2.64-1.19-2.64-1.19S877.66,15,877.8,14.91Z"/><path class="cls-1" d="M868.14,9.84a.58.58,0,0,1,0,.62,2.22,2.22,0,0,0-1.43-1.84c-.34,0-.09.63-.09.63a2.49,2.49,0,0,0-2.1-1.38A2.62,2.62,0,0,0,865.88,10s-.63-.26-.6.09A2.19,2.19,0,0,0,867,11.63a.53.53,0,0,1-.59,0,1.43,1.43,0,0,0,.78,1.09.83.83,0,0,0,1.29-.26.62.62,0,0,1,0-.1.28.28,0,0,1,0,.1,2,2,0,0,0,.61,1.38c.6.7,1,0,1,0a4.77,4.77,0,0,1,.4.48l.17-.17a4.66,4.66,0,0,1-.47-.41s.69-.42,0-1.05a1.82,1.82,0,0,0-1.32-.63l-.09,0h.1c.28-.09.67-.62.25-1.35S868.14,9.84,868.14,9.84Z"/><path class="cls-1" d="M866.5,18.63a.52.52,0,0,1,.59,0,2.19,2.19,0,0,0-1.77,1.49c0,.35.6.09.6.09a2.62,2.62,0,0,0-1.33,2.19A2.49,2.49,0,0,0,866.7,21s-.25.65.09.63a2.22,2.22,0,0,0,1.43-1.84.58.58,0,0,1,0,.62s.58,0,1.05-.81,0-1.26-.25-1.35h0a1.84,1.84,0,0,0,1.32-.63c.67-.63,0-1,0-1a4.72,4.72,0,0,1,.47-.41l-.17-.17a4.72,4.72,0,0,1-.4.49s-.4-.72-1,0a2,2,0,0,0-.6,1.37.26.26,0,0,1,0,.1.68.68,0,0,1,0-.1c-.09-.29-.6-.7-1.29-.26A1.43,1.43,0,0,0,866.5,18.63Z"/><path class="cls-1" d="M874.94,20.34a.58.58,0,0,1,0-.62,2.22,2.22,0,0,0,1.43,1.84c.34,0,.09-.63.09-.63a2.49,2.49,0,0,0,2.1,1.38,2.62,2.62,0,0,0-1.33-2.19s.63.26.6-.09A2.19,2.19,0,0,0,876,18.55a.52.52,0,0,1,.59,0,1.43,1.43,0,0,0-.78-1.09c-.7-.44-1.21,0-1.29.26a.6.6,0,0,1,0,.1.27.27,0,0,1,0-.1,2,2,0,0,0-.61-1.38c-.6-.7-1,0-1,0a4.79,4.79,0,0,1-.4-.48l-.17.17a4.71,4.71,0,0,1,.47.41s-.69.42,0,1.05a1.82,1.82,0,0,0,1.32.63l.09,0h-.1c-.28.09-.67.62-.25,1.35S874.94,20.34,874.94,20.34Z"/><path class="cls-1" d="M876.58,11.55a.53.53,0,0,1-.59,0,2.19,2.19,0,0,0,1.77-1.49c0-.35-.6-.09-.6-.09a2.62,2.62,0,0,0,1.33-2.19,2.48,2.48,0,0,0-2.1,1.38s.25-.65-.09-.63a2.22,2.22,0,0,0-1.43,1.84.58.58,0,0,1,0-.62s-.58,0-1.05.81,0,1.26.25,1.35h0a1.84,1.84,0,0,0-1.32.63c-.67.63,0,1,0,1a4.74,4.74,0,0,1-.47.41l.17.17a4.85,4.85,0,0,1,.4-.48s.41.72,1,0a2,2,0,0,0,.6-1.37.27.27,0,0,1,0-.1.7.7,0,0,1,0,.1c.09.29.6.7,1.29.26A1.42,1.42,0,0,0,876.58,11.55Z"/><ellipse class="cls-1" cx="878.56" cy="22.4" rx="0.52" ry="0.54"/><ellipse class="cls-1" cx="878.56" cy="7.79" rx="0.52" ry="0.54"/><ellipse class="cls-1" cx="864.53" cy="7.79" rx="0.52" ry="0.54"/><ellipse class="cls-1" cx="864.53" cy="22.4" rx="0.52" ry="0.54"/><ellipse class="cls-1" cx="871.58" cy="15.13" rx="1.2" ry="1.25"/></g></g></svg>