<svg xmlns="http://www.w3.org/2000/svg" viewBox="0 0 1119.14 36.24"><defs><style>.cls-1{fill:#3dbfe0;}.cls-2{fill:#fff;}</style></defs><title>Calle_ornamento_Barra</title><g id="Layer_2" data-name="Layer 2"><g id="ornamentos"><path class="cls-1" d="M1119.14,27.06l-.06-3.42c-.86-.6-1.05,0-1.62,0a1,1,0,1,1,.36-1.93V13.11a5.06,5.06,0,0,0-.55,1.3,1,1,0,0,1-.31,1.65.91.91,0,0,1,.27.67,20.35,20.35,0,0,0,.14,3.11,1,1,0,0,1-.7,1.23,1,1,0,0,1-1.23-.7,21.11,21.11,0,0,1-.21-3,1,1,0,0,1-1.78-.6,2.76,2.76,0,0,0-.22-1.45c-.59-1,.72-1.89,1.48-1.29a.92.92,0,0,1,.54,0h.06a6.7,6.7,0,0,1,1.12-2.39,1,1,0,0,1,1.37-.36l0,0c0-3,0-5.91,0-8.83-.42-.42-.62-.73-.91-.87a2.19,2.19,0,0,0-.95-.13L653.76,2l-2.21-2h-3.94l-2.11,2h-4l-2.2-2c-2,.13-4.19-.67-5.59,1.81l-50.86.07L581.23.25,579.12,2,577,.15l-22,0-2.12,1.93L551.42.68a7,7,0,0,0-1.79-.51c-3.67,0-7.34,0-10.83,0L537,2,535,.46c-3.66-.17-3.66-.17-6.17,1.64l-50.34.07-2-1.83-2.12,1.92c-2.09.76-2.82-1.31-4-1.92L432,.39l-1.72,1.72-22.12,0L404.89.08l-3.38,2.19h-3.63L395.78.38h-10l-2.06,1.9c-2,.66-2.95-.9-4.1-1.86l-1.78,1.78L375.67.52h-6l-2,1.74L365.56.41l-32.13,0L332,1.81a5.69,5.69,0,0,1-1.73.61c-10.39.05-20.79.05-31.12.07L297.66,1C295-.48,292.93.94,290.79,2.2L289.21.62,287.1,2.37,285,.51l-20.06,0-2.11,2h-2L259.38,1c-.27-.17-.53-.49-.8-.49-8,0-16.05,0-23.88,0l-1.81,1.82-30.14,0-3.07-2-4.43,2.43L192.16.63,136.06.7l-1.43,1.37a5.72,5.72,0,0,1-1.74.6c-11.74.05-23.47.06-35.14.07L96.27,1.26a7,7,0,0,0-1.8-.5c-19.1,0-38.2,0-57.13.05l-2,2-35,0L0,6.9H3.11C4.75,8.15,3.7,10,4.2,11.49A13.31,13.31,0,0,0,6.3,14.58L3.43,20.39l-.24.11a1.15,1.15,0,0,1,.29.71.84.84,0,0,1-.31.75c0,.11-.07.23-.1.34s0,.31,0,0a1.11,1.11,0,0,1-.7.92l2.08,1L.32,25.71c0,1.15,0,2.32,0,3.48a.61.61,0,0,1,.19.12A5.09,5.09,0,0,0,4.15,31c1.86-.07,1.37,2.39,0,2a19.83,19.83,0,0,1-3.8-1.5c0,.26,0,.53,0,.78l2.25,2.24a3,3,0,0,0,.78.55,3.46,3.46,0,0,0,1,0L577,34.35l2.12,1.88,2.11-1.75L583,36.16l20.53,0,1.72-1.72,46.35-.06,2.11,1.87h3.93l2.12-1.94,1.43,1.42a6.6,6.6,0,0,0,1.79.53c13.74,0,27.47,0,41.06,0l1.79-1.8,30.15,0c1.55,1,3.42,2.25,5.86,1.79l3.44-2.39,3.33,2.34,54-.07,1.51-1.38c2-1.28,4.4-.37,6.61-.57L812.8,36c2.23.81,2.85-1.48,4.88-2.14l3.57,2c1.5.28,3.81.85,5.45-1.76L828.88,36,1006,35.77l2.1-2,1.41,1.41a6.29,6.29,0,0,0,1.78.55c30.52,0,61-.06,91.35-.09l2.74-2.4a17.66,17.66,0,0,0,3.93,2.3c1.16.34,3.05.33,3.74-.38,1.27-1.3,2.83-1.4,4.18-1.92.25-.37.54-.63.57-.9C1118,30.57,1117.29,28.68,1119.14,27.06ZM6.54,10.15c.22-.22.5-.67.66-.63a6.27,6.27,0,0,1,1.35.63c-.22.22-.5.67-.66.63A6.23,6.23,0,0,1,6.54,10.15Zm1,19.13L6.85,28l.72-.72a6.29,6.29,0,0,1,.63,1.35C8.24,28.78,7.8,29.05,7.57,29.28ZM6.45,24.1,7,21.38a11.62,11.62,0,0,1,1.59.86c.75.59,1.43,1.25,2.14,1.88C9.2,25.69,7.87,25.69,6.45,24.1ZM20,10.78c-.48-.14-1.26-.44-1.27-.72A13.65,13.65,0,0,1,19,7.39l1.28.05c.12.9.29,1.79.32,2.69C20.61,10.35,20.11,10.82,20,10.78ZM25.33,25.9a1,1,0,0,1-2,.13,1,1,0,0,1,0-1.94V22.93a1,1,0,0,1,2,0Zm12.44-4.71-.72-.72.72-1.3c.22.22.67.5.63.66A6.29,6.29,0,0,1,37.77,21.18Zm6-4c-.22-.22-.67-.5-.63-.66a6.26,6.26,0,0,1,.63-1.35c.22.22.67.5.63.66A6.3,6.3,0,0,1,43.81,17.15Zm9.38,7.78-.39-2.87c1.61-.37,1.79-2.86,3.86-2.35,0,1.66,0,3.36,0,5.44Zm3.63-5.84c.28-1.3.38-2.31,1.9-1.13A5,5,0,0,1,56.82,19.08ZM76.36,6.66A6.29,6.29,0,0,1,75,6l.72-.72L77,6C76.8,6.25,76.53,6.7,76.36,6.66ZM77,12.1c.15-1.05-.62-2.52,1.27-2.77l2.8,2.79C79.73,13.37,78.39,13.55,77,12.1Zm5,15.1a4.32,4.32,0,0,1,0-6.1A4.32,4.32,0,0,1,82.08,27.2ZM100.18,9l-.72-.72.71-1.3c.22.22.67.5.63.66A6.3,6.3,0,0,1,100.18,9ZM110,10.73l-.72-.72a6.29,6.29,0,0,1,1.35-.63c.17,0,.44.41.66.63Zm6-2.11c-.17,0-.44-.41-.66-.63l1.3-.72.72.72A6.27,6.27,0,0,1,116,8.62ZM124.36,15a6.3,6.3,0,0,1-.63-1.35c0-.17.41-.44.63-.66l.72,1.3Zm42.31,12c-.22-.22-.67-.5-.63-.66a6.3,6.3,0,0,1,.63-1.35l.72.72Zm2-6L168,20.3l.71-1.3c.22.22.67.5.63.66A6.3,6.3,0,0,1,168.67,21ZM180.75,15a6.3,6.3,0,0,1-.63-1.35c0-.17.41-.44.63-.66l.72,1.3ZM199.21,6.5a6.31,6.31,0,0,1-1.35-.63l.72-.72,1.3.71C199.64,6.09,199.37,6.54,199.21,6.5ZM213,23l-.72-.72L213,21c.22.22.67.5.63.66A6.28,6.28,0,0,1,213,23Zm2,6-.72-.72L215,27c.22.22.67.5.63.66A6.3,6.3,0,0,1,215,29ZM243.17,8.83l-.72-.72.71-1.3c.22.22.67.5.63.66A6.29,6.29,0,0,1,243.17,8.83Zm18.13,6c.22.22.67.5.63.66a6.3,6.3,0,0,1-.63,1.35l-.72-.72Zm-3.68,2.4c.17,0,.44.41.66.63l-1.3.72-.72-.72A6.31,6.31,0,0,1,257.62,17.25Zm-1.17,6.84c.73-2.09,2.47-.88,3.54-.64C259.09,25,258.86,24.89,256.45,24.09Zm3.86-1.18-.15.26c.35-1.45.33-2.73,2-1.45A5.8,5.8,0,0,1,260.31,22.91Zm4.94-16.18a13.63,13.63,0,0,1-2.67-.31l.05-1.27c.9-.12,1.79-.29,2.69-.32.22,0,.69.49.64.64C265.83,5.93,265.52,6.71,265.25,6.72Zm10.5,11.76a6.29,6.29,0,0,1-1.35-.63l.72-.72,1.3.71C276.19,18.08,275.92,18.52,275.75,18.48Zm-.35-5.66q-2.17-2,0-4Q277.56,10.81,275.4,12.82Zm24.53,11.67a6.33,6.33,0,0,1-1.35-.63l.72-.72,1.3.71C300.36,24.09,300.09,24.53,299.92,24.49Zm23.81-7.71-.72-.72.71-1.3c.22.22.67.5.63.66A6.32,6.32,0,0,1,323.74,16.78Zm2,8.05-.72-.72.71-1.3c.22.22.67.5.63.66A6.3,6.3,0,0,1,325.76,24.84Zm8.43,5.7c-1.63-.34-2.3-1.83-3.51-2.89l.58-2.64h4.27C334.26,27.38,335.62,29.14,334.19,30.54ZM458.67,18.62c-.22-.22-.67-.5-.63-.66a6.26,6.26,0,0,1,.63-1.35c.22.22.67.5.63.66A6.29,6.29,0,0,1,458.67,18.62Zm128.9,5.87-.72-.72.72-1.3c.22.22.67.5.63.66A6.29,6.29,0,0,1,587.56,24.5ZM617.75,6.33,617,5.62l.71-1.3c.22.22.67.5.63.66A6.29,6.29,0,0,1,617.75,6.33Zm46.32,2L663.35,7l.72-.72a6.3,6.3,0,0,1,.63,1.35C664.74,7.79,664.29,8.06,664.07,8.29ZM797,22.21l-.72-.72.71-1.3c.22.22.67.5.63.66A6.29,6.29,0,0,1,797,22.21Zm74.86-2.49a6.29,6.29,0,0,1-1.35-.63l.72-.72,1.3.71C872.3,19.32,872,19.76,871.86,19.72Zm149.21-5.22-.55.21a1,1,0,0,1-.61,1.78h-.71a.91.91,0,0,1-.93-.76,7.52,7.52,0,0,1-1.83.54c-1.26.18-1.8-1.74-.53-1.93a9.05,9.05,0,0,0,2.5-.84.94.94,0,0,1,1-1,.91.91,0,0,1,.63.24l.53-.21C1021.76,12.14,1022.28,14.07,1021.07,14.5Zm68.88,11a1.2,1.2,0,0,0-1-.29.87.87,0,0,1-.77.41,1.24,1.24,0,0,1-1-.57.93.93,0,0,1-.76-.46,1,1,0,0,1,.36-1.37,5.67,5.67,0,0,1,3.44-.46,1,1,0,0,1,.71,1,3.33,3.33,0,0,1,.44.34C1092.31,25,1090.89,26.37,1090,25.49Zm12.73-5.33a1,1,0,0,1-1,1,1,1,0,0,1-1-1,14.18,14.18,0,0,1,0-3.73,1,1,0,0,1,1-1,1,1,0,0,1,1,1A14.18,14.18,0,0,0,1102.68,20.16Z"/><path class="cls-2" d="M592.17,18.4l-2.39,5.08c-1.13-.9-1.13-.9-.88-9.32,1.29-1.34,1.37.67,2,.73,1.6,1.06,3.22.44,4.8.4l1.61-1.65,27.51-.32,2.36,3.78C631,17,631.74,14.3,633.55,13c1.16,1,1.19,1,.71,9.38L628.09,21l-2.45,1.9-28,.32Z"/><path class="cls-2" d="M426.05,13.38l3.75,4.52,4.05-2.34c1.44,1.35.4,3.12.77,4.65L437,22.74l-3.87.59-.71-3.24c-.17-.17-.54-.64-.62-.59-2.12,1.2-4.2,2.46-6.6,3.89l-25.09.29-6.79-3.83-1.23,3.65-2.84.27-.74-2.72,2.08-2.26-2-2.08.09-2.23,3-1L393,17.16l.5.49c1.5-2.2,4.77-1.64,6.19-4Z"/><path class="cls-2" d="M450.23,13.12l25.95-.3,3.55,4.44,4.2-2.2c1.32,2.12.47,4.46.69,6.72-1.56,1.73-1.9-.53-3.16-.95l-3.76,0-2.06,1.92-27.9.32L443,18.67l-3,4.75c-2-1.48-1.33-2.94-1.31-4.16,0-1.9-.69-3.91.71-6l4.48,3.92C447.13,17,447.6,14,450.23,13.12Z"/><path class="cls-2" d="M737.75,13.35l2.68,5.86c2.6-3.74,5.84-3.24,7.28-5.51l26.5-.3,3.54,4.43L782,15.63c1.31,2.12.47,4.46.68,6.72-1.56,1.72-1.9-.54-3.16-1l-3.76,0-2.06,1.92-25.55.29-7.31-4.13L738,24c-2-1.49-1.33-2.95-1.31-4.17C736.72,17.93,736,15.92,737.75,13.35Z"/><path class="cls-2" d="M982.72,15.81l-2,2.22,2.09,2.32L982,23l-2.25,0L977.63,21l-3.93,0-2.1,2L945,23.4l-3.17-4-2.45.36c-1.86.43.69,3.53-2.11,3.42-1.25-2.13-.47-4.47-.64-6.71a20.88,20.88,0,0,1,.51-3.66l2.27,4.53c.69,0,1.7.37,1.91.09,1.62-2.15,4.91-1.62,6.32-4l24.5-.28,4,4c1.85.64,2.41-1.69,4.2-2.2Z"/><path class="cls-2" d="M797.53,13.2l16-.18,2.11,1.86,9.85-.11,2.13,1.92c2,.63,2.91-.93,4.27-2.09a12.57,12.57,0,0,1,.45,7.63l-6-1.78-2.63,2.29-27.9.32c-1.21-.58-2-2.64-4-1.86l-2.11,2-2.13,0c-1.33-2.4-1-4.91-.59-7.31,2.54-2.26,3.45.81,5.13,1.29C794.94,17.43,795.58,14.55,797.53,13.2Z"/><path class="cls-2" d="M684.4,15.19l-2.2,3.3,2.36,3c-2.39,2.94-3.73-.84-6.32-1.1l-2.84,2.06-27.32.31L641.33,19l-1.09,3.34a2.37,2.37,0,0,1-3.49-.29l1.81-2.15c.38-2.12-.53-4.45.57-6.65,2.22-.07,1.15,1.65,1.57,2.87l2.93,1.11,2.5-4.36,17.33-.2,2.14,1.9,9.85-.11,2.13,2c1.49.36,2.46-.31,3.43-1.37S683.3,14.16,684.4,15.19Z"/><path class="cls-2" d="M930.68,22.59,928,19.92,921,23.52l-23.81.27-2.58-3.72-5,.06-1.84,4c-.29-.27-.73-.48-.74-.7-.08-2.9-.1-5.8-.14-9.15,2.13.5,2.92,2.4,4.4,3.44L898.24,14l23-.26,6.54,3.67,2-1.85,2.07.17c1.78,1.84-1.63,1.56-1.21,2.2Z"/><path class="cls-2" d="M225.47,23.69l-7.55.09-2.31-1.86-3.78,0-3.15,2.33-3.3-2.34-5.64.06-2.18-2-3.91,0-2.2,2.08c-1.3-2.52-1-5-.47-8.13l2.54,1.84,4.24,0,1.6-1.64,28.34-.33,4.14,4,3.57-5.59c1.77,4.29,1,7.47,1.2,10.3l-1,1-3.2-3.82C228.42,19.29,227.74,22.14,225.47,23.69Z"/><path class="cls-2" d="M549.59,24a29.32,29.32,0,0,0-3.49-3.4c-1-.68-2.28-.84-3.79-1.34l5.63-5.15,27.93-.32,3.78,4.72L583.87,14c.17.34.7.91.66,1.44-.18,2.58.7,5.22-.31,7.71-.39.06-.73.22-.84.12-1.21-1.13-2.39-2.3-3.54-3.42l-6.67,3.86Z"/><path class="cls-2" d="M276.94,23.1l-24.82.29c-2.76-.9-3.28-5.34-8.12-3.39,1.81-3.23,3.67-4.48,5.27-6.34l26-.3,6.43,3.34c1.24-.3,2.21-3.14,4.66-.95l-2,3.2,2,3.1c-.59,1.71-1.34,1.61-5.49-1.24Z"/><path class="cls-2" d="M141,12.92c2.18.2,1.28,1.85,1.71,2.88,1.26,1.58,3.08.35,4.91,1.07L151,12.56l16.57-.19,1.79,1.75,8-.09,1.78,1.74c2.59,1.34,4.65-.24,6.8-1.26.22.24.61.48.62.73.07,2,.07,4,.1,5.91-.9.92-.9.92-3-.91l-4,0-2.06,2-25.9.3c-2.28-2.33-5.54-2.45-8.2-4.56-.67,1.95-1,3.12-1.49,4.26,0,.11-.44.09-.74.13-1.34-1.39-.56-3.14-.64-4.7S140.08,14.4,141,12.92Z"/><path class="cls-2" d="M1039.9,20.15l-2.41,2.26c-1.25-2.56-1-5-.54-7.53,1.59-.6,1.67.46,1.64,1.34-.05,1.83,1,2.14,3.41,2.08l2.57-3.95,27.27-.31,3.69,4.51,4.28-2.49c1.47,1.6,1,3.45.26,5.65l-3.12-2-7.9,4.17-21.25.24c-.56-.5-1.2-1.51-2-1.71-1.25-.3-2.44-.34-3.45-1.4C1041.75,20.46,1040.62,20.4,1039.9,20.15Z"/><path class="cls-2" d="M132.36,17.39l3-5.24c1.81,3,1,5.38,1.19,7.62a24.11,24.11,0,0,1-.58,4l-3.62-5.16-7.09,3.94L104,22.84C101.74,21.45,98.35,21,96.57,18l.08-1.94,5.53-2.92,25.26-.29Z"/><path class="cls-2" d="M837.27,12.94c1.95.19,1.06,1.83,1.47,2.86,1.27,1.54,3.05.5,4.68.81l2.19-2,3.82,0,2.13-2,2.05,1.8,2.07-1.78,1.72,1.69,15.39-.18,3.15,2c2.57.83,3.45-3.93,6.46-1.18a34.77,34.77,0,0,1,0,8.43c0,.26-.44.48-.9,1l-1.21-3.52c-1.44-1.25-3.14-.31-4.66-.54l-2.06,1.93-27.89.32-2.2-1.91a8.66,8.66,0,0,0-6.15,1.76c-1.3-1.78-.61-3.82-.69-5.72C836.62,15.43,835.94,14,837.27,12.94Z"/><path class="cls-2" d="M723.48,14l2.15,2,3.91,0,2.19-2.07c1.33,2.5,1,5,.53,7.86l-4.66-2.33-2.73,4.48-24.81.29c-2.21-1.9-5.92-1.94-7.44-5.16,0-1.31,0-2.47,1.87-2.74,1.14-.16,2.17-1.13,3.64-2Z"/><path class="cls-2" d="M336.4,21.67c-2.53,2.27-3.54-.46-4.66-1.09l-4.24,0-1.69,1.73-25.87.3-5.34-2.89c-.47-5.16,5.22-4.07,6.93-6.93l17.94-.21,2.14,1.89,1.59-1.62,7.84,3.89,2.45-2.2c1.8,1,.68,2.87,1.15,4.27A14.21,14.21,0,0,0,336.4,21.67Z"/><path class="cls-2" d="M363.66,24.1l-1.94-1.9c-4.37-.24-9.3.21-14.23,0-.94-1.26-2.63-2-2.86-2.89-.14-2.89,1.85-3.42,2.75-4.88l30.42-.35,3.35,5,2.38-5.24c2,2.15.69,4.59,1.11,6.91l2.29,2.48-3.8.78-.72-3.33c-2-2.1-3.28-.26-4.72,1.21l-3.89,0L371.62,24Z"/><path class="cls-2" d="M532,20.17l-4.3,0-2.1,2-27.88.32-2.1-1.91c-2.66-1.15-3.44,3.48-6.5,1.57a13.14,13.14,0,0,1-.19-7c2.6-1.73,3.58,1,5.87,1.5l3.12-2.09,28-.32,3.79,4.8,3.62-5.2C536.57,16.9,532.82,18.18,532,20.17Z"/><path class="cls-2" d="M77.42,13.39l2.15,2,3.92,0,2.08-2c.25.24.69.47.69.71.08,2.89.1,5.77.13,9-2.27-.41-3-2.36-4.69-3.52l-2.1,1.69-19.52.22L57.82,23.3C56.13,22,54,21.94,52,21.48c-1.6-.35-3.12-1.86-5.15-2.34l-.18-2.91,3-.73,1.91-1.83Z"/><path class="cls-2" d="M1023.6,14.52c1.13,1.5,3.43,2.25,3,4.88l-5.52,3L996,22.66l-5.29-3c-.4-2.51,1.84-3.32,2.95-4.84Z"/><path class="cls-2" d="M288.32,21.55l2.13-3.89-2-1.74.81-4,3.35,4.8.06,5.25a3.2,3.2,0,0,1-.67.63C290.71,23.23,289.57,23.11,288.32,21.55Z"/><path class="cls-2" d="M343.14,22.17l-3.69,0c-2.28-2.41.06-3.47,1.08-4.86l-2.34-2.48,3.54-.51C343.28,16.86,342.08,19.19,343.14,22.17Z"/><path class="cls-2" d="M91.45,23c-1.4-1.21-.75-2.59-.84-3.81-.13-1.87-.07-3.76-.1-5.7,2.27.25,2.87,1.84,4,2.68,0,.65.25,1.73,0,1.87C92.6,19.15,93.09,21.81,91.45,23Z"/><path class="cls-2" d="M45.36,22.09l-5.11-.85,2.67-2.87L40.51,14.3l3.15-.53C45.3,16.23,44,18.57,45.36,22.09Z"/><path class="cls-2" d="M241.65,23.5c-1.34-5-1.34-5-.11-10C242.87,18.49,242.87,18.49,241.65,23.5Z"/><path class="cls-2" d="M539.9,24.81c-1.87-3.2-1.1-5.51-1.27-7.72A16.74,16.74,0,0,1,539,14C540.66,16.5,540.66,16.5,539.9,24.81Z"/><path class="cls-2" d="M1029.81,18.51l3.22,3.33-3.76.67a12.28,12.28,0,0,1-.16-7.83C1032.49,15.48,1029,18.22,1029.81,18.51Z"/><path class="cls-2" d="M689.41,12.72c1.53,4.38,1.52,6.82.79,9.26C688.51,22.07,688.51,22.07,689.41,12.72Z"/><path class="cls-2" d="M987.46,13.38c1.51,4.3,1.49,6.74.77,9.18C986.44,22.65,986.4,22.65,987.46,13.38Z"/><path class="cls-2" d="M532.63,20.16c2.06,1.16,2.06,1.16,1.21,3.82C531.7,23.26,533,21.44,532.63,20.16Z"/><path class="cls-2" d="M930.44,21l2.06,1.72C930.77,24.12,930.9,22.58,930.44,21Z"/></g></g></svg>