<svg xmlns="http://www.w3.org/2000/svg" viewBox="0 0 950.49 949.39" preserveAspectRatio="none"><defs><style>.cls-1{fill:#3dbfe0;}</style></defs><title>Calle_ornamento_marco2</title><g id="Layer_2" data-name="Layer 2"><g id="ornamentos"><path class="cls-1" d="M3.85,5.11c-1-1.79-1-3.13.38-4.62l6,0c20.21,0,40.42,0,60.62.14Q122,.89,173.15,1.2c5.26,0,10.53,0,15.79-.06,1.47,0,2.95-.07,4.41-.22A31,31,0,0,1,197,.33c2.45.06,4.89.37,7.34.56,1.67.13,3.35.33,5,.34q8.72,0,17.42-.62c4.38-.33,8.82,0,13.23.12,1.83,0,3.7.49,5.49.25,6.29-.82,12.57-.39,18.85-.12,2.28.1,4.57-.24,6.85-.23q55.26.1,110.52.24c2.53,0,5.05-.06,7.58,0,2.74,0,5.49-.1,8.2.18,2.52.26,5-1,7.46-.22,4.91-.77,9.88-.3,14.81-.64s9.68,0,14.52,0c5.05,0,10.11,0,15.16,0q42.31.11,84.62.23,48.63.16,97.26.39c2.91,0,5.82-.12,8.71-.16s5.8.14,8.7.25c3.3.13,6.53-.87,9.91-.09,3,.7,6.21-.38,9.34,0a15.14,15.14,0,0,0,3.08-.45c1.46-.14,3.06-.6,4.36-.18,3.89,1.24,7.85,0,11.75.72,2.63.49,5.25-.7,8.06,0,2.58.63,5.44.23,8.17.13,2.07-.08,4.22-.88,6.18-.51a13,13,0,0,0,5.53-.15,6.56,6.56,0,0,1,2.5.09c3.29.56,6.58,1.17,9.87,0,3.53,1.06,7-.3,10.56-.09,6.28.37,12.61-.56,18.86.7,3.08-1.07,6.26-.52,9.39-.51,2.28,0,4.57.43,6.85.65a13.56,13.56,0,0,0,3.12.2c4.32-.61,8.65,0,13-.26a48,48,0,0,1,9.15.07c2.09.27,4.14-.2,6.13.16,2.17.39,4.14-.16,6.21-.41a24.06,24.06,0,0,1,6.25.28c3.91.56,7.77-.28,11.67-.16,5.83.17,11.67-.12,17.51-.12,2.09,0,4.17.3,6.26.42a23.27,23.27,0,0,0,3.69.07,83.91,83.91,0,0,1,20.71.19,4.15,4.15,0,0,0,1.24.13C886.72.27,895.35,1.39,904,1.2s17.26,0,25.89.14c2.29,0,4.63,1,6.83.66,3-.42,5.8.36,8.69.31a4.73,4.73,0,0,1,1.19.3c1.05.78.95,1.74.44,2.81-1.43,1.22-3.19.75-4.82.75-12.21,0-24.42-.09-36.63-.16-13.47-.07-26.95-.23-40.42-.16-5.61,0-11.19-.65-16.82-.36-3.1.16-6.33.81-9.32,0s-5.84.61-8.62-.65c-5.53.66-11.09.1-16.63.51A30.14,30.14,0,0,1,805.6,5c-3.43-.67-7,.26-10.47-.22a26.12,26.12,0,0,0-8.05.12c-2.48.45-4.86-.68-7.41.26-1.59.59-3.67-.3-5.54-.32-4.91-.06-9.83.16-14.73-.09a19.85,19.85,0,0,0-4.94.16,29.14,29.14,0,0,1-9.28,0,75.35,75.35,0,0,0-10.66-.57c-5.16.05-10.34-.19-15.46.05s-10.37-.61-15.6-.07c-4.31.44-8.72,0-13.08,0-5.83,0-11.67.14-17.5-.08a34.57,34.57,0,0,0-9.32.45c-2.21.51-4.44-1.22-6.77-.41-4.15-1.11-8.35-.37-12.48-.07a70.28,70.28,0,0,1-8.69-.07c-3.46-.17-7-.78-10.47,0a30.53,30.53,0,0,1-8.78.29,71.93,71.93,0,0,0-9.2,0c-3.15.17-6.31.06-9.47.05-10.74,0-21.47-.16-32.21,0-4.38.06-8.7-.73-13.12-.25-4.16.45-8.41.08-12.62.08-4.42,0-8.84,0-13.26,0s-8.84-.08-13.26-.09-8.84,0-13.26,0c-4.21,0-8.42-.1-12.63-.11-4.42,0-8.84,0-13.26,0s-8.84,0-13.27,0L447.54,4,434.9,4c-4.42,0-8.84-.09-13.26,0-5.41.06-10.82.26-16.24.33-2.84,0-5.69.36-8.52-.23A5.74,5.74,0,0,0,395,3.89c-11.25,1.46-22.56.67-33.83.69-32.42.05-64.84-.16-97.26-.1-4.59,0-9.25-.72-13.8.6-7.25-.83-14.49.58-21.74.16-1.25-.07-2.49-.29-3.73-.46a8.31,8.31,0,0,0-2.46-.36C214,6,205.83,5,197.66,5.07,175.34,5.2,153,5,130.72,5c-3.77,0-7.55.33-11.32.33-3.54,0-7.08-.3-10.63-.38-3.37-.07-6.79-.39-10.09.1-3.09.47-6.2-.4-9.25.55A6.13,6.13,0,0,1,87,5.41,15,15,0,0,0,84.51,5c-2.07.07-4.18.63-6.19.36a26.89,26.89,0,0,0-6.2-.15,14.44,14.44,0,0,1-5.55-.07c-1.64-.47-3.55.92-5.5,0a4.77,4.77,0,0,0-3,0,24.47,24.47,0,0,1-8.77.4c-5-.43-10,.32-14.85-.38-6.19-.89-12.38,1-18.52-.37C11.82,6.18,7.74,4.68,3.85,5.11Z"/><path class="cls-1" d="M3.85,948.25c-1-1.79-1-3.13.38-4.62l6,0c20.21,0,40.42,0,60.62.14q51.16.23,102.32.54c5.26,0,10.53,0,15.79-.06,1.47,0,2.95-.07,4.41-.22a31,31,0,0,1,3.7-.59c2.45.06,4.89.37,7.34.56,1.67.13,3.35.33,5,.34q8.72,0,17.42-.62c4.38-.33,8.82,0,13.23.12,1.83,0,3.7.49,5.49.25,6.29-.82,12.57-.39,18.85-.12,2.28.1,4.57-.24,6.85-.23q55.26.1,110.52.24c2.53,0,5.05-.06,7.58,0,2.74,0,5.49-.1,8.2.18,2.52.26,5-1,7.46-.22,4.91-.77,9.88-.3,14.81-.64s9.68,0,14.52,0c5.05,0,10.11,0,15.16,0q42.31.11,84.62.23,48.63.16,97.26.39c2.91,0,5.82-.12,8.71-.16s5.8.14,8.7.25c3.3.13,6.53-.87,9.91-.09,3,.7,6.21-.38,9.34,0a15.14,15.14,0,0,0,3.08-.45c1.46-.14,3.06-.6,4.36-.18,3.89,1.24,7.85,0,11.75.72,2.63.49,5.25-.7,8.06,0,2.58.63,5.44.23,8.17.13,2.07-.08,4.22-.88,6.18-.51a13,13,0,0,0,5.53-.15,6.56,6.56,0,0,1,2.5.09c3.29.56,6.58,1.17,9.87,0,3.53,1.06,7-.3,10.56-.09,6.28.37,12.61-.56,18.86.7,3.08-1.07,6.26-.52,9.39-.51,2.28,0,4.57.43,6.85.65a13.56,13.56,0,0,0,3.12.2c4.32-.61,8.65,0,13-.26a48,48,0,0,1,9.15.07c2.09.27,4.14-.2,6.13.16,2.17.39,4.14-.16,6.21-.41a24.06,24.06,0,0,1,6.25.28c3.91.56,7.77-.28,11.67-.16,5.83.17,11.67-.12,17.51-.12,2.09,0,4.17.3,6.26.42a23.27,23.27,0,0,0,3.69.07,83.91,83.91,0,0,1,20.71.19,4.15,4.15,0,0,0,1.24.13c8.57-1.48,17.21-.36,25.81-.55s17.26,0,25.89.14c2.29,0,4.63,1,6.83.66,3-.42,5.8.36,8.69.31a4.73,4.73,0,0,1,1.19.3c1.05.78.95,1.74.44,2.81-1.43,1.22-3.19.75-4.82.75-12.21,0-24.42-.09-36.63-.16-13.47-.07-26.95-.23-40.42-.16-5.61,0-11.19-.65-16.82-.36-3.1.16-6.33.81-9.32,0s-5.84.61-8.62-.65c-5.53.66-11.09.1-16.63.51a30.14,30.14,0,0,1-8.14-.3c-3.43-.67-7,.26-10.47-.22a26.12,26.12,0,0,0-8.05.12c-2.48.45-4.86-.68-7.41.26-1.59.59-3.67-.3-5.54-.32-4.91-.06-9.83.16-14.73-.09a19.85,19.85,0,0,0-4.94.16,29.14,29.14,0,0,1-9.28,0,75.35,75.35,0,0,0-10.66-.57c-5.16.05-10.34-.19-15.46.05s-10.37-.61-15.6-.07c-4.31.44-8.72,0-13.08,0-5.83,0-11.67.14-17.5-.08a34.57,34.57,0,0,0-9.32.45c-2.21.51-4.44-1.22-6.77-.41-4.15-1.11-8.35-.37-12.48-.07a70.28,70.28,0,0,1-8.69-.07c-3.46-.17-7-.78-10.47,0a30.53,30.53,0,0,1-8.78.29,71.93,71.93,0,0,0-9.2,0c-3.15.17-6.31.06-9.47.05-10.74,0-21.47-.16-32.21,0-4.38.06-8.7-.73-13.12-.25-4.16.45-8.41.08-12.62.08-4.42,0-8.84,0-13.26,0s-8.84-.08-13.26-.09-8.84,0-13.26,0c-4.21,0-8.42-.1-12.63-.11-4.42,0-8.84,0-13.26,0s-8.84,0-13.27,0l-13.26-.07-12.63,0c-4.42,0-8.84-.09-13.26,0-5.41.06-10.82.26-16.24.33-2.84,0-5.69.36-8.52-.23A5.74,5.74,0,0,0,395,947c-11.25,1.46-22.56.67-33.83.69-32.42.05-64.84-.16-97.26-.1-4.59,0-9.25-.72-13.8.6-7.25-.83-14.49.58-21.74.16-1.25-.07-2.49-.29-3.73-.46a8.31,8.31,0,0,0-2.46-.36c-8.15,1.55-16.36.6-24.54.65-22.31.13-44.63-.06-66.94-.08-3.77,0-7.55.33-11.32.33-3.54,0-7.08-.3-10.63-.38-3.37-.07-6.79-.39-10.09.1-3.09.47-6.2-.4-9.25.55a6.13,6.13,0,0,1-2.47-.19,15,15,0,0,0-2.46-.43c-2.07.07-4.18.63-6.19.36a26.89,26.89,0,0,0-6.2-.15,14.44,14.44,0,0,1-5.55-.07c-1.64-.47-3.55.92-5.5,0a4.77,4.77,0,0,0-3,0,24.47,24.47,0,0,1-8.77.4c-5-.43-10,.32-14.85-.38-6.19-.89-12.38,1-18.52-.37C11.82,949.31,7.74,947.82,3.85,948.25Z"/><path class="cls-1" d="M5.11,943.52c-1.79,1-3.13,1-4.62-.38,0-1.83,0-3.9,0-6,0-20.21,0-40.42.14-60.62q.23-51.16.54-102.32c0-5.26,0-10.53-.06-15.79,0-1.47-.07-2.95-.22-4.41a31,31,0,0,1-.59-3.7c.06-2.45.37-4.89.56-7.34.13-1.67.33-3.35.34-5q0-8.72-.62-17.42c-.33-4.38,0-8.82.12-13.23,0-1.83.49-3.7.25-5.49C.15,695.52.59,689.25.86,683c.1-2.28-.24-4.57-.23-6.85q.1-55.26.24-110.52c0-2.53-.06-5.05,0-7.58,0-2.74-.1-5.49.18-8.2.26-2.52-1-5-.22-7.46-.77-4.91-.3-9.88-.64-14.81s0-9.68,0-14.52c0-5.05,0-10.11,0-15.16q.11-42.31.23-84.62Q.56,364.61.8,316c0-2.91-.12-5.82-.16-8.71s.14-5.8.25-8.7C1,295.26,0,292,.8,288.65c.7-3-.38-6.21,0-9.34a15.14,15.14,0,0,0-.45-3.08c-.14-1.46-.6-3.06-.18-4.36,1.24-3.89,0-7.85.72-11.75.49-2.63-.7-5.25,0-8.06.63-2.58.23-5.44.13-8.17-.08-2.07-.88-4.22-.51-6.18a13,13,0,0,0-.15-5.53,6.56,6.56,0,0,1,.09-2.5c.56-3.29,1.17-6.58,0-9.87,1.06-3.53-.3-7-.09-10.56.37-6.28-.56-12.61.7-18.86C0,187.31.53,184.12.54,181c0-2.28.43-4.57.65-6.85a13.56,13.56,0,0,0,.2-3.12c-.61-4.32,0-8.65-.26-13a48,48,0,0,1,.07-9.15c.27-2.09-.2-4.14.16-6.13.39-2.17-.16-4.14-.41-6.21a24.06,24.06,0,0,1,.28-6.25c.56-3.91-.28-7.77-.16-11.67.17-5.83-.12-11.67-.12-17.51,0-2.09.3-4.17.42-6.26a23.27,23.27,0,0,0,.07-3.69,83.91,83.91,0,0,1,.19-20.71,4.15,4.15,0,0,0,.13-1.24C.27,60.65,1.39,52,1.2,43.42s0-17.26.14-25.89c0-2.29,1-4.63.66-6.83-.42-3,.36-5.8.31-8.69A4.73,4.73,0,0,1,2.6.81C3.38-.24,4.35-.14,5.41.38c1.22,1.43.75,3.19.75,4.82,0,12.21-.09,24.42-.16,36.63-.07,13.47-.23,26.95-.16,40.42,0,5.61-.65,11.19-.36,16.82.16,3.1.81,6.33,0,9.32s.61,5.84-.65,8.62c.66,5.53.1,11.09.51,16.63a30.14,30.14,0,0,1-.3,8.14c-.67,3.43.26,7-.22,10.47a26.12,26.12,0,0,0,.12,8.05c.45,2.48-.68,4.86.26,7.41.59,1.59-.3,3.67-.32,5.54-.06,4.91.16,9.83-.09,14.73a19.85,19.85,0,0,0,.16,4.94,29.14,29.14,0,0,1,0,9.28,75.35,75.35,0,0,0-.57,10.66c.05,5.16-.19,10.34.05,15.46s-.61,10.37-.07,15.6c.44,4.31,0,8.72,0,13.08,0,5.83.14,11.67-.08,17.5a34.57,34.57,0,0,0,.45,9.32c.51,2.21-1.22,4.44-.41,6.77-1.11,4.15-.37,8.35-.07,12.48a70.28,70.28,0,0,1-.07,8.69c-.17,3.46-.78,7,0,10.47A30.53,30.53,0,0,1,4.42,331a71.93,71.93,0,0,0,0,9.2c.17,3.15.06,6.31.05,9.47,0,10.74-.16,21.47,0,32.21.06,4.38-.73,8.7-.25,13.12.45,4.16.08,8.41.08,12.62,0,4.42,0,8.84,0,13.26s-.08,8.84-.09,13.26,0,8.84,0,13.26c0,4.21-.1,8.42-.11,12.63,0,4.42,0,8.84,0,13.26s0,8.84,0,13.27S4,495.41,4,499.83c0,4.21,0,8.42,0,12.63,0,4.42-.09,8.84,0,13.26.06,5.41.26,10.82.33,16.24,0,2.84.36,5.69-.23,8.52a5.74,5.74,0,0,0-.16,1.87c1.46,11.25.67,22.56.69,33.83.05,32.42-.16,64.84-.1,97.26,0,4.59-.72,9.25.6,13.8-.83,7.25.58,14.49.16,21.74-.07,1.25-.29,2.49-.46,3.73a8.31,8.31,0,0,0-.36,2.46c1.55,8.15.6,16.36.65,24.54C5.2,772,5,794.34,5,816.65c0,3.77.33,7.55.33,11.32,0,3.54-.3,7.08-.38,10.63-.07,3.37-.39,6.79.1,10.09.47,3.09-.4,6.2.55,9.25a6.13,6.13,0,0,1-.19,2.47A15,15,0,0,0,5,862.86c.07,2.07.63,4.18.36,6.19a26.89,26.89,0,0,0-.15,6.2,14.44,14.44,0,0,1-.07,5.55c-.47,1.64.92,3.55,0,5.5a4.77,4.77,0,0,0,0,3,24.47,24.47,0,0,1,.4,8.77c-.43,5,.32,10-.38,14.85-.89,6.19,1,12.38-.37,18.52C6.18,935.55,4.68,939.63,5.11,943.52Z"/><path class="cls-1" d="M949.36,943.52c-1.79,1-3.13,1-4.62-.38,0-1.83,0-3.9,0-6,0-20.21,0-40.42.14-60.62q.23-51.16.54-102.32c0-5.26,0-10.53-.06-15.79,0-1.47-.07-2.95-.22-4.41a31,31,0,0,1-.59-3.7c.06-2.45.37-4.89.56-7.34.13-1.67.33-3.35.34-5q0-8.72-.62-17.42c-.33-4.38,0-8.82.12-13.23,0-1.83.49-3.7.25-5.49-.82-6.29-.39-12.57-.12-18.85.1-2.28-.24-4.57-.23-6.85q.1-55.26.24-110.52c0-2.53-.06-5.05,0-7.58,0-2.74-.1-5.49.18-8.2.26-2.52-1-5-.22-7.46-.77-4.91-.3-9.88-.64-14.81s0-9.68,0-14.52c0-5.05,0-10.11,0-15.16q.11-42.31.23-84.62.16-48.63.39-97.26c0-2.91-.12-5.82-.16-8.71s.14-5.8.25-8.7c.13-3.3-.87-6.53-.09-9.91.7-3-.38-6.21,0-9.34a15.14,15.14,0,0,0-.45-3.08c-.14-1.46-.6-3.06-.18-4.36,1.24-3.89,0-7.85.72-11.75.49-2.63-.7-5.25,0-8.06.63-2.58.23-5.44.13-8.17-.08-2.07-.88-4.22-.51-6.18a13,13,0,0,0-.15-5.53,6.56,6.56,0,0,1,.09-2.5c.56-3.29,1.17-6.58,0-9.87,1.06-3.53-.3-7-.09-10.56.37-6.28-.56-12.61.7-18.86-1.07-3.08-.52-6.26-.51-9.39,0-2.28.43-4.57.65-6.85a13.56,13.56,0,0,0,.2-3.12c-.61-4.32,0-8.65-.26-13a48,48,0,0,1,.07-9.15c.27-2.09-.2-4.14.16-6.13.39-2.17-.16-4.14-.41-6.21a24.06,24.06,0,0,1,.28-6.25c.56-3.91-.28-7.77-.16-11.67.17-5.83-.12-11.67-.12-17.51,0-2.09.3-4.17.42-6.26a23.27,23.27,0,0,0,.07-3.69,83.91,83.91,0,0,1,.19-20.71,4.15,4.15,0,0,0,.13-1.24c-1.48-8.57-.36-17.21-.55-25.81s0-17.26.14-25.89c0-2.29,1-4.63.66-6.83-.42-3,.36-5.8.31-8.69a4.73,4.73,0,0,1,.3-1.19c.78-1.05,1.74-.95,2.81-.44,1.22,1.43.75,3.19.75,4.82,0,12.21-.09,24.42-.16,36.63-.07,13.47-.23,26.95-.16,40.42,0,5.61-.65,11.19-.36,16.82.16,3.1.81,6.33,0,9.32s.61,5.84-.65,8.62c.66,5.53.1,11.09.51,16.63a30.14,30.14,0,0,1-.3,8.14c-.67,3.43.26,7-.22,10.47a26.12,26.12,0,0,0,.12,8.05c.45,2.48-.68,4.86.26,7.41.59,1.59-.3,3.67-.32,5.54-.06,4.91.16,9.83-.09,14.73a19.85,19.85,0,0,0,.16,4.94,29.14,29.14,0,0,1,0,9.28,75.35,75.35,0,0,0-.57,10.66c.05,5.16-.19,10.34.05,15.46s-.61,10.37-.07,15.6c.44,4.31,0,8.72,0,13.08,0,5.83.14,11.67-.08,17.5a34.57,34.57,0,0,0,.45,9.32c.51,2.21-1.22,4.44-.41,6.77-1.11,4.15-.37,8.35-.07,12.48a70.28,70.28,0,0,1-.07,8.69c-.17,3.46-.78,7,0,10.47a30.53,30.53,0,0,1,.29,8.78,71.93,71.93,0,0,0,0,9.2c.17,3.15.06,6.31.05,9.47,0,10.74-.16,21.47,0,32.21.06,4.38-.73,8.7-.25,13.12.45,4.16.08,8.41.08,12.62,0,4.42,0,8.84,0,13.26s-.08,8.84-.09,13.26,0,8.84,0,13.26c0,4.21-.1,8.42-.11,12.63,0,4.42,0,8.84,0,13.26s0,8.84,0,13.27-.05,8.84-.07,13.26c0,4.21,0,8.42,0,12.63,0,4.42-.09,8.84,0,13.26.06,5.41.26,10.82.33,16.24,0,2.84.36,5.69-.23,8.52a5.74,5.74,0,0,0-.16,1.87c1.46,11.25.67,22.56.69,33.83.05,32.42-.16,64.84-.1,97.26,0,4.59-.72,9.25.6,13.8-.83,7.25.58,14.49.16,21.74-.07,1.25-.29,2.49-.46,3.73a8.31,8.31,0,0,0-.36,2.46c1.55,8.15.6,16.36.65,24.54.13,22.31-.06,44.63-.08,66.94,0,3.77.33,7.55.33,11.32,0,3.54-.3,7.08-.38,10.63-.07,3.37-.39,6.79.1,10.09.47,3.09-.4,6.2.55,9.25a6.13,6.13,0,0,1-.19,2.47,15,15,0,0,0-.43,2.46c.07,2.07.63,4.18.36,6.19a26.89,26.89,0,0,0-.15,6.2,14.44,14.44,0,0,1-.07,5.55c-.47,1.64.92,3.55,0,5.5a4.77,4.77,0,0,0,0,3,24.47,24.47,0,0,1,.4,8.77c-.43,5,.32,10-.38,14.85-.89,6.19,1,12.38-.37,18.52C950.42,935.55,948.92,939.63,949.36,943.52Z"/></g></g></svg>