<svg xmlns="http://www.w3.org/2000/svg" viewBox="0 0 110.84 44.98"><title>Calle_ornamento_mano</title><g id="Layer_2" data-name="Layer 2"><g id="ornamentos"><path d="M27.35,2.46s2.56,2,3.87,2l1.18-1h1.9l1.1-1H49.3A7.46,7.46,0,0,1,50,1.25c.12-.11.24-.3.37-.31,2.66,0,5.32,0,7.95,0L59.26,0a4.73,4.73,0,0,0,1.08.43h2.11A2.29,2.29,0,0,0,63.28,0a10.38,10.38,0,0,1,1.08,1.46h12l1.07,1h1.49c1.86.78,3.45,2.27,5.65,2.18l1.82,1.82h1.93l1.08,1h2l.85,1h4c.63.51,1,1.1,1.37,1.06a4.88,4.88,0,0,1,3.08,1c1.59.93,3.52,1,5.13,2,.78.46,1.64.8,2.72,1.31l2.37,4.68a9,9,0,0,0-1,2,2.51,2.51,0,0,1-1.51,1.79c-.78.27-1.52.41-1.92,1.12H98.9l-.72-.71a11.64,11.64,0,0,1-5.33-2.16c-2.68-.63-5.8.82-8.5-.72-1.13-.65-2.84.36-3.47-1.38-1.66,0-3.33,0-5,0-.12,0-.25.2-.45.37a8.92,8.92,0,0,0,2.22,2.37c.88.78.6,2.19,1.66,2.78v3.1l-1.58.48-2,1.86h-3c-.86.65-.28,1.56-.72,2.74l-1.78,1.2V35l-5.88,2.82-.35,1.33c-1.07,1.07-2,2.56-3.25,3.08a11.21,11.21,0,0,0-3.1,2.26H56.2l-4.86-2.37-5.63-5.63H28.53l-1.26-1-1.19,1.19c-.49.95-.16,2-.26,3-1,1.67-1.61,3.59-3.72,4.84H15.38a7,7,0,0,0-1,0H3.27c-.46-.33-.75.84-1.92.42L0,43.6c.13-.23.26-.64.39-.64,1.46,0,2.46-1.65,4-1.07.87-1.07.26-2.27.44-3.38.41-.66,1.37-1.05,1-2.12l3.34-1.65c1.26,1.42.23,3,1.2,5.21l2.3,1.49.24-.91-1.06-1.13c0-2.33,0-4.66,0-7,0-.12.22-.24.34-.35.62,1.07.62,1.07.71,3.43.24.24.47.47.4.82V39c1.48,1.3,1.5,3.12,3.16,3.81.73-.66.2-1.55.37-2.32a10.72,10.72,0,0,0-1.53-1.07V20.52l.76-.76c.1-.14.28-.27.28-.41,0-2.11,0-4.22,0-6.25l.95-.95V7.73l1-1.27V4.12c-1.08-.06-1.35.89-2,1.31v2l-1,1.08v5l-1.5.2a6.24,6.24,0,0,1-.24-3.3l.75-.75V4.15c-1.62-.11-.57,2-1.92,2.13-.09,2.18,0,4.38-.05,6.58-1.38,0-.8-.86-1-1.3a6.15,6.15,0,0,0-1-1.11v-2a8,8,0,0,0,1.28-.73c.55-1.09,0-2.24.36-3.43l-1.53-.4A13.85,13.85,0,0,1,8.32,7v4.62c-.43.47-.45-.15-.46-.55,0-1.83,0-3.67,0-5.68L6,4A6.38,6.38,0,0,1,1,2.32c.12-.12.24-.34.35-.34C7.64,2,14,2,20.26,2A3.88,3.88,0,0,0,21.37.46h2a2.64,2.64,0,0,0,2,1.63A9.81,9.81,0,0,0,27.35,2.46ZM51.36,29a2.63,2.63,0,0,1,.8-.48c2.24-.38,3.61,1.77,5.72,2,1.9,1.71,3.43,4,6.11,4.65a10.06,10.06,0,0,0,2.5-1.44c.81-.86,1.9-1.1,2.83-1.72V29.49s-.53-1.53-1.76-1.64c-.65-.06-1.2-1-1.84-1.53s-1.94-.4-2.4-1.42-1.76-.69-2.49-1.47l.21-1.49a6.88,6.88,0,0,0,1.6,1,6.52,6.52,0,0,0,1.7,0,5.18,5.18,0,0,0,2,1.53h1.14a8.64,8.64,0,0,0,5.09,4.26c3.81-2.41,4.28-2.86,4.28-4.39a14,14,0,0,1-1.53-1.58V20.85c-.58-.83-2-.27-2.43-1.37s-1.63-.88-2.38-1.4-1.47-1.55-2.76-1.8c-.79-.15-1.39-1.24-2-1.88-1.73,1-2.4-1-3.77-.94-.54,0-1.28-.74-1.47-1.54,1.11-.63,2.27-.24,3.37-.29l.81.71c3.07.41,5.19,2.1,7.58,3.08.93.4,2-.28,2.87.32l.81.79.47-1.13c-.19-.91-1.4-1.18-1.08-2.06s1-.85,1.64-.68l3.89,3.79h3l1.11,1h8.33l1.48,1.94a4.68,4.68,0,0,1,1.34,0c1.28.53,2.73.74,3.72,1.84.08.09.3.07.45.1.83,0,1.67,0,2.5,0a5,5,0,0,0,3.37-.83c-.33.14.38-.15,1.08-.45,0,0,0-.22,0-.36l-1.33-1.24c-.76,0-1.67.18-2-.16-1-1-2.83-.9-3.5-2.5V14l-2.39-2.54H95l-1.1-1H89.37a7.74,7.74,0,0,0-1.24-.94c-.83-.39-1.7-.69-2.57-1s-1.1-1.3-2.07-1c-1.16.37-1.64-.83-2.57-1-.73-.17-1.39-.9-2.08-.91-1.89,0-3.15-1.26-4.77-2.11H71.33l-1.24-1H64.6l-1-.74-.83.83c-3.3,0-6.64,0-10,0-.11,0-.23.17-.41.31l-.57.59H37.41l-1.07,1h-3a16,16,0,0,0-3.42,1.92c-1.36,1.22-3.17.15-4.68.72a3.87,3.87,0,0,0-.88,1.36H19.85c0,1.47,0,3.26,0,5a3,3,0,0,0-.52.95v6.18l-1,.91V29.3l.89.81-.92,1L21,32.46h4.16c1.33-1.27-.37-1.67-.64-2.47.16-.72-.38-1.59.49-2.19,1.24.67,1.5,1.95,2.26,2.9a21.12,21.12,0,0,0,2.6,2.44l2.86,1.32H46.26l1.08,1h3.17l1.84.92,3.74,3.7-1.21,1.33c-.75-.75-1.43-1.47-2.17-2.14s-1.22-1.54-2.21-1.85c-.68.22-1.64-.52-2,.47,1.18,2.17,3.84,2.46,5.2,4.33.07.1.28.1.43.15,1.58.38,2.56-1.11,4-1.25L61.32,38V36c-1.68-2.4-4.86-3.1-6.42-5.54H52.81Zm-32,10c.13,1.11-.35,2.3.37,3.42H22.9l1.42-1.51V39c1.26-.8,1-2,.85-3l-1.36-1.53h-3l-1.05-1L18.32,35v3Zm4-33.58c.45-.56,1.21-.87,1.36-1.67-.81-.41-1.82-.43-2.13-.95l-2,1.1.69,1.52Zm-14.47,33C8.26,38,8,37.2,7.13,37.13c-.54,1.08-.16,2.21-.28,3.31.59.4.87,1.23,1.73,1.31C9.12,40.66,8.74,39.53,8.85,38.43Zm97.47-22.12c-.85-.5-1.87-.45-2.46-1.34-.11-.17-.84.08-1.28.13.26,2.1,2.6,1.47,3.33,2.82l.41-.42Z"/></g></g></svg>