<svg xmlns="http://www.w3.org/2000/svg" viewBox="0 0 1280 94.04"><defs><style>.cls-1,.cls-2{fill:#fb8713;}.cls-1{fill-rule:evenodd;}.cls-3{fill:none;stroke:#fb8713;stroke-linecap:round;stroke-miterlimit:10;stroke-width:2px;}.cls-4{fill:#fff;}</style></defs><title>Acerca_deco</title><g id="Layer_2" data-name="Layer 2"><g id="imagen_fondo"><path class="cls-1" d="M615.82,44.69a1.26,1.26,0,0,1,0,1.17,1.24,1.24,0,0,1,0,2.48,1.25,1.25,0,0,1,0,1.17,1.21,1.21,0,0,1-1.63.55,1.31,1.31,0,0,1-.26-.19l-2.79-2.77h0l2.79-2.77a1.29,1.29,0,0,1,.26-.18A1.2,1.2,0,0,1,615.82,44.69Z"/><path class="cls-1" d="M602.48,52.63c-.75-2.44,1.68-4.7,3.41-5.16l.11.12,0,0c-1.95,1.28-1.8,2.71-1.06,3.46.57.58,1.35,1.06,1.25,1.92a1.32,1.32,0,0,1-.74,1A2.18,2.18,0,0,1,602.48,52.63Zm1-4.19a2,2,0,0,1-2.46-.33,1.47,1.47,0,0,1,0-2,2,2,0,0,1,2.46-.33,8.1,8.1,0,0,0,2.35,1.18.57.57,0,0,0,0,.32A8.1,8.1,0,0,0,603.43,48.44Zm2.46-1.71c-1.73-.46-4.16-2.72-3.41-5.16a2.18,2.18,0,0,1,2.95-1.4,1.32,1.32,0,0,1,.74,1c.1.86-.68,1.34-1.25,1.92-.74.75-.89,2.18,1.06,3.46l0,0A.69.69,0,0,0,605.89,46.74Zm1.19-.34c.6,0,1.09.32,1.09.71s-.49.7-1.09.7-1.09-.31-1.09-.7S606.48,46.39,607.08,46.39Z"/><path class="cls-1" d="M638.74,72.77a1.27,1.27,0,0,1,1.17,0,1.24,1.24,0,0,1,2.48,0,1.27,1.27,0,0,1,1.17,0,1.19,1.19,0,0,1,.36,1.89l-2.77,2.79h0l-2.77-2.79a1.11,1.11,0,0,1-.18-.26A1.2,1.2,0,0,1,638.74,72.77Z"/><path class="cls-1" d="M646.68,86.1c-2.44.76-4.7-1.68-5.16-3.41l.12-.11,0,0c1.28,1.95,2.71,1.8,3.46,1.06.58-.57,1.06-1.34,1.92-1.25a1.33,1.33,0,0,1,1,.74A2.18,2.18,0,0,1,646.68,86.1Zm-4.19-.95a2,2,0,0,1-.33,2.46,1.47,1.47,0,0,1-2,0,2,2,0,0,1-.33-2.46A8,8,0,0,0,641,82.8l.16,0,.16,0A8.14,8.14,0,0,0,642.49,85.16Zm-1.71-2.46c-.46,1.73-2.72,4.17-5.16,3.41a2.18,2.18,0,0,1-1.41-2.95,1.34,1.34,0,0,1,1-.74c.85-.09,1.34.68,1.92,1.25.75.74,2.18.89,3.46-1.06l0,0A.57.57,0,0,0,640.79,82.69Zm-.34-1.19c0-.6.32-1.09.71-1.09s.7.49.7,1.09-.31,1.09-.7,1.09S640.45,82.11,640.45,81.51Z"/><path class="cls-1" d="M666.82,49.84a1.25,1.25,0,0,1,0-1.17,1.24,1.24,0,0,1,0-2.48,1.26,1.26,0,0,1,0-1.17,1.21,1.21,0,0,1,1.63-.55,1.32,1.32,0,0,1,.27.19l2.79,2.77h0l-2.79,2.77a1.19,1.19,0,0,1-.27.19A1.2,1.2,0,0,1,666.82,49.84Z"/><path class="cls-1" d="M680.16,41.91c.76,2.44-1.69,4.7-3.41,5.16l-.11-.12,0,0c1.95-1.28,1.8-2.71,1.05-3.46-.57-.58-1.34-1.06-1.25-1.92a1.33,1.33,0,0,1,.74-1A2.19,2.19,0,0,1,680.16,41.91Zm-.95,4.19a2,2,0,0,1,2.46.33,1.47,1.47,0,0,1,0,2,2,2,0,0,1-2.46.33,8.2,8.2,0,0,0-2.36-1.18.7.7,0,0,0,0-.16.71.71,0,0,0,0-.16A8.2,8.2,0,0,0,679.21,46.09Zm-2.46,1.71c1.73.46,4.17,2.72,3.41,5.16a2.19,2.19,0,0,1-2.95,1.41,1.34,1.34,0,0,1-.74-1c-.1-.85.68-1.34,1.25-1.92.74-.75.89-2.18-1.05-3.46l0,0Zm-1.19.34c-.6,0-1.09-.32-1.09-.71s.49-.7,1.09-.7,1.09.31,1.09.7S676.16,48.14,675.56,48.14Z"/><path class="cls-1" d="M643.89,21.76a1.26,1.26,0,0,1-1.17,0,1.24,1.24,0,0,1-2.48,0,1.26,1.26,0,0,1-1.17,0,1.2,1.2,0,0,1-.55-1.63,1.22,1.22,0,0,1,.19-.27l2.77-2.79h0l2.77,2.79a1.26,1.26,0,0,1,.19.27A1.2,1.2,0,0,1,643.89,21.76Z"/><path class="cls-1" d="M636,8.43c2.44-.76,4.7,1.68,5.16,3.41a.53.53,0,0,0-.12.11l0,0c-1.28-1.95-2.71-1.8-3.46-1.06-.58.57-1.06,1.35-1.92,1.25a1.33,1.33,0,0,1-1-.74A2.18,2.18,0,0,1,636,8.43Zm4.19.95a2,2,0,0,1,.33-2.46,1.47,1.47,0,0,1,2,0,2,2,0,0,1,.33,2.46,8,8,0,0,0-1.18,2.36l-.16,0-.16,0A8.06,8.06,0,0,0,640.14,9.38Zm1.71,2.46c.46-1.73,2.72-4.17,5.16-3.41a2.18,2.18,0,0,1,1.41,2.94,1.33,1.33,0,0,1-1,.74c-.86.1-1.34-.68-1.92-1.25-.75-.74-2.18-.89-3.46,1.06l0,0A.58.58,0,0,0,641.85,11.84Zm.34,1.19c0,.6-.32,1.09-.71,1.09s-.7-.49-.7-1.09.31-1.09.7-1.09S642.19,12.43,642.19,13Z"/><path class="cls-2" d="M615.07,21.76S610.7,19,607.74,22c-2.63,2.63-.3,4.29-.3,4.29a2,2,0,0,0,2.93,0c1.15-1.15.19-2,.19-2a.68.68,0,0,0-1,0c-.52.52.37,1,.37,1a1,1,0,0,1-1-.37c-.56-.55.11-1,.29-1.18s.92-.85,2,.22.15,2.44-.22,2.81-1.92,2-4.15-.22-.18-4.48.52-5.18S611.33,18.24,615.07,21.76Z"/><path class="cls-2" d="M617.11,23.65s-.37.59-1.15.11a3.73,3.73,0,0,0-1.74-.48s1.41-1,2.18-.55S617.15,23.39,617.11,23.65Z"/><path class="cls-2" d="M621.77,28l-7.63-7.62s-2.41-2.11-3-2.19-.27-1.43-.27-1.43,1.36-.32,1.43.27,2.19,3,2.19,3l7.62,7.63Z"/><path class="cls-2" d="M615.86,21s-2.74-4.37.22-7.33c2.63-2.63,4.29-.3,4.29-.3a2,2,0,0,1,0,2.92c-1.15,1.15-2,.18-2,.18a.68.68,0,0,1,0-1c.52-.52,1,.37,1,.37a1,1,0,0,0-.37-1c-.56-.56-1,.11-1.19.3s-.85.93.22,2,2.44.15,2.81-.22,2-1.92-.22-4.15-4.48-.19-5.18.52S612.34,17.24,615.86,21Z"/><path class="cls-2" d="M617.74,23s.59-.37.11-1.15a3.73,3.73,0,0,1-.48-1.74s-1,1.41-.56,2.18S617.49,23,617.74,23Z"/><path class="cls-1" d="M595.06,1.77a2.6,2.6,0,0,0,.61,2.15,2.69,2.69,0,0,0,1.08.61,5.49,5.49,0,0,1,2.89,1.58l.14.13-.34.34-.16-.12a5.47,5.47,0,0,0-1.88-1,2.73,2.73,0,0,0-1.63,0,2.56,2.56,0,0,0-1.62,1.85,2.11,2.11,0,0,0,.68,2.12,1.86,1.86,0,0,0,1.07.43,2.78,2.78,0,0,0,1.48-.31s-.08-.06-.1-.07a2.63,2.63,0,0,1-.53-.47,1.47,1.47,0,0,1-.43-1.22,1.26,1.26,0,0,1,1.18-1,1.86,1.86,0,0,1,1.2.31l.18.13s-.29.28-.4.39a.37.37,0,0,0-.12.19.16.16,0,0,0,0,.14l.72.72s.11.12.17.13a.15.15,0,0,0,.11,0c.19-.16.53-.51.53-.51a1.47,1.47,0,0,1,.33.64,1,1,0,0,1,0,.44.91.91,0,0,1-1.07.62,1.28,1.28,0,0,1-.74-.51s0,0,0,0a2.08,2.08,0,0,0,.27,1.62,1.35,1.35,0,0,0,.42.4,1.74,1.74,0,0,0,1.31.15,1.65,1.65,0,0,0,1-1.07,2.36,2.36,0,0,0-.05-1.34,4.11,4.11,0,0,0-.86-1.5l.35-.35a4,4,0,0,1,1,1.38l0,.11a3.05,3.05,0,0,0,1,1.73,2.24,2.24,0,0,0,1.81.09,2.23,2.23,0,0,0-.09-1.81,3.07,3.07,0,0,0-1.73-1l-.1,0a3.92,3.92,0,0,1-1.38-1l.35-.35a4.07,4.07,0,0,0,1.5.87,2.4,2.4,0,0,0,1.34.05,1.66,1.66,0,0,0,1.07-1A1.73,1.73,0,0,0,605.51,5a1.33,1.33,0,0,0-.4-.42,2.09,2.09,0,0,0-1.62-.28s0,0,0,0a1.28,1.28,0,0,1,.51.74.91.91,0,0,1-.61,1.07.92.92,0,0,1-.44,0,1.46,1.46,0,0,1-.64-.33s.36-.34.52-.54a.15.15,0,0,0,0-.11c0-.07-.09-.13-.13-.17L602,4.32a.17.17,0,0,0-.14,0,.4.4,0,0,0-.19.12l-.4.4-.13-.18a1.85,1.85,0,0,1-.31-1.2,1.26,1.26,0,0,1,1-1.17,1.47,1.47,0,0,1,1.22.43,2.52,2.52,0,0,1,.47.53s.07.11.07.1a2.8,2.8,0,0,0,.31-1.48,1.87,1.87,0,0,0-.43-1.07,2.11,2.11,0,0,0-2.12-.68,2.56,2.56,0,0,0-1.85,1.62,2.72,2.72,0,0,0,0,1.63,5.49,5.49,0,0,0,1,1.88l.12.16-.34.34-.13-.14a5.51,5.51,0,0,1-1.57-2.89A2.74,2.74,0,0,0,598,1.58,2.61,2.61,0,0,0,595.86,1c-.22,0-.49.07-.71.09C595.13,1.27,595.08,1.55,595.06,1.77Z"/><path class="cls-2" d="M623.09,33.53c3.89,3.89,11.67,7.38,11.67,7.38s-3.49-7.78-7.38-11.67-6.71-2.42-6.71-2.42S619.2,29.64,623.09,33.53Z"/><path class="cls-2" d="M615.72,72.93s-2.74,4.37.22,7.33c2.63,2.63,4.29.3,4.29.3a2,2,0,0,0,0-2.92c-1.15-1.15-2-.18-2-.18a.68.68,0,0,0,0,1c.52.52,1-.37,1-.37a1,1,0,0,1-.37,1c-.56.56-1-.11-1.18-.3s-.85-.92.22-2,2.44-.15,2.81.22,2,1.92-.22,4.15-4.48.18-5.18-.52S612.2,76.67,615.72,72.93Z"/><path class="cls-2" d="M617.61,70.89s.59.37.11,1.15a3.73,3.73,0,0,0-.48,1.74s-1-1.41-.55-2.18S617.35,70.86,617.61,70.89Z"/><path class="cls-2" d="M622,66.23l-7.62,7.63s-2.11,2.41-2.18,3-1.43.27-1.43.27-.32-1.36.27-1.43,3-2.19,3-2.19l7.62-7.62Z"/><path class="cls-2" d="M614.93,72.14s-4.37,2.74-7.33-.22c-2.63-2.63-.3-4.29-.3-4.29a2,2,0,0,1,2.92,0c1.15,1.15.18,2,.18,2a.69.69,0,0,1-1,0c-.52-.52.37-1,.37-1a1,1,0,0,0-1,.37c-.56.56.11,1,.3,1.19s.93.85,2-.22.15-2.44-.22-2.81-1.92-2-4.14.22-.19,4.48.52,5.18S611.2,75.66,614.93,72.14Z"/><path class="cls-2" d="M617,70.26s-.37-.59-1.15-.11a3.74,3.74,0,0,1-1.74.48s1.41,1,2.18.56S617,70.51,617,70.26Z"/><path class="cls-1" d="M595.73,92.94a2.6,2.6,0,0,0,2.15-.61,2.74,2.74,0,0,0,.61-1.08,5.49,5.49,0,0,1,1.58-2.89l.13-.14.34.34-.12.16a5.45,5.45,0,0,0-1,1.88,2.72,2.72,0,0,0,0,1.63,2.57,2.57,0,0,0,1.85,1.63,2.11,2.11,0,0,0,2.12-.69,1.88,1.88,0,0,0,.43-1.07,2.8,2.8,0,0,0-.31-1.48s-.06.08-.07.1a2.6,2.6,0,0,1-.47.53,1.46,1.46,0,0,1-1.22.43,1.26,1.26,0,0,1-1-1.17,1.86,1.86,0,0,1,.3-1.2l.13-.18.4.4a.38.38,0,0,0,.19.12.16.16,0,0,0,.14,0l.72-.73s.12-.11.13-.17a.16.16,0,0,0,0-.12c-.16-.19-.52-.53-.52-.53a1.48,1.48,0,0,1,.64-.33,1,1,0,0,1,.44,0,.9.9,0,0,1,.62,1.07,1.28,1.28,0,0,1-.51.74,0,0,0,0,0,0,0,2.09,2.09,0,0,0,1.62-.28,1.36,1.36,0,0,0,.41-.42,1.73,1.73,0,0,0,.15-1.31,1.64,1.64,0,0,0-1.07-1,2.35,2.35,0,0,0-1.34,0,4.15,4.15,0,0,0-1.5.86l-.35-.35a4,4,0,0,1,1.38-1l.1,0a3.05,3.05,0,0,0,1.73-1,2.24,2.24,0,0,0,.09-1.81,2.23,2.23,0,0,0-1.81.09,3.07,3.07,0,0,0-1,1.73l0,.1a3.89,3.89,0,0,1-1,1.38l-.35-.35a4,4,0,0,0,.87-1.5,2.38,2.38,0,0,0,.05-1.34,1.64,1.64,0,0,0-1-1.07,1.72,1.72,0,0,0-1.31.14,1.31,1.31,0,0,0-.42.41,2.08,2.08,0,0,0-.27,1.62,0,0,0,0,0,0,0A1.26,1.26,0,0,1,599,84a.93.93,0,0,1,1.11,1.06,1.48,1.48,0,0,1-.33.64s-.34-.36-.53-.52a.16.16,0,0,0-.12,0c-.07,0-.13.09-.17.13l-.73.73a.15.15,0,0,0,0,.14.37.37,0,0,0,.12.19c.1.11.4.39.4.39l-.18.13a1.85,1.85,0,0,1-1.2.3,1.25,1.25,0,0,1-1.17-1,1.47,1.47,0,0,1,.43-1.22,2.49,2.49,0,0,1,.53-.47s.11-.07.1-.07a2.79,2.79,0,0,0-1.48-.31,1.86,1.86,0,0,0-1.07.43,2.12,2.12,0,0,0-.68,2.12,2.56,2.56,0,0,0,1.63,1.85,2.72,2.72,0,0,0,1.63,0,5.49,5.49,0,0,0,1.88-1l.16-.12.34.34-.14.13a5.5,5.5,0,0,1-2.89,1.58,2.74,2.74,0,0,0-1.08.61,2.59,2.59,0,0,0-.61,2.16c0,.22.07.49.09.71C595.23,92.87,595.51,92.92,595.73,92.94Z"/><path class="cls-2" d="M627.49,64.91c3.89-3.89,7.38-11.67,7.38-11.67s-7.78,3.49-11.67,7.38-2.42,6.71-2.42,6.71S623.6,68.8,627.49,64.91Z"/><path class="cls-2" d="M666.89,72.28s4.37,2.74,7.33-.22c2.62-2.63.3-4.29.3-4.29a2,2,0,0,0-2.93,0c-1.15,1.15-.19,2-.19,2a.69.69,0,0,0,1,0c.52-.52-.37-1-.37-1a1,1,0,0,1,1,.37c.56.56-.11,1-.29,1.18s-.93.85-2-.22-.15-2.44.22-2.81,1.92-2,4.15.22.18,4.48-.52,5.18S670.63,75.8,666.89,72.28Z"/><path class="cls-2" d="M664.85,70.39s.37-.59,1.15-.11a3.72,3.72,0,0,0,1.74.48s-1.41,1-2.18.56S664.81,70.65,664.85,70.39Z"/><path class="cls-2" d="M660.19,66l7.63,7.62s2.41,2.11,3,2.19.27,1.43.27,1.43-1.36.32-1.43-.27-2.18-3-2.18-3l-7.63-7.63Z"/><path class="cls-2" d="M666.1,73.07s2.74,4.37-.22,7.33c-2.63,2.63-4.29.3-4.29.3a2,2,0,0,1,0-2.92c1.15-1.15,2-.19,2-.19a.69.69,0,0,1,0,1c-.52.52-1-.37-1-.37a1,1,0,0,0,.37,1c.55.56,1-.11,1.19-.3s.85-.92-.22-2-2.44-.15-2.81.22-2,1.92.22,4.14,4.48.19,5.18-.52S669.62,76.81,666.1,73.07Z"/><path class="cls-2" d="M664.21,71s-.59.37-.11,1.15a3.72,3.72,0,0,1,.48,1.74s1-1.41.56-2.18S664.47,71,664.21,71Z"/><path class="cls-1" d="M686.9,92.27a2.61,2.61,0,0,0-.61-2.15,2.71,2.71,0,0,0-1.08-.61,5.5,5.5,0,0,1-2.89-1.58l-.14-.13.34-.34.16.12a5.42,5.42,0,0,0,1.88,1,2.7,2.7,0,0,0,1.63,0,2.56,2.56,0,0,0,1.62-1.85,2.11,2.11,0,0,0-.68-2.12,1.86,1.86,0,0,0-1.07-.43,2.78,2.78,0,0,0-1.48.31s.08.06.1.07a2.63,2.63,0,0,1,.53.47,1.47,1.47,0,0,1,.43,1.22,1.26,1.26,0,0,1-1.17,1,1.88,1.88,0,0,1-1.2-.31l-.18-.13s.29-.28.4-.4a.37.37,0,0,0,.12-.19.17.17,0,0,0,0-.14l-.72-.73s-.11-.12-.18-.13a.16.16,0,0,0-.11,0c-.19.16-.53.51-.53.51a1.48,1.48,0,0,1-.33-.64,1,1,0,0,1,0-.44.91.91,0,0,1,1.07-.62,1.27,1.27,0,0,1,.74.51s0,0,0,0a2.08,2.08,0,0,0-.27-1.62,1.32,1.32,0,0,0-.42-.4,1.73,1.73,0,0,0-1.31-.15,1.64,1.64,0,0,0-1,1.07,2.37,2.37,0,0,0,0,1.34,4.1,4.1,0,0,0,.86,1.5l-.35.35a4,4,0,0,1-1-1.38l0-.11a3.05,3.05,0,0,0-1-1.73,2.24,2.24,0,0,0-1.81-.09,2.23,2.23,0,0,0,.09,1.81,3.07,3.07,0,0,0,1.73,1l.1,0a3.91,3.91,0,0,1,1.38,1l-.35.35a4.08,4.08,0,0,0-1.5-.87,2.39,2.39,0,0,0-1.34,0,1.65,1.65,0,0,0-1.07,1,1.73,1.73,0,0,0,.15,1.31,1.37,1.37,0,0,0,.4.42,2.08,2.08,0,0,0,1.62.28s0,0,0,0A1.27,1.27,0,0,1,678,89a.91.91,0,0,1,.61-1.07.94.94,0,0,1,.44,0,1.47,1.47,0,0,1,.64.32s-.36.35-.52.54a.15.15,0,0,0,0,.11c0,.07.09.13.13.17l.72.72a.16.16,0,0,0,.14,0,.41.41,0,0,0,.19-.12c.11-.1.4-.4.4-.4l.13.18a1.84,1.84,0,0,1,.31,1.2,1.26,1.26,0,0,1-1,1.17,1.47,1.47,0,0,1-1.22-.43,2.58,2.58,0,0,1-.47-.53s-.07-.11-.07-.1a2.8,2.8,0,0,0-.31,1.48,1.87,1.87,0,0,0,.43,1.07,2.11,2.11,0,0,0,2.12.69,2.57,2.57,0,0,0,1.85-1.62,2.72,2.72,0,0,0,0-1.63,5.48,5.48,0,0,0-1-1.88l-.12-.16.34-.34.13.14a5.51,5.51,0,0,1,1.58,2.89,2.76,2.76,0,0,0,.61,1.08,2.59,2.59,0,0,0,2.16.61c.22,0,.5-.07.71-.09C686.82,92.77,686.88,92.49,686.9,92.27Z"/><path class="cls-2" d="M658.87,60.51c-3.89-3.89-11.67-7.38-11.67-7.38s3.49,7.78,7.38,11.67,6.71,2.42,6.71,2.42S662.76,64.4,658.87,60.51Z"/><path class="cls-2" d="M666.24,21.11s2.74-4.37-.22-7.33c-2.63-2.63-4.29-.3-4.29-.3a2,2,0,0,0,0,2.92c1.15,1.15,2,.19,2,.19a.69.69,0,0,0,0-1c-.52-.52-1,.37-1,.37a1,1,0,0,1,.37-1c.56-.56,1,.11,1.18.3s.85.92-.22,2-2.44.15-2.81-.22-2-1.92.22-4.15,4.48-.18,5.18.52S669.76,17.37,666.24,21.11Z"/><path class="cls-2" d="M664.35,23.15s-.59-.37-.11-1.15a3.73,3.73,0,0,0,.48-1.74s1,1.41.55,2.18S664.61,23.19,664.35,23.15Z"/><path class="cls-2" d="M660,27.81l7.62-7.63s2.11-2.41,2.18-3,1.43-.28,1.43-.28.32,1.36-.27,1.43-3,2.18-3,2.18l-7.63,7.63Z"/><path class="cls-2" d="M667,21.9s4.37-2.74,7.33.22c2.63,2.63.3,4.29.3,4.29a2,2,0,0,1-2.92,0c-1.15-1.15-.18-2-.18-2a.68.68,0,0,1,1,0c.52.52-.37,1-.37,1a1,1,0,0,0,1-.37c.56-.55-.11-1-.3-1.18s-.92-.85-2,.22-.15,2.44.22,2.81,1.92,2,4.14-.22.19-4.48-.52-5.18S670.76,18.38,667,21.9Z"/><path class="cls-2" d="M665,23.79s.37.59,1.15.11a3.75,3.75,0,0,1,1.74-.48s-1.41-1-2.18-.55S665,23.53,665,23.79Z"/><path class="cls-1" d="M686.23,1.1a2.61,2.61,0,0,0-2.15.61,2.75,2.75,0,0,0-.61,1.08,5.47,5.47,0,0,1-1.58,2.89l-.13.14-.34-.34.12-.16a5.47,5.47,0,0,0,1-1.88,2.73,2.73,0,0,0,0-1.63A2.57,2.57,0,0,0,680.71.2a2.11,2.11,0,0,0-2.12.68,1.89,1.89,0,0,0-.43,1.07,2.8,2.8,0,0,0,.31,1.48s.06-.08.07-.1A2.72,2.72,0,0,1,679,2.8a1.47,1.47,0,0,1,1.22-.43,1.26,1.26,0,0,1,1,1.18,1.87,1.87,0,0,1-.31,1.2l-.13.18-.39-.4a.4.4,0,0,0-.19-.12.17.17,0,0,0-.14,0l-.72.72s-.12.11-.13.18a.16.16,0,0,0,0,.11c.16.19.52.53.52.53a1.5,1.5,0,0,1-.64.33,1,1,0,0,1-.44,0,.91.91,0,0,1-.62-1.07,1.28,1.28,0,0,1,.51-.74s0,0,0,0a2.08,2.08,0,0,0-1.62.28,1.39,1.39,0,0,0-.41.42,1.73,1.73,0,0,0-.15,1.31,1.64,1.64,0,0,0,1.07,1,2.37,2.37,0,0,0,1.34,0,4.13,4.13,0,0,0,1.5-.86l.35.35a4,4,0,0,1-1.38,1l-.1,0a3,3,0,0,0-1.73,1,2.24,2.24,0,0,0-.09,1.81,2.24,2.24,0,0,0,1.82-.09,3.07,3.07,0,0,0,1-1.72l0-.11a3.91,3.91,0,0,1,1-1.38l.35.35a4,4,0,0,0-.87,1.5,2.37,2.37,0,0,0-.05,1.34,1.64,1.64,0,0,0,1,1.07,1.71,1.71,0,0,0,1.31-.15,1.32,1.32,0,0,0,.42-.4,2.08,2.08,0,0,0,.27-1.62,0,0,0,0,0,0,0,1.27,1.27,0,0,1-.74.51.9.9,0,0,1-1.07-.61.89.89,0,0,1,0-.44,1.5,1.5,0,0,1,.33-.64s.34.36.54.52a.15.15,0,0,0,.11,0c.07,0,.13-.09.17-.13l.73-.72a.15.15,0,0,0,0-.14.4.4,0,0,0-.12-.19c-.1-.11-.4-.39-.4-.39l.18-.13a1.85,1.85,0,0,1,1.2-.31,1.26,1.26,0,0,1,1.17,1,1.46,1.46,0,0,1-.43,1.22,2.41,2.41,0,0,1-.53.47s-.11.07-.1.08a2.82,2.82,0,0,0,1.48.31,1.87,1.87,0,0,0,1.07-.43,2.11,2.11,0,0,0,.68-2.12,2.56,2.56,0,0,0-1.63-1.85,2.69,2.69,0,0,0-1.63,0,5.44,5.44,0,0,0-1.88,1l-.16.12-.34-.34.14-.13a5.51,5.51,0,0,1,2.89-1.58,2.75,2.75,0,0,0,1.08-.61A2.6,2.6,0,0,0,687,1.9c0-.22-.07-.49-.09-.71C686.73,1.18,686.45,1.12,686.23,1.1Z"/><path class="cls-2" d="M654.47,29.13c-3.89,3.89-7.39,11.67-7.39,11.67s7.78-3.49,11.67-7.38,2.42-6.71,2.42-6.71S658.36,25.24,654.47,29.13Z"/><rect class="cls-2" x="637.47" y="43.92" width="7.43" height="7.43" transform="translate(154.15 467.38) rotate(-45)"/></g><g id="ornamentos"><line class="cls-3" x1="8.09" y1="52.82" x2="526" y2="52.82"/><circle class="cls-4" cx="8.52" cy="52.82" r="7.52"/><path class="cls-2" d="M8.52,61.34A8.52,8.52,0,1,0,0,52.82a8.53,8.53,0,0,0,8.52,8.52Zm0-15A6.52,6.52,0,1,1,2,52.82,6.53,6.53,0,0,1,8.52,46.3Z"/><line class="cls-3" x1="754" y1="50.82" x2="1271.91" y2="50.82"/><circle class="cls-4" cx="1271.48" cy="50.82" r="7.52"/><path class="cls-2" d="M1271.48,59.34a8.52,8.52,0,1,1,8.52-8.52,8.53,8.53,0,0,1-8.52,8.52Zm0-15a6.52,6.52,0,1,0,6.52,6.52,6.53,6.53,0,0,0-6.52-6.52Z"/></g></g></svg>