<svg xmlns="http://www.w3.org/2000/svg" viewBox="0 0 641.52 79.9"><defs><style>.cls-1,.cls-2{fill:#050505;}.cls-2{stroke:#532f24;stroke-linecap:round;stroke-miterlimit:10;stroke-width:2.13px;}</style></defs><title>Tras_deco_titulo</title><g id="Layer_2" data-name="Layer 2"><g id="imagen_suelta"><path class="cls-1" d="M358.86,74.36a93.18,93.18,0,0,0,11.42-.63c3.92-.39,7.75-.79,11.58-1.27s7.75-.95,11.58-1.27a113.48,113.48,0,0,1,11.67-.32,67.62,67.62,0,0,1,9.54.55A39.21,39.21,0,0,1,423,73.33,7.72,7.72,0,0,0,420,66.28a18.6,18.6,0,0,0-8.24-3.73c1.55-2.77,1.88-4.76.9-5.95s-2.69-1.74-5.06-1.43a10.18,10.18,0,0,0-4,1.11c-1.14.63-2.37,1.27-3.76,1.91a10.07,10.07,0,0,1,1.63-4c.82-1.11,1.14-2.06.82-2.77A2.46,2.46,0,0,0,400,49.63a9.11,9.11,0,0,0-4.73,1.27,19.27,19.27,0,0,0-4.9,2.7c-1.63,1.34-3.18,2.69-4.73,4.12s-2.77,2.86-4.08,4.28-2.28,2.54-3.1,3.41a15.63,15.63,0,0,1-6,3.65,19.27,19.27,0,0,1-6.2,1.43c-.57-.16-.9-.72-1.06-1.83s.16-1.74.81-2.06c4.25-2.3,6.86-5.47,7.83-9.59a42.93,42.93,0,0,0,.65-4.36,51,51,0,0,1,.49-5.08,17,17,0,0,1,1-4.12c.41-1.19,1.06-1.74,2-1.74a.87.87,0,0,1,.9.48,4.82,4.82,0,0,0,.57,1.11,3.81,3.81,0,0,0,1.22,1,3.65,3.65,0,0,0,2.2.23,4,4,0,0,0,2-1.43,3.18,3.18,0,0,0,.65-3.09,6.52,6.52,0,0,0-2.61-4.36,6,6,0,0,0-5-1.35,9.76,9.76,0,0,0-6.2,3.49,19,19,0,0,0-2.94,5.71c-.57,2.06-1.06,4-1.39,5.79s-.65,3.09-1.23,3.57-1.47.56-2.85.48-2.69-.24-4.16-.32a10.81,10.81,0,0,0-4.24.56,4.66,4.66,0,0,0-2.61,3.64,3.88,3.88,0,0,0,.41,3.17,12.09,12.09,0,0,0,2.2,2.46,18.35,18.35,0,0,0,2.94,1.9,11.42,11.42,0,0,1,2.61,1.83A4.77,4.77,0,0,1,361.71,69c.16,1-.24,1.51-1.23,1.51A40.49,40.49,0,0,1,346.54,69a36.84,36.84,0,0,1-11.66-5.71,30.45,30.45,0,0,1-8.24-9.51,33,33,0,0,1-3.75-12.68h2.53a6.77,6.77,0,0,0,2.85,4.12A8.43,8.43,0,0,0,333,46.62a7.94,7.94,0,0,0,5.3-2.06,6.25,6.25,0,0,0,2.28-5.31,8,8,0,0,0-2.45-5.55A7.86,7.86,0,0,0,328,33a5.78,5.78,0,0,0-2.61,3.81h-2.78a29.93,29.93,0,0,1,2.53-11.57,27.18,27.18,0,0,1,6-8.48A24.47,24.47,0,0,1,339,11.49,22.14,22.14,0,0,1,347.92,10a15.49,15.49,0,0,1,8.16,2.77A7.68,7.68,0,0,1,359.67,20a7.67,7.67,0,0,1-1.22,4.2,4.25,4.25,0,0,1-3.83,2,2,2,0,0,1-1.79-1.43,9.56,9.56,0,0,0-.73-2.3,2.85,2.85,0,0,0-1.55-1.51,2.68,2.68,0,0,0-2.2-.08,2.82,2.82,0,0,0-2,1.27,7.13,7.13,0,0,0-.9,2.62,8.32,8.32,0,0,0,1.79,5.71,7,7,0,0,0,5.55,3.09,13.28,13.28,0,0,0,9.05-3.88,12.4,12.4,0,0,0,3.75-10.47,18.36,18.36,0,0,0-3.34-9.28,19.64,19.64,0,0,0-6.69-5.63,23.51,23.51,0,0,0-8.73-2.45,33.09,33.09,0,0,0-9,.39A5.84,5.84,0,0,0,336.26.63,5.73,5.73,0,0,0,333,0a4,4,0,0,0-3.18,1.43,27.26,27.26,0,0,0-2.28,3A48.13,48.13,0,0,0,321.42,21a90.43,90.43,0,0,0-1.47,18.63,35.25,35.25,0,0,0,3.18,14.19,31.76,31.76,0,0,0,8.16,11A35.37,35.37,0,0,0,343.6,71.9a45.13,45.13,0,0,0,15.26,2.46Zm-82.06,0A45.13,45.13,0,0,0,292,71.9a35.38,35.38,0,0,0,12.32-7.05,32,32,0,0,0,8.24-11,35.17,35.17,0,0,0,3.1-14.19A90.62,90.62,0,0,0,314.24,21a49.63,49.63,0,0,0-5.87-16.57,16.78,16.78,0,0,0-2.45-3A4.28,4.28,0,0,0,302.65,0c-2.37,0-3.92.71-4.81,2.22a34.18,34.18,0,0,0-9.06-.39,22.69,22.69,0,0,0-8.57,2.45,20.18,20.18,0,0,0-6.85,5.63,16.32,16.32,0,0,0-3.26,9.28q-.49,6.54,3.92,10.47c2.85,2.53,5.79,3.88,8.89,3.88a6.71,6.71,0,0,0,5.47-3.09,9.91,9.91,0,0,0,1.88-5.71,7,7,0,0,0-.82-2.62,2.4,2.4,0,0,0-1.88-1.27,3.16,3.16,0,0,0-3.83,1.59,7.62,7.62,0,0,0-.9,2.37,1.55,1.55,0,0,1-1.55,1.35,4.16,4.16,0,0,1-3.83-2A9.63,9.63,0,0,1,276,20a8.26,8.26,0,0,1,3.67-7.22A15,15,0,0,1,287.72,10a21.68,21.68,0,0,1,8.89,1.51,25.65,25.65,0,0,1,8,5.23,28.41,28.41,0,0,1,5.87,8.48A30,30,0,0,1,313,36.78h-2.77A5.78,5.78,0,0,0,307.63,33a8,8,0,0,0-4.73-1.5,8.62,8.62,0,0,0-5.38,2.22,7.24,7.24,0,0,0-2.2,5.55,6.41,6.41,0,0,0,2.2,5.31,8.3,8.3,0,0,0,5.38,2.06,8.78,8.78,0,0,0,4.65-1.43,6.59,6.59,0,0,0,2.94-4.12H313a31.67,31.67,0,0,1-3.83,12.68,28.47,28.47,0,0,1-8.24,9.51A39.1,39.1,0,0,1,289,69a41.66,41.66,0,0,1-14.11,1.51c-.82,0-1.14-.48-.9-1.51a4.15,4.15,0,0,1,1.14-2.38,11.31,11.31,0,0,1,2.61-1.9,27.11,27.11,0,0,0,2.94-2,8.46,8.46,0,0,0,2.2-2.3,3.88,3.88,0,0,0,.41-3.17c-.41-1.9-1.22-3.09-2.53-3.64a10,10,0,0,0-4.16-.56c-1.55.08-3,.16-4.32.32a4.19,4.19,0,0,1-2.86-.48q-.85-.71-1.22-3.57a44.94,44.94,0,0,0-1.39-5.79,17.56,17.56,0,0,0-3-5.71,10.23,10.23,0,0,0-6.12-3.49,6,6,0,0,0-5,1.35A6.51,6.51,0,0,0,250.12,40a3.39,3.39,0,0,0,.65,3.09,3.88,3.88,0,0,0,2.12,1.43,4,4,0,0,0,2.28-.23,2.41,2.41,0,0,0,1.14-1c.24-.4.41-.79.57-1.11s.41-.48.82-.48a2.34,2.34,0,0,1,2.2,1.74A16.92,16.92,0,0,1,261,47.57c.16,1.67.33,3.33.49,5.08a42.93,42.93,0,0,0,.65,4.36,12.25,12.25,0,0,0,2.69,5.55,20.71,20.71,0,0,0,5.06,4c.57.32.82,1,.65,2.06s-.49,1.67-1.06,1.83a19.29,19.29,0,0,1-6.2-1.43,14.7,14.7,0,0,1-6-3.65c-.9-.95-2-2.14-3.18-3.48s-2.61-2.77-4.08-4.21-3.1-2.77-4.73-4.12a19.26,19.26,0,0,0-4.89-2.7,9.12,9.12,0,0,0-4.73-1.27,2.46,2.46,0,0,0-2.36,1.83,3.51,3.51,0,0,0,1.06,2.77,8.69,8.69,0,0,1,1.47,4c-1.39-.64-2.69-1.27-3.83-1.91a9.82,9.82,0,0,0-4-1.11c-2.37-.32-4.08.16-5.06,1.43s-.65,3.17.9,5.95a18.59,18.59,0,0,0-8.24,3.73,7.91,7.91,0,0,0-2.94,7.06,43.79,43.79,0,0,1,8.57-1.91,67.62,67.62,0,0,1,9.54-.55,113.46,113.46,0,0,1,11.67.32c3.83.32,7.67.79,11.58,1.27s7.67.87,11.42,1.27a91.85,91.85,0,0,0,11.34.63Zm87.28-14.27c-.82,0-1.23-.4-1.23-1,0-.87.41-1.27,1.23-1.27s1.3.4,1.3,1.27c0,.63-.41,1-1.3,1Z"/><line class="cls-2" x1="1.06" y1="78.84" x2="640.46" y2="78.84"/></g></g></svg>