<svg xmlns="http://www.w3.org/2000/svg" viewBox="0 0 884.02 30.81"><defs><style>.cls-1{fill:#3c2415;}</style></defs><title>Calle_ornamento_titulo_superior</title><g id="Layer_2" data-name="Layer 2"><g id="ornamentos"><path class="cls-1" d="M14.32,9.21s.29-2.74-1.14-2.74c-1.06,0-.85-1.11-.85-1.11s.08-1.47-1.7-.8A1.14,1.14,0,0,1,12.46,4s.35-.36.24-.61a1.19,1.19,0,0,1,.8,1.39s.35.83.45-.08a1.89,1.89,0,0,0-.75-1.55.93.93,0,0,1,.21-1.16s.08.39.32.5c0,0-.4-.42.75-1.8h0c1.14,1.39.75,1.8.75,1.8.24-.11.32-.5.32-.5a.93.93,0,0,1,.21,1.16A1.89,1.89,0,0,0,15,4.68c.11.91.45.08.45.08a1.19,1.19,0,0,1,.8-1.39c-.11.25.24.61.24.61a1.14,1.14,0,0,1,1.84.58c-1.78-.67-1.7.8-1.7.8s.21,1.11-.85,1.11c-1.44,0-1.14,2.74-1.14,2.74S14.45,9.35,14.32,9.21Z"/><path class="cls-1" d="M8.23,15.9s-2.63-.3-2.63,1.19A.84.84,0,0,1,4.53,18s-1.41-.08-.77,1.77a1.21,1.21,0,0,1-.56-1.91s-.35-.36-.59-.25a1.16,1.16,0,0,1,1.33-.83s.8-.36-.08-.47a1.79,1.79,0,0,0-1.49.78.84.84,0,0,1-1.12-.22s.37-.08.48-.33c0,0-.4.42-1.73-.78H0c1.33-1.19,1.73-.78,1.73-.78-.11-.25-.48-.33-.48-.33a.84.84,0,0,1,1.12-.22,1.79,1.79,0,0,0,1.49.78c.88-.11.08-.47.08-.47a1.16,1.16,0,0,1-1.33-.83c.24.11.59-.25.59-.25a1.21,1.21,0,0,1,.56-1.91c-.64,1.86.77,1.77.77,1.77a.84.84,0,0,1,1.06.89c0,1.5,2.64,1.19,2.64,1.19S8.36,15.77,8.23,15.9Z"/><path class="cls-1" d="M14.65,22.25S14.36,25,15.79,25c1.06,0,.85,1.11.85,1.11s-.08,1.47,1.7.8a1.14,1.14,0,0,1-1.84.58s-.35.36-.24.61a1.19,1.19,0,0,1-.8-1.39s-.35-.83-.45.08a1.89,1.89,0,0,0,.75,1.55.93.93,0,0,1-.21,1.16s-.08-.39-.32-.5c0,0,.4.42-.75,1.8h0c-1.14-1.39-.75-1.8-.75-1.8-.24.11-.32.5-.32.5a.93.93,0,0,1-.21-1.16A1.89,1.89,0,0,0,14,26.78c-.11-.92-.45-.08-.45-.08a1.19,1.19,0,0,1-.8,1.39c.11-.25-.24-.61-.24-.61a1.14,1.14,0,0,1-1.84-.58c1.78.67,1.7-.8,1.7-.8S12.11,25,13.18,25c1.44,0,1.15-2.74,1.15-2.74S14.52,22.11,14.65,22.25Z"/><path class="cls-1" d="M20.75,15.56s2.64.31,2.64-1.19a.84.84,0,0,1,1.06-.89s1.41.08.77-1.77a1.21,1.21,0,0,1,.56,1.91s.35.36.59.25A1.16,1.16,0,0,1,25,14.7s-.8.36.08.47a1.79,1.79,0,0,0,1.49-.78.84.84,0,0,1,1.12.22s-.37.08-.48.33c0,0,.4-.42,1.73.78h0c-1.33,1.19-1.73.78-1.73.78.11.25.48.33.48.33a.84.84,0,0,1-1.12.22,1.78,1.78,0,0,0-1.49-.78c-.88.11-.08.47-.08.47a1.16,1.16,0,0,1,1.33.83c-.24-.11-.59.25-.59.25a1.21,1.21,0,0,1-.56,1.91c.64-1.86-.77-1.77-.77-1.77a.84.84,0,0,1-1.06-.89c0-1.5-2.64-1.19-2.64-1.19S20.61,15.69,20.75,15.56Z"/><path class="cls-1" d="M11.09,10.48a.58.58,0,0,1,0,.62A2.22,2.22,0,0,0,9.7,9.26c-.34,0-.09.63-.09.63a2.49,2.49,0,0,0-2.1-1.38,2.62,2.62,0,0,0,1.33,2.19s-.63-.26-.6.09A2.19,2.19,0,0,0,10,12.27a.53.53,0,0,1-.59,0,1.43,1.43,0,0,0,.78,1.09.83.83,0,0,0,1.29-.26.62.62,0,0,1,0-.1.28.28,0,0,1,0,.1,2,2,0,0,0,.61,1.38c.6.7,1,0,1,0a4.77,4.77,0,0,1,.4.48l.17-.17a4.66,4.66,0,0,1-.47-.41s.69-.42,0-1.05a1.82,1.82,0,0,0-1.32-.63l-.09,0h.1c.28-.09.67-.62.25-1.35S11.09,10.48,11.09,10.48Z"/><path class="cls-1" d="M9.45,19.28a.52.52,0,0,1,.59,0,2.19,2.19,0,0,0-1.77,1.49c0,.35.6.09.6.09A2.62,2.62,0,0,0,7.55,23a2.49,2.49,0,0,0,2.1-1.38s-.25.65.09.63a2.22,2.22,0,0,0,1.43-1.84.58.58,0,0,1,0,.62s.58,0,1.05-.81,0-1.26-.25-1.35h0a1.84,1.84,0,0,0,1.32-.63c.67-.63,0-1,0-1a4.72,4.72,0,0,1,.47-.41l-.17-.17a4.72,4.72,0,0,1-.4.49s-.4-.72-1,0a2,2,0,0,0-.6,1.37.26.26,0,0,1,0,.1.68.68,0,0,1,0-.1c-.09-.29-.6-.7-1.29-.26A1.43,1.43,0,0,0,9.45,19.28Z"/><path class="cls-1" d="M17.89,21a.58.58,0,0,1,0-.62,2.22,2.22,0,0,0,1.43,1.84c.34,0,.09-.63.09-.63A2.49,2.49,0,0,0,21.48,23a2.62,2.62,0,0,0-1.33-2.19s.63.26.6-.09A2.19,2.19,0,0,0,19,19.19a.52.52,0,0,1,.59,0,1.43,1.43,0,0,0-.78-1.09c-.7-.44-1.21,0-1.29.26a.6.6,0,0,1,0,.1.27.27,0,0,1,0-.1A2,2,0,0,0,16.9,17c-.6-.7-1,0-1,0a4.79,4.79,0,0,1-.4-.48l-.17.17a4.71,4.71,0,0,1,.47.41s-.69.42,0,1.05a1.82,1.82,0,0,0,1.32.63l.09,0h-.1c-.28.09-.67.62-.25,1.35S17.89,21,17.89,21Z"/><path class="cls-1" d="M19.54,12.19a.53.53,0,0,1-.59,0,2.19,2.19,0,0,0,1.77-1.49c0-.35-.6-.09-.6-.09a2.62,2.62,0,0,0,1.33-2.19,2.48,2.48,0,0,0-2.1,1.38s.25-.65-.09-.63a2.22,2.22,0,0,0-1.43,1.84.58.58,0,0,1,0-.62s-.58,0-1.05.81,0,1.26.25,1.35h0a1.84,1.84,0,0,0-1.32.63c-.67.63,0,1,0,1a4.74,4.74,0,0,1-.47.41l.17.17a4.85,4.85,0,0,1,.4-.48s.41.72,1,0a2,2,0,0,0,.6-1.37.27.27,0,0,1,0-.1.7.7,0,0,1,0,.1c.09.29.6.7,1.29.26A1.42,1.42,0,0,0,19.54,12.19Z"/><ellipse class="cls-1" cx="21.51" cy="23.04" rx="0.52" ry="0.54"/><ellipse class="cls-1" cx="21.51" cy="8.43" rx="0.52" ry="0.54"/><ellipse class="cls-1" cx="7.48" cy="8.43" rx="0.52" ry="0.54"/><ellipse class="cls-1" cx="7.48" cy="23.04" rx="0.52" ry="0.54"/><ellipse class="cls-1" cx="14.53" cy="15.78" rx="1.2" ry="1.25"/><path class="cls-1" d="M136.47,9.12s.29-2.74-1.14-2.74c-1.06,0-.85-1.11-.85-1.11s.08-1.47-1.7-.8a1.14,1.14,0,0,1,1.84-.58s.35-.36.24-.61a1.19,1.19,0,0,1,.8,1.39s.35.83.45-.08A1.89,1.89,0,0,0,135.35,3a.93.93,0,0,1,.21-1.16s.08.39.32.5c0,0-.4-.42.75-1.8h0c1.14,1.39.75,1.8.75,1.8.24-.11.32-.5.32-.5A.93.93,0,0,1,137.92,3a1.89,1.89,0,0,0-.75,1.55c.11.91.45.08.45.08a1.19,1.19,0,0,1,.8-1.39c-.11.25.24.61.24.61a1.14,1.14,0,0,1,1.84.58c-1.78-.67-1.7.8-1.7.8s.21,1.11-.85,1.11c-1.44,0-1.14,2.74-1.14,2.74S136.6,9.26,136.47,9.12Z"/><path class="cls-1" d="M130.38,15.81s-2.63-.3-2.63,1.19a.84.84,0,0,1-1.07.89s-1.41-.08-.77,1.77a1.21,1.21,0,0,1-.56-1.91s-.35-.36-.59-.25a1.16,1.16,0,0,1,1.33-.83s.8-.36-.08-.47a1.79,1.79,0,0,0-1.49.78.84.84,0,0,1-1.12-.22s.37-.08.48-.33c0,0-.4.42-1.73-.78h0c1.33-1.19,1.73-.78,1.73-.78-.11-.25-.48-.33-.48-.33a.84.84,0,0,1,1.12-.22,1.79,1.79,0,0,0,1.49.78c.88-.11.08-.47.08-.47a1.16,1.16,0,0,1-1.33-.83c.24.11.59-.25.59-.25a1.21,1.21,0,0,1,.56-1.91c-.64,1.86.77,1.77.77,1.77a.84.84,0,0,1,1.06.89c0,1.5,2.64,1.19,2.64,1.19S130.51,15.67,130.38,15.81Z"/><path class="cls-1" d="M136.8,22.15s-.29,2.74,1.14,2.74c1.06,0,.85,1.11.85,1.11s-.08,1.47,1.7.8a1.14,1.14,0,0,1-1.84.58s-.35.36-.24.61a1.19,1.19,0,0,1-.8-1.39s-.35-.83-.45.08a1.89,1.89,0,0,0,.75,1.55.93.93,0,0,1-.21,1.16s-.08-.39-.32-.5c0,0,.4.42-.75,1.8h0c-1.14-1.39-.75-1.8-.75-1.8-.24.11-.32.5-.32.5a.93.93,0,0,1-.21-1.16,1.89,1.89,0,0,0,.75-1.55c-.11-.92-.45-.08-.45-.08a1.19,1.19,0,0,1-.8,1.39c.11-.25-.24-.61-.24-.61a1.14,1.14,0,0,1-1.84-.58c1.78.67,1.7-.8,1.7-.8s-.21-1.11.85-1.11c1.44,0,1.15-2.74,1.15-2.74S136.67,22,136.8,22.15Z"/><path class="cls-1" d="M142.9,15.47s2.64.31,2.64-1.19a.84.84,0,0,1,1.06-.89s1.41.08.77-1.77a1.21,1.21,0,0,1,.56,1.91s.35.36.59.25a1.16,1.16,0,0,1-1.33.83s-.8.36.08.47a1.79,1.79,0,0,0,1.49-.78.84.84,0,0,1,1.12.22s-.37.08-.48.33c0,0,.4-.42,1.73.78h0c-1.33,1.19-1.73.78-1.73.78.11.25.48.33.48.33a.84.84,0,0,1-1.12.22,1.78,1.78,0,0,0-1.49-.78c-.88.11-.08.47-.08.47a1.16,1.16,0,0,1,1.33.83c-.24-.11-.59.25-.59.25a1.21,1.21,0,0,1-.56,1.91c.64-1.86-.77-1.77-.77-1.77a.84.84,0,0,1-1.06-.89c0-1.5-2.64-1.19-2.64-1.19S142.76,15.6,142.9,15.47Z"/><path class="cls-1" d="M133.24,10.39a.58.58,0,0,1,0,.62,2.22,2.22,0,0,0-1.43-1.84c-.34,0-.09.63-.09.63a2.49,2.49,0,0,0-2.1-1.38A2.62,2.62,0,0,0,131,10.6s-.63-.26-.6.09a2.19,2.19,0,0,0,1.77,1.49.53.53,0,0,1-.59,0,1.43,1.43,0,0,0,.78,1.09.83.83,0,0,0,1.29-.26.62.62,0,0,1,0-.1.28.28,0,0,1,0,.1,2,2,0,0,0,.61,1.38c.6.7,1,0,1,0a4.77,4.77,0,0,1,.4.48l.17-.17a4.66,4.66,0,0,1-.47-.41s.69-.42,0-1.05a1.82,1.82,0,0,0-1.32-.63l-.09,0h.1c.28-.09.67-.62.25-1.35S133.24,10.39,133.24,10.39Z"/><path class="cls-1" d="M131.6,19.18a.52.52,0,0,1,.59,0,2.19,2.19,0,0,0-1.77,1.49c0,.35.6.09.6.09a2.62,2.62,0,0,0-1.33,2.19,2.49,2.49,0,0,0,2.1-1.38s-.25.65.09.63a2.22,2.22,0,0,0,1.43-1.84.58.58,0,0,1,0,.62s.58,0,1.05-.81,0-1.26-.25-1.35h0a1.84,1.84,0,0,0,1.32-.63c.67-.63,0-1,0-1a4.72,4.72,0,0,1,.47-.41l-.17-.17a4.72,4.72,0,0,1-.4.49s-.4-.72-1,0a2,2,0,0,0-.6,1.37.26.26,0,0,1,0,.1.68.68,0,0,1,0-.1c-.09-.29-.6-.7-1.29-.26A1.43,1.43,0,0,0,131.6,19.18Z"/><path class="cls-1" d="M140,20.89a.58.58,0,0,1,0-.62,2.22,2.22,0,0,0,1.43,1.84c.34,0,.09-.63.09-.63a2.49,2.49,0,0,0,2.1,1.38,2.62,2.62,0,0,0-1.33-2.19s.63.26.6-.09a2.19,2.19,0,0,0-1.77-1.49.52.52,0,0,1,.59,0,1.43,1.43,0,0,0-.78-1.09c-.7-.44-1.21,0-1.29.26a.6.6,0,0,1,0,.1.27.27,0,0,1,0-.1,2,2,0,0,0-.61-1.38c-.6-.7-1,0-1,0a4.79,4.79,0,0,1-.4-.48l-.17.17a4.71,4.71,0,0,1,.47.41s-.69.42,0,1.05a1.82,1.82,0,0,0,1.32.63l.09,0h-.1c-.28.09-.67.62-.25,1.35S140,20.89,140,20.89Z"/><path class="cls-1" d="M141.69,12.1a.53.53,0,0,1-.59,0,2.19,2.19,0,0,0,1.77-1.49c0-.35-.6-.09-.6-.09a2.62,2.62,0,0,0,1.33-2.19,2.48,2.48,0,0,0-2.1,1.38s.25-.65-.09-.63A2.22,2.22,0,0,0,140,11a.58.58,0,0,1,0-.62s-.58,0-1.05.81,0,1.26.25,1.35h0a1.84,1.84,0,0,0-1.32.63c-.67.63,0,1,0,1a4.74,4.74,0,0,1-.47.41l.17.17a4.85,4.85,0,0,1,.4-.48s.41.72,1,0a2,2,0,0,0,.6-1.37.27.27,0,0,1,0-.1.7.7,0,0,1,0,.1c.09.29.6.7,1.29.26A1.42,1.42,0,0,0,141.69,12.1Z"/><ellipse class="cls-1" cx="143.66" cy="22.95" rx="0.52" ry="0.54"/><ellipse class="cls-1" cx="143.66" cy="8.34" rx="0.52" ry="0.54"/><ellipse class="cls-1" cx="129.63" cy="8.34" rx="0.52" ry="0.54"/><ellipse class="cls-1" cx="129.63" cy="22.95" rx="0.52" ry="0.54"/><ellipse class="cls-1" cx="136.68" cy="15.69" rx="1.2" ry="1.25"/><path class="cls-1" d="M258.62,9s.29-2.74-1.14-2.74c-1.06,0-.85-1.11-.85-1.11s.08-1.47-1.7-.8a1.14,1.14,0,0,1,1.84-.58s.35-.36.24-.61a1.19,1.19,0,0,1,.8,1.39s.35.83.45-.08a1.89,1.89,0,0,0-.75-1.55.93.93,0,0,1,.21-1.16s.08.39.32.5c0,0-.4-.42.75-1.8h0c1.14,1.39.75,1.8.75,1.8.24-.11.32-.5.32-.5a.93.93,0,0,1,.21,1.16,1.89,1.89,0,0,0-.75,1.55c.11.91.45.08.45.08a1.19,1.19,0,0,1,.8-1.39c-.11.25.24.61.24.61a1.14,1.14,0,0,1,1.84.58c-1.78-.67-1.7.8-1.7.8s.21,1.11-.85,1.11c-1.44,0-1.14,2.74-1.14,2.74S258.75,9.16,258.62,9Z"/><path class="cls-1" d="M252.53,15.71s-2.63-.3-2.63,1.19a.84.84,0,0,1-1.07.89s-1.41-.08-.77,1.77a1.21,1.21,0,0,1-.56-1.91s-.35-.36-.59-.25a1.16,1.16,0,0,1,1.33-.83s.8-.36-.08-.47a1.79,1.79,0,0,0-1.49.78.84.84,0,0,1-1.12-.22s.37-.08.48-.33c0,0-.4.42-1.73-.78h0c1.33-1.19,1.73-.78,1.73-.78-.11-.25-.48-.33-.48-.33a.84.84,0,0,1,1.12-.22,1.79,1.79,0,0,0,1.49.78c.88-.11.08-.47.08-.47a1.16,1.16,0,0,1-1.33-.83c.24.11.59-.25.59-.25a1.21,1.21,0,0,1,.56-1.91c-.64,1.86.77,1.77.77,1.77a.84.84,0,0,1,1.06.89c0,1.5,2.64,1.19,2.64,1.19S252.66,15.58,252.53,15.71Z"/><path class="cls-1" d="M258.95,22.06s-.29,2.74,1.14,2.74c1.06,0,.85,1.11.85,1.11s-.08,1.47,1.7.8a1.14,1.14,0,0,1-1.84.58s-.35.36-.24.61a1.19,1.19,0,0,1-.8-1.39s-.35-.83-.45.08a1.89,1.89,0,0,0,.75,1.55.93.93,0,0,1-.21,1.16s-.08-.39-.32-.5c0,0,.4.42-.75,1.8h0c-1.14-1.39-.75-1.8-.75-1.8-.24.11-.32.5-.32.5a.93.93,0,0,1-.21-1.16,1.89,1.89,0,0,0,.75-1.55c-.11-.92-.45-.08-.45-.08a1.19,1.19,0,0,1-.8,1.39c.11-.25-.24-.61-.24-.61a1.14,1.14,0,0,1-1.84-.58c1.78.67,1.7-.8,1.7-.8s-.21-1.11.85-1.11c1.44,0,1.15-2.74,1.15-2.74S258.82,21.92,258.95,22.06Z"/><path class="cls-1" d="M265,15.37s2.64.31,2.64-1.19a.84.84,0,0,1,1.06-.89s1.41.08.77-1.77a1.21,1.21,0,0,1,.56,1.91s.35.36.59.25a1.16,1.16,0,0,1-1.33.83s-.8.36.08.47a1.79,1.79,0,0,0,1.49-.78.84.84,0,0,1,1.12.22s-.37.08-.48.33c0,0,.4-.42,1.73.78h0c-1.33,1.19-1.73.78-1.73.78.11.25.48.33.48.33a.84.84,0,0,1-1.12.22,1.78,1.78,0,0,0-1.49-.78c-.88.11-.08.47-.08.47a1.16,1.16,0,0,1,1.33.83c-.24-.11-.59.25-.59.25a1.21,1.21,0,0,1-.56,1.91c.64-1.86-.77-1.77-.77-1.77a.84.84,0,0,1-1.06-.89c0-1.5-2.64-1.19-2.64-1.19S264.91,15.51,265,15.37Z"/><path class="cls-1" d="M255.39,10.3a.58.58,0,0,1,0,.62A2.22,2.22,0,0,0,254,9.08c-.34,0-.09.63-.09.63a2.49,2.49,0,0,0-2.1-1.38,2.62,2.62,0,0,0,1.33,2.19s-.63-.26-.6.09a2.19,2.19,0,0,0,1.77,1.49.53.53,0,0,1-.59,0,1.43,1.43,0,0,0,.78,1.09.83.83,0,0,0,1.29-.26.62.62,0,0,1,0-.1.28.28,0,0,1,0,.1,2,2,0,0,0,.61,1.38c.6.7,1,0,1,0a4.77,4.77,0,0,1,.4.48l.17-.17a4.66,4.66,0,0,1-.47-.41s.69-.42,0-1.05a1.82,1.82,0,0,0-1.32-.63l-.09,0h.1c.28-.09.67-.62.25-1.35S255.39,10.3,255.39,10.3Z"/><path class="cls-1" d="M253.75,19.09a.52.52,0,0,1,.59,0,2.19,2.19,0,0,0-1.77,1.49c0,.35.6.09.6.09a2.62,2.62,0,0,0-1.33,2.19,2.49,2.49,0,0,0,2.1-1.38s-.25.65.09.63a2.22,2.22,0,0,0,1.43-1.84.58.58,0,0,1,0,.62s.58,0,1.05-.81,0-1.26-.25-1.35h0a1.84,1.84,0,0,0,1.32-.63c.67-.63,0-1,0-1a4.72,4.72,0,0,1,.47-.41l-.17-.17a4.72,4.72,0,0,1-.4.49s-.4-.72-1,0a2,2,0,0,0-.6,1.37.26.26,0,0,1,0,.1.68.68,0,0,1,0-.1c-.09-.29-.6-.7-1.29-.26A1.43,1.43,0,0,0,253.75,19.09Z"/><path class="cls-1" d="M262.19,20.8a.58.58,0,0,1,0-.62A2.22,2.22,0,0,0,263.59,22c.34,0,.09-.63.09-.63a2.49,2.49,0,0,0,2.1,1.38,2.62,2.62,0,0,0-1.33-2.19s.63.26.6-.09A2.19,2.19,0,0,0,263.29,19a.52.52,0,0,1,.59,0A1.43,1.43,0,0,0,263.1,18c-.7-.44-1.21,0-1.29.26a.6.6,0,0,1,0,.1.27.27,0,0,1,0-.1,2,2,0,0,0-.61-1.38c-.6-.7-1,0-1,0a4.79,4.79,0,0,1-.4-.48l-.17.17a4.71,4.71,0,0,1,.47.41s-.69.42,0,1.05a1.82,1.82,0,0,0,1.32.63l.09,0h-.1c-.28.09-.67.62-.25,1.35S262.19,20.8,262.19,20.8Z"/><path class="cls-1" d="M263.84,12a.53.53,0,0,1-.59,0A2.19,2.19,0,0,0,265,10.55c0-.35-.6-.09-.6-.09a2.62,2.62,0,0,0,1.33-2.19,2.48,2.48,0,0,0-2.1,1.38s.25-.65-.09-.63a2.22,2.22,0,0,0-1.43,1.84.58.58,0,0,1,0-.62s-.58,0-1.05.81,0,1.26.25,1.35h0A1.84,1.84,0,0,0,260,13c-.67.63,0,1,0,1a4.74,4.74,0,0,1-.47.41l.17.17a4.85,4.85,0,0,1,.4-.48s.41.72,1,0a2,2,0,0,0,.6-1.37.27.27,0,0,1,0-.1.7.7,0,0,1,0,.1c.09.29.6.7,1.29.26A1.42,1.42,0,0,0,263.84,12Z"/><ellipse class="cls-1" cx="265.81" cy="22.86" rx="0.52" ry="0.54"/><ellipse class="cls-1" cx="265.81" cy="8.24" rx="0.52" ry="0.54"/><ellipse class="cls-1" cx="251.78" cy="8.24" rx="0.52" ry="0.54"/><ellipse class="cls-1" cx="251.78" cy="22.86" rx="0.52" ry="0.54"/><ellipse class="cls-1" cx="258.83" cy="15.59" rx="1.2" ry="1.25"/><path class="cls-1" d="M380.77,8.93s.29-2.74-1.14-2.74c-1.06,0-.85-1.11-.85-1.11s.08-1.47-1.7-.8a1.14,1.14,0,0,1,1.84-.58s.35-.36.24-.61a1.19,1.19,0,0,1,.8,1.39s.35.83.45-.08a1.89,1.89,0,0,0-.75-1.55.93.93,0,0,1,.21-1.16s.08.39.32.5c0,0-.4-.42.75-1.8h0c1.14,1.39.75,1.8.75,1.8.24-.11.32-.5.32-.5a.93.93,0,0,1,.21,1.16,1.89,1.89,0,0,0-.75,1.55c.11.91.45.08.45.08a1.19,1.19,0,0,1,.8-1.39c-.11.25.24.61.24.61a1.14,1.14,0,0,1,1.84.58c-1.78-.67-1.7.8-1.7.8s.21,1.11-.85,1.11c-1.44,0-1.14,2.74-1.14,2.74S380.9,9.07,380.77,8.93Z"/><path class="cls-1" d="M374.68,15.62s-2.63-.3-2.63,1.19a.84.84,0,0,1-1.07.89s-1.41-.08-.77,1.77a1.21,1.21,0,0,1-.56-1.91s-.35-.36-.59-.25a1.16,1.16,0,0,1,1.33-.83s.8-.36-.08-.47a1.79,1.79,0,0,0-1.49.78.84.84,0,0,1-1.12-.22s.37-.08.48-.33c0,0-.4.42-1.73-.78h0c1.33-1.19,1.73-.78,1.73-.78-.11-.25-.48-.33-.48-.33a.84.84,0,0,1,1.12-.22,1.79,1.79,0,0,0,1.49.78c.88-.11.08-.47.08-.47a1.16,1.16,0,0,1-1.33-.83c.24.11.59-.25.59-.25a1.21,1.21,0,0,1,.56-1.91c-.64,1.86.77,1.77.77,1.77a.84.84,0,0,1,1.06.89c0,1.5,2.64,1.19,2.64,1.19S374.81,15.49,374.68,15.62Z"/><path class="cls-1" d="M381.1,22s-.29,2.74,1.14,2.74c1.06,0,.85,1.11.85,1.11s-.08,1.47,1.7.8a1.14,1.14,0,0,1-1.84.58s-.35.36-.24.61a1.19,1.19,0,0,1-.8-1.39s-.35-.83-.45.08a1.89,1.89,0,0,0,.75,1.55.93.93,0,0,1-.21,1.16s-.08-.39-.32-.5c0,0,.4.42-.75,1.8h0c-1.14-1.39-.75-1.8-.75-1.8-.24.11-.32.5-.32.5a.93.93,0,0,1-.21-1.16,1.89,1.89,0,0,0,.75-1.55c-.11-.92-.45-.08-.45-.08a1.19,1.19,0,0,1-.8,1.39c.11-.25-.24-.61-.24-.61a1.14,1.14,0,0,1-1.84-.58c1.78.67,1.7-.8,1.7-.8s-.21-1.11.85-1.11c1.44,0,1.15-2.74,1.15-2.74S381,21.83,381.1,22Z"/><path class="cls-1" d="M387.2,15.28s2.64.31,2.64-1.19a.84.84,0,0,1,1.06-.89s1.41.08.77-1.77a1.21,1.21,0,0,1,.56,1.91s.35.36.59.25a1.16,1.16,0,0,1-1.33.83s-.8.36.08.47a1.79,1.79,0,0,0,1.49-.78.84.84,0,0,1,1.12.22s-.37.08-.48.33c0,0,.4-.42,1.73.78h0c-1.33,1.19-1.73.78-1.73.78.11.25.48.33.48.33a.84.84,0,0,1-1.12.22,1.78,1.78,0,0,0-1.49-.78c-.88.11-.08.47-.08.47a1.16,1.16,0,0,1,1.33.83c-.24-.11-.59.25-.59.25a1.21,1.21,0,0,1-.56,1.91c.64-1.86-.77-1.77-.77-1.77a.84.84,0,0,1-1.06-.89c0-1.5-2.64-1.19-2.64-1.19S387.06,15.41,387.2,15.28Z"/><path class="cls-1" d="M377.54,10.21a.58.58,0,0,1,0,.62A2.22,2.22,0,0,0,376.14,9c-.34,0-.09.63-.09.63A2.49,2.49,0,0,0,374,8.23a2.62,2.62,0,0,0,1.33,2.19s-.63-.26-.6.09A2.19,2.19,0,0,0,376.45,12a.53.53,0,0,1-.59,0,1.43,1.43,0,0,0,.78,1.09.83.83,0,0,0,1.29-.26.62.62,0,0,1,0-.1.28.28,0,0,1,0,.1,2,2,0,0,0,.61,1.38c.6.7,1,0,1,0a4.77,4.77,0,0,1,.4.48l.17-.17a4.66,4.66,0,0,1-.47-.41s.69-.42,0-1.05a1.82,1.82,0,0,0-1.32-.63l-.09,0h.1c.28-.09.67-.62.25-1.35S377.54,10.21,377.54,10.21Z"/><path class="cls-1" d="M375.9,19a.52.52,0,0,1,.59,0,2.19,2.19,0,0,0-1.77,1.49c0,.35.6.09.6.09A2.62,2.62,0,0,0,374,22.73a2.49,2.49,0,0,0,2.1-1.38s-.25.65.09.63a2.22,2.22,0,0,0,1.43-1.84.58.58,0,0,1,0,.62s.58,0,1.05-.81,0-1.26-.25-1.35h0a1.84,1.84,0,0,0,1.32-.63c.67-.63,0-1,0-1a4.72,4.72,0,0,1,.47-.41l-.17-.17a4.72,4.72,0,0,1-.4.49s-.4-.72-1,0a2,2,0,0,0-.6,1.37.26.26,0,0,1,0,.1.68.68,0,0,1,0-.1c-.09-.29-.6-.7-1.29-.26A1.43,1.43,0,0,0,375.9,19Z"/><path class="cls-1" d="M384.34,20.71a.58.58,0,0,1,0-.62,2.22,2.22,0,0,0,1.43,1.84c.34,0,.09-.63.09-.63a2.49,2.49,0,0,0,2.1,1.38,2.62,2.62,0,0,0-1.33-2.19s.63.26.6-.09a2.19,2.19,0,0,0-1.77-1.49.52.52,0,0,1,.59,0,1.43,1.43,0,0,0-.78-1.09c-.7-.44-1.21,0-1.29.26a.6.6,0,0,1,0,.1.27.27,0,0,1,0-.1,2,2,0,0,0-.61-1.38c-.6-.7-1,0-1,0a4.79,4.79,0,0,1-.4-.48l-.17.17a4.71,4.71,0,0,1,.47.41s-.69.42,0,1.05a1.82,1.82,0,0,0,1.32.63l.09,0h-.1c-.28.09-.67.62-.25,1.35S384.34,20.71,384.34,20.71Z"/><path class="cls-1" d="M386,11.92a.53.53,0,0,1-.59,0,2.19,2.19,0,0,0,1.77-1.49c0-.35-.6-.09-.6-.09a2.62,2.62,0,0,0,1.33-2.19,2.48,2.48,0,0,0-2.1,1.38s.25-.65-.09-.63a2.22,2.22,0,0,0-1.43,1.84.58.58,0,0,1,0-.62s-.58,0-1.05.81,0,1.26.25,1.35h0a1.84,1.84,0,0,0-1.32.63c-.67.63,0,1,0,1a4.74,4.74,0,0,1-.47.41l.17.17a4.85,4.85,0,0,1,.4-.48s.41.72,1,0a2,2,0,0,0,.6-1.37.27.27,0,0,1,0-.1.7.7,0,0,1,0,.1c.09.29.6.7,1.29.26A1.42,1.42,0,0,0,386,11.92Z"/><ellipse class="cls-1" cx="387.96" cy="22.76" rx="0.52" ry="0.54"/><ellipse class="cls-1" cx="387.96" cy="8.15" rx="0.52" ry="0.54"/><ellipse class="cls-1" cx="373.93" cy="8.15" rx="0.52" ry="0.54"/><ellipse class="cls-1" cx="373.93" cy="22.76" rx="0.52" ry="0.54"/><ellipse class="cls-1" cx="380.98" cy="15.5" rx="1.2" ry="1.25"/><path class="cls-1" d="M502.92,8.84s.29-2.74-1.14-2.74c-1.06,0-.85-1.11-.85-1.11s.08-1.47-1.7-.8a1.14,1.14,0,0,1,1.84-.58s.35-.36.24-.61a1.19,1.19,0,0,1,.8,1.39s.35.83.45-.08a1.89,1.89,0,0,0-.75-1.55A.93.93,0,0,1,502,1.58s.08.39.32.5c0,0-.4-.42.75-1.8h0c1.14,1.39.75,1.8.75,1.8.24-.11.32-.5.32-.5a.93.93,0,0,1,.21,1.16,1.89,1.89,0,0,0-.75,1.55c.11.91.45.08.45.08a1.19,1.19,0,0,1,.8-1.39c-.11.25.24.61.24.61a1.14,1.14,0,0,1,1.84.58c-1.78-.67-1.7.8-1.7.8s.21,1.11-.85,1.11c-1.44,0-1.14,2.74-1.14,2.74S503,9,502.92,8.84Z"/><path class="cls-1" d="M496.83,15.53s-2.63-.3-2.63,1.19a.84.84,0,0,1-1.07.89s-1.41-.08-.77,1.77a1.21,1.21,0,0,1-.56-1.91s-.35-.36-.59-.25a1.16,1.16,0,0,1,1.33-.83s.8-.36-.08-.47a1.79,1.79,0,0,0-1.49.78.84.84,0,0,1-1.12-.22s.37-.08.48-.33c0,0-.4.42-1.73-.78h0c1.33-1.19,1.73-.78,1.73-.78-.11-.25-.48-.33-.48-.33A.84.84,0,0,1,491,14a1.79,1.79,0,0,0,1.49.78c.88-.11.08-.47.08-.47a1.16,1.16,0,0,1-1.33-.83c.24.11.59-.25.59-.25a1.21,1.21,0,0,1,.56-1.91c-.64,1.86.77,1.77.77,1.77a.84.84,0,0,1,1.06.89c0,1.5,2.64,1.19,2.64,1.19S497,15.4,496.83,15.53Z"/><path class="cls-1" d="M503.25,21.88s-.29,2.74,1.14,2.74c1.06,0,.85,1.11.85,1.11s-.08,1.47,1.7.8a1.14,1.14,0,0,1-1.84.58s-.35.36-.24.61a1.19,1.19,0,0,1-.8-1.39s-.35-.83-.45.08a1.89,1.89,0,0,0,.75,1.55.93.93,0,0,1-.21,1.16s-.08-.39-.32-.5c0,0,.4.42-.75,1.8h0c-1.14-1.39-.75-1.8-.75-1.8-.24.11-.32.5-.32.5A.93.93,0,0,1,501.8,28a1.89,1.89,0,0,0,.75-1.55c-.11-.92-.45-.08-.45-.08a1.19,1.19,0,0,1-.8,1.39c.11-.25-.24-.61-.24-.61a1.14,1.14,0,0,1-1.84-.58c1.78.67,1.7-.8,1.7-.8s-.21-1.11.85-1.11c1.44,0,1.15-2.74,1.15-2.74S503.12,21.74,503.25,21.88Z"/><path class="cls-1" d="M509.35,15.19S512,15.49,512,14a.84.84,0,0,1,1.06-.89s1.41.08.77-1.77a1.21,1.21,0,0,1,.56,1.91s.35.36.59.25a1.16,1.16,0,0,1-1.33.83s-.8.36.08.47A1.79,1.79,0,0,0,515.2,14a.84.84,0,0,1,1.12.22s-.37.08-.48.33c0,0,.4-.42,1.73.78h0c-1.33,1.19-1.73.78-1.73.78.11.25.48.33.48.33a.84.84,0,0,1-1.12.22,1.78,1.78,0,0,0-1.49-.78c-.88.11-.08.47-.08.47a1.16,1.16,0,0,1,1.33.83c-.24-.11-.59.25-.59.25a1.21,1.21,0,0,1-.56,1.91c.64-1.86-.77-1.77-.77-1.77a.84.84,0,0,1-1.06-.89c0-1.5-2.64-1.19-2.64-1.19S509.21,15.32,509.35,15.19Z"/><path class="cls-1" d="M499.69,10.12a.58.58,0,0,1,0,.62,2.22,2.22,0,0,0-1.43-1.84c-.34,0-.09.63-.09.63a2.49,2.49,0,0,0-2.1-1.38,2.62,2.62,0,0,0,1.33,2.19s-.63-.26-.6.09a2.19,2.19,0,0,0,1.77,1.49.53.53,0,0,1-.59,0,1.43,1.43,0,0,0,.78,1.09.83.83,0,0,0,1.29-.26.62.62,0,0,1,0-.1.28.28,0,0,1,0,.1,2,2,0,0,0,.61,1.38c.6.7,1,0,1,0a4.77,4.77,0,0,1,.4.48l.17-.17a4.66,4.66,0,0,1-.47-.41s.69-.42,0-1.05a1.82,1.82,0,0,0-1.32-.63l-.09,0h.1c.28-.09.67-.62.25-1.35S499.69,10.12,499.69,10.12Z"/><path class="cls-1" d="M498,18.91a.52.52,0,0,1,.59,0,2.19,2.19,0,0,0-1.77,1.49c0,.35.6.09.6.09a2.62,2.62,0,0,0-1.33,2.19,2.49,2.49,0,0,0,2.1-1.38s-.25.65.09.63A2.22,2.22,0,0,0,499.77,20a.58.58,0,0,1,0,.62s.58,0,1.05-.81,0-1.26-.25-1.35h0a1.84,1.84,0,0,0,1.32-.63c.67-.63,0-1,0-1a4.72,4.72,0,0,1,.47-.41l-.17-.17a4.72,4.72,0,0,1-.4.49s-.4-.72-1,0a2,2,0,0,0-.6,1.37.26.26,0,0,1,0,.1.68.68,0,0,1,0-.1c-.09-.29-.6-.7-1.29-.26A1.43,1.43,0,0,0,498,18.91Z"/><path class="cls-1" d="M506.49,20.62a.58.58,0,0,1,0-.62,2.22,2.22,0,0,0,1.43,1.84c.34,0,.09-.63.09-.63a2.49,2.49,0,0,0,2.1,1.38,2.62,2.62,0,0,0-1.33-2.19s.63.26.6-.09a2.19,2.19,0,0,0-1.77-1.49.52.52,0,0,1,.59,0,1.43,1.43,0,0,0-.78-1.09c-.7-.44-1.21,0-1.29.26a.6.6,0,0,1,0,.1.27.27,0,0,1,0-.1,2,2,0,0,0-.61-1.38c-.6-.7-1,0-1,0a4.79,4.79,0,0,1-.4-.48l-.17.17a4.71,4.71,0,0,1,.47.41s-.69.42,0,1.05a1.82,1.82,0,0,0,1.32.63l.09,0h-.1c-.28.09-.67.62-.25,1.35S506.49,20.62,506.49,20.62Z"/><path class="cls-1" d="M508.14,11.83a.53.53,0,0,1-.59,0,2.19,2.19,0,0,0,1.77-1.49c0-.35-.6-.09-.6-.09A2.62,2.62,0,0,0,510,8.09a2.48,2.48,0,0,0-2.1,1.38s.25-.65-.09-.63a2.22,2.22,0,0,0-1.43,1.84.58.58,0,0,1,0-.62s-.58,0-1.05.81,0,1.26.25,1.35h0a1.84,1.84,0,0,0-1.32.63c-.67.63,0,1,0,1a4.74,4.74,0,0,1-.47.41l.17.17a4.85,4.85,0,0,1,.4-.48s.41.72,1,0a2,2,0,0,0,.6-1.37.27.27,0,0,1,0-.1.7.7,0,0,1,0,.1c.09.29.6.7,1.29.26A1.42,1.42,0,0,0,508.14,11.83Z"/><ellipse class="cls-1" cx="510.11" cy="22.67" rx="0.52" ry="0.54"/><ellipse class="cls-1" cx="510.11" cy="8.06" rx="0.52" ry="0.54"/><ellipse class="cls-1" cx="496.08" cy="8.06" rx="0.52" ry="0.54"/><ellipse class="cls-1" cx="496.08" cy="22.67" rx="0.52" ry="0.54"/><ellipse class="cls-1" cx="503.13" cy="15.41" rx="1.2" ry="1.25"/><path class="cls-1" d="M625.07,8.75S625.37,6,623.93,6c-1.06,0-.85-1.11-.85-1.11s.08-1.47-1.7-.8a1.14,1.14,0,0,1,1.84-.58s.35-.36.24-.61a1.19,1.19,0,0,1,.8,1.39s.35.83.45-.08A1.89,1.89,0,0,0,624,2.65a.93.93,0,0,1,.21-1.16s.08.39.32.5c0,0-.4-.42.75-1.8h0C626.38,1.58,626,2,626,2c.24-.11.32-.5.32-.5a.93.93,0,0,1,.21,1.16,1.89,1.89,0,0,0-.75,1.55c.11.91.45.08.45.08a1.19,1.19,0,0,1,.8-1.39c-.11.25.24.61.24.61a1.14,1.14,0,0,1,1.84.58c-1.78-.67-1.7.8-1.7.8S627.61,6,626.54,6c-1.44,0-1.14,2.74-1.14,2.74S625.2,8.89,625.07,8.75Z"/><path class="cls-1" d="M619,15.44s-2.63-.3-2.63,1.19a.84.84,0,0,1-1.07.89s-1.41-.08-.77,1.77a1.21,1.21,0,0,1-.56-1.91s-.35-.36-.59-.25a1.16,1.16,0,0,1,1.33-.83s.8-.36-.08-.47a1.79,1.79,0,0,0-1.49.78.84.84,0,0,1-1.12-.22s.37-.08.48-.33c0,0-.4.42-1.73-.78h0c1.33-1.19,1.73-.78,1.73-.78-.11-.25-.48-.33-.48-.33a.84.84,0,0,1,1.12-.22,1.79,1.79,0,0,0,1.49.78c.88-.11.08-.47.08-.47a1.16,1.16,0,0,1-1.33-.83c.24.11.59-.25.59-.25a1.21,1.21,0,0,1,.56-1.91c-.64,1.86.77,1.77.77,1.77a.84.84,0,0,1,1.06.89c0,1.5,2.64,1.19,2.64,1.19S619.11,15.31,619,15.44Z"/><path class="cls-1" d="M625.4,21.79s-.29,2.74,1.14,2.74c1.06,0,.85,1.11.85,1.11s-.08,1.47,1.7.8a1.14,1.14,0,0,1-1.84.58s-.35.36-.24.61a1.19,1.19,0,0,1-.8-1.39s-.35-.83-.45.08a1.89,1.89,0,0,0,.75,1.55A.93.93,0,0,1,626.3,29s-.08-.39-.32-.5c0,0,.4.42-.75,1.8h0c-1.14-1.39-.75-1.8-.75-1.8-.24.11-.32.5-.32.5a.93.93,0,0,1-.21-1.16,1.89,1.89,0,0,0,.75-1.55c-.11-.92-.45-.08-.45-.08a1.19,1.19,0,0,1-.8,1.39c.11-.25-.24-.61-.24-.61a1.14,1.14,0,0,1-1.84-.58c1.78.67,1.7-.8,1.7-.8s-.21-1.11.85-1.11c1.44,0,1.15-2.74,1.15-2.74S625.27,21.65,625.4,21.79Z"/><path class="cls-1" d="M631.5,15.1s2.64.31,2.64-1.19A.84.84,0,0,1,635.2,13s1.41.08.77-1.77a1.21,1.21,0,0,1,.56,1.91s.35.36.59.25a1.16,1.16,0,0,1-1.33.83s-.8.36.08.47a1.79,1.79,0,0,0,1.49-.78.84.84,0,0,1,1.12.22s-.37.08-.48.33c0,0,.4-.42,1.73.78h0C638.38,16.46,638,16,638,16c.11.25.48.33.48.33a.84.84,0,0,1-1.12.22,1.78,1.78,0,0,0-1.49-.78c-.88.11-.08.47-.08.47a1.16,1.16,0,0,1,1.33.83c-.24-.11-.59.25-.59.25a1.21,1.21,0,0,1-.56,1.91c.64-1.86-.77-1.77-.77-1.77a.84.84,0,0,1-1.06-.89c0-1.5-2.64-1.19-2.64-1.19S631.36,15.23,631.5,15.1Z"/><path class="cls-1" d="M621.84,10a.58.58,0,0,1,0,.62,2.22,2.22,0,0,0-1.43-1.84c-.34,0-.09.63-.09.63A2.49,2.49,0,0,0,618.26,8a2.62,2.62,0,0,0,1.33,2.19s-.63-.26-.6.09a2.19,2.19,0,0,0,1.77,1.49.53.53,0,0,1-.59,0,1.43,1.43,0,0,0,.78,1.09.83.83,0,0,0,1.29-.26.62.62,0,0,1,0-.1.28.28,0,0,1,0,.1,2,2,0,0,0,.61,1.38c.6.7,1,0,1,0a4.77,4.77,0,0,1,.4.48l.17-.17a4.66,4.66,0,0,1-.47-.41s.69-.42,0-1.05a1.82,1.82,0,0,0-1.32-.63l-.09,0h.1c.28-.09.67-.62.25-1.35S621.84,10,621.84,10Z"/><path class="cls-1" d="M620.2,18.82a.52.52,0,0,1,.59,0A2.19,2.19,0,0,0,619,20.27c0,.35.6.09.6.09a2.62,2.62,0,0,0-1.33,2.19,2.49,2.49,0,0,0,2.1-1.38s-.25.65.09.63A2.22,2.22,0,0,0,621.92,20a.58.58,0,0,1,0,.62s.58,0,1.05-.81,0-1.26-.25-1.35h0a1.84,1.84,0,0,0,1.32-.63c.67-.63,0-1,0-1a4.72,4.72,0,0,1,.47-.41l-.17-.17a4.72,4.72,0,0,1-.4.49s-.4-.72-1,0a2,2,0,0,0-.6,1.37.26.26,0,0,1,0,.1.68.68,0,0,1,0-.1c-.09-.29-.6-.7-1.29-.26A1.43,1.43,0,0,0,620.2,18.82Z"/><path class="cls-1" d="M628.64,20.53a.58.58,0,0,1,0-.62A2.22,2.22,0,0,0,630,21.75c.34,0,.09-.63.09-.63a2.49,2.49,0,0,0,2.1,1.38,2.62,2.62,0,0,0-1.33-2.19s.63.26.6-.09a2.19,2.19,0,0,0-1.77-1.49.52.52,0,0,1,.59,0,1.43,1.43,0,0,0-.78-1.09c-.7-.44-1.21,0-1.29.26a.6.6,0,0,1,0,.1.27.27,0,0,1,0-.1,2,2,0,0,0-.61-1.38c-.6-.7-1,0-1,0a4.79,4.79,0,0,1-.4-.48l-.17.17a4.71,4.71,0,0,1,.47.41s-.69.42,0,1.05a1.82,1.82,0,0,0,1.32.63l.09,0h-.1c-.28.09-.67.62-.25,1.35S628.64,20.53,628.64,20.53Z"/><path class="cls-1" d="M630.29,11.73a.53.53,0,0,1-.59,0,2.19,2.19,0,0,0,1.77-1.49c0-.35-.6-.09-.6-.09A2.62,2.62,0,0,0,632.19,8a2.48,2.48,0,0,0-2.1,1.38s.25-.65-.09-.63a2.22,2.22,0,0,0-1.43,1.84.58.58,0,0,1,0-.62s-.58,0-1.05.81,0,1.26.25,1.35h0a1.84,1.84,0,0,0-1.32.63c-.67.63,0,1,0,1a4.74,4.74,0,0,1-.47.41l.17.17a4.85,4.85,0,0,1,.4-.48s.41.72,1,0a2,2,0,0,0,.6-1.37.27.27,0,0,1,0-.1.7.7,0,0,1,0,.1c.09.29.6.7,1.29.26A1.42,1.42,0,0,0,630.29,11.73Z"/><ellipse class="cls-1" cx="632.26" cy="22.58" rx="0.52" ry="0.54"/><ellipse class="cls-1" cx="632.26" cy="7.97" rx="0.52" ry="0.54"/><ellipse class="cls-1" cx="618.23" cy="7.97" rx="0.52" ry="0.54"/><ellipse class="cls-1" cx="618.23" cy="22.58" rx="0.52" ry="0.54"/><ellipse class="cls-1" cx="625.28" cy="15.32" rx="1.2" ry="1.25"/><path class="cls-1" d="M747.22,8.66s.29-2.74-1.14-2.74c-1.06,0-.85-1.11-.85-1.11s.08-1.47-1.7-.8a1.14,1.14,0,0,1,1.84-.58s.35-.36.24-.61a1.19,1.19,0,0,1,.8,1.39s.35.83.45-.08a1.89,1.89,0,0,0-.75-1.55.93.93,0,0,1,.21-1.16s.08.39.32.5c0,0-.4-.42.75-1.8h0c1.14,1.39.75,1.8.75,1.8.24-.11.32-.5.32-.5a.93.93,0,0,1,.21,1.16,1.89,1.89,0,0,0-.75,1.55c.11.91.45.08.45.08a1.19,1.19,0,0,1,.8-1.39c-.11.25.24.61.24.61a1.14,1.14,0,0,1,1.84.58c-1.78-.67-1.7.8-1.7.8s.21,1.11-.85,1.11c-1.44,0-1.14,2.74-1.14,2.74S747.35,8.8,747.22,8.66Z"/><path class="cls-1" d="M741.13,15.35s-2.63-.3-2.63,1.19a.84.84,0,0,1-1.07.89s-1.41-.08-.77,1.77a1.21,1.21,0,0,1-.56-1.91s-.35-.36-.59-.25a1.16,1.16,0,0,1,1.33-.83s.8-.36-.08-.47a1.79,1.79,0,0,0-1.49.78.84.84,0,0,1-1.12-.22s.37-.08.48-.33c0,0-.4.42-1.73-.78h0c1.33-1.19,1.73-.78,1.73-.78-.11-.25-.48-.33-.48-.33a.84.84,0,0,1,1.12-.22,1.79,1.79,0,0,0,1.49.78c.88-.11.08-.47.08-.47a1.16,1.16,0,0,1-1.33-.83c.24.11.59-.25.59-.25a1.21,1.21,0,0,1,.56-1.91c-.64,1.86.77,1.77.77,1.77a.84.84,0,0,1,1.06.89c0,1.5,2.64,1.19,2.64,1.19S741.26,15.21,741.13,15.35Z"/><path class="cls-1" d="M747.55,21.69s-.29,2.74,1.14,2.74c1.06,0,.85,1.11.85,1.11s-.08,1.47,1.7.8a1.14,1.14,0,0,1-1.84.58s-.35.36-.24.61a1.19,1.19,0,0,1-.8-1.39s-.35-.83-.45.08a1.89,1.89,0,0,0,.75,1.55.93.93,0,0,1-.21,1.16s-.08-.39-.32-.5c0,0,.4.42-.75,1.8h0c-1.14-1.39-.75-1.8-.75-1.8-.24.11-.32.5-.32.5a.93.93,0,0,1-.21-1.16,1.89,1.89,0,0,0,.75-1.55c-.11-.92-.45-.08-.45-.08a1.19,1.19,0,0,1-.8,1.39c.11-.25-.24-.61-.24-.61a1.14,1.14,0,0,1-1.84-.58c1.78.67,1.7-.8,1.7-.8s-.21-1.11.85-1.11c1.44,0,1.15-2.74,1.15-2.74S747.42,21.56,747.55,21.69Z"/><path class="cls-1" d="M753.65,15s2.64.31,2.64-1.19a.84.84,0,0,1,1.06-.89s1.41.08.77-1.77a1.21,1.21,0,0,1,.56,1.91s.35.36.59.25a1.16,1.16,0,0,1-1.33.83s-.8.36.08.47a1.79,1.79,0,0,0,1.49-.78.84.84,0,0,1,1.12.22s-.37.08-.48.33c0,0,.4-.42,1.73.78h0c-1.33,1.19-1.73.78-1.73.78.11.25.48.33.48.33a.84.84,0,0,1-1.12.22,1.78,1.78,0,0,0-1.49-.78c-.88.11-.08.47-.08.47a1.16,1.16,0,0,1,1.33.83c-.24-.11-.59.25-.59.25a1.21,1.21,0,0,1-.56,1.91c.64-1.86-.77-1.77-.77-1.77a.84.84,0,0,1-1.06-.89c0-1.5-2.64-1.19-2.64-1.19S753.51,15.14,753.65,15Z"/><path class="cls-1" d="M744,9.93a.58.58,0,0,1,0,.62,2.22,2.22,0,0,0-1.43-1.84c-.34,0-.09.63-.09.63A2.49,2.49,0,0,0,740.41,8a2.62,2.62,0,0,0,1.33,2.19s-.63-.26-.6.09a2.19,2.19,0,0,0,1.77,1.49.53.53,0,0,1-.59,0,1.43,1.43,0,0,0,.78,1.09.83.83,0,0,0,1.29-.26.62.62,0,0,1,0-.1.28.28,0,0,1,0,.1A2,2,0,0,0,745,13.9c.6.7,1,0,1,0a4.77,4.77,0,0,1,.4.48l.17-.17a4.66,4.66,0,0,1-.47-.41s.69-.42,0-1.05a1.82,1.82,0,0,0-1.32-.63l-.09,0h.1c.28-.09.67-.62.25-1.35S744,9.93,744,9.93Z"/><path class="cls-1" d="M742.35,18.72a.52.52,0,0,1,.59,0,2.19,2.19,0,0,0-1.77,1.49c0,.35.6.09.6.09a2.62,2.62,0,0,0-1.33,2.19,2.49,2.49,0,0,0,2.1-1.38s-.25.65.09.63a2.22,2.22,0,0,0,1.43-1.84.58.58,0,0,1,0,.62s.58,0,1.05-.81,0-1.26-.25-1.35h0a1.84,1.84,0,0,0,1.32-.63c.67-.63,0-1,0-1a4.72,4.72,0,0,1,.47-.41l-.17-.17a4.72,4.72,0,0,1-.4.49s-.4-.72-1,0a2,2,0,0,0-.6,1.37.26.26,0,0,1,0,.1.68.68,0,0,1,0-.1c-.09-.29-.6-.7-1.29-.26A1.43,1.43,0,0,0,742.35,18.72Z"/><path class="cls-1" d="M750.79,20.43a.58.58,0,0,1,0-.62,2.22,2.22,0,0,0,1.43,1.84c.34,0,.09-.63.09-.63a2.49,2.49,0,0,0,2.1,1.38A2.62,2.62,0,0,0,753,20.23s.63.26.6-.09a2.19,2.19,0,0,0-1.77-1.49.52.52,0,0,1,.59,0,1.43,1.43,0,0,0-.78-1.09c-.7-.44-1.21,0-1.29.26a.6.6,0,0,1,0,.1.27.27,0,0,1,0-.1,2,2,0,0,0-.61-1.38c-.6-.7-1,0-1,0a4.79,4.79,0,0,1-.4-.48l-.17.17a4.71,4.71,0,0,1,.47.41s-.69.42,0,1.05a1.82,1.82,0,0,0,1.32.63l.09,0H750c-.28.09-.67.62-.25,1.35S750.79,20.43,750.79,20.43Z"/><path class="cls-1" d="M752.43,11.64a.53.53,0,0,1-.59,0,2.19,2.19,0,0,0,1.77-1.49c0-.35-.6-.09-.6-.09a2.62,2.62,0,0,0,1.33-2.19,2.48,2.48,0,0,0-2.1,1.38s.25-.65-.09-.63a2.22,2.22,0,0,0-1.43,1.84.58.58,0,0,1,0-.62s-.58,0-1.05.81,0,1.26.25,1.35h0a1.84,1.84,0,0,0-1.32.63c-.67.63,0,1,0,1a4.74,4.74,0,0,1-.47.41l.17.17a4.85,4.85,0,0,1,.4-.48s.41.72,1,0a2,2,0,0,0,.6-1.37.27.27,0,0,1,0-.1.7.7,0,0,1,0,.1c.09.29.6.7,1.29.26A1.42,1.42,0,0,0,752.43,11.64Z"/><ellipse class="cls-1" cx="754.41" cy="22.49" rx="0.52" ry="0.54"/><ellipse class="cls-1" cx="754.41" cy="7.88" rx="0.52" ry="0.54"/><ellipse class="cls-1" cx="740.38" cy="7.88" rx="0.52" ry="0.54"/><ellipse class="cls-1" cx="740.38" cy="22.49" rx="0.52" ry="0.54"/><ellipse class="cls-1" cx="747.43" cy="15.23" rx="1.2" ry="1.25"/><path class="cls-1" d="M869.37,8.57s.29-2.74-1.14-2.74c-1.06,0-.85-1.11-.85-1.11s.08-1.47-1.7-.8a1.14,1.14,0,0,1,1.84-.58s.35-.36.24-.61a1.19,1.19,0,0,1,.8,1.39s.35.83.45-.08a1.89,1.89,0,0,0-.75-1.55.93.93,0,0,1,.21-1.16s.08.39.32.5c0,0-.4-.42.75-1.8h0c1.14,1.39.75,1.8.75,1.8.24-.11.32-.5.32-.5a.93.93,0,0,1,.21,1.16A1.89,1.89,0,0,0,870.07,4c.11.91.45.08.45.08a1.19,1.19,0,0,1,.8-1.39c-.11.25.24.61.24.61a1.14,1.14,0,0,1,1.84.58c-1.78-.67-1.7.8-1.7.8s.21,1.11-.85,1.11c-1.44,0-1.14,2.74-1.14,2.74S869.5,8.7,869.37,8.57Z"/><path class="cls-1" d="M863.27,15.25s-2.63-.3-2.63,1.19a.84.84,0,0,1-1.07.89s-1.41-.08-.77,1.77a1.21,1.21,0,0,1-.56-1.91s-.35-.36-.59-.25a1.16,1.16,0,0,1,1.33-.83s.8-.36-.08-.47a1.79,1.79,0,0,0-1.49.78.84.84,0,0,1-1.12-.22s.37-.08.48-.33c0,0-.4.42-1.73-.78h0c1.33-1.19,1.73-.78,1.73-.78-.11-.25-.48-.33-.48-.33a.84.84,0,0,1,1.12-.22,1.79,1.79,0,0,0,1.49.78c.88-.11.08-.47.08-.47a1.16,1.16,0,0,1-1.33-.83c.24.11.59-.25.59-.25a1.21,1.21,0,0,1,.56-1.91c-.64,1.86.77,1.77.77,1.77a.84.84,0,0,1,1.06.89c0,1.5,2.64,1.19,2.64,1.19S863.41,15.12,863.27,15.25Z"/><path class="cls-1" d="M869.7,21.6s-.29,2.74,1.14,2.74c1.06,0,.85,1.11.85,1.11s-.08,1.47,1.7.8a1.14,1.14,0,0,1-1.84.58s-.35.36-.24.61a1.19,1.19,0,0,1-.8-1.39s-.35-.83-.45.08a1.89,1.89,0,0,0,.75,1.55.93.93,0,0,1-.21,1.16s-.08-.39-.32-.5c0,0,.4.42-.75,1.8h0c-1.14-1.39-.75-1.8-.75-1.8-.24.11-.32.5-.32.5a.93.93,0,0,1-.21-1.16,1.89,1.89,0,0,0,.75-1.55c-.11-.92-.45-.08-.45-.08a1.19,1.19,0,0,1-.8,1.39c.11-.25-.24-.61-.24-.61a1.14,1.14,0,0,1-1.84-.58c1.78.67,1.7-.8,1.7-.8s-.21-1.11.85-1.11c1.44,0,1.15-2.74,1.15-2.74S869.57,21.46,869.7,21.6Z"/><path class="cls-1" d="M875.8,14.91s2.64.31,2.64-1.19a.84.84,0,0,1,1.06-.89s1.41.08.77-1.77a1.21,1.21,0,0,1,.56,1.91s.35.36.59.25a1.16,1.16,0,0,1-1.33.83s-.8.36.08.47a1.79,1.79,0,0,0,1.49-.78.84.84,0,0,1,1.12.22s-.37.08-.48.33c0,0,.4-.42,1.73.78h0c-1.33,1.19-1.73.78-1.73.78.11.25.48.33.48.33a.84.84,0,0,1-1.12.22,1.78,1.78,0,0,0-1.49-.78c-.88.11-.08.47-.08.47a1.16,1.16,0,0,1,1.33.83c-.24-.11-.59.25-.59.25a1.21,1.21,0,0,1-.56,1.91c.64-1.86-.77-1.77-.77-1.77a.84.84,0,0,1-1.06-.89c0-1.5-2.64-1.19-2.64-1.19S875.66,15,875.8,14.91Z"/><path class="cls-1" d="M866.14,9.84a.58.58,0,0,1,0,.62,2.22,2.22,0,0,0-1.43-1.84c-.34,0-.09.63-.09.63a2.49,2.49,0,0,0-2.1-1.38A2.62,2.62,0,0,0,863.88,10s-.63-.26-.6.09A2.19,2.19,0,0,0,865,11.63a.53.53,0,0,1-.59,0,1.43,1.43,0,0,0,.78,1.09.83.83,0,0,0,1.29-.26.62.62,0,0,1,0-.1.28.28,0,0,1,0,.1,2,2,0,0,0,.61,1.38c.6.7,1,0,1,0a4.77,4.77,0,0,1,.4.48l.17-.17a4.66,4.66,0,0,1-.47-.41s.69-.42,0-1.05a1.82,1.82,0,0,0-1.32-.63l-.09,0h.1c.28-.09.67-.62.25-1.35S866.14,9.84,866.14,9.84Z"/><path class="cls-1" d="M864.5,18.63a.52.52,0,0,1,.59,0,2.19,2.19,0,0,0-1.77,1.49c0,.35.6.09.6.09a2.62,2.62,0,0,0-1.33,2.19A2.49,2.49,0,0,0,864.7,21s-.25.65.09.63a2.22,2.22,0,0,0,1.43-1.84.58.58,0,0,1,0,.62s.58,0,1.05-.81,0-1.26-.25-1.35h0a1.84,1.84,0,0,0,1.32-.63c.67-.63,0-1,0-1a4.72,4.72,0,0,1,.47-.41l-.17-.17a4.72,4.72,0,0,1-.4.49s-.4-.72-1,0a2,2,0,0,0-.6,1.37.26.26,0,0,1,0,.1.68.68,0,0,1,0-.1c-.09-.29-.6-.7-1.29-.26A1.43,1.43,0,0,0,864.5,18.63Z"/><path class="cls-1" d="M872.94,20.34a.58.58,0,0,1,0-.62,2.22,2.22,0,0,0,1.43,1.84c.34,0,.09-.63.09-.63a2.49,2.49,0,0,0,2.1,1.38,2.62,2.62,0,0,0-1.33-2.19s.63.26.6-.09A2.19,2.19,0,0,0,874,18.55a.52.52,0,0,1,.59,0,1.43,1.43,0,0,0-.78-1.09c-.7-.44-1.21,0-1.29.26a.6.6,0,0,1,0,.1.27.27,0,0,1,0-.1,2,2,0,0,0-.61-1.38c-.6-.7-1,0-1,0a4.79,4.79,0,0,1-.4-.48l-.17.17a4.71,4.71,0,0,1,.47.41s-.69.42,0,1.05a1.82,1.82,0,0,0,1.32.63l.09,0h-.1c-.28.09-.67.62-.25,1.35S872.94,20.34,872.94,20.34Z"/><path class="cls-1" d="M874.58,11.55a.53.53,0,0,1-.59,0,2.19,2.19,0,0,0,1.77-1.49c0-.35-.6-.09-.6-.09a2.62,2.62,0,0,0,1.33-2.19,2.48,2.48,0,0,0-2.1,1.38s.25-.65-.09-.63a2.22,2.22,0,0,0-1.43,1.84.58.58,0,0,1,0-.62s-.58,0-1.05.81,0,1.26.25,1.35h0a1.84,1.84,0,0,0-1.32.63c-.67.63,0,1,0,1a4.74,4.74,0,0,1-.47.41l.17.17a4.85,4.85,0,0,1,.4-.48s.41.72,1,0a2,2,0,0,0,.6-1.37.27.27,0,0,1,0-.1.7.7,0,0,1,0,.1c.09.29.6.7,1.29.26A1.42,1.42,0,0,0,874.58,11.55Z"/><ellipse class="cls-1" cx="876.56" cy="22.4" rx="0.52" ry="0.54"/><ellipse class="cls-1" cx="876.56" cy="7.79" rx="0.52" ry="0.54"/><ellipse class="cls-1" cx="862.53" cy="7.79" rx="0.52" ry="0.54"/><ellipse class="cls-1" cx="862.53" cy="22.4" rx="0.52" ry="0.54"/><ellipse class="cls-1" cx="869.58" cy="15.13" rx="1.2" ry="1.25"/></g></g></svg>