<svg xmlns="http://www.w3.org/2000/svg" viewBox="0 0 96.92 93.53"><defs><style>.cls-1{fill:#fff;}</style></defs><title>Calle_ornamento_estrella</title><g id="Layer_2" data-name="Layer 2"><g id="ornamentos"><path class="cls-1" d="M77.59,92.84H76.31c-.51-1.32-2-1.38-2.91-2.29S71.74,88.84,70.91,88h-.77c-.63-.56-1.16-1.42-1.83-1.54-.94-.17-1.28-.87-1.89-1.32s-.92-1.39-1.94-1.2c-.08,0-.2-.15-.3-.23-.92-.71-1.44-1.93-2.73-2.18-1.06-.21-1.25-1.78-2.56-1.64-.18,0-.45-.26-.6-.46-1.49-2.09-4-2.91-5.69-4.83-.48-.56-1.45-.4-2-1.14a12,12,0,0,0-1.58-1.62H47.48c-.68.52-1.33,1.36-2.13,1.54-1.08.25-1.28,1.34-2.67,1.69h-.26L39.27,78.2c-1.53-.24-1.79,2-3.33,1.71-.76.76-1.4,1.85-2.32,2.19a5.26,5.26,0,0,0-2.45,1.82c-.61.82-1.75.6-2.27,1.4s-1.81.93-2.55,1.69-1.1,1.55-2.09,1.75c-1.18.23-1.6,1.34-2.4,2s-1.64.62-2.29,1.37a8.88,8.88,0,0,1-2.28,1.41.88.88,0,0,1-.19-1.26c.13-.23.56-.42.53-.57-.24-1.26.86-2.11.93-3.26,0-.27,0-.54,0-.83l.81-.86V85.43c.24-.46.51-1,.81-1.57s.53-.85.8-1.28c.16-.88-.3-1.79.34-2.69.48-.69.49-1.7.94-2.41A2.23,2.23,0,0,0,22.59,76c-.05-.65.57-.87.74-1.31a4.76,4.76,0,0,0,0-1.55l.86-.92V70.63l.81-.89V68.22c.28-.36.79-.76.72-1-.4-1.21.54-2,.88-2.89a11,11,0,0,0,.82-2.5c.08-.65.72-1.23.76-2.1a6.78,6.78,0,0,1,.92-2.12,4.56,4.56,0,0,1-1.51-.57,8.9,8.9,0,0,0-2.45-1.74,5.84,5.84,0,0,1-1.68-1.67c-.52-.62-1.36-.48-1.95-1.09s-1.09-1.94-2.4-1.78c-.65-.66-1.26-1.37-2-2-.46-.38-1.09-.55-1.6-.89s-1-.82-1.49-1.19c-.29-.21-.66-.31-1-.51-.85-.56-1.19-1.78-2.37-1.92s-1.22-1.75-2.49-1.65c-.28,0-.65-.41-.87-.71C6,40,3.64,39.26,2.14,37.43,1.56,36.73.24,36.9,0,35.69c.1-.08.19-.24.29-.24.65,0,1.31,0,2,0H36l1.14-2.29V31.08l.81-.91V28.7l.81-.87V26.28c.29-.34.77-.66.75-.94a4.87,4.87,0,0,1,.79-2.52c.3-.65-.06-1.55.73-2.14.21-.16.12-.74.14-1.13s-.16-1,0-1.17c1-.75.45-2,1-2.81a3.52,3.52,0,0,0,.58-1.81c.11-.59.8-1.18.72-1.68-.21-1.29,1.26-2,.87-3.31a4.31,4.31,0,0,0,.93-2.85c.86-.51.62-1.36.72-2.13,0-.34.44-.62.71-1L46.94.08,48.13,0c.65.9.2,1.87.34,2.76l.82.89V5.24l.59.59c.43.89-.13,2.15,1,2.8-.52,1.29.91,2.07.85,3.3,0,1,1.25,1.72.77,2.9.88.64.65,2,1.63,2.57v3.15l.63.63c.37.42-.07,1.12.21,1.48,1.21,1.55,1.36,3.56,2.39,5.55v2l.81.9v1.58l.81.87v1.62c.22.13.44.37.65.37,11.16,0,22.32,0,33.55,0l.89-.75c.85-.16,1.75,0,2.51-.07.47.73.4,1.17,0,1.61a3,3,0,0,1-1.65.92c-.54.1-1,1.27-1.44,1.28-1.52,0-1.81,2-3.29,1.86-.87.83-1.69,1.71-2.61,2.47-.67.56-1.49.95-2.22,1.45a12.88,12.88,0,0,0-2.76,2c-.8,1-2.13,1-2.83,2s-1.83.89-2.57,1.67-1.06,1.53-2.1,1.72-1.57,1.36-2.38,2c-.6.5-1.49.37-2,1.11a13.44,13.44,0,0,1-1.5,1.65,3,3,0,0,0-2.15,1.24v2.44l.81.87v1.54l.82.89c-.62,1.34.82,2.12.85,3.33s1,2,.91,3.26c1.25.66.08,2.45,1.46,3.06v1.58l.81.87v1.61l.81.87v1.53l.81.93v3.07c1.47,1.18,1.3,3.34,2.43,5.15v1.22l.81.89ZM40.39,47.57a.69.69,0,0,0,.81.81V50l-1.4-.81H37.51l-.78-1.69-.81,1.7c-.59-.84-.57-2-1.8-2.31-.47,1-.09,2.07-.19,3.09,0,.22.16.46.26.72a17.55,17.55,0,0,1,1.86.26c.14,0,.19.43.28.62l-1.63.13.18,1.65,1.45-.4c0-.58,0-1,0-1.35l1.4.81L38.38,49,39,52.42h1.38V54.5c.61.51,1.14.28,1.62.34.09.22.14.61.27.64.48.11.56-.25.54-.64.13,0,.37,0,.38,0a6.56,6.56,0,0,1,2.19-2.95c.76-.34,1.1-.47,1.42-.65.07,0,0-.24.06-.38l-2-4.12a15.85,15.85,0,0,0-1.76.18c-.13,0-.19.42-.28.65a.69.69,0,0,0-.81.81H41.2c0-.56-.25-.83-.72-.58-.18-.63-.12-1.25-.83-.7A2.33,2.33,0,0,0,40.39,47.57Zm8.75,3.34c-.87,1.31.14,2.75-.64,3.93l-1.24-.68v2.91c.72.53,2,.39,2.16,1.63l-.74,1c.34.53-.3,1.32.36,1.57l2.14-1.75-.88-1.28.79-1.38-1.38-.54c-.46-1.14.18-2,.72-2.92ZM32,55.69c.65-.52.51-1.57,1.28-2,.05,0,0-.26,0-.37s-.24-.5-.35-.71l-1.36,1.17C31.92,54.38,31.34,55.1,32,55.69ZM51.23,50l.51,0c0-.36.12-.72.13-1.08,0-.09-.2-.28-.26-.26s-.5.18-.51.29A5.48,5.48,0,0,0,51.23,50Zm-6.66,4.58c.71.5,1.22.74,1.59-.23A1.2,1.2,0,0,0,44.58,54.57Zm6.91-10.13a1,1,0,0,0,0,1.62A1,1,0,0,0,51.48,44.44ZM41,45.25a1,1,0,0,0,0-1.62A1,1,0,0,0,41,45.25Zm5.95,2.14-.29-.52c-.09.09-.27.2-.25.27a2.53,2.53,0,0,0,.25.54Zm-6.47,8.89-.29-.52c-.09.09-.27.2-.25.27a2.53,2.53,0,0,0,.25.54Zm-11.2,9.59c-.09-.09-.2-.27-.27-.25a2.52,2.52,0,0,0-.54.25c.09.09.2.27.27.25A2.51,2.51,0,0,0,29.25,65.87Zm27.2-4.56.29-.29a2.53,2.53,0,0,0-.54-.25c-.07,0-.18.16-.27.25ZM52.7,59.4c-.09-.09-.2-.27-.27-.25a2.52,2.52,0,0,0-.54.25c.09.09.2.27.27.25A2.51,2.51,0,0,0,52.7,59.4Zm-13.22-.52.29-.29a2.52,2.52,0,0,0-.54-.25c-.07,0-.18.16-.27.25Zm8.09.81.29-.29a2.53,2.53,0,0,0-.54-.25c-.07,0-.18.16-.27.25Zm-16.81-5-.29-.52c-.09.09-.27.2-.25.27a2.53,2.53,0,0,0,.25.54Zm-1.9-.52c-.09.09-.27.2-.25.27a2.53,2.53,0,0,0,.25.54c.09-.09.27-.2.25-.27A2.51,2.51,0,0,0,28.84,54.14ZM46.63,13.72c-.09.09-.27.2-.25.27a2.53,2.53,0,0,0,.25.54c.09-.09.27-.2.25-.27A2.51,2.51,0,0,0,46.63,13.72Zm1.1,7.56L47.44,21a2.53,2.53,0,0,0-.25.54c0,.07.16.18.25.27ZM37,38.9l-.52.29c.09.09.2.27.27.25a2.52,2.52,0,0,0,.54-.25Zm1.62,4-.52.29c.09.09.2.27.27.25a2.52,2.52,0,0,0,.54-.25Zm18.19,1.79.29.52c.09-.09.27-.2.25-.27a2.53,2.53,0,0,0-.25-.54Zm3,.81-.29-.29a2.52,2.52,0,0,0-.25.54c0,.07.16.18.25.27Zm-1.62,4L58,49.29a2.53,2.53,0,0,0-.25.54c0,.07.16.18.25.27Zm-3.12-.69c-.09-.09-.2-.27-.27-.25a2.52,2.52,0,0,0-.54.25c.09.09.2.27.27.25A2.51,2.51,0,0,0,55.12,48.89Z"/></g></g></svg>