<svg xmlns="http://www.w3.org/2000/svg" viewBox="0 0 1130.49 946.42" preserveAspectRatio="none"><title>Calle_fondo_marco</title><g id="Layer_2" data-name="Layer 2"><g id="ornamentos"><path d="M585.92,9c.74.78,1,1.22,1.22,1.22,17.41,0,34.82,0,52.65,0l3-2.11A31.46,31.46,0,0,0,646.09,10H680a14.42,14.42,0,0,0,2.14-1.46c2.09-.76,4.38,2.46,4.38,2.46h6.72c1.25,1.24,1.34,2.47.18,4H606.14a12.16,12.16,0,0,0-2.55,1.37C603,15.91,601.5,15,601.5,15h-6a20.15,20.15,0,0,0-2,1.5,26.91,26.91,0,0,1-2.1-2.5H541.15A27.54,27.54,0,0,1,539,16.5c-.55-.55-1.71-1.5-1.71-1.5h-6.46l-1.6,2H492.57l-1.72-2h-6.08l-2.1,1H233.12a30.33,30.33,0,0,1-2.17,2.58l-1.41-1.41a6.54,6.54,0,0,0-1.78-.55c-3.67-.05-7.35,0-10.77,0l-2.25,1.89C214.13,17.87,213,17,213,17h-6.14l-2.1,2h-5.06l-2.26-2H124.29a20.93,20.93,0,0,0-2.06,1.55l-2.09-1.89A23.33,23.33,0,0,0,118.42,19H101.86l-1.6-2H57.59l-1.71,1.88-2.11-2L51.68,19H3.43c-1.72-1.25-.65-3.09-1.14-4.63l2-2.36L.48,7.9,3.38,5H59.65l2.22-2L64,4.83l2.66-2.29,3.61,2,2-1.58H87.5l2.24,2h48.53l2.1-3h10a32.18,32.18,0,0,0,2.53,2.82c1-.51,4.24-1.82,4.24-1.82h29.47l2.09,2h40.18L231,2h4s1.77,3.46,4.58,1.94c.1-.1,1.54-.94,1.54-.94h46.3a7.93,7.93,0,0,1,1.91,1.42c2.41.34,5.36-.11,8.1.13A17.87,17.87,0,0,1,299.33,3h257.6s2-2,3-2.89l3.28,2,3.13-2,3.21,2.42c1.73.55,3.7-2.52,3.7-2.52h5.32l2.29,2h51L633.59.11l2.12,1.83L637.81,0H680l2.1,3h13.55l.9,2.38c-5.28,3.24-5.28,3.24-9,3.14L686.05,7H623.92a35.69,35.69,0,0,0-3.23,1.86c-1-.67-3.35-1.86-3.35-1.86h-3.59l-2.14,2H585.93a2.44,2.44,0,0,0-.27-2H559l-1.58,2H542.88a22.85,22.85,0,0,0-1.71-2.42c-.7.64-2.34,2.42-2.34,2.42h-320s-1.6.92-2.18,1.36l-1.83-1.83c-5.92,0-11.94,0-18,0-.25,0-.51.37-1.66,1.27l-1.53.72c-.23-.57-.77-1.55-.77-1.55H122.14l-1.92,1.92c-7.83,0-16.06,0-24.28,0a1.83,1.83,0,0,0-.91.28A19.72,19.72,0,0,0,93.21,13H134.3s1.22-1.66,1.69-2.13l3.79,2a29.36,29.36,0,0,0,2.6-2.9h4a26.22,26.22,0,0,0,2.06,2.52A17.09,17.09,0,0,1,150.52,11h43.2l.82,2h40.65l1.59-2h8.54s1.19,1,1.71,1.49A17.17,17.17,0,0,1,249.15,11h42.23l2.16,2h9.7l2.2-2q135.59,0,271,0a6.27,6.27,0,0,0,1.79-.58L579.57,9ZM94.25,9H64c-2.33,0-4.67-.14-7,0-2,.16-4.39-1-6.13,1l2.83,3,2.17-2c12.06,0,24,0,36,0C92.16,11,92.4,10.59,94.25,9ZM25.58,11.78c9,1.13,9,1,10.77-.72-2.58-1.12-5.23-.24-7.79-.46C28,10.54,27.43,11,25.58,11.78Zm-8-.48c-9.11-.82-9.11-.82-10.87.76,2.59,1.12,5.24.24,7.79.47C15,12.57,15.62,12.1,17.57,11.29Zm.9.26a4.32,4.32,0,0,0,6.1,0A4.32,4.32,0,0,0,18.47,11.55ZM673.73,4.21,675,3.5c-.22-.22-.5-.67-.66-.63A6.29,6.29,0,0,0,673,3.5Z"/><path d="M701.26,11H973l1.51-1.51c2.37-1.37,5.35.42,7.83-1.21-.39-.49-.58-.94-.79-.94Q966.22,7,950.84,6.76l-2.52,2L946.18,7h-6.06L938,9H883.51l-2.1-3h-4l-2.11,2h-177l-.68-2.78c1.89-2.5,5.77.13,7.16-3.22H945.2s2.45-2.28,4.66-1.47l2.11,2,1.31-1.38A6.84,6.84,0,0,1,955.11.5c3-.06,6,0,8.82,0l2.68,2.35L970.54.69C972,.46,975.68,2,975.68,2h50.71l2.1-2h46.25a27.23,27.23,0,0,0,2.1,2.49H1101l1.42-1.43a6.38,6.38,0,0,1,1.77-.56c4.35,0,8.69,0,12.92,0l3.07,3.07c-1,.88-3.49,3.45-3.49,3.45H1100l-.31,3.17c2.34,1.86,4.89.59,7.29,1L1109.26,9h5.8l3,3-.35,3h-12.65a13.17,13.17,0,0,0-1.78,1.26c-.24,0-.55.06-.7-.06-.51-.43-1.54-1.19-1.54-1.19H1024.5l-2,2-3.12-2.54L1016.27,17H988.11l-1.72-2H950l-2,2H937.65a22.22,22.22,0,0,0-1.71-2.32c-.69.59-2.16,2.32-2.16,2.32h-11l-2.1-1.91-1.41,1.41a6.62,6.62,0,0,1-1.77.52c-10.29,0-20.58,0-30.77,0-1.29-2.32-3.36-2-5.35-2l-3.53,2.25-3.08-2c-1.15.46-1.86,2.51-3.85,1.72l-2.13-1.93-1.41,1.41c-10.5.77-135.51,1-166.34.35-.71-.71-1.37-1.46-2.13-2.11-2.27-1.92.8-1.56,1-2.41C700,12.07,700.39,11.87,701.26,11Zm380.57-2.47.76,1.89c4.77,0,9.62,0,14.47,0,.23,0,.46-.43.83-.8l-.21-2.47c-2.35-1.11-4.62-.44-6.8-.55l-2.11,2c-2.36,0-4.65,0-7-.23l-.67-1.64c-11.5,0-23.07,0-34.63.06-.14,0-.28.86-.5,1.58C1058,8.31,1069.93,8.31,1081.83,8.53ZM982.76,9.77c9.49,1,37.09,1,46.36.11l1.39-1.25,2.31,2.07,2.75-.87c-.16-1.12-.29-2-.45-2.83h-6.74a10.13,10.13,0,0,0-2.12,1.36l-1.84-1.84c-2.14,0-4.47,0-6.79,0a7.37,7.37,0,0,0-1.79.5,7.35,7.35,0,0,0-1.49,2h-28a2.72,2.72,0,0,0-2-.44C984,8.6,983.81,8.94,982.76,9.77Zm54.21-2c5,.88,5,.83,6.21-.6C1041.39,6.21,1039.61,6.12,1037,7.74Z"/><path d="M697.41,13.12l-2.06-1.75C697.11,10,697,11.56,697.41,13.12Z"/><path d="M534.68,938c-.74-1.44-1-1.89-1.22-1.89-17.41,0-34.82,0-52.65,0l-3,2.11a36.06,36.06,0,0,1-3.31-3.19H440.59a23.65,23.65,0,0,1-2.14,2.8c-2.09.76-4.38-1.8-4.38-1.8h-5.75l-.17-5h86.3a6.83,6.83,0,0,0,2.55-1c.57.46,2.09,2,2.09,2h6s1.3-1.5,2-2.16a8.39,8.39,0,0,0,2.1,1.16h50.25a8.82,8.82,0,0,0,2.15-1.16,27,27,0,0,1,1.71,2.16h6.46l1.6-2H628l1.72,2h6.08l2.1-3H887.48a8.56,8.56,0,0,0,2.17-1.24l1.41,1.41a6.54,6.54,0,0,0,1.78.55c3.67.05,7.35,0,10.77,0l2.25-1.89a25.79,25.79,0,0,1,1.72,2.14h6.14l2.1-2h5.06l2.26,2h73.16s1.37-1.57,2.06-2.22l2.09,1.89c.53-.53,1.71-1.67,1.71-1.67h16.56l1.6,2H1063l1.71-1.88,2.11,2,2.09-2.1h48.25c1.72,1.25.65,3.09,1.14,4.63l-2,2.36,3.83,4.11-2.9,2.9H1061l-2.22,2-2.1-1.88-2.66,2.29-3.61-2-2,1.58H1033.1l-2.24-2H982.32l-2.1,1h-10a8.68,8.68,0,0,1-2.53-1.49c-1,.51-4.24,2.49-4.24,2.49H934l-2.09-2H891.71l-2.1,1h-4a3.6,3.6,0,0,0-4.58-.6c-.1.1-1.54,1.6-1.54,1.6h-46.3s-1-1.13-1.91-2.08c-2.41-.34-5.36.11-8.1-.13-.66.66-1.95,2.21-1.95,2.21H563.67l-3,2.41-3.28-1.93-3.13,1.95L551,944.08c-1.73-.53-2.72.93-3.7,1.92H542l-2.29-2h-51L487,945.89l-2.12-1.83-2.1,1.94h-42.3l-2.14-2H424.21s-.63-1.82-1-2.66c5.55-3.4,5.55-3.4,9.46-3.3a6.64,6.64,0,0,0,1.6,1h62.36a14.85,14.85,0,0,0,3.23-1.53c1,.67,3.35,2.53,3.35,2.53h3.59l2.14-2h25.68a2.44,2.44,0,0,0,.27,2h26.62l1.58-3h14.59a20.5,20.5,0,0,0,1.71,2.75,29,29,0,0,1,2.34-1.75h320s1.6-1.59,2.18-2l1.83,1.83c5.92,0,11.94,0,18,0,.25,0,.51-.37,1.66-1.27l1.53-.72c.23.57.77,2.21.77,2.21h70.81l1.92-1.92c7.83,0,16.06,0,24.28,0a1.83,1.83,0,0,0,.91-.28,19.72,19.72,0,0,0,1.81-1.79H986.29s-1.22,1-1.69,1.47l-3.79-2a10.7,10.7,0,0,1-2.6,1.56h-4a7.92,7.92,0,0,1-2.06-1.19c-.71.66-2.12,2.19-2.12,2.19h-43.2l-.82-2H885.41l-1.59,1h-8.54a9.57,9.57,0,0,1-1.71-1.16c-.7.64-2.13,2.16-2.13,2.16H829.22l-2.16-2h-9.7l-2.2,2q-135.59,0-271,0a6.27,6.27,0,0,0-1.79.58L541,938Zm491.67,0h30.26c2.33,0,4.67.14,7,0,2-.16,4.39,1,6.13-1l-2.83-3-2.17,2c-12.06,0-24,0-36,0C1028.44,936,1028.2,936.41,1026.35,938Zm68.67-3.44c-9-1.13-9-1-10.77.72,2.58,1.12,5.23.24,7.79.46C1092.58,935.8,1093.17,935.32,1095,934.56Zm8,.48c9.11.82,9.11.82,10.87-.76-2.59-1.12-5.24-.24-7.79-.47C1105.56,933.77,1105,934.24,1103,935Zm-.9-.26a4.32,4.32,0,0,0-6.1,0A4.32,4.32,0,0,0,1102.12,934.78Zm-655.26,7.34-1.3.72c.22.22.5.67.66.63a6.29,6.29,0,0,0,1.35-.63Z"/><path d="M419.34,936H147.58l-1.51,1.51c-2.37,1.37-5.35-.42-7.83,1.21.39.49.58.94.79.94q15.35.33,30.73.58l2.52-2,2.15,1.81h6.06l2.14-2h54.64l2.14,2h3.75l2.11-2H420.87s.45,1.78.65,2.61C419.7,943,414.6,943,414.6,943H175.39s-2.45,3.61-4.66,2.81l-2.11-2-1.31,1.38a6.84,6.84,0,0,1-1.83.59c-3,.06-6,0-8.82,0L154,943.51l-3.93,2.13c-1.41.23-5.14-1.64-5.14-1.64H94.21l-2.1,2H45.58l-2.06-1.92H19.84l-1.4,1.4a6.26,6.26,0,0,1-1.74.55c-4.27,0-8.54,0-12.69,0l-3-3,3.42-3H20.6l.31-3.17c-2.34-1.86-4.89-.59-7.29-1L11.34,938H5.53s-1.91-2.11-3-3.2c.09-.79.34-3.8.34-3.8H15.51a6.24,6.24,0,0,0,1.78-.92c.24,0,.55-.06.7.06A16,16,0,0,1,19.53,932H96.1l2-2,3.12,2.54,3.09-2.59h28.16l1.72,2h36.42l2-3H183a19,19,0,0,0,1.71,2.65c.69-.59,2.16-1.65,2.16-1.65h11l2.1,1.91,1.41-1.41a6.62,6.62,0,0,1,1.77-.52c10.29,0,20.58,0,30.77,0,1.29,2.32,3.36,2,5.35,2l3.53-2.25,3.08,2c1.15-.46,1.86-2.51,3.85-1.72l2.13,1.93,1.41-1.41c10.5-.77,135.51-1,166.34-.35.71.71,1.37,1.46,2.13,2.11,2.27,1.92-.8,1.56-1,2.41C420.58,934.93,420.21,935.13,419.34,936ZM38.77,937.8,38,935.91c-4.77,0-9.62,0-14.47,0-.23,0-.46.43-.83.8l.21,2.47c2.35,1.11,4.62.44,6.8.55l2.11-2c2.36,0,4.65,0,7,.23l.67,1.64c11.5,0,23.07,0,34.63-.06.14,0,.28-.86.5-1.58C62.56,938,50.66,938,38.77,937.8Zm99.07-1.24c-9.49-1-37.09-1-46.36-.11l-1.39,1.25-2.31-2.07-2.75.87c.16,1.12.29,2,.45,3.49H92.2a11.36,11.36,0,0,1,2.12-2l1.84,1.84c2.14,0,4.47,0,6.79,0a7.37,7.37,0,0,0,1.79-.5,9.15,9.15,0,0,1,1.49-1.29h28a12.39,12.39,0,0,1,2-.22C136.56,937.74,136.79,937.4,137.83,936.56Zm-54.21,2c-5-.88-5-.83-6.21.6C79.2,940.12,81,940.22,83.62,938.59Z"/><path d="M423.19,933.21l2.06,1.75C423.48,936.33,423.63,934.78,423.19,933.21Z"/><path d="M9.83,542.28a6.28,6.28,0,0,1,.58,1.79q0,135.44,0,271l2,2.2V827l-1,2.14v42.18a14,14,0,0,0,1.42,2.13c-.52.52-1.42,1.71-1.42,1.71v8.54l2,1.59V926l-2,.82V938q3,1.62,6,3.28V923.85l2-2.26v-5.88l-2-2.1v-6.14a17.27,17.27,0,0,1,1.4-1.72l-1.89-2.25c0-3.43,0-7.1,0-10.77a6.54,6.54,0,0,1,.55-1.78l1.42-1.41a15.12,15.12,0,0,1-1.5-2.17V637.86l-2-2.22v-6l2-1.72V591.25l-2-1.6v-6.46a21.3,21.3,0,0,1,1.42-1.71,29.83,29.83,0,0,0-2.42-2.15V529.08a29.08,29.08,0,0,0,2.42-2.1,15.5,15.5,0,0,1-1.42-2v-6a20.39,20.39,0,0,1,1.29-2.09c-.75-1-2.29-2.55-2.29-2.55V428.07c-1.53-1.15-2.76-1.07-4,.18V434s-2.29,2.29-1.54,4.38a17.81,17.81,0,0,1,1.54,2.14v33.66L8,477.47l2.12,3c0,18,0,35.54,0,53.09,0,.24-.45.48-1.7,1.23v6.08Z"/><path d="M0,554.16l1.95,3L0,560.37l2.41,2.93V821.15a28.35,28.35,0,0,1,2.47,1.95c-.24,2.74.21,5.69-.13,8.1a20.17,20.17,0,0,1-2.34,1.91v46.3s1.77,1.44,1.86,1.54c1.52,2.81-1.86,4.58-1.86,4.58v4l2,2.1V932l-1.5,1.93q2.76,1.42,5.5,2.88v-9.25s1.9-.53,2.47-.77l-.72-1.53c-.9-1.15-1.27-1.4-1.27-1.66,0-6,0-12,0-18l1.83-1.83a24.86,24.86,0,0,1-1.29-2.18v-320S7.57,580,6.93,579.31c.51-.51,1.49-1.71,1.49-1.71V563l-2-1.58V534.83a2.44,2.44,0,0,1,2-.27V508.95l-2-2.14v-3.67s2.12-2.37,2.79-3.35a27.7,27.7,0,0,1-1.79-3.23V433.93l1.52-1.52c.09-3.72.09-3.72-3.14-9l-2.38.9v14.05l-3,2.1v42l1.94,2.29L.53,487l1.89,1.89v50l-2,2.29v6.24c1,.94,2.46,1.91,1.92,3.58ZM3.84,445.45l.72,1.3-.72.72a6.29,6.29,0,0,1-.63-1.35C3.18,445.94,3.62,445.67,3.84,445.45Z"/><path d="M10.42,419.22V147.46L8.91,146c-1.37-2.37.42-5.35-1.21-7.83-.49.39-.94.58-.94.79q-.33,15.35-.58,30.73l2,2.52L6.42,174.3v6.06l2,2.14v54.64l-2,2.14V243l2,2.11v177l-2.78.68c-2.5-1.89.13-5.77-3.22-7.16,0-82.49,0-240.41,0-240.41S.07,172.83.87,170.62l2-2.11-1.38-1.31a6.84,6.84,0,0,1-.59-1.83c-.06-3,0-6,0-8.82l2.35-2.68L1,149.94c-.23-1.41,1.38-5.14,1.38-5.14V94.09l-1-2.1V45.46l1.92-2.06q0-11.81,0-23.69l-1.4-1.4a6.26,6.26,0,0,1-.55-1.74c0-4.27,0-8.54,0-12.69l3-3,3,3.42V20.48l3.17.31c1.86-2.34.59-4.89,1-7.29L9.42,11.22V5.41l3-3,3,.35V15.39a10.82,10.82,0,0,0,1.18,1.78c0,.24.06.55-.06.7-.43.51-1.12,1.54-1.12,1.54V96l2,2-2.54,3.12,2.59,3.09v28.16l-2,1.72V170.5l2,2v10.28A21.08,21.08,0,0,0,15,184.54a16.26,16.26,0,0,1,1.39,2.16v11l-1.91,2.1,1.41,1.41a6.62,6.62,0,0,1,.52,1.77c0,10.29,0,20.58,0,30.77-2.32,1.29-2,3.36-2,5.35l2.25,3.53-2,3.08c.46,1.15,2.51,1.86,1.72,3.85l-1.93,2.13,1.41,1.41c.77,10.5,1,135.51.35,166.34-.71.71-1.46,1.37-2.11,2.13-1.92,2.27-1.56-.8-2.41-1C11.49,420.46,11.29,420.09,10.42,419.22ZM8.88,38.65l1.89-.76c0-4.77,0-9.62,0-14.47,0-.23-.43-.46-.8-.83l-2.47.21c-1.11,2.35-.44,4.62-.55,6.8l2,2.11c0,2.36,0,4.65-.23,7L7,39.4C7,50.91,7,62.47,7.07,74c0,.14.86.28,1.58.5C8.65,62.45,8.65,50.54,8.88,38.65Zm1.24,99.07c1-9.49,1-37.09.11-46.36L9,90,11,87.65l-.87-2.75c-1.12.16-2,.29-2.75.45v6.74A7.61,7.61,0,0,0,8.71,94.2L6.87,96c0,2.14,0,4.47,0,6.79a7.37,7.37,0,0,0,.5,1.79,6.78,6.78,0,0,0,2,1.49v28a2.47,2.47,0,0,0-.52,2C8.94,136.44,9.28,136.67,10.12,137.72Zm-2-54.21c.88-5,.83-5-.6-6.21C6.56,79.08,6.46,80.87,8.09,83.5Z"/><path d="M13.47,423.07l-1.75,2.06C10.35,423.36,11.91,423.51,13.47,423.07Z"/><path d="M1121,399.35a6.28,6.28,0,0,1-.58-1.79q0-135.44,0-271l-2-2.2v-9.75l2-2.16V70.3s-1.68-1.43-2.32-2.13a24.07,24.07,0,0,1,2.32-1.71V57.92l-2-1.59V15.65l2-.82V3.63q-3-1.62-6-3.28V17.78l-2,2.26v5.88l2,2.1v6.14a21.39,21.39,0,0,0-2.3,1.72l1.89,2.25c0,3.43,0,7.1,0,10.77a6.54,6.54,0,0,1-.55,1.78L1112,52.1c.67.72,2.41,2.17,2.41,2.17V303.77l2,2.22v6l-2,1.72v36.65l2,1.6v6.46a22.79,22.79,0,0,0-2.33,1.71,12.61,12.61,0,0,1,1.33,2.15v50.25a12,12,0,0,1-1.33,2.1,25.41,25.41,0,0,0,2.33,2v6s-1.74,1.52-2.2,2.09c.75,1,2.2,2.55,2.2,2.55v86.3l3-.17v-5.75s3.39-2.29,2.63-4.38a24.16,24.16,0,0,1-1.63-2.14V467.49l2.39-3.33-2.12-3c0-18,0-35.54,0-53.09,0-.24.45-.48,1.7-1.23v-6.08Z"/><path d="M1130.49,387.51l-2-3.13,2-3.28a41.43,41.43,0,0,0-3.06-3V120.48a11,11,0,0,0-1.38-1.95c.24-2.74-.21-5.69.13-8.1a23.86,23.86,0,0,1,2.25-1.91V62.23s-1.67-1.44-1.77-1.54c-1.52-2.81,1.77-4.58,1.77-4.58v-4l-2-2.1V9.65l1.5-1.93q-2.76-1.42-5.5-2.88V14.1s-1.8.53-2.38.77l.72,1.53c.9,1.15,1.27,1.4,1.27,1.66,0,6,0,12,0,18l-1.83,1.83a29.73,29.73,0,0,0,2.19,2.18V360a18.24,18.24,0,0,0,1.59,2.34c-.51.51-1.59,1.71-1.59,1.71v14.58l2,1.58V406.8a2.44,2.44,0,0,1-2,.27v25.62l2,2.14v3.67s-2,2.37-2.69,3.35a30.61,30.61,0,0,0,2.69,3.23V507.7l-1.52,1.52c-.09,3.72-.09,3.72,3.14,9l2.38-.9v-14l2-2.14V459.22l-1.94-2.29,1.83-2.3-1.89-1.89v-50l2-2.29v-6s-2.9-2-2.35-3.7Zm-3.4,108.67-.72-1.3.72-.72a6.29,6.29,0,0,1,.63,1.35C1127.76,495.69,1127.32,496,1127.09,496.18Z"/><path d="M1120.42,522.41V794.17l1.51,1.51c1.37,2.37-.42,5.35,1.21,7.83.49-.39.94-.58.94-.79q.33-15.35.58-30.73l-2-2.52,1.81-2.15v-6.06l-2-2.14V704.49l2-2.14V698.6l-2-2.11V520.88s1.62-.45,2.44-.65c2.42,1.83,2.56,6.93,2.56,6.93v239.2s3.45,2.45,2.64,4.66l-2,2.11,1.38,1.31a6.84,6.84,0,0,1,.59,1.83c.06,3,0,6,0,8.82l-2.35,2.68,2.13,3.93c.23,1.41-1.48,5.14-1.48,5.14v50.71l2,2.1v46.52l-1.92,2.06q0,11.81,0,23.69l1.4,1.4a6.26,6.26,0,0,1,.55,1.74c0,4.27,0,8.54,0,12.69l-3,3-3-3.42V921.15l-3.17-.31c-1.86,2.34-.59,4.89-1,7.29l2.13,2.28v5.8l-3,3-3-.35V926.24s-1.61-1.3-2.09-1.78c0-.24-.06-.55.06-.7a14.45,14.45,0,0,1,2-1.54V845.65l-2-2,2.54-3.12-2.59-3.09V809.27l2-1.72V771.13l-2-2V758.8s.92-1.14,1.49-1.71a21.56,21.56,0,0,1-1.49-2.16v-11l1.91-2.1-1.41-1.41a6.62,6.62,0,0,1-.52-1.77c0-10.29,0-20.58,0-30.77,2.32-1.29,2-3.36,2-5.35l-2.25-3.53,2-3.08c-.46-1.15-2.51-1.86-1.72-3.85l1.93-2.13-1.41-1.41c-.77-10.5-1-135.51-.35-166.34.71-.71,1.46-1.37,2.11-2.13,1.92-2.27,1.56.8,2.41,1C1119.35,521.17,1119.55,521.54,1120.42,522.41ZM1122.06,903l-1.89.76c0,4.77,0,9.62,0,14.47,0,.23.43.46.8.83l2.47-.21c1.11-2.35.44-4.62.55-6.8l-2-2.11c0-2.36,0-4.65.23-7l1.64-.67c0-11.5,0-23.07-.06-34.63,0-.14-.86-.28-1.58-.5C1122.29,879.18,1122.29,891.08,1122.06,903Zm-1.24-99.07c-1,9.49-1,37.09-.11,46.36l1.25,1.39-2.07,2.31.87,2.75c1.12-.16,2-.29,3.66-.45v-6.74a8.88,8.88,0,0,1-2.19-2.12l1.84-1.84c0-2.14,0-4.47,0-6.79a7.37,7.37,0,0,0-.5-1.79,4.24,4.24,0,0,1-1.13-1.49v-28a5.19,5.19,0,0,1-.39-2C1122,805.19,1121.66,805,1120.82,803.91Zm2,54.21c-.88,5-.83,5,.6,6.21C1124.38,862.54,1124.47,860.76,1122.85,858.12Z"/><path d="M1117.47,518.56l1.75-2.06C1120.59,518.27,1119,518.12,1117.47,518.56Z"/></g></g></svg>