<svg xmlns="http://www.w3.org/2000/svg" viewBox="0 0 201.93 46.11"><title>Calle_ornamento_fin</title><g id="Layer_2" data-name="Layer 2"><g id="ornamentos"><path d="M190.89,42.13c-3.7.22-3.7.22-6,2h-9.4l-2.17-2h-3.69l-8.88-8.69L158,27.88V15.43c1.66-2.56,2.84-5.89,5.64-8.26C166.17,5,168.39,2.5,170.78.11h17.79c3,2.07,6.68,3,8.51,6.27,1.52,2.69,2.67,5.58,4.14,8.3,1.14,2.12.53,4.45.62,6.72s0,4.67,0,7c-1.53,2.35-2.09,5.24-4.39,7.21S193.21,39.81,190.89,42.13Z"/><path d="M44,13.07v3.67l2,2.13v8.2L44,29.2c0,1,0,2,0,3-1.49,3.13-2.71,6.55-5.74,8.52-2.83,1.84-6,3.22-10,5.35H18c-2-.88-3.72-1.55-5.36-2.39C5.55,40.12,4.2,38.22,1.9,29.43,1.68,28.58.72,27.92,0,27V19.57c1.18-2.07,2.29-3.93,3.32-5.84.88-1.64,1.09-3.54,2.77-4.86A42.65,42.65,0,0,0,10.68,4c3.15.63,4.45-3.09,7.63-2.08,1.5.48,2.83-2.53,5.1-1.85,2.66.8,5,2.57,8,2.39C33,4.57,36,4.48,37.68,6.65A74.93,74.93,0,0,0,44,13.07ZM26.52,4.17l-8.15.24c-1.86,1.94-4.89,2.05-6.64,4.45s-4.23,4-6.58,6.07c2,3-.17,4.49-1.15,6.11v6c2.88,8.48,8.17,12.44,13.94,15.1h14.9l4-4h-.32l5-9.82c0-3,0-7,0-10.94,0-.26-.32-.52-1.74-2.7l-.92-2L32.32,6.11H28.58Z"/></g></g></svg>