<svg xmlns="http://www.w3.org/2000/svg" viewBox="0 0 600.6 260.42"><defs><style>.cls-1{fill:#3dbfe0;}</style></defs><title>Calle_ornamento_curva</title><g id="Layer_2" data-name="Layer 2"><g id="ornamentos"><path d="M224.8,81.31c.57,1.81-1.8,3.3-1.8,3.3v3.1a24.49,24.49,0,0,1-3.63,5.37c-1.76,1.63-3.41,3.38-5.17,4.92h-2.78a3.36,3.36,0,0,1-1.63,1H207a10.62,10.62,0,0,1-1.55,2h-7.21c-.88-1.36-2.36-1.09-3.74-1.35s-2.38-1.14-4.07-2l-7.23-7.23L183.1,89A5.86,5.86,0,0,0,181,87.41V84.6c.16-.55-1-1.5-1-1.5V66.91l6-11.29V53.15L191.55,48h1.36c1-1,2.1-2.07,3.17-3.12l4.3-4.17c2.45.25,3.06-2.34,4.81-3a38.93,38.93,0,0,0,6.34-3c2.43-1.4,5.41-1.52,7.85-3,.81-.48,1.67-.87,2.88-1.48h2.57l1.34-1.3h3.67a11.65,11.65,0,0,1,1.44-1H254.7c.34.08.68.42,1.26,1a10.52,10.52,0,0,1,8,2.35c1.14.88,2.28.3,3.49.61,1.33.72,1.84,2.64,3.76,2.86,1.57.17,2,2.25,3.26,2.51,1.82.37,2.8,1.56,4,2.66s2,2,3.06,3.05l3.36,3.36c.76-.16,1.35-.1,1.63-.36,2.59-2.51,5.12-5.08,7.46-7.63V36.78a6.55,6.55,0,0,0,2-.57,16.13,16.13,0,0,0,2.15-1.79c.53-.48,1-1,1.53-1.52.68-.68,1.38-1.34,2-2,.46-.49.84-1.05,1.06-1.33.25-1.55-.81-2-1.38-2.65S300,25.3,300,25.3V22.54s-1-1.13-1-1.51V9.46c.06-.42.4-.76.9-1.27l.14-2.8c.86-1.65,3.09-5.39,3.09-5.39h3.77s.27,1.64.44,2.46L309.86,5l.38,3.28A2.07,2.07,0,0,1,311,9.41V19.59c.18.28-1,1.51-1,1.51v3l-3,2c0,1.75,0,2.43,0,3.39l1.91,2.88c3.57,1.64,5.58,5.51,8.73,7.75,2.2,1.56,1.94,4.86,4.53,5.88h2.68L327,43.93v-.77s3.92-3.73,5.56-5.48c2.33.32,2.78-2.61,4.58-2.78,1.37-.13,2-1.84,3-1.46,2.28.88,3.25-1.85,5.21-1.54a10,10,0,0,0,1.49,0A7,7,0,0,0,348.35,30h4.26a3,3,0,0,0,1.55-1h22.39c.23,0,.46,0,.69.06A5.75,5.75,0,0,1,378.53,31h5.54c1,.09,1.5.68,2.12.86.88.25,2.38-.13,2.68.34,1.18,1.87,3.2.56,4.5,1.48a36,36,0,0,0,5.94,3.08,36.93,36.93,0,0,0,4.81,2.3c1.86.55,2.21,3.28,4.56,2.94,1.38,1.3,2.56,3.1,4.2,3.78A16.62,16.62,0,0,1,418.31,50c0,2.84,3.09,3.49,4,5.54,1,2.21,2.24,4.35,3.18,6.61A29.48,29.48,0,0,0,427,64.77v4l1,1a5.1,5.1,0,0,1,.35,1.29c0,4.07,0,8.14,0,12.07a1.89,1.89,0,0,0-.42,1.3v3.64a32.2,32.2,0,0,0-4.8,7.42l-4.62,4.2c.06,0-.68-.17-.84.07-1.14,1.64-3.55,1.16-4.61,3.25H406c-.39.05-.73.39-1.27.93l-1.47-1.13c-1.47-.14-3.52.24-4.59-.6a5.63,5.63,0,0,0-3.73-1l-9.64-9.64c-.56-2-2.44-4.09-3-6.72a7.74,7.74,0,0,1,.17-2.17l2-.22c1.55,1.25,0,3.23,1.57,4.6C387,88,387.11,90,388.58,91a7.44,7.44,0,0,1,2,2,13,13,0,0,1,.9,3h2c1,2.13,3.45,2.51,5.49,4h12.82s.86-1.11,1.51-2H416a70.52,70.52,0,0,0,5.19-5.23c0-.13.06-1.11.49-1.34,1.3-.71.52-2.32,1.5-3,1.22-.86.74-2.11,1-3.22A8.59,8.59,0,0,1,425.35,83l-1.16-1.16a8.12,8.12,0,0,0,.8-1.57V73.07a4.49,4.49,0,0,0-1-1.51v-4.3c-2.56-1.63-2.85-5.21-5.44-7a5.11,5.11,0,0,0-2-3.49c-1.57-1.48-3.07-3-4.6-4.58-2.77.51-3.18-3.57-5.94-3.06-1-1.71-3.53-1.27-4.5-3.06-.65-1.2-2.18-.84-2.92-1.58-1-1-2.15-.74-3.17-1.14A93.28,93.28,0,0,1,386.52,39h-3.31c-.39-.18-1.72-1-1.72-1h-3.94l-2-2H367l-1.32-1h-13a13.93,13.93,0,0,1-1.5,1h-8.4c-2.9,2.33-6.61,2.87-8.72,5.83-3.81.85-5.26,4.57-8.39,6.72.59,1.24,1.13,2.44,1.72,3.61A52.39,52.39,0,0,1,331,60.55v5.21c.35.34-1,1.51-1,1.51V70c-.5,1.09-2.09,1.5-1.26,3-1.23,1.18-2.36,2.29-3.53,3.37-.13.12-.42.06-.64.08s-.56.1-.67,0c-1.57-1.64-3.12-3.31-4.9-5.22V68.75l-1-1.54V62.9a2.1,2.1,0,0,1,.55-1.21c.54-1.67,0-3.59.21-5.42l3-5.7C317.6,46.47,310,39,310,39V37.17l-5.08-5c-2.81,2.81-5.64,5.69-8.53,8.51-1.29,1.26-2.33,2.82-4.42,3.13a2.77,2.77,0,0,0-1.83,2c0,2.31-2.42,2.75-3,4.52-.44,1.58,1.94,2,1.45,3.69-.38,1.29.33,2.24,1.37,3v5.87s.84,1.06,1.32,1.58l-1,1c-.77,1.32-.25,2.77-.41,4.16-1.4,2.62-2.44,5.51-5.69,7.09-1.59,0-2.36-1.27-3-2.93A49.64,49.64,0,0,1,279,68.2V55.56c.12-.61,1.55-1.44,2-2.63s.85-2.54,1.81-3c-.34-2.46-2.09-3.14-3.12-4.38S277.4,43,276.42,42c-2.42.3-3-1.65-4.35-2.61-1.38-.63-3.08.15-4.49-1.39-.88-1-3.29.21-4.3-2H259c-.54-.23-1.59-2-1.59-2H248.8a3.46,3.46,0,0,1-1.53-.6A8.8,8.8,0,0,0,246,35H230.09a4.53,4.53,0,0,0-1.27,1c-1.66,1-3.81-.75-5.36,1-1.29,1.46-3.91-.16-4.91,2-2-.45-3.51.73-5.14,1.53q-2.1,1-4.2,2a35.26,35.26,0,0,0-4.79,2.34c-1.54,1.06-2.78,2.55-4.24,3.75a8.39,8.39,0,0,1-2.22.83L186.9,60.58a16.81,16.81,0,0,1-2.91,4.2v2.46c0,.59-1,1.51-1,1.51V83.24s1.52,2.43,1.56,3.83c.52,1.81,3,2.25,3,4.57,0,.79,1.5,2.08,2.44,2.21,2,.26,2.54,2,3.91,3.16h2.79a15.23,15.23,0,0,0,1.58,1h8.15c3.56-1.56,6.72-3.19,9.85-4.8l.08-1.48,4.09-4.08c-.44-2.48,1.61-4.16,2.1-6.7ZM327,65.76V57.3l-3.52-3.52c-.71,1.24-1.94,2.48-2.06,3.82A9.36,9.36,0,0,1,320,61.72v6.75c.59.94,1,1.49,1.28,2.08a17.59,17.59,0,0,1,.66,1.67l1.6-.13c.5-1,.93-2,1.51-2.91C325.74,68.06,325.61,66.47,327,65.76ZM281,57.6v8.13c.48.52,1.4,1.08,1.35,1.54-.2,1.81,1.24,2.44,2.18,3.35.31.3,1.23,0,1.92-.08l.39-3.39L288,65.71V60l-1.15-1.15-.37-3.26c-1-.67-1.4-2.09-3.3-1.83ZM301,12V25.75l3.69,1,2.47-4.25c-1.11-2.27,1.51-3.49,1.54-5.44L307,14.6V10.34l-2-1.87Z"/></g><g id="textos"><path class="cls-1" d="M600.6,257.81c-1.38.91-2.46,2.11-3.68,2.34a36.1,36.1,0,0,1-6.55.24H11.53a45.74,45.74,0,0,1-7.28-.24C3,260,2,258.71,0,257.38c2-1.3,3.06-2.48,4.27-2.7a37.13,37.13,0,0,1,6.55-.22q289.78,0,579.56.1C593.67,254.56,597.71,252.57,600.6,257.81Z"/></g></g></svg>