<svg xmlns="http://www.w3.org/2000/svg" viewBox="0 0 743.02 26.13"><defs><style>.cls-1{fill:#3dbfe0;}</style></defs><title>Calle_onamento_barra2</title><g id="Layer_2" data-name="Layer 2"><g id="bloques"><path class="cls-1" d="M221.41,15.13c-1.91,2-4.35.6-6.76,1L212.45,18h-9.69l-2.29,2h-3.86l-2.17,2h-4.31l-3.31,4.13a7.73,7.73,0,0,1-2.43-.25c-4.39-2.44-8.37-5.75-13.77-6-.79,0-1.53-1.16-2.44-1.9h-9.48l-2.25-2.07A17.12,17.12,0,0,1,149,14.6l3.58-1.47L151.81,12h8.44A12,12,0,0,0,162,10.79c2.27-1.48,5.34.94,7.36-1.41,1.84-2.14,5.43.27,6.83-2.78,2.06-.62,4.71.47,6.1-2.1,1.88-.06,3.54-.34,5.49.92,2.52,1.63,5.19,3.85,8.7,2.94.47.47,1.75,1.64,1.75,1.64h8.05l2,2h10Z"/><path class="cls-1" d="M106.38,6l2.13-2h4.12l3.53,3.53c2.52,1.24,6-1.08,8,2.07l6.13.42,2.35,2h12.59l.29,3-5.77,3H128.5l-2.15,2h-4l-1.44,1.43a23,23,0,0,0-10.33,4.09L103.87,22h-3.3l-2.13-2h-4L92.3,18H82.37l-1.59-1.59-6.14-1,4.08-3.22,10.15-.59c1.65-3.06,6.09-.16,7.57-3.59h3.89l2.13-2Z"/><path class="cls-1" d="M538.52,8l1.37-1.39c1.83-1.13,3.83-.37,5.73-.6l4.14-2c1.38-.66,2.71-1.72,4.15-1.89,1.69-.2,3.22-.27,4.19-1.84L565,4h3.42l2.16,2h5.92l1.78,2h8c1.59,2.84,4.14,2,6.5,2.22l.62,2.81c-.64.43-1.13,1.06-1.65,1.08-2.64.1-5.29,0-7.93,0a24.69,24.69,0,0,0-4.94.08c-1.14.24-2.34,2-3.12,1.77-3.28-1-5,3.17-8.14,2.12-2.1,1.27-4.58,1.85-6.53,3.38-1.5,1.17-3.12.38-4.68.52-1-2-3.63-1.35-4.73-2.84-1.65-2.24-4.63.2-6.14-2.05-1.36-2-3.77-.21-5.36-1.41A21.36,21.36,0,0,1,538.43,14h-14.8l-.28-3c2.26-1.76,4.71-.56,7.05-.92l2.18-2Z"/><path class="cls-1" d="M638.51,17.89,634.45,22h-3.3c-5.78-2.87-10.56-6.39-16.4-7.79l-10.68-.6c-1.23-3.05-5-.34-6.52-2.74,1.37-1.68,3.2-.37,5.29-1.36L604.47,8h6.26l1.13-1.28c2.27-1.29,4.58-.41,6.7-.74L620.7,4c3.44.52,5.92-1.64,8.67-2.92,2.91-1.35,3.14-1.43,6,0s5.95,3,9.48,4.86h5.51l2.15,2h9.26l5.94,3.07-7,2.1.14.83c-2.61,0-5.32.46-7.79-.12-3-.7-4.17,2.85-7.19,2.27C643.52,15.7,641.68,19.33,638.51,17.89Z"/><path class="cls-1" d="M422.4,9h5.9l2.18,1h12l2.67,2.89c-.27.31-.62,1-1,1.06-4,.08-7.92.05-11.74.05-.61.61-1.09,1.49-1.54,1.48-4.19-.1-7.45,4.12-11.65,2.29-2.94,2.43-7,2.61-8.42,6.16a5.44,5.44,0,0,1-1.3,0,5.61,5.61,0,0,1-1.71-.65c-3.07-2.1-6.84-2.91-9.74-5.33h-5.29l-2.59-2H383c-2.42-3-6-1.73-9.09-2.07-.1-2.2,1.69-2.71,2.48-3.93h9.95l2.13-2h5a86.09,86.09,0,0,1,8.32-3.55c1.51-.46,2.93-.54,4.38-1.58a4.91,4.91,0,0,1,4.51-.12,25.82,25.82,0,0,0,10.27,4.14C421.47,7,422.4,9,422.4,9Zm1,2.34c-.22-.22-.49-.66-.66-.63a6.24,6.24,0,0,0-1.34.63c.22.22.49.66.66.63A6.22,6.22,0,0,0,423.45,11.34Z"/><path class="cls-1" d="M256.7,24c-2.4-1.43-4.41-3.38-6.67-3.76s-4.08-1.38-6.11-2c-2.37-.72-5.13-.17-7.38-.17L234.47,16H223.85c-.06-2.23,1.77-2.76,2.57-4h7.89L236,10.08c2.54-.42,5.55.08,8.42-.19l2.21-2c4,.53,6.68-2,10.73-3.91h4.7l7.07,4h3.22l2.16,2h9.93l1.78,2h8c1.45,1.4,1.54,2.55.5,4H283a16.66,16.66,0,0,1-3.26,2.1c-1.15.4-2.65,0-3.67.51s-1.79,1.69-3.28,1.53a33.54,33.54,0,0,0-3.72,0L262.24,24Z"/><path class="cls-1" d="M449.45,14V11H458l2-2h5.78l2.69-3h5.22l7.16-4h5.46c1.4,2.35,5,1.28,5.94,4h6.13l2,2h8l2,2h8.7l.51,3c-.36.36-.6.81-.84.81-4,0-8,0-11.88,0L504.36,16H498.6l-2.15,2H493l-7.14,4h-4.61l-11.51-6h-9.65L458,14Z"/><path class="cls-1" d="M299.83,12h5.42l1.44-1.51c2.24-1.19,4.71-.25,7-.68l1.48-1.48c1.95-1,4-.33,6.06-.53l12.31-6.42,8,4.32h3.59l2,2,4.37.25L353.87,10h9.89l5.88,3c-1.89,2.15-5.64-.3-7,3h-9.86l-2.26,2h-3.9l-2.14,2H339l-2.92,3.65c-2.81.49-4.45-.92-6.38-1.63-2.14-.78-3.91-3.21-6.65-2a6.66,6.66,0,0,0-5.84-1.86L314.81,16H299.14Zm31.62,1.34c-.22-.22-.49-.66-.66-.63a6.24,6.24,0,0,0-1.34.63c.22.22.49.66.66.63A6.2,6.2,0,0,0,331.45,13.34Z"/><path class="cls-1" d="M707.92,0l7,4h5.12l2.64,2h7.77l2,2H743c.12,2.23-1.72,2.75-2.52,4h-7.94l-2.15,2h-7.93s-1.47,1.71-2.16,2.35c-3.88-.52-6.52,2-11.2,4a9.59,9.59,0,0,1-3.15-.08c-1.46-.32-2.73-1.48-4.19-1.86s-3.27.43-4.51-1.21-3.08-.52-4.79-.93A11.72,11.72,0,0,0,690.42,15h-7.9a16.15,16.15,0,0,0-1.44-2c-2.93-1.79-6.48.51-9.69-1.41,1-1,2.78-3.56,2.78-3.56h9.73l2.56-2H692c1.74-2.46,5-1.18,6.83-2.63s4.57-1,5.64-3.37Zm-4.77,9.63-.71-1.29c-.22.22-.66.49-.63.66a6.24,6.24,0,0,0,.63,1.34Z"/><path class="cls-1" d="M20.69,20l-2.13-2H8.38l-1.6-1.6L0,15.32A38.82,38.82,0,0,0,3.78,14c.84-.43,1.6-1,2.92-1.9,2.66-1,6.7,1.51,9.52-1.86,3.71.86,6.31-3.31,10.13-2.22l2.19-2h3.53l2.55-2.36a43,43,0,0,0,5,2.3c1.8.59,2.92,2.83,5.25,2.11,2-.61,2.67,1.81,4.25,2,2,.23,4.13-.43,5.42,2h9.59l2.48,2.12c1.15.73,3.51-1.45,4.52,1.15-.24.24-.47.67-.7.67-2.59,0-5.18,0-7.75,0l-2.16,2h-8l-2.13,2H46.89L35.45,25.95,23.83,20Zm32.47-4.37-.71-1.29c-.22.22-.66.49-.63.66a6.24,6.24,0,0,0,.63,1.34Z"/></g></g></svg>