<svg xmlns="http://www.w3.org/2000/svg" viewBox="0 0 91.24 91.65"><defs><style>.cls-1{fill:#fff;}</style></defs><title>Calle_ornamento_hueco</title><g id="Layer_2" data-name="Layer 2"><g id="bloques"><path class="cls-1" d="M43.64,67.71c-.45,2.85-2,3.88-4.31,3s-4.18-2.1-3.5-5.56c.44-2.23-.19-3.1-2.62-4.15-2,.71-3.06,2.57-4.67,4.09a7.53,7.53,0,0,1-1.93,6,4.94,4.94,0,0,0-.9,2.17,48.58,48.58,0,0,0-1,5.6c-.22,2.19.13,2.49,2.38,3a4.32,4.32,0,0,1,.61.23c.11.18.28.31.27.44a9.46,9.46,0,0,1-4.13,7.6c-1.56,1.18-3.35.52-4.9-1.4.14-1.65,2.36-2.15,2.24-4.26-.42-.19-.94-.47-1.49-.67a3.57,3.57,0,0,0-.94-.11c-1-.06-2.15,0-2.56-1.24a2.72,2.72,0,0,1,1-2.77,4,4,0,0,1,2.12-1.38c2.34-.15,3.28-1.62,3.92-3.54.1-.29.19-.59.27-.85-1-1.59-1.51-1.77-2.76-1a3.89,3.89,0,0,0-.74.6c-2.43,2.38-4.81,4.81-7.28,7.16a4.74,4.74,0,0,0-1.52,4.91c.56,2.32-.51,4-2.4,5.21a4.31,4.31,0,0,1-4.09.38A7.27,7.27,0,0,1,.34,86.77c-1.25-3.29,1.09-6.89,4.56-6.43,3.27.43,5.46-.8,7.47-3,1.23-1.35,2.55-2.61,3.78-3.95A7.54,7.54,0,0,0,17,72a9.11,9.11,0,0,0,1.42-1.1,1.66,1.66,0,0,0,.3-2.17,1.75,1.75,0,0,0-2.16-.48c-1.58.52-2.92,1.41-3.15,3.2a4.68,4.68,0,0,1-2.13,3.27,2.28,2.28,0,0,1-3,.13c-.73-1.45.2-3.22-1.3-4.35-2-.65-2.47,1.65-3.93,2-1.28-.07-1.72-1-2-2a3,3,0,0,1,.32-3,11.14,11.14,0,0,1,7.25-4.12c.21,0,.44.13.8.25.22.85.46,1.74.77,2.91a7.3,7.3,0,0,0,2.13.34A44.52,44.52,0,0,0,17.69,66a7.5,7.5,0,0,0,2.8-1.22,8.56,8.56,0,0,1,6-1.95c1-1,2.14-1.89,3.08-3,1.52-1.73.71-3.81-1.6-4.14a11.69,11.69,0,0,0-2.36.06A5.26,5.26,0,0,1,20.39,51c-.07-1.51.89-2.53,3.16-3.16,1.46,1.34,1.56,3.89,3.73,4.83,1.89.82,3.27,2.79,5.8,2.6a16.23,16.23,0,0,0,.79-1.72c.3-.9.55-1.81.78-2.74.81-3.28,3.42-4,6-3.65A4.52,4.52,0,0,1,44.37,51c.35,2.32-.5,4.43-2.3,5.27a38,38,0,0,1-3.8,1.34c-.71.26-1.42.54-2.16.83.12,2.54,2,4,2.75,5.91C39.73,66.55,42.25,66.45,43.64,67.71Z"/><path class="cls-1" d="M91.24,84.89a7.65,7.65,0,0,1-5.84,6.69,4.91,4.91,0,0,1-5.66-4.67,19.05,19.05,0,0,1,.16-2.61,3.45,3.45,0,0,0-1-3c-2.58-2.57-5.14-5.16-7.76-7.68a11.57,11.57,0,0,0-2.05-1.28l-1.44,1.3c.43,2.51,1.31,4.34,4.09,4.62a4,4,0,0,1,3,2.5c.78,1.5.14,2.64-1.56,2.86-1.07.15-2.25-.09-3.09.91-.64,2,1.79,2.41,2.18,4.09-1.6,2.38-3.56,2.81-5.58,1.14A11.58,11.58,0,0,1,62.93,83c-.06-.26.15-.59.23-.86,1.09-.39,2.11-.76,3.2-1.17a21.54,21.54,0,0,0,0-2.42c-.13-1.1-.45-2.17-.55-3.27A10.21,10.21,0,0,0,63.73,70a5.54,5.54,0,0,1-1.16-3.3c-.07-2.65-2-3.92-4-5.12a7.94,7.94,0,0,0-1.39-.52A2.66,2.66,0,0,0,55.33,64a27.06,27.06,0,0,1-.06,2.85A5.17,5.17,0,0,1,50,71a3.06,3.06,0,0,1-2.45-2,1.35,1.35,0,0,1,.63-1.83c.4-.24.9-.31,1.31-.53a4.92,4.92,0,0,0,1.74-1.14c1.29-1.89,2.45-3.88,3.63-5.85A1.8,1.8,0,0,0,55,59c-.31-.94-1.1-1.12-1.87-1.34-1.06-.3-2.14-.56-3.2-.9a4.68,4.68,0,0,1-3.28-4,4.89,4.89,0,0,1,1.82-4.87c2.41-2,6.84-.64,7.88,2.42.3.9.44,1.85.72,2.76.22.73.55,1.43.76,2,.43.14.59.26.72.23,2.64-.41,6.83-3.42,7.63-5.45.62-1.6,1.1-2.07,2-1.95a3.3,3.3,0,0,1,2.5,2.84,5.26,5.26,0,0,1-4.95,5.08c-.4,0-.79-.1-1.18-.13-2.31-.19-2.94.21-4,2.58.73,1.88,2.33,3.09,3.83,4.34a2.81,2.81,0,0,0,1.59.32,6.6,6.6,0,0,1,3.94,1.45c1.74,1.41,3.88,1.71,6,2.09.94.17,1.88.36,2.82.45,1.59.16,2.06-.22,2.48-1.84.11-.45.23-.89.38-1.48a5.07,5.07,0,0,1,1.61-.12,11.9,11.9,0,0,1,6.37,3.91,2.89,2.89,0,0,1,.57,2.88c-.34,1-.62,2.1-.95,3.25-2.12-.28-2.65-3.48-5.12-3-1,.65-.81,1.56-.8,2.42s0,1.81-1,2.24a2.43,2.43,0,0,1-2.66-.47,4.51,4.51,0,0,1-1.88-2.9,5.59,5.59,0,0,0-1.27-2.46,1.69,1.69,0,0,0-2.12-.56c-.34.15-.91-.23-1.58-.43a1.17,1.17,0,0,0-.5,1.81,10.17,10.17,0,0,0,1.54,2.09c1.73,1.84,3.51,3.65,5.3,5.43.68.67,1.44,1.25,2.14,1.89a2.79,2.79,0,0,0,2.38.81c.63-.09,1.28,0,1.9-.09,2.42-.46,3.91.91,5.14,2.66A3.64,3.64,0,0,1,91.24,84.89Z"/><path class="cls-1" d="M44.28,40.91a4.66,4.66,0,0,1-4.74,3.49c-2.83-.07-4.12-1.08-4.93-3.86-.36-1.22-.74-2.42-1.14-3.62-.07-.21-.29-.37-.64-.78a8,8,0,0,0-2,.56,40.26,40.26,0,0,0-4.6,2.94,4.81,4.81,0,0,0-1.42,2.07c-.34.84-.55,1.66-1.53,1.91-2.85-1.12-3.43-2.53-2.12-5.08,1.21-2.36,2.52-3.08,5.21-2.65a3.5,3.5,0,0,0,3.1-.71c1.18-1,1.32-2.11.31-3.29s-2-2.23-3.07-3.36a9.3,9.3,0,0,1-6.54-2A8.93,8.93,0,0,0,17,25.37c-1.46-.34-3-.53-4.44-.79-1.88-.33-2.37,0-2.85,1.86-.12.45-.25.9-.38,1.39-.34.11-.66.32-.92.27a11.45,11.45,0,0,1-6.69-3.78c-1.5-1.77-1.14-3.59,1-5.44L6.43,21.4c2.23-1.07,1.11-3.12,1.79-4.54a1.91,1.91,0,0,1,2.76-.2,4.62,4.62,0,0,1,2.29,3.16,4.44,4.44,0,0,0,3.87,3.6c1.48.18,2.24-.86,1.61-2.24A4.42,4.42,0,0,0,18,20c-2.55-2.6-5.12-5.18-7.68-7.77a3.68,3.68,0,0,0-3.22-1.18c-.62.08-1.26.1-1.89.12A4.69,4.69,0,0,1,.44,4.47a7.1,7.1,0,0,1,3.85-4,4.84,4.84,0,0,1,7,4.55,2.78,2.78,0,0,1,0,.71c-.61,2.36.34,4.13,2,5.7,2.36,2.22,4.61,4.57,7,6.76,1.41,1.28,2,1.12,3.4-.51-.31-.76-.59-1.66-1-2.48a3.3,3.3,0,0,0-2.8-1.93A4,4,0,0,1,16.66,11C15.59,9.32,16.19,8.16,18.21,8c1.84-.19,1.84-.19,3-1.11C21.42,5,19.34,4.4,19,2.92,20.4.79,22.47.2,24.16,1.61A11.12,11.12,0,0,1,28,8.49a2.68,2.68,0,0,1-.19.87c-.54.12-1.14.22-1.72.38-1.18.34-1.7.84-1.55,2,.42,3.35.52,6.8,2.73,9.69,1.18,1.55,1.2,2,1.39,5.58l2.68,2.31c.77.68,1.49,1.5,2.7,1A3.38,3.38,0,0,0,36,27.06c0-.39-.18-.77-.23-1.16A5,5,0,0,1,41,20.52a3.18,3.18,0,0,1,2.65,2.57,2.12,2.12,0,0,1-1.94,1.64,3.82,3.82,0,0,0-2.54,2c-.78,1.29-1.63,2.54-2.36,3.85a18.89,18.89,0,0,0-.93,2.35c.82.37,1.42.7,2.06.92,1.26.45,2.6.73,3.82,1.27C43.88,36,44.84,38.37,44.28,40.91Z"/><path class="cls-1" d="M89.4,24a10.83,10.83,0,0,1-7,4.07c-.21,0-.45-.11-.86-.23-.1-.53-.2-1.14-.34-1.73-.32-1.26-1-1.86-2.21-1.62-3.46.64-7.07.7-10.09,3.08-1.07.85-2.8.85-4.75,1.38C63,30,61.2,31.19,60.38,33.16c1.24,2.62,1.85,3,4.43,2.65a4.94,4.94,0,0,1,5.62,4.73c.08,1.71-1,2.52-2.41,3.17a2.25,2.25,0,0,1-1.9-1.89,4.27,4.27,0,0,0-2.27-2.89c-1.5-.87-3-1.79-4.5-2.63A4.93,4.93,0,0,0,58,36.07a15.18,15.18,0,0,0-.88,1.82c-.4,1.21-.61,2.47-1.06,3.65-.85,2.23-2.59,3.09-5.42,2.83a4.61,4.61,0,0,1-4-3.56,5.05,5.05,0,0,1,2.21-5.57,16,16,0,0,1,2.67-1c1-.35,2.07-.67,2.87-.92a2.14,2.14,0,0,0-.09-2.52c-.91-1.49-1.84-3-2.76-4.44a3.44,3.44,0,0,0-2.25-1.62,2.28,2.28,0,0,1-2-1.47c.83-2.66,2.41-3.44,4.8-2.37s3.18,2.38,3.07,5a17.21,17.21,0,0,0-.06,1.9,2.89,2.89,0,0,0,1.94,2.48c1,.44,1.68-.17,2.31-.79,1-1,2-2,3-3.07a8.54,8.54,0,0,1,1.88-6,9.33,9.33,0,0,0,1.28-3.28c.36-1.46.54-3,.78-4.45.37-2.28.09-2.66-2.3-3.15a9.66,9.66,0,0,1-1-.31,3.9,3.9,0,0,1-.12-1.37,13.08,13.08,0,0,1,3.2-5.76C68,.25,70.07.47,72,2.77,71.77,4.43,69,5,70.1,7.47c.57.15,1.3.38,2.05.51s1.38.14,1.88.19a2,2,0,0,1,.37,2.61,4.57,4.57,0,0,1-2.57,2.35c-.45.15-.94.13-1.4.27a4.78,4.78,0,0,0-3,4.18A1.41,1.41,0,0,0,69.21,19a3.89,3.89,0,0,0,1.62-.91C73.45,15.56,76,13,78.61,10.4A3.82,3.82,0,0,0,79.83,7a15.3,15.3,0,0,1,0-2.14A4.71,4.71,0,0,1,87,.7a7.5,7.5,0,0,1,3.47,3.77c1.43,3.48-1.06,7.18-4.76,6.68a6.87,6.87,0,0,0-6.52,2.36c-1.92,2.1-4,4.08-6,6.12a6.78,6.78,0,0,0-.88,1.12c-.43.69-.77,1.41-.13,2.18a1.7,1.7,0,0,0,2,.43c1.74-.55,3.24-1.38,3.46-3.46a4.29,4.29,0,0,1,2.62-3.43c1.52-.79,2.66-.13,2.82,1.58a11.41,11.41,0,0,0,.07,1.66,7.3,7.3,0,0,0,.62,1.44C86,21.48,86.5,19.28,88,19,90.08,20.37,90.68,22.34,89.4,24Z"/></g></g></svg>