<svg xmlns="http://www.w3.org/2000/svg" viewBox="0 0 58.92 59.23"><defs><style>.cls-1{fill:#3c2415;}</style></defs><title>Calle_ornamento_titulo_centro</title><g id="Layer_2" data-name="Layer 2"><g id="ornamentos"><path class="cls-1" d="M54.94,50.78c-.77.46-1.33.08-1.88-.33s-1-.78-1.48-1.11-1-.27-1.41.38a7.7,7.7,0,0,0,5.77,2.82c.69,0,1.45-.26,2.06.39.08,1.11-1.24,1.15-1.54,2.09a3.83,3.83,0,0,1,.86.49,10.35,10.35,0,0,1,1.42,1.58,1.26,1.26,0,0,1-.25,1.57,1.32,1.32,0,0,1-1.67.4,6.68,6.68,0,0,1-1.5-1.27,4.77,4.77,0,0,1-.58-1.08c-.88.34-1,1.49-2,1.7-.68-.58-.55-1.33-.53-2A7.13,7.13,0,0,0,50,51.08a2.58,2.58,0,0,0-.48-.38c-.08,0-.19,0-.39,0-.48.56-.23,1.11.13,1.62s.74.86,1.05,1.33c.72,1.08.47,1.76-.79,1.94a1.31,1.31,0,0,0-1.3,1.25c-.1.65-.17,1.37-1.09,1.51-1.38-.6-.51-2.07-1.11-3l-1.3-.87c-.12-.89.46-1.33.92-1.78A3.73,3.73,0,0,0,47,49.36c-.16-1.52.48-2.18,2-2a3.94,3.94,0,0,0,3.41-1.39c.44-.46.91-1,1.75-.76.09.09.25.18.29.31a1.56,1.56,0,0,0,1.77,1.16c.73,0,1.46,0,1.78.86a1,1,0,0,1-1,1,1.69,1.69,0,0,0-1.83,2C55.15,50.52,55,50.61,54.94,50.78Z"/><path class="cls-1" d="M56.45,4.08c.23,1,1.55,1,1.56,2.07-.37.66-1,.5-1.53.48A7.77,7.77,0,0,0,50.61,9a2.38,2.38,0,0,0-.29.36s0,.1,0,.25a.82.82,0,0,0,1.26.25A14.79,14.79,0,0,0,53,8.73c.59-.47,1.2-.83,2-.29a2.93,2.93,0,0,1,.21.55c.24,1.38.23,1.39,1.56,1.68.53.11,1,.23,1.2.82,0,.57-.34.83-.81,1a1.54,1.54,0,0,1-.61.07,1.79,1.79,0,0,0-2.23,1.57,4.84,4.84,0,0,1-1.18-.26,3.37,3.37,0,0,1-.95-.79,3.4,3.4,0,0,0-3-1.19c-1.72.12-2.33-.49-2.16-2.18a3.46,3.46,0,0,0-1.1-2.91,3.12,3.12,0,0,1-1.19-1.92l1.41-1c.15-.82.29-1.67.49-2.51,0-.16.28-.28.45-.44,1.58.18.86,1.84,1.78,2.6a8.19,8.19,0,0,1,1,.18,1,1,0,0,1,.67,1.54,13.21,13.21,0,0,1-1.09,1.49,1.59,1.59,0,0,0-.33,1.93,2.89,2.89,0,0,0,.77-.4,7.34,7.34,0,0,0,2.3-5.41c0-.69-.18-1.45.5-2,1,.11,1.17,1.14,2,1.59a5.52,5.52,0,0,1,.62-1A6,6,0,0,1,56.7.17a1.42,1.42,0,0,1,1.82.41,1.3,1.3,0,0,1,.12,1.71A9.71,9.71,0,0,1,57.25,3.7,3.19,3.19,0,0,1,56.45,4.08Z"/><path class="cls-1" d="M10,55.68c-.14,0-.45-.05-.75-.12-1.07-.24-1.36-.85-.78-1.79.29-.48.71-.88,1.05-1.34s.75-1.12.26-1.8A4.91,4.91,0,0,0,7.07,54a38.35,38.35,0,0,0-.63,4.36c-1.32,0-1.33-1.4-2.1-1.59a26.41,26.41,0,0,1-1.85,2.11A1.33,1.33,0,0,1,.89,59a1.55,1.55,0,0,1-.62-2.24c.37-.67.84-1.06,2.15-1.74-.12-1-1.62-1-1.56-2.08.5-.71,1.23-.46,1.87-.44a7.64,7.64,0,0,0,5.56-2.33,3,3,0,0,0,.39-.6c-.5-.68-1.05-.5-1.55-.18s-.89.71-1.34,1-1.12.77-1.91.24a6.37,6.37,0,0,1-.18-.65c-.23-1.24-.24-1.28-1.53-1.54C1.52,48.4.94,48.26.93,47.44a1.25,1.25,0,0,1,1.38-.79A2,2,0,0,0,4.68,45a5.64,5.64,0,0,1,1.15.39,5,5,0,0,1,1.06.9,2.77,2.77,0,0,0,2.62,1,3.16,3.16,0,0,1,.77,0c1.07.1,1.63.5,1.52,1.55a4.8,4.8,0,0,0,1.78,4.23,6.05,6.05,0,0,1,.73,1.16L12.81,55.3c-.58.9.22,2.25-1,3C10.2,58.19,11,56.35,10,55.68Z"/><path class="cls-1" d="M10.3,3.38c.12-.44.25-.92.37-1.41s.33-1,1-1.1c1.41.55.54,2,1.16,3l1.37.91a4.85,4.85,0,0,1-.39,1,7,7,0,0,1-.92,1A3.52,3.52,0,0,0,11.85,9.8c.1,1.64-.46,2.22-2.1,2.08A3.65,3.65,0,0,0,6.6,13.14c-.47.49-.95,1.16-1.92.86a3.72,3.72,0,0,1-.35-.58,1.4,1.4,0,0,0-1.48-.89,2.52,2.52,0,0,1-1.07-.09,1.58,1.58,0,0,1-.8-.8c-.14-.46.29-.72.7-.87a3.94,3.94,0,0,1,.45-.1c1.36-.32,1.36-.32,1.58-1.66a4,4,0,0,1,.12-.43c.54-.62,1.12-.45,1.66-.07s1,.79,1.46,1.14,1.09.63,1.73,0a6,6,0,0,0-.62-.82A7.51,7.51,0,0,0,2.59,6.63c-.59,0-1.26.23-1.73-.44,0-1,1.28-1.11,1.63-2a4,4,0,0,1-.73-.4A8.31,8.31,0,0,1,.32,2.4a1.39,1.39,0,0,1,.19-2A1.46,1.46,0,0,1,2.36.25,7.9,7.9,0,0,1,3.73,1.68a4.84,4.84,0,0,1,.46.91L6,.67a2,2,0,0,1,.65,1.95A7.34,7.34,0,0,0,8.94,8.19a4.63,4.63,0,0,0,.65.46A1.08,1.08,0,0,0,9.71,7.1C9.4,6.63,9,6.23,8.65,5.77c-.9-1.22-.59-1.94.92-2.21C9.76,3.53,10,3.47,10.3,3.38Z"/><path class="cls-1" d="M48.65,31.23c-.12.81-.74,1-1.41,1.19a29,29,0,0,0-4,1.33,19.4,19.4,0,0,0-11,13.2,6,6,0,0,1-.49,1.46.91.91,0,0,1-1.69-.14,2.49,2.49,0,0,1-.12-1.2,15.65,15.65,0,0,1,1.85-5.72,22,22,0,0,1,10.7-9.93,22.66,22.66,0,0,1,4.32-1.16C47.88,30.05,48,30.21,48.65,31.23Z"/><path class="cls-1" d="M48.67,27.9a1.27,1.27,0,0,1-1.55,1,20.67,20.67,0,0,1-2.88-.56c-7-2-13.24-9.08-14.24-16.1a2.91,2.91,0,0,1,.08-1.35.91.91,0,0,1,1.69-.14,4.22,4.22,0,0,1,.43,1.15c2,7.78,7,12.66,14.74,14.76C47.63,26.89,48.37,27,48.67,27.9Z"/><path class="cls-1" d="M28.94,46.6a7.18,7.18,0,0,1,0,.92,1,1,0,0,1-.84,1A.93.93,0,0,1,27,47.84a13.86,13.86,0,0,1-.38-1.34,19.63,19.63,0,0,0-13.25-14c-.58-.2-1.2-.31-1.79-.48a1.75,1.75,0,0,1-1.21-.75A1,1,0,0,1,11.11,30a4.09,4.09,0,0,1,1.51,0,17.31,17.31,0,0,1,7.49,3.16A22.6,22.6,0,0,1,28.75,45a1.11,1.11,0,0,1,0,.19c.05.46.08.93.11,1.39Z"/><path class="cls-1" d="M11.93,29a6,6,0,0,1-1.1-.28.88.88,0,0,1-.1-1.61,5.17,5.17,0,0,1,1.44-.51,19.64,19.64,0,0,0,12.24-9,18.43,18.43,0,0,0,2.22-5.41,3.9,3.9,0,0,1,.44-1.31,1.29,1.29,0,0,1,1-.53c.31,0,.66.44.81.77a2.17,2.17,0,0,1,0,1.06,13.87,13.87,0,0,1-1.5,5A21.83,21.83,0,0,1,15.62,28,34.56,34.56,0,0,1,11.93,29Z"/><path class="cls-1" d="M40.84,57.38A6.83,6.83,0,0,1,40,56.5a5.81,5.81,0,0,1,.37-6.65c.29-.36.63-.67.94-1a2.6,2.6,0,0,0,.77-2.67,2.9,2.9,0,0,1,.08-1c1.77.74,2.56,2.23,1.94,3.71a8.78,8.78,0,0,1-1.54,2.46,3.29,3.29,0,0,0-.88,3.39,5.43,5.43,0,0,1,.16,1.37C41.88,56.65,41.64,57.09,40.84,57.38Z"/><path class="cls-1" d="M57.11,41.2a1.44,1.44,0,0,1-1.83.93,4.51,4.51,0,0,0-5,1.36,4.61,4.61,0,0,1-1.74,1A3,3,0,0,1,45,43c-.06-.12,0-.29,0-.54.3,0,.62-.16.85-.07a2.32,2.32,0,0,0,2.55-.61c.39-.33.74-.71,1.13-1a5.93,5.93,0,0,1,7.15-.08A3.67,3.67,0,0,1,57.11,41.2Z"/><path class="cls-1" d="M42.2,14a2.9,2.9,0,0,1-.09-1,2.61,2.61,0,0,0-.77-2.68c-.31-.34-.65-.66-.94-1a5.88,5.88,0,0,1-.25-6.81,3.77,3.77,0,0,1,.73-.63,1.14,1.14,0,0,1,1,1.15,1.89,1.89,0,0,1,0,.77A4,4,0,0,0,43,8.41a5.39,5.39,0,0,1,1.08,1.86C44.72,11.79,44,13.25,42.2,14Z"/><path class="cls-1" d="M16.77,14.08c-1.94-.87-2.64-2.35-1.93-3.94a8,8,0,0,1,1.4-2.19,3.32,3.32,0,0,0,.94-3.51A4.82,4.82,0,0,1,17,3.05a1.14,1.14,0,0,1,.81-1.18c.68,0,.93.59,1.18,1.08A5.78,5.78,0,0,1,18.1,9.8a9.2,9.2,0,0,0-.64.67,2.58,2.58,0,0,0-.7,2.41A5.86,5.86,0,0,1,16.77,14.08Z"/><path class="cls-1" d="M18.09,57.4c-.84-.33-1.07-.77-1-1.33a5.1,5.1,0,0,1,.14-1.38,3.14,3.14,0,0,0-.89-3.38,8.11,8.11,0,0,1-1.37-2c-.81-1.69-.24-3.1,1.54-4.06.52.23.39.67.29,1.06a2.6,2.6,0,0,0,.78,2.54c.17.19.35.38.54.56,2,1.92,2,4.43,1,6.72A7,7,0,0,1,18.09,57.4Z"/><path class="cls-1" d="M57.09,18a4.51,4.51,0,0,1-.67.75,6,6,0,0,1-6.91-.27,7.65,7.65,0,0,1-.57-.52c-.95-1-2-1.68-3.41-1.08-.11,0-.29-.06-.51-.11,0-.19-.1-.42,0-.56a2.9,2.9,0,0,1,3.69-1.38,9.77,9.77,0,0,1,2.44,1.58,3.05,3.05,0,0,0,3.09.84A6.06,6.06,0,0,1,55.43,17C56.19,16.94,56.38,17.06,57.09,18Z"/><path class="cls-1" d="M1.73,41.35a4.54,4.54,0,0,1,.67-.82c1.63-1.15,4.84-1.68,6.93.17.31.27.6.57.9.85.84.76,1.72,1.33,2.93.82.19-.08.48,0,.72.07A2.54,2.54,0,0,1,10.7,44.5,7.33,7.33,0,0,1,8,43a3.76,3.76,0,0,0-3.83-1,3.4,3.4,0,0,1-1.51,0C2.37,42,2.09,41.63,1.73,41.35Z"/><path class="cls-1" d="M13.95,16.74c-.36,0-.69.15-.93,0a2.34,2.34,0,0,0-2.54.64c-.32.26-.59.58-.9.85a6,6,0,0,1-7,.47,4.82,4.82,0,0,1-.7-.73,1.32,1.32,0,0,1,1.6-1A9.6,9.6,0,0,1,5,17.27a2.91,2.91,0,0,0,2.7-.78,12.47,12.47,0,0,1,2.42-1.63,2.93,2.93,0,0,1,3.78,1.19A2,2,0,0,1,13.95,16.74Z"/><path class="cls-1" d="M28.57,41.13c-1.1-1.64-1.88-3-2.89-4.26a26.29,26.29,0,0,0-3.5-3.48c-1.21-1-2.59-1.76-4.14-2.8.58-.19.86-.38,1.1-.33a4.1,4.1,0,0,1,1.14.46,19.74,19.74,0,0,1,8.2,8.2,4,4,0,0,1,.45,1.14C29,40.3,28.76,40.57,28.57,41.13Z"/><path class="cls-1" d="M18.22,28.61c.91-1.11,2.2-1.38,3.13-2.17S23.21,25,24,24.12a25.26,25.26,0,0,0,2.4-2.82c.69-.94,1.26-2,2-3.15.25.39.51.62.5.83a2.75,2.75,0,0,1-.36,1,19.39,19.39,0,0,1-8.47,8.54,3.06,3.06,0,0,1-1,.38C18.86,28.94,18.6,28.75,18.22,28.61Z"/><path class="cls-1" d="M40.53,30.45c0,.7-.46.87-.87,1.08a19.81,19.81,0,0,0-8.44,8.33,7,7,0,0,1-.5.77c-.05.07-.18.09-.39.19-.12-.21-.39-.45-.36-.65A3.69,3.69,0,0,1,30.39,39a19.73,19.73,0,0,1,8.24-8.32,4.09,4.09,0,0,1,1.14-.47C40,30.2,40.29,30.38,40.53,30.45Z"/><path class="cls-1" d="M30.34,18c.89,1.4,1.49,2.47,2.21,3.46a21.86,21.86,0,0,0,2.31,2.71,35.58,35.58,0,0,0,2.85,2.37c.9.71,2.17.93,2.83,2a.7.7,0,0,1-1.07.37,18.62,18.62,0,0,1-2.18-1.16,20.19,20.19,0,0,1-6.79-7.3A5.13,5.13,0,0,1,30,19.12C29.91,18.9,30.12,18.62,30.34,18Z"/><path class="cls-1" d="M43.38,41.46A2.23,2.23,0,0,1,41,43.63a2.25,2.25,0,0,1-2.16-2.21,2.25,2.25,0,1,1,4.5,0Z"/><path class="cls-1" d="M17.75,15.58a2.2,2.2,0,1,1-2.24,2.25A2.19,2.19,0,0,1,17.75,15.58Z"/><path class="cls-1" d="M20,41.35a2.25,2.25,0,1,1-4.5,0,2.25,2.25,0,0,1,4.5,0Z"/><path class="cls-1" d="M41.14,20a2.22,2.22,0,0,1-2.26-2.25,2.25,2.25,0,0,1,4.51,0A2.21,2.21,0,0,1,41.14,20Z"/></g></g></svg>