<svg xmlns="http://www.w3.org/2000/svg" viewBox="0 0 134.9 134.9"><defs><style>.cls-1{fill-rule:evenodd;}</style></defs><title>Carto_orna1</title><g id="Layer_2" data-name="Layer 2"><g id="ornamentos"><path class="cls-1" d="M80.85,8.8S75.73,10.24,74.63,22c-.5,5.39-4.11,7.37-6.95,7.5-2.57.23-6.48-1.9-7.15-7.25-1.4-11.74-6.55-13-6.55-13S58.71,6.47,61.53,14c0,0,3.69-2.07,5.69,1.23a6.15,6.15,0,0,0-3.41,2.6C62.25,20,61.42,27.91,67.66,28.54c6.31-.9,5.23-8.72,3.6-10.9a6.21,6.21,0,0,0-3.51-2.52c1.91-3.36,5.66-1.42,5.66-1.42C76,6.18,80.85,8.8,80.85,8.8ZM57,4.93s3.36-2.09,7.78,2c0,0,1.53-.58-1.09-3,0,0,1.49-3,3.62-3.95C69.44.88,71,3.82,71,3.82c-2.57,2.51-1,3-1,3,4.27-4.26,7.73-2.28,7.73-2.28s-3.43.62-5.09,5.19c0,0-1.58-1.52-5.22.91-3.7-2.32-5.26-.72-5.26-.72C60.41,5.44,57,4.93,57,4.93Z"/><path class="cls-1" d="M8.8,54.05s1.44,5.11,13.2,6.22c5.39.5,7.37,4.11,7.49,6.95.24,2.57-1.89,6.48-7.24,7.15-11.74,1.4-13,6.56-13,6.56S6.47,76.19,14,73.37c0,0-2.07-3.69,1.23-5.69a6.09,6.09,0,0,0,2.6,3.41c2.22,1.56,10.13,2.39,10.77-3.85-.91-6.31-8.73-5.23-10.91-3.6a6.21,6.21,0,0,0-2.52,3.51c-3.36-1.92-1.42-5.66-1.42-5.66C6.18,58.86,8.8,54.05,8.8,54.05ZM4.93,77.92s-2.09-3.36,2-7.78c0,0-.58-1.53-3,1.09,0,0-3-1.49-3.95-3.62.88-2.15,3.82-3.75,3.82-3.75,2.5,2.57,3,1,3,1-4.26-4.27-2.28-7.73-2.28-7.73s.62,3.43,5.19,5.09c0,0-1.52,1.58.91,5.22-2.32,3.7-.72,5.26-.72,5.26C5.44,74.49,4.93,77.92,4.93,77.92Z"/><path class="cls-1" d="M54.05,126.1s5.11-1.44,6.22-13.2c.5-5.39,4.11-7.37,6.95-7.49,2.57-.24,6.48,1.89,7.15,7.24,1.4,11.74,6.55,13,6.55,13s-4.73,2.78-7.55-4.71c0,0-3.69,2.08-5.69-1.22a6.15,6.15,0,0,0,3.41-2.61c1.56-2.22,2.39-10.13-3.86-10.76-6.3.9-5.22,8.73-3.59,10.9a6.21,6.21,0,0,0,3.51,2.52c-1.92,3.36-5.66,1.42-5.66,1.42C58.86,128.72,54.05,126.1,54.05,126.1ZM77.92,130s-3.36,2.09-7.78-2c0,0-1.53.58,1.09,3,0,0-1.49,3-3.63,4-2.14-.88-3.74-3.82-3.74-3.82,2.57-2.5,1-3,1-3-4.27,4.26-7.73,2.28-7.73,2.28s3.43-.62,5.09-5.19c0,0,1.58,1.52,5.22-.91,3.7,2.32,5.26.72,5.26.72C74.48,129.46,77.92,130,77.92,130Z"/><path class="cls-1" d="M126.1,80.85s-1.44-5.11-13.2-6.22c-5.39-.49-7.37-4.11-7.49-6.95-.24-2.57,1.89-6.48,7.24-7.15,11.73-1.4,13-6.55,13-6.55s2.77,4.73-4.71,7.55c0,0,2.07,3.69-1.22,5.69a6.15,6.15,0,0,0-2.61-3.41c-2.22-1.56-10.13-2.39-10.77,3.86.91,6.3,8.74,5.22,10.91,3.59a6.28,6.28,0,0,0,2.52-3.51c3.36,1.92,1.42,5.66,1.42,5.66C128.72,76,126.1,80.85,126.1,80.85ZM130,57s2.09,3.36-2,7.78c0,0,.58,1.53,3-1.09,0,0,3,1.49,4,3.62C134,69.44,131.08,71,131.08,71c-2.51-2.57-3-1-3-1,4.26,4.27,2.28,7.73,2.28,7.73s-.62-3.43-5.19-5.09c0,0,1.52-1.58-.91-5.22,2.32-3.7.72-5.26.72-5.26C129.46,60.41,130,57,130,57Z"/><path d="M50.56,51s1.21-14.58-11.24-11.24C36,52.23,50.56,51,50.56,51Z"/><path d="M50.63,84.63S36.05,83.41,39.39,95.87C51.85,99.21,50.63,84.63,50.63,84.63Z"/><path d="M84.24,84.55S83,99.14,95.48,95.79C98.82,83.34,84.24,84.55,84.24,84.55Z"/><path d="M84.16,51S98.75,52.16,95.41,39.7C83,36.36,84.16,51,84.16,51Z"/><path d="M32.84,32.2c-1-1-2.8-3.89-1.16-5.53s2.68-.13,2.68-.13.6-3.53-2.5-3.1c0,0,1.28-3.47,4.14-.24a4.49,4.49,0,0,0,2.07,1.09,2.41,2.41,0,0,0-.21-2.16s4.45,2.75,2.13,5.6a2.25,2.25,0,0,1-3.08.4s-.76-.89-.09-1.31A1.39,1.39,0,0,0,38,26.61a1,1,0,0,0-1.47-1.47,2.38,2.38,0,0,0,0,3.62c1.91,1.92,4.25.19,4.65-.21a5.33,5.33,0,0,0-.3-7.66c-3.65-3.66-7.79-1.71-9.65.15s-4.23,6.42,1.28,11.86c3.24,3.21,6,6,7.72,7.7l.53-.54Z"/><path d="M31.81,102.35c-1,1-3.89,2.8-5.53,1.15s-.13-2.67-.13-2.67-3.52-.61-3.1,2.49c0,0-3.47-1.28-.24-4.14a4.3,4.3,0,0,0,1.09-2.07,2.43,2.43,0,0,0-2.16.22s2.75-4.46,5.6-2.13a2.24,2.24,0,0,1,.4,3.07s-.88.76-1.31.09a1.39,1.39,0,0,0-.21-1.13,1,1,0,0,0-1.47,1.47,2.4,2.4,0,0,0,3.63,0c1.91-1.92.18-4.26-.22-4.66a5.33,5.33,0,0,0-7.66.31c-3.65,3.65-1.71,7.79.15,9.64s6.42,4.23,11.86-1.28c3.21-3.24,6-6,7.7-7.71l-.54-.54Z"/><path d="M102,103.37c1,1,2.8,3.89,1.15,5.54s-2.67.12-2.67.12-.61,3.53,2.49,3.1c0,0-1.28,3.47-4.14.24a4.4,4.4,0,0,0-2.06-1.09,2.41,2.41,0,0,0,.21,2.16s-4.45-2.75-2.13-5.6a2.23,2.23,0,0,1,3.07-.39s.76.88.09,1.3a1.42,1.42,0,0,0-1.13.22,1,1,0,0,0,1.47,1.46,2.39,2.39,0,0,0,0-3.62c-1.92-1.92-4.26-.19-4.66.21a5.34,5.34,0,0,0,.31,7.67c3.65,3.65,7.79,1.7,9.64-.15s4.23-6.43-1.28-11.87c-3.24-3.21-6-6-7.71-7.7l-.54.54Z"/><path d="M103,33.22c1-1,3.89-2.79,5.54-1.15s.12,2.68.12,2.68,3.53.6,3.1-2.5c0,0,3.47,1.28.24,4.14a4.49,4.49,0,0,0-1.09,2.07,2.43,2.43,0,0,0,2.16-.22s-2.75,4.46-5.6,2.13a2.23,2.23,0,0,1-.39-3.07s.88-.76,1.3-.09a1.41,1.41,0,0,0,.22,1.13A1,1,0,0,0,110,36.87a2.39,2.39,0,0,0-3.62,0c-1.92,1.92-.18,4.27.21,4.66a5.35,5.35,0,0,0,7.67-.3c3.65-3.66,1.7-7.79-.15-9.65s-6.42-4.23-11.87,1.28c-3.21,3.24-6,6-7.7,7.71l.54.54Z"/><path d="M65.81,66.12c-3.83-2.73-1-12.64-1-12.64l-1.36-1.1C54.25,54.71,46.67,47,46.67,47s7.72,7.59,5.4,16.75l1.09,1.37S63.08,62.29,65.81,66.12Z"/><path d="M66.12,69c-2.73,3.82-12.64,1-12.64,1l-1.1,1.37C54.71,80.54,47,88.13,47,88.13s7.59-7.73,16.75-5.4l1.37-1.1S62.29,71.72,66.12,69Z"/><path d="M69,68.67c3.82,2.74,1,12.65,1,12.65l1.37,1.09c9.16-2.32,16.75,5.4,16.75,5.4s-7.73-7.59-5.4-16.75l-1.1-1.36S71.72,72.5,69,68.67Z"/><path d="M68.67,65.81c2.74-3.83,12.65-1,12.65-1l1.09-1.36c-2.32-9.16,5.4-16.75,5.4-16.75s-7.58,7.72-16.75,5.4L69.7,53.16S72.5,63.08,68.67,65.81Z"/></g></g></svg>