<svg xmlns="http://www.w3.org/2000/svg" viewBox="0 0 117.03 117.03"><title>Carto_orna3</title><g id="Layer_2" data-name="Layer 2"><g id="ornamentos"><path d="M69.24,10.72C64.92,10,63.15,12,62.6,12.81a4.42,4.42,0,0,0-.81-5.4C59.28,5.07,58.45,0,58.45,0a16.17,16.17,0,0,1-3.16,7.24,5.38,5.38,0,0,0-.83,5.82c-.33-.62-2-3.14-6.79-2.34,0,0-4.84,1.28-6.21,5.58,0,0,5.48-1.92,7.22.82s4.75,8.86,9.77,4.11c5,4.75,8-1.37,9.79-4.11s7.21-.82,7.21-.82C74.08,12,69.24,10.72,69.24,10.72Z"/><path d="M10.72,47.79C10,52.11,12,53.87,12.81,54.43a4.42,4.42,0,0,0-5.4.81C5.07,57.74,0,58.57,0,58.57a16.25,16.25,0,0,1,7.24,3.17,5.38,5.38,0,0,0,5.82.83c-.62.32-3.14,2-2.34,6.79,0,0,1.28,4.84,5.58,6.21,0,0-1.92-5.48.82-7.22S26,63.6,21.23,58.57c4.75-5-1.37-8-4.11-9.78s-.82-7.22-.82-7.22C12,42.94,10.72,47.79,10.72,47.79Z"/><path d="M47.79,106.3c4.32.72,6.08-1.23,6.64-2.08a4.42,4.42,0,0,0,.81,5.4c2.5,2.34,3.33,7.41,3.33,7.41a16.26,16.26,0,0,1,3.17-7.25,5.39,5.39,0,0,0,.83-5.81c.32.62,2,3.14,6.79,2.33,0,0,4.84-1.28,6.21-5.57,0,0-5.48,1.92-7.22-.82S63.6,91,58.57,95.79c-5-4.75-8,1.38-9.78,4.12s-7.22.82-7.22.82C43,105,47.79,106.3,47.79,106.3Z"/><path d="M106.3,69.24c.72-4.32-1.23-6.09-2.08-6.64a4.42,4.42,0,0,0,5.4-.81C112,59.28,117,58.46,117,58.46a16.26,16.26,0,0,1-7.25-3.17,5.36,5.36,0,0,0-5.81-.83c.62-.33,3.14-2,2.33-6.79,0,0-1.28-4.84-5.57-6.21,0,0,1.92,5.48-.82,7.22S91,53.43,95.8,58.46c-4.76,5,1.37,8,4.11,9.78s.82,7.21.82,7.21C105,74.08,106.3,69.24,106.3,69.24Z"/><path d="M96.59,20.44c-3.34,4.68-15.45,1.25-15.45,1.25l-1.33,1.67c2.83,11.19-6.6,20.46-6.6,20.46s9.27-9.44,20.45-6.6l1.67-1.33S91.91,23.78,96.59,20.44Z"/><path d="M20.44,20.44c4.68,3.34,1.25,15.45,1.25,15.45l1.67,1.33c11.19-2.84,20.46,6.6,20.46,6.6s-9.44-9.27-6.6-20.46l-1.33-1.67S23.78,25.12,20.44,20.44Z"/><path d="M20.44,96.59c3.34-4.68,15.45-1.26,15.45-1.26l1.33-1.67c-2.84-11.18,6.6-20.45,6.6-20.45s-9.27,9.43-20.46,6.59l-1.67,1.34S25.12,93.25,20.44,96.59Z"/><path d="M96.59,96.59c-4.68-3.34-1.26-15.45-1.26-15.45L93.66,79.8c-11.18,2.84-20.45-6.59-20.45-6.59s9.43,9.27,6.6,20.45l1.33,1.67S93.25,91.91,96.59,96.59Z"/><path d="M49.63,58.44a9,9,0,1,0,8.95-9A9,9,0,0,0,49.63,58.44Z"/></g></g></svg>