<svg xmlns="http://www.w3.org/2000/svg" viewBox="0 0 117.6 117.6" fill="white"><defs><style>.cls-1{fill-rule:evenodd;}</style></defs><title>Carto_orna4</title><g id="Layer_2" data-name="Layer 2"><g id="ornamentos"><path d="M12,21.46s.54.65-.38,1.57a1.6,1.6,0,0,1-2.26-.11,1.63,1.63,0,0,1,.16-2.53c1.29-1.19,4-.7,6,1.29a8.55,8.55,0,0,1,1.67,8.67s-.05-5.33-2.58-7.86C12.71,20.55,12,21.46,12,21.46Z"/><path d="M18.42,31.21a11.11,11.11,0,0,0-2.8-11.52c-5.28-5.28-8.46.59-8.46.59S4.31,17.75,8.72,15.6c0,0-5.92,2.69-8.72-3a10.08,10.08,0,0,0,6.3,1c3.93-.48,8.45,3.29,10.23,5.18S22.51,26.36,18.42,31.21Z"/><path d="M21.46,12s.65.54,1.57-.38a1.6,1.6,0,0,0-.11-2.26,1.63,1.63,0,0,0-2.53.16c-1.19,1.29-.7,4,1.29,6a8.52,8.52,0,0,0,8.67,1.67s-5.33-.05-7.86-2.58C20.55,12.71,21.46,12,21.46,12Z"/><path d="M31.21,18.42a11.09,11.09,0,0,1-11.52-2.8c-5.28-5.28.59-8.46.59-8.46s-2.53-2.85-4.69,1.56c0,0,2.7-5.92-3-8.72a10.08,10.08,0,0,1,1,6.3c-.48,3.93,3.29,8.46,5.17,10.23S26.36,22.51,31.21,18.42Z"/><path d="M25.19,25.19s1.33-1.87-.12-3.22-5.6-2.15-11.25-9.53S11.5,2.15,11.5,2.15a4.68,4.68,0,0,0-3.5,4A28,28,0,0,1,6.39,3.07C5.09.38,1,1,1,1S.38,5.1,3.07,6.39A28,28,0,0,1,6.19,8a4.7,4.7,0,0,0-4,3.5s2.91-3.34,10.29,2.32,8.18,9.8,9.53,11.26S25.19,25.19,25.19,25.19Z"/><path d="M57.63,57.63a1.65,1.65,0,1,0,2.34,0A1.65,1.65,0,0,0,57.63,57.63Z"/><path d="M57.3,48.57c1.18,2.25,1.13,5.14,1.5,6.13.37-1,.32-3.88,1.5-6.12a6.07,6.07,0,0,1,2.52-2.46c-2.79-1.93-3.43-4.29-3.43-5.31V37a.65.65,0,1,0-1.18,0v3.86c0,1-.64,3.38-3.42,5.31A6.09,6.09,0,0,1,57.3,48.57Z"/><path d="M50.51,52.63c2.43.76,4.42,2.83,5.39,3.27-.44-1-2.51-3-3.27-5.39a6.11,6.11,0,0,1,0-3.52c-3.34.6-5.46-.61-6.17-1.33l-2.73-2.72a.65.65,0,1,0-.83.83l2.72,2.73c.72.72,1.93,2.84,1.33,6.17A6.1,6.1,0,0,1,50.51,52.63Z"/><path d="M40.81,59.39c1,0,3.37.64,5.3,3.43a6.15,6.15,0,0,1,2.46-2.52c2.25-1.17,5.14-1.12,6.13-1.5-1-.37-3.88-.32-6.13-1.5a6.15,6.15,0,0,1-2.46-2.51c-1.93,2.78-4.28,3.42-5.3,3.42H37a.65.65,0,1,0,0,1.18Z"/><path d="M76.79,58.21c-1,0-3.37-.64-5.3-3.42A6.15,6.15,0,0,1,69,57.3c-2.25,1.18-5.14,1.13-6.13,1.5,1,.38,3.88.32,6.13,1.5a6.15,6.15,0,0,1,2.46,2.51c1.93-2.78,4.28-3.42,5.3-3.42h3.86a.66.66,0,1,0,0-1.18Z"/><path d="M52.67,70.61a6.07,6.07,0,0,1,0-3.51c.75-2.43,2.83-4.44,3.27-5.4-1,.44-3,2.52-5.39,3.28a6.15,6.15,0,0,1-3.52,0c.6,3.34-.61,5.46-1.33,6.18l-2.72,2.72a.89.89,0,0,0-.25,1.09.87.87,0,0,0,1.08-.25l2.73-2.73C47.22,71.22,49.33,70,52.67,70.61Z"/><path d="M73.83,42.94l-2.72,2.72c-.73.72-2.85,1.93-6.18,1.33a6.11,6.11,0,0,1,0,3.52c-.75,2.42-2.83,4.43-3.27,5.39,1-.44,3-2.51,5.39-3.27a6.1,6.1,0,0,1,3.52,0c-.6-3.33.61-5.45,1.33-6.17l2.73-2.73a.65.65,0,1,0-.84-.83Z"/><path d="M67.09,65c-2.42-.76-4.42-2.84-5.39-3.28.44,1,2.52,3,3.27,5.4a6.07,6.07,0,0,1,0,3.51c3.33-.6,5.46.61,6.18,1.33l2.72,2.73a.66.66,0,1,0,.84-.84l-2.73-2.72c-.72-.72-1.93-2.84-1.33-6.17A6.2,6.2,0,0,1,67.09,65Z"/><path d="M60.3,69c-1.18-2.25-1.13-5.14-1.5-6.13-.38,1-.32,3.88-1.5,6.13a6.15,6.15,0,0,1-2.51,2.46c2.78,1.93,3.42,4.29,3.42,5.3v3.86a.66.66,0,1,0,1.18,0V76.79c0-1,.64-3.37,3.43-5.3A6.15,6.15,0,0,1,60.3,69Z"/><path d="M19.05,19.05c5.37,3.84,1.44,17.74,1.44,17.74l1.92,1.53c12.84-3.26,23.48,7.57,23.48,7.57S35.06,35.25,38.32,22.41l-1.53-1.92S22.88,24.42,19.05,19.05Z"/><path d="M21.46,105.6s.65-.55,1.57.37a1.61,1.61,0,0,1-.11,2.27,1.64,1.64,0,0,1-2.53-.17c-1.19-1.29-.7-4,1.29-6a8.57,8.57,0,0,1,8.67-1.67s-5.33,0-7.86,2.59C20.55,104.89,21.46,105.6,21.46,105.6Z"/><path d="M31.21,99.19A11.09,11.09,0,0,0,19.69,102c-5.28,5.28.59,8.45.59,8.45s-2.53,2.85-4.69-1.56c0,0,2.7,5.92-3,8.72a10.08,10.08,0,0,0,1-6.3c-.48-3.93,3.29-8.45,5.17-10.23S26.36,95.09,31.21,99.19Z"/><path d="M12,96.14s.54-.65-.38-1.56a1.58,1.58,0,0,0-2.26.11,1.62,1.62,0,0,0,.16,2.52c1.29,1.19,4,.7,6-1.29a8.55,8.55,0,0,0,1.67-8.67s-.05,5.33-2.58,7.86C12.71,97.05,12,96.14,12,96.14Z"/><path d="M18.42,86.39a11.11,11.11,0,0,1-2.8,11.52c-5.28,5.28-8.46-.59-8.46-.59S4.31,99.85,8.72,102c0,0-5.92-2.7-8.72,3a10.08,10.08,0,0,1,6.3-1c3.93.48,8.45-3.28,10.23-5.17S22.51,91.24,18.42,86.39Z"/><path d="M25.19,92.41s-1.88-1.34-3.22.12-2.16,5.6-9.53,11.25S2.16,106.1,2.16,106.1a4.66,4.66,0,0,0,4,3.5,28.55,28.55,0,0,1-3.12,1.62C.38,112.51,1,116.64,1,116.64s4.13.58,5.43-2.11A28,28,0,0,1,8,111.41a4.68,4.68,0,0,0,3.5,4s-3.34-2.91,2.32-10.29,9.8-8.18,11.25-9.53S25.19,92.41,25.19,92.41Z"/><path d="M19.05,98.55c3.83-5.37,17.73-1.43,17.73-1.43l1.54-1.92c-3.26-12.85,7.57-23.49,7.57-23.49S35.25,82.54,22.4,79.28l-1.91,1.54S24.42,94.72,19.05,98.55Z"/><path d="M105.59,96.14s-.54-.65.38-1.56a1.59,1.59,0,0,1,2.26.1,1.63,1.63,0,0,1-.16,2.53c-1.29,1.19-4,.7-6-1.29a8.57,8.57,0,0,1-1.67-8.67s0,5.33,2.58,7.86C104.89,97.05,105.59,96.14,105.59,96.14Z"/><path d="M99.19,86.39A11.09,11.09,0,0,0,102,97.91c5.27,5.28,8.45-.59,8.45-.59s2.85,2.53-1.56,4.69c0,0,5.92-2.7,8.72,3a10.08,10.08,0,0,0-6.3-1c-3.93.48-8.45-3.28-10.23-5.17S95.09,91.24,99.19,86.39Z"/><path d="M96.14,105.6s-.65-.55-1.57.37a1.6,1.6,0,0,0,.11,2.26,1.63,1.63,0,0,0,2.53-.16c1.19-1.29.7-4-1.29-6a8.57,8.57,0,0,0-8.67-1.67s5.33,0,7.86,2.58C97.05,104.89,96.14,105.6,96.14,105.6Z"/><path d="M86.39,99.19A11.09,11.09,0,0,1,97.91,102c5.28,5.28-.59,8.45-.59,8.45s2.53,2.85,4.69-1.56c0,0-2.7,5.92,3,8.72a10.08,10.08,0,0,1-1-6.3c.48-3.93-3.29-8.45-5.17-10.23S91.24,95.09,86.39,99.19Z"/><path d="M92.41,92.41s-1.34,1.88.12,3.22,5.6,2.16,11.25,9.53,2.32,10.29,2.32,10.29a4.7,4.7,0,0,0,3.5-4,28,28,0,0,1,1.61,3.12c1.3,2.69,5.43,2.11,5.43,2.11s.58-4.13-2.11-5.42a28.55,28.55,0,0,1-3.12-1.62,4.68,4.68,0,0,0,4-3.5s-2.91,3.34-10.29-2.32S97,94,95.63,92.53,92.41,92.41,92.41,92.41Z"/><path d="M98.55,98.55c-5.37-3.83-1.44-17.73-1.44-17.73L95.2,79.28c-12.85,3.26-23.49-7.57-23.49-7.57S82.54,82.35,79.28,95.2l1.54,1.92S94.72,93.18,98.55,98.55Z"/><path d="M96.14,12s-.65.54-1.57-.38a1.6,1.6,0,0,1,.11-2.26,1.63,1.63,0,0,1,2.53.16c1.19,1.29.7,4-1.29,6a8.52,8.52,0,0,1-8.67,1.67s5.33-.05,7.86-2.58C97.05,12.71,96.14,12,96.14,12Z"/><path d="M86.39,18.42a11.11,11.11,0,0,0,11.52-2.8c5.28-5.28-.59-8.46-.59-8.46S99.85,4.31,102,8.72c0,0-2.69-5.92,3-8.72a10.08,10.08,0,0,0-1,6.3c.48,3.93-3.29,8.45-5.17,10.23S91.24,22.51,86.39,18.42Z"/><path d="M105.59,21.46s-.54.65.38,1.57a1.6,1.6,0,0,0,2.26-.11,1.63,1.63,0,0,0-.16-2.53c-1.29-1.19-4-.7-6,1.29a8.57,8.57,0,0,0-1.67,8.67s0-5.33,2.58-7.86C104.89,20.55,105.59,21.46,105.59,21.46Z"/><path d="M99.19,31.21A11.09,11.09,0,0,1,102,19.69c5.27-5.28,8.45.59,8.45.59s2.85-2.53-1.56-4.68c0,0,5.92,2.69,8.72-3a10.08,10.08,0,0,1-6.3,1c-3.93-.48-8.45,3.29-10.23,5.17S95.09,26.36,99.19,31.21Z"/><path d="M92.41,25.19s1.87,1.34,3.22-.11,2.15-5.61,9.53-11.26,10.29-2.31,10.29-2.31a4.68,4.68,0,0,0-4-3.5,25.93,25.93,0,0,1,3.12-1.62C117.22,5.1,116.64,1,116.64,1s-4.14-.58-5.43,2.11a28,28,0,0,1-1.61,3.12,4.7,4.7,0,0,0-3.5-4s3.34,2.91-2.32,10.29S94,20.62,92.53,22,92.41,25.19,92.41,25.19Z"/><path d="M98.55,19.05c-3.83,5.37-17.73,1.44-17.73,1.44L79.28,22.4c3.26,12.85-7.57,23.49-7.57,23.49s10.64-10.83,23.48-7.57l1.92-1.53S93.18,22.89,98.55,19.05Z"/><path d="M58.61,22.91s-.1,5.57-1.37,9a5.14,5.14,0,0,1,.88,2.68,1.12,1.12,0,0,0-.75,1.13,1.25,1.25,0,1,0,2.49,0,1.12,1.12,0,0,0-.76-1.13A5.14,5.14,0,0,1,60,31.89C58.71,28.48,58.61,22.91,58.61,22.91Z"/><path class="cls-1" d="M58,17.71A10.59,10.59,0,0,0,56.46,13a5.24,5.24,0,0,1-.75-2.21,6.24,6.24,0,0,1,1-2.88c.55-1,1.34-2.53,1.86-3.81.52,1.28,1.31,2.79,1.86,3.81a6.35,6.35,0,0,1,1,2.88A5.26,5.26,0,0,1,60.65,13a10.7,10.7,0,0,0-1.51,4.75h.47A7,7,0,0,1,60.69,14a4.77,4.77,0,0,1,4.45-2.36,3.09,3.09,0,0,1,2.91,3.15,5.1,5.1,0,0,1-2.19,4c0-1.92-.78-3.11-2.91-3.11a2.16,2.16,0,0,0-2.3,2,1.16,1.16,0,0,1,1.26,1.13,2.46,2.46,0,0,0-1.26-.44,3.11,3.11,0,0,0,.79,2.1c.12-.58.35-1.05.82-1.05a1.24,1.24,0,0,1,1.07,1.28A1.13,1.13,0,0,1,62.23,22c-1.17,0-2.39-1.48-2.51-3.58h-.58a5,5,0,0,0,.23,1.75,2.69,2.69,0,0,1,.24.9,14.35,14.35,0,0,1-1,2.91,14.35,14.35,0,0,1-1.05-2.91,2.91,2.91,0,0,1,.23-.9A4.76,4.76,0,0,0,58,18.4H57.4C57.28,20.5,56.06,22,54.89,22a1.11,1.11,0,0,1-1.1-1.25,1.24,1.24,0,0,1,1.07-1.28c.47,0,.7.47.82,1.05a3.06,3.06,0,0,0,.78-2.1,2.46,2.46,0,0,0-1.25.44,1.15,1.15,0,0,1,1.25-1.13,2.16,2.16,0,0,0-2.29-2c-2.13,0-2.91,1.19-2.92,3.11a5.12,5.12,0,0,1-2.18-4A3.09,3.09,0,0,1,52,11.68,4.8,4.8,0,0,1,56.44,14a7.12,7.12,0,0,1,1.07,3.67Z"/><path d="M22.91,59s5.57.1,9,1.37a5.14,5.14,0,0,1,2.68-.88,1.12,1.12,0,0,0,1.13.75,1.25,1.25,0,1,0,0-2.48,1.12,1.12,0,0,0-1.13.75,5.14,5.14,0,0,1-2.68-.88C28.48,58.89,22.91,59,22.91,59Z"/><path class="cls-1" d="M17.71,59.62A10.7,10.7,0,0,0,13,61.13a5.12,5.12,0,0,1-2.21.76,6.33,6.33,0,0,1-2.88-1A42.4,42.4,0,0,0,4.06,59c1.28-.52,2.79-1.31,3.81-1.86a6.35,6.35,0,0,1,2.88-1A5.26,5.26,0,0,1,13,57a10.7,10.7,0,0,0,4.75,1.51V58A7.11,7.11,0,0,1,14,56.92a4.79,4.79,0,0,1-2.36-4.45,3.08,3.08,0,0,1,3.15-2.91,5.09,5.09,0,0,1,4,2.18c-1.92,0-3.11.78-3.11,2.9a2.16,2.16,0,0,0,2,2.31,1.15,1.15,0,0,1,1.13-1.25A2.4,2.4,0,0,0,18.4,57a3.13,3.13,0,0,0,2.1-.79c-.59-.11-1.05-.35-1.05-.81a1.24,1.24,0,0,1,1.28-1.08A1.13,1.13,0,0,1,22,55.38c0,1.16-1.48,2.39-3.58,2.5v.58a5,5,0,0,0,1.75-.23,2.69,2.69,0,0,1,.9-.24A14.35,14.35,0,0,1,24,59a13.75,13.75,0,0,1-2.91,1.05,2.91,2.91,0,0,1-.9-.23,4.76,4.76,0,0,0-1.75-.24v.59c2.1.11,3.58,1.33,3.58,2.5a1.13,1.13,0,0,1-1.25,1.11,1.25,1.25,0,0,1-1.28-1.08c0-.46.47-.7,1.05-.82a3.13,3.13,0,0,0-2.1-.79,2.46,2.46,0,0,0,.44,1.26,1.15,1.15,0,0,1-1.13-1.25,2.15,2.15,0,0,0-2,2.3c0,2.12,1.19,2.91,3.11,2.91a5.12,5.12,0,0,1-4,2.18,3.09,3.09,0,0,1-3.15-2.91A4.77,4.77,0,0,1,14,61.17a7,7,0,0,1,3.67-1.08Z"/><path d="M59,94.69s.1-5.57,1.36-9A5.18,5.18,0,0,1,59.48,83a1.12,1.12,0,0,0,.75-1.12,1.25,1.25,0,1,0-2.48,0A1.12,1.12,0,0,0,58.5,83a5.14,5.14,0,0,1-.88,2.68C58.89,89.12,59,94.69,59,94.69Z"/><path class="cls-1" d="M59.62,99.9a10.62,10.62,0,0,0,1.51,4.74,5.12,5.12,0,0,1,.76,2.21,6.16,6.16,0,0,1-1,2.88A41.41,41.41,0,0,0,59,113.55a41.41,41.41,0,0,0-1.86-3.82,6.28,6.28,0,0,1-1-2.88,5.12,5.12,0,0,1,.76-2.21,10.62,10.62,0,0,0,1.51-4.74H58a7.11,7.11,0,0,1-1.07,3.66,4.79,4.79,0,0,1-4.45,2.36,3.08,3.08,0,0,1-2.92-3.14,5.1,5.1,0,0,1,2.19-4c0,1.92.78,3.11,2.91,3.12A2.17,2.17,0,0,0,57,99.9a1.16,1.16,0,0,1-1.25-1.14A2.4,2.4,0,0,0,57,99.2a3.13,3.13,0,0,0-.79-2.1c-.11.59-.35,1.05-.81,1.05a1.24,1.24,0,0,1-1.08-1.28,1.13,1.13,0,0,1,1.1-1.25c1.17,0,2.39,1.48,2.51,3.58h.58a5,5,0,0,0-.23-1.75,2.69,2.69,0,0,1-.24-.9,14.35,14.35,0,0,1,1-2.91,13.75,13.75,0,0,1,1.05,2.91,2.91,2.91,0,0,1-.23.9,4.76,4.76,0,0,0-.24,1.75h.58c.12-2.1,1.34-3.58,2.51-3.58a1.13,1.13,0,0,1,1.1,1.25,1.24,1.24,0,0,1-1.07,1.28c-.47,0-.7-.46-.82-1.05a3.13,3.13,0,0,0-.79,2.1,2.46,2.46,0,0,0,1.26-.44,1.17,1.17,0,0,1-1.26,1.14,2.16,2.16,0,0,0,2.31,1.95c2.12,0,2.9-1.2,2.9-3.12a5.1,5.1,0,0,1,2.19,4,3.08,3.08,0,0,1-2.91,3.14,4.8,4.8,0,0,1-4.46-2.36,7.11,7.11,0,0,1-1.07-3.66Z"/><path d="M94.69,58.61s-5.57-.09-9-1.36a5.14,5.14,0,0,1-2.68.88,1.12,1.12,0,0,0-1.13-.76,1.25,1.25,0,1,0,0,2.49A1.12,1.12,0,0,0,83,59.1a5.14,5.14,0,0,1,2.68.88C89.12,58.71,94.69,58.61,94.69,58.61Z"/><path class="cls-1" d="M99.9,58a10.59,10.59,0,0,0,4.74-1.52,5.38,5.38,0,0,1,2.21-.75,6.35,6.35,0,0,1,2.88,1c1,.55,2.53,1.34,3.81,1.86-1.28.53-2.79,1.31-3.81,1.86a6.24,6.24,0,0,1-2.88,1,5.38,5.38,0,0,1-2.21-.75,10.58,10.58,0,0,0-4.74-1.51v.46a7,7,0,0,1,3.67,1.08,4.77,4.77,0,0,1,2.36,4.45,3.09,3.09,0,0,1-3.14,2.91,5.12,5.12,0,0,1-4-2.18c1.92,0,3.11-.79,3.11-2.91a2.16,2.16,0,0,0-1.94-2.3,1.16,1.16,0,0,1-1.14,1.25,2.46,2.46,0,0,0,.44-1.25,3.1,3.1,0,0,0-2.1.78c.59.12,1.05.35,1.05.82a1.24,1.24,0,0,1-1.28,1.07,1.13,1.13,0,0,1-1.25-1.1c0-1.17,1.48-2.39,3.58-2.51v-.57a4.81,4.81,0,0,0-1.75.22,2.69,2.69,0,0,1-.9.24,13.75,13.75,0,0,1-2.91-1,14.17,14.17,0,0,1,2.91-1,2.88,2.88,0,0,1,.9.22A4.76,4.76,0,0,0,99.2,58V57.4c-2.1-.12-3.58-1.34-3.58-2.51a1.13,1.13,0,0,1,1.25-1.1,1.24,1.24,0,0,1,1.28,1.07c0,.47-.46.71-1.05.82a3.1,3.1,0,0,0,2.1.78,2.46,2.46,0,0,0-.44-1.25,1.18,1.18,0,0,1,1.14,1.26,2.16,2.16,0,0,0,1.94-2.3c0-2.13-1.19-2.91-3.11-2.91a5.1,5.1,0,0,1,4-2.19A3.09,3.09,0,0,1,105.92,52a4.8,4.8,0,0,1-2.36,4.46,7.14,7.14,0,0,1-3.66,1.08Z"/></g></g></svg>