<svg xmlns="http://www.w3.org/2000/svg" viewBox="0 0 1015 18.8"><defs><style>.cls-1,.cls-2{fill:none;stroke:#f38013;stroke-linecap:round;stroke-linejoin:round;stroke-width:2px;}.cls-2{stroke-dasharray:2 3;}.cls-3{fill:#f38013;}</style></defs><title>Carto_header</title><g id="Layer_2" data-name="Layer 2"><g id="imagen_suelta"><line class="cls-1" x1="1014" y1="9.4" x2="1013" y2="9.4"/><line class="cls-2" x1="1010" y1="9.4" x2="17.92" y2="9.4"/><line class="cls-1" x1="16.42" y1="9.4" x2="15.42" y2="9.4"/><polygon class="cls-3" points="16.23 10.39 11.38 18.8 9.1 18.8 13.96 10.39 11.68 10.39 6.83 18.8 4.55 18.8 9.41 10.39 7.13 10.39 2.27 18.8 0 18.8 4.86 10.39 2.53 10.39 2.53 8.41 4.86 8.41 0 0 2.27 0 7.13 8.41 9.41 8.41 4.55 0 6.83 0 11.68 8.41 13.96 8.41 9.1 0 11.38 0 16.23 8.41 16.23 10.39"/></g></g></svg>