<svg xmlns="http://www.w3.org/2000/svg" viewBox="0 0 475.78 43.29"><defs><style>.cls-1{fill-rule:evenodd;}</style></defs><title>Carto_title2</title><g id="Layer_2" data-name="Layer 2"><g id="imagen_suelta"><path d="M297.79,32.13a8.31,8.31,0,0,0-1-3.55,7.82,7.82,0,0,0-1.83-2.5,11.43,11.43,0,0,0-2.59-1.83,17,17,0,0,0-3.08-1.16,1,1,0,0,0-1.06.39,13,13,0,0,0-.67,1.15,3.45,3.45,0,0,1-.77,1.16.89.89,0,0,1-1.15.29,15,15,0,0,0,.29-4,7.69,7.69,0,0,0-.58-3.08,4.09,4.09,0,0,0-1.54-2,4.35,4.35,0,0,0-2.59-.48A19.48,19.48,0,0,0,279.43,13a4.59,4.59,0,0,0-3-1.83,3,3,0,0,0-2.21.29,2.66,2.66,0,0,0-1.54,1.92,3,3,0,0,0-2-.48,5,5,0,0,0-2,1A5.91,5.91,0,0,0,267,15.69a4.27,4.27,0,0,0-.68,2.4c0,3.08,1,4.81,2.88,5.1-.19-.67.1-1.06.58-1.15a1.52,1.52,0,0,1,1.45.67,4.41,4.41,0,0,1,.57,3.56,12.68,12.68,0,0,1-1.54,4.42,14.48,14.48,0,0,1-3.17,3.66A6.35,6.35,0,0,1,263,35.88c.48-.86,1-1.82,1.44-2.69s1-1.82,1.34-2.6.67-1.44.39-1.82a.69.69,0,0,0-1.06.09c-1,.87-1.82,1.83-2.69,2.7a30,30,0,0,1-2.6,2.31,12.5,12.5,0,0,1-2.69,1.82,10.8,10.8,0,0,1-3.27,1,7,7,0,0,1-4.52-.57,6.86,6.86,0,0,1-3-3,9.49,9.49,0,0,0,2.31.19,6.29,6.29,0,0,0,2-.58A3.24,3.24,0,0,0,252,31.56a2.36,2.36,0,0,0,.19-1.83,8.26,8.26,0,0,1-4,.1,9.86,9.86,0,0,1-4-1.93A12.57,12.57,0,0,1,241,24.34a9.22,9.22,0,0,1-1.24-4.8,9.54,9.54,0,0,1,.67-3.66A10.53,10.53,0,0,1,242.12,13a6,6,0,0,1,2.59-1.54,3.81,3.81,0,0,1,2.89.29,1.32,1.32,0,0,0,1.15.19,1.36,1.36,0,0,0,.87-.58,1.92,1.92,0,0,0,.29-1A3.14,3.14,0,0,0,249.62,9a7.24,7.24,0,0,0-1.35-2.12,4.9,4.9,0,0,0-1.92-1.44,9.19,9.19,0,0,1,5.86-2.5,9.88,9.88,0,0,1,5.58,1.16,8.9,8.9,0,0,1,3.75,4.23,10.33,10.33,0,0,1,.39,6.44c-1.54-1.54-3.08-2.12-4.71-1.83a3.46,3.46,0,0,0-2.12,1.44,4.66,4.66,0,0,0-.86,2.89c.09,2.79,1.44,4.33,4.13,4.71a4.62,4.62,0,0,0,3.46-1.06,6.36,6.36,0,0,0,2.4-3.94,15.41,15.41,0,0,0,.39-6.25,23.24,23.24,0,0,0-2-5.77,2.43,2.43,0,0,1,2-1.15,3.38,3.38,0,0,1,2.21.48,4.24,4.24,0,0,0-.67-2.5A2.35,2.35,0,0,0,264.62.59a2.71,2.71,0,0,0-1.93.1,4.91,4.91,0,0,0-1.92,1.83A10.48,10.48,0,0,0,254.33,0a15.33,15.33,0,0,0-6.44,1,12.83,12.83,0,0,0-4.71,3.17,15.24,15.24,0,0,0-3.08,4.43,19.71,19.71,0,0,0-1.54,5.28c-.19,1.93-.38,3.75-.38,5.58a14.23,14.23,0,0,0,.67,4.43c.38,1.44.87,2.88,1.35,4.32s.86,2.89,1.25,4.33a13.37,13.37,0,0,1,.67,4.23,9.4,9.4,0,0,1-.48,2.79,8.29,8.29,0,0,1-1.44,2.69,3.7,3.7,0,0,0,2.5,0,4.43,4.43,0,0,0,1.92-1.54,6.76,6.76,0,0,0,1.15-2.4,6.14,6.14,0,0,0-.09-3,24.63,24.63,0,0,0,7.59,6,19.87,19.87,0,0,0,8.75,2A29.7,29.7,0,0,0,270.68,42,29.94,29.94,0,0,0,278,39a6.76,6.76,0,0,1,3.17-1.15,3.47,3.47,0,0,1,2.5.57,2.45,2.45,0,0,0,1.35.48,1.15,1.15,0,0,0,.76-.57,4.07,4.07,0,0,0,.2-1.16,2.58,2.58,0,0,0-.29-1.15,3.14,3.14,0,0,0-1.35-1.54,15.57,15.57,0,0,0-2.31-1,2.49,2.49,0,0,1,1.44-1.35,3.77,3.77,0,0,1,2,.1,10.81,10.81,0,0,1,2.3.87c.87.28,1.64.57,2.31.77s1.25.19,1.35-.29a1.53,1.53,0,0,0-.58-1.35,7.17,7.17,0,0,0-1.54-1.54,1.28,1.28,0,0,1-.48-1.34c.19-.39.58-.58,1.25-.68a5.57,5.57,0,0,1,2.12.1,5.92,5.92,0,0,1,2.11,1,2.1,2.1,0,0,1,1.16,1.44,2.69,2.69,0,0,1-.1,1.25,3.59,3.59,0,0,1-.58,1c-.29.29-.48.58-.77.87a4.07,4.07,0,0,0-.67,1.06,2.5,2.5,0,0,0-.19,1.44,4.69,4.69,0,0,0,.38,1.25,1.75,1.75,0,0,0,.77.86,1.1,1.1,0,0,0,1,.1,3.68,3.68,0,0,0,2.12-2.69,12.35,12.35,0,0,0,.38-4.14ZM236.25,19.44c0-1.83-.19-3.65-.38-5.58a19.71,19.71,0,0,0-1.54-5.28,15.24,15.24,0,0,0-3.08-4.43A12.75,12.75,0,0,0,226.54,1a15.33,15.33,0,0,0-6.44-1,10.71,10.71,0,0,0-6.44,2.5A4.87,4.87,0,0,0,211.73.69a2.68,2.68,0,0,0-1.92-.1,2.35,2.35,0,0,0-1.54,1.16,5.12,5.12,0,0,0-.67,2.5,3.53,3.53,0,0,1,2.31-.48,2.38,2.38,0,0,1,1.92,1.15,19.5,19.5,0,0,0-1.92,5.77,13.76,13.76,0,0,0,.29,6.25,6.45,6.45,0,0,0,2.4,3.94,4.62,4.62,0,0,0,3.46,1.06c2.79-.38,4.14-1.92,4.14-4.71a4.66,4.66,0,0,0-.87-2.89,3.47,3.47,0,0,0-2.11-1.44,5.2,5.2,0,0,0-4.72,1.83,10.33,10.33,0,0,1,.39-6.44,9.13,9.13,0,0,1,3.84-4.23,9.91,9.91,0,0,1,5.58-1.16,8.74,8.74,0,0,1,5.77,2.5,6.81,6.81,0,0,0-1.92,1.44A7.24,7.24,0,0,0,224.81,9a3.14,3.14,0,0,0-.29,1.35,1.92,1.92,0,0,0,.29,1,1.45,1.45,0,0,0,.77.58,1.53,1.53,0,0,0,1.25-.19,3.75,3.75,0,0,1,2.88-.29,6,6,0,0,1,2.6,1.54A10.53,10.53,0,0,1,234,15.88a9.54,9.54,0,0,1,.67,3.66,9.22,9.22,0,0,1-1.24,4.8,12.57,12.57,0,0,1-3.18,3.56,9.8,9.8,0,0,1-4,1.93,8.31,8.31,0,0,1-4-.1,2.41,2.41,0,0,0,.2,1.83,3.24,3.24,0,0,0,1.34,1.15,6.29,6.29,0,0,0,2,.58,9.49,9.49,0,0,0,2.31-.19,6.86,6.86,0,0,1-3,3,7,7,0,0,1-4.52.57,9.4,9.4,0,0,1-3.17-1,12.56,12.56,0,0,1-2.7-1.82,29.89,29.89,0,0,1-2.59-2.31c-.87-.87-1.73-1.83-2.69-2.7-.39-.38-.77-.38-1.06-.09s-.2,1,.29,1.82.86,1.64,1.34,2.6,1,1.83,1.45,2.69a6.35,6.35,0,0,1-4.14-1.53,14.48,14.48,0,0,1-3.17-3.66,12.68,12.68,0,0,1-1.54-4.42,4.84,4.84,0,0,1,.67-3.56,1.45,1.45,0,0,1,1.35-.67c.58.09.77.48.58,1.15,1.92-.29,2.88-2,2.88-5.1a4.34,4.34,0,0,0-.67-2.4,5.94,5.94,0,0,0-1.64-1.83,5,5,0,0,0-2-1,3,3,0,0,0-2,.48,2.67,2.67,0,0,0-1.53-1.92,3,3,0,0,0-2.22-.29A4.61,4.61,0,0,0,195,13a18.85,18.85,0,0,0-1.82,3.46c-2.12-.19-3.56.58-4.14,2.5a14.27,14.27,0,0,0-.29,7.12.89.89,0,0,1-1.15-.29,3.45,3.45,0,0,1-.77-1.16,13,13,0,0,0-.67-1.15,1,1,0,0,0-1.06-.39A17,17,0,0,0,182,24.25a11.19,11.19,0,0,0-2.5,1.83,7,7,0,0,0-1.92,2.5,8.31,8.31,0,0,0-1,3.55,12.35,12.35,0,0,0,.38,4.14A3.68,3.68,0,0,0,179.14,39a1.07,1.07,0,0,0,1-.1,1.39,1.39,0,0,0,.77-.86,4.69,4.69,0,0,0,.38-1.25,2.5,2.5,0,0,0-.19-1.44,3.82,3.82,0,0,0-.67-1.06c-.29-.29-.48-.58-.77-.87a11,11,0,0,0-.58-1,2.63,2.63,0,0,1,0-1.25,2.07,2.07,0,0,1,1.16-1.44,5.92,5.92,0,0,1,2.11-1,5.57,5.57,0,0,1,2.12-.1c.67.1,1,.29,1.15.68a1.1,1.1,0,0,1-.38,1.34,7.05,7.05,0,0,0-1.64,1.54,1.53,1.53,0,0,0-.58,1.35c.1.48.58.57,1.35.29s1.54-.49,2.31-.77a11,11,0,0,1,2.3-.87,3.73,3.73,0,0,1,2-.1,2.48,2.48,0,0,1,1.45,1.35,22.25,22.25,0,0,0-2.31,1A3.14,3.14,0,0,0,188.75,36a2.56,2.56,0,0,0-.28,1.15,4.08,4.08,0,0,0,.19,1.16,1.15,1.15,0,0,0,.77.57,2.47,2.47,0,0,0,1.34-.48,3.59,3.59,0,0,1,2.5-.57A7.49,7.49,0,0,1,196.54,39,26.94,26.94,0,0,0,203.85,42a29,29,0,0,0,8.56,1.25,20,20,0,0,0,8.84-2,24.2,24.2,0,0,0,7.5-6,6.39,6.39,0,0,0,0,3,5.49,5.49,0,0,0,1.06,2.4,5,5,0,0,0,1.92,1.54,3.7,3.7,0,0,0,2.5,0,8.29,8.29,0,0,1-1.44-2.69,9.4,9.4,0,0,1-.48-2.79,16.3,16.3,0,0,1,.58-4.23c.38-1.44.86-2.89,1.34-4.33s1-2.88,1.35-4.32a14.23,14.23,0,0,0,.67-4.43Zm48.47,6.83c0,.38-.2.57-.49.57s-.48-.19-.48-.57a.49.49,0,0,1,1,0Zm-23-9.23c0,.38-.19.57-.48.57s-.48-.19-.48-.57.2-.58.48-.58.48.19.48.58Zm15.68-2.21a8.76,8.76,0,0,1,1.35,3.84,21.49,21.49,0,0,1,.28,5,33.09,33.09,0,0,1-.67,5.39,17.35,17.35,0,0,1-1.54,4.52,11.72,11.72,0,0,1-2.69,3.75,12.05,12.05,0,0,1-3.65,2.5,12.68,12.68,0,0,1-4.14,1,9.34,9.34,0,0,1-4.33-.48,17.77,17.77,0,0,0,6.54-4,18.44,18.44,0,0,0,4.52-6.06A20.16,20.16,0,0,0,275.2,23a18.29,18.29,0,0,0-.67-7.5,1.32,1.32,0,0,1,.09-1.06,1.5,1.5,0,0,1,.77-.58,1.2,1.2,0,0,1,1,.1,2.21,2.21,0,0,1,1.06.87Zm-63.85,2.5c0,.28-.1.48-.38.48s-.58-.2-.58-.48a.51.51,0,0,1,.58-.58c.28,0,.38.19.38.58Zm-1.15,23a9.34,9.34,0,0,1-4.33.48,12.56,12.56,0,0,1-4.13-1,13.58,13.58,0,0,1-3.75-2.5,11.47,11.47,0,0,1-2.6-3.75,17.79,17.79,0,0,1-1.44-4.52,31.76,31.76,0,0,1-.68-5.29,21.48,21.48,0,0,1,.29-5,8.75,8.75,0,0,1,1.35-3.94c.58-.87,1.25-1.25,2-1s1,.77.77,1.64a18,18,0,0,0-.68,7.5,20.37,20.37,0,0,0,2.12,7.21,18.58,18.58,0,0,0,4.52,6.06,17.77,17.77,0,0,0,6.54,4ZM191.06,26.08a.48.48,0,1,1-1,0c0-.39.19-.58.48-.58s.48.19.48.58Z"/><polygon class="cls-1" points="301.06 25.31 460.68 29.44 460.68 31.75 301.06 36.17 301.06 25.31"/><path class="cls-1" d="M463.76,24.25h0a2.13,2.13,0,0,1,2.11,2.11v8.85a2.14,2.14,0,0,1-2.11,2.12h0a2.16,2.16,0,0,1-2.21-2.12V26.36a2.15,2.15,0,0,1,2.21-2.11Z"/><path class="cls-1" d="M471.16,26.17a4.62,4.62,0,1,1-4.52,4.62,4.62,4.62,0,0,1,4.52-4.62Z"/><polygon class="cls-1" points="174.72 25.31 15.1 29.44 15.1 31.75 174.72 36.17 174.72 25.31"/><path class="cls-1" d="M12.11,24.25h0A2.15,2.15,0,0,0,9.9,26.36v8.85a2.16,2.16,0,0,0,2.21,2.12h0a2.14,2.14,0,0,0,2.12-2.12V26.36a2.13,2.13,0,0,0-2.12-2.11Z"/><path class="cls-1" d="M4.61,26.17a4.62,4.62,0,0,0,0,9.23,4.62,4.62,0,1,0,0-9.23Z"/></g></g></svg>