<svg xmlns="http://www.w3.org/2000/svg" viewBox="0 0 124.22 124.22"><defs><style>.cls-1{fill-rule:evenodd;}</style></defs><title>Carto_orna2</title><g id="Layer_2" data-name="Layer 2"><g id="ornamentos"><path class="cls-1" d="M28.87,59a1.66,1.66,0,0,1,0,1.55,1.64,1.64,0,0,1,0,3.27,1.66,1.66,0,0,1,0,1.55,1.59,1.59,0,0,1-2.16.72,2,2,0,0,1-.35-.25l-3.68-3.65h0l3.68-3.66a2,2,0,0,1,.35-.24A1.59,1.59,0,0,1,28.87,59Z" transform="translate(0)"/><path class="cls-1" d="M11.25,69.52c-1-3.23,2.23-6.21,4.51-6.82l.14.16,0,0c-2.58,1.7-2.38,3.59-1.4,4.58.75.76,1.78,1.4,1.65,2.53a1.74,1.74,0,0,1-1,1.38A2.88,2.88,0,0,1,11.25,69.52ZM12.51,64a2.71,2.71,0,0,1-3.25-.44,1.95,1.95,0,0,1,0-2.67,2.71,2.71,0,0,1,3.25-.44A10.44,10.44,0,0,0,15.62,62a.78.78,0,0,0,0,.22.76.76,0,0,0,0,.21A10.44,10.44,0,0,0,12.51,64Zm3.25-2.26c-2.28-.61-5.5-3.59-4.51-6.82a2.88,2.88,0,0,1,3.9-1.85,1.75,1.75,0,0,1,1,1.38c.13,1.13-.9,1.77-1.65,2.53-1,1-1.18,2.88,1.4,4.57l0,0A1.07,1.07,0,0,0,15.76,61.73Zm1.57-.45c.79,0,1.44.42,1.44.94s-.65.92-1.44.92-1.44-.41-1.44-.92S16.54,61.28,17.33,61.28Z" transform="translate(0)"/><path class="cls-1" d="M59.15,96.12a1.66,1.66,0,0,1,1.55,0,1.64,1.64,0,0,1,3.27,0,1.66,1.66,0,0,1,1.55,0,1.59,1.59,0,0,1,.73,2.15,1.57,1.57,0,0,1-.25.35l-3.66,3.69h0l-3.67-3.69a1.28,1.28,0,0,1-.24-.35A1.58,1.58,0,0,1,59.15,96.12Z" transform="translate(0)"/><path class="cls-1" d="M69.64,113.73c-3.22,1-6.21-2.22-6.82-4.5a1.07,1.07,0,0,0,.16-.14l0,0c1.69,2.58,3.58,2.38,4.57,1.4.76-.75,1.4-1.78,2.53-1.66a1.77,1.77,0,0,1,1.38,1A2.87,2.87,0,0,1,69.64,113.73Zm-5.53-1.25a2.71,2.71,0,0,1-.44,3.25,1.95,1.95,0,0,1-2.67,0,2.71,2.71,0,0,1-.44-3.25,10.44,10.44,0,0,0,1.56-3.11.78.78,0,0,0,.22,0,.76.76,0,0,0,.21,0A10.44,10.44,0,0,0,64.11,112.48Zm-2.26-3.25c-.61,2.28-3.59,5.5-6.82,4.5a2.88,2.88,0,0,1-1.85-3.89,1.79,1.79,0,0,1,1.38-1c1.13-.12,1.77.91,2.53,1.66,1,1,2.89,1.18,4.57-1.4l0,0Zm-.45-1.57c0-.79.42-1.44.94-1.44s.93.65.93,1.44-.42,1.44-.93,1.44S61.4,108.46,61.4,107.66Z" transform="translate(0)"/><path class="cls-1" d="M96.24,65.84a1.69,1.69,0,0,1,0-1.55,1.64,1.64,0,0,1,0-3.27,1.69,1.69,0,0,1,0-1.55,1.6,1.6,0,0,1,2.16-.73,1.83,1.83,0,0,1,.35.25l3.68,3.66h0l-3.68,3.66a1.45,1.45,0,0,1-.35.24A1.59,1.59,0,0,1,96.24,65.84Z" transform="translate(0)"/><path class="cls-1" d="M113.86,55.35c1,3.23-2.23,6.21-4.51,6.82a.7.7,0,0,0-.14-.16l0,0c2.58-1.69,2.38-3.58,1.4-4.57-.75-.76-1.78-1.4-1.65-2.53a1.74,1.74,0,0,1,1-1.38A2.88,2.88,0,0,1,113.86,55.35Zm-1.26,5.53a2.69,2.69,0,0,1,3.25.44,1.95,1.95,0,0,1,0,2.67,2.69,2.69,0,0,1-3.25.43,10.65,10.65,0,0,0-3.11-1.55.78.78,0,0,0,0-.22.76.76,0,0,0,0-.21A10.44,10.44,0,0,0,112.6,60.88Zm-3.25,2.26c2.28.61,5.51,3.59,4.51,6.82a2.88,2.88,0,0,1-3.9,1.85,1.75,1.75,0,0,1-1-1.38c-.13-1.13.9-1.77,1.65-2.53,1-1,1.18-2.89-1.4-4.57l0,0A1,1,0,0,0,109.35,63.14Zm-1.57.45c-.79,0-1.43-.42-1.43-.94s.64-.92,1.43-.92,1.44.41,1.44.92S108.58,63.59,107.78,63.59Z" transform="translate(0)"/><path class="cls-1" d="M66,28.75a1.66,1.66,0,0,1-1.55,0,1.64,1.64,0,0,1-3.27,0,1.66,1.66,0,0,1-1.55,0,1.59,1.59,0,0,1-.72-2.16,1.72,1.72,0,0,1,.25-.35l3.65-3.68h0l3.66,3.68a1.72,1.72,0,0,1,.25.35A1.6,1.6,0,0,1,66,28.75Z" transform="translate(0)"/><path class="cls-1" d="M55.47,11.14c3.23-1,6.21,2.22,6.82,4.5a1,1,0,0,0-.16.14l0,0c-1.7-2.58-3.59-2.38-4.58-1.4-.76.75-1.4,1.78-2.53,1.65a1.74,1.74,0,0,1-1.38-1A2.87,2.87,0,0,1,55.47,11.14ZM61,12.39a2.69,2.69,0,0,1,.43-3.25,1.95,1.95,0,0,1,2.67,0,2.71,2.71,0,0,1,.44,3.25A10.44,10.44,0,0,0,63,15.5a.78.78,0,0,0-.22,0l-.21,0A10.65,10.65,0,0,0,61,12.39Zm2.25,3.25c.61-2.28,3.59-5.5,6.82-4.5A2.88,2.88,0,0,1,71.94,15a1.77,1.77,0,0,1-1.39,1c-1.13.13-1.77-.9-2.53-1.65-1-1-2.88-1.18-4.57,1.4l0,0A.7.7,0,0,0,63.26,15.64Zm.45,1.57c0,.79-.42,1.43-.94,1.43s-.93-.64-.93-1.43.42-1.44.93-1.44S63.71,16.41,63.71,17.21Z" transform="translate(0)"/><path d="M27.89,28.74s-5.77-3.61-9.68.3c-3.47,3.47-.4,5.67-.4,5.67a2.64,2.64,0,0,0,3.87,0c1.51-1.52.24-2.59.24-2.59a.9.9,0,0,0-1.32,0c-.68.68.49,1.36.49,1.36a1.33,1.33,0,0,1-1.37-.49c-.73-.73.15-1.31.39-1.56s1.22-1.12,2.65.29.19,3.23-.3,3.72-2.54,2.64-5.48-.29-.24-5.92.69-6.85S23,24.1,27.89,28.74Z" transform="translate(0)"/><path d="M30.58,31.24s-.49.78-1.52.14a5,5,0,0,0-2.3-.63s1.86-1.37,2.89-.73S30.63,30.89,30.58,31.24Z" transform="translate(0)"/><path d="M36.74,37,26.66,26.94s-3.17-2.79-4-2.89-.36-1.89-.36-1.89,1.8-.42,1.89.36,2.89,4,2.89,4L37.19,36.56Z" transform="translate(0)"/><path d="M28.93,27.71s-3.62-5.77.29-9.68c3.47-3.48,5.67-.39,5.67-.39a2.63,2.63,0,0,1,0,3.86c-1.52,1.51-2.59.24-2.59.24a.9.9,0,0,1,0-1.32c.68-.68,1.37.49,1.37.49a1.36,1.36,0,0,0-.49-1.37c-.74-.73-1.32.15-1.57.39s-1.12,1.23.3,2.64,3.22.2,3.71-.29,2.64-2.54-.29-5.48-5.92-.24-6.85.69S24.28,22.77,28.93,27.71Z" transform="translate(0)"/><path d="M31.42,30.39s.78-.48.14-1.51a5,5,0,0,1-.63-2.3s-1.37,1.86-.73,2.88S31.08,30.44,31.42,30.39Z" transform="translate(0)"/><path class="cls-1" d="M1.46,2.33a3.41,3.41,0,0,0,.81,2.85A3.55,3.55,0,0,0,3.7,6c2.09.69,2.66.91,3.81,2.09l.19.17-.45.45L7,8.53A7.06,7.06,0,0,0,4.56,7.17a3.62,3.62,0,0,0-2.16,0A3.4,3.4,0,0,0,.26,9.63a2.83,2.83,0,0,0,.9,2.81A2.49,2.49,0,0,0,2.57,13a3.66,3.66,0,0,0,2-.41s-.1-.08-.13-.1a3.69,3.69,0,0,1-.7-.61,2,2,0,0,1-.57-1.62A1.68,1.68,0,0,1,4.69,8.89a2.48,2.48,0,0,1,1.59.41l.23.17S6.12,9.84,6,10a.56.56,0,0,0-.16.25.25.25,0,0,0,0,.19l1,1a.52.52,0,0,0,.23.18.25.25,0,0,0,.15-.05c.25-.21.7-.68.7-.68a1.89,1.89,0,0,1,.44.84,1.44,1.44,0,0,1,0,.59,1.2,1.2,0,0,1-1.42.81,1.69,1.69,0,0,1-1-.67,0,0,0,0,0,0,0,2.82,2.82,0,0,0,.36,2.15,1.75,1.75,0,0,0,.56.53,2.21,2.21,0,0,0,1.72.19,2.13,2.13,0,0,0,1.33-1.41,3.17,3.17,0,0,0-.06-1.77,5.55,5.55,0,0,0-1.14-2l.46-.45a5.24,5.24,0,0,1,1.3,1.82.58.58,0,0,1,.05.14,4,4,0,0,0,1.33,2.28,3,3,0,0,0,2.39.11,3,3,0,0,0-.11-2.39,4.09,4.09,0,0,0-2.28-1.33l-.14,0A5.05,5.05,0,0,1,9.83,8.92l.46-.45a5.29,5.29,0,0,0,2,1.14A3.19,3.19,0,0,0,14,9.68a2.19,2.19,0,0,0,1.41-1.34,2.21,2.21,0,0,0-.19-1.72,1.75,1.75,0,0,0-.53-.56,2.81,2.81,0,0,0-2.14-.36,0,0,0,0,0,0,0,1.64,1.64,0,0,1,.67,1,1.2,1.2,0,0,1-.81,1.41,1.3,1.3,0,0,1-.59,0A1.92,1.92,0,0,1,11,7.75s.47-.46.68-.71a.27.27,0,0,0,.05-.15c0-.09-.12-.17-.18-.23l-1-1a.25.25,0,0,0-.19,0,.56.56,0,0,0-.25.16l-.52.52a2,2,0,0,1-.17-.23,2.41,2.41,0,0,1-.4-1.59A1.64,1.64,0,0,1,10.44,3a1.92,1.92,0,0,1,1.61.56,3.42,3.42,0,0,1,.62.7s.09.15.1.13a3.75,3.75,0,0,0,.41-2A2.5,2.5,0,0,0,12.61,1a2.78,2.78,0,0,0-2.8-.9A3.38,3.38,0,0,0,7.37,2.23a3.58,3.58,0,0,0,0,2.15A7.28,7.28,0,0,0,8.71,6.87l.16.2-.45.45-.18-.19C7.07,6.18,6.85,5.61,6.16,3.52a3.55,3.55,0,0,0-.8-1.43,3.44,3.44,0,0,0-2.85-.81c-.29,0-.65.09-.94.11C1.55,1.68,1.48,2,1.46,2.33Z" transform="translate(0)"/><path d="M38.48,44.29C43.62,49.43,53.9,54,53.9,54s-4.62-10.27-9.76-15.42-8.86-3.19-8.86-3.19S33.33,39.15,38.48,44.29Z" transform="translate(0)"/><path d="M28.74,96.33s-3.61,5.77.3,9.68c3.47,3.47,5.67.39,5.67.39a2.63,2.63,0,0,0,0-3.86c-1.52-1.52-2.59-.24-2.59-.24a.9.9,0,0,0,0,1.32c.68.68,1.36-.49,1.36-.49a1.32,1.32,0,0,1-.48,1.36c-.74.74-1.32-.14-1.57-.39s-1.12-1.22.29-2.64,3.23-.19,3.72.3,2.64,2.54-.29,5.48-5.92.24-6.85-.69S24.1,101.27,28.74,96.33Z" transform="translate(0)"/><path d="M31.24,93.64s.78.49.15,1.52a4.89,4.89,0,0,0-.64,2.29S29.38,95.6,30,94.57,30.89,93.59,31.24,93.64Z" transform="translate(0)"/><path d="M37,87.48,26.94,97.56s-2.79,3.17-2.89,4-1.89.36-1.89.36-.42-1.79.36-1.88,4-2.89,4-2.89L36.55,87Z" transform="translate(0)"/><path d="M27.7,95.29S21.94,98.91,18,95c-3.48-3.47-.4-5.67-.4-5.67a2.64,2.64,0,0,1,3.87,0c1.51,1.52.24,2.59.24,2.59a.9.9,0,0,1-1.32-.05c-.68-.68.49-1.37.49-1.37a1.36,1.36,0,0,0-1.37.49c-.73.73.15,1.32.39,1.57s1.22,1.12,2.64-.3.2-3.22-.29-3.71-2.54-2.64-5.48.29-.24,5.92.69,6.85S22.77,99.94,27.7,95.29Z" transform="translate(0)"/><path d="M30.39,92.8s-.49-.78-1.51-.15a4.92,4.92,0,0,1-2.3.64s1.86,1.37,2.89.73S30.44,93.14,30.39,92.8Z" transform="translate(0)"/><path class="cls-1" d="M2.34,122.76A3.4,3.4,0,0,0,5.18,122a3.55,3.55,0,0,0,.8-1.43c.69-2.09.91-2.66,2.09-3.81l.17-.19.45.45-.16.21a7.1,7.1,0,0,0-1.36,2.47,3.62,3.62,0,0,0,0,2.16A3.38,3.38,0,0,0,9.63,124a2.78,2.78,0,0,0,2.8-.91,2.38,2.38,0,0,0,.57-1.4,3.66,3.66,0,0,0-.41-2s-.08.1-.1.13a3.42,3.42,0,0,1-.62.7,1.92,1.92,0,0,1-1.61.56,1.66,1.66,0,0,1-1.37-1.55,2.46,2.46,0,0,1,.41-1.59,2,2,0,0,1,.17-.23s.37.38.52.52a.47.47,0,0,0,.25.15.24.24,0,0,0,.19,0l1-1c.06-.06.17-.14.18-.23a.25.25,0,0,0-.05-.15c-.21-.25-.68-.71-.68-.71a1.92,1.92,0,0,1,.85-.43,1.25,1.25,0,0,1,.58,0,1.2,1.2,0,0,1,.81,1.41,1.67,1.67,0,0,1-.67,1s0,0,0,0a2.77,2.77,0,0,0,2.14-.37,1.73,1.73,0,0,0,.53-.55,2.21,2.21,0,0,0,.19-1.72,2.13,2.13,0,0,0-1.41-1.33,3.08,3.08,0,0,0-1.77.06,5.4,5.4,0,0,0-2,1.14l-.45-.46a5.24,5.24,0,0,1,1.82-1.3l.13,0a4.09,4.09,0,0,0,2.29-1.33A3,3,0,0,0,14,110a3,3,0,0,0-2.4.11,4.08,4.08,0,0,0-1.32,2.28s0,.1,0,.14a5.14,5.14,0,0,1-1.31,1.82l-.46-.46a5.2,5.2,0,0,0,1.15-2,3.17,3.17,0,0,0,.06-1.77,2.13,2.13,0,0,0-1.33-1.41,2.21,2.21,0,0,0-1.72.19,1.65,1.65,0,0,0-.56.53,2.81,2.81,0,0,0-.36,2.14s0,0,0,0a1.64,1.64,0,0,1,1-.67,1.2,1.2,0,0,1,1.41.81,1.4,1.4,0,0,1,0,.58,1.92,1.92,0,0,1-.43.85s-.46-.47-.71-.68a.21.21,0,0,0-.15,0c-.09,0-.17.12-.23.18l-1,1a.21.21,0,0,0,0,.19.56.56,0,0,0,.16.25c.13.15.52.52.52.52a1.46,1.46,0,0,1-.24.17,2.43,2.43,0,0,1-1.58.4A1.64,1.64,0,0,1,3,113.78a2,2,0,0,1,.56-1.62,3.37,3.37,0,0,1,.7-.61s.14-.09.13-.1a3.66,3.66,0,0,0-2-.41A2.49,2.49,0,0,0,1,111.6a2.83,2.83,0,0,0-.9,2.81,3.4,3.4,0,0,0,2.15,2.44,3.58,3.58,0,0,0,2.15,0,7.32,7.32,0,0,0,2.48-1.36l.21-.16.45.45-.19.17c-1.15,1.17-1.72,1.4-3.82,2.08a3.8,3.8,0,0,0-1.42.81,3.41,3.41,0,0,0-.81,2.85c0,.29.09.65.11.94C1.68,122.67,2.05,122.73,2.34,122.76Z" transform="translate(0)"/><path d="M44.29,85.74C49.43,80.6,54,70.32,54,70.32s-10.27,4.61-15.42,9.75-3.19,8.87-3.19,8.87S39.15,90.88,44.29,85.74Z" transform="translate(0)"/><path d="M96.33,95.47s5.77,3.62,9.68-.29c3.47-3.47.39-5.67.39-5.67a2.63,2.63,0,0,0-3.86-.05c-1.52,1.52-.25,2.59-.25,2.59a.91.91,0,0,0,1.33,0c.68-.68-.49-1.37-.49-1.37a1.36,1.36,0,0,1,1.37.49c.73.74-.15,1.32-.39,1.57s-1.23,1.12-2.65-.29-.19-3.23.3-3.72,2.54-2.64,5.47.29.25,5.92-.68,6.84S101.27,100.12,96.33,95.47Z" transform="translate(0)"/><path d="M93.64,93s.49-.78,1.52-.15a4.87,4.87,0,0,0,2.29.64s-1.85,1.37-2.88.74S93.59,93.32,93.64,93Z" transform="translate(0)"/><path d="M87.48,87.21,97.55,97.28s3.18,2.79,4,2.89.36,1.89.36,1.89-1.79.42-1.88-.36-2.89-4-2.89-4L87,87.66Z" transform="translate(0)"/><path d="M95.29,96.51s3.62,5.77-.29,9.68c-3.47,3.48-5.67.39-5.67.39a2.62,2.62,0,0,1,0-3.86c1.51-1.51,2.59-.24,2.59-.24a.9.9,0,0,1-.05,1.32c-.68.68-1.37-.49-1.37-.49a1.36,1.36,0,0,0,.49,1.37c.73.73,1.32-.15,1.57-.4s1.12-1.22-.3-2.63-3.22-.2-3.71.29-2.64,2.54.29,5.47,5.92.25,6.85-.68S99.94,101.45,95.29,96.51Z" transform="translate(0)"/><path d="M92.8,93.82s-.78.49-.15,1.52a4.89,4.89,0,0,1,.64,2.3s1.37-1.86.73-2.89S93.14,93.78,92.8,93.82Z" transform="translate(0)"/><path class="cls-1" d="M122.76,121.88A3.47,3.47,0,0,0,122,119a3.62,3.62,0,0,0-1.43-.8c-2.09-.69-2.66-.91-3.81-2.09l-.19-.17.45-.45.21.16a7.1,7.1,0,0,0,2.47,1.36,3.62,3.62,0,0,0,2.16,0,3.39,3.39,0,0,0,2.15-2.45,2.8,2.8,0,0,0-.91-2.8,2.43,2.43,0,0,0-1.4-.56,3.66,3.66,0,0,0-2,.41s.1.08.13.1a3.37,3.37,0,0,1,.7.61,2,2,0,0,1,.56,1.62,1.66,1.66,0,0,1-1.55,1.37,2.51,2.51,0,0,1-1.59-.41l-.23-.17.52-.53a.41.41,0,0,0,.15-.24.24.24,0,0,0,0-.19c-.37-.36-.61-.6-1-1-.06,0-.14-.16-.23-.17a.2.2,0,0,0-.15,0c-.25.21-.71.68-.71.68a1.92,1.92,0,0,1-.43-.84,1.28,1.28,0,0,1,0-.59,1.2,1.2,0,0,1,1.41-.81,1.59,1.59,0,0,1,1,.67s0,0,0,0a2.76,2.76,0,0,0-.37-2.14,1.63,1.63,0,0,0-.55-.53,2.29,2.29,0,0,0-1.73-.2,2.18,2.18,0,0,0-1.32,1.42,3.08,3.08,0,0,0,.06,1.77,5.29,5.29,0,0,0,1.14,2l-.46.46a5.24,5.24,0,0,1-1.3-1.82.58.58,0,0,1,0-.14,4,4,0,0,0-1.33-2.28,3,3,0,0,0-2.39-.11,2.93,2.93,0,0,0,.11,2.39,4.09,4.09,0,0,0,2.28,1.33l.14,0a5.14,5.14,0,0,1,1.82,1.31l-.46.45a5.29,5.29,0,0,0-2-1.14,3.19,3.19,0,0,0-1.77-.07,2.2,2.2,0,0,0-1.42,1.34,2.27,2.27,0,0,0,.2,1.72,1.72,1.72,0,0,0,.53.55,2.76,2.76,0,0,0,2.14.37s0,0,0,0a1.67,1.67,0,0,1-.67-1,1.19,1.19,0,0,1,.81-1.41,1.25,1.25,0,0,1,.58,0,1.92,1.92,0,0,1,.85.43s-.47.46-.68.71a.2.2,0,0,0,0,.15c0,.09.12.17.18.23l1,1a.22.22,0,0,0,.19.06.56.56,0,0,0,.25-.16l.52-.53.17.24a2.45,2.45,0,0,1,.4,1.59,1.64,1.64,0,0,1-1.36,1.55,1.92,1.92,0,0,1-1.61-.56,3.15,3.15,0,0,1-.62-.7s-.09-.15-.1-.13a3.66,3.66,0,0,0-.41,2,2.43,2.43,0,0,0,.56,1.4,2.81,2.81,0,0,0,2.81.91,3.4,3.4,0,0,0,2.44-2.15,3.58,3.58,0,0,0,0-2.15,7.15,7.15,0,0,0-1.36-2.48l-.16-.21.45-.45.17.19c1.17,1.15,1.4,1.72,2.08,3.81a3.64,3.64,0,0,0,.81,1.43,3.4,3.4,0,0,0,2.84.81c.29,0,.66-.09,1-.11C122.66,122.54,122.73,122.17,122.76,121.88Z" transform="translate(0)"/><path d="M85.74,79.93c-5.14-5.14-15.42-9.75-15.42-9.75s4.62,10.27,9.76,15.41,8.86,3.2,8.86,3.2S90.88,85.07,85.74,79.93Z" transform="translate(0)"/><path d="M95.48,27.89s3.61-5.77-.3-9.68c-3.47-3.47-5.67-.39-5.67-.39a2.62,2.62,0,0,0-.05,3.86c1.52,1.51,2.59.24,2.59.24a.9.9,0,0,0,0-1.32c-.68-.68-1.37.49-1.37.49a1.36,1.36,0,0,1,.49-1.37c.74-.73,1.32.15,1.57.39s1.12,1.22-.3,2.65-3.22.19-3.71-.3S86,19.92,89,17s5.91-.24,6.85.69S100.12,23,95.48,27.89Z" transform="translate(0)"/><path d="M93,30.58s-.78-.49-.15-1.52a4.92,4.92,0,0,0,.64-2.3s1.37,1.86.73,2.89S93.32,30.63,93,30.58Z" transform="translate(0)"/><path d="M87.21,36.74,97.28,26.66s2.79-3.17,2.89-3.95,1.89-.37,1.89-.37.42,1.79-.37,1.89-4,2.89-4,2.89L87.66,37.19Z" transform="translate(0)"/><path d="M96.51,28.93s5.77-3.62,9.68.29c3.47,3.47.39,5.67.39,5.67a2.62,2.62,0,0,1-3.86,0c-1.51-1.52-.24-2.59-.24-2.59a.9.9,0,0,1,1.32,0c.68.68-.49,1.37-.49,1.37a1.36,1.36,0,0,0,1.37-.49c.73-.73-.15-1.32-.39-1.57s-1.23-1.12-2.64.29-.2,3.23.29,3.72,2.54,2.64,5.47-.29.25-5.92-.68-6.85S101.45,24.28,96.51,28.93Z" transform="translate(0)"/><path d="M93.82,31.42s.49.78,1.52.14a5,5,0,0,1,2.3-.63s-1.86-1.37-2.89-.73S93.78,31.08,93.82,31.42Z" transform="translate(0)"/><path class="cls-1" d="M121.88,1.46a3.4,3.4,0,0,0-2.84.81,3.57,3.57,0,0,0-.81,1.43c-.68,2.09-.9,2.66-2.08,3.81L116,7.7l-.45-.45.16-.21a7.15,7.15,0,0,0,1.36-2.48,3.58,3.58,0,0,0,0-2.15A3.4,3.4,0,0,0,114.59.26a2.83,2.83,0,0,0-2.81.9,2.49,2.49,0,0,0-.56,1.41,3.66,3.66,0,0,0,.41,2s.08-.1.1-.13a3.37,3.37,0,0,1,.61-.7A2,2,0,0,1,114,3.13a1.68,1.68,0,0,1,1.38,1.56,2.48,2.48,0,0,1-.41,1.59,2,2,0,0,1-.17.23s-.38-.39-.52-.52a.56.56,0,0,0-.25-.16.25.25,0,0,0-.19,0l-1,1c-.06,0-.17.14-.18.23a.21.21,0,0,0,0,.15c.21.25.68.71.68.71a2,2,0,0,1-.85.43,1.4,1.4,0,0,1-.58,0,1.2,1.2,0,0,1-.81-1.41,1.67,1.67,0,0,1,.67-1s0,0,0,0a2.76,2.76,0,0,0-2.14.36,1.83,1.83,0,0,0-.53.55,2.31,2.31,0,0,0-.2,1.74,2.18,2.18,0,0,0,1.42,1.32,3.08,3.08,0,0,0,1.77-.06,5.55,5.55,0,0,0,2-1.14l.45.46a5.24,5.24,0,0,1-1.82,1.3l-.14.05a4,4,0,0,0-2.28,1.33,3,3,0,0,0-.11,2.39,2.93,2.93,0,0,0,2.39-.12,4,4,0,0,0,1.33-2.27.58.58,0,0,1,0-.14,5.15,5.15,0,0,1,1.3-1.82l.46.46a5.29,5.29,0,0,0-1.14,2,3.19,3.19,0,0,0-.07,1.77,2.07,2.07,0,0,0,3.06,1.22,1.72,1.72,0,0,0,.55-.53,2.77,2.77,0,0,0,.37-2.14s0,0,0,0a1.66,1.66,0,0,1-1,.67,1.2,1.2,0,0,1-1.41-.81,1.26,1.26,0,0,1,0-.58,2,2,0,0,1,.43-.85s.46.47.71.68a.2.2,0,0,0,.15.05c.09,0,.17-.12.23-.18l1-1a.2.2,0,0,0,0-.19.54.54,0,0,0-.15-.25l-.52-.52.23-.17a2.48,2.48,0,0,1,1.59-.41,1.67,1.67,0,0,1,1.55,1.37,1.92,1.92,0,0,1-.56,1.61,3.42,3.42,0,0,1-.7.62s-.15.09-.13.1a3.84,3.84,0,0,0,1.95.41,2.44,2.44,0,0,0,1.42-.57,2.8,2.8,0,0,0,.9-2.8A3.4,3.4,0,0,0,122,7.37a3.58,3.58,0,0,0-2.15,0,7.15,7.15,0,0,0-2.48,1.36l-.21.16-.45-.45.19-.18c1.15-1.16,1.72-1.39,3.81-2.08a3.62,3.62,0,0,0,1.43-.8,3.44,3.44,0,0,0,.81-2.85c0-.29-.1-.65-.12-.94C122.54,1.55,122.17,1.48,121.88,1.46Z" transform="translate(0)"/><path d="M79.93,38.48c-5.14,5.14-9.76,15.42-9.76,15.42s10.28-4.62,15.42-9.76,3.2-8.86,3.2-8.86S85.07,33.34,79.93,38.48Z" transform="translate(0)"/><rect x="57.47" y="58.02" width="9.81" height="9.81" transform="translate(-26.22 62.54) rotate(-45)"/></g></g></svg>