<svg xmlns="http://www.w3.org/2000/svg" viewBox="0 0 643.29 205.09"><defs><style>.cls-1{fill:#f38013;}</style></defs><title>Carto_title_deco2</title><g id="Layer_2" data-name="Layer 2"><g id="ornamentos"><path class="cls-1" d="M343.15,23.3a18.17,18.17,0,0,1-3.28.72c-1,.05-2-.66-2.91-.41-2.41.69-4.84.42-7.25.48a16.68,16.68,0,0,1-3.15-.53,4.84,4.84,0,0,1-1.74.52c-2.85-.1-5.71.38-8.55-.31a7.35,7.35,0,0,0-2.55.37l-1.11-1.36c-.23.35-.45.68-.79,1.22h-4.2l-1-1.23-.86,1.28c-1.12.05-2.38.15-3.65.17q-10.1.08-20.19.12c-3.39,0-6.75.34-10.13.53-.71,0-1.43.06-2.15.06a60.74,60.74,0,0,0-6.33,0,60.3,60.3,0,0,1-6.45,0l-6.45,0h-6.45c-2.15,0-4.3,0-6.45,0s-4.29.05-6.44.06l-35.65.1-32.66.09a9.82,9.82,0,0,0-4.23.42,3.23,3.23,0,0,1-1.69.17c-4.38-.64-8.76.18-13.14.05s-8.6,0-12.9,0-8.88.09-13.32.11-8.6,0-12.9,0c-9,0-18.05-.05-27.08.15-3.11.06-6.21,0-9.32,0-1.7,0-3.4.31-5.1.44-1,.08-2,.14-3,.15L4.58,27C3.3,27,2,27,.86,27,.2,25.68.2,25.68,1,24.42c2.31-.66,4.76-.31,7.17-.33,9.59-.06,19.19,0,28.79-.05,3,0,6,0,9,0a41.75,41.75,0,0,0,5.13-.2c1.66-.21,3.3.38,5-.34,1.39-.57,3.08-.08,4.6,0,2.56.1,5.09-.3,7.64-.15,2.72.16,5.45,0,8.17,0l7.74,0c11.75-.06,23.5-.15,35.25-.2,8.88,0,17.76,0,26.63,0,1.14,0,2.28-.16,3.41-.27.42,0,.93-.33,1.24-.17,2.2,1.15,4.47.1,6.71.27s4.47.6,6.71-.09c.51-.16,1.16.17,1.66,0a7.63,7.63,0,0,1,5.69.45c1-.28,1.91-.91,2.59-.69,1.72.56,3.39-.51,5,.07a11.47,11.47,0,0,1,1.88,1.1c.86-1.26,2.37-1.11,3.45-1,3.36.28,6.67-.48,10-.27,1.57.09,3.15,0,4.73,0s3.05.23,4.58.3,3,.09,4.55.13c.4,0,.91.18,1.2,0,1.21-.78,2.53-.5,3.78-.5q15-.06,30.07,0c1.39,0,2.79.25,4.18.38,1.25-1.19,2.65.13,4-.26a17.69,17.69,0,0,1,4.26-.2c1.42,0,2.85,0,4.28,0,1.72,0,3.44-.05,5.15-.12,1.28-.05,2.56-.16,3.83-.27,1-.09,2-.2,3-.34,2.25-.31,4.48.41,6.77.08a37.39,37.39,0,0,1,6.44-.08c1.27,0,2.54.36,3.81.36a37.74,37.74,0,0,0,3.79-.39,2.42,2.42,0,0,1,.85,0,13.1,13.1,0,0,0,8,0c4.09.56,8.22-.71,12.3.31,3.4-.78,6.84-.22,10.25-.37a19.61,19.61,0,0,1,3.66.55l1.85-.6,1.83.82c.92-.28,1.93-1,2.79-.79,1.85.38,3.63-.07,5.43-.05s3.44.08,5.16.08c5.86,0,11.73.05,17.59-.13,1.41,0,2.68.76,4.16.26a14.59,14.59,0,0,1,3.82-.32,6,6,0,0,1,3.79.6l2.29-1.26c1.33.06,2.58.85,4.09.38a3.49,3.49,0,0,1,3.27.14,1.24,1.24,0,0,0,.84.09c1.55-.19,3.11-.35,4.65-.62s2.74.3,4.2.18A36.22,36.22,0,0,1,404,21a3.31,3.31,0,0,0,1.61-.16,8.76,8.76,0,0,1,1.7-.18c1.82-.11,3.63.2,5.48.13s3.59-.23,5.38-.26c2.29,0,4.58,0,6.88,0,4.72,0,9.44,0,14.17.06a28.77,28.77,0,0,1,3.58.52,17.46,17.46,0,0,1,3.83-.56c3.41.27,6.87-.67,10.23.49l5.71-.89,2,.94c3.73-.49,7.41-1.27,11.18-.83,1.47.17,3.1-.35,4.39,1.1L482,19.92c1.66.49,3.44-.22,5.26-.16s3.44,0,5.16,0c1.41,0,2.83.22,4.22.37s3,.82,4.43-.16a4.11,4.11,0,0,1,2.1-.22l47.27-.1c3.72,0,7.44-.07,11.17-.21a21.26,21.26,0,0,1,4.22.06c2.54.43,5.05-.23,7.57-.36a41.1,41.1,0,0,1,8.94,0,3.56,3.56,0,0,0,1.25.09c3.84-.76,7.68-.4,11.53-.17,1.69.1,3.4-.26,5.09-.2,4.71.16,9.44-.51,14.14.35,5.26-.9,10.56-.26,15.83-.43,3.3-.11,6.6,0,9.89,0a7.46,7.46,0,0,1,2.1.3,1.38,1.38,0,0,1,1,1.66c-.58,1-1.5.85-2.33.85-5.16,0-10.32-.06-15.48,0-5,.08-10-.14-15,.22-4.24.3-8.52-.22-12.78-.21-2.85,0-5.73-.4-8.53.51a1.67,1.67,0,0,1-.86,0c-3-.81-5.93.26-8.91.09s-6,0-9,0q-29.88,0-59.76.11c-8,0-16.05.15-24.07.18q-8.39,0-16.75-.07c-3.26,0-6.51.27-9.77,0a4.65,4.65,0,0,0-1.29,0c-7,1.42-14,.38-21,.62-1.49.05-3-.72-4.67-1.15L431,23.21l-12.16.08c-7.44,0-14.88.1-22.33.05-2.4,0-4.83.4-7.24-.44-.66-.23-1.58.49-2.39.49-5.29,0-10.59-.11-15.89,0-1.11,0-2-.82-3.17-.42a15.43,15.43,0,0,1-3.35.4c-1.13.12-2.26.28-3.39.34-1.91.09-3.81-.32-5.77.27s-3.91-.64-5.88,0c-1.81-.9-3.61-.21-5.42-.05-.3,0-.64-.47-.95-.73.45-.06,1.06.27,1.26-.51C343.64,22.29,343.34,22.69,343.15,23.3Zm-122.54.25-.13.2.2,0Z"/><path class="cls-1" d="M366.36,13.38c-1.26,1-.88,2,.05,3.15l6.32.31a3.27,3.27,0,0,0,.3-3.1,13.42,13.42,0,0,1-.54-2.56c-.08-1.16,0-2.34.06-3.65,1.93-.76,3.79-.43,5.6-.44h5.54c.93,2.24,1,3,.34,6.85-1.07,1-2.53-.06-3.82.9,0,.38-.07.92-.13,1.78,1.41-.48,2.58.16,3.76.08a12.12,12.12,0,0,0,3-1V7.56c3.85-1.26,7.62-.57,11.4-.77.22.33.7.73.65,1-.31,2,.15,4,0,5.78-.8.89-1.56.68-2.25.75l-1.72.19-.65,1.23,3.6.77,2.53-.74a3.25,3.25,0,0,0,.41-.93c.08-2.51.12-5,.17-7.62.61-.33,1.1-.8,1.59-.8,1.69,0,3.41.4,5.06.16A26.33,26.33,0,0,1,412,6.4a2.09,2.09,0,0,1,.93,2.12,29,29,0,0,1-.13,5.14c-1.1.94-2,.65-3,.1l-1.92.91,1.07,1.39a13.85,13.85,0,0,1,2.4,0,15.29,15.29,0,0,1,2.41.83l1.88-1a2.14,2.14,0,0,0,.13-.79c-.71-2.5-.37-5-.18-7.32C416.66,6.61,418,6,419.17,6.42c2.38.89,4.68.15,7,.07l1.08,1v6.11c-1.21,1.16-2.43.64-3.65.2-.71.52-.71,1.16-.12,2.09a13,13,0,0,0,5.33,0c1-.59,1.07-1.66,1.09-2.7,0-2.06,0-4.13,0-6.38,3.73-.67,7.25-.31,10.62-.38.31.41.6.61.64.86a27.2,27.2,0,0,1-.11,6.34c-1.26,1-2.48.47-3.67.87l-.34,1c2.89.75,2.89.75,6.5.1.47-2.84-.09-5.81.27-8.48A2.08,2.08,0,0,1,446,6.29h9.28c1,1.49.31,2.71.14,4-.14,1.08.81,2.23.1,3.41a2.11,2.11,0,0,1-2,.47,16.44,16.44,0,0,1-1.77-.41c-.05.65-.09,1.21-.13,1.71.35.23.58.51.81.52,2,0,4,0,6,.07.16.2-.09,1,.59.42l-.65-.34V6.85c2.45-.82,7.06-.93,11.65-.29.88,2.09,0,4.28,0,6.53-.91,1.21-2.22.71-3.43.59-.73.4-1.21.87-.37,2,1.71.22,3.62.72,5.58-.41.58-2.82.05-5.67.49-8.33a2,2,0,0,1,2-.77c3.13,0,6.26,0,9.48.07.82,2.37.23,4.53.46,6.86l-4.13.57c-.09.72-.16,1.26-.21,1.73.37.23.61.5.83.49,1.77-.12,3.53-.3,5.53-.47.79-2.8,0-5.83.73-8.92,1.68-.68,3.55-.17,5.35-.33s3.71,0,5.54,0c.83,3.67.83,3.67-.35,7.2a8,8,0,0,1-1.17-.21,10.18,10.18,0,0,1-1.1-.52c-.77.55-1.49,1-1.27,2.3,2,.83,4.09.16,6.22.39.59-1.77.22-3.27.35-4.71s-.19-2.66.23-3.9a31.44,31.44,0,0,1,11.68-.17,26.28,26.28,0,0,1,.07,6.26c-1.26,1.32-3.06,0-4.17,1.51.25.31.48.85.75.87a38.19,38.19,0,0,0,3.86.09,15.27,15.27,0,0,0,1.85-.28c.09-.8.22-1.5.23-2.21,0-1.79,0-3.58.05-5.37a5,5,0,0,1,.69-1.58,43.54,43.54,0,0,0,10.7,0c1.45,2.39-.08,4.78.44,7-1.26,1.18-2.83.25-4.26.84l-.34,1c.8.78,2.6.82,6.82.25V6.46c.46-.3.92-.85,1.39-.86,3.25-.06,6.51,0,9.76,0,.12,0,.22.18.57.48.5,2.09.12,4.42.12,6.54-1.22,1.48-3,.06-4.06,1.4.1.27.14.7.29.74a13,13,0,0,0,5.95.19c.89-3-.08-6.05.6-9.15,3.86-.26,7.7-.8,11.58.12a26.59,26.59,0,0,1,.08,6.76c-1.22,1.07-2.45.44-3.65.88l-.54,1.15a17.22,17.22,0,0,0,6.19.23,2.71,2.71,0,0,0,.37-2.33c-.17-1.77-.3-3.55-.31-5.32a5.28,5.28,0,0,1,.67-1.7,67.36,67.36,0,0,1,10.52-.08c1,1.25.58,2.51.71,3.65a29.65,29.65,0,0,1,0,3.25c-1.28,1.52-3.09.25-4.13,1.53l.28.81a2.37,2.37,0,0,0,.77.27q2.15,0,4.29,0a3.67,3.67,0,0,0,1-.34c.51-1.3.22-2.79.26-4.23s0-3,0-4.66A15.08,15.08,0,0,1,574,5.39a19.1,19.1,0,0,1,4.74.27V7.73l-4.09.72c-.41,3.09.24,6.08-.4,9.1a13,13,0,0,1-1.79.28c-3.13,0-6.26,0-9.48,0-1-2.36-.19-4.54-.49-6.59l4.17-1.71-.38-1.23c-1.33,0-2.74-.11-4.15-.09a3.8,3.8,0,0,0-1.12.42c-1.05,2.88.47,6-.89,8.63-.44.25-.69.51-.94.51-3.29,0-6.57,0-9.72,0-.86-.55-.77-1.32-.77-2.06V11.3c.91-2,2.47-.79,3.88-.88,0-.38.07-.76.11-1.27l-3.44-1-2.63.9c-.18.41-.39.67-.39.94,0,1.64,0,3.28,0,4.92a8.18,8.18,0,0,1-.33,2.81,48.06,48.06,0,0,1-11,0c-.8-2.52-.8-2.52-.41-6.57,1-1.15,2.48-.16,3.78-.86a5.5,5.5,0,0,0,.68-.87c.12-.21,0-.53,0-.93a12.58,12.58,0,0,1-6.19-.1,2.16,2.16,0,0,0-1.13,2.23c.08,2.2.22,4.4.33,6.38a2,2,0,0,1-2,1c-3.15,0-6.3,0-9.4,0a4.71,4.71,0,0,1-.38-4.21,9.89,9.89,0,0,0,.3-2.2l-.07.07a9.08,9.08,0,0,1,1.54-.6c1.27-.25,1.28-.21,2.51-1.5L521.6,7.77C520.83,9,519.43,8.89,518,9c-.83,2.87,0,5.74-.49,8.44-1.29.89-2.61.57-3.86.62s-2.58,0-3.86-.06a12.1,12.1,0,0,1-4-.32c-.52-2.26.05-4.41-.2-6.26,1.36-1.13,2.58-.58,3.77-.92.12-.29.28-.65.5-1.15-2.19-.91-4.26-.31-6.51-.42-.48,3.05.12,5.89-.39,8.77-3.93,1-7.7.31-11.48.2a6.51,6.51,0,0,1-.41-1.42,28.43,28.43,0,0,1,.12-5.16c1.49-1,3-.22,4.56-1L496.21,9c-.17-.23-.26-.46-.34-.45-2.23.18-4.46.39-6.93.61-.08.49-.37,1.11-.21,1.55a16.63,16.63,0,0,1,.46,6.67,9.45,9.45,0,0,1-6.59,1.23c-1.66-.22-3.3-.6-5.21-1a24.1,24.1,0,0,1-.1-6.29c1.41-1,2.62-.51,4-.08.07-.58.14-1.13.22-1.83-2.16-.87-4.23-.48-6.33-.31-.65,1.43-.38,2.78-.42,4.08s0,2.68,0,4.08a4.88,4.88,0,0,1-3.94,1.38c-2.62-.23-5.45.83-8-1.26,0-1.14-.06-2.32-.05-3.49,0-.73.12-1.46.16-1.93,1.26-1.78,3.19-.7,4.48-1.65l-.46-1c-1.7-.62-3.54-.12-5.52-.57a14.66,14.66,0,0,0-.46,2.4c-.06,2.07,0,4.15,0,6.12-3.85,1.57-3.86,1.61-5.44,1.25-.35-.08-.62-.55-1-.91l-1.17,1a14.31,14.31,0,0,1-4.24-.17,25,25,0,0,1-.12-6.88c1.17-1.55,3.39.24,4.17-1.88-2.36-.92-2.36-.92-6.27-.41-.63.55-.54,1.34-.55,2.06,0,2.23,0,4.45,0,6.87a10.43,10.43,0,0,1-2.07.49c-3.13.05-6.26,0-9.47,0-.94-2.21-.25-4.29-.47-6.39l1.06-1.25a1.74,1.74,0,0,1,1.54,1.46.84.84,0,0,0-.88.89,1.55,1.55,0,0,0-.38.13c-.06.05-.07.18-.1.27l.41-.47c.58,0,.78-.38.87-.9L439,11.33c.5-1-.05-1.49-.61-2.07l-6.45-.7c-.4,1.44,0,3.07,0,4.67s.12,2.93.19,4.47a1.78,1.78,0,0,1-1.68,1.05,90.34,90.34,0,0,1-9.58-.06,20,20,0,0,1-.33-6.48c1.07-1.06,2-.54,3,0l2-1.17V9.45a15.58,15.58,0,0,0-7.29-.17c-.54,3.05,0,6-.4,8.87a11.78,11.78,0,0,1-7.46.22l-3.93.46c-.74-2.57-.76-4.81.78-7l2.46-.44.67-1.08-.64-1c-1.75,0-3.4,0-5.05,0-.23,0-.46.33-.88.66l-.45,8.4a8,8,0,0,1-1.95.51c-3.13,0-6.26,0-9.32,0-.94-3.39-.93-3.54.49-7l3.57-.29,1.2-1.3-1.16-2.36-1.08,1.88L393,9c-.19-.13.06-1-.57-.38l.64.29c-.65,1.4-2.13.44-3.31,1.38-.62,2.43.2,5.3-.55,8.23a11.66,11.66,0,0,1-1.63.24c-3.14,0-6.27,0-9.62,0a14.89,14.89,0,0,1-.38-2.06c-.06-1.48,0-3,0-4.23,1.14-1.49,2.63-.42,4-1.16a2,2,0,0,0-.82-2.86,18.75,18.75,0,0,1-2.56,1.22,16,16,0,0,1-2.75.3,20.31,20.31,0,0,0-.29,2.12c-.08,2.07-.12,4.13-.19,6.36-3.71,1.74-7.48.29-11.44.49.08-1.31.18-2.43.22-3.54s0-2.07,0-2.85A1.6,1.6,0,0,1,366,12c.07.35.17.89.28,1.43Zm7.12-4,.23.15,0-.23Zm4.52-1-.14.22.19,0Z"/><path class="cls-1" d="M310.46,9.86c-2.11.09-4.27-.49-6.56.5-.68,2.76,0,5.75-.44,8.64-1.17.84-2.46.7-3.73.7s-2.29.07-3.44,0-2.56.43-3.92-.56a29.14,29.14,0,0,1,.05-6.18l3.91-.87A1.71,1.71,0,0,0,295.17,10a6.18,6.18,0,0,1-5,.22,3.77,3.77,0,0,0-2,1.8l1.28.19s.15.06.15.15c.1,2.22.18,4.44.27,6.85a8.71,8.71,0,0,1-2.07.58c-3.13.06-6.27,0-9.49,0-.87-2.31-.46-4.5-.43-6.5,1.18-1.56,3-.21,4.18-1.4V10.69c.45-.12,1.07.21,1.3-.54-.73-.44-1,0-1.24.61-2.1-.93-4.17.19-6.34,0-.7,2-.36,3.92-.25,5.82.05.86-.05,1.73-.09,2.74a7.26,7.26,0,0,1-2.43.88c-2.82-.07-5.64-.33-8.47-.53-.1,0-.19-.21-.56-.64a31.77,31.77,0,0,1,0-5.69c1.1-1.31,2.56-.39,3.84-1l.37-1.12c-2.16-1-4.25-.11-6.32-.55a11.78,11.78,0,0,0-.4,4.32c0,1.34,0,2.68,0,4.2-1.85.89-3.64,1.67-5.7,1a12,12,0,0,0-6.15,0,27.82,27.82,0,0,1-.09-7.25l4.07-.75c-.13-.51-.19-.78-.31-1.28-1.19-.45-2.8,0-3.89-1.11l.07.09.07-1.54a33.34,33.34,0,0,1,6.12-.28c.28.37.6.6.6.83,0,1.91,0,3.83,0,5.58-1.17,1.58-2.94.31-4.09,1.33.87,2.21,2.33,2.48,6.19,1.07,1-2.63,0-5.52.55-8.21,2.33-.79,7-.94,11.42-.41.15.24.41.47.44.72a40.11,40.11,0,0,1,0,5.48c-1.36,1.7-3.73-.14-4.67,2,.25.22.44.55.64.55,2,0,4,0,6.1,0,0-1.11,0-2.07,0-3s.26-1.71.27-2.57-.11-2-.17-2.91c3.05-.75,5.67-.83,11.36-.34a15.64,15.64,0,0,1,.31,2c.05,1.48,0,3,0,4.2-1.24,1.57-3,.31-4.13,1.44l.18.8c.25.13.5.37.75.38,1.7,0,3.4,0,5.06,0,1.07-1.71.42-3.4.64-5,.2-1.43-.39-3,.34-4.36.93.27.61,1.23,1,1.74l.9-1.59c1.06-.09,2.15-.24,3.23-.27a16.72,16.72,0,0,0,2.9.1c1.15-.25,2.22-.65,3.39.52.54,2,.09,4.18.22,6.27-1.29,1.43-2.86.37-4.33,1l-.62,1.14a9.92,9.92,0,0,0,7.1-.09c-.1-1.63-.56-3.2-.16-4.48s-.35-2.6.25-4c1.76-.59,3.7-.25,5.57-.47a23.82,23.82,0,0,1,5.9.31A6.11,6.11,0,0,1,313.12,9c0,1.91-.1,3.81-.15,5.47-1.44,1.3-2.66-.23-4.07.23,0,.56-.1,1.11-.16,1.81,2.19.64,4.26.37,6.45.27.61-1.57.31-3.07.38-4.51s0-2.95,0-4.17c.73-.95,1.49-1,2.11-.66,1.07.65,1.93-.53,2.9-.18a4.62,4.62,0,0,0,2.83.08,5.16,5.16,0,0,1,3.67.13c.19.36.42.61.43.86a31,31,0,0,1-.1,6.37l-1.76.47-1.05-1.38a2.19,2.19,0,0,0-1.13,2.76c2,.77,4.08.52,6.35.05.94-2.9-.19-5.91.45-9a9.06,9.06,0,0,1,1.92-.33c3.11.1,6.25-.45,9.22.29.81,2,.39,3.88.39,5.71a3.14,3.14,0,0,1-.56,1.33c-1.29,1-2.83,0-3.82,1.12l.26,1.05a31.65,31.65,0,0,0,5.83-.07c1.13-3,0-6.06.66-8.88.5-.78,1.25-.74,1.95-.74,3.13,0,6.26,0,9.55.11a18.42,18.42,0,0,1,.29,6.47c-1.16,1.42-2.65.38-4,1.18l-.13,1.37c.36.23.59.5.84.51a31.45,31.45,0,0,0,5.66,0,35.51,35.51,0,0,0,.15-4.55c.06-1.47.12-2.95.17-4.47.44-.21.81-.54,1.18-.55,3.14,0,6.28,0,9.36,0,1.3,3.12,1.33,3.48.51,6.83-1.19.43-2.39.86-3.34-.57l-.05.08,2.62-2.19c-.06-.75-.11-1.31-.16-1.79-.41-.16-.72-.4-.89-.32a7.62,7.62,0,0,1-3.76.66c-.83,0-1.66,0-2.25,0-1,.92-.42,2-.78,2.71-.5,1-.17,2-.06,3a19.5,19.5,0,0,1,0,2.52,2.74,2.74,0,0,1-2.26,1.34c-1.71.41-6.92.16-9.5-.33a8.92,8.92,0,0,1-.25-1.6,34.42,34.42,0,0,1,.22-5.42c.69-.15,1.22-.3,1.76-.37s1.14-.06,1.67-.08c.45-.45.92-.84.1-1.67A52,52,0,0,0,347,10c-.72,3.07,0,6.06-.44,8.92-6,1-9.11,1-11.76-.23a17.7,17.7,0,0,1,0-5.94c1.45-1.83,3.28-.14,4.86-1l-.33-1.72-6.54-.65c-.77,1.46.22,3,0,4.57a39,39,0,0,0,0,4.61c-.72.35-1.32.9-1.93.91-2.55,0-5.12.52-7.66-.28-.58-.18-1.31.17-2.12.3-.67-2.18-.33-4.25-.24-6.28,0-.37.45-.72.68-1.08,1.41-.37,2.8.89,4.28-.11-.36-.64-.7-1.25-1.09-1.92a25.49,25.49,0,0,0-6-.13c-.76,1.51-.29,3-.39,4.46s0,3,0,4.64a8.38,8.38,0,0,1-2,.56c-3.13.06-6.27,0-9.62,0a20.81,20.81,0,0,1-.36-2.23c-.05-1.47,0-2.94,0-4.18,1-1.22,2.05-.71,3-.84a2,2,0,0,0,1.84-1.2l-.6-1.46c.33-.07.93,0,.43-.63ZM294.5,14l.14-.24-.2,0Zm67.79-5.55.23.16,0-.26Z"/><path class="cls-1" d="M643.29,2.39a27.3,27.3,0,0,1-3.06.36c-6.72,0-13.45,0-20.17,0-5.14,0-10.28.28-15.42.28-1.68,0-3.36-.37-5,.12-3.65-.75-7.28.12-10.92.15-.28,0-.58.19-.83.12-2.49-.69-5-.27-7.44.1-1.3.19-2.4-.78-3.74-.31s-2.58-.6-4.08.08c-1.22.55-2.84,0-4.25.22-2,.27-3.87-.51-5.89-.16A39.32,39.32,0,0,1,556,3.5l-6,0c-2,0-4,0-6,0l-16.75.06a13.32,13.32,0,0,1-3.8-.42c-1-.27-2.2.3-3.31.28a12.45,12.45,0,0,1-2.53-.56,6.87,6.87,0,0,1-2,.6c-1.84,0-3.69-.17-5.54-.16s-3.6.18-5.41.21a2,2,0,0,1-.89-.33,29.82,29.82,0,0,1-3.67.46q-16.09.06-32.19,0a13.1,13.1,0,0,1-2.3-.46c-2.62.62-5.48,1.55-8.51,1l-.84-1c-2.33,2.51-5.28.55-7.92,1.05s-5.42.11-8.23.11l-2.05-1.22-.9,1C436.06,4.53,436,3,435,2.83l-2.25,1.58a66.62,66.62,0,0,1-8.21-.07c-2.71-.33-5.33.55-8,.15s-5.7.53-8.23-.42a26,26,0,0,1-3.56.41c-4.27-.13-8.57.56-12.82-.41-.48-.11-1.06.3-1.61.35-1.27.14-2.57.34-3.72-.51-2.33,1.2-4.79.48-7.19.52s-4.86,0-7.35,0L370.3,3.27c0-.87.27-.88,2.37,0,1.18-.38,2.42-1.17,3.57-1.05,2.31.24,4.49-.45,6.77-.43,9.73.08,19.46,0,29.19-.06.14,0,.29,0,.43,0,1.77,0,3.49.48,5.34.11a30,30,0,0,1,6-.07c1.86,0,3.72,0,5.58,0s4,0,6,0,3.72-.06,5.58-.09,4-.06,6-.06,3.73,0,5.59,0c1,0,2-.41,2.91-.15s1.65-.17,2.46-.31,1.73,0,2.56-.18c1.43-.3,2.73.64,4.21.24A15.82,15.82,0,0,1,468.72,1c1.43,0,2.86,0,4.3,0a17.19,17.19,0,0,1,4.67.38c1.86.52,3.79-.16,5.7-.21,3.13-.08,6.24-.25,9.39,0,2.52.19,5.09-.2,7.63-.21C513,.88,525.62.88,538.22.84c6.3,0,12.6-.2,18.89-.08,1.67,0,3.33-1.2,5,0,1.5-.2,3-.49,4.51-.55s3.13.37,4.62.1c1.27-.23,2.34.86,3.74.07,1-.58,2.51-.24,3.8-.27s2.57,0,3.86,0h55.44c1.58,0,3.18-.11,4.52,1C642.88,1.26,643,1.75,643.29,2.39Z"/><path class="cls-1" d="M80.85,18.76H78.58L78.18,15a13.11,13.11,0,0,1,2.75-.68,13.32,13.32,0,0,1,2.77.55,2.62,2.62,0,0,0-1.2-2.36,34.54,34.54,0,0,0-6.18.05c0,2.4.1,4.59.12,6.79a12.16,12.16,0,0,1-.19,1.55c-.44.27-.68.53-.91.54-3.43,0-6.86,0-10.5,0a11.35,11.35,0,0,1-.44-2c-.07-1.48,0-3,0-4.68l4.13-.86V13c-.3-.17-.54-.42-.79-.43-1.28-.06-2.57-.07-3.86-.06-.54,0-1.08.12-1.72.19-.41,2.82-.06,5.5-.35,8.3-3.73,2.12-7.63.74-11.54,1.08A26.59,26.59,0,0,1,50,14.76l4-.83-.32-1.22a19.84,19.84,0,0,0-5.43.08c-.64,3,.11,5.81-.39,8.33A3,3,0,0,1,45,22.3c-6.36.18-7.19.11-9.33-.87.07-1.12.16-2.28.23-3.44s.1-2,.15-3c3.51-1,3.51-1,4-1.81-2.63-.72-2.63-.72-6.37-.08-.53,2.83.25,5.82-.37,8.92-3.88.76-7.66.11-11.56.26a13.57,13.57,0,0,1-.33-2.06c.07-1.76-.2-3.55.33-5.52l4.71-.6-.92-1.35c-2-.57-4,.07-6.15-.15-.12,1-.28,1.8-.31,2.65-.08,2.2.14,4.42-.14,6.56a6.19,6.19,0,0,1-1.47.48c-3.29,0-6.59,0-10.08,0a10.57,10.57,0,0,1-.49-2.08c0-1.62.06-3.25.1-5.07L11,13.91l-.32-1H5.79c-.76.55-.65,1.33-.65,2.06q0,3.35,0,6.7a6,6,0,0,1-4.4.64c-1-.9-.66-1.82-.71-2.85L2,18.6a2.4,2.4,0,0,0,.35-.79c.05-1.79.05-3.58.1-5.37,0-.72.13-1.43.19-2.08a26.5,26.5,0,0,1,10.69-.14c1,3.46,1,4.29.12,7.38l-3.76.46c1.48,1.81,2.77,1.88,6.4.48.67-2.65-.09-5.52.49-8.2A32.63,32.63,0,0,1,28,10.2c.12.25.35.5.36.75a31.62,31.62,0,0,1-.12,6.16c-1.79.73-1.8.74-3.91.18l-.24,1.81a7.12,7.12,0,0,0,6.39-.56c.69-2.63,0-5.5.55-8.38a8.41,8.41,0,0,1,1.72-.36c3.26.08,6.53-.38,9.94.18.47,2.22.13,4.28.21,6.18-1,1.89-2.8,1.13-4.21,1.61.94,1,.94,1,3.75,1.65l1.83-.78c.19-.37.42-.63.43-.89,0-1.79,0-3.58.05-5.37,0-.71.1-1.43.14-2,.5-.3.74-.58,1-.58,3.43,0,6.86,0,10.51,0a12,12,0,0,1,.44,2.06c.07,1.49,0,3,0,4.29-1.07,1.72-2.88.36-4,1.42v1a19.73,19.73,0,0,0,6.11.14,16.79,16.79,0,0,0,.34-2.13c0-2.07,0-4.15,0-6,.44-.41.65-.77.85-.77,3.56,0,7.12,0,10.82,0,.81,2.2.33,4.41.36,6.42-1.12,1.61-2.93.22-4,1.34l.07,1c1.9.64,3.89.08,6.08.2a14.33,14.33,0,0,0,.33-2.07c0-2.09,0-4.17,0-6.48l3.4-.85h8c.18.46.65,1,.54,1.48a7.4,7.4,0,0,0,.1,2.62,22.19,22.19,0,0,1,0,2.75,2.17,2.17,0,0,1-2.24.76A10.12,10.12,0,0,1,82,16.58c-1,.43-1.06,1.35-1.2,2.24Z"/><path class="cls-1" d="M610.13,9.53l-.48-1.19a24.8,24.8,0,0,0-6.26-.15c-.84,1.41-.49,2.76-.51,4.06s0,2.68,0,4.1A4.84,4.84,0,0,1,599,17.78a37,37,0,0,0-6.32-.07c-.48.07-1-.39-1.57-.62a22.5,22.5,0,0,1-.13-6.53c1.12-1.13,2.38-.4,3.56-.85.13-.25.32-.6.57-1.1-1.91-.84-3.72-.43-5.48-.39a4,4,0,0,0-1,3.36,14.62,14.62,0,0,1-.24,5.78c-3.56,1-7.22.32-10.61.37-1.37-1.21-.67-2.47-.74-3.59s0-2.37,0-3.76l4-.85c.34-1.46-1.25-1.2-1.5-2.13.07-.55.14-1.11.21-1.64a4.59,4.59,0,0,1,3.67-.14,2.67,2.67,0,0,1,.55,2.25c0,1.46-.1,2.92-.15,4.12-1.3,1.33-3.62-.1-4.06,2.31,1.86.87,3.77.72,5.6.76l.92-1.18c-.22-2.77-1.25-5.56.33-8.41,3.52-.4,7.06,0,10.34-.09a2.11,2.11,0,0,1,.94,2.14c0,1.48,0,3,0,4.2-1.17,1.75-3,.3-4.18,1.48.14.34.2.83.47,1.06,1.06.91,2.42.46,3.64.68.71.13,1.55-.52,2.46-.87V5.74a11.66,11.66,0,0,1,2.16-.44c3.13,0,6.25,0,9.47,0,.89,2.33.26,4.51.39,6.35-1.25,1.53-2.78.36-3.83,1.18-.66.86-.09,1.35.63,2l5.36-.8c.67-2.78,0-5.65.55-8.3a16.34,16.34,0,0,1,8.14.08c1.71-.62,1.71-.6,3.23-.27.13.25.38.51.38.76,0,1.89-.1,3.78-.15,5.62-1.35,1.2-2.69.18-4.19.17l-.48,1.68c2.23.89,4.3.46,6.56.28.51-2.93-.05-5.77.44-8.57,3.82-1,7.53.21,11.25-.85a8.61,8.61,0,0,1,.59,1.93c0,1.77,0,3.54,0,5-1.26,1.62-3.08.17-4.12,1.46l.33,1h4.56c1.23.68,1.75,1.3,1.48,2.35-2.44.81-4.56.86-9,.17a27.92,27.92,0,0,1-.12-6.25c1.25-1.22,2.7-.29,4-.87V8.46c-.72-.65-2.06-.68-6-.2-.69,1.36-.32,2.88-.42,4.33s-.06,2.63-.09,4.15c-3.94.9-7.73.19-11.49.35a6.16,6.16,0,0,1-.48-1.55,25.41,25.41,0,0,1,.14-5.06c1.43-1.28,3-.24,4.4-1l.07-1.39a22.74,22.74,0,0,0-6,0c-.77,1.51-.39,3-.49,4.47s-.06,2.64-.08,3.93c-3.52,1.75-7.16,0-10.5,1.14l-1.28-.75a25.48,25.48,0,0,1-.15-6.47C606.91,9.34,608.62,10.3,610.13,9.53Z"/><path class="cls-1" d="M230.4,17.93V11.22l.94-.46-.05-.06,1,1.44c1,2.17.5,4.68.74,6.77-.69,1.29-1.47,1.67-2.37,1.53a34.89,34.89,0,0,0-4.57-.05c-1.51-.05-3,0-4.72,0a7,7,0,0,1-.47-1.68c-.06-1.78,0-3.55,0-5.21,1.4-1.35,2.74-.87,4.24-.28l.12-2c-2.11-1-4.21.08-6.37-.63a19.5,19.5,0,0,1-.64,3.37c-.45,1.14.75,2.34-.25,3.38.21.95.91,1.9,0,2.85-.93.45-1.16-.46-1.63-.94l-1,1.22H207c-.8-1.32-1.1-2.47.27-3.5l.24.33-.32-.25-.87-2.84c1.22-1.46,2.72-.88,4.24-1.38l.77-1.85c-2.13-.26-4.22.22-6.07-1.36L204,10.93c-.06,3.16-.12,6.1-.18,9.21-3.72.8-7.24.48-10.61.38-1.14-1.16-.54-2.41-.65-3.53a27.61,27.61,0,0,1,0-2.86c1.24-1.46,3.08,0,4.13-1.56-.1-.32-.21-.72-.38-1.27-1.93-.53-3.83-1-5.84.21-.63,2.81,0,5.66-.45,8.66a8.1,8.1,0,0,1-1.91.48c-3.14.05-6.28,0-9.45,0-1.11-2.32-.2-4.54-.68-6.33,1.31-1.75,3.11-.35,4.2-1.56l-.21-1a18.67,18.67,0,0,0-6-.09c.06,3,.83,6-.86,8.75-1.77.56-3.65.14-5.48.24s-3.38-.07-4.91-.11c-.28-.51-.51-.74-.53-1a34.45,34.45,0,0,1,.11-5.51,3.26,3.26,0,0,1,2.7-.46,1.5,1.5,0,0,1,.48,2.26c-.44.77-1.08,1.44-.33,2.36.25.1.56.35.75.28,1.73-.62,3.65.1,5.53-1,.53-2.62.14-5.39-.11-8.17A2.64,2.64,0,0,1,176,8.24c2.79.93,5.54,0,8.58.14a9.79,9.79,0,0,1,.44,1.88c.07,1.77,0,3.54,0,5.54l-4.44.66.77,1.87c1.07-.16,2-.33,3-.43s1.69-.11,2.41-.15c1-.94.62-2.06.71-3.05.18-2-.3-4.13.24-6.09a29.38,29.38,0,0,1,11.13.08c.79,2.57.8,2.67.25,7.13l-4.63.46.88,1.32c1.86.45,3.67.11,5.56.24.63-1.89.28-3.54.44-5.13s-.45-3,.42-4.37c2,0,4,.46,6.07-.15,1.56-.46,3.36,0,5,0,.74,2.63.73,2.63,0,4.81.35.8.92,1.57.07,2.74l-3.19.43-.49,1c.3.23.52.55.74.56,1.83,0,3.66,0,5.69,0,.45-3.14,0-6.12.36-9.26a9.75,9.75,0,0,1,2-.42c3.13,0,6.27.07,9.59.12a18.33,18.33,0,0,1,.18,6.55c-1.56.7-2.93,1.43-4.74.84-.23.62-.47,1.26-.82,2.23l8.38.05.26.38Zm-64.93-.46h.24v-.94h-.24Zm37-.19-.14.25.21,0Zm29.23-4.12.14-.22-.24,0Zm-5.16-2.71.13-.24-.2,0Z"/><path class="cls-1" d="M.06,8.47V5.77A8.55,8.55,0,0,1,2,5.29c6.59,0,13.18,0,19.76,0,4,0,8,0,12,0,1.42,0,2.84-.24,4.26-.38a4.06,4.06,0,0,1,1.26-.19c3,.7,5.94-.28,8.92-.09s5.7.26,8.55.29c1.41,0,2.83-.29,4.23-.25,5,.11,10-.41,15,.36,1.35.2,2.81-.37,4.22-.38q19.74-.16,39.5-.23c6,0,12,.13,18,.14,3.7,0,7.43.27,11.08-.48,2.53-.52,5-.1,7.57-.22s5.37-.17,8.05-.09c1.42,0,2.83.25,4.25.36a9.16,9.16,0,0,0,2.9.08,12,12,0,0,1,6.73,0c.73.21,1.63-.23,2.46-.36,1.11.9.34,1.46-.57,2.24a33.08,33.08,0,0,1-3.57.29c-3.28-.06-6.55-.23-9.83-.35a6.87,6.87,0,0,0-1.2,0c-1.39.22-2.72.68-4.18-.07-.57-.29-1.56.44-2.36.45-2.55.06-5.13-.35-7.63.56-1.87-.54-4,0-5.66-1.29-.4.17-.93.61-1.16.47-1.84-1.06-3.92,1.7-5.5-.62l-1.23,1.39a7.94,7.94,0,0,1-2.27.09c-1.53-.31-3-.73-4.53,0a2.14,2.14,0,0,1-1.67-.15c-1-.5-1.94-.12-2.91-.06-4.39.29-8.78.72-13.18,0-3,1.13-6.07-.73-9.1.32a9.33,9.33,0,0,1-3,.13l-14.15,0a8.83,8.83,0,0,1-3.81-.35,3.13,3.13,0,0,0-1.61,0c-6,.79-11.94.4-17.9.51-3.58.06-7.16-.14-10.74,0-2.13.07-4.26.23-6.4.44a36.5,36.5,0,0,1-11.52-.14c-1.49-.32-3,.38-4.54-.24A5.74,5.74,0,0,0,26,7.8a1.28,1.28,0,0,1-.84.09c-2.67-.66-5.32.21-8,.15-4.72-.12-9.45,0-14.17.09C2.13,8.15,1.29,8.32.06,8.47Z"/><path class="cls-1" d="M80.78,18.82l6.53-.16c1-3-.16-6.07.71-8.83,2.41-1,4.14-1.08,11-.6.85,2.3.88,3,.27,7.49L96,17.18l-.4,1.22a18.75,18.75,0,0,0,6.06.14c.85-1.44.38-3,.49-4.4.12-1.59-.24-3.23.33-5,3-.35,5.81-.1,8.64-.19a2.54,2.54,0,0,1,2.19.47c.9,1.93-.11,4.25.75,6.1a1.86,1.86,0,0,1-1.82,1.32,10,10,0,0,0-2.13.17c-.28.07-.45.61-.82,1.16a14.76,14.76,0,0,0,6.57.21c.37-3.11.15-6.07.35-8.92,2.4-.7,7-.79,11.48-.25.66,2.85.66,3.58,0,7.12-.46,0-1,.08-1.49.06s-1.12-.14-1.58-.2c-.84.58-.91,1.22-.41,2.18,2,.28,4.07.66,6.2-.89.37-2.61-.07-5.46.48-8.06.46-.24.7-.49.94-.49,3.42,0,6.84,0,10.35,0,.11,1.12.21,2.07.31,3-1.57.69-3-.31-4.43-.26s-3.15,0-4.8,0c-1.08,2.91.77,5.95-.28,8.82-2.57,1.09-6.07,1.23-11.33.45-.14-.24-.38-.48-.4-.73-.21-2.07,0-4.12-.06-6.26H125c1-1.28.42-2-.58-2.86-1.59.75-3.45.28-5.41.85-.62,2.87.17,5.87-.38,8.72-2.65,1-5.42,1.12-11.62.45-.64-2.09-.25-4.25-.2-6.14,1.15-1.53,2.72-.37,4-1.43l.1-1.61a19.15,19.15,0,0,0-2.2-.32c-1.12,0-2.24.11-3.43.18-.76,1.56-.34,3.07-.41,4.5s0,3,0,4.63a10.49,10.49,0,0,1-2.12.52c-2.72.06-5.44.05-8.16,0a7.64,7.64,0,0,1-1.43-.3,23.5,23.5,0,0,1-.16-6.3c1.24-1.22,2.71-.38,3.78-1l.35-1.1c-2.13-.85-4.22-1.37-6.44-.07-.74,2.67.16,5.39-.42,8.25a7.16,7.16,0,0,1-1.86.5c-2.71.06-5.44,0-8.15,0a9.33,9.33,0,0,1-1.61-.27c0-1.76,1.86-1.37,2.27-2.52Z"/><path class="cls-1" d="M158.79,17.88c.5-3.13-.12-6,.48-8.84,3.85-.61,7.53.19,11.17-.29,1.23,2.34.32,4.56.58,6.79a6.59,6.59,0,0,1-1.24.47c-.24,0-.52-.17-.9-.31.45-.74.88-1.46,1.35-2.22l-.18-1.22c-.27-.2-.48-.49-.72-.52-1.55-.19-3.11-.33-5-.52l-2.24.64a3.85,3.85,0,0,0-.37,1.13c-.07,2.36-.09,4.72-.13,7.2-3.89,1.32-7.65.64-11.55.43a16.7,16.7,0,0,1-.3-6.48c1.11-1.13,2.36-.51,3.54-.87l.63-1.18a13.29,13.29,0,0,0-6.54-.26c-.67,2.79.22,5.65-.49,8.49-3,1.82-6.4.79-9.6,1a6,6,0,0,1-2-.67c.17-1.08.29-1.94.46-2.79s.32-1.42.52-2.27l-1-.87,1.27-.81h3.35a1.26,1.26,0,0,1-.3,1.92,3.58,3.58,0,0,0-1.77,2.37c.34.63.63,1.29,1.57.81a4,4,0,0,1,3.7.19,2.66,2.66,0,0,0,1.42-2.54c0-2.45.14-4.91.21-7.38a6.79,6.79,0,0,1,1.4-.38c3.28,0,6.56,0,10.06,0A15.29,15.29,0,0,1,156.6,11c.06,1.48,0,3,0,4.19-1.23,1.62-3,.5-4.11,1.33l.08,1.17C154.48,18.25,156.45,17.93,158.79,17.88Z"/><path class="cls-1" d="M321.58,3.5l-1,1.62a6.88,6.88,0,0,1-5-.62c-.15-.17.11-.91-.51-.4l.58.32c-.46.3-.91.84-1.37.85-3.42.05-6.84,0-10.26,0-.4,0-.85-.43-1.17-.32-2.38.79-4.75.38-7.13.07-.94.73-1.8-.68-2.85,0a5.26,5.26,0,0,1-2.5.41c-3.57.06-7.14,0-10.71.11-1.4,0-2.8.14-4.49.23L274,4.91c-2.58.71-2.58.71-5,0l-4.62,1-3.05-1.24-1.55.87-5-.37-.77.7c-.84-.33-1.14-.92-1-2a20.91,20.91,0,0,1,2.35-.4c2.12-.12,4.28.32,6.36-.5.13-.05.31-.12.41-.06,2.54,1.26,5-.1,7.54-.1,1.38,0,2.76.51,4.15.53,1.24,0,2.54-.67,3.7-.43a19.83,19.83,0,0,0,5.39-.1c2.56-.15,5.14,0,7.72-.12,2.81-.07,5.6.39,8.44.09a84.38,84.38,0,0,1,9-.07l8.58,0c1.71,0,3.43-.09,5,.92Z"/><path class="cls-1" d="M193,3.65l1.66,1.41,1-1.09a4,4,0,0,1,1.06-.29c15.87-.39,31.73-.05,47.57-.18l.78,1.36c-2.52,1.06-4.88,2-7.44.56l-2.82.8L233.48,5c-2,.81-3.92,1.75-6.09.75-1.88.34-3.78-.43-5.7.35-1,.4-2.25.07-3.63.07l-.92-1.31-2,1.43c-2.74-.92-5.64-.14-8.54-.07-3.85.1-7.71,0-11.57,0-1.65,0-3.31-.35-4.95-.25a31.15,31.15,0,0,1-5,.35c-.83-.07-1.67-.09-2.65-.14l-.15-1.89C185.87,3.34,189.4,3.75,193,3.65Z"/><path class="cls-1" d="M231.34,10.76c-.14-.82-.28-1.64-.42-2.48a9.46,9.46,0,0,1,5.52-.08c1.88.49,3.63-1.16,5.68.45.5,1.71.29,3.87.14,6.14-1.54.76-3.22.19-4.74.85a14,14,0,0,0,.14,1.82,16.85,16.85,0,0,0,.56,1.82l-1.17,1.41-2.16-1.09c0-1.9-.36-3.66.37-5.3,1.26-1.46,3.8-.7,4.61-3.13-2.94-.93-5.8-.2-8.58-.47Z"/><path class="cls-1" d="M368.87,3.15c0,.48-.05,1-.09,1.71l-5.57-.59a2.9,2.9,0,0,1-.76-.31l-2,1.28c-1.71,0-3.57,0-5.42,0s-3.73.43-5.49-.54a7.21,7.21,0,0,1-5.43-.14c-.47-1,.59-1.25,1.25-1.84a9.65,9.65,0,0,1,1.19-.18c4-.11,7.94-.11,11.89-.35,2.09-.12,4.17.16,6.27-.25C366.09,1.67,366.31,1.92,368.87,3.15Z"/><path class="cls-1" d="M249.35,9.79c-.27,1.17-1.4.77-2.28,1.37-.18.62-.41,1.44-.67,2.37.17.88.42,1.85.52,2.84a26.35,26.35,0,0,1,0,2.67,4.9,4.9,0,0,1-3.47,1.44c-1.26.08-2.53,0-3.51,0-1.45-1-1.08-1.86-.54-2.85l4.74-.28c.05-3,.1-5.89.15-8.65,1.19-1.06,2.36-.56,3.44-.65l1.67,1.81Z"/><path class="cls-1" d="M321.64,3.59c.16-.23.29-.61.49-.66a7.53,7.53,0,0,1,2.1-.28c1.67.08,3.34.4,5,.38,1.84,0,3.68-.34,5.52-.42s3.44,0,5.15,0c.57,0,1.14.05,1.62.07.83.52,1,1.15.5,2.16l-7,.49-1-1.14-.94.88c-1,.28-1-.85-1.63-1.2L329.62,5.2h-6.41l-1.63-1.7Z"/><path class="cls-1" d="M246.75,3.63c1.72-.07,2.83-.14,3.95-.15a3.35,3.35,0,0,1,.89.32c.06.3.14.67.27,1.25l-4.75,1Z"/><path class="cls-1" d="M142.16,13.65a1.54,1.54,0,0,1,0,2.23c-.91,0-1.11-.55-1-1.34A.88.88,0,0,1,142.16,13.65Z"/><path class="cls-1" d="M.71,15.3l-.22.3c-.08-.27-.18-.53-.25-.8,0,0,.16-.11.25-.17C.56,14.86.64,15.08.71,15.3Z"/><path class="cls-1" d="M520.33,11.59l-.47-.43c.1,0,.24,0,.28.1a1.69,1.69,0,0,1,.12.4Z"/><path d="M322.81,204.11l-1,.94-.71-.72c-1.11-.34-2.19-.56-3,.59a1.45,1.45,0,0,1-.42.16h-5.48l-1.09-.89-1,.87h-4.83l-.7-.62a2.59,2.59,0,0,0-.82-.32c-1.14,0-2.28,0-3.39,0l-1.07,1-1-.07c-.4-.4-.4-.4-.42-2.32l-1-1.07v-7.77l.95-1-.7-.71a3.14,3.14,0,0,1-.24-.87c0-10.91,0-21.82,0-32.63.21-.22.31-.37.45-.44a1.14,1.14,0,0,1,.46-.05h44.51c.12,0,.24.18.46.36v45.2c-.16.17-.27.37-.39.39a6.39,6.39,0,0,1-1,0Zm16.12-4V164.54a6.39,6.39,0,0,0,0-1c0-.13-.19-.24-.29-.36l-1.07-1.07H302.14c-.18.21-.38.33-.38.45q0,18.31,0,36.62a1.28,1.28,0,0,0,0,.48c.06.14.23.22.47.44Z"/><path d="M236.21,165.46l1.43-1.42H269l1.48,1.4v12.74l.92.92v3l-.92,1.06c0,5.11,0,10.32,0,15.53,0,.12-.18.24-.35.46H236.6c-.16-.16-.36-.26-.38-.39a6.28,6.28,0,0,1,0-1Zm4,29.84h18l1,1c1.06.39,1.39-.67,2.08-1,1,0,2,.07,2.93,0s2.27.5,3.26-.44v-13.7l-.95-1v-3.88l.94-1v-5.87L266,167.91H240.66c-.12,0-.24.19-.45.37Z"/><path d="M368.28,179.15l.69-.68c.09-.13.27-.25.27-.37,0-5.54,0-11.07,0-16.55a3.65,3.65,0,0,1,.41-.4,1,1,0,0,1,.45-.09h36.2a4,4,0,0,1,1,.28v38.47c-.66.72-1.53.2-2.28.37l-1.05-.95-.7.69c-.49.34-21.71.45-33.6.18a1.86,1.86,0,0,1-.34-.35,1.17,1.17,0,0,1-.06-.46q0-9.54,0-19.11Zm36.19,16.65V166.52a8,8,0,0,0,0-1c0-.13-.18-.24-.28-.37l-1.09-1.09H388.24l-.78.78h-3.67l-2.08-1L380.48,165h-5.81c-.65,0-1.3,0-1.95,0-.13,0-.24.2-.45.38V189l.82,1-.79.78v5.15l2.46,1.15.9-.72H394l1.9,1.07,1.26-1.09,1,.9c1.07-.09,2.21.34,3.21-.27l.71-.64,1,.87Z"/><rect x="375.29" y="167.95" width="26" height="26"/><rect x="242.29" y="170.95" width="22" height="22"/></g></g></svg>