<svg xmlns="http://www.w3.org/2000/svg" viewBox="0 0 643.29 206.83"><defs><style>.cls-1{fill:#f38013;}</style></defs><title>Carto_title_deco1</title><g id="Layer_2" data-name="Layer 2"><g id="ornamentos"><path class="cls-1" d="M343.15,203.18a20.06,20.06,0,0,1-3.28.72c-1,0-2-.66-2.91-.42-2.41.69-4.84.42-7.25.49a18.46,18.46,0,0,1-3.15-.53,5.27,5.27,0,0,1-1.74.52c-2.85-.11-5.71.38-8.55-.32a7.35,7.35,0,0,0-2.55.37l-1.11-1.36-.79,1.22h-4.2l-1-1.23-.86,1.28c-1.12.06-2.38.16-3.65.17-6.73,0-13.46.11-20.19.12-3.39,0-6.75.34-10.13.53-.71,0-1.43.07-2.15.07a60.73,60.73,0,0,0-6.33,0,63,63,0,0,1-6.45.06H237.47c-2.14,0-4.29,0-6.44.06l-35.65.1-32.66.09c-1.42,0-2.85-.2-4.23.42a3.13,3.13,0,0,1-1.69.17c-4.38-.64-8.76.18-13.14.05s-8.6,0-12.9,0l-13.32.12c-4.3,0-8.6,0-12.9,0-9,0-18.05,0-27.08.15-3.11.07-6.21,0-9.32,0-1.7,0-3.4.3-5.1.44-1,.08-2,.14-3,.14l-55.46.19H.86c-.66-1.27-.66-1.27.1-2.54,2.31-.66,4.76-.31,7.17-.33,9.59-.06,19.19,0,28.79,0,3,0,6,0,9,0a43.83,43.83,0,0,0,5.13-.19c1.66-.21,3.3.37,5-.34,1.39-.58,3.08-.09,4.6,0,2.56.1,5.09-.3,7.64-.14,2.72.16,5.45,0,8.17,0l7.74,0c11.75-.07,23.5-.16,35.25-.2,8.88,0,17.76,0,26.63,0,1.14,0,2.28-.17,3.41-.27.42,0,.93-.34,1.24-.18,2.2,1.16,4.47.11,6.71.27s4.47.6,6.71-.09c.51-.16,1.16.17,1.66,0a7.68,7.68,0,0,1,5.69.45c1-.28,1.91-.9,2.59-.68,1.72.55,3.39-.51,5,.06a11.55,11.55,0,0,1,1.88,1.11c.86-1.27,2.37-1.12,3.45-1,3.36.28,6.67-.48,10-.27,1.57.1,3.15,0,4.73,0s3.05.23,4.58.31,3,.09,4.55.13c.4,0,.91.17,1.2,0,1.21-.78,2.53-.49,3.78-.5q15,0,30.07,0c1.39,0,2.79.24,4.18.38,1.25-1.2,2.65.12,4-.26a17.19,17.19,0,0,1,4.26-.21c1.42,0,2.85,0,4.28,0,1.72,0,3.44,0,5.15-.11,1.28-.05,2.56-.16,3.83-.27,1-.09,2-.21,3-.34,2.25-.32,4.48.4,6.77.07a37.39,37.39,0,0,1,6.44-.08c1.27,0,2.54.37,3.81.37s2.52-.26,3.79-.39a2.42,2.42,0,0,1,.85,0,13.17,13.17,0,0,0,8,0c4.09.55,8.22-.72,12.3.3,3.4-.77,6.84-.21,10.25-.37A20.48,20.48,0,0,1,328,202l1.85-.6,1.83.82c.92-.28,1.93-1,2.79-.78,1.85.37,3.63-.08,5.43-.06s3.44.09,5.16.08c5.86,0,11.73.05,17.59-.13,1.41,0,2.68.77,4.16.27a14.59,14.59,0,0,1,3.82-.33,6.11,6.11,0,0,1,3.79.6l2.29-1.25c1.33.05,2.58.85,4.09.37a3.5,3.5,0,0,1,3.27.15,1.3,1.3,0,0,0,.84.09c1.55-.19,3.11-.35,4.65-.63s2.74.3,4.2.18a36.22,36.22,0,0,1,10.24.13,3.19,3.19,0,0,0,1.61-.16,9.61,9.61,0,0,1,1.7-.18c1.82-.11,3.63.2,5.48.14s3.59-.24,5.38-.27c2.29,0,4.58,0,6.88,0,4.72,0,9.44,0,14.17.06a25.46,25.46,0,0,1,3.58.52,16.92,16.92,0,0,1,3.83-.57c3.41.27,6.87-.67,10.23.49l5.71-.89,2,.94c3.73-.49,7.41-1.27,11.18-.83,1.47.18,3.1-.34,4.39,1.1L482,199.8c1.66.49,3.44-.23,5.26-.17s3.44,0,5.16,0c1.41,0,2.83.22,4.22.37s3,.83,4.43-.15a4.11,4.11,0,0,1,2.1-.22q23.63-.06,47.27-.11c3.72,0,7.44-.07,11.17-.21a20.53,20.53,0,0,1,4.22.07c2.54.42,5.05-.24,7.57-.37a41.1,41.1,0,0,1,8.94,0,3.57,3.57,0,0,0,1.25.1c3.84-.77,7.68-.4,11.53-.18,1.69.1,3.4-.26,5.09-.2,4.71.16,9.44-.51,14.14.35,5.26-.89,10.56-.25,15.83-.43,3.3-.11,6.6,0,9.89,0a7.1,7.1,0,0,1,2.1.29,1.38,1.38,0,0,1,1,1.66c-.58,1-1.5.85-2.33.86-5.16,0-10.32-.07-15.48,0-5,.09-10-.13-15,.22-4.24.3-8.52-.22-12.78-.21-2.85,0-5.73-.4-8.53.51a1.48,1.48,0,0,1-.86,0c-3-.81-5.93.27-8.91.09s-6-.05-9,0q-29.88,0-59.76.11c-8,0-16.05.15-24.07.18q-8.39,0-16.75-.07c-3.26,0-6.51.28-9.77,0a5.07,5.07,0,0,0-1.29,0c-7,1.43-14,.38-21,.63-1.49.05-3-.72-4.67-1.16L431,203.09l-12.16.07c-7.44,0-14.88.1-22.33.05-2.4,0-4.83.41-7.24-.44-.66-.23-1.58.49-2.39.49-5.29,0-10.59-.11-15.89,0-1.11,0-2-.81-3.17-.42a16.08,16.08,0,0,1-3.35.41c-1.13.11-2.26.28-3.39.33-1.91.09-3.81-.32-5.77.27s-3.91-.63-5.88,0c-1.81-.89-3.61-.21-5.42,0-.3,0-.64-.48-.95-.73.45-.07,1.06.26,1.26-.52C343.64,202.16,343.34,202.56,343.15,203.18Zm-122.54.24-.13.21.2,0Z"/><path class="cls-1" d="M366.36,193.25c-1.26,1-.88,2,.05,3.15l6.32.32a3.27,3.27,0,0,0,.3-3.1,13.52,13.52,0,0,1-.54-2.57c-.08-1.16,0-2.33.06-3.65,1.93-.76,3.79-.43,5.6-.43h5.54c.93,2.24,1,3,.34,6.85-1.07,1-2.53-.06-3.82.9,0,.39-.07.93-.13,1.78,1.41-.48,2.58.17,3.76.08a12.51,12.51,0,0,0,3-1v-8.17c3.85-1.25,7.62-.57,11.4-.77.22.33.7.73.65,1-.31,2,.15,4,0,5.78-.8.89-1.56.68-2.25.76l-1.72.18-.65,1.23,3.6.78,2.53-.74a3.37,3.37,0,0,0,.41-.93c.08-2.52.12-5,.17-7.63.61-.32,1.1-.79,1.59-.8,1.69,0,3.41.4,5.06.16a27.44,27.44,0,0,1,4.41-.22,2.09,2.09,0,0,1,.93,2.12,29,29,0,0,1-.13,5.14c-1.1.95-2,.65-3,.1l-1.92.91,1.07,1.39a13.85,13.85,0,0,1,2.4,0,15.29,15.29,0,0,1,2.41.83l1.88-1a2.19,2.19,0,0,0,.13-.8c-.71-2.5-.37-5-.18-7.32,1.14-1.19,2.47-1.82,3.65-1.37,2.38.89,4.68.14,7,.07l1.08.95v6.11c-1.21,1.17-2.43.65-3.65.2-.71.53-.71,1.16-.12,2.09a12.78,12.78,0,0,0,5.33,0c1-.59,1.07-1.65,1.09-2.69,0-2.07,0-4.14,0-6.39,3.73-.66,7.25-.3,10.62-.38.31.41.6.62.64.86a27.19,27.19,0,0,1-.11,6.34c-1.26,1-2.48.47-3.67.87l-.34,1c2.89.75,2.89.75,6.5.11.47-2.84-.09-5.82.27-8.49a2.1,2.1,0,0,1,2.12-.78h9.28c1,1.49.31,2.71.14,4-.14,1.09.81,2.23.1,3.41a2.09,2.09,0,0,1-2,.47,16.14,16.14,0,0,1-1.77-.4c-.05.65-.09,1.21-.13,1.7.35.23.58.51.81.52,2,0,4,.06,6,.08.16.19-.09,1,.59.41l-.65-.34v-9.29c2.45-.82,7.06-.93,11.65-.28.88,2.08,0,4.28,0,6.52-.91,1.21-2.22.71-3.43.59-.73.41-1.21.87-.37,2,1.71.22,3.62.72,5.58-.41.58-2.82.05-5.67.49-8.33a2,2,0,0,1,2-.77c3.13,0,6.26.05,9.48.08.82,2.36.23,4.53.46,6.85l-4.13.57c-.09.72-.16,1.26-.21,1.73.37.23.61.51.83.49,1.77-.12,3.53-.29,5.53-.47.79-2.79,0-5.82.73-8.92,1.68-.67,3.55-.17,5.35-.32s3.71,0,5.54,0c.83,3.67.83,3.67-.35,7.21a8,8,0,0,1-1.17-.22,8.59,8.59,0,0,1-1.1-.52c-.77.56-1.49,1-1.27,2.3,2,.83,4.09.17,6.22.39.59-1.76.22-3.26.35-4.71s-.19-2.66.23-3.9a31.44,31.44,0,0,1,11.68-.17,26.29,26.29,0,0,1,.07,6.26c-1.26,1.32-3.06,0-4.17,1.52.25.3.48.84.75.86a38.19,38.19,0,0,0,3.86.09,15.27,15.27,0,0,0,1.85-.28c.09-.8.22-1.5.23-2.21,0-1.79,0-3.58.05-5.36a5,5,0,0,1,.69-1.59,43.55,43.55,0,0,0,10.7,0c1.45,2.38-.08,4.77.44,7-1.26,1.17-2.83.24-4.26.84l-.34,1c.8.78,2.6.83,6.82.25v-8.42c.46-.29.92-.85,1.39-.86,3.25-.06,6.51,0,9.76,0,.12,0,.22.18.57.48.5,2.09.12,4.42.12,6.55-1.22,1.47-3,0-4.06,1.39.1.27.14.7.29.75a13.1,13.1,0,0,0,5.95.18c.89-3-.08-6,.6-9.14,3.86-.27,7.7-.8,11.58.11a26.59,26.59,0,0,1,.08,6.76c-1.22,1.07-2.45.44-3.65.88-.12.25-.29.61-.54,1.16a17.68,17.68,0,0,0,6.19.23,2.73,2.73,0,0,0,.37-2.34c-.17-1.77-.3-3.54-.31-5.32a5.15,5.15,0,0,1,.67-1.69,67.39,67.39,0,0,1,10.52-.09c1,1.26.58,2.52.71,3.65a29.84,29.84,0,0,1,0,3.26c-1.28,1.51-3.09.25-4.13,1.52.1.3.19.55.28.81a2.66,2.66,0,0,0,.77.28q2.15,0,4.29,0a4.21,4.21,0,0,0,1-.35c.51-1.3.22-2.79.26-4.23s0-3,0-4.66a15,15,0,0,1,2.11-.41,18.63,18.63,0,0,1,4.74.27v2.06l-4.09.73c-.41,3.09.24,6.07-.4,9.09a11.62,11.62,0,0,1-1.79.28c-3.13,0-6.26,0-9.48,0-1-2.37-.19-4.54-.49-6.59l4.17-1.72-.38-1.23c-1.33,0-2.74-.1-4.15-.08a3.31,3.31,0,0,0-1.12.42c-1.05,2.88.47,6-.89,8.63-.44.24-.69.5-.94.51-3.29,0-6.57,0-9.72,0-.86-.55-.77-1.32-.77-2v-4.41c.91-2,2.47-.79,3.88-.88,0-.39.07-.77.11-1.28l-3.44-1-2.63.89a3.06,3.06,0,0,0-.39,1c0,1.64,0,3.28,0,4.92a8.12,8.12,0,0,1-.33,2.8,48.07,48.07,0,0,1-11,.05c-.8-2.53-.8-2.53-.41-6.57,1-1.16,2.48-.17,3.78-.87a5.5,5.5,0,0,0,.68-.87c.12-.2,0-.53,0-.92a12.7,12.7,0,0,1-6.19-.11,2.16,2.16,0,0,0-1.13,2.23c.08,2.2.22,4.4.33,6.38a2,2,0,0,1-2,1h-9.4a4.69,4.69,0,0,1-.38-4.2,10,10,0,0,0,.3-2.21l-.07.08a9.13,9.13,0,0,1,1.54-.61c1.27-.25,1.28-.21,2.51-1.5l-2.71-1.78c-.77,1.17-2.17,1.12-3.59,1.22-.83,2.87,0,5.74-.49,8.43-1.29.89-2.61.57-3.86.63s-2.58-.05-3.86-.07a12.36,12.36,0,0,1-4-.31c-.52-2.27.05-4.42-.2-6.27,1.36-1.12,2.58-.58,3.77-.92l.5-1.15c-2.19-.9-4.26-.3-6.51-.42-.48,3.06.12,5.89-.39,8.78-3.93,1-7.7.31-11.48.19a6.45,6.45,0,0,1-.41-1.41,28.51,28.51,0,0,1,.12-5.17c1.49-1,3-.22,4.56-1l.41-1.36c-.17-.23-.26-.45-.34-.45-2.23.18-4.46.39-6.93.61-.08.49-.37,1.11-.21,1.56a16.56,16.56,0,0,1,.46,6.66,9.39,9.39,0,0,1-6.59,1.23c-1.66-.22-3.3-.6-5.21-1a24.1,24.1,0,0,1-.1-6.29c1.41-1,2.62-.51,4-.08.07-.58.14-1.12.22-1.82-2.16-.88-4.23-.49-6.33-.32-.65,1.43-.38,2.78-.42,4.08s0,2.68,0,4.09a4.9,4.9,0,0,1-3.94,1.37c-2.62-.23-5.45.84-8-1.26,0-1.14-.06-2.31-.05-3.49,0-.73.12-1.46.16-1.92,1.26-1.78,3.19-.7,4.48-1.66l-.46-1c-1.7-.61-3.54-.12-5.52-.57A14.86,14.86,0,0,0,461,191c-.06,2.07,0,4.15,0,6.12-3.85,1.58-3.86,1.62-5.44,1.26-.35-.08-.62-.56-1-.91l-1.17,1a14.33,14.33,0,0,1-4.24-.18,25,25,0,0,1-.12-6.88c1.17-1.55,3.39.24,4.17-1.87-2.36-.92-2.36-.92-6.27-.41-.63.55-.54,1.33-.55,2,0,2.23,0,4.46,0,6.87a10.43,10.43,0,0,1-2.07.49c-3.13,0-6.26,0-9.47,0-.94-2.2-.25-4.29-.47-6.39l1.06-1.25a1.74,1.74,0,0,1,1.54,1.46.85.85,0,0,0-.88.9,1.22,1.22,0,0,0-.38.13c-.06,0-.07.17-.1.27l.41-.48c.58,0,.78-.38.87-.9L439,191.2c.5-1-.05-1.48-.61-2.07l-6.45-.69c-.4,1.43,0,3.06,0,4.66s.12,2.94.19,4.47a1.76,1.76,0,0,1-1.68,1.05,90.29,90.29,0,0,1-9.58-.05,20,20,0,0,1-.33-6.49c1.07-1.06,2-.53,3,0l2-1.18v-1.58a15.58,15.58,0,0,0-7.29-.18c-.54,3,0,6-.4,8.87a11.71,11.71,0,0,1-7.46.22l-3.93.46c-.74-2.57-.76-4.81.78-7l2.46-.44.67-1.07c-.24-.4-.46-.76-.64-1-1.75,0-3.4,0-5.05,0-.23,0-.46.33-.88.65l-.45,8.41a8.47,8.47,0,0,1-1.95.5c-3.13.05-6.26,0-9.32,0-.94-3.38-.93-3.53.49-7.05l3.57-.28,1.2-1.3c-.34-.7-.63-1.3-1.16-2.37l-1.08,1.88-2.07-.74c-.19-.13.06-1-.57-.38l.64.3c-.65,1.4-2.13.43-3.31,1.37-.62,2.43.2,5.3-.55,8.23a10.35,10.35,0,0,1-1.63.24c-3.14,0-6.27,0-9.62,0a14.62,14.62,0,0,1-.38-2.06c-.06-1.47,0-2.95,0-4.23,1.14-1.49,2.63-.42,4-1.16a2,2,0,0,0-.82-2.86,17.64,17.64,0,0,1-2.56,1.22,15.1,15.1,0,0,1-2.75.3,21.06,21.06,0,0,0-.29,2.12c-.08,2.07-.12,4.14-.19,6.37-3.71,1.73-7.48.28-11.44.48.08-1.31.18-2.42.22-3.54s0-2.06,0-2.85a1.6,1.6,0,0,1,2.35-.51c.07.36.17.89.28,1.43Zm7.12-4,.23.15,0-.24Zm4.52-1.05-.14.22.19,0Z"/><path class="cls-1" d="M310.46,189.74c-2.11.08-4.27-.5-6.56.49-.68,2.76,0,5.75-.44,8.64-1.17.84-2.46.71-3.73.7s-2.29.07-3.44,0-2.56.44-3.92-.55a29.23,29.23,0,0,1,.05-6.19l3.91-.87a1.71,1.71,0,0,0-1.16-2.15,6.18,6.18,0,0,1-5,.23,3.7,3.7,0,0,0-2,1.8l1.28.19s.15.06.15.14c.1,2.22.18,4.44.27,6.85a8.77,8.77,0,0,1-2.07.59c-3.13.05-6.27,0-9.49,0-.87-2.31-.46-4.49-.43-6.5,1.18-1.56,3-.2,4.18-1.4v-1.19c.45-.12,1.07.21,1.3-.54-.73-.43-1,.06-1.24.62-2.1-.94-4.17.19-6.34,0-.7,2-.36,3.92-.25,5.83.05.86-.05,1.73-.09,2.74A7.45,7.45,0,0,1,273,200c-2.82-.06-5.64-.32-8.47-.53-.1,0-.19-.21-.56-.63a31.88,31.88,0,0,1,0-5.7c1.1-1.3,2.56-.39,3.84-1l.37-1.12c-2.16-1-4.25-.1-6.32-.54a11.71,11.71,0,0,0-.4,4.31c0,1.34,0,2.68,0,4.2-1.85.89-3.64,1.68-5.7,1.05a12,12,0,0,0-6.15,0,27.75,27.75,0,0,1-.09-7.24l4.07-.76c-.13-.51-.19-.78-.31-1.27-1.19-.46-2.8,0-3.89-1.11l.07.09.07-1.55a34.25,34.25,0,0,1,6.12-.28c.28.38.6.6.6.83,0,1.92,0,3.84,0,5.59-1.17,1.57-2.94.3-4.09,1.32.87,2.21,2.33,2.48,6.19,1.08,1-2.64,0-5.53.55-8.22,2.33-.78,7-.94,11.42-.41.15.24.41.47.44.73a40,40,0,0,1,0,5.47c-1.36,1.7-3.73-.14-4.67,2,.25.22.44.54.64.55,2,0,4,0,6.1,0,0-1.1,0-2.07,0-3s.26-1.71.27-2.57-.11-2-.17-2.91c3.05-.74,5.67-.82,11.36-.34a15.53,15.53,0,0,1,.31,2c.05,1.47,0,3,0,4.19-1.24,1.57-3,.31-4.13,1.44l.18.8c.25.13.5.37.75.38,1.7,0,3.4,0,5.06,0,1.07-1.71.42-3.41.64-5s-.39-3,.34-4.36c.93.27.61,1.23,1,1.73l.9-1.59c1.06-.09,2.15-.24,3.23-.26a16.69,16.69,0,0,0,2.9.09c1.15-.24,2.22-.65,3.39.52.54,2,.09,4.19.22,6.27-1.29,1.44-2.86.38-4.33,1l-.62,1.14a10,10,0,0,0,7.1-.08c-.1-1.64-.56-3.21-.16-4.48s-.35-2.6.25-4.05c1.76-.59,3.7-.24,5.57-.46a23.81,23.81,0,0,1,5.9.3,6.08,6.08,0,0,1,.25,1.27c0,1.9-.1,3.81-.15,5.47-1.44,1.3-2.66-.23-4.07.22,0,.57-.1,1.11-.16,1.81,2.19.65,4.26.38,6.45.27.61-1.56.31-3.06.38-4.51s0-3,0-4.17c.73-.94,1.49-1,2.11-.65,1.07.64,1.93-.54,2.9-.19a4.62,4.62,0,0,0,2.83.09,5.1,5.1,0,0,1,3.67.12c.19.36.42.61.43.87a30.9,30.9,0,0,1-.1,6.36l-1.76.47c-.36-.47-.71-.92-1.05-1.38a2.2,2.2,0,0,0-1.13,2.77c2,.77,4.08.52,6.35.05.94-2.9-.19-5.92.45-9a9.75,9.75,0,0,1,1.92-.32c3.11.1,6.25-.45,9.22.28.81,2,.39,3.88.39,5.71a3.14,3.14,0,0,1-.56,1.33c-1.29,1-2.83,0-3.82,1.12l.26,1.06a31.67,31.67,0,0,0,5.83-.08c1.13-3,0-6.06.66-8.88.5-.78,1.25-.74,1.95-.73,3.13,0,6.26,0,9.55.1a18.42,18.42,0,0,1,.29,6.47c-1.16,1.42-2.65.39-4,1.18l-.13,1.38c.36.22.59.49.84.5a31.42,31.42,0,0,0,5.66,0,35.56,35.56,0,0,0,.15-4.55c.06-1.48.12-3,.17-4.48.44-.21.81-.54,1.18-.55,3.14,0,6.28,0,9.36,0,1.3,3.12,1.33,3.48.51,6.83-1.19.43-2.39.87-3.34-.57l-.05.08,2.62-2.19c-.06-.75-.11-1.31-.16-1.79-.41-.15-.72-.4-.89-.32a7.63,7.63,0,0,1-3.76.67c-.83,0-1.66,0-2.25,0-1,.93-.42,2-.78,2.71-.5,1-.17,2-.06,3a19.51,19.51,0,0,1,0,2.52,2.78,2.78,0,0,1-2.26,1.35c-1.71.41-6.92.15-9.5-.34a8.92,8.92,0,0,1-.25-1.6,34.47,34.47,0,0,1,.22-5.42c.69-.15,1.22-.3,1.76-.36s1.14-.06,1.67-.09c.45-.44.92-.84.1-1.67a52,52,0,0,0-5.81.06c-.72,3.07,0,6.06-.44,8.92-6,1-9.11,1-11.76-.23a17.7,17.7,0,0,1,0-5.94c1.45-1.83,3.28-.14,4.86-1l-.33-1.72-6.54-.64c-.77,1.45.22,3,0,4.57a38.81,38.81,0,0,0,0,4.6c-.72.36-1.32.91-1.93.91-2.55,0-5.12.52-7.66-.28-.58-.18-1.31.17-2.12.3-.67-2.18-.33-4.24-.24-6.28,0-.37.45-.72.68-1.07,1.41-.38,2.8.88,4.28-.12L324.65,190a25,25,0,0,0-6-.12c-.76,1.51-.29,3-.39,4.46s0,3,0,4.63a8.91,8.91,0,0,1-2,.57c-3.13.05-6.27,0-9.62,0a20.66,20.66,0,0,1-.36-2.22c-.05-1.48,0-3,0-4.19,1-1.22,2.05-.71,3-.84a2,2,0,0,0,1.84-1.2l-.6-1.46c.33-.07.93.05.43-.63Zm-16,4.18.14-.24-.2,0Zm67.79-5.56.23.16,0-.26Z"/><path class="cls-1" d="M643.29,182.27a29.86,29.86,0,0,1-3.06.36c-6.72,0-13.45-.06-20.17,0-5.14,0-10.28.29-15.42.28-1.68,0-3.36-.37-5,.12-3.65-.74-7.28.12-10.92.15-.28,0-.58.19-.83.12-2.49-.69-5-.26-7.44.1-1.3.2-2.4-.78-3.74-.3s-2.58-.61-4.08.07c-1.22.55-2.84,0-4.25.23-2,.27-3.87-.51-5.89-.16a40.47,40.47,0,0,1-6.43.14c-2,0-4,0-6,0s-4,0-6,0l-16.75.06a14.07,14.07,0,0,1-3.8-.42c-1-.28-2.2.29-3.31.28a13.16,13.16,0,0,1-2.53-.56,7.18,7.18,0,0,1-2,.59c-1.84,0-3.69-.16-5.54-.16s-3.6.18-5.41.21a2,2,0,0,1-.89-.32,31.69,31.69,0,0,1-3.67.45q-16.09.06-32.19,0a13.23,13.23,0,0,1-2.3-.47c-2.62.62-5.48,1.55-8.51,1l-.84-1c-2.33,2.51-5.28.55-7.92,1s-5.42.11-8.23.11L438.11,183l-.9,1c-1.15.41-1.2-1.08-2.25-1.29l-2.25,1.59a66.69,66.69,0,0,1-8.21-.08c-2.71-.33-5.33.55-8,.15s-5.7.53-8.23-.41a24.38,24.38,0,0,1-3.56.4c-4.27-.12-8.57.56-12.82-.41-.48-.11-1.06.3-1.61.36-1.27.13-2.57.33-3.72-.52-2.33,1.2-4.79.48-7.19.52s-4.86,0-7.35,0l-1.72-1.16c0-.88.27-.89,2.37-.06,1.18-.37,2.42-1.17,3.57-1.05,2.31.25,4.49-.44,6.77-.42,9.73.07,19.46,0,29.19-.06h.43c1.77,0,3.49.47,5.34.1s4-.07,6-.07h5.58c2,0,4,0,6,0s3.72-.06,5.58-.08,4-.06,6-.07,3.73.05,5.59,0c1,0,2-.4,2.91-.15s1.65-.17,2.46-.31,1.73,0,2.56-.18c1.43-.29,2.73.64,4.21.24a16.89,16.89,0,0,1,3.84-.21c1.43,0,2.86,0,4.3,0a17.2,17.2,0,0,1,4.67.39c1.86.52,3.79-.17,5.7-.22,3.13-.08,6.24-.25,9.39,0,2.52.19,5.09-.2,7.63-.21,12.6-.05,25.21-.05,37.81-.09,6.3,0,12.6-.19,18.89-.08,1.67,0,3.33-1.19,5,0,1.5-.19,3-.49,4.51-.55s3.13.38,4.62.1c1.27-.23,2.34.86,3.74.07,1-.57,2.51-.24,3.8-.26s2.57,0,3.86,0h55.44c1.58,0,3.18-.1,4.52,1C642.88,181.13,643,181.63,643.29,182.27Z"/><path class="cls-1" d="M80.85,198.63H78.58l-.4-3.72a12,12,0,0,1,2.75-.68,12.67,12.67,0,0,1,2.77.54,2.63,2.63,0,0,0-1.2-2.36,34.54,34.54,0,0,0-6.18.05c0,2.41.1,4.6.12,6.79a12.33,12.33,0,0,1-.19,1.56c-.44.26-.68.53-.91.53-3.43,0-6.86,0-10.5,0a11.75,11.75,0,0,1-.44-2c-.07-1.49,0-3,0-4.69l4.13-.86v-.89c-.3-.17-.54-.42-.79-.43-1.28-.05-2.57-.07-3.86-.05a16.81,16.81,0,0,0-1.72.18c-.41,2.83-.06,5.5-.35,8.31-3.73,2.12-7.63.73-11.54,1.07a26.53,26.53,0,0,1-.25-7.34l4-.84-.32-1.22a20.25,20.25,0,0,0-5.43.08c-.64,3,.11,5.81-.39,8.33A3,3,0,0,1,45,202.17c-6.36.18-7.19.12-9.33-.87.07-1.11.16-2.28.23-3.44s.1-2.05.15-3c3.51-1,3.51-1,4-1.8-2.63-.73-2.63-.73-6.37-.09-.53,2.83.25,5.82-.37,8.92-3.88.76-7.66.11-11.56.27a13.48,13.48,0,0,1-.33-2.07c.07-1.76-.2-3.55.33-5.52l4.71-.59-.92-1.35c-2-.58-4,.06-6.15-.16-.12,1-.28,1.81-.31,2.65-.08,2.2.14,4.42-.14,6.56a6.85,6.85,0,0,1-1.47.49c-3.29,0-6.59,0-10.08,0a10.41,10.41,0,0,1-.49-2.08c0-1.62.06-3.25.1-5.07L11,193.78l-.32-1H5.79c-.76.56-.65,1.34-.65,2.06q0,3.36,0,6.7a5.92,5.92,0,0,1-4.4.64c-1-.9-.66-1.81-.71-2.85L2,198.47a2.4,2.4,0,0,0,.35-.79c.05-1.78.05-3.58.1-5.37,0-.71.13-1.43.19-2.08a26.5,26.5,0,0,1,10.69-.14c1,3.46,1,4.29.12,7.38l-3.76.46c1.48,1.82,2.77,1.89,6.4.48.67-2.64-.09-5.52.49-8.2a32.87,32.87,0,0,1,11.5-.14c.12.25.35.5.36.75a31.71,31.71,0,0,1-.12,6.17c-1.79.72-1.8.74-3.91.17L24.12,199a7.12,7.12,0,0,0,6.39-.56c.69-2.62,0-5.49.55-8.38a8.41,8.41,0,0,1,1.72-.36c3.26.09,6.53-.38,9.94.18.47,2.22.13,4.29.21,6.18-1,1.89-2.8,1.13-4.21,1.61.94,1,.94,1,3.75,1.65l1.83-.77c.19-.38.42-.63.43-.89,0-1.79,0-3.58.05-5.37,0-.72.1-1.43.14-2,.5-.31.74-.59,1-.59,3.43,0,6.86,0,10.51,0a12.25,12.25,0,0,1,.44,2.06c.07,1.49,0,3,0,4.29-1.07,1.73-2.88.36-4,1.42v1a19.73,19.73,0,0,0,6.11.14,16.93,16.93,0,0,0,.34-2.12c0-2.08,0-4.15,0-6,.44-.42.65-.78.85-.78,3.56,0,7.12,0,10.82,0,.81,2.2.33,4.4.36,6.41-1.12,1.62-2.93.22-4,1.34l.07,1c1.9.65,3.89.08,6.08.2a14.33,14.33,0,0,0,.33-2.07c0-2.08,0-4.17,0-6.47l3.4-.86h8c.18.46.65,1.05.54,1.49a7.42,7.42,0,0,0,.1,2.62,22.22,22.22,0,0,1,0,2.75,2.16,2.16,0,0,1-2.24.75,9.09,9.09,0,0,1-1.55-.42c-1,.43-1.06,1.35-1.2,2.24Z"/><path class="cls-1" d="M610.13,189.4l-.48-1.19c-2.1-.49-4.19-.18-6.26-.15-.84,1.41-.49,2.77-.51,4.07s0,2.68,0,4.09a4.81,4.81,0,0,1-3.88,1.43,37,37,0,0,0-6.32-.07c-.48.07-1-.39-1.57-.62a22.5,22.5,0,0,1-.13-6.53c1.12-1.13,2.38-.39,3.56-.84l.57-1.1c-1.91-.85-3.72-.44-5.48-.4a4,4,0,0,0-1,3.36,14.62,14.62,0,0,1-.24,5.78c-3.56,1-7.22.32-10.61.37-1.37-1.21-.67-2.46-.74-3.59s0-2.36,0-3.75l4-.86c.34-1.46-1.25-1.2-1.5-2.12.07-.56.14-1.11.21-1.64a4.55,4.55,0,0,1,3.67-.15,2.68,2.68,0,0,1,.55,2.25c0,1.47-.1,2.93-.15,4.12-1.3,1.34-3.62-.1-4.06,2.32,1.86.86,3.77.72,5.6.76l.92-1.19c-.22-2.77-1.25-5.56.33-8.4,3.52-.41,7.06,0,10.34-.1a2.11,2.11,0,0,1,.94,2.14c0,1.48,0,3,0,4.2-1.17,1.75-3,.3-4.18,1.49.14.33.2.82.47,1,1.06.91,2.42.46,3.64.69.71.13,1.55-.53,2.46-.88v-8.33a11.66,11.66,0,0,1,2.16-.44c3.13,0,6.25,0,9.47.05.89,2.34.26,4.51.39,6.35-1.25,1.54-2.78.36-3.83,1.18-.66.86-.09,1.36.63,2.05l5.36-.8c.67-2.79,0-5.66.55-8.3a16.46,16.46,0,0,1,8.14.07c1.71-.62,1.71-.6,3.23-.27.13.25.38.51.38.76,0,1.9-.1,3.79-.15,5.62-1.35,1.21-2.69.18-4.19.18l-.48,1.67c2.23.9,4.3.46,6.56.29.51-2.93-.05-5.78.44-8.58,3.82-1,7.53.21,11.25-.85a8.61,8.61,0,0,1,.59,1.93c0,1.77,0,3.54,0,5-1.26,1.62-3.08.16-4.12,1.46l.33,1h4.56c1.23.68,1.75,1.3,1.48,2.35-2.44.81-4.56.87-9,.18a28,28,0,0,1-.12-6.26c1.25-1.22,2.7-.28,4-.87v-1.09c-.72-.65-2.06-.67-6-.19-.69,1.35-.32,2.87-.42,4.32s-.06,2.63-.09,4.15c-3.94.9-7.73.19-11.49.35a6,6,0,0,1-.48-1.55,25.44,25.44,0,0,1,.14-5.06c1.43-1.28,3-.24,4.4-1l.07-1.39a23.17,23.17,0,0,0-6,0c-.77,1.51-.39,3-.49,4.47s-.06,2.64-.08,3.93c-3.52,1.76-7.16,0-10.5,1.14l-1.28-.75a25.4,25.4,0,0,1-.15-6.46C606.91,189.21,608.62,190.17,610.13,189.4Z"/><path class="cls-1" d="M230.4,197.8v-6.71l.94-.46-.05-.06,1,1.44c1,2.18.5,4.68.74,6.77-.69,1.29-1.47,1.68-2.37,1.53a36.72,36.72,0,0,0-4.57-.05c-1.51,0-3,0-4.72,0a7.08,7.08,0,0,1-.47-1.69c-.06-1.77,0-3.55,0-5.21,1.4-1.35,2.74-.86,4.24-.28l.12-2c-2.11-1-4.21.08-6.37-.63a19.31,19.31,0,0,1-.64,3.37c-.45,1.14.75,2.34-.25,3.38.21.95.91,1.91,0,2.85-.93.46-1.16-.46-1.63-.93l-1,1.22H207c-.8-1.33-1.1-2.48.27-3.51l.24.34-.32-.25c-.3-1-.59-1.94-.87-2.85,1.22-1.46,2.72-.88,4.24-1.37l.77-1.86c-2.13-.25-4.22.22-6.07-1.35L204,190.81c-.06,3.15-.12,6.09-.18,9.2-3.72.8-7.24.48-10.61.39-1.14-1.17-.54-2.42-.65-3.54a27.43,27.43,0,0,1,0-2.85c1.24-1.47,3.08,0,4.13-1.56-.1-.33-.21-.73-.38-1.28-1.93-.53-3.83-.95-5.84.21-.63,2.81,0,5.66-.45,8.66a8.1,8.1,0,0,1-1.91.48c-3.14,0-6.28,0-9.45,0-1.11-2.31-.2-4.54-.68-6.32,1.31-1.75,3.11-.36,4.2-1.57l-.21-1a18.12,18.12,0,0,0-6-.09c.06,3,.83,5.95-.86,8.75-1.77.55-3.65.14-5.48.23s-3.38-.07-4.91-.11c-.28-.51-.51-.74-.53-1a34.45,34.45,0,0,1,.11-5.51,3.3,3.3,0,0,1,2.7-.46,1.51,1.51,0,0,1,.48,2.27c-.44.76-1.08,1.43-.33,2.35.25.1.56.35.75.28,1.73-.62,3.65.1,5.53-1,.53-2.62.14-5.39-.11-8.16a2.65,2.65,0,0,1,2.67-1.08c2.79.93,5.54,0,8.58.14a10,10,0,0,1,.44,1.88c.07,1.77,0,3.54,0,5.54l-4.44.66.77,1.87c1.07-.15,2-.32,3-.43s1.69-.11,2.41-.15c1-.94.62-2.05.71-3.05.18-2-.3-4.12.24-6.08a29.2,29.2,0,0,1,11.13.07c.79,2.57.8,2.68.25,7.13l-4.63.46.88,1.32c1.86.45,3.67.12,5.56.25.63-1.9.28-3.55.44-5.13s-.45-3,.42-4.38c2,0,4,.46,6.07-.15,1.56-.46,3.36,0,5,0,.74,2.63.73,2.63,0,4.81.35.8.92,1.57.07,2.74l-3.19.43-.49,1c.3.23.52.56.74.56,1.83,0,3.66,0,5.69,0,.45-3.13,0-6.11.36-9.26a9.75,9.75,0,0,1,2-.42c3.13,0,6.27.07,9.59.12a18.39,18.39,0,0,1,.18,6.56c-1.56.69-2.93,1.42-4.74.83-.23.63-.47,1.26-.82,2.23l8.38.06.26.37Zm-64.93-.46h.24v-.94h-.24Zm37-.19-.14.25.21,0ZM231.74,193l.14-.22-.24,0Zm-5.16-2.7.13-.25-.2,0Z"/><path class="cls-1" d="M.06,188.34v-2.69A8.58,8.58,0,0,1,2,185.16c6.59,0,13.18,0,19.76,0,4,0,8,0,12-.06,1.42,0,2.84-.24,4.26-.38.42,0,.87-.28,1.26-.19,3,.7,5.94-.28,8.92-.09s5.7.26,8.55.29c1.41,0,2.83-.28,4.23-.25,5,.11,10-.41,15,.36,1.35.21,2.81-.36,4.22-.38q19.74-.15,39.5-.23c6,0,12,.14,18,.15,3.7,0,7.43.26,11.08-.49,2.53-.52,5-.1,7.57-.22s5.37-.17,8.05-.08c1.42,0,2.83.25,4.25.35a8.88,8.88,0,0,0,2.9.08,12,12,0,0,1,6.73,0,6.26,6.26,0,0,0,2.46-.36c1.11.9.34,1.47-.57,2.25-1,.08-2.3.3-3.57.28-3.28-.06-6.55-.23-9.83-.34a6,6,0,0,0-1.2,0c-1.39.22-2.72.68-4.18-.07-.57-.29-1.56.44-2.36.46-2.55.06-5.13-.36-7.63.55-1.87-.54-4,0-5.66-1.29-.4.18-.93.61-1.16.48-1.84-1.07-3.92,1.69-5.5-.62l-1.23,1.38a8.3,8.3,0,0,1-2.27.1c-1.53-.32-3-.73-4.53,0a2.18,2.18,0,0,1-1.67-.14c-1-.51-1.94-.13-2.91-.07-4.39.29-8.78.73-13.18,0-3,1.12-6.07-.73-9.1.32a9.63,9.63,0,0,1-3,.12L87.1,187a8.53,8.53,0,0,1-3.81-.35,3.25,3.25,0,0,0-1.61,0c-6,.8-11.94.4-17.9.51-3.58.07-7.16-.14-10.74,0-2.13.06-4.26.22-6.4.44a36.5,36.5,0,0,1-11.52-.14c-1.49-.32-3,.37-4.54-.24a5.7,5.7,0,0,0-4.6.47,1.28,1.28,0,0,1-.84.09c-2.67-.66-5.32.22-8,.15-4.72-.11-9.45,0-14.17.1C2.13,188,1.29,188.2.06,188.34Z"/><path class="cls-1" d="M80.78,198.69l6.53-.16c1-3-.16-6.07.71-8.83,2.41-1,4.14-1.07,11-.59.85,2.29.88,3,.27,7.48l-3.34.47-.4,1.21a19,19,0,0,0,6.06.15c.85-1.45.38-3,.49-4.41.12-1.59-.24-3.23.33-4.95,3-.35,5.81-.1,8.64-.19a2.58,2.58,0,0,1,2.19.47c.9,1.93-.11,4.26.75,6.11a1.84,1.84,0,0,1-1.82,1.31,11.49,11.49,0,0,0-2.13.17c-.28.07-.45.61-.82,1.17a14.62,14.62,0,0,0,6.57.2c.37-3.11.15-6.06.35-8.91,2.4-.71,7-.79,11.48-.26.66,2.85.66,3.58,0,7.13a14.35,14.35,0,0,1-1.49.05c-.56,0-1.12-.13-1.58-.19-.84.57-.91,1.21-.41,2.17,2,.28,4.07.66,6.2-.88.37-2.62-.07-5.47.48-8.06.46-.25.7-.49.94-.5,3.42,0,6.84,0,10.35,0,.11,1.11.21,2.07.31,3-1.57.7-3-.31-4.43-.25s-3.15,0-4.8,0c-1.08,2.91.77,6-.28,8.83-2.57,1.09-6.07,1.22-11.33.45-.14-.25-.38-.48-.4-.74-.21-2.06,0-4.12-.06-6.26H125c1-1.28.42-2-.58-2.86-1.59.76-3.45.28-5.41.86-.62,2.86.17,5.86-.38,8.72-2.65,1-5.42,1.11-11.62.45-.64-2.1-.25-4.26-.2-6.14,1.15-1.54,2.72-.38,4-1.44l.1-1.6a15.56,15.56,0,0,0-2.2-.32c-1.12,0-2.24.11-3.43.18-.76,1.55-.34,3.06-.41,4.5s0,3,0,4.62a9.86,9.86,0,0,1-2.12.52c-2.72.06-5.44,0-8.16,0a8.37,8.37,0,0,1-1.43-.29,23.56,23.56,0,0,1-.16-6.31c1.24-1.21,2.71-.38,3.78-1l.35-1.09c-2.13-.86-4.22-1.38-6.44-.08-.74,2.67.16,5.39-.42,8.26a7.57,7.57,0,0,1-1.86.49c-2.71.06-5.44,0-8.15,0a9.34,9.34,0,0,1-1.61-.28c0-1.75,1.86-1.37,2.27-2.52Z"/><path class="cls-1" d="M158.79,197.75c.5-3.13-.12-6,.48-8.84,3.85-.6,7.53.2,11.17-.29,1.23,2.34.32,4.57.58,6.8a6.48,6.48,0,0,1-1.24.46c-.24,0-.52-.17-.9-.31l1.35-2.21-.18-1.23c-.27-.2-.48-.48-.72-.51-1.55-.2-3.11-.34-5-.53l-2.24.64a3.85,3.85,0,0,0-.37,1.13c-.07,2.36-.09,4.73-.13,7.2-3.89,1.32-7.65.64-11.55.43a16.66,16.66,0,0,1-.3-6.47c1.11-1.13,2.36-.52,3.54-.87l.63-1.19a13.29,13.29,0,0,0-6.54-.26c-.67,2.8.22,5.65-.49,8.5-3,1.81-6.4.79-9.6,1a5.53,5.53,0,0,1-2-.67c.17-1.08.29-1.94.46-2.79s.32-1.42.52-2.27l-1-.87,1.27-.81h3.35a1.26,1.26,0,0,1-.3,1.92,3.58,3.58,0,0,0-1.77,2.37c.34.63.63,1.3,1.57.81a4,4,0,0,1,3.7.2,2.67,2.67,0,0,0,1.42-2.54c0-2.46.14-4.92.21-7.39a6.67,6.67,0,0,1,1.4-.37c3.28,0,6.56,0,10.06,0a15.56,15.56,0,0,1,.38,2.12c.06,1.48,0,3,0,4.19-1.23,1.62-3,.51-4.11,1.33l.08,1.18C154.48,198.12,156.45,197.81,158.79,197.75Z"/><path class="cls-1" d="M321.58,183.37l-1,1.62a6.83,6.83,0,0,1-5-.62c-.15-.17.11-.91-.51-.39l.58.32c-.46.29-.91.84-1.37.84-3.42.06-6.84,0-10.26,0-.4,0-.85-.42-1.17-.32-2.38.8-4.75.38-7.13.07-.94.73-1.8-.67-2.85,0a5.14,5.14,0,0,1-2.5.41c-3.57.07-7.14.05-10.71.11-1.4,0-2.8.14-4.49.24l-1.19-.79c-2.58.7-2.58.7-5,0l-4.62,1-3.05-1.24-1.55.87-5-.37-.77.7c-.84-.33-1.14-.93-1-2a20.91,20.91,0,0,1,2.35-.4c2.12-.12,4.28.32,6.36-.49.13-.05.31-.12.41-.07,2.54,1.26,5-.09,7.54-.1,1.38,0,2.76.51,4.15.53,1.24,0,2.54-.66,3.7-.43a19.83,19.83,0,0,0,5.39-.1c2.56-.15,5.14,0,7.72-.11,2.81-.08,5.6.39,8.44.08a87.1,87.1,0,0,1,9-.07l8.58,0c1.71,0,3.43-.09,5,.93Z"/><path class="cls-1" d="M193,183.52l1.66,1.41,1-1.09a4,4,0,0,1,1.06-.29c15.87-.38,31.73-.05,47.57-.17l.78,1.36c-2.52,1-4.88,2-7.44.55l-2.82.81c-.5-.5-.9-.89-1.31-1.28-2,.81-3.92,1.75-6.09.75-1.88.34-3.78-.42-5.7.35-1,.4-2.25.07-3.63.07l-.92-1.3-2,1.43c-2.74-.93-5.64-.15-8.54-.07-3.85.1-7.71,0-11.57,0-1.65,0-3.31-.36-4.95-.25a33.61,33.61,0,0,1-5,.35c-.83-.08-1.67-.09-2.65-.14l-.15-1.9C185.87,183.21,189.4,183.62,193,183.52Z"/><path class="cls-1" d="M231.34,190.63l-.42-2.47a9.38,9.38,0,0,1,5.52-.09c1.88.5,3.63-1.16,5.68.45.5,1.71.29,3.87.14,6.14-1.54.76-3.22.19-4.74.85a13.9,13.9,0,0,0,.14,1.82,16.19,16.19,0,0,0,.56,1.82l-1.17,1.41-2.16-1.08c0-1.91-.36-3.67.37-5.3,1.26-1.47,3.8-.71,4.61-3.14-2.94-.93-5.8-.2-8.58-.47Z"/><path class="cls-1" d="M368.87,183c0,.47-.05,1-.09,1.7-2-.21-3.77-.38-5.57-.59a3.25,3.25,0,0,1-.76-.3c-.61.38-1.21.77-2,1.27-1.71,0-3.57,0-5.42,0s-3.73.43-5.49-.54a7.2,7.2,0,0,1-5.43-.13c-.47-1,.59-1.26,1.25-1.85a9.73,9.73,0,0,1,1.19-.17c4-.12,7.94-.11,11.89-.35,2.09-.13,4.17.15,6.27-.25C366.09,181.54,366.31,181.79,368.87,183Z"/><path class="cls-1" d="M249.35,189.67c-.27,1.16-1.4.76-2.28,1.37-.18.61-.41,1.43-.67,2.36.17.88.42,1.86.52,2.84a26.38,26.38,0,0,1,0,2.67,4.91,4.91,0,0,1-3.47,1.45c-1.26.08-2.53,0-3.51,0-1.45-1-1.08-1.85-.54-2.85l4.74-.28c.05-3,.1-5.89.15-8.65,1.19-1.06,2.36-.56,3.44-.65.56.61,1.11,1.22,1.67,1.82Z"/><path class="cls-1" d="M321.64,183.47c.16-.23.29-.61.49-.66a7.19,7.19,0,0,1,2.1-.29c1.67.08,3.34.4,5,.39,1.84,0,3.68-.35,5.52-.43s3.44,0,5.15,0c.57,0,1.14.05,1.62.07.83.51,1,1.15.5,2.15l-7,.49-1-1.14-.94.88c-1,.28-1-.84-1.63-1.19l-1.89,1.3h-6.41l-1.63-1.7Z"/><path class="cls-1" d="M246.75,183.51c1.72-.08,2.83-.14,3.95-.16a3.35,3.35,0,0,1,.89.32c.06.3.14.67.27,1.25l-4.75,1Z"/><path class="cls-1" d="M142.16,193.52a1.54,1.54,0,0,1,0,2.23c-.91,0-1.11-.54-1-1.34A.88.88,0,0,1,142.16,193.52Z"/><path class="cls-1" d="M.71,195.18l-.22.29c-.08-.26-.18-.53-.25-.8,0,0,.16-.11.25-.16C.56,194.73.64,195,.71,195.18Z"/><path class="cls-1" d="M520.33,191.46l-.47-.42c.1,0,.24,0,.28.09a1.77,1.77,0,0,1,.12.41Z"/><path d="M319.68,1l1-.94.72.71c1.1.35,2.18.57,3-.58a1.16,1.16,0,0,1,.41-.16h5.49l1.09.9,1-.87h4.83l.69.62a2.74,2.74,0,0,0,.83.32c1.14,0,2.28,0,3.39,0l1.06-1,1,.07c.39.4.39.4.42,2.31.3.33.62.69,1,1.07v7.77l-.95,1,.7.7a3.73,3.73,0,0,1,.24.88c0,10.91,0,21.82,0,32.63-.21.21-.31.37-.45.43a1,1,0,0,1-.46.06H300.21c-.12,0-.24-.18-.47-.36V1.39c.17-.18.27-.37.4-.39a6.39,6.39,0,0,1,1,0ZM303.56,5V40.55a7.85,7.85,0,0,0,0,1c0,.14.19.25.3.37L304.94,43h35.41c.18-.21.37-.33.37-.45q0-18.31,0-36.62a1.32,1.32,0,0,0,0-.49c-.06-.13-.23-.22-.47-.43Z"/><path d="M406.28,39.63l-1.43,1.42H373.51L372,39.65V26.91l-.92-.93V23L372,22c0-5.11,0-10.32,0-15.53,0-.12.18-.24.36-.47h33.48c.16.16.36.26.38.39a8,8,0,0,1,0,1Zm-4-29.84h-18c-.35-.34-.71-.67-1-1-1.05-.38-1.38.68-2.08,1-1,0-2-.07-2.93,0s-2.26-.5-3.25.44V24l.95,1v3.88l-.94,1v5.88l1.43,1.44h25.38c.12,0,.25-.2.46-.38Z"/><path d="M274.2,25.94l-.68.68c-.1.12-.27.25-.28.37,0,5.53,0,11.07,0,16.55a2,2,0,0,1-.41.39.91.91,0,0,1-.44.09h-36.2a4.78,4.78,0,0,1-1-.28V5.26c.67-.71,1.54-.2,2.29-.37l1.05,1,.69-.69c.5-.33,21.72-.44,33.61-.17a1.56,1.56,0,0,1,.33.35,1,1,0,0,1,.07.46V24.9ZM238,9.29V38.57a7.81,7.81,0,0,0,0,1c0,.14.18.25.27.37L239.4,41h14.84l.78-.78h3.68l2.08,1L262,40.11h5.82c.65,0,1.3,0,1.95,0,.12,0,.24-.2.44-.38V16.12l-.81-1,.78-.79V9.16L267.73,8l-.91.72H248.53l-1.9-1.07-1.26,1.09-1-.9c-1.06.09-2.21-.35-3.2.26l-.72.65-1-.88Z"/><rect x="241.29" y="11.83" width="26" height="26"/><rect x="307.29" y="8.83" width="30" height="30"/></g></g></svg>