<svg xmlns="http://www.w3.org/2000/svg" viewBox="0 0 856.45 717" preserveAspectRatio="none"><title>Contacto_marco</title><g id="Layer_2" data-name="Layer 2"><g id="textos"><path d="M443.88,6.82c.57.59.74.92.92.92,13.19,0,26.38,0,39.89,0L487,6.17a24.6,24.6,0,0,0,2.51,1.41h25.7a11.68,11.68,0,0,0,1.62-1.11c1.58-.57,3.31,1.86,3.31,1.86h5.1a2,2,0,0,1,.14,3H459.21a9.08,9.08,0,0,0-1.93,1c-.43-.35-1.59-1-1.59-1h-4.52a16.31,16.31,0,0,0-1.54,1.14A20.4,20.4,0,0,1,448,10.61H410a21,21,0,0,1-1.63,1.89c-.42-.42-1.29-1.14-1.29-1.14h-4.9l-1.21,1.52H373.17l-1.3-1.52h-4.61l-1.59.76H176.61a21.42,21.42,0,0,1-1.65,2L173.89,13a4.91,4.91,0,0,0-1.34-.41c-2.79,0-5.57,0-8.16,0L162.68,14c-.46-.46-1.3-1.12-1.3-1.12h-4.66l-1.59,1.51h-3.84l-1.71-1.51H94.16a16.25,16.25,0,0,0-1.57,1.18L91,12.63a16.69,16.69,0,0,0-1.3,1.76H77.16L76,12.88H43.63l-1.3,1.43-1.59-1.5-1.59,1.58H2.6c-1.3-.94-.49-2.33-.86-3.51L3.27,9.1.37,6l2.19-2.2H45.19l1.68-1.56,1.59,1.43,2-1.73L53.2,3.47l1.48-1.2H66.29L68,3.79h36.77l1.59-2.27h7.58a23.66,23.66,0,0,0,1.91,2.13c.78-.38,3.21-1.38,3.21-1.38h22.32L143,3.79H173.4L175,1.52h3s1.34,2.62,3.47,1.46c.08-.07,1.17-.71,1.17-.71h35.07a6.14,6.14,0,0,1,1.45,1.08c1.83.25,4.06-.08,6.14.1a12.89,12.89,0,0,1,1.47-1.18H421.92S423.41.75,424.21.08L426.7,1.6c.59-.38,1.34-.87,2.37-1.52l2.43,1.83c1.31.42,2.8-1.91,2.8-1.91h4l1.74,1.52h38.61L480,.08l1.6,1.39L483.2,0h32l1.58,2.27H527l.69,1.81c-4,2.45-4,2.45-6.82,2.38L519.75,5.3H472.68a27.37,27.37,0,0,0-2.45,1.42c-.74-.51-2.54-1.42-2.54-1.42H465l-1.62,1.52H443.89c.23-.48,0-1-.2-1.52H423.52l-1.19,1.52H411.28A17.66,17.66,0,0,0,410,5c-.53.48-1.77,1.83-1.77,1.83H165.81s-1.21.7-1.65,1l-1.38-1.39c-4.49,0-9.05,0-13.61,0-.19,0-.38.28-1.25,1L146.76,8c-.18-.43-.58-1.17-.58-1.17H92.53L91.08,8.27H72.68a1.43,1.43,0,0,0-.69.21,14.65,14.65,0,0,0-1.37,1.36h31.13s.92-1.26,1.28-1.62l2.87,1.54a22.56,22.56,0,0,0,2-2.19h3a20.5,20.5,0,0,0,1.56,1.91A12.87,12.87,0,0,1,114,8.33h32.73c.19.48.39.95.62,1.52h30.79l1.21-1.52h6.46s.9.74,1.3,1.14a12.85,12.85,0,0,1,1.61-1.14h32l1.64,1.52h7.34l1.67-1.5q102.72,0,205.29,0A5.12,5.12,0,0,0,438,7.89c.34-.35.69-.72,1-1.07ZM71.4,6.82H48.48c-1.77,0-3.54-.11-5.3,0-1.54.12-3.32-.74-4.64.77l2.15,2.25,1.64-1.53c9.13,0,18.22,0,27.3,0C69.82,8.32,70,8,71.4,6.82Zm-52,2.1c6.82.86,6.82.78,8.15-.55-2-.84-4-.18-5.9-.35C21.22,8,20.78,8.34,19.38,8.92Zm-6.07-.37c-6.9-.61-6.9-.61-8.23.58,2,.85,4,.18,5.9.36C11.39,9.52,11.84,9.16,13.31,8.55Zm.69.2a3.26,3.26,0,0,0,4.62,0A3.28,3.28,0,0,0,14,8.75ZM510.41,3.19l1-.54c-.17-.17-.38-.5-.51-.48a5,5,0,0,0-1,.48Z"/><path d="M531.27,8.33H737.15l1.14-1.14c1.8-1,4.05.32,5.93-.91-.3-.37-.44-.72-.59-.72Q732,5.32,720.35,5.12l-1.91,1.55L716.82,5.3h-4.6L710.6,6.82H669.34l-1.59-2.27h-3l-1.6,1.51H529c-.18-.75-.36-1.46-.51-2.11,1.43-1.89,4.37.11,5.42-2.43H716.08S717.93-.21,719.61.4l1.59,1.48,1-1a5.1,5.1,0,0,1,1.39-.45c2.27,0,4.55,0,6.68,0l2,1.78,3-1.61c1.07-.18,3.89,1,3.89,1h38.42L779.17,0h35a22,22,0,0,0,1.59,1.89h18.28L835.16.81A4.87,4.87,0,0,1,836.5.38c3.29,0,6.58,0,9.79,0l2.32,2.33C847.87,3.35,846,5.3,846,5.3H833.35c-.1,1-.17,1.73-.24,2.41,1.77,1.4,3.71.44,5.52.72l1.73-1.61h4.4l2.29,2.29-.26,2.25h-9.58a10.25,10.25,0,0,0-1.35,1c-.18,0-.42,0-.53-.05-.39-.33-1.17-.91-1.17-.91h-58l-1.53,1.48-2.36-1.92-2.34,2H748.59l-1.31-1.52H719.69l-1.55,1.52h-7.79a16.92,16.92,0,0,0-1.3-1.76c-.52.45-1.63,1.76-1.63,1.76H699.1l-1.59-1.45c-.36.36-.72.71-1.07,1.07a4.92,4.92,0,0,1-1.35.39c-7.79,0-15.58,0-23.31,0-1-1.76-2.55-1.51-4-1.51l-2.68,1.7-2.33-1.5c-.87.35-1.41,1.91-2.92,1.3l-1.62-1.46c-.35.36-.71.71-1.07,1.07-8,.58-102.65.79-126,.27-.53-.54-1-1.11-1.61-1.6-1.72-1.45.61-1.18.78-1.82C530.33,9.14,530.61,9,531.27,8.33ZM819.58,6.47c.18.42.35.85.58,1.43,3.61,0,7.29,0,11,0,.18,0,.35-.33.63-.61,0-.58-.11-1.26-.16-1.88-1.78-.83-3.5-.33-5.15-.41l-1.59,1.48c-1.79,0-3.53,0-5.33-.17L819,5.05c-8.71,0-17.48,0-26.24,0-.1,0-.21.65-.37,1.19C801.55,6.29,810.57,6.29,819.58,6.47Zm-75.05.93c7.19.77,28.1.79,35.12.09l1.06-1,1.75,1.57,2.09-.66c-.12-.85-.22-1.54-.34-2.15H779.1a8,8,0,0,0-1.6,1l-1.4-1.39c-1.62,0-3.38,0-5.14,0a5.45,5.45,0,0,0-1.36.38,5.46,5.46,0,0,0-1.12,1.48H747.23a2,2,0,0,0-1.52-.33C745.5,6.51,745.32,6.77,744.53,7.4ZM785.6,5.87c3.77.66,3.76.62,4.71-.46C789,4.71,787.6,4.63,785.6,5.87Z"/><path d="M528.35,9.94l-1.56-1.33C528.13,7.58,528,8.76,528.35,9.94Z"/><path d="M405.07,710.62c-.56-1.09-.74-1.43-.92-1.43-13.19,0-26.38,0-39.89,0L362,710.76a28.42,28.42,0,0,1-2.51-2.41H333.79a17.54,17.54,0,0,1-1.63,2.11c-1.58.58-3.31-1.36-3.31-1.36H324.5l-.13-3.78h65.38a5.24,5.24,0,0,0,1.93-.79c.43.35,1.58,1.54,1.58,1.54h4.52s1-1.13,1.54-1.64a6.21,6.21,0,0,0,1.59.89H439a6.74,6.74,0,0,0,1.63-.88,19.07,19.07,0,0,1,1.3,1.63h4.89l1.22-1.51h27.77l1.3,1.51h4.6l1.59-2.27H672.34a6.49,6.49,0,0,0,1.65-.94l1.07,1.07a5,5,0,0,0,1.35.42c2.78,0,5.56,0,8.16,0l1.7-1.43a18.35,18.35,0,0,1,1.31,1.62h4.65l1.59-1.52h3.84l1.71,1.52H754.8s1-1.19,1.56-1.68l1.59,1.43c.4-.41,1.29-1.27,1.29-1.27h12.55l1.21,1.52h32.32l1.3-1.43,1.6,1.5L809.8,703h36.55c1.31,1,.49,2.34.86,3.51l-1.52,1.79,2.9,3.11-2.2,2.2H803.76l-1.68,1.55-1.58-1.42-2,1.73L795.75,714l-1.48,1.19h-11.6l-1.7-1.51H744.2l-1.6.76H735a6.51,6.51,0,0,1-1.92-1.13c-.78.39-3.21,1.88-3.21,1.88H707.58L706,713.65H675.55l-1.59.76h-3a2.72,2.72,0,0,0-3.46-.46c-.08.07-1.17,1.21-1.17,1.21H631.24s-.73-.85-1.45-1.57c-1.82-.26-4.06.08-6.13-.1-.51.5-1.48,1.67-1.48,1.67H427L424.74,717l-2.49-1.46L419.88,717l-2.43-1.78c-1.31-.4-2.06.71-2.8,1.46h-4l-1.74-1.52H370.27L369,716.6l-1.6-1.39-1.59,1.47H333.71l-1.62-1.52H321.37s-.48-1.37-.72-2c4.21-2.57,4.21-2.57,7.17-2.5a5.1,5.1,0,0,0,1.21.73h47.24a11.48,11.48,0,0,0,2.45-1.16c.74.51,2.54,1.91,2.54,1.91H384l1.62-1.51h19.46a1.85,1.85,0,0,0,.2,1.51h20.17l1.2-2.27h11A15.72,15.72,0,0,0,439,712a21,21,0,0,1,1.77-1.33h242.4s1.21-1.2,1.65-1.54l1.39,1.39c4.48,0,9,0,13.6,0,.2,0,.39-.28,1.26-1l1.16-.55c.17.44.58,1.68.58,1.68h53.64l1.46-1.46h18.39a1.3,1.3,0,0,0,.69-.21,12.94,12.94,0,0,0,1.38-1.35H747.21s-.93.75-1.29,1.11l-2.87-1.54a8.28,8.28,0,0,1-2,1.19h-3a6.4,6.4,0,0,1-1.57-.9c-.53.5-1.6,1.65-1.6,1.65H702.2l-.63-1.51H670.78l-1.2.76h-6.47a7.42,7.42,0,0,1-1.29-.88c-.53.48-1.62,1.63-1.62,1.63h-32l-1.63-1.51h-7.35l-1.67,1.5q-102.72,0-205.28,0a4.59,4.59,0,0,0-1.36.44l-1.05,1.07Zm372.48,0h22.92c1.77,0,3.54.1,5.3,0,1.55-.12,3.33.73,4.64-.77l-2.14-2.25-1.65,1.52c-9.13,0-18.21,0-27.3,0C779.14,709.11,779,709.41,777.55,710.62Zm52-2.61c-6.83-.85-6.83-.77-8.16.55,2,.85,4,.18,5.9.35C827.73,709,828.17,708.59,829.58,708Zm6.06.37c6.9.62,6.9.62,8.24-.58-2-.85-4-.18-5.91-.35C837.56,707.41,837.12,707.77,835.64,708.38Zm-.68-.2a3.27,3.27,0,0,0-4.63,0A3.27,3.27,0,0,0,835,708.18Zm-496.42,5.56-1,.54c.17.17.37.51.5.48a4.73,4.73,0,0,0,1-.48Z"/><path d="M317.69,709.1H111.8l-1.14,1.15c-1.8,1-4-.32-5.93.91.3.37.44.71.6.72q11.63.24,23.28.44l1.9-1.56,1.63,1.37h4.59l1.62-1.51h41.39l1.63,1.51h2.84l1.59-1.51H318.85s.34,1.35.49,2c-1.38,1.83-5.25,1.81-5.25,1.81H132.88s-1.86,2.73-3.53,2.12l-1.6-1.48-1,1.05a5.21,5.21,0,0,1-1.39.45c-2.28.05-4.56,0-6.68,0l-2-1.78-3,1.62c-1.07.18-3.89-1.25-3.89-1.25H71.37l-1.59,1.52H34.53L33,715.23H15L14,716.29a4.79,4.79,0,0,1-1.32.41c-3.23,0-6.46,0-9.61,0L.76,714.44l2.59-2.31H15.61c.09-1,.17-1.72.23-2.4-1.77-1.41-3.7-.44-5.52-.72-.57.52-1.15,1.06-1.73,1.61H4.19S2.74,709,1.92,708.2c.07-.6.26-2.88.26-2.88h9.57a4.75,4.75,0,0,0,1.35-.7c.18,0,.41,0,.52,0a12.14,12.14,0,0,1,1.17,1.4h58l1.53-1.47,2.36,1.92,2.35-2h21.33l1.3,1.51h27.59l1.55-2.27h7.79a14.48,14.48,0,0,0,1.3,2c.52-.45,1.63-1.25,1.63-1.25h8.32l1.6,1.45,1.07-1.07a4.76,4.76,0,0,1,1.34-.39c7.79,0,15.59,0,23.31,0,1,1.76,2.55,1.51,4.06,1.51l2.67-1.7,2.33,1.5c.87-.35,1.42-1.91,2.92-1.3l1.62,1.46,1.07-1.07c7.95-.59,102.66-.79,126-.27.54.53,1,1.11,1.61,1.59,1.72,1.46-.6,1.18-.78,1.83C318.63,708.29,318.35,708.44,317.69,709.1ZM29.37,710.47c-.17-.43-.34-.85-.58-1.43-3.61,0-7.28,0-11,0-.17,0-.35.33-.63.6.05.59.11,1.26.16,1.88,1.78.84,3.5.33,5.15.42l1.6-1.49c1.78,0,3.52,0,5.32.17l.51,1.24q13.08,0,26.24,0c.11,0,.21-.65.38-1.2C47.4,710.64,38.38,710.64,29.37,710.47Zm75.05-.94c-7.19-.77-28.1-.78-35.12-.08l-1.06.95-1.75-1.57-2.09.66c.13.84.23,1.54.34,2.64h5.11a9,9,0,0,1,1.6-1.53l1.4,1.4c1.62,0,3.38,0,5.14,0a5.64,5.64,0,0,0,1.36-.38,6.9,6.9,0,0,1,1.13-1h21.25a8.73,8.73,0,0,1,1.52-.17C103.45,710.42,103.63,710.16,104.42,709.53Zm-41.07,1.54c-3.76-.66-3.76-.63-4.71.46C60,712.23,61.36,712.3,63.35,711.07Z"/><path d="M320.6,707l1.56,1.33C320.83,709.36,320.94,708.18,320.6,707Z"/><path d="M7.45,410.82a4.68,4.68,0,0,1,.44,1.36q0,102.61,0,205.29l1.5,1.67v7.39l-.76,1.62v32a10.3,10.3,0,0,0,1.08,1.62A15.73,15.73,0,0,0,8.65,663v6.47l1.52,1.2v30.82l-1.52.62v8.49l4.55,2.48V699.9l1.51-1.71v-4.46l-1.51-1.59v-4.65a12.74,12.74,0,0,1,1.06-1.31l-1.43-1.7c0-2.6,0-5.38,0-8.16a5.36,5.36,0,0,1,.41-1.35l1.08-1.07a11.59,11.59,0,0,1-1.14-1.65v-189c-.58-.64-1.1-1.23-1.52-1.68V477l1.52-1.31V447.93l-1.52-1.22v-4.89a16.23,16.23,0,0,1,1.08-1.3,23.25,23.25,0,0,0-1.83-1.63V400.82a22.19,22.19,0,0,0,1.83-1.59,12.26,12.26,0,0,1-1.08-1.54v-4.52a15.49,15.49,0,0,1,1-1.58c-.56-.73-1.73-1.94-1.73-1.94V324.3a2,2,0,0,0-3,.14v4.32s-1.74,1.73-1.17,3.31A13.25,13.25,0,0,1,7.9,333.7v25.5l-1.81,2.53c.73,1,1.28,1.82,1.6,2.29,0,13.62,0,26.92,0,40.22,0,.18-.34.37-1.29.93v4.61Z"/><path d="M0,419.82l1.47,2.3L0,424.53l1.83,2.22V622.09a20.12,20.12,0,0,1,1.87,1.48c-.18,2.07.16,4.3-.1,6.13a15.44,15.44,0,0,1-1.77,1.45v35.08l1.41,1.16c1.15,2.13-1.41,3.47-1.41,3.47v3l1.51,1.59v30.6l-1.14,1.46q2.1,1.07,4.17,2.18v-7s1.44-.41,1.87-.58L7.71,701c-.68-.87-1-1.06-1-1.26,0-4.56,0-9.12,0-13.6l1.38-1.39a19,19,0,0,1-1-1.65V440.65s-1.4-1.24-1.89-1.77c.39-.39,1.13-1.3,1.13-1.3V426.53l-1.51-1.19V405.18a1.85,1.85,0,0,1,1.51-.2V385.57L4.87,384v-2.78s1.6-1.8,2.11-2.54a20.12,20.12,0,0,1-1.36-2.45V328.74l1.16-1.15c.07-2.82.07-2.82-2.38-6.82l-1.81.68V332.1L.32,333.69v31.78l1.47,1.73L.4,368.94l1.44,1.44v37.91L.32,410v4.72c.75.71,1.86,1.45,1.46,2.71Zm2.91-82.35.55,1-.55.54a4.68,4.68,0,0,1-.47-1C2.41,337.84,2.74,337.64,2.91,337.47Z"/><path d="M7.9,317.59V111.71l-1.15-1.14c-1-1.8.32-4-.91-5.93-.37.3-.71.44-.72.6q-.24,11.63-.44,23.28l1.56,1.9c-.4.47-.85,1-1.37,1.63v4.59l1.51,1.62v41.39l-1.51,1.63v2.84l1.51,1.59V319.83l-2.11.51c-1.89-1.43.11-4.36-2.43-5.42V132.79S.05,130.93.66,129.26l1.48-1.6-1-1a5.08,5.08,0,0,1-.46-1.38c0-2.28,0-4.56,0-6.69l1.79-2-1.62-3c-.18-1.07,1.05-3.89,1.05-3.89V71.28l-.76-1.59V34.44l1.45-1.55v-18L1.47,13.88a5.18,5.18,0,0,1-.42-1.32C1,9.33,1,6.1,1,3L3.32.67l2.3,2.59V15.52L8,15.75c1.4-1.77.44-3.7.72-5.52L7.14,8.5V4.1L9.43,1.81l2.25.26v9.59a8.34,8.34,0,0,0,.9,1.35c0,.17,0,.41-.05.52-.33.39-.85,1.17-.85,1.17v58l1.48,1.53L11.24,76.6l2,2.35v21.33l-1.52,1.3v27.59l1.52,1.55v7.79a17,17,0,0,0-1.82,1.3,12.53,12.53,0,0,1,1.06,1.63v8.32L11,151.36l1.07,1.07a4.76,4.76,0,0,1,.39,1.34c0,7.79,0,15.59,0,23.31-1.76,1-1.51,2.55-1.51,4.06l1.7,2.67-1.5,2.33c.35.87,1.91,1.42,1.3,2.92L11,190.68c.36.36.72.71,1.07,1.07.59,7.95.79,102.66.27,126-.53.54-1.11,1-1.59,1.61-1.46,1.72-1.18-.6-1.83-.78C8.71,318.54,8.56,318.25,7.9,317.59ZM6.73,29.28l1.43-.58c0-3.61,0-7.28,0-11,0-.17-.33-.35-.61-.63l-1.87.16c-.84,1.78-.34,3.5-.42,5.15L6.73,24c0,1.78,0,3.52-.17,5.32l-1.24.51c0,8.72,0,17.48,0,26.24,0,.11.65.21,1.2.38C6.56,47.31,6.56,38.29,6.73,29.28Zm.94,75.05c.76-7.19.78-28.1.08-35.12l-1-1.06L8.37,66.4l-.66-2.09c-.85.13-1.54.23-2.09.34v5.11a5.91,5.91,0,0,0,1,1.6l-1.4,1.4c0,1.62,0,3.38,0,5.14a5.64,5.64,0,0,0,.38,1.36,5.16,5.16,0,0,0,1.54,1.13v21.25a1.85,1.85,0,0,0-.39,1.52C6.77,103.36,7,103.54,7.67,104.33ZM6.13,63.26c.66-3.76.62-3.76-.46-4.71C5,59.91,4.9,61.27,6.13,63.26Z"/><path d="M10.2,320.51l-1.33,1.56C7.84,320.74,9,320.85,10.2,320.51Z"/><path d="M849.27,302.55a4.78,4.78,0,0,1-.44-1.36q0-102.61,0-205.3l-1.5-1.67V86.84l1.51-1.63V53.26s-1.27-1.09-1.76-1.62a18.25,18.25,0,0,1,1.76-1.29V43.88l-1.51-1.2V11.86l1.51-.63V2.75q-2.28-1.23-4.54-2.48v13.2l-1.52,1.71v4.46l1.52,1.59v4.65a17.37,17.37,0,0,0-1.75,1.3L844,28.89c0,2.6,0,5.38,0,8.16a5,5,0,0,1-.42,1.35l-1.07,1.07c.51.55,1.83,1.65,1.83,1.65v189l1.51,1.68v4.56l-1.51,1.3v27.77l1.51,1.22v4.89a17.36,17.36,0,0,0-1.76,1.3,9.44,9.44,0,0,1,1,1.63v38.07a9,9,0,0,1-1,1.59,18.67,18.67,0,0,0,1.76,1.54v4.52s-1.32,1.15-1.67,1.58c.57.72,1.67,1.93,1.67,1.93v65.38l2.27-.13v-4.35s2.57-1.73,2-3.31a17.76,17.76,0,0,1-1.24-1.63v-25.5l1.81-2.53L849,349.35c0-13.62,0-26.92,0-40.22,0-.19.34-.37,1.29-.93v-4.61Z"/><path d="M856.45,293.58l-1.52-2.37,1.51-2.49a29.63,29.63,0,0,0-2.32-2.29V91.28a8.63,8.63,0,0,0-1-1.48c.18-2.07-.16-4.31.1-6.13a16.68,16.68,0,0,1,1.7-1.45V47.14s-1.26-1.09-1.34-1.17c-1.15-2.13,1.34-3.46,1.34-3.46v-3l-1.51-1.59V7.31l1.13-1.46c-1.39-.72-2.78-1.44-4.16-2.18v7s-1.37.41-1.8.58l.54,1.16c.68.87,1,1.06,1,1.26,0,4.56,0,9.12,0,13.6l-1.39,1.39c.34.44,1.67,1.65,1.67,1.65v242.4a13.23,13.23,0,0,0,1.2,1.77c-.39.39-1.2,1.29-1.2,1.29v11.05l1.51,1.2v20.16a1.85,1.85,0,0,1-1.51.2V327.8l1.51,1.62v2.78s-1.53,1.79-2,2.54a22.74,22.74,0,0,0,2,2.44v47.45l-1.15,1.15c-.07,2.82-.07,2.82,2.38,6.82l1.8-.68V381.29l1.52-1.63V347.9l-1.47-1.73,1.38-1.75L854.88,343V305.08l1.52-1.74v-4.53s-2.2-1.49-1.79-2.8Zm-2.58,82.32-.54-1c.21-.2.38-.37.54-.54a4.73,4.73,0,0,1,.48,1C854.38,375.53,854,375.73,853.87,375.9Z"/><path d="M848.82,395.77V601.66L850,602.8c1,1.8-.31,4.05.92,5.93.37-.3.71-.45.71-.6.17-7.75.3-15.51.44-23.28l-1.55-1.9,1.37-1.63v-4.59l-1.51-1.62v-41.4l1.51-1.62v-2.84c-.61-.64-1.14-1.19-1.51-1.59v-133s1.22-.34,1.85-.5c1.83,1.39,1.93,5.26,1.93,5.26V580.58s2.62,1.86,2,3.53l-1.49,1.6,1.05,1a5.21,5.21,0,0,1,.45,1.39c.05,2.28,0,4.56,0,6.68l-1.78,2,1.62,3c.18,1.07-1.12,3.89-1.12,3.89v38.42l1.52,1.59v35.24l-1.46,1.56v17.95l1.06,1.06a4.44,4.44,0,0,1,.42,1.31c0,3.24,0,6.47,0,9.62l-2.29,2.28-2.3-2.59V697.85l-2.4-.23c-1.41,1.77-.45,3.7-.73,5.52l1.62,1.73v4.4l-2.3,2.29-2.25-.26v-9.59s-1.22-1-1.58-1.35c0-.18-.05-.41,0-.53a11.46,11.46,0,0,1,1.53-1.16v-58l-1.48-1.53,1.93-2.36-2-2.35V613.09l1.51-1.3V584.2l-1.51-1.55v-7.79s.69-.87,1.12-1.3a15.68,15.68,0,0,1-1.12-1.64v-8.31c.46-.51,1-1.06,1.45-1.6l-1.07-1.07a4.78,4.78,0,0,1-.4-1.34c0-7.79,0-15.59,0-23.31,1.75-1,1.5-2.55,1.51-4.06-.5-.77-1-1.57-1.71-2.67l1.5-2.33c-.34-.87-1.9-1.42-1.3-2.92l1.46-1.62-1.07-1.07c-.58-8-.78-102.66-.27-126,.54-.54,1.11-1,1.6-1.61,1.45-1.72,1.18.6,1.83.78C848,394.83,848.16,395.11,848.82,395.77Zm1.24,288.32-1.43.58c0,3.61,0,7.28,0,11,0,.17.33.35.61.63l1.87-.16c.84-1.78.33-3.5.42-5.15l-1.49-1.6c0-1.78,0-3.52.17-5.33l1.24-.5c0-8.72,0-17.48,0-26.24,0-.11-.65-.21-1.2-.38C850.23,666.06,850.23,675.08,850.06,684.09ZM849.12,609c-.77,7.19-.78,28.1-.08,35.12l1,1.06L848.42,647l.66,2.09c.84-.13,1.54-.23,2.77-.35v-5.1a6.88,6.88,0,0,1-1.66-1.6l1.4-1.4c0-1.62,0-3.38,0-5.14a5.64,5.64,0,0,0-.38-1.36,3.15,3.15,0,0,1-.85-1.13V611.73a3.78,3.78,0,0,1-.3-1.52C850,610,849.76,609.83,849.12,609Zm1.54,41.07c-.66,3.76-.63,3.76.46,4.7C851.82,653.46,851.89,652.1,850.66,650.11Z"/><path d="M846.58,392.86l1.33-1.56C849,392.63,847.77,392.52,846.58,392.86Z"/></g></g></svg>