<svg xmlns="http://www.w3.org/2000/svg" viewBox="0 0 17.94 2028.92"><title>Contacto_linea</title><g id="Layer_2" data-name="Layer 2"><g id="ornamentos"><path d="M8.51,534.25c1.24-.74,1.69-1,1.69-1.21.09-17.41.14-34.82.2-52.65l-2.09-3,2.38-3.3.11-33.92-2-2.14c-.75-2.1,1.32-2.82,2.11-4.37l0-5.75c1.16-1.16,2.31-1.24,3.73-.16L14.41,514l2,2.56c-.46.56-1,1.24-1.71,2.08l0,6,1.83,2-1.91,2.09L14.42,579l1.89,2.16-1.71,1.7,0,6.47,1.59,1.6-.12,36.66-1.72,1.71,0,6.08,1.88,2.1-.82,249.56,2,2.18L16,890.66a6.69,6.69,0,0,0-.55,1.77c-.07,3.67-.05,7.35-.06,10.77l1.87,2.26-1.72,1.72,0,6.14,1.73,2.11,0,6-1.86,2.09-.24,72.42c.59.65,1.26,1.37,1.91,2.07l-1.89,2.09,1.7,1.71-.06,16.57-1.6,1.59L15,1062.6l1.7,1.72-1.8,2.1,1.9,2.09-.16,48.28c-1.26,1.72-3.1.64-4.65,1.12l-2.37-2-4.13,3.83-2.9-2.92.19-56.27-2-2.18,1.84-2-2.22-2.6c.59-1,1.2-2.13,2-3.53l-1.54-1.91.05-16,1.88-2.1L3,981.87,1,979.76l0-10,2.33-2.52L1.27,963l.1-29.47L3,931.44l.13-40.18L1.4,889.15v-4c.47-1.2,2.87-1.76,1.36-4.58l-1.43-1.54.15-46.3,1.92-1.91c.35-2.41-.09-5.36.16-8.1l-1.94-2,.85-257.59-2.48-3,2-3.28-2-3.13,2.43-3.21c.56-1.72-.95-2.73-2-3.7l0-6.08,1.84-2.1L2.5,488.3.77,486.55l1.68-2.11L.68,482.33l.14-42.21,2-2.09.05-14.28,2.5-.94c3.39,5.56,3.39,5.56,3.27,9.47L7,433.88l-.21,62.35L9,499.47l-2.29,3.35,0,3.69,2,2.1-.08,25.64a2.23,2.23,0,0,0-1.83.24L6.6,561.12l1.57,1.58-.05,14.59c-.72.71-1.2,1.18-1.71,1.7l2.13,2.34-1.06,320,1.64,2.19L7.28,905.3c0,5.92,0,11.94,0,18,0,.26.37.51,1.26,1.66-.07-.16.32.69.72,1.53l-1.87.76-.23,70.88L9,1000c0,7.59-.06,15.56-.07,23.54a1.81,1.81,0,0,0,.26.88,18.6,18.6,0,0,0,1.73,1.77l.14-40.28-1.69-1.7,2-3.78-2.29-2.6v-4l1.94-2.06-2-2.12.15-43.19,1.83-.75L11.19,885,9.61,883.4l0-8.54,1.71-1.7L9.41,871l.14-42.18,2-2.13,0-10-2-2.2Q10,679.14,10.46,544a6.24,6.24,0,0,0-.57-1.8l-1.4-1.38ZM6.89,1025.91l0,8.28,0,7,0,7,0,8c0,2.33-.16,4.67,0,7,.16,2-1,4.39,1,6.13l3-2.82-2-2.18q.06-18.07.1-36C8.87,1028,8.47,1027.77,6.89,1025.91Zm3,68.68c1.16-9,1.06-9-.69-10.76-1.12,2.58-.25,5.22-.49,7.78C8.67,1092.15,9.14,1092.74,9.9,1094.59Zm-.51,8c-.85,9.11-.85,9.11.73,10.88,1.13-2.59.25-5.24.49-7.79C10.66,1105.14,10.19,1104.55,9.39,1102.59Zm.27-.89a4.33,4.33,0,0,0,0-6.11A4.32,4.32,0,0,0,9.66,1101.7ZM4.48,446.42l-.71-1.3c-.23.22-.67.49-.64.66a6.86,6.86,0,0,0,.63,1.35Z"/><path d="M10.85,419.91,11.74,148l-1.47-1.48c-1.33-2.33.43-5.23-1.16-7.66-.48.38-.92.57-.92.76q-.37,15-.67,30.07c.67.83,1.27,1.58,2,2.47l-1.78,2.1,0,6,2,2.1-.18,54.3c-.7.74-1.38,1.46-2,2.09l0,4,1.84,2.11L8.77,420.44l-2.7.65c-2.41-1.84.15-5.58-3.09-6.95l.79-239.2c-.64-1.8-2.88-2.45-2.07-4.66l2-2.11-1.38-1.31A6.83,6.83,0,0,1,1.7,165c-.05-3,0-6,0-8.82l2.36-2.67L1.94,149.6c-.23-1.41-1.26-3.82,1.69-5.13L3.8,93.76,2,91.65,2.12,45.4l2-2.09q0-12,.08-24.13c-.47-.47-.94-.95-1.42-1.42A6.4,6.4,0,0,1,2.19,16c0-4.34,0-8.69,0-12.92L5.29,0,8.37,3.5l0,16.37,3,.3c1.76-2.21.57-4.63.93-6.9l-2-2.16,0-6,3-3,2.94.35,0,12.64,1.78,1.78c0,.24,0,.55-.07.7-.43.51-.94,1-1.52,1.54L16.1,95.69l1.78,2-2.34,3.11,2.37,3.1-.1,28.16-1.72,1.71L16,170.21l1.59,2,0,10.28-1.72,1.71,1.86,2.17,0,10L15.7,198.5l1.42,1.43a6.63,6.63,0,0,1,.52,1.79c0,10.38-.05,20.76-.08,31.05-2.35,1.29-2,3.39-2,5.39l2.25,3.58-2,3.09c.45,1.16,2.53,1.89,1.72,3.9l-2,2.15c.48.47.95,1,1.42,1.42.74,10.6.6,136.75-.19,167.86-.72.71-1.49,1.37-2.14,2.14-1.94,2.28-1.57-.82-2.43-1.05C11.92,421.17,11.72,420.8,10.85,419.91ZM10.14,38.34l1.9-.76c0-4.76,0-9.62,0-14.47,0-.23-.44-.46-.8-.83l-2.48.2c-1.11,2.35-.45,4.62-.57,6.8l2,2.11c0,2.36,0,4.65-.25,7l-1.64.67c0,11.5-.08,23.06-.06,34.63,0,.14.86.28,1.58.5C9.84,62.13,9.88,50.23,10.14,38.34Zm.92,99.07c1-9.49,1.15-37.09.26-46.36l-1.25-1.4,2.08-2.31-.86-2.76L8.18,85l0,6.74c.66.85,1.16,1.51,1.64,2.12L7.94,95.72c0,2.14-.05,4.47,0,6.79a7,7,0,0,0,.5,1.79l1.48,1.5-.09,28.05a16.66,16.66,0,0,0,0,2C9.88,136.13,10.22,136.36,11.06,137.41ZM9.2,83.19c.9-5,.85-5-.58-6.22C7.69,78.77,7.59,80.55,9.2,83.19Z"/><path d="M13.46,422.77l-1.76,2.05C10.34,423.05,11.9,423.21,13.46,422.77Z"/><path d="M8.61,2028.92Z"/><path d="M16.88,1356.3l-1.42-1.43,1.95-2.14c.81-2-1.26-2.74-1.72-3.9l2-3.09-2.26-3.58c0-2-.32-4.1,2-5.39,0-10.29.07-20.67.07-31.06a6.84,6.84,0,0,0-.52-1.79l-1.42-1.42,1.94-2.12c0-3.39,0-6.74,0-10l-1.86-2.17,1.72-1.71c0-3.39,0-7,0-10.28l-1.59-2c0-12.6.07-24.62.11-36.42l1.72-1.71c0-9.31.06-18.68.09-28.16l-2.37-3.1,2.34-3.11-1.78-2c.07-25.72.15-51.19.23-76.57.58-.57,1.08-1,1.51-1.53.13-.15.05-.46.07-.7L16,1119.09c0-3.9,0-8.17,0-12.63l-2.95-.35-3,3c0,2,0,4,0,6,.68.73,1.36,1.45,2,2.16-.36,2.27.84,4.69-.93,6.9l-3-.3c0-5.79,0-11.41.05-16.37L5.14,1104l-3.09,3.06c0,4.23,0,8.58,0,12.92a6.33,6.33,0,0,0,.56,1.78L4,1123.18q0,12.09-.07,24.13l-2,2.09q-.07,23.32-.14,46.25l1.82,2.11c0,17-.1,33.77-.15,50.71-2.95,1.31-1.92,3.72-1.69,5.13L4,1257.53l-2.36,2.68c0,2.8-.05,5.81,0,8.82a6.92,6.92,0,0,0,.59,1.83l1.38,1.32-2,2.1c-.81,2.21,1.43,2.86,2.07,4.66q-.21,66.36-.41,133c1.94,0,3.88,0,5.81.12q.11-31.59.19-63.22l-1.83-2.11c0-1.18,0-2.51,0-4l2-2.09q.09-27.14.17-54.3l-1.95-2.1c0-2.13,0-4.12,0-6l1.77-2.1c-.72-.89-1.33-1.64-2-2.47.21-10,.41-20,.66-30.07,0-.19.44-.38.92-.76,1.58,2.43-.17,5.33,1.16,7.66l1.47,1.48q-.24,80-.48,160.1c2.09.13,4.17.35,6.23.62C17.35,1384.23,17.18,1360.63,16.88,1356.3ZM8.64,1126.48l2.47-.2c.37.37.8.6.8.83,0,4.85,0,9.7,0,14.47l-1.9.75c-.26,11.9-.3,23.8-.33,35.89-.72-.22-1.58-.36-1.58-.5,0-11.57,0-23.13.05-34.63l1.64-.67c.23-2.38.24-4.67.24-7l-1.95-2.11C8.18,1131.1,7.52,1128.83,8.64,1126.48ZM8.49,1181c1.43,1.25,1.48,1.25.59,6.22C7.46,1184.55,7.56,1182.77,8.49,1181Zm2.7,14.08c.9,9.27.79,36.87-.25,46.36-.83-1.05-1.17-1.28-1.2-1.56a14.81,14.81,0,0,1,0-2c0-9.38.06-18.75.09-28l-1.49-1.5a7.34,7.34,0,0,1-.49-1.79c-.05-2.32,0-4.65,0-6.79l1.84-1.84L8,1195.76c0-2,0-4.27,0-6.74l3.11-.44.86,2.76-2.08,2.31Z"/><path d="M11.67,1528.82l1.76-2C11.86,1527.21,10.31,1527.05,11.67,1528.82Z"/></g></g></svg>