<svg xmlns="http://www.w3.org/2000/svg" viewBox="0 0 64.28 63.16"><defs><style>.cls-1{fill:#7a3b6e;}</style></defs><title>CuentamePuntoFinal</title><g id="Layer_2" data-name="Layer 2"><g id="ornamentos"><path class="cls-1" d="M53.82,63.16H52.66c-.36-.47-1.42-.51-2-1.13s-1.75-1.87-1.75-1.87H48.3c-.43-.38-.79-1-1.25-1-.64-.11-.87-.59-1.28-.89s-.63-.95-1.32-.82c-.06,0-.14-.1-.21-.15-.62-.49-1-1.32-1.85-1.49s-.85-1.21-1.75-1.12c-.12,0-.31-.17-.4-.31-1-1.42-2.76-2-3.88-3.29-.32-.38-1-.27-1.33-.78A8.62,8.62,0,0,0,34,49.16H31.21c-.43.32-.83.84-1.32,1-.67.16-.79.83-1.65,1h-.17c-.65.65-1.29,1.3-1.94,1.94-.95-.14-1.11,1.22-2.06,1.06-.47.47-.87,1.14-1.44,1.36a3.22,3.22,0,0,0-1.51,1.12c-.38.51-1.08.38-1.4.87s-1.12.57-1.58,1-.68,1-1.29,1.08-1,.83-1.49,1.24-1,.38-1.41.84a5.34,5.34,0,0,1-1.41.87.53.53,0,0,1-.12-.78c.08-.14.35-.26.33-.35-.15-.78.53-1.31.57-2,0-.16,0-.33,0-.51l.49-.54v-.8c.15-.29.32-.64.51-1s.33-.53.5-.8c.09-.54-.19-1.1.21-1.66s.3-1,.57-1.49a1.44,1.44,0,0,0,.21-.92c0-.4.35-.53.45-.81a2.8,2.8,0,0,0,0-1l.53-.57v-1s.6-.4,1-.61v-1c0-.24.35-.52.3-.65-.28-.83.38-1.35.62-2a7.49,7.49,0,0,0,.58-1.71c.06-.45.5-.84.53-1.43a4.6,4.6,0,0,1,.65-1.46,3.39,3.39,0,0,1-1.06-.38,6.23,6.23,0,0,0-1.72-1.19,4.06,4.06,0,0,1-1.19-1.15c-.36-.42-1-.32-1.37-.74s-.76-1.33-1.68-1.22c-.46-.45-.89-.94-1.39-1.34-.33-.26-.77-.37-1.12-.61s-.69-.56-1.05-.81c-.21-.15-.47-.22-.68-.35-.6-.38-.84-1.22-1.67-1.32s-.85-1.19-1.75-1.13c-.2,0-.46-.28-.61-.49-1-1.32-2.65-1.85-3.71-3.1C1.1,25.2.17,25.32,0,24.49c.07-.06.13-.16.2-.17.46,0,1.39-.16,1.39-.16H25.07a13.05,13.05,0,0,0,.75-1.41V21.34c.25-.21,0-.63,0-.63V19.64l1-.62V18s.72-.45.71-.64a3.3,3.3,0,0,1,.54-1.73c.2-.44,0-1.06.5-1.46.14-.11.08-.51.09-.78s-.11-.7,0-.8c.7-.51.31-1.4.72-1.92a2.41,2.41,0,0,0,.39-1.23c.08-.41.55-.81.49-1.15-.14-.89.86-1.41.6-2.27A3,3,0,0,0,31.51,4c.59-.35.42-.93.49-1.46,0-.23.3-.42.49-.67L32.6.06,33.41,0c.45.62.14,1.28.23,1.89a6.38,6.38,0,0,0,1.18.61V4l.37.36c.26.56-.08,1.34.63,1.73-.32.8.56,1.28.53,2.05,0,.61.77,1.06.47,1.79.54.39.4,1.22,1,1.58v2.78l.4.39c.23.26,0,.69.12.91.76,1,.84,2.2,1.48,3.44v1.62l1,.63v3.53c.14.08.28.23.41.23H62l.55-.46c.53-.1,1.08,0,1.55-.05.29.46.25.73,0,1a1.91,1.91,0,0,1-1,.57c-.33.06-.59.79-.89.79-.94,0-1.12,1.22-2,1.15-.54.51-1,1.06-1.62,1.53a16.09,16.09,0,0,1-1.37.89,7.74,7.74,0,0,0-1.7,1.26c-.5.59-1.32.64-1.75,1.22s-1.13.55-1.59,1-.66,1-1.3,1.07-1,.84-1.47,1.25-.92.23-1.22.68a8.71,8.71,0,0,1-.93,1,1.93,1.93,0,0,0-1.34.77v2.41l1,.58v.75l.62.66c-.47,1,.61,1.57.63,2.47s.76,1.52.67,2.42c.93.49.06,1.82,1.08,2.27v.77l1,.61v5.48l2,3.49v.93a6,6,0,0,0,1,.61ZM28.11,32.61c0,.39.71.56.71.56v1.49l-.86-.5H26.54l-.47-1-.5,1.05c-.37-.52-.35-1.25-1.12-1.43-.29.62-.05,1.28-.12,1.91,0,.14.1.28.17.45a9.34,9.34,0,0,1,1.15.16c.08,0,.12.26.17.38l-1,.08.11,1,.89-.25v-.83l.87.5.39-2.09.39,2.09h.35v1.2a2.66,2.66,0,0,0,1.4.23c.06.16.09.42.18.44.33.08.39-.17.37-.44.09,0,.25,0,.26,0a4.51,4.51,0,0,1,1.5-2c.52-.23.75-.32,1-.44,0,0,0-.17,0-.26l-1.38-2.82a11.31,11.31,0,0,0-1.2.12c-.09,0-.13.29-.19.44-.38,0-.57.17-.55.55h-.56c0-.38-.17-.56-.49-.39-.12-.43-.08-.86-.56-.48A1.53,1.53,0,0,0,28.11,32.61Zm6,2.22c-.59.89.1,1.88-.44,2.68l-.85-.46v2c.5.36,1.37.27,1.48,1.11l-.51.68c.24.37-.2.9.25,1.08l1.46-1.2-.6-.87.54-1-.94-.37c-.32-.78.12-1.36.5-2C34.71,36,34.42,35.43,34.11,34.83ZM22.25,38.1c.44-.36.34-1.08.88-1.36,0,0,0-.18,0-.26a3.57,3.57,0,0,0-.25-.48l-.93.79C22.19,37.21,21.79,37.69,22.25,38.1Zm13.16-3.9.35,0c0-.24.07-.49.08-.74,0-.06-.13-.18-.17-.17s-.35.12-.35.19A3.12,3.12,0,0,0,35.41,34.2Zm-4.56,3.13c.49.34.84.51,1.09-.16A.83.83,0,0,0,30.85,37.33Zm4.73-6.93a.66.66,0,0,0,0,1.11A.67.67,0,0,0,35.58,30.4ZM28.39,31a.67.67,0,0,0,0-1.11A.66.66,0,0,0,28.39,31Zm4.06,1.46-.19-.36c-.06.06-.19.14-.17.18a1.37,1.37,0,0,0,.17.37ZM28,38.5l-.2-.35c-.06.06-.18.13-.17.18a1.76,1.76,0,0,0,.17.37Zm-7.67,6.56c-.06-.06-.13-.18-.18-.17a1.76,1.76,0,0,0-.37.17c.06.06.14.18.18.17A1.76,1.76,0,0,0,20.36,45.06ZM39,41.94l.19-.2a1.76,1.76,0,0,0-.37-.17s-.12.11-.18.17Zm-2.57-1.3c-.06-.07-.14-.19-.19-.18a1.57,1.57,0,0,0-.37.18c.07.06.14.18.19.17A2,2,0,0,0,36.41,40.64Zm-9-.36.2-.2a2.11,2.11,0,0,0-.38-.17s-.12.11-.18.17Zm5.53.55.2-.19a1.57,1.57,0,0,0-.37-.18s-.12.11-.19.18ZM21.39,37.4l-.2-.36c-.06.06-.18.14-.17.18a1.76,1.76,0,0,0,.17.37ZM20.09,37c-.06.06-.18.14-.17.18a1.37,1.37,0,0,0,.17.37c.06-.06.18-.13.17-.18A1.76,1.76,0,0,0,20.09,37ZM32.26,9.38c-.06.06-.19.14-.17.18a1.37,1.37,0,0,0,.17.37c.06-.06.18-.13.17-.18A1.76,1.76,0,0,0,32.26,9.38ZM33,14.56l-.2-.2a1.76,1.76,0,0,0-.17.37s.11.12.17.18Zm-7.31,12-.36.2c.06.06.14.18.19.17a2,2,0,0,0,.37-.17Zm1.11,2.77-.36.19c.06.06.14.19.18.18a1.81,1.81,0,0,0,.37-.18ZM39.25,30.6l.2.36c.06-.07.18-.14.17-.19a1.76,1.76,0,0,0-.17-.37Zm2.06.55-.2-.19a1.37,1.37,0,0,0-.17.37s.11.12.17.18ZM40.2,33.92l-.2-.2a1.76,1.76,0,0,0-.17.37s.11.12.17.18Zm-2.13-.48c-.07-.06-.14-.18-.19-.17a2,2,0,0,0-.37.17c.06.07.14.19.18.18A1.46,1.46,0,0,0,38.07,33.44Z"/></g></g></svg>