<svg xmlns="http://www.w3.org/2000/svg" viewBox="0 0 112.98 112.98"><defs><style>.cls-1,.cls-2{fill:#fff;}.cls-2{fill-rule:evenodd;}</style></defs><title>CuentameHueco1</title><g id="Layer_2" data-name="Layer 2"><g id="ornamentos"><path class="cls-1" d="M92.36,11.54s-.62.51-1.5-.37A1.53,1.53,0,0,1,91,9a1.56,1.56,0,0,1,2.43.16c1.14,1.24.67,3.88-1.24,5.79a8.22,8.22,0,0,1-8.33,1.6s5.12-.05,7.55-2.48C93.24,12.21,92.36,11.54,92.36,11.54Z"/><path class="cls-1" d="M83,17.69A10.66,10.66,0,0,0,94.06,15c5.07-5.07-.56-8.12-.56-8.12S95.93,4.14,98,8.38c0,0-2.58-5.69,2.9-8.38a9.67,9.67,0,0,0-1,6.05c.46,3.78-3.15,8.12-5,9.83S87.65,21.62,83,17.69Z"/><path class="cls-1" d="M101.44,20.62s-.52.62.36,1.5A1.54,1.54,0,0,0,104,22a1.57,1.57,0,0,0-.16-2.44c-1.24-1.13-3.88-.67-5.79,1.25a8.22,8.22,0,0,0-1.61,8.33s0-5.12,2.48-7.56C100.77,19.74,101.44,20.62,101.44,20.62Z"/><path class="cls-1" d="M95.29,30A10.64,10.64,0,0,1,98,18.91c5.07-5.07,8.12.57,8.12.57s2.74-2.43-1.5-4.5c0,0,5.69,2.59,8.38-2.89a9.78,9.78,0,0,1-6,1c-3.78-.47-8.13,3.15-9.83,5S91.35,25.33,95.29,30Z"/><path class="cls-1" d="M88.78,24.2s1.8,1.28,3.09-.11,2.07-5.38,9.16-10.82,9.88-2.22,9.88-2.22A4.49,4.49,0,0,0,107,7.69a26.37,26.37,0,0,1,3-1.56c2.59-1.24,2-5.21,2-5.21s-4-.56-5.22,2a27.46,27.46,0,0,1-1.55,3,4.5,4.5,0,0,0-3.36-3.88S105.14,4.86,99.7,12s-9.41,7.86-10.81,9.16S88.78,24.2,88.78,24.2Z"/><path class="cls-1" d="M57.62,55.36a1.6,1.6,0,1,0,0,2.26A1.61,1.61,0,0,0,57.62,55.36Z"/><path class="cls-1" d="M66.31,55.05c-2.16,1.13-4.93,1.08-5.88,1.44,1,.36,3.72.31,5.88,1.44a5.93,5.93,0,0,1,2.37,2.42c1.85-2.68,4.12-3.3,5.09-3.3h3.71a.63.63,0,1,0,0-1.13H73.77c-1,0-3.24-.61-5.09-3.29A5.93,5.93,0,0,1,66.31,55.05Z"/><path class="cls-1" d="M62.42,48.53c-.73,2.32-2.72,4.24-3.15,5.18.93-.43,2.86-2.42,5.18-3.15a6,6,0,0,1,3.39,0c-.58-3.21.58-5.24,1.27-5.93l2.62-2.62A.85.85,0,0,0,72,41a.84.84,0,0,0-1,.24l-2.62,2.62c-.69.69-2.73,1.85-5.93,1.27A6,6,0,0,1,62.42,48.53Z"/><path class="cls-1" d="M55.92,39.2c0,1-.61,3.25-3.29,5.1a5.94,5.94,0,0,1,2.42,2.36c1.13,2.17,1.08,4.94,1.44,5.89.36-1,.31-3.73,1.44-5.89a5.87,5.87,0,0,1,2.41-2.36c-2.67-1.85-3.29-4.12-3.29-5.1s0-2.93,0-3.7a.85.85,0,0,0-.57-.9.84.84,0,0,0-.57.9Z"/><path class="cls-1" d="M57.05,73.77c0-1,.62-3.24,3.29-5.09a5.94,5.94,0,0,1-2.41-2.37c-1.13-2.16-1.08-4.93-1.44-5.89-.36,1-.31,3.73-1.44,5.89a5.93,5.93,0,0,1-2.42,2.37c2.68,1.85,3.29,4.11,3.29,5.09v3.71a.63.63,0,1,0,1.13,0Z"/><path class="cls-1" d="M45.14,50.6a5.83,5.83,0,0,1,3.38,0c2.33.72,4.26,2.72,5.18,3.14-.42-.93-2.41-2.85-3.14-5.18a5.83,5.83,0,0,1,0-3.38c-3.2.58-5.24-.58-5.93-1.27l-2.62-2.62a.63.63,0,1,0-.8.8l2.62,2.62C44.56,45.36,45.72,47.39,45.14,50.6Z"/><path class="cls-1" d="M71.73,70.93l-2.62-2.62c-.69-.69-1.85-2.73-1.27-5.93a6,6,0,0,1-3.39,0c-2.32-.73-4.25-2.73-5.18-3.15.43.93,2.42,2.85,3.15,5.18a6,6,0,0,1,0,3.39c3.2-.59,5.24.58,5.93,1.27l2.62,2.62A.84.84,0,0,0,72,72,.86.86,0,0,0,71.73,70.93Z"/><path class="cls-1" d="M50.56,64.45c.73-2.33,2.72-4.25,3.14-5.18-.92.42-2.85,2.42-5.18,3.15a5.93,5.93,0,0,1-3.38,0c.58,3.2-.58,5.24-1.27,5.93l-2.62,2.62a.63.63,0,1,0,.8.8l2.62-2.62c.69-.69,2.73-1.85,5.92-1.27A5.91,5.91,0,0,1,50.56,64.45Z"/><path class="cls-1" d="M46.67,57.93c2.15-1.13,4.93-1.08,5.88-1.44-.95-.36-3.73-.31-5.89-1.44a5.87,5.87,0,0,1-2.36-2.42c-1.86,2.68-4.12,3.29-5.09,3.29H35.5a.63.63,0,1,0,0,1.13h3.71c1,0,3.23.62,5.09,3.3A5.85,5.85,0,0,1,46.67,57.93Z"/><path class="cls-1" d="M94.68,18.3c-3.69,5.16-17,1.38-17,1.38l-1.47,1.84c3.13,12.34-7.28,22.57-7.28,22.57s10.22-10.41,22.56-7.28l1.85-1.47S89.52,22,94.68,18.3Z"/><path class="cls-1" d="M11.54,20.62s.52.62-.37,1.5A1.53,1.53,0,0,1,9,22a1.56,1.56,0,0,1,.16-2.43C10.4,18.45,13,18.91,15,20.83a8.2,8.2,0,0,1,1.6,8.33s0-5.12-2.48-7.56C12.21,19.74,11.54,20.62,11.54,20.62Z"/><path class="cls-1" d="M17.69,30A10.66,10.66,0,0,0,15,18.91c-5.07-5.07-8.12.57-8.12.57S4.14,17.05,8.38,15c0,0-5.69,2.59-8.38-2.89a9.78,9.78,0,0,0,6.05,1c3.78-.47,8.12,3.15,9.83,5S21.63,25.33,17.69,30Z"/><path class="cls-1" d="M20.62,11.54s.62.51,1.5-.37A1.53,1.53,0,0,0,22,9a1.56,1.56,0,0,0-2.43.16C18.45,10.4,18.92,13,20.83,15a8.22,8.22,0,0,0,8.33,1.6S24,16.5,21.6,14.07C19.74,12.21,20.62,11.54,20.62,11.54Z"/><path class="cls-1" d="M30,17.69A10.65,10.65,0,0,1,18.92,15c-5.08-5.07.56-8.12.56-8.12S17.05,4.14,15,8.38c0,0,2.59-5.69-2.89-8.38a9.67,9.67,0,0,1,1,6.05c-.46,3.78,3.15,8.12,5,9.83S25.33,21.62,30,17.69Z"/><path class="cls-1" d="M24.2,24.2s1.29-1.8-.11-3.09S18.71,19,13.28,12s-2.23-9.88-2.23-9.88A4.5,4.5,0,0,0,7.69,6,27.46,27.46,0,0,1,6.14,3C4.89.36.92.92.92.92s-.56,4,2,5.21A28,28,0,0,1,6,7.69a4.49,4.49,0,0,0-3.88,3.36S4.86,7.84,12,13.28s7.86,9.41,9.16,10.81S24.2,24.2,24.2,24.2Z"/><path class="cls-1" d="M18.3,18.3c5.16,3.68,1.38,17,1.38,17l1.85,1.47c12.33-3.13,22.56,7.28,22.56,7.28S33.68,33.86,36.81,21.52l-1.47-1.84S22,23.46,18.3,18.3Z"/><path class="cls-1" d="M20.62,101.44s.62-.52,1.5.36A1.53,1.53,0,0,1,22,104a1.56,1.56,0,0,1-2.43-.15c-1.14-1.24-.67-3.88,1.24-5.79a8.22,8.22,0,0,1,8.33-1.61s-5.12,0-7.56,2.48C19.74,100.77,20.62,101.44,20.62,101.44Z"/><path class="cls-1" d="M30,95.29A10.65,10.65,0,0,0,18.92,98c-5.08,5.07.56,8.11.56,8.11s-2.43,2.75-4.5-1.49c0,0,2.59,5.69-2.89,8.38a9.72,9.72,0,0,0,1-6.06c-.46-3.77,3.15-8.12,5-9.82S25.33,91.35,30,95.29Z"/><path class="cls-1" d="M11.54,92.36s.52-.62-.37-1.51A1.54,1.54,0,0,0,9,91a1.56,1.56,0,0,0,.16,2.43c1.24,1.14,3.87.67,5.79-1.24a8.2,8.2,0,0,0,1.6-8.33s0,5.12-2.48,7.55C12.21,93.24,11.54,92.36,11.54,92.36Z"/><path class="cls-1" d="M17.69,83A10.66,10.66,0,0,1,15,94.06c-5.07,5.07-8.12-.57-8.12-.57S4.14,95.93,8.38,98c0,0-5.69-2.59-8.38,2.89a9.7,9.7,0,0,1,6.05-1c3.78.46,8.12-3.16,9.83-5S21.63,87.65,17.69,83Z"/><path class="cls-1" d="M24.2,88.78s-1.8-1.29-3.09.11S19,94.27,12,99.7s-9.88,2.23-9.88,2.23A4.5,4.5,0,0,0,6,105.29a27.46,27.46,0,0,1-3,1.55c-2.59,1.24-2,5.21-2,5.21s4,.56,5.22-2a25.91,25.91,0,0,1,1.55-3,4.5,4.5,0,0,0,3.36,3.88s-3.2-2.8,2.23-9.88,9.41-7.86,10.81-9.16S24.2,88.78,24.2,88.78Z"/><path class="cls-1" d="M18.3,94.68c3.69-5.16,17-1.39,17-1.39l1.47-1.84c-3.13-12.34,7.28-22.56,7.28-22.56S33.86,79.3,21.53,76.17l-1.85,1.47S23.46,91,18.3,94.68Z"/><path class="cls-1" d="M101.44,92.36s-.52-.62.36-1.51A1.54,1.54,0,0,1,104,91a1.56,1.56,0,0,1-.16,2.43c-1.24,1.14-3.88.67-5.79-1.24a8.2,8.2,0,0,1-1.61-8.33s0,5.12,2.48,7.55C100.77,93.24,101.44,92.36,101.44,92.36Z"/><path class="cls-1" d="M95.29,83A10.66,10.66,0,0,0,98,94.06c5.07,5.07,8.12-.57,8.12-.57s2.74,2.44-1.5,4.5c0,0,5.69-2.58,8.38,2.9a9.7,9.7,0,0,0-6-1c-3.78.46-8.12-3.16-9.83-5S91.35,87.65,95.29,83Z"/><path class="cls-1" d="M92.36,101.44s-.62-.52-1.5.36A1.53,1.53,0,0,0,91,104a1.56,1.56,0,0,0,2.43-.15c1.14-1.24.67-3.88-1.24-5.79a8.22,8.22,0,0,0-8.33-1.61s5.12,0,7.55,2.48C93.23,100.77,92.36,101.44,92.36,101.44Z"/><path class="cls-1" d="M83,95.29A10.66,10.66,0,0,1,94.06,98c5.07,5.07-.56,8.12-.56,8.12s2.43,2.74,4.49-1.5c0,0-2.58,5.69,2.9,8.38a9.72,9.72,0,0,1-1-6.06c.46-3.77-3.15-8.12-5-9.82S87.65,91.35,83,95.29Z"/><path class="cls-1" d="M88.78,88.78s-1.29,1.8.11,3.09S94.27,93.94,99.7,101s2.22,9.88,2.22,9.88a4.5,4.5,0,0,0,3.37-3.88,25.91,25.91,0,0,1,1.55,3c1.24,2.58,5.22,2,5.22,2s.56-4-2-5.22a25.91,25.91,0,0,1-3-1.55,4.5,4.5,0,0,0,3.88-3.37s-2.79,3.22-9.88-2.22-7.86-9.41-9.16-10.81S88.78,88.78,88.78,88.78Z"/><path class="cls-1" d="M94.68,94.68c-5.16-3.69-1.38-17-1.38-17l-1.84-1.48c-12.35,3.14-22.57-7.27-22.57-7.27S79.3,79.11,76.17,91.45l1.47,1.84S91,89.52,94.68,94.68Z"/><path class="cls-1" d="M91,56.31s-5.35-.1-8.63-1.32a4.92,4.92,0,0,1-2.58.85,1.07,1.07,0,0,0-1.08-.73,1.2,1.2,0,1,0,0,2.39,1.07,1.07,0,0,0,1.07-.73,4.92,4.92,0,0,1,2.58.85C85.62,56.4,91,56.31,91,56.31Z"/><path class="cls-2" d="M96,55.7a10.13,10.13,0,0,0,4.55-1.46,5.19,5.19,0,0,1,2.13-.72,6.07,6.07,0,0,1,2.77.95c1,.53,2.43,1.28,3.66,1.79a37.93,37.93,0,0,0-3.66,1.79,6.19,6.19,0,0,1-2.77,1,5.21,5.21,0,0,1-2.13-.73A10.24,10.24,0,0,0,96,56.82v.44a6.84,6.84,0,0,1,3.52,1,4.59,4.59,0,0,1,2.27,4.27,3,3,0,0,1-3,2.8,4.9,4.9,0,0,1-3.89-2.1c1.84,0,3-.75,3-2.79A2.07,2.07,0,0,0,96,58.27a1.11,1.11,0,0,1-1.09,1.2,2.32,2.32,0,0,0,.42-1.2,3,3,0,0,0-2,.75c.56.12,1,.34,1,.79a1.19,1.19,0,0,1-1.23,1,1.08,1.08,0,0,1-1.2-1.06c0-1.12,1.42-2.29,3.44-2.4v-.56a4.65,4.65,0,0,0-1.68.22,2.72,2.72,0,0,1-.87.22,13.83,13.83,0,0,1-2.79-1,13.4,13.4,0,0,1,2.79-1,2.59,2.59,0,0,1,.87.22,4.62,4.62,0,0,0,1.68.23v-.56c-2-.11-3.44-1.29-3.44-2.41a1.08,1.08,0,0,1,1.2-1.06,1.2,1.2,0,0,1,1.23,1c0,.44-.45.67-1,.78a3,3,0,0,0,2,.75,2.32,2.32,0,0,0-.42-1.2A1.12,1.12,0,0,1,96,54.24,2.07,2.07,0,0,0,97.84,52c0-2-1.15-2.8-3-2.8a4.9,4.9,0,0,1,3.89-2.1,3,3,0,0,1,3,2.8,4.62,4.62,0,0,1-2.27,4.28,6.81,6.81,0,0,1-3.52,1Z"/><path class="cls-1" d="M56.31,22s-.1,5.35-1.32,8.63a4.91,4.91,0,0,1,.85,2.57,1.07,1.07,0,0,0-.73,1.08,1.2,1.2,0,1,0,2.39,0,1.09,1.09,0,0,0-.72-1.08,4.85,4.85,0,0,1,.84-2.57C56.4,27.36,56.31,22,56.31,22Z"/><path class="cls-2" d="M55.7,17a10.12,10.12,0,0,0-1.45-4.56,5,5,0,0,1-.73-2.12,6.07,6.07,0,0,1,.95-2.77c.53-1,1.28-2.43,1.79-3.66a37.93,37.93,0,0,0,1.79,3.66,6.19,6.19,0,0,1,1,2.77,5,5,0,0,1-.73,2.12A10.24,10.24,0,0,0,56.82,17h.44a6.82,6.82,0,0,1,1-3.52,4.59,4.59,0,0,1,4.27-2.27,3,3,0,0,1,2.8,3,4.94,4.94,0,0,1-2.09,3.89c0-1.85-.76-3-2.8-3A2.07,2.07,0,0,0,58.27,17a1.11,1.11,0,0,1,1.2,1.09,2.32,2.32,0,0,0-1.2-.42,3,3,0,0,0,.76,2c.11-.56.33-1,.78-1a1.18,1.18,0,0,1,1,1.22,1.07,1.07,0,0,1-1.06,1.2c-1.12,0-2.3-1.42-2.4-3.43h-.56A4.65,4.65,0,0,0,57,19.36a2.6,2.6,0,0,1,.22.86,13.07,13.07,0,0,1-1,2.8,13.44,13.44,0,0,1-1-2.8,2.6,2.6,0,0,1,.22-.86,4.62,4.62,0,0,0,.23-1.68h-.56c-.11,2-1.29,3.43-2.4,3.44a1.09,1.09,0,0,1-1.07-1.21,1.2,1.2,0,0,1,1-1.22c.44,0,.67.44.78,1a3,3,0,0,0,.76-2A2.35,2.35,0,0,0,53,18.1,1.12,1.12,0,0,1,54.24,17,2.06,2.06,0,0,0,52,15.14c-2,0-2.8,1.14-2.8,3a4.93,4.93,0,0,1-2.1-3.89,3,3,0,0,1,2.8-3,4.62,4.62,0,0,1,4.28,2.27,6.79,6.79,0,0,1,1,3.52Z"/><path class="cls-1" d="M22,56.67s5.35.09,8.63,1.31a5,5,0,0,1,2.57-.84,1.09,1.09,0,0,0,1.08.73,1.2,1.2,0,0,0,1.32-1.2,1.18,1.18,0,0,0-1.32-1.19,1.09,1.09,0,0,0-1.08.72,5,5,0,0,1-2.57-.84C27.36,56.58,22,56.67,22,56.67Z"/><path class="cls-2" d="M17,57.28a10.12,10.12,0,0,0-4.56,1.45,5,5,0,0,1-2.12.73,6.07,6.07,0,0,1-2.77-1A40.42,40.42,0,0,0,3.9,56.72c1.23-.51,2.68-1.26,3.66-1.79a6.07,6.07,0,0,1,2.77-1,5,5,0,0,1,2.12.73A10.24,10.24,0,0,0,17,56.16v-.45a6.81,6.81,0,0,1-3.52-1,4.61,4.61,0,0,1-2.27-4.28,3,3,0,0,1,3-2.79,4.91,4.91,0,0,1,3.89,2.09c-1.84,0-3,.76-3,2.8A2.08,2.08,0,0,0,17,54.71a1.11,1.11,0,0,1,1.09-1.2,2.29,2.29,0,0,0-.42,1.2,3,3,0,0,0,2-.76c-.56-.11-1-.33-1-.78a1.21,1.21,0,0,1,1.23-1,1.09,1.09,0,0,1,1.2,1.07c0,1.11-1.42,2.29-3.44,2.4v.56a4.88,4.88,0,0,0,1.68-.22,2.51,2.51,0,0,1,.86-.23,13.24,13.24,0,0,1,2.8,1,13.07,13.07,0,0,1-2.8,1,2.73,2.73,0,0,1-.86-.22,4.88,4.88,0,0,0-1.68-.22v.56c2,.11,3.44,1.28,3.43,2.4a1.07,1.07,0,0,1-1.19,1.06,1.2,1.2,0,0,1-1.23-1c0-.45.44-.67,1-.78a3,3,0,0,0-2-.76,2.29,2.29,0,0,0,.42,1.2A1.11,1.11,0,0,1,17,58.73a2.07,2.07,0,0,0-1.87,2.21c0,2,1.15,2.8,3,2.8a4.91,4.91,0,0,1-3.89,2.09,3,3,0,0,1-3-2.79,4.61,4.61,0,0,1,2.27-4.28,6.84,6.84,0,0,1,3.52-1Z"/><path class="cls-1" d="M56.67,91s.09-5.35,1.31-8.63a5,5,0,0,1-.84-2.58,1.07,1.07,0,0,0,.73-1.08,1.2,1.2,0,1,0-2.39,0,1.07,1.07,0,0,0,.72,1.07,5,5,0,0,1-.84,2.58C56.58,85.62,56.67,91,56.67,91Z"/><path class="cls-2" d="M57.28,96a10.11,10.11,0,0,0,1.45,4.55,5.06,5.06,0,0,1,.73,2.13,6.07,6.07,0,0,1-1,2.77c-.53,1-1.28,2.43-1.79,3.66a40.42,40.42,0,0,0-1.79-3.66,6.07,6.07,0,0,1-1-2.77,5.06,5.06,0,0,1,.73-2.13A10.24,10.24,0,0,0,56.16,96h-.45a6.81,6.81,0,0,1-1,3.52,4.61,4.61,0,0,1-4.28,2.26,3,3,0,0,1-2.79-3,4.89,4.89,0,0,1,2.09-3.88c0,1.84.76,3,2.8,3A2.07,2.07,0,0,0,54.71,96a1.11,1.11,0,0,1-1.2-1.09,2.29,2.29,0,0,0,1.2.42,3,3,0,0,0-.76-2c-.11.56-.33,1-.78,1a1.2,1.2,0,0,1-1-1.23,1.08,1.08,0,0,1,1.06-1.2c1.12,0,2.29,1.42,2.4,3.44h.56a4.88,4.88,0,0,0-.22-1.68,2.75,2.75,0,0,1-.23-.87,13.2,13.2,0,0,1,1-2.79,13,13,0,0,1,1,2.79,2.69,2.69,0,0,1-.21.87,4.62,4.62,0,0,0-.23,1.68h.56c.11-2,1.28-3.44,2.4-3.44a1.09,1.09,0,0,1,1.07,1.2,1.21,1.21,0,0,1-1,1.23c-.45,0-.67-.45-.78-1a3,3,0,0,0-.76,2,2.35,2.35,0,0,0,1.21-.42A1.12,1.12,0,0,1,58.73,96a2.07,2.07,0,0,0,2.21,1.87c2,0,2.8-1.15,2.8-3a4.89,4.89,0,0,1,2.09,3.88,3,3,0,0,1-2.79,3,4.61,4.61,0,0,1-4.28-2.26,6.84,6.84,0,0,1-1-3.52Z"/></g></g></svg>