<svg xmlns="http://www.w3.org/2000/svg" viewBox="0 0 42.62 1399.08"><defs><style>.cls-1{fill:#7a3b6e;}</style></defs><title>CuentameQuote1</title><g id="Layer_2" data-name="Layer 2"><g id="ornamentos"><path class="cls-1" d="M20.93,734.53c-1.07-3.74-5.89-2.88-6.59-6.32.09-.51.05-.82.19-1,1.38-1.41,2.79-2.81,4.1-4.13l-5.55-5.4-3.56,4.65c-3-.47-4-2.68-5.48-4v-3l2.68-2.67.84-2.45h3.29c.29.85.6,1.72,1,2.84l2.67.18c2-.76,2.84-2.66,5-4.15L14.32,704c-.19-1.43,1.36-1.09,2.45-1.34l4.2-4.2,5.38,5.66v2.4l-3.11,3.26A7.17,7.17,0,0,0,24,711.6c.93,1.14,2,2.17,3.44,3.67l5-5c1.84.25,2.65,2.34,4.34,3.55v4.68L32,721.79c.39.06-.24.17-.53-.1-1.48-1.36-2.87-2.81-4.41-4.36l-3.67,4.13v2.87c.71,1.37,2.66,2,2.92,3.69,0,.4.06.73-.07.86C24.58,730.67,22.9,732.44,20.93,734.53Zm.34-14.41c1.2-1.31,3.23-2.28,3.69-4.62-1.48-1.58-2.6-3.48-5.1-4.27l-2.43,3.35v3.59Z"/><path class="cls-1" d="M16,755.53c-1.89-.71-2.22-.77-2.36-.63-1.43,1.38-2.83,2.8-4.6,4.57l-2-2.9L4,756v-2.8l6.33-6c.49-.1,1,.94,1.71,1.51s1.08,1.76,3,1.55c1.32-.53,2.24-2.45,3.79-3.63-1.47-1.55-2.94-3.08-4.41-4.61l6.62-6.62c1.55,1.84,3.11,3.69,5.25,6.21v1.84l-3.21,3.71c.94,2.17,2.82,3.12,4.34,5.07l4.71-4.88c.29,0,.91,0,1.2.24,1.79,1.69,3.51,3.45,5.11,5.05-.17.8-.11,1.4-.38,1.69-1.69,1.79-3.45,3.5-5.29,5.34-2.58-1.06-3.77-3.4-5.69-4.77l-3.72,3.72c-.27,2.1,1.66,2.81,2.9,4.42l.18,3-4.35,3.8H20.23c-.23,0-.54,0-.68-.15-1.61-1.57-3.19-3.17-4.93-4.91.86-2.18,3.62-3,4.36-5.46a11.31,11.31,0,0,0-1.61-2.93c-.78-.78-2-1.12-1.41-.82a9.39,9.39,0,0,0,3.67.77l1.58,1.49c1.21-1.71,3.59-2.57,3.86-5.31-1.88-.93-2.55-3.43-5.57-3.8l-2.07,2.83C17.43,752.87,17.43,754.58,16,755.53Z"/><path class="cls-1" d="M17.43,976.57h-2c-1.79.89-2.88,3.33-5,4.47-.46-.08-1.07,0-1.35-.28-1.78-1.67-3.47-3.42-5-4.93,0-3.34,2.86-3.16,4.32-4.33.16-.76.29-1.44.46-2.25l3.2-.17,3.55,3.19c2.34-.53,3.12-2.61,5-4l-4.52-3.56c-.41-2.56.25-3.29,2-3l3.11-3h3c1.19,1.53,3.05,2.47,3.61,3.77.25,1.9-.93,2.24-1.49,3A19.43,19.43,0,0,1,24.86,967v2.53c.82,1.6,2.46,2.64,4.31,4.49l4.77-4.81a1.67,1.67,0,0,1,.93.28c1.62,1.53,3.17,3.13,4.75,4.71-.59,1.56-2.64,2-2.9,3.9-.2,1.52-1.39,2.4-3,3-2.24-.77-3.22-3.3-5.1-4.27l-3.78,3.78v2.44L28,986.59c-.68,2.38-2.63,3.48-4.18,5-1-.11-2.31.14-2.84-.39-1.51-1.51-4.22-1.32-5.16-4.17.61-2.14,3.05-3.25,4.49-5.21l-1.4-1.52v-2.2l3.78,1.86c.93-2.22,3.59-2.82,3.76-5.33-1.53-1.51-2.6-3.44-5.15-4.21-1.14,1.44-2.33,2.91-3.87,4.85Z"/><path class="cls-1" d="M26,1201.2a24.28,24.28,0,0,1,.19,3.71c.94,1.36,2.94,1.91,3,3.46-1.94,2-3.65,3.67-5.58,5.6-.62-.47-1.74-1.94-3.1-2.23-1.75-.37-2-2-3.59-2.31,1.08-2.92,3.37-4.12,4.82-6-1.4-1.2-2.37-3-3.76-3.63-1.71-.27-2.11.84-2.82,1.43-.56.46-1.06,1-1.56,1.47H11c-1.55-.75-2.54-2.52-4-3.75v-2.81l5.82-5.77,4.75,4.76c1.8-.61,3-2.45,4.32-4-.12-.58-.06-1.17-.34-1.46-1.35-1.42-2.79-2.76-4.1-4l5.11-5.27h3l3.7,3.68v3.42c-.79.79-1.83,1.81-3,3,.35,2.14,2.55,3.08,3.9,4.62,2.22.29,2.79-1.78,4.29-2.82h3.62l3.34,4.6c0-.14.11.48-.16.77-1.69,1.79-3.47,3.52-5,5-2.87.36-3.07-2.84-5.74-3l-2,1.53H26a18.52,18.52,0,0,1,1.67-2.35V1196l-3.19-3.21-4.08,2.91v3.19l2,2.31Z"/><path class="cls-1" d="M34.26,1080c2,1.91,3.76,3.62,5.51,5.35.12.13,0,.48,0,.73s.08.58-.05.71c-1.65,1.8-3.33,3.57-5.45,5.83l-5.07-5.12c-1.81.61-3,2.48-4.3,4-.12,2.27,1.95,2.8,2.93,4.21v3.13l-4,3.52H20.77c-1.34-1.44-3-3.23-4.67-5-.13-.14-.08-.45-.21-1.24.27-2.25,4.93-.8,4.53-4.3-.3-1.41-1.73-2.09-2.67-3.16a7.19,7.19,0,0,0-1.38-1.06c-.64,0-1-.11-1.12,0-1.42,1.37-2.81,2.78-4.24,4.21-1.39-.46-2.09-1.76-3.11-2.66s-1.7-1.68-2.41-2.39c.17-.8.12-1.39.39-1.68,1.67-1.77,3.42-3.46,4.85-4.9,2.83-.25,3,2.88,5.7,3,1.53-.56,2.41-2.5,4.41-4l-4.75-3.68c-.39-2.61,1.32-3.14,2.18-4.24,2.11.26,2.79-1.67,4.15-2.7,1.42.34,2,1.7,3.07,2.57s1.71,1.69,2.39,2.37c0,.59.1.92,0,1.07-1,1.31-2.07,2.58-3.19,4a13.58,13.58,0,0,0,4.21,4.64c.5,0,.84.1,1,0,.93-.79,1.76-1.69,2.73-2.41A5.74,5.74,0,0,1,34.26,1080Zm-7.91,4.32-2.08-2.08H20.86l-1.95,2.09v2.63l3.57,4.17,3.87-3.77Z"/><path class="cls-1" d="M3.72,1011.29c2.8-.92,5.13-1.69,4.69-5l3.18-.15c2.33.64,2.35,2.9,3.44,4.48l5.34-5.76-5-3.87c1.46-3.55,4-5.22,7.58-6.36.77.2,1.41,1.56,2.44,2.44s1.72,1.69,2.37,2.35c.17,2.51-1.93,3-2.92,4.48v3.15l4,3.54,3.7-4.61c3.15.32,4,2.69,5.68,3.94v4.46c-1.53,1.2-2.48,3.07-4,3.72-.73,0-1.09.11-1.21,0-1.43-1.39-2.81-2.82-4.47-4.5-1.39,1.27-2.63,2.63-3.73,3.67v3.48l2.39.54c1.07.7.32,2.06.6,3.61L24,1028.64H21l-4.54-6.23c.33-1.11,3.31-1.72,3.93-4.49a8.61,8.61,0,0,0-1.12-1.51c-1.08-.95-1.77-2.37-3.61-2.81-2.15.77-3.11,3.34-5.25,4.39Zm14.16-.06,5,5.23c1.24-1.78,3.62-2.61,3.81-5.06-1.64-1.44-2.61-3.53-5.27-4.1C20.23,1008.61,19,1010,17.88,1011.23Z"/><path class="cls-1" d="M26.35,801.57v1.82L21.52,807H19.88l-5.51-6.46c.3-1.95,4.74-.73,4.54-3.89,0-.25.11-.61,0-.72-1.41-1.31-2.39-3.1-4.6-4-2,1.14-3.31,3.18-4.73,4.35L4,790.91c.1-2.48,3.76-3.07,3.29-6.1l3.25-.2L14,787.76c2.37-.43,3.18-2.49,4.89-3.73l-4.38-4.6,6.38-6.38c1.44.29,2.05,1.68,3.06,2.54s1.72,1.69,2.37,2.34c.41,2.78-2.69,3-3,5.45.79,1.77,2.52,3,4,4.25,2.56.18,2.8-2.92,5-3,.25,0,.6-.1.73,0,1.77,1.72,3.51,3.48,5.23,5.2.23,2.84-2.88,3.2-3.46,5.2H31.11L28.7,792c-3,.19-3.52,2.87-5.27,3.62C23.07,798.2,25.44,798.57,26.35,801.57ZM24.9,788.41l-2.2-2.25H19.78l-2.42,2c.08,1.59.12,2.57.16,3.39l2.14,2.08h3l2.22-2.25Z"/><path class="cls-1" d="M26.36,1126.82v3.7c.93,1.37,2.93,1.92,3,4.46l-5.13,5.13a2.63,2.63,0,0,1-2.82-1.12c-1.36-1.39-2.75-2.76-4.26-4.27.83-2.59,3.21-3.74,4.65-5.66-1.34-1.25-2.35-3-4.2-3.85l-3.08,1.61-2.9,1.5c-1.94-.09-2.12-2.16-3.1-2.31-1.23-1-3-.21-3-2.13,0-.24-.11-.6,0-.72,1.74-1.75,3.51-3.46,5.36-5.26h2.81l2.71,2.73,4-1.63v-3.77l-3-3c-.27-1.21.86-2.2,1.82-2.57,1.9-.75,3.47-2.55,6.34-1.94,1.35.66,2.35,2.39,3.78,3.64.4,2.45-2.36,2.89-3.06,4.93.22.44.51,1,.83,1.65.22.4.55.75.73,1.17.27.6.44,1.24.62,1.76h3.72c.65-.89,1.51-2.07,2.2-3,1,.15,1.57.07,1.86.33,1.62,1.51,3.17,3.09,4.85,4.76-.75,1.45-2.16,2.36-3.26,3.53s-2.08,2.08-3.13,3.13c-1.7-1-2.85-2.31-2.62-4.29h-4c.52-2.37-1.56-3.84-2.06-5.95H23.48l-4.42,3.48,3.75,4Z"/><path class="cls-1" d="M27.84,1162.52v1.39L26,1166.37c1.28,1.45,2.36,2.69,3.63,4.15-1,2.61-3.64,3.85-5.12,6-2.78-1.36-5.55-2.57-7.23-5.76.91-2.11,3.16-3.34,4.61-5.24-1.49-1.16-2.44-3-3.76-3.59-1.85-.26-2.21.89-2.94,1.46-.57.44-1.07,1-1.49,1.37H10.43c-.19-.67-.38-1.33-.64-2.26L7,1161.17v-2.43l3.77-3.65h2.89c1,.93,2,2,3.23,3.1.58-.24,1.4-.32,1.81-.78,1.12-1.23,2.83-2,3.16-3.67,0-.46.1-.81,0-.94-1.37-1.43-2.78-2.82-3.92-4l5.62-5.65h2.37c.7.94,1.74,2.31,3.35,4.45,0-.17.05.79.11,2l-3.28,3.67c1,2.26,2.72,3.51,4.23,4.78,2.28,0,2.83-2,4.47-3.18l4.56,2.15a9.3,9.3,0,0,0,.4,1.51c.17.43.62.73.84,1.15.32.6.54,1.26.84,2a22.5,22.5,0,0,0-3.15,1.63,18.58,18.58,0,0,0-2.27,2.23c-.77,0-1.11.1-1.25,0-1.11-1-2.18-2-3.32-3H27.84v-3.71l-3.61-3.64c-1.72,1.73-3.44,3.47-5.17,5.2,1.33,1.13,2.3,2.93,3.16,3.32C25.14,1164.6,26.25,1162.82,27.84,1162.52Z"/><path class="cls-1" d="M36.89,1387.79l-4.48-4a19.4,19.4,0,0,0-4.55,4.27c-.14,2.64,2.91,2.9,2.94,4.43,0,.89.11,1.24,0,1.36-1.71,1.76-3.45,3.49-5.17,5.21-2.15-2-3.78-4.46-6.69-5.22-.28-2.23,1.72-2.86,2.87-4.43l.16-3.24-2.71-2c-1.89-.24-2.48,1.82-4,2.93l-3.19.14-3.52-5v-1.82l4-3.69H15l3.51,3.18c2.34-.81,3.5-2.67,4.81-4.14.32-2.57-2.84-2.76-3-4.89a3.6,3.6,0,0,1,.47-1.29c1.53-1.61,3.12-3.17,4.7-4.74l1.61,1.46h1.44l2.2,4.31c-.05,2-2.33,2.39-3.06,4.77-.14,2,2.95,2.32,3.51,4.22l5.34-2.83,6,6c-.16-1,0-.72-.12-.65C40.77,1383.91,39.05,1385.63,36.89,1387.79ZM22,1383.43l2.23,2.23h3l2.46-2-.16-3.4-2.18-2.07H24.23L22,1380.46Z"/><path class="cls-1" d="M17.43,865.75h-4s-1.61,2.46-2.39,3.44c-.83-.11-1.46,0-1.74-.25-1.79-1.68-3.49-3.43-5.25-5.2.31-.81.78-1.71.78-1.71h2l2.28-3c2.9-.42,3.22,2.64,5.53,3.05,1.88-.74,3.08-2.59,4.35-4.11.25-2.63-2.91-2.84-3-5.07a3.84,3.84,0,0,1,.52-1.29c1.67-1.79,3.38-3.54,4.69-4.85,1,0,1.36-.11,1.49,0,1.8,1.73,3.57,3.5,5.18,5.08.22,2.5-1.22,3.35-2.85,4.06-.58.25-1.14.56-1.76.87.59,2.67,2.64,3.73,4.06,5.22,2.29.27,2.78-1.95,4.26-3h3.22l3.41,4.17v2l-4.19,3.49H31.69l-3.55-3.2c-2.25.72-3.08,2.82-5.15,4.36l4.66,3.67c.49,2.15-.26,2.82-1,3.54-1.4,1.41-2.78,2.87-4.38,4.53-2.79-1.47-4.38-4-6.39-5.81.21-3.54,4-4.06,4.52-7,2.62-1.07,3.88-3.74,5.79-5.2l-5-5.64-3.78,3.85Z"/><path class="cls-1" d="M29.33,1269.63h2.18l4.19-4.24a4.33,4.33,0,0,1,1,.56c1.57,1.52,3.1,3.08,4.84,4.81-1.25,2.69-3.74,4-5.34,6.18l-3.93-4.47-4.45,2.28v4.53l2.88,3a23,23,0,0,0-2.58,2.65,9.41,9.41,0,0,0-.91,2.51H24.05a21.38,21.38,0,0,0-2.55-2.58,9.89,9.89,0,0,0-2.59-1v-3.22l3.09-3.24c-.18-2.52-2.63-3.37-4.2-5.55l-4.93,4.92c-.14,0-.75,0-1-.23-1.8-1.7-3.52-3.47-5.12-5.07.17-.81.11-1.42.39-1.71,1.7-1.79,3.47-3.51,5.34-5.38,2.56,1.12,3.79,3.42,5.73,4.84l3.72-3.72V1263c-.53-1.35-3.15-.06-3-2.18a5.94,5.94,0,0,1,.66-1.38c1.49-1.64,3-3.23,4.18-4.47a2.69,2.69,0,0,1,3.06,1c1.32,1.4,2.71,2.73,4.06,4.09l-4.62,4.62,3.14,2.25v2.79c-2.17,0-2.41-3.12-5-3a13.85,13.85,0,0,0-4.31,4.86c1.43,1.32,2.66,2.77,4.13,4a23,23,0,0,1,2.65-2.58,9.47,9.47,0,0,1,2.5-.91Z"/><path class="cls-1" d="M26.33,1237.61c1.58,0,1.58.74,1.58,1.45l-1.44,1.58,2.84,2.84.14,3.13c-1.19,1.16-2.57,2.49-3.81,3.68H23l-5.27-6c0-.47,1.36.39,2,0a17.9,17.9,0,0,0,2.17-2.11V1239l-4.06-3.73-3.62,4.39a2.78,2.78,0,0,1-3.16-1c-1.35-1.41-2.75-2.77-4.17-4.19.28-.8.51-1.44.73-2H9.08c.77-1.75,1.45-3.54,3.26-4.52l1.64.17.55,2.12,3.75,2c1-1.24,2.14-2.73,3.64-4.65.06-1.38-2-1.91-3-3.33v-2.82c1.08-2.68,4.32-2,5.38-4.2,2.61.64,3.39,2.74,5,3.89v3.1l-2.88,3c1.83,1.43,1.42,4.76,4.43,5.19.25,0,.6.11.73,0,1.41-1.39,2.8-2.82,4.21-4.25,1.31.25,1.8,1.44,2.65,2.17s1.77,1.74,2.76,2.73v3.1a16.61,16.61,0,0,0-2.72,1.38,20.71,20.71,0,0,0-2.35,2.3c-2.2.25-2.4-.88-2.32-2.24l-2.15-2.14-1.58,1.44a10.5,10.5,0,0,0-3.78.75c-1.26.74-1,.82-.77.73.86-.36,1.16-1.41,2.33-1.6.56-.09.93-1.44,1.21-1.93l-4.91-5.43c-1.14,1.15-2.22,2.17-3.22,3.26a5.83,5.83,0,0,0-.63,1.5,9.06,9.06,0,0,0,1.17,1.51C22.58,1236.59,23.27,1238,26.33,1237.61Z"/><path class="cls-1" d="M18.91,934.93v-2.15l1.46-1.59-4.08-4.08,5.58-5.58h2.55L27.84,926v2.16L24.9,931.5c.36,2.57,2.77,3.06,3.8,5.58l4.44-5.17,6.19,6.19-5.75,5.79c-1.81-.79-3-3-4.78-4.36L23,945l5,4.92c-.59,1.86-2.49,3-4,4.35H22l-5.11-5.16L21,945l-4.15-4.16H13.75l-3.12,3c-.55,0-1.21.1-1.48-.16-1.75-1.63-3.42-3.34-5.11-5l6.21-6.18,4,4h3.21v2.19c1.61,1.26,2.51,3.46,4.89,3.84,1.58-1.46,3.39-2.61,4.31-5-1.33-1.32-2.65-2.65-4-4-.12-.12-.46,0-.94,0Z"/><path class="cls-1" d="M20.4,1309.8H17.52l-2.35,3H11.68l-1.48-2.38-3.49-1.19c0-1.72,0-1.72,5.76-7,2.42.72,3.56,3.14,5.59,4.62l5.42-5.69-4.69-4.57c0-.2,0-.81.24-1.09,1.69-1.78,3.46-3.48,5.06-5.06.82.19,1.42.15,1.71.42,1.79,1.68,3.5,3.42,5.16,5.06-.81,2.83-3.36,3.84-4.35,5.47l5.24,5.18c1.25-1.24,2.66-2.65,4.1-4,.14-.14.46-.08.7-.11s.6-.11.74,0c1.28,1.16,2.54,2.36,3.84,3.59v3.12l-5.4,5-4.07-4-3.92,3.27v3.26l2.67,2.7c-.53,1-1.05,1.9-1.94,3.49L25,1324.6l-5.93-6s0-.72.27-.9a8.06,8.06,0,0,1,2-.67l2-4.24h2.39c.78-1.82,3.39-2.41,3.55-5-1.44-1.5-2.53-3.38-5-4.21l-3.86,4.94Z"/><path class="cls-1" d="M25.07,897.73h2.19a4.83,4.83,0,0,1,1.57,1.12l4-4c1.67,1.68,5.38,5.52,5.38,5.52v2.16l-4,3.42h-3c-.17-.81-.31-1.5-.47-2.32-.87-1.1-2.2-.33-3.66-.63l-3.21,4.13c.77,1.75,3.37,2.68,4.17,4.88a6.07,6.07,0,0,1-.7,1.5c-1.55,1.61-3.14,3.17-4.75,4.73-.13.12-.48,0-.73,0s-.55,0-.69-.09c-1.81-1.7-3.59-3.43-5.36-5.14.52-3,3.12-4.05,4.34-5.85l-5.41-5.51-3.15,4.19c-2.08.51-2.74-.19-3.44-.93-1.31-1.41-2.68-2.76-4-4.13l6.23-6.37,3.94,4.09h3.14v2.67c1.93,1.2,2.73,3.7,5.28,3.79,1.32-1.53,3.1-2.53,4-4.39A21.58,21.58,0,0,0,25.07,897.73Z"/><path class="cls-1" d="M24.86,1045c1.7.21,2.3,1.77,3.71,2.78,2.16-.87,3-3.54,5.45-4.3,3.48,1,4.23,4.32,6.1,6.8-1.72,1.85-3.74,3.59-5.76,5.68-2.29-1.47-3.67-3.23-5.33-4.69-.17,0-.44-.17-.51-.1-1.28,1.19-2.52,2.41-3.66,3.5,0,.47-.1.79,0,.95.89,1.15,1.82,2.27,3,3.69v2.84l-3.64,3.68H21.78L16,1060.24a24.6,24.6,0,0,0,2.05-2c.77-.9,2.19-1.36,2.21-3.09.11-1-1-1.39-1.71-2-.88-.8-1.41-2.1-2.38-2.17-.77,0-1.13-.1-1.26,0-1.44,1.4-2.84,2.83-4.22,4.23-1.68-.4-2.35-1.76-3.4-2.63s-1.77-1.69-2.82-2.7c1.15-2.76,3.84-4,5.24-5.93l4.1,4h3.33c1.06,2.61,3.72,3.86,5.35,6,1.29-1.57,3.17-2.53,4.17-4.64l-1.82-2.28Z"/><path class="cls-1" d="M18.91,823.35v-4.22l-3.06-2.45c.19-2.88,2.85-3.47,3.63-5.23H24c1.35,1.34,2.55,2.55,4.18,4.18l-4.81,4.8c.55,1.86,2.48,3,3.94,4.34,2.27.17,2.79-1.92,4.23-2.91h2.94c1.06.4.69,1.58,1,2.56l2.67,1c.05.92.09,1.91.12,2.51-1.92,2-3.65,3.77-5.55,5.75-1.71-.64-2.48-3.52-4.28-4.12-1.85-.21-2.27.93-2.9,1.62-.8.88-2.09,1.42-2.16,2.41,0,.75-.11,1.12,0,1.25,1.42,1.42,2.87,2.81,4.25,4.16-.42,1.77-1.77,2.43-2.65,3.49s-1.68,1.78-2.7,2.84c-3-1.28-4.2-4.28-6.4-5.62.25-3.69,4-4.21,4.51-7.11,2.62-1.06,3.86-3.74,6-5.35l-3.76-3.94Z"/><path class="cls-1" d="M18.76,1355.33c1.5-1.8,4.9-1.55,4.59-5l-3-1.4v-1.7l2.25-.91c.83,1.16,1.68,2.35,2.64,3.71l3.94-4.4.27-3.33,3.46-.21,3.21-2.91c.58,0,.93-.1,1.06,0,1.82,1.65,3.6,3.33,5.39,5a9.51,9.51,0,0,0-1.87,3.64l-2,.52-3.14,3.14-3.6-5-4.14,3.68c-.34,2.65,2.34,3.15,3,4.8-.13.62-.07,1.22-.33,1.51-1.28,1.4-2.89,2.56-3,4.84l-2.53.13Z"/><path class="cls-1" d="M7.06,1344.61l5.1-5.06h3.19l.78,2.4c1,1,2.35.25,3.51.52l4-4-4.89-4.51.68-1.81h1.66l4.22-4.22a4.72,4.72,0,0,1,1,.57c1.57,1.52,3.11,3.07,4.43,4.38.07,2.52-2,3.06-2.95,4.44v2.87c-.87,1.39-2.23.64-2.91.76l-10.59,10.53-2.76-1.58a13.71,13.71,0,0,1-1.82-1,3,3,0,0,1-1.35-2.42C8.39,1345.9,7.61,1345.34,7.06,1344.61Z"/><path class="cls-1" d="M17.43,899.2v-2.05l1.48-1.6v-3.07c-.22-.22-.38-.52-.58-.57-1.16-.23-2.64,0-2.49-1.36l6.48-6.48c2.16,1.12,3.81,3.66,6.07,5.57-.38.9-.65,1.54-.91,2.14H25.59l-2.16,2.16,1.43,1.57v2.2l-3.08-1.54C19.73,896.94,19.3,899,17.43,899.2Z"/><path class="cls-1" d="M17.63,829.3h-4c-.82.9-1.78,2-2.61,2.9a2.09,2.09,0,0,1-2.65-1c-.84-1.86-3.53-1.22-4.15-3,0-.52-.11-.86,0-1,1-1.07,1.94-2.16,3-3.13.87-.79,1.41-2,2.56-2.2,2.4-.08,2.67,2.87,5.27,3L17,823.35h2.1C17.63,826.17,17.63,826.17,17.63,829.3Z"/><path class="cls-1" d="M20.4,1045v-2.24l-4.23-4.18a4.29,4.29,0,0,1,.54-1c1.9-1.94,3.83-3.85,5.92-6,1.51,1.51,3,3,4.53,4.55a5.45,5.45,0,0,1,.69,1.21c-.06,2-2.05,2.57-3,3.93,0,1.24,0,2.47,0,3.7Z"/><path class="cls-1" d="M17.63,1047.65c0-.86,0-1.73,0-3l3,0A3.63,3.63,0,0,1,17.63,1047.65Z"/><path class="cls-1" d="M19.11,977.74a1.26,1.26,0,0,1-1.48-1.49C18.66,976.21,19.15,976.71,19.11,977.74Z"/><path class="cls-1" d="M17.63,936.08c0-1,.46-1.52,1.48-1.48C19.15,935.63,18.66,936.12,17.63,936.08Z"/><path class="cls-1" d="M19.11,867.65c-1,0-1.52-.45-1.48-1.48C18.66,866.13,19.15,866.62,19.11,867.65Z"/><path class="cls-1" d="M19.11,830.46c-1,0-1.52-.45-1.48-1.48C18.66,828.94,19.15,829.43,19.11,830.46Z"/><path class="cls-1" d="M20.6,869.14c-1,0-1.52-.46-1.49-1.49C20.14,867.62,20.64,868.11,20.6,869.14Z"/><path class="cls-1" d="M20.6,832c-1,0-1.52-.46-1.49-1.49C20.14,830.43,20.64,830.92,20.6,832Z"/><path class="cls-1" d="M22.09,1311a1.26,1.26,0,0,1-1.49-1.49A1.26,1.26,0,0,1,22.09,1311Z"/><path class="cls-1" d="M23.58,1312.45a1.26,1.26,0,0,1-1.49-1.49A1.26,1.26,0,0,1,23.58,1312.45Z"/><path class="cls-1" d="M28,1125c0,1-.46,1.52-1.49,1.49C26.52,1125.47,27,1125,28,1125Z"/><path class="cls-1" d="M17.21,36.1c-1.07-3.74-5.89-2.88-6.59-6.32.1-.51.06-.82.19-1,1.38-1.42,2.79-2.82,4.11-4.13L9.36,19.29C8.29,20.68,7,22.41,5.81,23.94c-3-.47-4-2.68-5.49-4V17L3,14.31l.84-2.45H7.13c.29.85.6,1.72,1,2.84l2.67.18c2-.76,2.84-2.65,5.05-4.15L10.6,5.54C10.41,4.11,12,4.45,13.05,4.2c1.41-1.42,2.83-2.83,4.2-4.2l5.38,5.67V8.06l-3.11,3.26a6.89,6.89,0,0,0,.79,1.85c.94,1.14,2,2.17,3.44,3.67l5-5c1.84.25,2.65,2.34,4.34,3.55v4.68c-1.08.74-2.71,1.86-4.78,3.3.39.05-.24.16-.53-.11-1.48-1.36-2.87-2.81-4.41-4.35C22.18,20.19,21,21.48,19.66,23V25.9c.71,1.37,2.66,2,2.92,3.69,0,.4.06.73-.07.87C20.86,32.25,19.18,34,17.21,36.1Zm.34-14.41c1.2-1.3,3.23-2.27,3.7-4.62-1.49-1.58-2.61-3.48-5.11-4.27l-2.43,3.35v3.59Z"/><path class="cls-1" d="M12.24,57.11c-1.89-.71-2.22-.78-2.36-.64C8.45,57.86,7.05,59.28,5.28,61l-2-2.9-2.94-.6v-2.8l6.33-6c.49-.1,1,.94,1.71,1.52s1.08,1.75,3,1.54c1.32-.53,2.24-2.45,3.79-3.63l-4.4-4.61,6.61-6.62,5.25,6.22V45L19.42,48.7c.95,2.17,2.82,3.12,4.34,5.08,1.58-1.65,3.12-3.23,4.71-4.88.3.05.92,0,1.2.23,1.79,1.69,3.51,3.46,5.11,5.06-.17.79-.11,1.39-.38,1.68-1.69,1.79-3.45,3.5-5.29,5.34-2.58-1.06-3.77-3.4-5.69-4.77L19.7,60.16c-.27,2.11,1.66,2.81,2.9,4.42l.18,3-4.35,3.8H16.51c-.23-.05-.54,0-.68-.15-1.6-1.57-3.19-3.16-4.93-4.91.86-2.18,3.62-3,4.36-5.46a11.31,11.31,0,0,0-1.61-2.93c-.78-.78-2-1.12-1.41-.81a9.5,9.5,0,0,0,3.67.76l1.58,1.49c1.22-1.71,3.59-2.57,3.86-5.31-1.88-.93-2.55-3.43-5.57-3.8l-2.07,2.83C13.71,54.44,13.71,56.16,12.24,57.11Z"/><path class="cls-1" d="M13.71,278.14h-2c-1.79.89-2.88,3.33-5,4.47-.46-.08-1.07,0-1.35-.28-1.77-1.67-3.47-3.42-5-4.93,0-3.34,2.85-3.16,4.31-4.33.16-.76.29-1.44.46-2.25l3.2-.17,3.55,3.19c2.35-.53,3.12-2.61,5.05-4l-4.52-3.56c-.4-2.56.25-3.28,2-3l3.11-3h3c1.19,1.53,3.05,2.47,3.61,3.77.25,1.9-.93,2.24-1.49,3-.43.57-1,1.07-1.4,1.55v2.53c.81,1.6,2.45,2.64,4.3,4.49l4.77-4.81a1.65,1.65,0,0,1,.93.28c1.62,1.53,3.17,3.13,4.75,4.71-.59,1.57-2.64,2-2.9,3.9-.2,1.53-1.39,2.4-3,3-2.24-.78-3.22-3.31-5.1-4.28l-3.77,3.78v2.44c.9,1,2,2.24,3.13,3.51-.68,2.38-2.62,3.48-4.18,5-1-.11-2.31.14-2.84-.39-1.51-1.5-4.22-1.32-5.15-4.17.6-2.14,3-3.25,4.48-5.21l-1.4-1.52v-2.2L19,281.49c.93-2.22,3.59-2.82,3.76-5.33-1.53-1.51-2.6-3.43-5.15-4.2l-3.87,4.84Z"/><path class="cls-1" d="M22.28,502.77a23.14,23.14,0,0,1,.2,3.71c.93,1.36,2.93,1.91,2.95,3.46l-5.58,5.61c-.62-.48-1.74-1.94-3.1-2.23-1.75-.38-2-2-3.59-2.32,1.08-2.92,3.37-4.12,4.82-6-1.4-1.2-2.37-3-3.76-3.63-1.71-.27-2.11.84-2.82,1.43s-1.06,1-1.56,1.47H7.25c-1.55-.75-2.53-2.52-4-3.75V497.7l5.82-5.77,4.75,4.76c1.8-.61,3-2.45,4.32-4-.12-.58-.06-1.17-.34-1.46-1.35-1.42-2.78-2.76-4.1-4,1.76-1.82,3.47-3.59,5.11-5.27h3l3.7,3.67V489c-.79.79-1.83,1.81-3.05,3,.35,2.14,2.55,3.08,3.9,4.62,2.22.29,2.79-1.78,4.29-2.82h3.62l3.35,4.6c0-.14.1.48-.17.77-1.69,1.79-3.46,3.52-5,5-2.87.37-3.06-2.84-5.74-3l-2,1.53H22.28A19.26,19.26,0,0,1,24,500.42v-2.85l-3.18-3.21-4.09,2.91v3.19l2,2.31Z"/><path class="cls-1" d="M30.54,381.52c2,1.91,3.76,3.62,5.51,5.36.12.12,0,.47,0,.72s.08.58-.05.72c-1.65,1.79-3.32,3.56-5.45,5.82L25.49,389c-1.81.61-3,2.48-4.3,4-.11,2.27,1.95,2.8,2.93,4.21v3.13l-4,3.52H17.05c-1.34-1.44-3-3.23-4.67-5.05-.13-.14-.08-.45-.2-1.24.26-2.25,4.92-.8,4.53-4.3-.31-1.41-1.74-2.09-2.68-3.16A6.9,6.9,0,0,0,12.65,389c-.64,0-1-.11-1.12,0-1.42,1.37-2.81,2.78-4.24,4.21-1.39-.46-2.09-1.76-3.11-2.66s-1.7-1.68-2.41-2.39c.17-.8.12-1.39.39-1.68,1.67-1.77,3.42-3.46,4.85-4.89,2.84-.26,3.05,2.87,5.71,2.94,1.52-.56,2.4-2.5,4.41-4l-4.76-3.68c-.38-2.61,1.32-3.14,2.18-4.23,2.11.26,2.79-1.68,4.15-2.71,1.42.34,2.06,1.7,3.07,2.57s1.71,1.69,2.39,2.37c0,.59.1.92,0,1.07-1,1.31-2.07,2.58-3.2,4a13.68,13.68,0,0,0,4.21,4.64c.5,0,.84.1,1,0,.93-.79,1.76-1.69,2.73-2.41A5.74,5.74,0,0,1,30.54,381.52Zm-7.91,4.33-2.08-2.09H17.14l-2,2.1v2.62c1.4,1.64,2.51,2.92,3.57,4.17l3.87-3.77Z"/><path class="cls-1" d="M0,312.86c2.8-.92,5.13-1.69,4.69-5l3.18-.15c2.33.64,2.36,2.9,3.44,4.48l5.34-5.76c-1.44-1.12-3.18-2.46-5-3.87,1.46-3.55,4-5.22,7.58-6.36.77.2,1.42,1.56,2.44,2.44s1.72,1.7,2.37,2.35c.17,2.51-1.93,3-2.91,4.48v3.15l4,3.54,3.7-4.61c3.15.32,4,2.69,5.68,3.94V316c-1.53,1.2-2.48,3.07-4,3.72-.73,0-1.08.11-1.21,0-1.42-1.39-2.81-2.82-4.47-4.5-1.39,1.27-2.63,2.63-3.72,3.67v3.48l2.38.55c1.07.69.32,2.06.6,3.6l-3.88,3.72h-3L12.75,324c.33-1.11,3.32-1.72,3.93-4.49A8.13,8.13,0,0,0,15.56,318c-1.08-1-1.77-2.37-3.61-2.81-2.15.77-3.1,3.34-5.25,4.39Zm14.16-.06,5,5.23c1.24-1.78,3.62-2.6,3.82-5.06-1.65-1.44-2.62-3.53-5.28-4.09Z"/><path class="cls-1" d="M22.63,103.14V105l-4.83,3.6H16.16l-5.5-6.46c.3-1.95,4.73-.73,4.53-3.89,0-.25.11-.61,0-.72-1.41-1.3-2.39-3.09-4.6-4-1.95,1.14-3.31,3.18-4.73,4.35L.24,92.48C.34,90,4,89.41,3.53,86.38l3.25-.2,3.48,3.15c2.37-.43,3.18-2.49,4.89-3.73-1.47-1.55-2.92-3.08-4.38-4.6,2.1-2.11,4.21-4.21,6.38-6.38,1.45.29,2.05,1.68,3.06,2.54s1.73,1.69,2.37,2.34c.41,2.78-2.68,3-3,5.45.79,1.77,2.52,3,4,4.25,2.56.18,2.8-2.92,5-3,.25,0,.6-.1.73,0,1.77,1.72,3.51,3.48,5.23,5.2.23,2.84-2.88,3.2-3.46,5.2H27.39c-.71-.91-1.62-2.06-2.41-3-3,.18-3.52,2.86-5.27,3.61C19.35,99.78,21.72,100.14,22.63,103.14ZM21.18,90,19,87.73H16.06l-2.42,2c.08,1.59.12,2.57.16,3.4l2.14,2.07h3l2.22-2.25Z"/><path class="cls-1" d="M22.64,428.39v3.7c.93,1.37,2.94,1.92,3,4.46l-5.13,5.13a2.63,2.63,0,0,1-2.82-1.12c-1.36-1.39-2.75-2.76-4.26-4.27.83-2.59,3.21-3.74,4.65-5.66-1.34-1.25-2.35-2.95-4.2-3.85l-3.08,1.61L7.9,429.9c-1.94-.1-2.12-2.16-3.1-2.32-1.23-1-3-.21-3-2.13,0-.24-.11-.6,0-.72,1.74-1.75,3.51-3.46,5.36-5.26H10l2.71,2.73,4-1.63V416.8l-3-3c-.27-1.21.86-2.2,1.82-2.57,1.9-.75,3.47-2.55,6.34-1.94,1.35.66,2.36,2.39,3.78,3.64.4,2.45-2.35,2.89-3.06,4.93.22.44.51,1.06.83,1.65.22.4.55.75.73,1.17.27.6.44,1.24.62,1.76h3.72l2.2-3c1,.15,1.57.07,1.86.33,1.62,1.51,3.17,3.09,4.85,4.76-.75,1.45-2.16,2.36-3.25,3.53S32,430.14,31,431.19c-1.7-1-2.85-2.31-2.62-4.29h-4c.52-2.37-1.56-3.84-2.06-5.95H19.76l-4.41,3.48,3.74,4Z"/><path class="cls-1" d="M24.12,464.09v1.39c-.63.83-1.19,1.57-1.88,2.46l3.63,4.15c-1,2.61-3.64,3.85-5.12,6-2.78-1.37-5.54-2.58-7.23-5.77.91-2.11,3.16-3.34,4.61-5.24-1.48-1.16-2.43-3-3.76-3.59-1.85-.26-2.21.89-2.94,1.46-.57.45-1.07,1-1.49,1.38H6.71l-.64-2.27-2.78-1.32v-2.43l3.78-3.65H10c1,.93,2,1.95,3.23,3.1.58-.24,1.4-.32,1.81-.78,1.12-1.23,2.83-2,3.16-3.66,0-.47.1-.82,0-.95-1.37-1.43-2.78-2.82-3.91-4l5.61-5.64H22.2l3.36,4.44c0-.17,0,.79.1,2l-3.28,3.67c1,2.26,2.72,3.51,4.23,4.78,2.29,0,2.83-2,4.47-3.17l4.56,2.14a9.61,9.61,0,0,0,.4,1.52c.18.42.62.72.84,1.14.32.61.54,1.26.84,2a22,22,0,0,0-3.15,1.62,18.58,18.58,0,0,0-2.27,2.23c-.77,0-1.11.1-1.25,0-1.11-.95-2.18-1.95-3.31-3H24.12v-3.71l-3.61-3.64c-1.72,1.73-3.44,3.47-5.17,5.2,1.33,1.13,2.31,2.93,3.16,3.33C21.42,466.17,22.53,464.39,24.12,464.09Z"/><path class="cls-1" d="M32.43,688.62l-4.48-4a19.65,19.65,0,0,0-4.56,4.26c-.13,2.64,2.92,2.91,2.95,4.44,0,.89.11,1.24,0,1.36-1.7,1.76-3.44,3.49-5.16,5.21-2.15-2-3.78-4.46-6.7-5.22-.27-2.23,1.73-2.86,2.87-4.43l.16-3.24-2.71-2c-1.89-.24-2.47,1.81-4,2.92l-3.19.15-3.52-5v-1.82l4-3.69h2.49l3.51,3.17c2.34-.8,3.5-2.66,4.81-4.13.32-2.57-2.84-2.77-3-4.9.15-.43.18-1,.46-1.28,1.53-1.61,3.13-3.17,4.7-4.75l1.62,1.47h1.44l2.19,4.31c0,2-2.32,2.39-3.06,4.77-.13,2,3,2.32,3.52,4.21l5.34-2.82,6,6c-.16-1,0-.73-.12-.65C36.31,684.73,34.58,686.46,32.43,688.62Zm-14.9-4.36,2.24,2.23h3l2.46-2L25,681.13l-2.19-2.08H19.77l-2.24,2.24Z"/><path class="cls-1" d="M13.71,167.32h-4s-1.61,2.46-2.39,3.44c-.83-.1-1.46,0-1.74-.25-1.79-1.68-3.49-3.43-5.25-5.2.31-.81.78-1.71.78-1.71h2l2.28-3c2.9-.41,3.22,2.64,5.53,3,1.88-.74,3.08-2.59,4.35-4.11.26-2.63-2.91-2.84-2.95-5.07a3.71,3.71,0,0,1,.51-1.29c1.67-1.79,3.39-3.54,4.7-4.85,1,0,1.35-.11,1.48,0,1.8,1.73,3.57,3.5,5.18,5.08.22,2.5-1.22,3.35-2.85,4.06-.58.25-1.14.56-1.76.87.59,2.67,2.64,3.73,4.07,5.22,2.28.27,2.77-2,4.25-3h3.22l3.41,4.17v2l-4.19,3.49H28l-3.55-3.2c-2.25.72-3.08,2.82-5.15,4.36l4.66,3.67c.49,2.15-.26,2.82-1,3.54-1.4,1.42-2.78,2.87-4.38,4.53-2.79-1.47-4.38-4.05-6.39-5.8.21-3.54,4-4.07,4.52-7,2.62-1.07,3.88-3.74,5.79-5.19-1.71-1.93-3.36-3.81-5-5.65l-3.78,3.85Z"/><path class="cls-1" d="M25.61,571.2h2.18L32,567a4,4,0,0,1,1,.55c1.57,1.52,3.11,3.08,4.84,4.81-1.25,2.69-3.74,4-5.34,6.18L28.57,574l-4.45,2.28v4.53l2.88,3a23.86,23.86,0,0,0-2.58,2.65,9.54,9.54,0,0,0-.91,2.51H20.33a21.38,21.38,0,0,0-2.55-2.58,9.74,9.74,0,0,0-2.59-1v-3.23l3.09-3.24c-.18-2.51-2.63-3.37-4.2-5.55l-4.93,4.92c-.14,0-.75,0-1-.23-1.8-1.7-3.52-3.47-5.12-5.07.17-.81.12-1.42.39-1.71,1.7-1.79,3.47-3.51,5.34-5.38,2.56,1.12,3.8,3.42,5.73,4.84l3.72-3.72v-2.62c-.53-1.35-3.15-.06-3-2.18A5.73,5.73,0,0,1,15.8,561c1.48-1.64,3-3.23,4.17-4.47a2.69,2.69,0,0,1,3.06,1c1.32,1.4,2.71,2.73,4.06,4.09l-4.62,4.62,3.14,2.25v2.79c-2.17,0-2.41-3.11-5-3a13.85,13.85,0,0,0-4.31,4.86c1.44,1.32,2.66,2.77,4.13,4a23.86,23.86,0,0,1,2.65-2.58,9.47,9.47,0,0,1,2.5-.91Z"/><path class="cls-1" d="M22.61,539.18c1.58,0,1.58.74,1.58,1.45l-1.44,1.58,2.84,2.85.15,3.12-3.82,3.68H19.31l-5.27-6c0-.47,1.36.39,2,0a17.2,17.2,0,0,0,2.17-2.11V540.6l-4.06-3.73-3.62,4.39a2.78,2.78,0,0,1-3.16-1c-1.35-1.41-2.75-2.77-4.17-4.19l.73-2H5.36c.77-1.75,1.45-3.54,3.26-4.52l1.65.18c.15.6.32,1.28.54,2.11l3.76,2,3.64-4.65c.05-1.37-2-1.91-3-3.33v-2.82c1.08-2.68,4.32-2,5.38-4.2,2.61.64,3.39,2.74,5,3.89v3.1l-2.88,3c1.83,1.43,1.43,4.77,4.43,5.19.25,0,.6.11.73,0,1.42-1.39,2.8-2.82,4.21-4.25,1.31.25,1.8,1.44,2.65,2.17s1.77,1.74,2.76,2.73v3.1a16,16,0,0,0-2.72,1.39,19.88,19.88,0,0,0-2.35,2.29c-2.2.25-2.4-.88-2.32-2.23L28,537l-1.58,1.44a10.5,10.5,0,0,0-3.78.75c-1.26.74-1,.82-.77.73.86-.36,1.16-1.41,2.33-1.6.56-.09.93-1.44,1.21-1.93-1.65-1.82-3.28-3.62-4.9-5.43-1.15,1.15-2.23,2.17-3.23,3.26a6.21,6.21,0,0,0-.63,1.5,9.54,9.54,0,0,0,1.17,1.52C18.86,538.16,19.55,539.59,22.61,539.18Z"/><path class="cls-1" d="M15.19,236.5v-2.15l1.46-1.59-4.08-4.08,5.58-5.58h2.56c.82,1.07,1.88,2.45,3.41,4.42v2.16l-2.94,3.39c.36,2.57,2.77,3.06,3.8,5.58,1.69-2,3.07-3.58,4.45-5.17l6.18,6.19-5.75,5.79c-1.81-.79-3-3.05-4.78-4.36l-5.79,5.46,5,4.92c-.59,1.86-2.49,3-4,4.35h-2l-5.11-5.16,4.08-4.07-4.15-4.16H10l-3.11,3c-.56-.05-1.21.09-1.49-.16-1.75-1.63-3.42-3.35-5.11-5L6.53,234l4,4h3.21v2.2c1.61,1.25,2.51,3.45,4.89,3.83,1.58-1.46,3.4-2.61,4.31-5-1.33-1.31-2.65-2.65-4-4-.12-.12-.46,0-.94,0Z"/><path class="cls-1" d="M16.68,611.37H13.81l-2.36,3H8L6.48,612,3,610.77c0-1.72,0-1.72,5.76-7,2.42.72,3.56,3.14,5.59,4.62,1.65-1.72,3.34-3.51,5.42-5.69l-4.69-4.56c0-.21,0-.81.24-1.1,1.69-1.78,3.46-3.48,5.06-5.06.82.19,1.42.15,1.71.42,1.79,1.68,3.5,3.42,5.16,5.07-.81,2.82-3.36,3.83-4.35,5.46l5.24,5.18c1.25-1.24,2.66-2.65,4.1-4,.14-.14.46-.08.7-.11s.6-.11.74,0c1.28,1.15,2.54,2.35,3.84,3.58v3.12l-5.4,5-4.07-4-3.92,3.27v3.26l2.67,2.7-1.94,3.5-3.61,1.83-5.93-6c0-.06,0-.73.27-.91a8.06,8.06,0,0,1,2-.67l2-4.24H22c.78-1.82,3.39-2.41,3.55-5-1.44-1.5-2.53-3.38-5-4.21-1.13,1.46-2.3,2.94-3.86,4.94Z"/><path class="cls-1" d="M21.35,199.3h2.19a4.73,4.73,0,0,1,1.57,1.12l4-4c1.67,1.68,5.38,5.52,5.38,5.52v2.16l-4,3.42h-3c-.17-.81-.3-1.5-.47-2.31-.87-1.11-2.2-.33-3.65-.64l-3.22,4.13c.77,1.75,3.37,2.68,4.17,4.88a5.9,5.9,0,0,1-.7,1.5c-1.55,1.61-3.14,3.18-4.75,4.73-.13.12-.48,0-.73,0s-.55,0-.69-.09c-1.81-1.7-3.59-3.43-5.36-5.14.52-3,3.12-4.05,4.34-5.85L11,203.19l-3.16,4.19c-2.08.51-2.74-.19-3.44-.93-1.31-1.41-2.68-2.76-4-4.13L6.64,196l3.93,4.09h3.14v2.66c1.93,1.2,2.73,3.71,5.28,3.79,1.32-1.53,3.1-2.53,4-4.39A21.58,21.58,0,0,0,21.35,199.3Z"/><path class="cls-1" d="M21.15,346.57c1.69.22,2.3,1.77,3.7,2.78,2.16-.87,3-3.54,5.46-4.3,3.47.95,4.22,4.32,6.09,6.8-1.71,1.85-3.74,3.59-5.76,5.68-2.29-1.47-3.67-3.23-5.33-4.69-.17,0-.44-.17-.51-.1-1.27,1.19-2.52,2.41-3.65,3.5,0,.47-.11.79,0,.95.89,1.16,1.82,2.28,3,3.69v2.84l-3.64,3.68H18.06l-5.76-5.59a24.6,24.6,0,0,0,2-2c.77-.9,2.19-1.36,2.21-3.09.11-1-1-1.39-1.71-2-.88-.8-1.41-2.1-2.38-2.17-.77,0-1.13-.1-1.26,0-1.44,1.4-2.84,2.83-4.22,4.23-1.68-.4-2.35-1.75-3.4-2.63s-1.77-1.69-2.82-2.7c1.15-2.76,3.84-4,5.24-5.93l4.1,4h3.33c1.06,2.61,3.72,3.86,5.35,6C20.08,354,22,353,23,350.93c-.59-.73-1.17-1.46-1.81-2.28Z"/><path class="cls-1" d="M15.19,124.92V120.7l-3.06-2.44c.2-2.89,2.86-3.48,3.63-5.24h4.51c1.35,1.34,2.55,2.55,4.18,4.18L19.64,122c.55,1.86,2.48,3,3.95,4.34,2.27.17,2.78-1.92,4.22-2.91h2.94c1.06.4.69,1.58,1,2.56l2.66,1c0,.92.09,1.91.12,2.51L29,135.29c-1.71-.64-2.48-3.52-4.28-4.12-1.85-.21-2.27.93-2.9,1.62-.8.88-2.09,1.42-2.16,2.41,0,.75-.11,1.12,0,1.25,1.42,1.43,2.87,2.82,4.25,4.16-.42,1.77-1.77,2.44-2.65,3.49s-1.68,1.78-2.7,2.84c-3-1.28-4.2-4.28-6.4-5.62.25-3.69,4-4.21,4.51-7.11,2.63-1.06,3.86-3.74,6-5.35l-3.76-3.94Z"/><path class="cls-1" d="M15,656.9c1.5-1.8,4.9-1.55,4.59-5l-2.95-1.4v-1.7l2.25-.91,2.65,3.71,3.93-4.39.27-3.34,3.46-.21,3.21-2.9c.58,0,.93-.11,1.06,0,1.82,1.65,3.6,3.33,5.39,5A9.51,9.51,0,0,0,37,649.45L35,650l-3.14,3.14-3.6-5-4.13,3.68c-.35,2.65,2.33,3.15,3,4.8-.12.62-.06,1.22-.33,1.51-1.28,1.41-2.89,2.56-3,4.84l-2.53.14Z"/><path class="cls-1" d="M3.34,646.18l5.1-5.06h3.19c.23.72.51,1.56.78,2.4,1,1,2.35.25,3.51.52l4-4-4.89-4.51.68-1.81h1.66l4.22-4.21a4.3,4.3,0,0,1,1,.56c1.57,1.52,3.11,3.08,4.43,4.39.07,2.51-2,3.05-2.95,4.43v2.87c-.87,1.39-2.23.64-2.91.76L10.62,653l-2.76-1.58a14.37,14.37,0,0,1-1.82-1A3,3,0,0,1,4.69,648C4.67,647.47,3.9,646.91,3.34,646.18Z"/><path class="cls-1" d="M13.71,200.77v-2.05l1.48-1.6v-3.07c-.22-.22-.37-.52-.58-.56-1.16-.24-2.63,0-2.49-1.37l6.48-6.48c2.16,1.12,3.81,3.66,6.07,5.57-.38.9-.65,1.54-.91,2.14H21.87l-2.16,2.16c.47.52.94,1,1.44,1.57v2.2l-3.09-1.54C16,198.52,15.58,200.56,13.71,200.77Z"/><path class="cls-1" d="M13.91,130.87h-4c-.82.9-1.78,2-2.61,2.9a2.09,2.09,0,0,1-2.65-1c-.84-1.86-3.53-1.22-4.15-3,0-.52-.1-.86,0-1,1-1.07,1.94-2.16,3-3.13.87-.79,1.41-2,2.56-2.2,2.4-.08,2.67,2.87,5.27,3l1.91-1.51H15.4C13.91,127.74,13.91,127.74,13.91,130.87Z"/><path class="cls-1" d="M16.68,346.57v-2.23l-4.23-4.19a4.29,4.29,0,0,1,.54-1c1.9-1.94,3.83-3.85,5.92-5.94,1.51,1.5,3,3,4.53,4.54a5.45,5.45,0,0,1,.69,1.21c-.05,2-2.05,2.57-3,3.93v3.7Z"/><path class="cls-1" d="M13.91,349.23c0-.87,0-1.74,0-3l2.95,0A3.66,3.66,0,0,1,13.91,349.23Z"/><path class="cls-1" d="M15.4,279.31a1.26,1.26,0,0,1-1.49-1.49C14.94,277.78,15.43,278.28,15.4,279.31Z"/><path class="cls-1" d="M13.91,237.66a1.26,1.26,0,0,1,1.49-1.49A1.27,1.27,0,0,1,13.91,237.66Z"/><path class="cls-1" d="M15.4,169.23c-1,0-1.53-.46-1.49-1.49C14.94,167.7,15.43,168.2,15.4,169.23Z"/><path class="cls-1" d="M15.4,132c-1,0-1.53-.46-1.49-1.49C14.94,130.51,15.43,131,15.4,132Z"/><path class="cls-1" d="M16.88,170.71c-1,0-1.52-.45-1.48-1.48C16.43,169.19,16.92,169.68,16.88,170.71Z"/><path class="cls-1" d="M16.88,133.52c-1,0-1.52-.45-1.48-1.48C16.43,132,16.92,132.49,16.88,133.52Z"/><path class="cls-1" d="M18.37,612.53c-1,0-1.52-.46-1.49-1.49C17.91,611,18.41,611.5,18.37,612.53Z"/><path class="cls-1" d="M19.86,614a1.26,1.26,0,0,1-1.49-1.49A1.26,1.26,0,0,1,19.86,614Z"/><path class="cls-1" d="M24.32,426.58a1.26,1.26,0,0,1-1.49,1.49C22.8,427,23.29,426.54,24.32,426.58Z"/></g></g></svg>