<svg xmlns="http://www.w3.org/2000/svg" viewBox="0 0 605.28 268.3"><defs><style>.cls-1,.cls-2,.cls-3{fill:none;stroke:#7a3b6e;stroke-miterlimit:10;stroke-width:3px;}.cls-2{stroke-dasharray:4.01 4.01;}.cls-3{stroke-dasharray:4.02 4.02;}</style></defs><title>CuentameIndice1</title><g id="Layer_2" data-name="Layer 2"><g id="textos"><path d="M244,30.35l-2,1.94-3.63.1-2.54,5.3.16,5.7c2.23,1.6,2.13,4.86,4.43,6.79,1.9,1.59,4.62,1.41,6,3.69l6.23-.18c4.19-1.82,7.05-3.88,8.85-7.18l-1.8-2.15,2.7-.74c3.53,3.69-1,6.22-.94,9.18l-8.35,4.65-6.77.19c-.9-.22-1.44-2.63-3.11-1.66-3-3-5.89-5.91-9-9L234.12,43,232,40.87c.21-2.58,3.22-4.7,1.43-7.85-1.85-1.24-4.1-.13-6.24-.38l-2.05,2-5.6.15-2,2-5.12.14a24.81,24.81,0,0,1-3.85,1.94c-1.09.35-2.43-.16-3.25,1.1-1.07,1.63-2.79.71-5.08,1.46l-2.34,3.45-2.57.07c-1.39,1.6-2.82,3.23-4.38,5l.1,3.52-1.83,2.13.09,3.19s1.51,1.3,2.13,1.94c-1,1.22-2.09,1.1-4,.51l-.32-11.71c1.7-1.66,3.13-3,3.82-4.62A11.85,11.85,0,0,1,197,38.63c4.12-2.15,8.19-4.43,12.32-6.6.77-.4,1.67-1.3,2.29-1.14,2.78.72,4.06-2.78,6.73-2.17,2.32.54,3.89-1.15,5.79-1.93,1.63-.67,3.62-.47,5.44-.65,1.16-2.7,4.14-.7,5.68-2.19.95-.91,1.78-1.71,3.38-1.36l5-5.5c3.15,0,4.17-3.25,6.62-4.39a26.9,26.9,0,0,0,6.13-3.32c1.41-1.17,3.08-.15,4.42-.81,1-.52,1.44-2,3-1.87,3.12.28,5.26-2.87,8.47-2.46.37,0,.86-.85,1.62-1.14l11.32-.32A6.06,6.06,0,0,1,286.89.85L317.27,0l2.16,1.83,7.08-.2,2.09,1.83,7.48-.21,1.54,1.46c.94.81,2.42-.21,3.38.34a15.72,15.72,0,0,0,6.75,2c.95.09,1.7,1.52,3.16,1.52.73,0,1.55.91,2.16,1.56,2.1,2.25,5.38,2.6,7.47,5.06,2.43,2.86,5.41,5.25,8.19,7.88l5.54-.15c.72.62,1.39,1.22,2.09,1.83l1.92-.05L379.76,26c2.17,1,5.26-.52,6.87,2.17,3.12-1.29,5.16,1.71,8.09,1.82,2.26.08,4.44,1.72,6.66,2.65s4.46,1.84,7.52,3.1a63.14,63.14,0,0,0,5.76,5.07c2.16,1.54,2.2,4.31,4.48,5.9l.32,11.64-2.95,2.84-2.85-.73,2-2.25-.31-10.89c-4.05-5.76-11.38-6.09-16.61-9.73-4.12.26-7.56-3.24-11.89-1.8-.8-.61-1.55-1.16-2.47-1.85L380,34.1l-2.13-1.86c-2,.14-4.13-.51-6.24.75l.26,9.07c-2.06,2.89-2.39,6.61-5.43,8.31l.06,2.09-5.12,2.92-12.28.34c-3-2.89-5.92-5.75-9.18-8.9l-.1-3.47,2.4-1.06c2.4,3.16,3.07,7.35,6.37,9.67l13.2-.37,3.44-3.71c1.4-2.72,2.08-4,2.87-5.55l-.3-10.89c-1.91-1.72-4.11-.55-6.14-.66s-4.17.08-5.8.13L354,29.17l-20.13.56c-.69-.62-1.37-1.22-2.07-1.83ZM326.81,8.23,272.16,9.75l-2,2.89-7.39.2-2.1,1.95-4.69.13L243,22c.45.43.69.86.91.86,3.24-.05,6.47-.16,9.67-.24.7-.7,1.38-1.37,2.09-2.06l26.15-.73a28,28,0,0,1,1.91-2.22c.84.66,2.36,2.1,2.36,2.1l46.83-1.31,1.85.89L350,18.9l1.67,1.58a60.2,60.2,0,0,0,8.3-.33c-3.1-5.22-8.63-5.77-12.83-8.72l-7.22.2L337.94,9.8l-9.45.27Z"/><path class="cls-1" d="M602.17,262.55a9.56,9.56,0,0,1,1.13,1.64c-.57.39-1.1.82-1.6,1.2"/><path class="cls-2" d="M598,266.74c-1.63.12-3.3,0-4.94,0H14.24A46.64,46.64,0,0,1,7,266.54a3,3,0,0,1-1-.4"/><path class="cls-1" d="M4.31,265c-.47-.37-1-.78-1.61-1.19.62-.41,1.16-.81,1.63-1.16"/><path class="cls-3" d="M7.9,260.94a50.12,50.12,0,0,1,5.62-.09q289.78,0,579.57.1c2.35,0,5.1-1,7.53.33"/></g></g></svg>