<svg xmlns="http://www.w3.org/2000/svg" viewBox="0 0 702.26 24.05"><defs><style>.cls-1{fill:#7a3b6e;}</style></defs><title>CuentameQuote2</title><g id="Layer_2" data-name="Layer 2"><g id="ornamentos"><path class="cls-1" d="M192.29,18.05c-.56,2.91-3.53,3.81-5,6H159.1l-9.14-9c-.43-1.76.44-2.68,1.44-3.65,3.13-3.05,6.2-6.17,9.38-9.36H181.4l1.72,1.72,2.09-1.83c1.06,1.84,3.4,1.52,4.82,2.73s2.88,2.83,4.31,4.26V12c-2.57-.32-3.27-3.15-5.13-3.93H158.75c-1.57,2.23-4.4,3.3-5,6.25.59,1.69,2.16,2.5,3.16,3.75Z"/><path class="cls-1" d="M290.58,18.05c-.55,2.91-3.52,3.8-4.95,6H259.55l-9.21-9.47V11.5l9.17-9.45h26c1.43,2.2,4.39,3.09,4.94,6q-16.44,0-32.86,0c-.26,0-.51.35-1,.67l-2.32,2.56c.07,1.55.13,2.84.15,3.28l2.75,3.49Z"/><path class="cls-1" d="M390.31,18.05c-.54,2.91-3.52,3.79-4.95,6H359.87L348.45,12.63,359,2.05h26.52c1.36,2.09,4.43,3,5,6H359l-6.24,4.76L357,18.05Z"/><path class="cls-1" d="M44.34,15.94V19l-5.05,5H11C7.91,20.27,2.37,19.4,0,15A50.77,50.77,0,0,1,3.42,9.34,65.46,65.46,0,0,1,8.61,4.05h31c.94,2,1.91,4,2.89,6H39.3l-2.13-2H13.34l-2.14,2H7.9C6.78,11.54,4.62,12.34,5,14.75l2.7,3.3h7.7l3.69,2.18,2.78-2.32c1.81.14,4.16-.62,5.63,1.84,1.55,0,3.15.6,4.58-.37L33.46,18c2.84-.21,5.73.21,6.32.12Z"/><path class="cls-1" d="M244.41,12.09c2-.16,2,1.2,2,2.1l-9.87,9.86h-26.2L200.1,13.81c0-.52.05-1.88,2-1.72.52,2.88,3.48,3.74,4.91,6H239.5C240.94,15.83,243.89,15,244.41,12.09Z"/><path class="cls-1" d="M302.34,16.17c-.57-.23-1.52-.36-1.62-.72a20,20,0,0,1-.43-3.32l9.9-10.08h25.29L339,5.63l3.35,1.12v3.31c-1.67.3-2-1.56-3.16-2H307.33l-5,5.06Z"/><path class="cls-1" d="M450.34,12.07V9.24l7.19-7.19h28c1.44,2.2,4.41,3.1,5,6h-35C453.32,9.69,452.54,11.79,450.34,12.07Z"/><path class="cls-1" d="M642.34,12v2.8l-7,7.21H607.12c-1.44-2.19-4.41-3.09-5-6h35C639.35,14.41,640.13,12.32,642.34,12Z"/><path class="cls-1" d="M602.34,8.05V5c1.33-2.93,5-2.59,6.88-5h24.22c2.11,2.08,3.9,4.36,6.9,4.81V8.05c-1.07-.62-2.15-1.24-3.43-2H607.42l-2.12,2Z"/><path class="cls-1" d="M342.34,16.16v2.92c-1.34,2.94-5,2.6-6.88,5H309.19c-1.41-2.17-4.34-3-4.85-5.89,11.28,0,22.56,0,33.85,0,.58,0,1.16-.37-.38.16Z"/><path class="cls-1" d="M552.31,8.06c1.28-3.59,5-5,6.65-8h12.28l2.1,2,1.9-1.91c2.32-.35,5.25.13,7.14,0,4.4,1.8,7.57,3.91,10,7.18v2.8c-2.48-.38-3.26-3-5.28-4H557.4l-2.11,2Z"/><path class="cls-1" d="M590.51,16.05c-.52,2.9-3.49,3.77-4.93,6H556.94c-1.45-2.23-4.42-3.1-4.94-6h13.08l2.13,2,2.13-2Z"/><path class="cls-1" d="M440.34,16.05v3c-1.42,2.94-5.12,2.66-7,5H409.1c-2-2.75-5.5-4.45-6.9-8h3l2.13,2c10,0,19.94,0,29.89,0,.25,0,.49-.38,1.53-1.23Z"/><path class="cls-1" d="M650.23,8.05c1.4-3.54,4.87-5.24,6.9-8h26.2c1.43,2.2,4.4,3.1,5,6H655.35l-2.13,2Z"/><path class="cls-1" d="M688.5,16.05c-.54,2.88-3.56,3.7-4.7,6H656.94c-1.44-2.23-4.41-3.1-4.93-6Z"/><path class="cls-1" d="M404,8.05c.54-2.87,3.57-3.69,4.7-6h26.86c1.45,2.24,4.41,3.11,4.93,6Z"/><path class="cls-1" d="M204.23,10.05c1.4-3.54,4.87-5.24,6.9-8h24.19c1.44,2.2,4.41,3.1,5,6H209.35l-2.13,2Z"/><path class="cls-1" d="M92.26,19.05c-.49,1.9-4.58,5-4.58,5H59l-2.88-6c2.58.32,5.27-.63,7.5.35l1.69,1.68,2.13-2h5.62l3.21,2.48a10.44,10.44,0,0,1,3.22-1.48Z"/><path class="cls-1" d="M101.82,15.85c0-.14.16-.76.3-1.39.72-.54.72-.54,6.65,5.39l2.22-1.8h8.17c1.16.38,1.79,2.7,4.07,1.89L125.35,18,127.44,20,129.56,18l1.53,1.53c2-.43,3.71-2.26,7.26-1.26l2.08,3L135,24.05H110C107.14,21.19,104.58,18.61,101.82,15.85Z"/><path class="cls-1" d="M140.42,7.52c-1,.66-1.78,1.17-3.77,2.5-1.55.67-4.55-.7-7.21.05l-2-2-3.37-.22L119.9,10.2l-2.69-2.15h-5.8c-2.38,1.6-5,3.32-8.15,3.85-.2,0-.49-.38-.73-.59,0-.24-.15-.58,0-.7,2.11-2.14,4.24-4.26,6.53-6.56H140.1C140.23,5.4,140.34,6.65,140.42,7.52Z"/><path class="cls-1" d="M502,8.05c.52-2.89,3.49-3.76,4.94-6h28.64c1.44,2.24,4.41,3.11,4.93,6H537.3l-2.12-2h-5.89l-2.08,2c-2.08.71-4.08-1-4.08-1h-5.86l-2.14,1Z"/><path class="cls-1" d="M490.28,16.05c-.54,2.91-3.51,3.79-4.95,6h-5.92c-.71.67-1.42,1.32-2.16,2h-3.92c-.71-.65-1.43-1.32-2.15-2H461.3l-2.13,2c-1.43-2.21-4.38-3.09-4.91-6a5,5,0,0,0,5-1.91l2.1,1.91h23.79l2.12-2Z"/><path class="cls-1" d="M540.51,16.05c-.52,2.9-3.49,3.77-4.93,6H506.94c-1.45-2.23-4.41-3.1-4.94-6l1.94-1,3.2,3c6.32,0,12.63,0,18.94,0a6.88,6.88,0,0,0,1.78-.5l1.45-1.45,2.08,1.94,2.1-2Z"/><path class="cls-1" d="M55.08,8.05c-.21-2.16,2.27-2.35,2.65-4h32c.23,1,.44,1.93.72,3.14L94.34,9v3.2l-8-4.14Z"/><path class="cls-1" d="M552.34,16.06c-2.07-.34-3-1.95-4-3.51.14-2.59,1.73-3.85,4-4.49Z"/><path class="cls-1" d="M502.34,16.06c-2.07-.34-3-1.95-4-3.51.14-2.59,1.73-3.85,4-4.49Z"/><path class="cls-1" d="M652.26,16.06c-2,.1-2.4-1.95-4-2.82a30.23,30.23,0,0,1,0-3.68,1.56,1.56,0,0,1,2-1.5c0,1.59-.35,3.22,1.33,4.37C652.93,13.34,652,14.85,652.26,16.06Z"/><path class="cls-1" d="M56.26,18.05H53.18c-1.49-2.3-1-4.82-.54-7.29.06-.33,1-.48,1.62-.71C54.26,14.26,54.26,14.26,56.26,18.05Z"/><path class="cls-1" d="M292.34,10.06c2-.2,2.22,2.07,3.83,2.48-.88,1.86-1.91,3.17-3.83,3.52Z"/><path class="cls-1" d="M602.34,16.06a4.93,4.93,0,0,1-3.92-3.58,1.7,1.7,0,0,1,1.92-2.42l2,3.46Z"/><path class="cls-1" d="M144.34,11.38c2.94,2.1,1.71,4.09,1.87,6.3l-3.18.37c-1-2,1.18-2.05,1.31-3.91Z"/><path class="cls-1" d="M390.26,8.06l4,0c0,1.64,0,2.81,0,4A4.9,4.9,0,0,1,390.26,8.06Z"/><path class="cls-1" d="M342.1,16l.45-6c2.42.12,1.68,2.09,1.77,3.49S344.22,16.31,342.1,16Z"/><path class="cls-1" d="M402.58,10.08l-.46,6c-2.41-.12-1.67-2.08-1.76-3.48S400.45,9.81,402.58,10.08Z"/><path class="cls-1" d="M690.1,14l.45-6c2.42.12,1.68,2.09,1.77,3.49S692.22,14.31,690.1,14Z"/><path class="cls-1" d="M592.05,14l.49-3.94c1.69,0,1.9,1.2,1.76,2.49A1.59,1.59,0,0,1,592.05,14Z"/><path class="cls-1" d="M44.05,16l.49-3.94c1.69,0,1.9,1.2,1.76,2.49A1.59,1.59,0,0,1,44.05,16Z"/><path class="cls-1" d="M94.05,16l.49-3.94c1.69,0,1.9,1.2,1.76,2.49A1.59,1.59,0,0,1,94.05,16Z"/><path class="cls-1" d="M194.38,16.07l.52-4c1.36.14,1.53,1.29,1.4,2.48A1.55,1.55,0,0,1,194.38,16.07Z"/><path class="cls-1" d="M442.05,14l.49-3.94c1.69,0,1.9,1.2,1.76,2.49A1.59,1.59,0,0,1,442.05,14Z"/><path class="cls-1" d="M492.05,14l.49-3.94c1.69,0,1.9,1.2,1.76,2.49A1.59,1.59,0,0,1,492.05,14Z"/><path class="cls-1" d="M542.05,14l.49-3.94c1.69,0,1.9,1.2,1.76,2.49A1.59,1.59,0,0,1,542.05,14Z"/><path class="cls-1" d="M394.26,14.06a1.7,1.7,0,0,1-2,2C392.21,14.67,392.87,14,394.26,14.06Z"/><path class="cls-1" d="M442.26,14.06a1.7,1.7,0,0,1-2,2C440.21,14.67,440.87,14,442.26,14.06Z"/><path class="cls-1" d="M452.26,16.06c-1.39.05-2.05-.62-2-2C451.64,14,452.31,14.67,452.26,16.06Z"/><path class="cls-1" d="M492.26,14.06a1.7,1.7,0,0,1-2,2C490.21,14.67,490.87,14,492.26,14.06Z"/><path class="cls-1" d="M542.26,14.06a1.7,1.7,0,0,1-2,2C540.21,14.67,540.87,14,542.26,14.06Z"/><path class="cls-1" d="M592.26,14.06a1.7,1.7,0,0,1-2,2C590.21,14.67,590.87,14,592.26,14.06Z"/><path class="cls-1" d="M690.26,14.06a1.7,1.7,0,0,1-2,2C688.21,14.67,688.87,14,690.26,14.06Z"/><path class="cls-1" d="M702.26,16.06c-1.39.05-2-.62-2-2C701.64,14,702.31,14.67,702.26,16.06Z"/><path class="cls-1" d="M94.26,16.06a1.7,1.7,0,0,1-2,2C92.21,16.67,92.87,16,94.26,16.06Z"/><path class="cls-1" d="M194.26,16.06a1.7,1.7,0,0,1-2,2C192.21,16.67,192.87,16,194.26,16.06Z"/><path class="cls-1" d="M292.26,16.06a1.7,1.7,0,0,1-2,2C290.21,16.67,290.87,16,292.26,16.06Z"/><path class="cls-1" d="M304.26,18.06c-1.39.05-2.05-.62-2-2C303.64,16,304.31,16.67,304.26,18.06Z"/><path class="cls-1" d="M392.26,16.06a1.7,1.7,0,0,1-2,2C390.21,16.67,390.87,16,392.26,16.06Z"/><path class="cls-1" d="M454.26,18.06c-1.39.05-2.05-.62-2-2C453.64,16,454.31,16.67,454.26,18.06Z"/><path class="cls-1" d="M54.26,10.06c0-1.39.61-2.05,2-2A1.7,1.7,0,0,1,54.26,10.06Z"/><path class="cls-1" d="M140.26,8.06c1.38-.05,2.05.61,2,2C140.87,10.11,140.21,9.44,140.26,8.06Z"/><path class="cls-1" d="M240.26,8.06c1.38-.05,2.05.61,2,2C240.87,10.11,240.21,9.44,240.26,8.06Z"/><path class="cls-1" d="M290.26,8.06c1.38-.05,2.05.61,2,2C290.87,10.11,290.21,9.44,290.26,8.06Z"/><path class="cls-1" d="M402.26,10.06c-.05-1.39.61-2.05,2-2A1.7,1.7,0,0,1,402.26,10.06Z"/><path class="cls-1" d="M440.26,8.06c1.38-.05,2.05.61,2,2C440.87,10.11,440.21,9.44,440.26,8.06Z"/><path class="cls-1" d="M490.26,8.06c1.38-.05,2.05.61,2,2C490.87,10.11,490.21,9.44,490.26,8.06Z"/><path class="cls-1" d="M540.26,8.06c1.38-.05,2,.61,2,2C540.87,10.11,540.21,9.44,540.26,8.06Z"/><path class="cls-1" d="M600.26,10.06c0-1.39.61-2.05,2-2A1.7,1.7,0,0,1,600.26,10.06Z"/><path class="cls-1" d="M688.26,6.06c1.38,0,2,.61,2,2C688.87,8.11,688.21,7.44,688.26,6.06Z"/><path class="cls-1" d="M42.26,10.06c1.38-.05,2.05.61,2,2C42.87,12.11,42.21,11.44,42.26,10.06Z"/><path class="cls-1" d="M640.26,8.06c1.38-.05,2,.61,2,2C640.87,10.11,640.21,9.44,640.26,8.06Z"/><path class="cls-1" d="M142.26,10.06c1.38-.05,2.05.61,2,2C142.87,12.11,142.21,11.44,142.26,10.06Z"/><path class="cls-1" d="M700.82,7.83l-1.75,2C697.72,8.13,699.26,8.27,700.82,7.83Z"/><path class="cls-1" d="M202.26,12.06c0-1.39.61-2.05,2-2A1.7,1.7,0,0,1,202.26,12.06Z"/><path class="cls-1" d="M242.26,10.06c1.38-.05,2.05.61,2,2C242.87,12.11,242.21,11.44,242.26,10.06Z"/><path class="cls-1" d="M642.34,10.06c1-.07,1.85.13,1.58,1.32-.07.33-1,.46-1.58.68Z"/><path class="cls-1" d="M394.34,12.06c1-.07,1.85.13,1.58,1.32-.07.33-1,.46-1.58.68Z"/><path class="cls-1" d="M450.34,14.06c-1,.07-1.86-.13-1.59-1.33.07-.32,1-.45,1.59-.67Z"/><path class="cls-1" d="M700.48,14.62l-2-1.75C700.19,11.52,700,13.06,700.48,14.62Z"/><path class="cls-1" d="M702.26,6.06a1.7,1.7,0,0,1-2,2C700.21,6.67,700.87,6,702.26,6.06Z"/></g></g></svg>