<svg xmlns="http://www.w3.org/2000/svg" viewBox="0 0 883.68 29.68"><title>CuentameTitulo</title><g id="Layer_2" data-name="Layer 2"><g id="ornamentos"><path d="M17.56,2.72a1.53,1.53,0,0,0-1.68.53,1.13,1.13,0,0,0-.21-1.37A3.94,3.94,0,0,1,14.83,0,4.09,4.09,0,0,1,14,1.84a1.38,1.38,0,0,0-.21,1.47c-.08-.16-.5-.79-1.72-.59a2.4,2.4,0,0,0-1.58,1.41s1.4-.48,1.84.21,1.2,2.25,2.48,1c1.27,1.2,2-.35,2.48-1s1.83-.21,1.83-.21A2.4,2.4,0,0,0,17.56,2.72Z"/><path d="M2.72,12.12a1.55,1.55,0,0,0,.53,1.69,1.11,1.11,0,0,0-1.37.2A3.89,3.89,0,0,1,0,14.86a4.15,4.15,0,0,1,1.84.8,1.36,1.36,0,0,0,1.47.21c-.16.08-.79.5-.59,1.72a2.4,2.4,0,0,0,1.41,1.58s-.48-1.39.21-1.83,2.25-1.21,1-2.48c1.2-1.28-.35-2-1-2.48s-.21-1.84-.21-1.84A2.4,2.4,0,0,0,2.72,12.12Z"/><path d="M12.12,27a1.53,1.53,0,0,0,1.69-.53A1.11,1.11,0,0,0,14,27.8a3.93,3.93,0,0,1,.85,1.88,4,4,0,0,1,.8-1.83,1.37,1.37,0,0,0,.21-1.48c.08.16.5.8,1.72.59a2.4,2.4,0,0,0,1.58-1.41s-1.39.49-1.83-.21-1.21-2.25-2.48-1c-1.28-1.21-2,.35-2.49,1s-1.83.21-1.83.21A2.4,2.4,0,0,0,12.12,27Z"/><path d="M27,17.56a1.51,1.51,0,0,0-.53-1.68,1.13,1.13,0,0,0,1.37-.21,4,4,0,0,1,1.88-.84A4.08,4.08,0,0,1,27.85,14a1.4,1.4,0,0,0-1.48-.21c.16-.08.8-.5.59-1.72a2.4,2.4,0,0,0-1.41-1.58s.49,1.4-.21,1.84-2.25,1.2-1,2.48c-1.21,1.27.34,2,1,2.48s.21,1.83.21,1.83A2.4,2.4,0,0,0,27,17.56Z"/><path d="M24.5,5.18c-.85,1.19-3.92.32-3.92.32l-.34.43c.72,2.83-1.67,5.18-1.67,5.18s2.35-2.39,5.19-1.67l.42-.34S23.31,6,24.5,5.18Z"/><path d="M5.18,5.18C6.37,6,5.5,9.1,5.5,9.1l.43.34c2.83-.72,5.18,1.67,5.18,1.67S8.72,8.76,9.44,5.93L9.1,5.5S6,6.37,5.18,5.18Z"/><path d="M5.18,24.5c.85-1.19,3.92-.32,3.92-.32l.34-.42c-.72-2.84,1.67-5.19,1.67-5.19S8.76,21,5.93,20.24l-.43.34S6.37,23.65,5.18,24.5Z"/><path d="M24.5,24.5c-1.19-.85-.32-3.92-.32-3.92l-.42-.34c-2.84.72-5.19-1.67-5.19-1.67s2.39,2.35,1.67,5.19l.34.42S23.65,23.31,24.5,24.5Z"/><path d="M12.59,14.82a2.27,2.27,0,1,0,2.27-2.27A2.27,2.27,0,0,0,12.59,14.82Z"/><path d="M159.9,2.72a1.54,1.54,0,0,0-1.69.53,1.12,1.12,0,0,0-.2-1.37A3.89,3.89,0,0,1,157.16,0a4.15,4.15,0,0,1-.8,1.84,1.34,1.34,0,0,0-.21,1.47c-.09-.16-.5-.79-1.73-.59a2.39,2.39,0,0,0-1.57,1.41s1.39-.48,1.83.21,1.21,2.25,2.48,1c1.27,1.2,2-.35,2.48-1s1.83-.21,1.83-.21A2.39,2.39,0,0,0,159.9,2.72Z"/><path d="M145.05,12.12a1.57,1.57,0,0,0,.53,1.69,1.11,1.11,0,0,0-1.37.2,3.89,3.89,0,0,1-1.88.85,4.15,4.15,0,0,1,1.84.8,1.36,1.36,0,0,0,1.47.21c-.15.08-.79.5-.59,1.72a2.43,2.43,0,0,0,1.42,1.58s-.49-1.39.21-1.83,2.24-1.21,1-2.48c1.2-1.28-.35-2-1-2.48s-.21-1.84-.21-1.84A2.43,2.43,0,0,0,145.05,12.12Z"/><path d="M154.45,27a1.52,1.52,0,0,0,1.69-.53,1.12,1.12,0,0,0,.2,1.37,3.93,3.93,0,0,1,.85,1.88,4.13,4.13,0,0,1,.8-1.83,1.35,1.35,0,0,0,.21-1.48c.09.16.5.8,1.73.59a2.39,2.39,0,0,0,1.57-1.41s-1.39.49-1.83-.21-1.21-2.25-2.48-1c-1.28-1.21-2,.35-2.48,1s-1.83.21-1.83.21A2.39,2.39,0,0,0,154.45,27Z"/><path d="M169.3,17.56a1.55,1.55,0,0,0-.53-1.68,1.13,1.13,0,0,0,1.37-.21,3.94,3.94,0,0,1,1.88-.84,4.09,4.09,0,0,1-1.84-.81,1.4,1.4,0,0,0-1.48-.21c.16-.08.8-.5.6-1.72a2.43,2.43,0,0,0-1.42-1.58s.49,1.4-.21,1.84-2.24,1.2-1,2.48c-1.2,1.27.35,2,1,2.48s.21,1.83.21,1.83A2.43,2.43,0,0,0,169.3,17.56Z"/><path d="M166.83,5.18c-.85,1.19-3.92.32-3.92.32l-.33.43c.71,2.83-1.68,5.18-1.68,5.18s2.35-2.39,5.19-1.67l.42-.34S165.65,6,166.83,5.18Z"/><path d="M147.52,5.18c1.18.85.32,3.92.32,3.92l.42.34c2.84-.72,5.19,1.67,5.19,1.67s-2.4-2.35-1.68-5.18l-.33-.43S148.36,6.37,147.52,5.18Z"/><path d="M147.52,24.5c.84-1.19,3.92-.32,3.92-.32l.33-.42c-.72-2.84,1.68-5.19,1.68-5.19s-2.35,2.39-5.19,1.67l-.42.34S148.7,23.65,147.52,24.5Z"/><path d="M166.83,24.5c-1.18-.85-.32-3.92-.32-3.92l-.42-.34c-2.84.72-5.19-1.67-5.19-1.67s2.39,2.35,1.68,5.19l.33.42S166,23.31,166.83,24.5Z"/><path d="M154.92,14.82a2.27,2.27,0,1,0,2.27-2.27A2.27,2.27,0,0,0,154.92,14.82Z"/><path d="M302.23,2.72a1.54,1.54,0,0,0-1.69.53,1.11,1.11,0,0,0-.2-1.37A3.89,3.89,0,0,1,299.49,0a4.15,4.15,0,0,1-.8,1.84,1.36,1.36,0,0,0-.21,1.47c-.08-.16-.5-.79-1.72-.59a2.4,2.4,0,0,0-1.58,1.41s1.39-.48,1.83.21,1.21,2.25,2.48,1c1.28,1.2,2-.35,2.48-1s1.83-.21,1.83-.21A2.37,2.37,0,0,0,302.23,2.72Z"/><path d="M287.39,12.12a1.53,1.53,0,0,0,.53,1.69,1.11,1.11,0,0,0-1.37.2,3.93,3.93,0,0,1-1.88.85,4.13,4.13,0,0,1,1.83.8,1.37,1.37,0,0,0,1.48.21c-.16.08-.8.5-.59,1.72a2.4,2.4,0,0,0,1.41,1.58s-.49-1.39.21-1.83,2.25-1.21,1-2.48c1.21-1.28-.35-2-1-2.48s-.21-1.84-.21-1.84A2.4,2.4,0,0,0,287.39,12.12Z"/><path d="M296.79,27a1.51,1.51,0,0,0,1.68-.53,1.13,1.13,0,0,0,.21,1.37,4,4,0,0,1,.84,1.88,4.08,4.08,0,0,1,.81-1.83,1.4,1.4,0,0,0,.21-1.48c.08.16.49.8,1.72.59a2.37,2.37,0,0,0,1.57-1.41s-1.39.49-1.83-.21-1.2-2.25-2.48-1c-1.27-1.21-2,.35-2.48,1s-1.83.21-1.83.21A2.4,2.4,0,0,0,296.79,27Z"/><path d="M311.63,17.56a1.53,1.53,0,0,0-.53-1.68,1.13,1.13,0,0,0,1.37-.21,3.94,3.94,0,0,1,1.88-.84,4.09,4.09,0,0,1-1.84-.81,1.38,1.38,0,0,0-1.47-.21c.15-.08.79-.5.59-1.72a2.43,2.43,0,0,0-1.41-1.58s.48,1.4-.21,1.84-2.25,1.2-1.05,2.48c-1.2,1.27.35,2,1.05,2.48s.21,1.83.21,1.83A2.43,2.43,0,0,0,311.63,17.56Z"/><path d="M309.16,5.18c-.84,1.19-3.91.32-3.91.32l-.34.43c.72,2.83-1.68,5.18-1.68,5.18s2.36-2.39,5.19-1.67l.43-.34S308,6,309.16,5.18Z"/><path d="M289.85,5.18c1.19.85.32,3.92.32,3.92l.42.34c2.84-.72,5.19,1.67,5.19,1.67s-2.39-2.35-1.67-5.18l-.34-.43S290.7,6.37,289.85,5.18Z"/><path d="M289.85,24.5c.85-1.19,3.92-.32,3.92-.32l.34-.42c-.72-2.84,1.67-5.19,1.67-5.19s-2.35,2.39-5.19,1.67l-.42.34S291,23.65,289.85,24.5Z"/><path d="M309.16,24.5c-1.18-.85-.31-3.92-.31-3.92l-.43-.34c-2.83.72-5.19-1.67-5.19-1.67s2.4,2.35,1.68,5.19l.34.42S308.32,23.31,309.16,24.5Z"/><path d="M297.25,14.82a2.28,2.28,0,1,0,2.28-2.27A2.27,2.27,0,0,0,297.25,14.82Z"/><path d="M444.56,2.72a1.53,1.53,0,0,0-1.68.53,1.13,1.13,0,0,0-.21-1.37A3.94,3.94,0,0,1,441.83,0,4.09,4.09,0,0,1,441,1.84a1.38,1.38,0,0,0-.21,1.47c-.08-.16-.5-.79-1.72-.59a2.4,2.4,0,0,0-1.58,1.41s1.4-.48,1.84.21,1.2,2.25,2.48,1c1.27,1.2,2-.35,2.48-1s1.83-.21,1.83-.21A2.4,2.4,0,0,0,444.56,2.72Z"/><path d="M429.72,12.12a1.55,1.55,0,0,0,.53,1.69,1.11,1.11,0,0,0-1.37.2,3.89,3.89,0,0,1-1.88.85,4.15,4.15,0,0,1,1.84.8,1.36,1.36,0,0,0,1.47.21c-.16.08-.79.5-.59,1.72a2.4,2.4,0,0,0,1.41,1.58s-.48-1.39.21-1.83,2.25-1.21,1.05-2.48c1.2-1.28-.35-2-1.05-2.48s-.21-1.84-.21-1.84A2.4,2.4,0,0,0,429.72,12.12Z"/><path d="M439.12,27a1.53,1.53,0,0,0,1.69-.53,1.11,1.11,0,0,0,.2,1.37,3.93,3.93,0,0,1,.85,1.88,4,4,0,0,1,.8-1.83,1.37,1.37,0,0,0,.21-1.48c.08.16.5.8,1.72.59a2.4,2.4,0,0,0,1.58-1.41s-1.39.49-1.83-.21-1.21-2.25-2.48-1c-1.28-1.21-2,.35-2.49,1s-1.83.21-1.83.21A2.4,2.4,0,0,0,439.12,27Z"/><path d="M454,17.56a1.51,1.51,0,0,0-.53-1.68,1.13,1.13,0,0,0,1.37-.21,4,4,0,0,1,1.88-.84,4.08,4.08,0,0,1-1.83-.81,1.4,1.4,0,0,0-1.48-.21c.16-.08.8-.5.59-1.72a2.4,2.4,0,0,0-1.41-1.58s.49,1.4-.21,1.84-2.25,1.2-1,2.48c-1.21,1.27.34,2,1,2.48s.21,1.83.21,1.83A2.4,2.4,0,0,0,454,17.56Z"/><path d="M451.5,5.18c-.85,1.19-3.92.32-3.92.32l-.34.43c.72,2.83-1.67,5.18-1.67,5.18s2.35-2.39,5.19-1.67l.42-.34S450.31,6,451.5,5.18Z"/><path d="M432.18,5.18c1.19.85.32,3.92.32,3.92l.43.34c2.83-.72,5.18,1.67,5.18,1.67s-2.39-2.35-1.67-5.18l-.34-.43S433,6.37,432.18,5.18Z"/><path d="M432.18,24.5c.85-1.19,3.92-.32,3.92-.32l.34-.42c-.72-2.84,1.67-5.19,1.67-5.19s-2.35,2.39-5.18,1.67l-.43.34S433.37,23.65,432.18,24.5Z"/><path d="M451.5,24.5c-1.19-.85-.32-3.92-.32-3.92l-.42-.34c-2.84.72-5.19-1.67-5.19-1.67s2.39,2.35,1.67,5.19l.34.42S450.65,23.31,451.5,24.5Z"/><path d="M439.59,14.82a2.27,2.27,0,1,0,2.27-2.27A2.27,2.27,0,0,0,439.59,14.82Z"/><path d="M586.9,2.72a1.54,1.54,0,0,0-1.69.53,1.12,1.12,0,0,0-.2-1.37A3.89,3.89,0,0,1,584.16,0a4.15,4.15,0,0,1-.8,1.84,1.34,1.34,0,0,0-.21,1.47c-.09-.16-.5-.79-1.73-.59a2.39,2.39,0,0,0-1.57,1.41s1.39-.48,1.83.21,1.21,2.25,2.48,1c1.27,1.2,2-.35,2.48-1s1.83-.21,1.83-.21A2.39,2.39,0,0,0,586.9,2.72Z"/><path d="M572.05,12.12a1.57,1.57,0,0,0,.53,1.69,1.11,1.11,0,0,0-1.37.2,3.89,3.89,0,0,1-1.88.85,4.15,4.15,0,0,1,1.84.8,1.36,1.36,0,0,0,1.47.21c-.15.08-.79.5-.59,1.72a2.43,2.43,0,0,0,1.42,1.58s-.49-1.39.21-1.83,2.24-1.21,1-2.48c1.2-1.28-.35-2-1-2.48s-.21-1.84-.21-1.84A2.43,2.43,0,0,0,572.05,12.12Z"/><path d="M581.45,27a1.52,1.52,0,0,0,1.69-.53,1.12,1.12,0,0,0,.2,1.37,3.93,3.93,0,0,1,.85,1.88,4.13,4.13,0,0,1,.8-1.83,1.35,1.35,0,0,0,.21-1.48c.09.16.5.8,1.73.59a2.39,2.39,0,0,0,1.57-1.41s-1.39.49-1.83-.21-1.21-2.25-2.48-1c-1.28-1.21-2,.35-2.48,1s-1.83.21-1.83.21A2.39,2.39,0,0,0,581.45,27Z"/><path d="M596.3,17.56a1.55,1.55,0,0,0-.53-1.68,1.13,1.13,0,0,0,1.37-.21,3.94,3.94,0,0,1,1.88-.84,4.09,4.09,0,0,1-1.84-.81,1.4,1.4,0,0,0-1.48-.21c.16-.08.8-.5.6-1.72a2.43,2.43,0,0,0-1.42-1.58s.49,1.4-.21,1.84-2.24,1.2-1,2.48c-1.2,1.27.35,2,1,2.48s.21,1.83.21,1.83A2.43,2.43,0,0,0,596.3,17.56Z"/><path d="M593.83,5.18c-.85,1.19-3.92.32-3.92.32l-.33.43c.71,2.83-1.68,5.18-1.68,5.18s2.35-2.39,5.19-1.67l.42-.34S592.65,6,593.83,5.18Z"/><path d="M574.52,5.18c1.18.85.32,3.92.32,3.92l.42.34c2.84-.72,5.19,1.67,5.19,1.67s-2.4-2.35-1.68-5.18l-.33-.43S575.36,6.37,574.52,5.18Z"/><path d="M574.52,24.5c.84-1.19,3.92-.32,3.92-.32l.33-.42c-.72-2.84,1.68-5.19,1.68-5.19s-2.35,2.39-5.19,1.67l-.42.34S575.7,23.65,574.52,24.5Z"/><path d="M593.83,24.5c-1.18-.85-.32-3.92-.32-3.92l-.42-.34c-2.84.72-5.19-1.67-5.19-1.67s2.39,2.35,1.68,5.19l.33.42S593,23.31,593.83,24.5Z"/><path d="M581.92,14.82a2.27,2.27,0,1,0,2.27-2.27A2.27,2.27,0,0,0,581.92,14.82Z"/><path d="M729.23,2.72a1.54,1.54,0,0,0-1.69.53,1.11,1.11,0,0,0-.2-1.37A3.89,3.89,0,0,1,726.49,0a4.15,4.15,0,0,1-.8,1.84,1.36,1.36,0,0,0-.21,1.47c-.08-.16-.5-.79-1.72-.59a2.4,2.4,0,0,0-1.58,1.41s1.39-.48,1.83.21,1.21,2.25,2.48,1c1.28,1.2,2-.35,2.48-1s1.83-.21,1.83-.21A2.37,2.37,0,0,0,729.23,2.72Z"/><path d="M714.39,12.12a1.53,1.53,0,0,0,.53,1.69,1.11,1.11,0,0,0-1.37.2,3.93,3.93,0,0,1-1.88.85,4.13,4.13,0,0,1,1.83.8,1.37,1.37,0,0,0,1.48.21c-.16.08-.8.5-.59,1.72a2.4,2.4,0,0,0,1.41,1.58s-.49-1.39.21-1.83,2.25-1.21,1-2.48c1.21-1.28-.35-2-1-2.48s-.21-1.84-.21-1.84A2.4,2.4,0,0,0,714.39,12.12Z"/><path d="M723.79,27a1.51,1.51,0,0,0,1.68-.53,1.13,1.13,0,0,0,.21,1.37,4,4,0,0,1,.84,1.88,4.08,4.08,0,0,1,.81-1.83,1.4,1.4,0,0,0,.21-1.48c.08.16.49.8,1.72.59a2.37,2.37,0,0,0,1.57-1.41s-1.39.49-1.83-.21-1.2-2.25-2.48-1c-1.27-1.21-2,.35-2.48,1s-1.83.21-1.83.21A2.4,2.4,0,0,0,723.79,27Z"/><path d="M738.63,17.56a1.53,1.53,0,0,0-.53-1.68,1.13,1.13,0,0,0,1.37-.21,3.94,3.94,0,0,1,1.88-.84,4.09,4.09,0,0,1-1.84-.81,1.38,1.38,0,0,0-1.47-.21c.15-.08.79-.5.59-1.72a2.43,2.43,0,0,0-1.41-1.58s.48,1.4-.21,1.84-2.25,1.2-1,2.48c-1.2,1.27.35,2,1,2.48s.21,1.83.21,1.83A2.43,2.43,0,0,0,738.63,17.56Z"/><path d="M736.16,5.18c-.84,1.19-3.91.32-3.91.32l-.34.43c.72,2.83-1.68,5.18-1.68,5.18s2.36-2.39,5.19-1.67l.43-.34S735,6,736.16,5.18Z"/><path d="M716.85,5.18c1.19.85.32,3.92.32,3.92l.42.34c2.84-.72,5.19,1.67,5.19,1.67s-2.39-2.35-1.67-5.18l-.34-.43S717.7,6.37,716.85,5.18Z"/><path d="M716.85,24.5c.85-1.19,3.92-.32,3.92-.32l.34-.42c-.72-2.84,1.67-5.19,1.67-5.19s-2.35,2.39-5.19,1.67l-.42.34S718,23.65,716.85,24.5Z"/><path d="M736.16,24.5c-1.18-.85-.31-3.92-.31-3.92l-.43-.34c-2.83.72-5.19-1.67-5.19-1.67s2.4,2.35,1.68,5.19l.34.42S735.32,23.31,736.16,24.5Z"/><path d="M724.25,14.82a2.28,2.28,0,1,0,2.28-2.27A2.27,2.27,0,0,0,724.25,14.82Z"/><path d="M871.56,2.72a1.53,1.53,0,0,0-1.68.53,1.13,1.13,0,0,0-.21-1.37A3.94,3.94,0,0,1,868.83,0,4.09,4.09,0,0,1,868,1.84a1.38,1.38,0,0,0-.21,1.47c-.08-.16-.5-.79-1.72-.59a2.4,2.4,0,0,0-1.58,1.41s1.4-.48,1.84.21,1.2,2.25,2.48,1c1.27,1.2,2-.35,2.48-1s1.83-.21,1.83-.21A2.4,2.4,0,0,0,871.56,2.72Z"/><path d="M856.72,12.12a1.55,1.55,0,0,0,.53,1.69,1.11,1.11,0,0,0-1.37.2,3.89,3.89,0,0,1-1.88.85,4.15,4.15,0,0,1,1.84.8,1.36,1.36,0,0,0,1.47.21c-.16.08-.79.5-.59,1.72a2.4,2.4,0,0,0,1.41,1.58s-.48-1.39.21-1.83,2.25-1.21,1-2.48c1.2-1.28-.35-2-1-2.48s-.21-1.84-.21-1.84A2.4,2.4,0,0,0,856.72,12.12Z"/><path d="M866.12,27a1.53,1.53,0,0,0,1.69-.53,1.11,1.11,0,0,0,.2,1.37,3.93,3.93,0,0,1,.85,1.88,4,4,0,0,1,.8-1.83,1.37,1.37,0,0,0,.21-1.48c.08.16.5.8,1.72.59a2.4,2.4,0,0,0,1.58-1.41s-1.39.49-1.83-.21-1.21-2.25-2.48-1c-1.28-1.21-2,.35-2.49,1s-1.83.21-1.83.21A2.4,2.4,0,0,0,866.12,27Z"/><path d="M881,17.56a1.51,1.51,0,0,0-.53-1.68,1.13,1.13,0,0,0,1.37-.21,4,4,0,0,1,1.88-.84,4.08,4.08,0,0,1-1.83-.81,1.4,1.4,0,0,0-1.48-.21c.16-.08.8-.5.59-1.72a2.4,2.4,0,0,0-1.41-1.58s.49,1.4-.21,1.84-2.25,1.2-1,2.48c-1.21,1.27.34,2,1,2.48s.21,1.83.21,1.83A2.4,2.4,0,0,0,881,17.56Z"/><path d="M878.5,5.18c-.85,1.19-3.92.32-3.92.32l-.34.43c.72,2.83-1.67,5.18-1.67,5.18s2.35-2.39,5.19-1.67l.42-.34S877.31,6,878.5,5.18Z"/><path d="M859.18,5.18c1.19.85.32,3.92.32,3.92l.43.34c2.83-.72,5.18,1.67,5.18,1.67s-2.39-2.35-1.67-5.18l-.34-.43S860,6.37,859.18,5.18Z"/><path d="M859.18,24.5c.85-1.19,3.92-.32,3.92-.32l.34-.42c-.72-2.84,1.67-5.19,1.67-5.19s-2.35,2.39-5.18,1.67l-.43.34S860.37,23.65,859.18,24.5Z"/><path d="M878.5,24.5c-1.19-.85-.32-3.92-.32-3.92l-.42-.34c-2.84.72-5.19-1.67-5.19-1.67s2.39,2.35,1.67,5.19l.34.42S877.65,23.31,878.5,24.5Z"/><path d="M866.59,14.82a2.27,2.27,0,1,0,2.27-2.27A2.27,2.27,0,0,0,866.59,14.82Z"/></g></g></svg>