<svg xmlns="http://www.w3.org/2000/svg" viewBox="0 0 123.19 97.63"><defs><style>.cls-1{fill:#fefefe;}.cls-2{fill:#fafafa;}.cls-3{fill:#fcfcfc;}.cls-4{fill:#090909;}.cls-5{fill:#686868;}.cls-6{fill:#c6c6c6;}.cls-7{fill:#858585;}.cls-8{fill:#313131;}.cls-9{fill:#fbfbfb;}.cls-10{fill:#848484;}.cls-11{fill:#a6a6a6;}.cls-12{fill:#181818;}.cls-13{fill:#161616;}.cls-14{fill:#969696;}.cls-15{fill:#888;}.cls-16{fill:#020202;}.cls-17{fill:#252525;}.cls-18{fill:#838383;}.cls-19{fill:#979797;}.cls-20{fill:#101010;}.cls-21{fill:#535353;}.cls-22{fill:#1d1d1d;}.cls-23{fill:#767676;}.cls-24{fill:#747474;}.cls-25{fill:gray;}.cls-26{fill:#b2b2b2;}.cls-27{fill:#757575;}.cls-28{fill:#151515;}.cls-29{fill:#9a9a9a;}.cls-30{fill:#959595;}.cls-31{fill:#333;}.cls-32{fill:#acacac;}.cls-33{fill:#3f3f3f;}.cls-34{fill:#8f8f8f;}.cls-35{fill:#060606;}.cls-36{fill:#b6b6b6;}.cls-37{fill:#b7b7b7;}.cls-38{fill:#1c1c1c;}.cls-39{fill:#232323;}.cls-40{fill:#404040;}.cls-41{fill:#6b6b6b;}.cls-42{fill:#2c2c2c;}.cls-43{fill:#4f4f4f;}.cls-44{fill:#0a0a0a;}.cls-45{fill:#414141;}.cls-46{fill:#2b2b2b;}.cls-47{fill:#9d9d9d;}.cls-48{fill:#9c9c9c;}.cls-49{fill:#676767;}.cls-50{fill:#8d8d8d;}.cls-51{fill:#393939;}.cls-52{fill:#3b3b3b;}.cls-53{fill:#9b9b9b;}.cls-54{fill:#1a1a1a;}.cls-55{fill:#878787;}.cls-56{fill:#bcbcbc;}.cls-57{fill:#7e7e7e;}.cls-58{fill:#9f9f9f;}.cls-59{fill:#f3f3f3;}.cls-60{fill:#010101;}.cls-61{fill:#a3a3a3;}.cls-62{fill:#5c5c5c;}.cls-63{fill:#6d6d6d;}.cls-64{fill:#474747;}.cls-65{fill:#a8a8a8;}.cls-66{fill:#c8c8c8;}.cls-67{fill:#a4a4a4;}.cls-68{fill:#050505;}.cls-69{fill:#e2e2e2;}.cls-70{fill:#cecece;}.cls-71{fill:#d0d0d0;}.cls-72{fill:#dfdfdf;}.cls-73{fill:#cdcdcd;}.cls-74{fill:#939393;}.cls-75{fill:#e5e5e5;}.cls-76{fill:#afafaf;}.cls-77{fill:#d1d1d1;}.cls-78{fill:#a5a5a5;}.cls-79{fill:#7a7a7a;}.cls-80{fill:#292929;}.cls-81{fill:#2e2e2e;}.cls-82{fill:#2a2a2a;}.cls-83{fill:#868686;}.cls-84{fill:#606060;}.cls-85{fill:#7c7c7c;}.cls-86{fill:#737373;}.cls-87{fill:#e9e9e9;}.cls-88{fill:#585858;}.cls-89{fill:#636363;}.cls-90{fill:#6c6c6c;}.cls-91{fill:#7d7d7d;}.cls-92{fill:#a9a9a9;}.cls-93{fill:#a2a2a2;}.cls-94{fill:#0b0b0b;}</style></defs><title>CuentameIntro2</title><g id="Layer_2" data-name="Layer 2"><g id="ornamentos"><ellipse class="cls-1" cx="61.59" cy="48.82" rx="68.92" ry="87.02" transform="translate(12.7 110.34) rotate(-89.92)"/><path d="M76.83,30c-1.9.82-3.76,1.73-5.7,2.43a20.44,20.44,0,0,1-3.89.85c-1.85.26-3.72.4-5.7.6l.68,2.34,1.88-1.56,1.05.62.56-.6.7,1.22c1.34-1.78,3.17-1.58,5.17-1.25l.59,1.06,1.6-1.07c.52.55.28,1.66,1.4,1.45,1.53.83,2.3-.5,3.31-1.15l.88,1.76.93-1.43c.55.4.16,1.82,1.45,1.31l.29-.34.31.32,2,.23,1-1.36c0,1.25,1,1,1.84,1.17a4.21,4.21,0,0,0,4.06-.39,11.93,11.93,0,0,1,6.52-.91c2.77.37,5.67.53,8.4-.63a1.39,1.39,0,0,1,.71.26c.74,1.35.54,2.73.15,4.41C99.1,40.93,91,40.72,82.88,41l.14,1c-.24,1.43-1.22,1.12-2.06.78-6.89-2.8-13.72-.88-20.55.21a2.84,2.84,0,0,0-2.59,2.18c3.87-1.25,7.71-1,11.48-1.52,1,.31,1.75,1.34,2.94,1.28l1,.07a5.26,5.26,0,0,0,1-.1c1.61-1.22,4,.53,5.19-1.45,1.31-.1,1.59,1.12,2.47,1.38.89-.33.4-2.18,1.93-1.75,2.37,3.32.74,6.28-1.27,8.24a11.19,11.19,0,0,1-3.09,1.55c-.32.46-.58,1-1.21,1.1-.89.12-1.54-.47-2.27-.78-3.73-1.55-7.52-2.52-11.62-1.82-3.2.55-6.49.48-9.63,1.43-.86.26-1.79.4-1.73,1.59,0,0,.18.12.19.1a3.57,3.57,0,0,0,1.12-.3,9,9,0,0,0,1-.5c3.19-1.27,6.57-.16,9.84-.81,1.18-.23,2.48.14,3.71-.39a3.11,3.11,0,0,1,3.11.47c2.14,1.61,4.38,2.84,7.15,2.83.34,0,.61.38.91.58a2.28,2.28,0,0,1,.52,1.4c-.28,1.87-1.68,2.68-3.24,3.25s-2.87.94-4.15,1.35a74.86,74.86,0,0,0-6.74-3.3c-3.62-1.37-7.32-1.6-10.9.31a3.78,3.78,0,0,1-1.05.68,27.8,27.8,0,0,1-3.54,1c-1.23-.31-1.76,1-2.66,1.24-1.34-.28-1.12-1.28-1.23-2.12a1.94,1.94,0,0,0-.82-1.65,10.86,10.86,0,0,0-1.3-.5c-.33-.09-.64-.22-1-.34a4.51,4.51,0,0,1-1.16-.53,3.44,3.44,0,0,0-.91-.12,6.41,6.41,0,0,1-1.3.21c-.45,0-.86-.22-1.31-.23-1.31.27-.88,1.4-.94,2.15A11.19,11.19,0,0,1,38.2,62a1.64,1.64,0,0,1-.63.51,1.5,1.5,0,0,1-.84,0,3.15,3.15,0,0,1-1.54-2.07c0-.45-.11-.9-.17-1.36a62,62,0,0,1-1.08-18.87,6.83,6.83,0,0,1-.29-.75,6.72,6.72,0,0,0-.3-1.4,4.7,4.7,0,0,0-.38-.5c-1.27-.93-2,.49-3.07.64-.76,0-1.31-.3-1.34-1.16l-.74-1.58,1.56-2.33c2,1,4.3.86,6.59.61.92.05,1,.52.61,1.21a14.74,14.74,0,0,0,0,5.62c.36,1.37-.13,3,0,4.63l1.13-2c1.24-.18.75.81.91,1.36a1.48,1.48,0,0,0,.25.67c.48.38.84.92,1.4,1.14-.77-.73-2.31-1.16-1-2.71l1.66-4.33c.45-.51,1-.39,1.59-.35a1.4,1.4,0,0,1,1.2.28c1.23-.16,1.12-1.34,1.58-2.09a1.24,1.24,0,0,1,1.4-.36c.61-.33,1.27.06,1.89-.14l.54-.56c.81-.3.7.33.77.77s0,1.06.77.78l1.79-4.73,1.31.68a11.48,11.48,0,0,1,.44-1.75,13.75,13.75,0,0,1,1.1-1.76c.45,1.27-.63,2.56.67,3.53l1.31-3.41.31.06.12,2.19.38.08,1-2,2.36-1,.47,1.62,1.65-1.4.89.62c.59-.16,1-1.14,1.82-.34,0,0,.52-.34.79-.52.41-.58,1.2-.56,1.65-1.08,1.19-.59,1.63.75,2.61,1.06,1.11-1.09.38-2.43.69-3.74l1.06,1.55c.91,0,1-.34.47-1l-.2-.72,5.47.63c.37.89-.2,1.31-.81,1.71S77.64,29.54,76.83,30Z"/><path d="M55.64,62.59c4,.08,6.14-.24,7.86-1.16.79,1.08.79,1.08,2.67,1.48l.61,1.65,2.39-.83,3,3.88L73.36,65c2.1,2.3.2,3.58-.08,4.92-1.21.59-2.27,1.05-3.29,1.6a19.23,19.23,0,0,1-15.73,1.17c-3.49-1.12-7-2.26-10.4-3.55a54.06,54.06,0,0,1-5.23-2.58l-6.94,1.24c-.54-.27-.21-.92-.55-1.28l-1.56-2.26.33-2c-.2-.7-.47-1.41.36-1.92,1.06.07,1.19,1,1.62,1.68a2.11,2.11,0,0,0,3.11.93,17.67,17.67,0,0,1,2.65-.84l-.06,0a2.62,2.62,0,0,1,1.13-.81h.67l.67,0,.66,0c.23,0,.45-.06.67-.11a1.86,1.86,0,0,1,1.91.53l.47.34.51.21c.26.07.53.11.78.2a3.82,3.82,0,0,0,.74.26,3.28,3.28,0,0,0,.83,0l.62-.19c1.67-.26,3.21-1,4.85-1.33a2.11,2.11,0,0,1,.75,0,2.69,2.69,0,0,1,1,.39c.19.13.38.26.56.4A5.46,5.46,0,0,0,55.64,62.59Z"/><path class="cls-2" d="M83.92,43.14a5.24,5.24,0,0,0-.22,1.43,8.84,8.84,0,0,1-.54,4.35l-.61,0-.48-2.74-1,2.35c-1.36-1.41-.62-3.12-1.19-4.52-.17,1.26-.33,2.49-.51,3.85l-2.87-.94-.36-2.3L75,46.88l-.92-.48c-.34-.49-.74-.24-1.12-.08l-.45-.46c-.93-1-2.55.29-3.36-1l-2.1.94c-1.08-.77-2.28-.36-3.41.75l-1.38-1c-2.32-.13-3.94,1.27-5.35,3.07-2.09-1.71-1.26-3.41-.74-5a11.3,11.3,0,0,1,6.34-2.18c2.41-.13,4.79-.77,7.19-1.13,4.49-.68,8.8-.28,12.78,2.14.08.06.37-.23.57-.36Z"/><path class="cls-3" d="M34.37,39.26a4.76,4.76,0,0,1,.54,1.42c.17,3.77.23,7.54.44,11.3.12,2.13.48,4.24.7,6.36a4.81,4.81,0,0,1-.14,1c-1,1.2-2.54.75-3.78,1.21a1.89,1.89,0,0,1-.82,0,7.28,7.28,0,0,0-1.15-.5c-1.45-2.78-1.34-6-2.32-8.87l0-3.43c.14-2,.44-4,.58-6A3.07,3.07,0,0,0,28,39.32c-.37-.28-.92-.44-.7-1.1L28.56,37,30,37.6a2.57,2.57,0,0,1,1.23-.72c1.31-.13,2.59-.18,3.64.82l-.5,1c-.36.38-.81.25-1.21.2C33.54,39.07,34.05,38.81,34.37,39.26Z"/><path class="cls-4" d="M13.63,60.5l-2.7-.22V60a27.78,27.78,0,0,1,8.76.75,18.06,18.06,0,0,0,2.66.32c.38.14.4.33.08.57-3.39,1.09-6.83.55-10.3.11l1.46-.26C14.09,61.16,14,60.83,13.63,60.5Z"/><path class="cls-5" d="M12.12,27.82c3-1.27,6.18-2,9.4-.89,1,.37,2.44,0,3.09,1.29a2.63,2.63,0,0,1,.32.86.7.7,0,0,1-.34.48A3.27,3.27,0,0,0,22,28a20,20,0,0,0-8.85.35C12.86,28,12.38,28.13,12.12,27.82Z"/><path class="cls-6" d="M39.27,43.61l.2,2.12,5.16-.52a4.18,4.18,0,0,1-4.1,1.62,10.71,10.71,0,0,1-2.82-1.61c.27-.19.26-.37,0-.51,0-.52.95-1,0-1.56-.17-1.39.42-2.52,1.33-4.13l.26,1.89a1.84,1.84,0,0,0-.44.52C38.93,42.17,38.35,43,39.27,43.61Z"/><path class="cls-7" d="M91.56,36.6c-1.45.55-2.91,1.09-4.36,0l3.59-.19V32.49a7.12,7.12,0,0,1,5.11-.29,11,11,0,0,0,3.21.1c.51.4,1.2.07,1.72.42l0,.2a.71.71,0,0,1,0,.78,2.36,2.36,0,0,1-2.64.85A6.37,6.37,0,0,0,91.56,36.6Z"/><path class="cls-8" d="M27.84,51.25c.75-.12.92.35,1,.94.38,2.29.75,4.58,1.16,6.86.06.32.36.59.55.88a.35.35,0,0,1-.1.57l-.55,1.75c-.16-.76-.33-1.52-.49-2.27-.2-.94-.39-1.87-.59-2.85l-3.2-.6c-.18-.14-.16-.27,0-.39a11.42,11.42,0,0,1,1.62-.69c.81-.23,1.23-.64,1-1.52a2.23,2.23,0,0,0-.47-.5l0,0a1.4,1.4,0,0,1-.23-.53,2.07,2.07,0,0,1,.12-.85l.05-.29A.53.53,0,0,0,27.84,51.25Z"/><path class="cls-9" d="M50.69,60a5.29,5.29,0,0,1,3.76-.48c.69.33.31,1.06.59,1.55v.63a2.26,2.26,0,0,1-1.11,1h0a.58.58,0,0,1-1,0h0c-.93-.22-1.94,0-2.81-.5C49.37,61.13,49.81,60.48,50.69,60Z"/><path class="cls-10" d="M27.28,38.22l1.08.44c.36.67-.05,1-.59,1.18-.93-.42-1.23-1.83-2.57-1.62-.75.24-1.45-.27-2.19-.16l-1.65-1L19.72,38c-.67-1.06-.17-1.58.48-2.07.3.37.84.23,1.16.57a30.33,30.33,0,0,1,3.3.57A18.88,18.88,0,0,1,27.28,38.22Z"/><path class="cls-11" d="M80,30.26A24.67,24.67,0,0,1,88.47,32C85.49,32.33,82.84,30.81,80,30.26Z"/><path class="cls-12" d="M18,49.54c-.64.55-1.12,1.48-2.38.89L15,46.89l1-.14c.86.59-.19,2.24,1.45,2.22Q18.27,48.73,18,49.54Z"/><path class="cls-13" d="M13.9,32.58c-1.43.63-2.48,2.26-4.62,1.68.3-.56.4-1.12.69-1.26C11.18,32.43,12.43,31.88,13.9,32.58Z"/><path class="cls-14" d="M36.58,34.9,36,33.69l5.62-3.57a.66.66,0,0,1,.46.48,18.45,18.45,0,0,1-3.13,2A4.44,4.44,0,0,0,36.58,34.9Z"/><path class="cls-15" d="M78.5,53.43l1.06-.5c.34.68.71,1.35,1,2.06.39.92,1.19,1.87.07,2.84l-1.1-.57C79.5,55.9,77.36,55.11,78.5,53.43Z"/><path class="cls-16" d="M28.76,41.43c-.16,2-.3,4.07-.48,6.1,0,.11-.26.2-.4.29l-1.13-.58v-.37a2.54,2.54,0,0,0,1.18-2.75c.2-.46-.14-.85-.19-1.27,0-.11,0-.23,0-.34l.67-1.08Z"/><path class="cls-17" d="M21.36,74.11c-1.08-2.25,1-2.84,1.68-4C23,71.51,23,73,21.36,74.11Z"/><path class="cls-17" d="M13.11,70.68c.22,1.62-.12,2.46-1,3a1.31,1.31,0,0,1-2-.28Z"/><path class="cls-18" d="M21.83,53.38c1.67-1.62,3.78-1.63,5.9-1.64l.26.07a.93.93,0,0,1-.25.81c-.12.16-.25.32-.38.47-1.88-.71-3.68.19-5.52.31Z"/><path class="cls-19" d="M42,29.94c1.71-1.16,3.28-2.61,5.52-2.65l0,0c-.54.39-1.07.79-1.62,1.16-1.1.71-2.21,1.4-3.31,2.1C42.35,30.32,42,30.3,42,29.94Z"/><path class="cls-20" d="M12.81,49.7l-1.38,1c-.18-.19-.29-.26-.29-.32,0-1.1-.05-2.19,0-3.28,0-.13.41-.23.79-.43Z"/><path class="cls-21" d="M100.85,33.29a2.21,2.21,0,0,0,0-.37l1-.07c.7.43,1.5.11,2.24.3a13.74,13.74,0,0,1,1.86.77,4.67,4.67,0,0,1,1,1l-.65.06C103.21,35.71,101.84,35.27,100.85,33.29Z"/><path class="cls-14" d="M62.05,25.65c1.61-1.62,3.61-.65,5.41-1.2-.66,1.09-1.71.53-2.59.69Z"/><path class="cls-22" d="M16,37.62c-1.72.71-3.49.37-5.29,0l4.14-.42C15.21,37.29,15.72,37.11,16,37.62Z"/><path class="cls-23" d="M13.68,24.55h6.14v.29l-6.67.74C12.82,25,13.35,24.82,13.68,24.55Z"/><path class="cls-24" d="M21.84,53.4c-1.24,1.29-2.78,1.21-4.36,1a.51.51,0,0,1,0-.86l4.35-.12Z"/><path class="cls-25" d="M48.59,36.62l-1.7.43c-.26-.18-.26-.36,0-.56L48,33l.46.13c-.12.53-.25,1.07-.35,1.6C48,35.41,47.76,36.15,48.59,36.62Z"/><path class="cls-10" d="M21.33,40.85l-5.51-.59c-.27-.15-.29-.29,0-.43,1.88,0,3.8-.47,5.56.6l.12.23Z"/><path class="cls-26" d="M56.68,24.76c-1.09,1.39-2.28.64-3.62,1.08C54.2,24.55,54.2,24.55,56.68,24.76Z"/><path class="cls-27" d="M17.48,53.5v.86l-3.89.57a.91.91,0,0,1-.52-.53Z"/><path class="cls-28" d="M15.82,39.83l0,.21,0,.22-5,.31C11.65,39.68,11.65,39.68,15.82,39.83Z"/><path class="cls-29" d="M78.48,34.94c.06,1.36-1.32,1.26-1.9,2.07l-1.41-.92c.66-.13,1.38.06,1.87-.73C77.24,35.05,78,35.07,78.48,34.94Z"/><path class="cls-30" d="M24.09,41.37a5.26,5.26,0,0,0,3.66,1.14H28c.13.59-.25.85-.68,1.09L24,42A.37.37,0,0,1,24.09,41.37Z"/><path class="cls-31" d="M17.93,70.62l.26,2.75h-2Z"/><path class="cls-32" d="M25.83,29.44A5.8,5.8,0,0,1,28,32.25l-3.4-2.69,0-.27A1.16,1.16,0,0,1,25.83,29.44Z"/><path class="cls-33" d="M13.18,43.27c1.05-1.07,2.22-.58,3.31-.57C15.47,43.07,14.56,44,13.18,43.27Z"/><path class="cls-34" d="M49.69,37.12l-.56-1.06.73-2.71.46.07-.19,3.64c-.07.21-.16.29-.27.23S49.69,37.18,49.69,37.12Z"/><path class="cls-35" d="M13.07,54.4l.52.53c-1.19.13-2.37.63-3.61.14C10.87,54.13,12.05,54.64,13.07,54.4Z"/><path class="cls-36" d="M46.87,36.49l0,.56-1.59.07.18-2.64Z"/><path class="cls-37" d="M73.56,26.3c.86,1,.53,1.87-.3,2.7-1.29-.54-.32-1.14-.17-1.7Z"/><path class="cls-23" d="M47.49,27.29a5.65,5.65,0,0,1,3.9-1.62,5.57,5.57,0,0,1-3.93,1.59Z"/><path class="cls-38" d="M23.11,49l1.43-.57c-.6,1-1.08,1.59-1.85,1.69s-.92-.39-.77-1A1,1,0,0,1,23.11,49Z"/><path class="cls-39" d="M13.68,24.55l-.52,1-.91.11c-.66.22-1.28.38-1.28-.66Z"/><path class="cls-40" d="M23,38.06c.78-.67,1.53-.83,2.19.16l-.48,1.05Z"/><path class="cls-41" d="M76.83,30c.09-.87.07-1.8,1.19-2.08v2Z"/><path class="cls-42" d="M24.09,41.37,24,42l-2.14-.61a2.42,2.42,0,0,1-.56-.5h0c0-.14,0-.28.05-.42l1,0a3.76,3.76,0,0,1,.67.32Z"/><path class="cls-43" d="M27.37,69.24l1-2c.73,1.38.31,2-.57,2.54A.82.82,0,0,1,27.37,69.24Z"/><path class="cls-44" d="M28.76,41.43h-.34l-.65-1.59.59-1.18c.22.22.61.44.61.65A16.91,16.91,0,0,1,28.76,41.43Z"/><path class="cls-45" d="M11,25l1.28.66c-.55.57-1,1.37-2,.76C9.91,25.68,10.31,25.3,11,25Z"/><path class="cls-39" d="M23.45,72.51l1.22-2.2C24.74,71.9,24.75,71.9,23.45,72.51Z"/><path class="cls-46" d="M23.11,49,21.92,49l-.4-3c.54.58.84.78.95,1C22.73,47.66,22.9,48.32,23.11,49Z"/><path class="cls-47" d="M26.2,64.31l-1.12,2.48a1.83,1.83,0,0,1,.6-2.51c.12-.17.24-.22.35-.16S26.2,64.25,26.2,64.31Z"/><path class="cls-48" d="M58.13,24.72h2.5V25H58.14Z"/><path class="cls-10" d="M13.63,60.5l1.56.27v.52l-1.59.16Z"/><path class="cls-16" d="M31.14,66.48l.55,1.28L30,68.84Z"/><path class="cls-49" d="M20.69,64.21l-.89,1.2-.44-.27.74-1.37Z"/><path class="cls-50" d="M68.73,28.43c0,1.26-.92,1-1.65,1.08C67,28.1,68,28.51,68.73,28.43Z"/><path class="cls-25" d="M13.79,65,13.93,64l.68.11-.42,1.07Z"/><path class="cls-51" d="M43.72,39.21H42.5c-.23-.18-.24-.36,0-.54l1-1.32Z"/><path class="cls-52" d="M9.65,71.36c.39-1.2.85-1.29,1.46-.21Z"/><path class="cls-53" d="M19.13,47.94a1.45,1.45,0,0,1,1.17-1.59c.25,1.06-.57,1.25-1.18,1.59Z"/><path class="cls-53" d="M42.51,38.68v.54l-1.57.06C41.21,38.11,41.21,38.11,42.51,38.68Z"/><path class="cls-54" d="M16,37.62l-1.15-.46,1.58-.61c.38.13.42.34.15.62Z"/><path d="M10.93,60c0,.11,0,.21,0,.32-.68.28-1.17.2-1.31-1Z"/><path d="M18.47,31.38l-.22,1.11-.46-.1.24-1.1Z"/><path class="cls-55" d="M55,61l-.59-1.55,1.15,0Z"/><path class="cls-56" d="M13,67.65a2.8,2.8,0,0,1-.6.26c-.06,0-.26-.35-.23-.38a3.54,3.54,0,0,1,.54-.39Z"/><path class="cls-57" d="M16,33.29c-.24-.25-.43-.38-.51-.57s.14-.39.21-.39a3,3,0,0,1,.62.2Z"/><path class="cls-58" d="M22,63.83a2.46,2.46,0,0,1,.24.63c0,.07-.37.26-.39.23a2.69,2.69,0,0,1-.38-.55Z"/><path class="cls-55" d="M53.92,62.64l1.11-1,.61.93Z"/><path class="cls-59" d="M104.06,33.15c-.77,0-1.59.51-2.24-.3Z"/><path class="cls-60" d="M27.3,43.59,28,42.5c.53.56.59,1.1-.05,1.62Z"/><path d="M26.75,46.87v.37l-1.11.64-.25-.38Z"/><path class="cls-37" d="M23.27,56.23a2.58,2.58,0,0,1,.51.22,2.79,2.79,0,0,1-.22.61c-.15-.06-.41-.11-.42-.19A2.21,2.21,0,0,1,23.27,56.23Z"/><path class="cls-30" d="M22.43,61.6,22.35,61h1.76l0,.36Z"/><path class="cls-61" d="M12.22,63.84a2,2,0,0,1,.11.65c0,.08-.28.13-.43.19a3,3,0,0,1-.2-.64A3.06,3.06,0,0,1,12.22,63.84Z"/><path class="cls-62" d="M21.62,32.23h1.07v.3H21.62Z"/><path class="cls-59" d="M100.83,32.72l-1.72-.42Z"/><path class="cls-32" d="M16.09,64.9l.6-.32c0,.15.15.34.1.45a.53.53,0,0,1-.41.22C16.3,65.25,16.21,65.06,16.09,64.9Z"/><path class="cls-63" d="M16.54,37.17l-.15-.62,1.4.08,0,.29Z"/><path class="cls-64" d="M17.51,67.1l.64-.53.35.35-.57.59Z"/><path class="cls-49" d="M82.34,36.56l-.6,0,.12-1.42h.32Z"/><path class="cls-35" d="M25.83,29.44l-1.2-.15,0-1.07Z"/><path class="cls-15" d="M18,49.54,17.45,49l1-.59.2.19Z"/><path class="cls-65" d="M23.65,64.5l.59-.55.25.28-.6.54Z"/><path class="cls-66" d="M49.69,37.12a3.32,3.32,0,0,1,.44-.06l.54.55-.63.52Z"/><path class="cls-57" d="M23.27,66.22l-.55.65-.29-.15.36-.81Z"/><path class="cls-39" d="M42,29.94l.56.58a2,2,0,0,1-.48.08l-.46-.48Z"/><path class="cls-67" d="M27.63,65.05v.6h-.17v-.6Z"/><path d="M12.12,27.82l1,.48C12.68,28.37,12.15,28.63,12.12,27.82Z"/><path class="cls-68" d="M27.37,69.24l.47.54-.33.37Z"/><path class="cls-23" d="M25.84,34l.59,0a1.3,1.3,0,0,1,0,.17h-.57Z"/><path class="cls-39" d="M26.2,64.31l-.52,0,.7-.39Z"/><path class="cls-68" d="M21.68,75.09,20.89,75s0-.15,0-.15c.27,0,.53-.08.8-.11Z"/><path d="M21.36,36.51l-1.16-.57Z"/><path d="M19.55,72l.07.8-.33.07L19,72.13Z"/><path d="M15.2,72.11l-.19.32c0-.05-.16-.13-.15-.17a1.5,1.5,0,0,1,.16-.34Z"/><path class="cls-15" d="M19.12,47.94l-.44.63a1.8,1.8,0,0,1-.2-.19l.65-.44Z"/><path d="M20.62,66.7l-.09.18-.24-.19.17-.18Z"/><path class="cls-10" d="M21.33,40.85l.56.5Z"/><path class="cls-10" d="M23,40.79l-.67-.32Z"/><path class="cls-59" d="M38.84,41.43l.44-.52Z"/><path class="cls-13" d="M25.65,56.14a1.7,1.7,0,0,0,0,.39l-.38-.07Z"/><path class="cls-3" d="M27.82,53.43l.47.5Z"/><path class="cls-3" d="M27.73,52.92a2.73,2.73,0,0,1,.06.49l-.43-.32a.27.27,0,0,0-.07-.27c.14-.18.26-.23.34-.14A.34.34,0,0,1,27.73,52.92Z"/><path class="cls-9" d="M78.5,53.43a4.42,4.42,0,0,1,1,3.83c-.9.54-.48-.65-1-.72L77.21,59l-.75-2.38-1,1.2-1-1.93-.64.51L73.14,55,72,57.64c-.84-1.55.15-2.87-.37-4-.51-.14-.82,1.23-1.46.18-.06-.1-.41-.19-.46-.13-1.32,1.49-2.93.67-4.45.61a3.32,3.32,0,0,0-1.58.08,5.41,5.41,0,0,1-5.15-.18,8,8,0,0,1-1.65,1.42c-.29.14-.88-.33-1.34-.52-.42-.36-.82-.47-1.2,0L53,56.27A.72.72,0,0,1,51.92,56c-.12-3,1.84-4.93,5.14-5.28,3.13-.33,6.24-.79,9.36-1.19a.82.82,0,0,1,.27,0C70.79,50.33,75.18,50.27,78.5,53.43Z"/><path class="cls-59" d="M100.85,33.29l5.39,1.7c-.06.86-.27,1.95-1.34,1.36s-.77,1.17-1.73.66a5,5,0,0,0-2.3-.14c-.68,0-1.35.2-2,.21A5.21,5.21,0,0,1,97,36.85a4.81,4.81,0,0,0-4.38.17c-.21.13-.72-.27-1.09-.42V32.86c1.82,0,3.42,0,5,0C98,33,99.42,33.15,100.85,33.29Z"/><path class="cls-69" d="M39.24,62.12l-1.65,0a10.71,10.71,0,0,0,.11-2.7c-.47-2.25.46-4,1.7-6l.86,1c-.59,1.74.5,3.49-.08,5.26C39.9,60.53,40,61.48,39.24,62.12Z"/><path class="cls-70" d="M45.76,63.74c-.62.48-1,.41-1.23-.41C44,62.52,43.3,61.89,42.86,61a2.13,2.13,0,0,1,.52-2.15c1-.16.71-1.63,1.78-1.7l1.08-1,1.2,1.08c.79.81,0,1.56-.09,2.34C46.63,60.92,47.07,62.67,45.76,63.74Z"/><path class="cls-71" d="M44.08,58.87c-.82.67-.36,1.55-.38,2.35a1.57,1.57,0,0,1-.07,2h0a.7.7,0,0,1-1.07-.06l-.23-1.42-.92,1.4c-1.18-1.21-.74-2.68-.68-4.09.56-1.14.82-2.51,2.28-3,1.29-.65,1.29-.65,1.65.53C44.35,57.35,44.78,58.26,44.08,58.87Z"/><path class="cls-69" d="M30.46,60.5l.1-.57h1.05a1.21,1.21,0,0,0,.92.28,1.09,1.09,0,0,1-.91-.3A5.31,5.31,0,0,1,33,59.4c1-.08,1.94,0,2.92,0l.23,1.13a2.88,2.88,0,0,1,.09,1.24,1.71,1.71,0,0,1-1.17,1.08c-.8.13-1.62.15-2.43.27a1.9,1.9,0,0,1-1.49-.47Z"/><path class="cls-72" d="M41.93,58.86c-1,1.33-.25,2.88-.52,4.3-.81,1-.94.15-1.18-.42a1.08,1.08,0,0,0-.45-.6h0c.2-1.87-.57-3.93,1-5.55l1.31-2.15.4,1.1C42.1,56.61,42.57,57.83,41.93,58.86Z"/><path class="cls-55" d="M50.69,60l-.64,1.81,2.84.86a2.83,2.83,0,0,1-1,.36c-1.21,0-2.41-.15-3.7-.25l-.55,2.13-.74-.6c0-1.53-1.36-3.35,1-4.34l.24,2.21,1-3Z"/><path class="cls-73" d="M34.81,62.16,36,61.58a3.29,3.29,0,0,1,1,.48l.59,0L36,64.46c-.93,0-2.06,0-3.19,0s-1.77-.62-1.7-1.82l1.1-.49A2.14,2.14,0,0,0,34.81,62.16Z"/><path class="cls-74" d="M56.08,40.3l-1.6,2.56-2.28.22c0-.27-.06-.47,0-.54.65-.7,1.32-1.37,2-2C54.72,40,55.26,39.48,56.08,40.3Z"/><path class="cls-56" d="M31.24,37.53,30,37.6l.17-1.3c1.27-.93,3.16.43,4.21-1.45l.85,1.42-.8.42C33.52,37.51,32.28,37.16,31.24,37.53Z"/><path class="cls-49" d="M40.79,56.59c-.15,1-.28,2-.46,3.06-.15.83-.37,1.66-.55,2.49a2,2,0,0,1-.54,0,23.74,23.74,0,0,1,1-7.68Z"/><path class="cls-75" d="M47.9,59.93c-.16.82-.3,1.64-.48,2.45-.14.64-.34,1.26-.51,1.89l0,0a5.33,5.33,0,0,1,0-4.81l.62-2.22c.94-.72,1,.14,1,.65A10.37,10.37,0,0,1,47.9,59.93Z"/><path class="cls-76" d="M69.12,44.81l2,.29.6-1.91.43.05.29,2.62-3,.18Z"/><path class="cls-77" d="M49.13,45.24a2,2,0,0,1,2.29-1.71c.38,0,.49.25.74,1.5l-3.06.18Z"/><path class="cls-78" d="M59,37.75l-1.49,1.31-.24-2.86Z"/><path class="cls-79" d="M51.92,56l1.06.23,1.54.91C52.76,57.87,52.76,57.87,51.92,56Z"/><path class="cls-80" d="M31.24,37.53l3.21-.84.44,1Z"/><path class="cls-13" d="M41.93,58.86l.57-3.32.51.57-.77,3.42c-.06-.06-.14-.11-.17-.17A4.1,4.1,0,0,1,41.93,58.86Z"/><path class="cls-66" d="M79.66,40.2c1.1-.8,1.1-.8,2.52,0a6.07,6.07,0,0,1-1.29.28A6.74,6.74,0,0,1,79.66,40.2Z"/><path class="cls-81" d="M72.93,46.32,73.68,44l.38,0V46.4Z"/><path class="cls-23" d="M61.69,48.29l-3.53,1C59.44,48.14,60.27,47.74,61.69,48.29Z"/><path class="cls-82" d="M44.08,58.87l.58-2.23.5.55c-.18.58-.35,1.16-.56,1.72C44.59,59,44.26,58.88,44.08,58.87Z"/><path d="M54.34,55.12c-.57-.47-.51-.91.23-.91.33,0,.65.56,1,.86Z"/><path class="cls-1" d="M60.75,33.77a2.47,2.47,0,0,1,.27.73c0,.1-.29.32-.33.29a3.3,3.3,0,0,1-.54-.46Z"/><path d="M37.06,62.06l-1-.48.12-1.06Z"/><path class="cls-15" d="M34.37,39.26H33.1l0-.37,1.32-.17Z"/><path class="cls-83" d="M49.28,47.29l-1,.1,0-.35,1-.11Z"/><path class="cls-84" d="M49.77,50.19l1,.12a3.91,3.91,0,0,1-.59.34C50.17,50.67,50,50.47,49.77,50.19Z"/><path class="cls-85" d="M49.1,45.21l-.75.51-.15-.31.93-.17Z"/><path class="cls-86" d="M50.39,47.08H51v.19l-.63,0Z"/><path class="cls-43" d="M52.09,40.09a2.47,2.47,0,0,1-.42.17s-.11-.11-.17-.17a2.26,2.26,0,0,1,.43-.17S52,40,52.09,40.09Z"/><path class="cls-59" d="M37.67,44.71l1.19.2-1.15.31Z"/><path class="cls-87" d="M59.38,67a4.12,4.12,0,0,1-3.56.34l-.33-1.69a23,23,0,0,1,6-.21C61.8,67.34,60,66.4,59.38,67Z"/><path class="cls-53" d="M59.38,67a6.52,6.52,0,0,0,1.08-.57,12.67,12.67,0,0,0,1.08-1c1.07-.1,1.5.67,2.05,1.43C62.15,68.49,60.73,66.51,59.38,67Z"/><path class="cls-88" d="M46.82,59.5l0,4.81-1.11-.57c0-1.21,0-2.43.17-3.64C46,59.87,46.51,59.7,46.82,59.5Z"/><path class="cls-89" d="M43.63,63.25l.07-2c1.2.34.95,1.25.83,2.11Z"/><path class="cls-90" d="M42.56,63.18l1.07.06-.07,1.28-.43.11Z"/><path class="cls-25" d="M52.79,67.24,51.72,65.8C53.26,65.33,52.79,66.14,52.79,67.24Z"/><path class="cls-25" d="M50.69,66.3l-.08-1.15.5,0v1.16Z"/><path class="cls-91" d="M65.57,68.33h.65v.17h-.66Z"/><path class="cls-55" d="M52.91,62.64h1C53.58,63.34,53.24,63.31,52.91,62.64Z"/><polygon class="cls-23" points="48.22 65.78 48.16 65.63 48.31 65.65 48.22 65.78"/><path class="cls-49" d="M39.78,62.14l.45.6Z"/><path class="cls-92" d="M33.12,41.21H31.81l0-.46,1.32-.24Z"/><path class="cls-93" d="M31.53,54.58l.5.31a2.6,2.6,0,0,1-.4.54s-.4-.18-.39-.24A2.81,2.81,0,0,1,31.53,54.58Z"/><path class="cls-50" d="M32,57.84h1.41l0,.29L32,58.3Z"/><path class="cls-94" d="M27.73,52.92a1.65,1.65,0,0,1-.44-.1l.7-1C28.57,52.33,28.24,52.65,27.73,52.92Z"/><path d="M34.81,62.16l.24,1c-.94-.73-2.28.64-2.81-1Z"/><path d="M31.62,59.91h2.84c-1.6.57-1.6.57-2.85,0Z"/></g></g></svg>