<svg xmlns="http://www.w3.org/2000/svg" viewBox="0 0 1112.14 30.53"><defs><style>.cls-1{fill:#7a3b6e;}</style></defs><title>CuentameIndice2</title><g id="Layer_2" data-name="Layer 2"><g id="ornamentos"><path class="cls-1" d="M1071.43,0c4.64,3.34,14,6.82,14,6.82h6.33L1094.09,9H1107c2,1.72,1,3.8.73,5.83-1.94,1.23-4.11.47-6.17.61-1.78.13-3.56,0-5.27,0l-1.63,1.63c-1.94,1.23-4.15-.08-7.65,1.48-2.47,1.63-7.54,1.58-11.3,4.56a4.68,4.68,0,0,1-5.78.32c-3.36-2.24-7.4-3.2-10.6-5.92h-5.72l-2.13-2.14h-15.6c-.28-1.27-.5-2.24-.69-3.1,2.34-2.81,5.57-.22,8-1.67L1044.86,9H1051l2.5-3.2h6.13S1067.58,3.22,1071.43,0Z"/><path class="cls-1" d="M394.93,18.7c-2.05,2.16-4.65.63-7.22,1.1l-2.34,2H375l-2.45,2.13h-4.12L366.15,26h-4.6L358,30.44c-1.22-.11-2,0-2.59-.27-4.69-2.6-8.94-6.14-14.7-6.39-.84,0-1.64-1.24-2.6-2H328l-2.41-2.21c-2.4-.09-4.86,0-7.93-1.42l3.82-1.57-.85-1.21h9s1.37-1.14,1.87-1.64c2.42-1.58,5.7,1,7.86-1.51,2-2.28,5.79.29,7.28-3,2.2-.67,5,.5,6.51-2.24,2-.07,3.78-.36,5.85,1,2.69,1.74,5.54,4.11,9.29,3.13.5.5,1.87,2.11,1.87,2.11h8.59l2.14,2.13h10.67Z"/><path class="cls-1" d="M1015,17.49h-6.61l-2.24,2.09c-3-1.19-5,1.19-7.42,2.1-2.1.81-3.86,2.59-6.74,1.93l-2.29-1.85h-6l-7.5-4.27h-5.94L968,15.35H957.37l-3.07-3.07c.18-.25.35-.71.54-.73,3.51-.24,7-.43,11.11-.67L968.37,9h5.68c1.79-2.81,5.34-1.25,7.34-2.83s4.78-1.19,6-3.57h8.39l2.34,2.13c4.06-1,6.87,3.2,10.81,2.41,1.34,2.25,3.55,1.85,5.63,1.85h13.72l2.82,3.37c-.08.81-.15,1.49-.22,2.17-.25.26-.5.72-.75.73-4.25,0-8.51,0-12.71,0Zm-21-.31.76-.75a6.4,6.4,0,0,0-1.43-.67c-.18,0-.47.43-.7.67Z"/><path class="cls-1" d="M272.16,9l2.28-2.13h4.4c1.29,1.28,2.52,2.52,3.76,3.76,2.69,1.33,6.37-1.15,8.54,2.21l6.53.44,2.52,2.12h13.43c.13,1.34.23,2.32.31,3.19l-6.16,3.22h-12l-2.29,2.13h-4.26l-1.53,1.53a24.68,24.68,0,0,0-11,4.37L269.47,26H266l-2.28-2.14h-4.26l-2.28-2.13h-10.6l-1.7-1.7L238.28,19l4.35-3.43,10.83-.63c1.76-3.26,6.5-.17,8.08-3.84h4.16L268,9Z"/><path class="cls-1" d="M733.38,11.08l1.47-1.48c1.95-1.21,4.09-.4,6.11-.64l4.42-2.12c1.47-.71,2.89-1.84,4.43-2,1.8-.21,3.43-.28,4.47-2l7.34,4h3.65L767.57,9h6.33l1.9,2.13h8.57c1.7,3,4.42,2.16,6.94,2.37.26,1.14.47,2.1.67,3-.68.46-1.21,1.13-1.77,1.16-2.82.1-5.64.05-8.46.05a26.53,26.53,0,0,0-5.28.08c-1.21.26-2.5,2.15-3.33,1.9-3.5-1.06-5.36,3.38-8.69,2.26-2.25,1.36-4.89,2-7,3.61-1.6,1.25-3.34.4-5,.55-1-2.14-3.88-1.44-5.06-3-1.76-2.4-4.93.22-6.55-2.19-1.45-2.16-4-.22-5.72-1.51a21.75,21.75,0,0,1-1.87-1.84H717.49c-.12-1.34-.21-2.33-.3-3.25,2.41-1.88,5-.59,7.53-1,.74-.69,1.53-1.42,2.33-2.18Z"/><path class="cls-1" d="M840.11,21.64,835.77,26h-3.52C826.08,23,821,19.21,814.74,17.72l-11.4-.64c-1.31-3.26-5.3-.36-7-2.93,1.46-1.79,3.41-.4,5.64-1.45l1.75-1.62h6.68l1.21-1.37c2.42-1.38,4.88-.43,7.15-.78l2.27-2.08c3.68.56,6.32-1.75,9.25-3.11,3.11-1.45,3.36-1.53,6.43,0S843.12,7,846.89,9h5.88l2.3,2.13H865l6.34,3.28-7.51,2.24.15.88c-2.78,0-5.68.49-8.31-.12-3.22-.75-4.46,3-7.68,2.42C845.45,19.3,843.49,23.18,840.11,21.64Z"/><path class="cls-1" d="M609.45,11.08h6.34l2.28,2.14H630.9l2.85,3.09c-.29.33-.66,1.12-1,1.12-4.22.09-8.45.06-12.53.06-.65.65-1.16,1.59-1.65,1.58-4.47-.1-7.95,4.4-12.43,2.45-3.14,2.59-7.51,2.78-9,6.57a5.33,5.33,0,0,1-1.39.05,6,6,0,0,1-1.83-.69c-3.28-2.24-7.3-3.11-10.39-5.69h-5.64l-2.77-2.14h-7.69c-2.58-3.15-6.37-1.85-9.7-2.21-.1-2.34,1.81-2.88,2.65-4.19H571l2.31-3.2h5.29s6.09-2.24,8.89-3.08c1.61-.48,3.13-.57,4.67-1.68a5.21,5.21,0,0,1,4.81-.13,27.45,27.45,0,0,0,11,4.41C608.46,9.64,609.45,11.08,609.45,11.08Zm1.12,3.21c-.24-.24-.53-.71-.7-.67a6.94,6.94,0,0,0-1.44.67c.24.24.53.71.7.67A6.47,6.47,0,0,0,610.57,14.29Z"/><path class="cls-1" d="M432.6,28.16c-2.56-1.52-4.7-3.6-7.12-4S421.12,22.67,419,22c-2.53-.77-5.48-.18-7.88-.18l-2.21-2.21H397.53c-.06-2.38,1.89-2.94,2.75-4.27h8.42l1.82-2c2.72-.45,5.92.09,9-.2L421.87,11c4.26.56,7.13-2.17,11.46-4.17h5l7.55,4.26h3.43l2.31,2.14h10.6l1.9,2.13h8.57c1.54,1.5,1.64,2.72.53,4.27H460.67a18,18,0,0,1-3.48,2.24c-1.23.43-2.84,0-3.92.55s-1.91,1.8-3.5,1.63a35.31,35.31,0,0,0-4,0l-7.29,4.15Z"/><path class="cls-1" d="M129.51,13.22h6.09l2.28,2.13h12l6,3.11-3.14,3.3H146.8s-4.38.46-6.34-.11c-3-.84-4,2.92-6.58,2.22s-3.53,2-5.49,2.1c-2.16.09-4.22,0-5.52,2.13-2.36-.62-3.46,1.92-5.16,2.43-2.38-1.2-4.7-1.91-6.4-3.36S107.57,26,106,24.39s-6.43-1.56-6.43-1.56H89.06a24.32,24.32,0,0,0-2.46-3l-4.79-.43c-.21-.54-.46-.93-.37-1,1.37-1.55,4.77-3,4.77-3H95l2.33-3.2h4a7.2,7.2,0,0,1,2.51-1c3.69.36,6.45-1.77,9.22-3.43,1.74-1,3.81-1.5,4.86-.8C121.57,9.36,129.51,13.22,129.51,13.22ZM115.63,17.9l.06,1.35c1,.13,1.9.3,2.85.34.23,0,.73-.52.68-.68-.14-.5-.47-1.33-.76-1.35A14.48,14.48,0,0,0,115.63,17.9Zm7.18-2.54c-.24.24-.71.52-.67.7a6.4,6.4,0,0,0,.67,1.43c.23-.23.7-.52.66-.7A6.83,6.83,0,0,0,122.81,15.36Z"/><path class="cls-1" d="M638.4,17.49V13.22h9.13l2.14-2.14h6.12L658.58,9h5.62l7.64-4.27h5.83C679.16,7.19,683,6.05,684,9h6.54l2.14,2.13h8.54l2.13,2.14h9.29c.23,1.31.39,2.29.54,3.16-.39.39-.64.86-.89.87-4.28,0-8.55,0-12.69,0l-2.69,2.34h-6.14c-.77.73-1.52,1.42-2.29,2.14h-3.67L677.2,26h-4.92L660,19.62H649.77l-2.28-2.13Z"/><path class="cls-1" d="M478.63,15.35h5.78L486,13.74c2.39-1.26,5-.26,7.5-.72L495,11.44c2.08-1.08,4.31-.36,6.47-.57L514.63,4l8.54,4.61H527c.53.53,1,1.06,2.09,2.09l4.67.27,2.54,2.23h10.55l6.28,3.21c-2,2.29-6-.32-7.52,3.19H535.09l-2.41,2.14h-4.16l-2.28,2.13h-5.83l-3.12,3.9c-3,.53-4.75-1-6.8-1.74-2.28-.84-4.18-3.42-7.1-2.16a7.11,7.11,0,0,0-6.24-2l-2.54-2.29H477.89C478.19,17.86,478.42,16.56,478.63,15.35Zm33.75,1.08c-.24-.24-.53-.71-.71-.67a6.4,6.4,0,0,0-1.43.67c.24.23.53.7.7.66A7.14,7.14,0,0,0,512.38,16.43Z"/><path class="cls-1" d="M37.54,30.05l-2.06-1.89H31.13c-1.49-2.63-5.07-2-6.76-4.29-2.59.48-4.46-1.2-6.66-1.95-2.52-.86-5.55-.2-8.08-.2L7.84,19.93C5.4,18.53,2.21,21.13,0,18.45l6.05-3.1h9.76l2.39-2.13h4.16l2.27-2.14h3.43l7.8-4.44A21.2,21.2,0,0,0,38.28,7.7c2.55.84,4.52,3,7.22,3.36,3.7.52,6.85,3.77,10.76,1.89L59,15.35H71.24l4,3.26L73.88,22l-1.76-1.76c-1.33-.93-1.39.89-3.8,1.49H57.88C50.27,25.25,43.22,25.91,37.54,30.05ZM24.92,15.67l-1.37.76c.23.23.52.7.7.66a6.83,6.83,0,0,0,1.43-.66Z"/><path class="cls-1" d="M914.19,2.55l7.49,4.27h5.47L930,9h8.3l2.13,2.13h11.25c.12,2.39-1.84,2.94-2.69,4.27h-8.47l-2.3,2.14h-8.46l-2.31,2.15c-4.14-.56-7,2.16-11.95,4.26a10.47,10.47,0,0,1-3.36-.08c-1.56-.34-2.92-1.58-4.47-2s-3.49.45-4.82-1.29-3.29-.56-5.1-1a6.7,6.7,0,0,0-2.21-1h-8.43A15.72,15.72,0,0,0,885.54,16c-3.13-1.91-6.91.55-10.34-1.5,1-1.11,3-3.45,3-3.45h10.38L891.28,9h5.89c1.86-2.62,5.38-1.26,7.3-2.8s4.88-1.06,6-3.6Zm-5.08,9.91c-.25-.44-.51-.91-.76-1.37-.24.24-.71.52-.67.7a6.4,6.4,0,0,0,.67,1.43Z"/><path class="cls-1" d="M180.7,23.89l-2.27-2.13H167.56l-1.7-1.71-7.24-1.16c2.34-.8,3.24-1,4-1.4s1.71-1.1,3.12-2c2.83-1.08,7.15,1.61,10.16-2,4,.92,6.74-3.53,10.81-2.37L189.08,9h3.77l2.72-2.52a46.07,46.07,0,0,0,5.29,2.45c1.93.63,3.12,3,5.61,2.25,2.12-.65,2.85,1.93,4.53,2.13,2.08.24,4.41-.46,5.78,2.09H227l2.65,2.27c1.23.78,3.74-1.54,4.83,1.23-.26.25-.5.71-.75.71-2.76.05-5.53,0-8.27,0l-2.31,2.16h-8.53l-2.28,2.13h-3.7c-3.88,2-7.89,4.11-12.2,6.35l-12.41-6.35Zm34.65-5c-.24-.45-.5-.91-.75-1.38-.24.24-.71.53-.67.7a6.47,6.47,0,0,0,.67,1.44Z"/><path class="cls-1" d="M1111.8,9.25a14.46,14.46,0,0,1,.33,2.83c0,.29-.84.62-1.34.76-.16.05-.69-.45-.68-.68a27.16,27.16,0,0,1,.34-2.84Z"/></g></g></svg>