<svg xmlns="http://www.w3.org/2000/svg" viewBox="0 0 71.44 88.35"><defs><style>.cls-1{fill:#f7f7f7;}</style></defs><title>CuentameCont4</title><g id="Layer_2" data-name="Layer 2"><g id="bloques"><path class="cls-1" d="M17.49,33.73c7.35,18.43,18.37,36.09,18.37,53.55,0-17.46,11-35.12,18.38-53.55C46.89,23.23,42,17.46,35.86,0,29.78,17.46,24.84,23.23,17.49,33.73Z"/><path class="cls-1" d="M48.57,53.85c-3.91,12.32-5.71,25.89-12.85,34.5,7.14-8.61,19.81-12.48,31-18.33.67-8.42.6-13.44,4.74-24.73C61.3,51.23,56.5,51.91,48.57,53.85Z"/><path class="cls-1" d="M22.87,53.85c3.92,12.32,5.71,25.89,12.85,34.5C28.58,79.74,15.91,75.87,4.74,70,4.07,61.6,4.14,56.58,0,45.29,10.15,51.23,15,51.91,22.87,53.85Z"/></g></g></svg>