<svg xmlns="http://www.w3.org/2000/svg" viewBox="0 0 63.7 63.7" fill="white"><defs><style>.cls-1{fill-rule:evenodd;}</style></defs><title>CuentameTitulo2</title><g id="Layer_2" data-name="Layer 2"><g id="ornamentos"><path class="cls-1" d="M38.18,4.15s-2.42.69-2.94,6.24A3.52,3.52,0,0,1,32,13.93c-1.22.11-3.06-.9-3.38-3.42C27.92,5,25.49,4.36,25.49,4.36s2.23-1.31,3.56,2.22a2,2,0,0,1,2.69.59,2.91,2.91,0,0,0-1.61,1.22C29.39,9.45,29,13.18,32,13.48c3-.43,2.47-4.12,1.7-5.15A3,3,0,0,0,32,7.14a2,2,0,0,1,2.67-.67C35.9,2.92,38.18,4.15,38.18,4.15ZM26.91,2.33s1.58-1,3.67,1c0,0,.72-.27-.52-1.42A4.56,4.56,0,0,1,31.78,0a4.52,4.52,0,0,1,1.76,1.81c-1.21,1.18-.47,1.42-.47,1.42,2-2,3.65-1.07,3.65-1.07a3.54,3.54,0,0,0-2.41,2.45s-.74-.72-2.46.43c-1.75-1.1-2.48-.34-2.48-.34A3.5,3.5,0,0,0,26.91,2.33Z"/><path class="cls-1" d="M4.15,25.52s.69,2.42,6.24,2.94a3.51,3.51,0,0,1,3.54,3.28C14,33,13,34.8,10.51,35.12c-5.55.66-6.15,3.09-6.15,3.09S3.05,36,6.58,34.64A2,2,0,0,1,7.17,32a2.85,2.85,0,0,0,1.22,1.61c1.06.73,4.79,1.12,5.09-1.82-.43-3-4.12-2.47-5.15-1.7a3,3,0,0,0-1.19,1.66A2,2,0,0,1,6.47,29C2.92,27.79,4.15,25.52,4.15,25.52ZM2.33,36.79s-1-1.58,1-3.67c0,0-.27-.72-1.42.51A4.51,4.51,0,0,1,0,31.92a4.57,4.57,0,0,1,1.81-1.77c1.18,1.22,1.42.48,1.42.48-2-2-1.07-3.65-1.07-3.65a3.54,3.54,0,0,0,2.45,2.41s-.72.74.43,2.46c-1.1,1.75-.34,2.48-.34,2.48A3.5,3.5,0,0,0,2.33,36.79Z"/><path class="cls-1" d="M25.52,59.54s2.42-.68,2.94-6.23a3.51,3.51,0,0,1,3.28-3.54c1.21-.11,3.06.9,3.38,3.42.66,5.54,3.09,6.15,3.09,6.15S36,60.65,34.64,57.11A2,2,0,0,1,32,56.53a2.9,2.9,0,0,0,1.61-1.23c.73-1,1.12-4.78-1.82-5.08-3,.43-2.47,4.12-1.7,5.15a3,3,0,0,0,1.66,1.19,2,2,0,0,1-2.67.67C27.79,60.78,25.52,59.54,25.52,59.54Zm11.27,1.83s-1.58,1-3.67-1c0,0-.72.27.51,1.42a4.51,4.51,0,0,1-1.71,1.87,4.64,4.64,0,0,1-1.77-1.81c1.22-1.18.48-1.42.48-1.42-2,2-3.65,1.07-3.65,1.07a3.52,3.52,0,0,0,2.4-2.45s.75.72,2.47-.43c1.75,1.09,2.48.34,2.48.34A3.5,3.5,0,0,0,36.79,61.37Z"/><path class="cls-1" d="M59.54,38.18s-.68-2.42-6.23-2.94A3.5,3.5,0,0,1,49.77,32c-.11-1.22.9-3.06,3.42-3.38,5.54-.66,6.15-3.09,6.15-3.09s1.3,2.23-2.23,3.56a2,2,0,0,1-.58,2.69,2.9,2.9,0,0,0-1.23-1.61c-1-.74-4.78-1.13-5.08,1.82.43,3,4.12,2.47,5.15,1.7A3,3,0,0,0,56.56,32a2,2,0,0,1,.67,2.67C60.78,35.9,59.54,38.18,59.54,38.18Zm1.83-11.27s1,1.58-1,3.67c0,0,.27.72,1.42-.52a4.56,4.56,0,0,1,1.87,1.72,4.64,4.64,0,0,1-1.81,1.77c-1.18-1.22-1.43-.48-1.43-.48,2,2,1.08,3.65,1.08,3.65a3.54,3.54,0,0,0-2.45-2.41s.71-.74-.43-2.46c1.09-1.75.34-2.48.34-2.48A3.5,3.5,0,0,0,61.37,26.91Z"/><path d="M23.87,24.09s.58-6.89-5.31-5.31C17,24.66,23.87,24.09,23.87,24.09Z"/><path d="M23.91,40S17,39.38,18.6,45.27C24.48,46.85,23.91,40,23.91,40Z"/><path d="M39.78,39.92s-.58,6.89,5.3,5.31C46.66,39.35,39.78,39.92,39.78,39.92Z"/><path d="M39.74,24.06s6.89.57,5.31-5.31C39.17,17.17,39.74,24.06,39.74,24.06Z"/><path d="M15.5,15.21c-.46-.46-1.32-1.84-.54-2.62s1.26-.06,1.26-.06.29-1.66-1.18-1.46c0,0,.61-1.64,2-.12a2.06,2.06,0,0,0,1,.52,1.12,1.12,0,0,0-.11-1s2.11,1.3,1,2.64a1.05,1.05,0,0,1-1.45.19s-.36-.42,0-.62a.65.65,0,0,0,.53-.1.49.49,0,0,0-.69-.69,1.13,1.13,0,0,0,0,1.71,1.59,1.59,0,0,0,2.2-.1,2.52,2.52,0,0,0-.14-3.62,3.12,3.12,0,0,0-4.56.07c-.87.88-2,3,.61,5.61,1.53,1.51,2.83,2.81,3.64,3.63l.25-.25Z"/><path d="M15,48.33c-.46.46-1.84,1.32-2.61.54s-.06-1.26-.06-1.26-1.67-.29-1.47,1.18c0,0-1.63-.61-.11-2a2.06,2.06,0,0,0,.52-1,1.16,1.16,0,0,0-1,.11s1.29-2.11,2.64-1a1.05,1.05,0,0,1,.19,1.45s-.42.36-.62,0a.65.65,0,0,0-.1-.53.49.49,0,0,0-.69.69,1.13,1.13,0,0,0,1.71,0,1.61,1.61,0,0,0-.1-2.2,2.52,2.52,0,0,0-3.62.14,3.1,3.1,0,0,0,.07,4.56c.88.87,3,2,5.6-.61L19,44.87l-.26-.25Z"/><path d="M48.14,48.81c.46.46,1.32,1.84.55,2.61s-1.27.06-1.27.06S47.14,53.15,48.6,53c0,0-.6,1.63-2,.11a2.06,2.06,0,0,0-1-.52,1.14,1.14,0,0,0,.1,1s-2.1-1.29-1-2.64a1.06,1.06,0,0,1,1.45-.19s.36.42,0,.62a.65.65,0,0,0-.53.1.49.49,0,0,0,.69.69,1.12,1.12,0,0,0,0-1.71,1.59,1.59,0,0,0-2.19.1,2.52,2.52,0,0,0,.14,3.62,3.09,3.09,0,0,0,4.55-.07c.88-.88,2-3-.6-5.6C46.8,47,45.5,45.66,44.69,44.84l-.26.26Z"/><path d="M48.63,15.69c.45-.46,1.83-1.32,2.61-.55s.06,1.27.06,1.27,1.66.28,1.46-1.18c0,0,1.64.6.12,1.95a2.06,2.06,0,0,0-.52,1,1.14,1.14,0,0,0,1-.1s-1.3,2.1-2.64,1a1.05,1.05,0,0,1-.19-1.45s.42-.36.62,0a.65.65,0,0,0,.1.53.49.49,0,0,0,.69-.69,1.12,1.12,0,0,0-1.71,0,1.59,1.59,0,0,0,.1,2.2A2.53,2.53,0,0,0,54,19.45a3.11,3.11,0,0,0-.07-4.55c-.88-.88-3-2-5.61.6-1.51,1.53-2.81,2.83-3.63,3.64l.25.26Z"/><path d="M31.07,31.22c-1.8-1.29-.48-6-.48-6l-.65-.52c-4.32,1.1-7.9-2.55-7.9-2.55s3.64,3.59,2.55,7.91l.51.65S29.78,29.41,31.07,31.22Z"/><path d="M31.22,32.57c-1.29,1.81-6,.49-6,.49l-.52.64c1.1,4.33-2.55,7.91-2.55,7.91s3.59-3.65,7.91-2.55l.65-.51S29.41,33.87,31.22,32.57Z"/><path d="M32.57,32.43c1.81,1.29.49,6,.49,6l.64.51c4.33-1.09,7.91,2.55,7.91,2.55s-3.65-3.58-2.55-7.9l-.52-.65S33.86,34.23,32.57,32.43Z"/><path d="M32.42,31.07c1.3-1.8,6-.48,6-.48l.51-.65c-1.09-4.32,2.55-7.9,2.55-7.9s-3.58,3.64-7.91,2.55l-.64.51S34.23,29.78,32.42,31.07Z"/></g></g></svg>