<svg xmlns="http://www.w3.org/2000/svg" viewBox="0 0 154.68 50.46"><title>CuentameFinCabeza</title><g id="Layer_2" data-name="Layer 2"><g id="ornamentos"><path d="M104,46.59c-2.65-.51-1,2.38-2.11,3.31-.25.19-.51.56-.76.56-15.38,0-30.75-.07-46-.12a5,5,0,0,1-.8-.83,2,2,0,0,1-.19-.92q0-15.56.07-31.12c0-.26-.32-.52-.5-.79C52.25,18,52.25,18,52.19,23.12l-1.35,1.44c-.21.23-.41.47-.59.68l2.25,2.5c-.53,1-1.09,2.13-2.13,4.15l0,9.18L52.16,44l-2.73,6.15L2.63,50c-.22-.22-.54-.42-.67-.71a2.33,2.33,0,0,1-.09-1L2,21.17,0,19l1.75-1.75c.7-4.55-.16-9.54.43-14.48C4.23,1.09,6.65,2.34,9,2L11.1,0l90.34.29c2,1.53.63,3.71,1,5.56.3,1.48-.71,3.28,1.27,4.52,1.49-3.1.3-6.5.85-9.31.69-.43,1-.75,1.22-.75,16,0,32.07.08,47.9.13.44.44.75.64.89.92a2.35,2.35,0,0,1,.11,1q-.08,23.58-.17,47.18c0,.25-.38.5-.74,1l-49.19-.15a18,18,0,0,0-.57-3.71c1.32-.32,2.88-.17,1.52-1.93A21.47,21.47,0,0,0,104,46.59Zm46.23-.15c0-14.13.09-27.44.1-40.74,0-.25-.4-.49-.61-.73-20.69-1-35.34-.85-41.36.51q-.06,20-.1,39.92c0,.24.4.49.78.91ZM97.1,46.27l3.23-2.68,0-8.28-3-2.1,0-5.92a21.28,21.28,0,0,0,2.78-2.15c-.65-.65-1.77-1.94-1.77-1.94l.06-18.07c-.74-.46-1-.83-1.24-.83-5.31,0-10.62-.06-15.76-.07L79.28,6.14C77,7,75.53,4.2,75.53,4.2l-16.33,0c-1,1.78-1.06,3.88-2.76,5l-.06,18,2.06,2.41c-3.24,1.29-2.07,3.76-1.83,5.87l1.82,2.39c-3.28,1-1.75,3.41-2.13,5.18l2.49,3.18Zm-48.78-.15.06-19-2-2.14,0-5.87,2-2.08,0-9.94-3.07-3L21.63,4,19.56,5.91l-2-1.71L15.29,6c-2.7-.25-4.37-3.44-8.22-1.63L4,7.18l2.4,4.18L6.37,31.3,4.67,33,6.5,35.14c.28,3.49-.35,7.13.38,10.85Zm57-17.25a10.47,10.47,0,0,0,0-9.14A10.4,10.4,0,0,0,105.3,28.87Z"/></g></g></svg>