<svg xmlns="http://www.w3.org/2000/svg" viewBox="0 0 70.96 78.43"><defs><style>.cls-1{fill:#7a3b6e;}</style></defs><title>CuentameIntro5</title><g id="Layer_2" data-name="Layer 2"><g id="textos"><path class="cls-1" d="M64.47,29.47c.14-.15.29-.31.42-.47s.17-.31.29-.38a1.78,1.78,0,0,1,.53-.1c0,.18.09.41,0,.52a8.48,8.48,0,0,1-1.18,1.41.65.65,0,0,0-.17,1c.5.83,1,1.67,1.49,2.49s.85,1.5,1.36,2.18a33,33,0,0,0,2.68,3.8,2.77,2.77,0,0,1,1,2.21,1.27,1.27,0,0,1-.4.87,8.25,8.25,0,0,1-1.93.95,22.36,22.36,0,0,1-2.33.48,1.64,1.64,0,0,0-1.44,1.78c0,.58.16,1.15.23,1.73s.14,1.11.16,1.67A.64.64,0,0,1,65,50c-.27.23-.33.43,0,.68a.55.55,0,0,1,0,.89,2.64,2.64,0,0,1-.36.39,4,4,0,0,0-1.31,2.72,21.39,21.39,0,0,0,.22,4.08,6.74,6.74,0,0,1,0,1.74A1.81,1.81,0,0,1,62,61.76a6.53,6.53,0,0,1-4.85-.7,4.38,4.38,0,0,0-3.31-.44c-1.14.32-2.35.4-3.5.71s-2.34.76-3.5,1.17a4.28,4.28,0,0,0-1.6,1.14c-.66.7-1.46,1.26-2.15,1.94a9.31,9.31,0,0,0-2.1,3c-.07.18-.22.32-.3.49-.19.4-.37.81-.55,1.22-.05.1-.05.22-.1.32-.31.69-.64,1.36-.93,2.06a.86.86,0,0,0,0,.59c.62,1.33,1.25,2.65,1.91,4,.08.17.36.25.45.42s.17.5.08.63-.41.08-.62-.1-.52-.46-.79-.46c-.83,0-1.14-.65-1.57-1.14-.19-.23-.31-.3-.54-.11s-.44.13-.64-.07a.89.89,0,0,0-1.18-.16.7.7,0,0,1-.53,0,5.12,5.12,0,0,1-.85-.41c-.41-.25-.79-.53-1.2-.77-.13-.08-.36-.15-.46-.09a.55.55,0,0,1-.84-.18c-.32-.49-.6-1-.91-1.5,0,0-.05,0-.07,0-.72.47-.9.44-1.4-.27-.17-.25-.36-.38-.66-.27s-.55-.07-.75-.34-.43-.42-.61-.65a6,6,0,0,1-.61-.91c-.15-.27-.28-.44-.64-.31a3.62,3.62,0,0,1-1.13.19,1,1,0,0,1-.68-.27,5.3,5.3,0,0,1-.48-.72,1.52,1.52,0,0,0-.52-.46,1.28,1.28,0,0,1-.76-.75c-.17-.49-.37-.88-1.1-.82a3.16,3.16,0,0,1-1.61-.56c-1.06-.61-2.07-1.3-3.12-2a24.72,24.72,0,0,0-2.68-1.54,4.56,4.56,0,0,0-1.74-.22,14.39,14.39,0,0,0-1.73.13c-.56,0-1.12.11-1.68.2-.74.12-1.46.29-2.2.38-.37,0-.4-.26-.26-.49.42-.68.87-1.35,1.33-2,.15-.23.38-.39.55-.61s.08-.26,0-.3-.26-.13-.33-.08a3,3,0,0,1-1.89.26,1.59,1.59,0,0,1-.91-.35,2.64,2.64,0,0,0-1.56-.68c-.19,0-.43-.31-.51-.53s-.25-.43-.56-.31-.7-.1-.89-.46l-1.6-3.2a1.48,1.48,0,0,1-.2-.59c0-.9,0-1.81,0-2.71a2.14,2.14,0,0,0-.16-.53A3.77,3.77,0,0,1,0,50.28a17,17,0,0,1,.57-1.93,1.46,1.46,0,0,0-.15-.65c-.09-.27-.22-.54-.31-.82,0-.08,0-.2,0-.28-.4-1.17.37-1.86,1.06-2.56a.66.66,0,0,0,.23-.8,1.81,1.81,0,0,1,.42-2c.88-1,1.69-2,2.6-2.93a4.56,4.56,0,0,1,1.4-.74c.31-.13.57-.23.44-.65a.45.45,0,0,1,0-.32c.39-.74.78-1.48,1.21-2.2A.61.61,0,0,1,8,34.18c.64.11.87-.35,1.16-.76.45-.66.92-1.32,1.38-2,.08-.11.2-.2.24-.31a2.8,2.8,0,0,1,1.93-1.69.71.71,0,0,1,.18-.08c1.37-.2,1.78-1.26,2.2-2.36a3,3,0,0,1,.61-.83c.51-.54,1.09-1,1.54-1.6s.64-1.12,1-1.67c.21-.34.48-.64.71-1l.89-1.26c.11-.15.17-.34.31-.44.39-.3.42-.72.55-1.17a5.35,5.35,0,0,1,2-3.14,2,2,0,0,0,.32-.38,2.22,2.22,0,0,0-.46-.29,2.51,2.51,0,0,0-.62-.07A.85.85,0,0,1,21.16,14c.16-.54.23-1.12.35-1.68a1.07,1.07,0,0,1,.14-.39,4.33,4.33,0,0,0,.67-2.73c0-.58,0-.72.58-.66,1.13.14,2.26.32,3.39.47a1.42,1.42,0,0,0,.35,0,1.23,1.23,0,0,0-.1-.44,11.68,11.68,0,0,1-.91-1.41,13,13,0,0,1-.55-1.74,1.21,1.21,0,0,1,0-.14C24.58,4,24.79,3.6,26,3a13.22,13.22,0,0,1,2.93-1.36c.44-.1.87-.26,1.32-.33a1.23,1.23,0,0,1,1.35,1,9.13,9.13,0,0,0,.6,2.08.54.54,0,0,0,.45,0c.34-.36.64-.77,1-1.15.11-.13.27-.31.4-.3.77,0,1.27-.5,1.87-.83.35-.19.73-.33,1.07-.53a6.23,6.23,0,0,0,1-.62A2.17,2.17,0,0,1,39.33.48,11.24,11.24,0,0,0,40.47.3a2.16,2.16,0,0,1,.76,0A5.6,5.6,0,0,0,43.46.2,4.85,4.85,0,0,1,47,.49a3,3,0,0,0,1.42.18c.78,0,1.17.35,1.13,1.12,0,.43.26.62.58.75a3.56,3.56,0,0,0,.79.22,1.89,1.89,0,0,1,1.35,1.16c.22.5.3,1,.51,1.56a.81.81,0,0,0,.48.43,14.85,14.85,0,0,1,2.34.4,5.9,5.9,0,0,1,3.48,3.05,7.12,7.12,0,0,1,.25,2.47c0,.17-.09.35-.07.52a6,6,0,0,1-.88,3.3.78.78,0,0,0,0,.6c.75,1.32,1.57,2.6,2.29,3.93s1.45,2.89,2.2,4.32c.23.44.57.83.82,1.26s.33.7.51,1a2.42,2.42,0,0,0,.4.65.68.68,0,0,1,.09.95c-.18.3-.33.62-.49.93Z"/></g></g></svg>