<svg xmlns="http://www.w3.org/2000/svg" viewBox="0 0 273.32 274.74"><defs><style>.cls-1{fill:#fff;}.cls-2{opacity:0.95;}</style></defs><title>Home_icon</title><g id="Layer_2" data-name="Layer 2"><g id="home"><path class="cls-1" d="M254.87,235.58c-3.56,2.13-6.16.38-8.71-1.53-2.3-1.71-4.48-3.61-6.88-5.16s-4.46-1.27-6.53,1.75c7.25,8,15.8,12.85,26.77,13.06,3.2.06,6.75-1.22,9.55,1.83.38,5.17-5.75,5.35-7.17,9.68,1.29.7,2.89,1.21,4,2.26a47.66,47.66,0,0,1,6.59,7.34c1.67,2.45.66,5.1-1.16,7.27-1.95,2.33-5.06,3.39-7.73,1.87a31.07,31.07,0,0,1-7-5.9c-1.23-1.31-1.78-3.24-2.71-5-4.07,1.57-4.75,6.91-9.28,7.89-3.14-2.7-2.55-6.18-2.46-9.41.27-9.69-3.46-17.69-10-24.56a12,12,0,0,0-2.22-1.78c-.35-.22-.9-.13-1.82-.22-2.22,2.58-1.05,5.14.59,7.51,1.5,2.16,3.44,4,4.89,6.19,3.34,5,2.19,8.19-3.66,9-3.78.54-5.47,2.21-6,5.8-.46,3-.78,6.37-5,7-6.42-2.8-2.35-9.58-5.14-14l-6.05-4c-.55-4.12,2.13-6.16,4.26-8.25,4.3-4.24,6.85-8.65,6.14-15.22-.76-7.06,2.23-10.09,9.22-9.49,6.74.58,11.46-1.87,15.85-6.46,2-2.13,4.2-4.87,8.11-3.53.4.43,1.14.86,1.33,1.46,1.27,4.11,4.13,5.54,8.23,5.36,3.41-.14,6.79.09,8.25,4-.12,3.16-2.27,4.44-4.73,4.53-6.05.22-8.57,3.36-8.51,9.12C255.83,234.35,255.36,234.76,254.87,235.58Z"/><path class="cls-1" d="M261.88,18.94c1.05,4.62,7.18,4.84,7.24,9.62-1.72,3.06-4.6,2.34-7.09,2.22-10.77-.52-19.58,3.7-27.23,10.88a11.47,11.47,0,0,0-1.35,1.67,4.59,4.59,0,0,0-.23,1.16c1.35,2.39,3.62,2.49,5.83,1.17a68.07,68.07,0,0,0,6.88-5.15c2.76-2.16,5.56-3.84,9.25-1.36a12.83,12.83,0,0,1,1,2.54c1.13,6.38,1.09,6.45,7.23,7.78,2.44.52,4.7,1.06,5.58,3.8.13,2.65-1.57,3.84-3.77,4.52a7.39,7.39,0,0,1-2.83.34c-5.22-.62-9,1.07-10.35,7.29-2.05-.4-3.95-.41-5.47-1.18a15.52,15.52,0,0,1-4.4-3.65c-3.77-4.24-8.14-6-14-5.54-8,.57-10.82-2.29-10-10.13.58-5.68-1.47-9.65-5.08-13.49-2.24-2.39-5.11-4.47-5.54-8.92l6.56-4.8c.71-3.81,1.36-7.76,2.25-11.66.17-.76,1.29-1.3,2.07-2,7.31.83,4,8.55,8.27,12.06a36.63,36.63,0,0,1,4.86.82c3.74,1.05,5,3.7,3.12,7.16-1.36,2.49-3.36,4.63-5.08,6.93-1.9,2.55-3.62,5.13-1.51,9,1.29-.66,2.7-1,3.55-1.87,6.75-7,10.9-15.08,10.69-25.07-.07-3.23-.85-6.75,2.31-9.29,4.55.5,5.44,5.3,9.15,7.36,1-1.7,1.66-3.5,2.88-4.79A28,28,0,0,1,263,.81a6.61,6.61,0,0,1,8.43,1.88c2.09,2.51,2.48,5.38.56,8a45.29,45.29,0,0,1-6.45,6.54C264.59,18.05,263.13,18.37,261.88,18.94Z"/><path class="cls-1" d="M46.21,258.28c-.67-.1-2.09-.24-3.46-.54-5-1.09-6.3-3.93-3.61-8.32,1.36-2.23,3.31-4.09,4.88-6.2,1.88-2.54,3.47-5.18,1.21-8.37C40,237,34.83,242.64,32.81,250.46c-1.69,6.53-2,13.42-2.94,20.22-6.14.13-6.18-6.5-9.76-7.36-3,3.46-5.5,6.91-8.56,9.78a6.18,6.18,0,0,1-7.4.77c-4-2.14-5.16-6.27-2.9-10.41,1.7-3.11,3.91-4.9,10-8-.58-4.54-7.51-4.53-7.24-9.66,2.33-3.31,5.72-2.12,8.66-2.05,10.26.26,18.55-4,25.8-10.79a13.67,13.67,0,0,0,1.81-2.76c-2.34-3.17-4.88-2.31-7.18-.84s-4.12,3.27-6.21,4.86c-2.55,2-5.19,3.6-8.85,1.12-.22-.8-.64-1.89-.85-3-1-5.76-1.1-5.94-7.11-7.15-3-.61-5.7-1.22-5.74-5.06a5.78,5.78,0,0,1,6.4-3.65c5.64.67,9.1-1.74,11-7.65,2,.66,3.88.93,5.35,1.83A23,23,0,0,1,32,214.76c3.31,3.64,7.21,5.39,12.17,4.62a14.87,14.87,0,0,1,3.59,0c5,.47,7.54,2.3,7,7.17-.86,8.34,2.55,14.26,8.24,19.61,1.32,1.23,2,3.12,3.41,5.36l-7,5c-2.71,4.18,1,10.42-4.67,14C47.3,270,51.2,261.43,46.21,258.28Z"/><g class="cls-2"><path class="cls-1" d="M47.8,15.69c.55-2.06,1.16-4.29,1.74-6.52.62-2.43,1.55-4.58,4.7-5.13,6.53,2.55,2.53,9.39,5.39,14.11L66,22.38A22.08,22.08,0,0,1,64.17,27a32.54,32.54,0,0,1-4.24,4.86C56.09,35.6,54.65,39.93,55,45.44c.47,7.59-2.14,10.28-9.74,9.64-6.2-.52-10.55,1.64-14.64,5.86-2.2,2.27-4.39,5.37-8.93,4a17.36,17.36,0,0,1-1.63-2.68c-1.28-3.14-3.71-4.15-6.87-4.12-1.66,0-3.55.26-4.94-.41A7.31,7.31,0,0,1,4.53,54c-.66-2.14,1.33-3.33,3.23-4a16.37,16.37,0,0,1,2.1-.47C16.17,48,16.16,48,17.2,41.76a16.05,16.05,0,0,1,.56-2c2.51-2.88,5.18-2.07,7.71-.31,2.35,1.64,4.44,3.66,6.79,5.29s5.05,2.9,8-.2a28.13,28.13,0,0,0-2.9-3.78C30.26,34.12,21.93,30.5,12,30.75c-2.73.07-5.84,1.08-8-2,.11-4.85,5.95-5.14,7.55-9.42a18.69,18.69,0,0,1-3.39-1.87c-2.34-2-4.91-3.86-6.67-6.3C-.89,7.84-.28,4.57,2.36,2.05A6.78,6.78,0,0,1,11,1.16c2.45,1.75,4.37,4.29,6.34,6.64.88,1,1.29,2.49,2.14,4.2,3-3.12,5.69-5.94,8.5-8.89,3.58,2.81,3.15,6,3,9C30.59,22.35,34.47,30.82,41.47,38a20.27,20.27,0,0,0,3,2.14c2.62-2.48,2.09-4.94.57-7.22s-3.38-4-4.93-6.15c-4.16-5.64-2.74-9,4.25-10.24C45.28,16.37,46.19,16.09,47.8,15.69Z"/></g><path class="cls-1" d="M225.7,144.87c-.55,3.74-3.41,4.59-6.54,5.53-6.19,1.84-12.53,3.47-18.35,6.17-26.6,12.36-43.65,32.87-51.2,61.25a27.51,27.51,0,0,1-2.26,6.77c-2,3.45-6.35,3.07-7.84-.66a11.66,11.66,0,0,1-.53-5.57,72.69,72.69,0,0,1,8.57-26.52c11.67-20.57,27.55-36.82,49.63-46.07,6.33-2.65,13.26-4,20-5.39C222.1,139.41,222.68,140.12,225.7,144.87Z"/><path class="cls-1" d="M225.76,129.44c-1,4.05-3.79,5.28-7.18,4.82a96,96,0,0,1-13.35-2.59c-32.34-9.2-61.41-42.11-66-74.71a13.32,13.32,0,0,1,.35-6.26c1.36-3.73,5.73-4,7.84-.65a19.54,19.54,0,0,1,2,5.34c9.51,36.09,32.48,58.73,68.36,68.46C221,124.73,224.38,125.15,225.76,129.44Z"/><path class="cls-1" d="M134.25,216.84a33.77,33.77,0,0,1,0,4.27c-.3,2.3-1.45,4.1-3.9,4.56s-4.17-1-5-3.12a63.85,63.85,0,0,1-1.76-6.2c-9.25-32.27-29.51-54.14-61.45-64.92-2.71-.91-5.56-1.42-8.31-2.22-2.18-.63-4.54-1.33-5.6-3.47-1.28-2.56.56-5.52,3.35-6.15a19.11,19.11,0,0,1,7,0,80.24,80.24,0,0,1,34.74,14.67c19.22,14,33.08,32.09,40.09,55.19a4.63,4.63,0,0,1,.18.9c.25,2.14.36,4.29.52,6.44Z"/><g class="cls-2"><path class="cls-1" d="M55.34,134.74c-2.37-.57-3.86-.66-5.1-1.28-3.29-1.65-3.6-5.53-.44-7.45a23.78,23.78,0,0,1,6.69-2.37c24.72-6.16,43.36-20.57,56.78-42a85.81,85.81,0,0,0,10.31-25.12c.52-2.08.86-4.39,2-6.06.93-1.32,3.13-2.64,4.56-2.45s3.06,2.05,3.77,3.56.28,3.26.12,4.9a64.48,64.48,0,0,1-7,23.24C115,103.11,97.31,120.59,72.48,130.1,66.73,132.31,60.54,133.36,55.34,134.74Z"/></g><path class="cls-1" d="M189.46,266.16a31.13,31.13,0,0,1-3.78-4c-6-9.18-5.25-22.37,1.71-30.86,1.36-1.66,3-3.13,4.39-4.73,3.19-3.55,5.14-7.39,3.56-12.4-.41-1.31.2-2.95.36-4.66,8.22,3.43,11.89,10.35,9,17.24a41,41,0,0,1-7.16,11.42c-4.3,4.72-5.86,9.6-4.07,15.72a25.51,25.51,0,0,1,.76,6.36C194.28,262.81,193.16,264.82,189.46,266.16Z"/><path class="cls-1" d="M265,191.14c-1.94,4.17-5.17,5.4-8.51,4.31-9.3-3-16.64-.48-23.27,6.33-2,2.11-5.2,3.38-8.08,4.41-6.14,2.21-13.28-.86-16.36-6.72-.28-.54,0-1.36,0-2.53,1.38-.14,2.88-.76,4-.33,4.7,1.92,8.37.1,11.81-2.81,1.81-1.54,3.44-3.32,5.25-4.85,8.89-7.51,24-7.69,33.16-.39A16.7,16.7,0,0,1,265,191.14Z"/><path class="cls-1" d="M195.78,65.05c-.18-1.71-.81-3.33-.41-4.64,1.52-5-.34-8.89-3.59-12.43-1.46-1.59-3-3.08-4.39-4.75-7-8.66-7.58-22.52-1.16-31.59a17.73,17.73,0,0,1,3.37-2.93c3.34.78,4.38,2.78,4.58,5.36a8.82,8.82,0,0,1-.14,3.56c-3.1,8.48-.64,15.24,5.62,21.39,2.29,2.25,3.78,5.55,5,8.62C207.46,54.68,204.07,61.48,195.78,65.05Z"/><g class="cls-2"><path class="cls-1" d="M77.81,65.31c-9-4-12.24-10.9-9-18.3a36.71,36.71,0,0,1,6.49-10.17C79.8,32,81.69,27,79.67,20.55a22.21,22.21,0,0,1-.58-6.38,5.28,5.28,0,0,1,3.76-5.5c3.16.2,4.31,2.72,5.45,5C93,23.19,93.5,36.32,84,45.45A41.24,41.24,0,0,0,81,48.56c-2.76,3.23-4.35,6.76-3.26,11.19C78.11,61.23,77.81,62.87,77.81,65.31Z"/></g><path class="cls-1" d="M83.94,266.28c-3.91-1.52-5-3.54-4.87-6.16a23.77,23.77,0,0,1,.65-6.39c2-6.2.24-11.06-4.12-15.67a37.79,37.79,0,0,1-6.37-9.46c-3.76-7.83-1.1-14.4,7.17-18.83,2.43,1.07,1.81,3.13,1.35,4.9-1.22,4.72.57,8.42,3.63,11.76.81.88,1.63,1.75,2.48,2.59,9.1,8.89,9.19,20.55,4.59,31.19C87.49,262.44,85.49,264.24,83.94,266.28Z"/><path class="cls-1" d="M264.82,83.37a21,21,0,0,1-3.12,3.48c-9,6.48-23.44,5.87-32-1.27-.91-.76-1.79-1.59-2.62-2.43-4.39-4.47-9.1-7.82-15.82-5-.52.21-1.32-.26-2.35-.49-.06-.9-.48-2-.12-2.62,3.4-6.23,10.7-9.23,17.09-6.41A45.18,45.18,0,0,1,237.15,76c4.31,3.77,8.7,5.62,14.36,3.91a28.08,28.08,0,0,1,5.63-1C260.65,78.6,261.53,79.15,264.82,83.37Z"/><path class="cls-1" d="M8,191.81c1.36-1.7,2-3.05,3.11-3.82,7.55-5.34,22.45-7.81,32.14.79,1.43,1.27,2.77,2.65,4.19,3.94,3.88,3.51,8,6.18,13.58,3.78.9-.38,2.21.19,3.35.31-1,6.84-8.19,11.78-14.73,9.63a34,34,0,0,1-12.34-6.92c-5.34-5-10.89-6.4-17.75-4.61a15.72,15.72,0,0,1-7,.22C11,194.8,9.71,193.11,8,191.81Z"/><g class="cls-2"><path class="cls-1" d="M64.71,77.64c-1.65.12-3.19.68-4.31.22-4.77-2-8.36.16-11.79,3-1.48,1.22-2.73,2.69-4.16,4-8.6,7.67-23.22,8.68-32.69,2.18A22.26,22.26,0,0,1,8.49,83.6c1.26-4.14,4.1-4.93,7.44-4.62A44.67,44.67,0,0,1,23,80.14c4.94,1.28,8.74-.61,12.5-3.62A57.45,57.45,0,0,1,46.75,69c6.54-3.07,13.66-.55,17.51,5.54C64.7,75.21,64.54,76.3,64.71,77.64Z"/></g><path class="cls-1" d="M132.53,190.81c-5.1-7.61-8.74-14.11-13.42-19.75a122.68,122.68,0,0,0-16.25-16.14c-5.6-4.6-12-8.18-19.22-13,2.69-.87,4-1.75,5.09-1.54A19.15,19.15,0,0,1,94,142.55a91.58,91.58,0,0,1,38,38,18.74,18.74,0,0,1,2.1,5.31C134.33,187,133.43,188.21,132.53,190.81Z"/><g class="cls-2"><path class="cls-1" d="M84.52,132.7c4.24-5.13,10.23-6.4,14.53-10.06s8.64-6.87,12.51-10.75a118.12,118.12,0,0,0,11.15-13.1c3.21-4.36,5.82-9.15,9.23-14.61,1.15,1.83,2.37,2.88,2.3,3.85a12.83,12.83,0,0,1-1.65,4.67,89.94,89.94,0,0,1-39.3,39.63,14,14,0,0,1-4.65,1.79C87.51,134.25,86.27,133.35,84.52,132.7Z"/></g><path class="cls-1" d="M188,141.27c-.07,3.23-2.13,4-4,5-17.12,8.76-29.94,21.88-39.17,38.64a32.86,32.86,0,0,1-2.34,3.58c-.24.33-.82.41-1.83.88-.57-1-1.79-2.1-1.66-3a17.25,17.25,0,0,1,2-5.31,91.56,91.56,0,0,1,38.24-38.6,19.09,19.09,0,0,1,5.27-2.16C185.59,140.07,186.91,140.93,188,141.27Z"/><path class="cls-1" d="M140.77,83.51C144.88,90,147.68,95,151,99.54a101.08,101.08,0,0,0,10.71,12.55,162.76,162.76,0,0,0,13.24,11c4.18,3.31,10.06,4.3,13.13,9.06-1.23,2.79-3.21,2.56-5,1.71a86.93,86.93,0,0,1-10.13-5.4,93.64,93.64,0,0,1-31.51-33.85A24.08,24.08,0,0,1,139,88.69C138.77,87.67,139.73,86.37,140.77,83.51Z"/><path class="cls-1" d="M201.23,192.32a10.44,10.44,0,1,1-10.37-10.59A10.33,10.33,0,0,1,201.23,192.32Z"/><g class="cls-2"><path class="cls-1" d="M82.35,72.29A10.22,10.22,0,1,1,72,82.72,10.17,10.17,0,0,1,82.35,72.29Z"/></g><path class="cls-1" d="M92.86,191.8a10.44,10.44,0,1,1-20.88.12,10.45,10.45,0,0,1,20.88-.12Z"/><path class="cls-1" d="M190.83,92.75a10.3,10.3,0,0,1-10.49-10.42,10.46,10.46,0,0,1,20.9-.06A10.26,10.26,0,0,1,190.83,92.75Z"/></g></g></svg>