<svg xmlns="http://www.w3.org/2000/svg" viewBox="0 0 57.06 57.35"><defs><style>.cls-1{opacity:0.95;}</style></defs><title>IconoHomeMujeres</title><g id="Layer_2" data-name="Layer 2"><g id="menú"><path d="M53.21,49.18c-.75.44-1.29.08-1.82-.32s-.94-.75-1.44-1.08-.93-.26-1.36.37a7.43,7.43,0,0,0,5.59,2.72c.66,0,1.4-.25,2,.39.08,1.07-1.2,1.11-1.5,2a3.24,3.24,0,0,1,.83.47,9.5,9.5,0,0,1,1.38,1.53,1.22,1.22,0,0,1-.24,1.52,1.29,1.29,0,0,1-1.62.39A6.53,6.53,0,0,1,53.57,56,5,5,0,0,1,53,54.91c-.85.33-1,1.44-1.93,1.65-.66-.57-.54-1.29-.52-2a6.88,6.88,0,0,0-2.09-5.12A2.26,2.26,0,0,0,48,49.1c-.08-.05-.19,0-.38-.05-.47.54-.23,1.07.12,1.57s.72.83,1,1.29c.7,1.05.46,1.71-.77,1.88A1.26,1.26,0,0,0,46.74,55c-.1.64-.16,1.33-1.05,1.47-1.34-.58-.49-2-1.07-2.93l-1.27-.84c-.11-.86.45-1.29.89-1.72a3.61,3.61,0,0,0,1.28-3.18c-.16-1.47.47-2.11,1.93-2a3.83,3.83,0,0,0,3.31-1.35c.42-.44.87-1,1.69-.74.08.09.24.18.28.31a1.5,1.5,0,0,0,1.71,1.12c.72,0,1.42,0,1.73.83a.93.93,0,0,1-1,.94,1.64,1.64,0,0,0-1.78,1.91C53.41,48.92,53.31,49,53.21,49.18Z"/><path d="M54.67,4c.22,1,1.5,1,1.51,2-.36.64-1,.49-1.48.47A7.53,7.53,0,0,0,49,8.7a3.3,3.3,0,0,0-.28.35.87.87,0,0,0,0,.24.78.78,0,0,0,1.21.24,13.42,13.42,0,0,0,1.44-1.07c.57-.46,1.16-.81,1.93-.29a3.05,3.05,0,0,1,.2.53c.24,1.34.23,1.35,1.51,1.63.51.11,1,.22,1.16.79s-.32.8-.78.94a1.33,1.33,0,0,1-.59.07,1.74,1.74,0,0,0-2.16,1.53,5,5,0,0,1-1.15-.25,3.69,3.69,0,0,1-.92-.76,3.26,3.26,0,0,0-2.92-1.16c-1.67.12-2.26-.48-2.09-2.11a3.33,3.33,0,0,0-1.07-2.82A3,3,0,0,1,43.31,4.7l1.37-1c.15-.8.28-1.62.47-2.44,0-.16.27-.27.43-.42,1.53.17.83,1.78,1.73,2.52a7.3,7.3,0,0,1,1,.17A.93.93,0,0,1,49,5a12.21,12.21,0,0,1-1.06,1.45,1.55,1.55,0,0,0-.31,1.87A2.47,2.47,0,0,0,48.34,8a7.11,7.11,0,0,0,2.23-5.23c0-.68-.18-1.41.48-1.94,1,.1,1.14,1.11,1.91,1.54a5.29,5.29,0,0,1,.6-1A5.89,5.89,0,0,1,54.91.17a1.38,1.38,0,0,1,1.76.39,1.27,1.27,0,0,1,.12,1.66,9.7,9.7,0,0,1-1.35,1.37A3.2,3.2,0,0,1,54.67,4Z"/><path d="M9.65,53.92a7.12,7.12,0,0,1-.73-.12c-1-.22-1.31-.82-.75-1.73.29-.47.69-.86,1-1.3s.72-1.08.25-1.74a4.73,4.73,0,0,0-2.59,3.25,36.82,36.82,0,0,0-.61,4.23c-1.29,0-1.3-1.36-2-1.54a26.08,26.08,0,0,1-1.79,2,1.29,1.29,0,0,1-1.54.16A1.5,1.5,0,0,1,.26,55c.36-.65.82-1,2.08-1.68-.12-1-1.57-1-1.51-2,.49-.69,1.19-.44,1.81-.43A7.35,7.35,0,0,0,8,48.62,2.76,2.76,0,0,0,8.4,48c-.49-.66-1-.48-1.5-.17s-.86.68-1.3,1a1.4,1.4,0,0,1-1.84.23,5.47,5.47,0,0,1-.18-.63c-.22-1.21-.23-1.25-1.48-1.5-.63-.12-1.19-.25-1.2-1.05a1.22,1.22,0,0,1,1.33-.77,2,2,0,0,0,2.3-1.59A4.89,4.89,0,0,1,5.65,44a4.76,4.76,0,0,1,1,.87,2.69,2.69,0,0,0,2.54,1,3.14,3.14,0,0,1,.75,0c1,.1,1.57.48,1.46,1.5a4.67,4.67,0,0,0,1.72,4.09,5.58,5.58,0,0,1,.72,1.12l-1.46,1c-.57.87.21,2.18-1,2.91C9.87,56.35,10.69,54.57,9.65,53.92Z"/><g class="cls-1"><path d="M10,3.27c.11-.42.24-.89.36-1.36a1.22,1.22,0,0,1,1-1.07c1.37.54.53,2,1.13,3l1.32.88a4.68,4.68,0,0,1-.37,1,6.57,6.57,0,0,1-.89,1,3.43,3.43,0,0,0-1,2.85c.1,1.58-.45,2.14-2,2a3.53,3.53,0,0,0-3.06,1.22c-.46.48-.92,1.12-1.86.83A3.19,3.19,0,0,1,4.18,13a1.36,1.36,0,0,0-1.43-.86,2.33,2.33,0,0,1-1-.08,1.6,1.6,0,0,1-.78-.78c-.13-.45.28-.7.68-.84a3.13,3.13,0,0,1,.44-.1C3.38,10,3.37,10,3.59,8.72a2.58,2.58,0,0,1,.12-.42c.52-.6,1.08-.43,1.61-.07S6.24,9,6.73,9.34s1.06.6,1.68,0a5.46,5.46,0,0,0-.6-.79,7.26,7.26,0,0,0-5.3-2.09c-.57,0-1.22.22-1.68-.43,0-1,1.24-1.07,1.58-2a4.1,4.1,0,0,1-.71-.39A7.92,7.92,0,0,1,.31,2.32,1.33,1.33,0,0,1,.49.43,1.42,1.42,0,0,1,2.29.24,7.92,7.92,0,0,1,3.61,1.63a4.46,4.46,0,0,1,.45.88L5.83.65a1.91,1.91,0,0,1,.64,1.89,7.13,7.13,0,0,0,2.19,5.4,5,5,0,0,0,.62.44A1,1,0,0,0,9.4,6.87c-.3-.45-.7-.84-1-1.28-.87-1.18-.57-1.87.89-2.14C9.45,3.42,9.64,3.36,10,3.27Z"/></g><path d="M47.12,30.24c-.12.78-.72,1-1.37,1.16a26.94,26.94,0,0,0-3.83,1.29A18.79,18.79,0,0,0,31.23,45.47a6,6,0,0,1-.47,1.41.88.88,0,0,1-1.64-.13A2.56,2.56,0,0,1,29,45.58a15.17,15.17,0,0,1,1.79-5.53,21.34,21.34,0,0,1,10.36-9.62,22,22,0,0,1,4.18-1.12C46.36,29.1,46.49,29.25,47.12,30.24Z"/><path d="M47.13,27a1.23,1.23,0,0,1-1.5,1,21.82,21.82,0,0,1-2.79-.54C36.09,25.57,30,18.7,29.06,11.89a2.75,2.75,0,0,1,.07-1.31.89.89,0,0,1,1.64-.13,4.22,4.22,0,0,1,.41,1.11c2,7.54,6.78,12.26,14.27,14.29C46.13,26,46.84,26.13,47.13,27Z"/><path d="M28,45.27a6.61,6.61,0,0,1,0,.89,1,1,0,0,1-.82,1,.89.89,0,0,1-1-.65,11.38,11.38,0,0,1-.37-1.3A19,19,0,0,0,13,31.61c-.56-.19-1.16-.29-1.73-.46a1.66,1.66,0,0,1-1.17-.73.93.93,0,0,1,.7-1.28,4,4,0,0,1,1.46,0,16.75,16.75,0,0,1,7.25,3.06,21.94,21.94,0,0,1,8.37,11.52,1.62,1.62,0,0,1,0,.19c.05.45.07.9.1,1.35Z"/><g class="cls-1"><path d="M11.55,28.13a5.88,5.88,0,0,1-1.06-.27.86.86,0,0,1-.09-1.56,5,5,0,0,1,1.39-.49,19.07,19.07,0,0,0,11.86-8.76A18,18,0,0,0,25.8,11.8a4,4,0,0,1,.42-1.26,1.24,1.24,0,0,1,1-.51c.3,0,.64.43.79.74a2.18,2.18,0,0,1,0,1,13.56,13.56,0,0,1-1.46,4.86,21.14,21.14,0,0,1-11.4,10.51A33.88,33.88,0,0,1,11.55,28.13Z"/></g><path d="M39.55,55.56a6.91,6.91,0,0,1-.79-.84,5.64,5.64,0,0,1,.36-6.44c.28-.35.61-.66.91-1a2.51,2.51,0,0,0,.75-2.59,2.79,2.79,0,0,1,.07-1c1.72.71,2.49,2.16,1.88,3.6a8.33,8.33,0,0,1-1.5,2.38A3.2,3.2,0,0,0,40.38,53a5,5,0,0,1,.16,1.33C40.56,54.86,40.32,55.28,39.55,55.56Z"/><path d="M55.31,39.9a1.39,1.39,0,0,1-1.78.9,4.36,4.36,0,0,0-4.85,1.32A4.41,4.41,0,0,1,47,43a2.87,2.87,0,0,1-3.42-1.4c-.06-.11,0-.28,0-.53.29,0,.6-.16.82-.07a2.27,2.27,0,0,0,2.47-.58c.38-.33.71-.7,1.09-1a5.77,5.77,0,0,1,6.93-.08A4.38,4.38,0,0,1,55.31,39.9Z"/><path d="M40.87,13.58a2.85,2.85,0,0,1-.09-1A2.51,2.51,0,0,0,40,10c-.3-.34-.63-.65-.91-1a5.68,5.68,0,0,1-.24-6.59,3.3,3.3,0,0,1,.7-.61,1.11,1.11,0,0,1,1,1.12,1.83,1.83,0,0,1,0,.74,3.91,3.91,0,0,0,1.17,4.47,5.08,5.08,0,0,1,1,1.79C43.31,11.41,42.6,12.83,40.87,13.58Z"/><g class="cls-1"><path d="M16.24,13.63c-1.88-.84-2.55-2.27-1.87-3.82a7.72,7.72,0,0,1,1.35-2.12,3.21,3.21,0,0,0,.91-3.4A4.55,4.55,0,0,1,16.51,3a1.09,1.09,0,0,1,.79-1.15c.65,0,.9.57,1.13,1a5.6,5.6,0,0,1-.9,6.63,6.35,6.35,0,0,0-.62.65,2.48,2.48,0,0,0-.68,2.33A5.41,5.41,0,0,1,16.24,13.63Z"/></g><path d="M17.52,55.59c-.81-.32-1-.74-1-1.29A4.85,4.85,0,0,1,16.64,53a3,3,0,0,0-.86-3.27,7.82,7.82,0,0,1-1.33-2c-.78-1.63-.23-3,1.5-3.93.51.22.38.65.28,1A2.54,2.54,0,0,0,17,47.27l.52.54c1.89,1.85,1.91,4.29,1,6.51A7,7,0,0,1,17.52,55.59Z"/><path d="M55.28,17.4a4.09,4.09,0,0,1-.65.73,5.79,5.79,0,0,1-6.69-.27c-.19-.15-.37-.33-.55-.5-.91-.93-1.9-1.63-3.3-1.05-.11.05-.28,0-.49-.1,0-.19-.1-.41,0-.54a2.8,2.8,0,0,1,3.56-1.34,9.16,9.16,0,0,1,2.37,1.53,3,3,0,0,0,3,.81,6.61,6.61,0,0,1,1.18-.2C54.41,16.41,54.6,16.52,55.28,17.4Z"/><path d="M1.67,40a5.32,5.32,0,0,1,.65-.8C3.9,38.13,7,37.61,9,39.41c.3.26.58.55.88.82.81.73,1.66,1.29,2.83.79.19-.08.46,0,.7.07a2.46,2.46,0,0,1-3.07,2,7.07,7.07,0,0,1-2.58-1.45,3.63,3.63,0,0,0-3.71-1,3.42,3.42,0,0,1-1.46.05C2.29,40.67,2,40.31,1.67,40Z"/><g class="cls-1"><path d="M13.51,16.21c-.35,0-.67.14-.9,0a2.26,2.26,0,0,0-2.46.63c-.31.25-.57.56-.87.82a5.79,5.79,0,0,1-6.82.46,4.62,4.62,0,0,1-.69-.71,1.28,1.28,0,0,1,1.55-1,8.16,8.16,0,0,1,1.48.24A2.81,2.81,0,0,0,7.41,16,12.19,12.19,0,0,1,9.76,14.4a2.82,2.82,0,0,1,3.65,1.15C13.51,15.7,13.47,15.93,13.51,16.21Z"/></g><path d="M27.67,39.83c-1.07-1.59-1.83-2.94-2.8-4.12a25.78,25.78,0,0,0-3.4-3.37c-1.17-1-2.51-1.71-4-2.71.56-.18.83-.36,1.06-.32a3.81,3.81,0,0,1,1.11.45,19,19,0,0,1,7.93,7.94A3.84,3.84,0,0,1,28,38.8C28,39,27.85,39.29,27.67,39.83Z"/><g class="cls-1"><path d="M17.64,27.7c.89-1.07,2.14-1.33,3-2.1s1.8-1.43,2.61-2.24a25.35,25.35,0,0,0,2.33-2.74c.67-.91,1.21-1.91,1.92-3.05.24.38.5.6.48.81a2.56,2.56,0,0,1-.34,1,18.81,18.81,0,0,1-8.2,8.28,3,3,0,0,1-1,.37C18.27,28,18,27.84,17.64,27.7Z"/></g><path d="M39.24,29.49c0,.68-.44.85-.84,1.05a19.24,19.24,0,0,0-8.18,8.07,7.2,7.2,0,0,1-.48.74c0,.07-.17.09-.38.19-.12-.21-.38-.44-.35-.64a3.34,3.34,0,0,1,.42-1.11,19.12,19.12,0,0,1,8-8,3.87,3.87,0,0,1,1.1-.45C38.74,29.24,39,29.42,39.24,29.49Z"/><path d="M29.39,17.43c.85,1.36,1.44,2.4,2.14,3.35a21.51,21.51,0,0,0,2.24,2.62,32,32,0,0,0,2.76,2.3c.87.69,2.1.9,2.74,1.89a.67.67,0,0,1-1,.36,17.76,17.76,0,0,1-2.11-1.13,19.49,19.49,0,0,1-6.58-7.07A4.8,4.8,0,0,1,29,18.51C29,18.3,29.17,18,29.39,17.43Z"/><path d="M42,40.15a2.18,2.18,0,1,1-2.17-2.21A2.16,2.16,0,0,1,42,40.15Z"/><g class="cls-1"><path d="M17.19,15.09A2.14,2.14,0,1,1,15,17.27,2.15,2.15,0,0,1,17.19,15.09Z"/></g><path d="M19.38,40a2.18,2.18,0,1,1-4.35,0,2.18,2.18,0,0,1,4.35,0Z"/><path d="M39.84,19.36a2.14,2.14,0,0,1-2.19-2.17,2.18,2.18,0,0,1,4.36,0A2.14,2.14,0,0,1,39.84,19.36Z"/></g></g></svg>