<svg xmlns="http://www.w3.org/2000/svg" viewBox="0 0 50 50.85"><defs><style>.cls-1{fill:#231f20;}</style></defs><title>IconoHomePasado</title><g id="Layer_2" data-name="Layer 2"><g id="menú"><polygon class="cls-1" points="17.94 26.89 17.94 25.54 17.94 24.2 19.28 24.2 20.63 24.2 20.63 25.54 20.63 26.89 19.28 26.89 17.94 26.89"/><polygon class="cls-1" points="11.96 27.26 11.96 25.64 11.96 24.03 13.57 24.03 15.19 24.03 15.19 25.64 15.19 27.26 13.57 27.26 11.96 27.26"/><polygon class="cls-1" points="5.98 27.63 5.98 25.74 5.98 23.86 7.87 23.86 9.75 23.86 9.75 25.74 9.75 27.63 7.87 27.63 5.98 27.63"/><polygon class="cls-1" points="0 28 0 25.84 0 23.69 2.16 23.69 4.31 23.69 4.31 25.84 4.31 28 2.16 28 0 28"/><path class="cls-1" d="M4,18.21C4,18.26,4,20,4,20S4,21.78,4,21.83s-1.73.08-1.8.08-1.76,0-1.81-.08S.27,20.1.27,20s0-1.76.08-1.81,1.73-.08,1.81-.08S3.91,18.16,4,18.21Z"/><path class="cls-1" d="M3.61,12.74a6.87,6.87,0,0,1,.16,1.46,6.87,6.87,0,0,1-.16,1.46,7.49,7.49,0,0,1-1.45.16A7.5,7.5,0,0,1,.7,15.66a6.74,6.74,0,0,1,0-2.92,6.7,6.7,0,0,1,2.91,0Z"/><path class="cls-1" d="M3.27,7.27A2.78,2.78,0,0,1,3.5,8.38a2.86,2.86,0,0,1-.23,1.11,2.86,2.86,0,0,1-1.11.23,2.78,2.78,0,0,1-1.11-.23A2.69,2.69,0,0,1,.81,8.38a2.62,2.62,0,0,1,.24-1.11A2.62,2.62,0,0,1,2.16,7,2.69,2.69,0,0,1,3.27,7.27Z"/><path class="cls-1" d="M2.16,3.63a1.11,1.11,0,0,1-.77-.31,1.1,1.1,0,0,1,0-1.53,1.1,1.1,0,0,1,1.53,0,1.11,1.11,0,0,1,.31.76A1.07,1.07,0,0,1,2.16,3.63Z"/><path class="cls-1" d="M9.21,2.45A1.34,1.34,0,0,1,7.86,3.8a1.35,1.35,0,0,1-1-2.3,1.35,1.35,0,0,1,2.3,1Z"/><path class="cls-1" d="M15.19,2.35A1.62,1.62,0,1,1,13.57.74a1.64,1.64,0,0,1,1.15.47A1.62,1.62,0,0,1,15.19,2.35Z"/><path class="cls-1" d="M21.17,2.25A1.88,1.88,0,1,1,20.62.92,1.89,1.89,0,0,1,21.17,2.25Z"/><path class="cls-1" d="M25,4.31a2.16,2.16,0,1,1,2.16-2.16A2.15,2.15,0,0,1,25,4.31Z"/><path class="cls-1" d="M26.4,6.56A2.32,2.32,0,0,1,26.88,8a2.29,2.29,0,0,1-.48,1.41,2.35,2.35,0,0,1-2.82,0A2.34,2.34,0,0,1,23.11,8a2.37,2.37,0,0,1,.47-1.42,2.35,2.35,0,0,1,2.82,0Z"/><path class="cls-1" d="M26.29,12.5a2.75,2.75,0,0,1,.32,1.3,2.78,2.78,0,0,1-.32,1.3,2.87,2.87,0,0,1-1.3.32,2.9,2.9,0,0,1-1.3-.32,2.9,2.9,0,0,1-.31-1.3,2.87,2.87,0,0,1,.31-1.3,2.78,2.78,0,0,1,1.3-.32A2.75,2.75,0,0,1,26.29,12.5Z"/><path class="cls-1" d="M26.18,18.43a4.51,4.51,0,0,1,0,2.38,4.51,4.51,0,0,1-2.38,0,4.8,4.8,0,0,1,0-2.38,4.51,4.51,0,0,1,2.38,0Z"/><polygon class="cls-1" points="23.91 26.52 23.91 25.44 23.91 24.36 24.99 24.36 26.07 24.36 26.07 25.44 26.07 26.52 24.99 26.52 23.91 26.52"/><polygon class="cls-1" points="23.65 32.6 23.65 31.26 23.65 29.91 25 29.91 26.34 29.91 26.34 31.26 26.34 32.6 25 32.6 23.65 32.6"/><polygon class="cls-1" points="17.67 32.97 17.67 31.36 17.67 29.74 19.29 29.74 20.9 29.74 20.9 31.36 20.9 32.97 19.29 32.97 17.67 32.97"/><polygon class="cls-1" points="11.69 33.34 11.69 31.46 11.69 29.57 13.58 29.57 15.46 29.57 15.46 31.46 15.46 33.34 13.58 33.34 11.69 33.34"/><polygon class="cls-1" points="5.71 33.71 5.71 31.56 5.71 29.4 7.87 29.4 10.02 29.4 10.02 31.56 10.02 33.71 7.87 33.71 5.71 33.71"/><path class="cls-1" d="M9.68,23.93c0,.05.07,1.73.07,1.8s0,1.76-.07,1.81-1.74.08-1.81.08-1.76,0-1.81-.08S6,25.81,6,25.73s0-1.75.08-1.8,1.73-.08,1.81-.08S9.63,23.88,9.68,23.93Z"/><path class="cls-1" d="M9.33,18.45a6.74,6.74,0,0,1,0,2.92,6.74,6.74,0,0,1-2.92,0,6.74,6.74,0,0,1,0-2.92,7.6,7.6,0,0,1,1.46-.15A7.6,7.6,0,0,1,9.33,18.45Z"/><path class="cls-1" d="M9,13A2.69,2.69,0,0,1,9,15.2a2.69,2.69,0,0,1-1.11.24,2.66,2.66,0,0,1-1.11-.24,2.69,2.69,0,0,1,0-2.22,2.66,2.66,0,0,1,1.11-.24A2.69,2.69,0,0,1,9,13Z"/><path class="cls-1" d="M7.87,9.35A1.08,1.08,0,0,1,7.11,9a1.06,1.06,0,0,1-.32-.76,1.07,1.07,0,0,1,1.84-.76A1,1,0,0,1,9,8.27,1.09,1.09,0,0,1,7.87,9.35Z"/><path class="cls-1" d="M14.92,8.17a1.34,1.34,0,0,1-2.29.95,1.34,1.34,0,1,1,1.9-1.9A1.35,1.35,0,0,1,14.92,8.17Z"/><path class="cls-1" d="M20.9,8.07a1.61,1.61,0,0,1-1.61,1.61,1.64,1.64,0,0,1-1.15-.47,1.62,1.62,0,0,1-.47-1.14,1.62,1.62,0,1,1,3.23,0Z"/><path class="cls-1" d="M26.88,8A1.88,1.88,0,0,1,25,9.85a1.9,1.9,0,0,1-1.34-.55A1.87,1.87,0,0,1,23.11,8,1.88,1.88,0,0,1,25,6.08a1.87,1.87,0,0,1,1.33.55A1.92,1.92,0,0,1,26.88,8Z"/><path class="cls-1" d="M30.71,10a2.16,2.16,0,1,1,2.15-2.15A2.15,2.15,0,0,1,30.71,10Z"/><path class="cls-1" d="M32.12,12.28a2.35,2.35,0,0,1,0,2.82,2.35,2.35,0,0,1-1.41.48,2.38,2.38,0,0,1-1.42-.48,2.35,2.35,0,0,1,0-2.82,2.38,2.38,0,0,1,1.42-.48A2.35,2.35,0,0,1,32.12,12.28Z"/><path class="cls-1" d="M32,18.21a2.9,2.9,0,0,1,.31,1.3,2.87,2.87,0,0,1-.31,1.3,2.82,2.82,0,0,1-2.61,0,2.87,2.87,0,0,1-.31-1.3,2.9,2.9,0,0,1,.31-1.3,2.9,2.9,0,0,1,2.61,0Z"/><path class="cls-1" d="M31.89,24.14a4.62,4.62,0,0,1,.16,1.19,4.5,4.5,0,0,1-.16,1.19,4.47,4.47,0,0,1-2.37,0,4.5,4.5,0,0,1-.16-1.19,4.62,4.62,0,0,1,.16-1.19,4.76,4.76,0,0,1,2.37,0Z"/><polygon class="cls-1" points="29.63 32.23 29.63 31.16 29.63 30.08 30.7 30.08 31.78 30.08 31.78 31.16 31.78 32.23 30.7 32.23 29.63 32.23"/><polygon class="cls-1" points="29.36 38.32 29.36 36.97 29.36 35.62 30.71 35.62 32.06 35.62 32.06 36.97 32.06 38.32 30.71 38.32 29.36 38.32"/><polygon class="cls-1" points="23.38 38.69 23.38 37.07 23.38 35.45 25 35.45 26.62 35.45 26.62 37.07 26.62 38.69 25 38.69 23.38 38.69"/><polygon class="cls-1" points="17.41 39.05 17.41 37.17 17.41 35.28 19.29 35.28 21.18 35.28 21.18 37.17 21.18 39.05 19.29 39.05 17.41 39.05"/><polygon class="cls-1" points="11.43 39.42 11.43 37.27 11.43 35.11 13.58 35.11 15.74 35.11 15.74 37.27 15.74 39.42 13.58 39.42 11.43 39.42"/><path class="cls-1" d="M15.39,29.64c0,.05.08,1.73.08,1.81s0,1.76-.08,1.8-1.73.08-1.81.08-1.76,0-1.81-.08-.07-1.73-.07-1.8,0-1.76.07-1.81,1.74-.08,1.81-.08S15.34,29.59,15.39,29.64Z"/><path class="cls-1" d="M15,24.17a6.7,6.7,0,0,1,0,2.91,6.74,6.74,0,0,1-2.92,0,7.13,7.13,0,0,1,0-2.91,6.74,6.74,0,0,1,2.92,0Z"/><path class="cls-1" d="M14.69,18.69a2.69,2.69,0,0,1,.24,1.11,2.62,2.62,0,0,1-.24,1.11,2.62,2.62,0,0,1-1.11.24,2.69,2.69,0,0,1-1.11-.24,2.78,2.78,0,0,1-.23-1.11,2.86,2.86,0,0,1,.23-1.11,2.86,2.86,0,0,1,1.11-.23A2.78,2.78,0,0,1,14.69,18.69Z"/><path class="cls-1" d="M13.58,15.06a1.06,1.06,0,0,1-.76-.32,1.06,1.06,0,0,1,0-1.52,1.06,1.06,0,0,1,.76-.32A1.09,1.09,0,0,1,14.66,14,1.08,1.08,0,0,1,13.58,15.06Z"/><path class="cls-1" d="M20.64,13.88a1.35,1.35,0,0,1-1.35,1.35,1.31,1.31,0,0,1-.95-.4,1.34,1.34,0,1,1,1.9-1.9A1.31,1.31,0,0,1,20.64,13.88Z"/><path class="cls-1" d="M26.62,13.78A1.63,1.63,0,0,1,25,15.4a1.57,1.57,0,0,1-1.14-.48,1.61,1.61,0,0,1,2.28-2.28A1.57,1.57,0,0,1,26.62,13.78Z"/><path class="cls-1" d="M32.6,13.68a1.89,1.89,0,0,1-1.89,1.89A1.84,1.84,0,0,1,29.38,15a1.88,1.88,0,1,1,3.22-1.33Z"/><path class="cls-1" d="M36.42,15.74a2.16,2.16,0,1,1,2.15-2.16A2.14,2.14,0,0,1,36.42,15.74Z"/><path class="cls-1" d="M37.83,18a2.34,2.34,0,0,1,.47,1.41,2.37,2.37,0,0,1-.47,1.42,2.35,2.35,0,0,1-2.82,0,2.32,2.32,0,0,1-.48-1.42A2.29,2.29,0,0,1,35,18a2.35,2.35,0,0,1,2.82,0Z"/><path class="cls-1" d="M37.72,23.92a2.9,2.9,0,0,1,0,2.61,2.9,2.9,0,0,1-1.3.31,2.87,2.87,0,0,1-1.3-.31,2.82,2.82,0,0,1,0-2.61,2.87,2.87,0,0,1,1.3-.31A2.9,2.9,0,0,1,37.72,23.92Z"/><path class="cls-1" d="M37.61,29.86a4.51,4.51,0,0,1,0,2.38,4.8,4.8,0,0,1-2.38,0,4.51,4.51,0,0,1,0-2.38,4.51,4.51,0,0,1,2.38,0Z"/><polygon class="cls-1" points="35.34 37.95 35.34 36.87 35.34 35.79 36.42 35.79 37.5 35.79 37.5 36.87 37.5 37.95 36.42 37.95 35.34 37.95"/><polygon class="cls-1" points="35.08 44.03 35.08 42.68 35.08 41.34 36.42 41.34 37.77 41.34 37.77 42.68 37.77 44.03 36.42 44.03 35.08 44.03"/><polygon class="cls-1" points="29.1 44.4 29.1 42.78 29.1 41.17 30.71 41.17 32.33 41.17 32.33 42.78 32.33 44.4 30.71 44.4 29.1 44.4"/><polygon class="cls-1" points="23.12 44.77 23.12 42.88 23.12 41 25 41 26.89 41 26.89 42.88 26.89 44.77 25 44.77 23.12 44.77"/><polygon class="cls-1" points="17.14 45.14 17.14 42.98 17.14 40.83 19.3 40.83 21.45 40.83 21.45 42.98 21.45 45.14 19.3 45.14 17.14 45.14"/><path class="cls-1" d="M21.1,35.35s.08,1.74.08,1.81,0,1.76-.08,1.81-1.73.08-1.8.08-1.76,0-1.81-.08-.08-1.74-.08-1.81,0-1.76.08-1.81,1.73-.08,1.81-.08S21.05,35.3,21.1,35.35Z"/><path class="cls-1" d="M20.75,29.88a6.74,6.74,0,0,1,0,2.92,7.13,7.13,0,0,1-2.91,0,6.74,6.74,0,0,1,0-2.92,6.7,6.7,0,0,1,2.91,0Z"/><path class="cls-1" d="M20.41,24.41a2.78,2.78,0,0,1,.23,1.11,2.86,2.86,0,0,1-.23,1.11,2.86,2.86,0,0,1-1.11.23,2.78,2.78,0,0,1-1.11-.23A2.69,2.69,0,0,1,18,25.52a2.62,2.62,0,0,1,.24-1.11,2.62,2.62,0,0,1,1.11-.24A2.69,2.69,0,0,1,20.41,24.41Z"/><path class="cls-1" d="M19.3,20.77a1.08,1.08,0,1,1,1.07-1.08A1.07,1.07,0,0,1,19.3,20.77Z"/><path class="cls-1" d="M26.35,19.59A1.34,1.34,0,0,1,25,20.94a1.35,1.35,0,1,1,1.35-1.35Z"/><path class="cls-1" d="M32.33,19.49a1.62,1.62,0,0,1-2.76,1.15,1.64,1.64,0,0,1-.47-1.15,1.6,1.6,0,0,1,1.61-1.61,1.64,1.64,0,0,1,1.15.47A1.62,1.62,0,0,1,32.33,19.49Z"/><path class="cls-1" d="M38.31,19.39a1.89,1.89,0,1,1-1.89-1.88,1.92,1.92,0,0,1,1.34.55A1.87,1.87,0,0,1,38.31,19.39Z"/><path class="cls-1" d="M42.13,21.45a2.16,2.16,0,1,1,2.16-2.16A2.15,2.15,0,0,1,42.13,21.45Z"/><path class="cls-1" d="M43.54,23.7A2.32,2.32,0,0,1,44,25.12a2.29,2.29,0,0,1-.48,1.41,2.35,2.35,0,0,1-2.82,0,2.34,2.34,0,0,1-.47-1.41,2.37,2.37,0,0,1,.47-1.42,2.35,2.35,0,0,1,2.82,0Z"/><path class="cls-1" d="M43.43,29.64a2.75,2.75,0,0,1,.32,1.3,2.78,2.78,0,0,1-.32,1.3,2.87,2.87,0,0,1-1.3.31,2.9,2.9,0,0,1-1.3-.31,2.9,2.9,0,0,1-.31-1.3,2.87,2.87,0,0,1,.31-1.3,2.78,2.78,0,0,1,1.3-.32A2.75,2.75,0,0,1,43.43,29.64Z"/><path class="cls-1" d="M43.32,35.57a4.51,4.51,0,0,1,0,2.38,4.51,4.51,0,0,1-2.38,0,4.51,4.51,0,0,1,0-2.38,4.51,4.51,0,0,1,2.38,0Z"/><polygon class="cls-1" points="41.05 43.66 41.05 42.58 41.05 41.51 42.13 41.51 43.21 41.51 43.21 42.58 43.21 43.66 42.13 43.66 41.05 43.66"/><polygon class="cls-1" points="40.79 49.74 40.79 48.4 40.79 47.05 42.14 47.05 43.48 47.05 43.48 48.4 43.48 49.74 42.14 49.74 40.79 49.74"/><polygon class="cls-1" points="34.81 50.11 34.81 48.5 34.81 46.88 36.43 46.88 38.04 46.88 38.04 48.5 38.04 50.11 36.43 50.11 34.81 50.11"/><polygon class="cls-1" points="28.83 50.48 28.83 48.6 28.83 46.71 30.72 46.71 32.6 46.71 32.6 48.6 32.6 50.48 30.72 50.48 28.83 50.48"/><polygon class="cls-1" points="22.85 50.85 22.85 48.7 22.85 46.54 25.01 46.54 27.16 46.54 27.16 48.7 27.16 50.85 25.01 50.85 22.85 50.85"/><path class="cls-1" d="M26.82,41.07s.07,1.73.07,1.8,0,1.76-.07,1.81-1.74.08-1.81.08-1.76,0-1.81-.08-.08-1.73-.08-1.81,0-1.75.08-1.8S24.93,41,25,41,26.77,41,26.82,41.07Z"/><path class="cls-1" d="M26.47,35.59a6.74,6.74,0,0,1,0,2.92,6.74,6.74,0,0,1-2.92,0,6.74,6.74,0,0,1,0-2.92,7.18,7.18,0,0,1,2.92,0Z"/><path class="cls-1" d="M26.12,30.12a2.69,2.69,0,0,1,0,2.22,2.69,2.69,0,0,1-1.11.24,2.66,2.66,0,0,1-1.11-.24,2.69,2.69,0,0,1,0-2.22A2.66,2.66,0,0,1,25,29.88,2.69,2.69,0,0,1,26.12,30.12Z"/><path class="cls-1" d="M25,26.49a1.08,1.08,0,0,1-.76-.32,1.06,1.06,0,0,1-.32-.76,1.08,1.08,0,0,1,2.16,0A1.09,1.09,0,0,1,25,26.49Z"/><path class="cls-1" d="M32.06,25.31a1.34,1.34,0,0,1-2.29,1,1.34,1.34,0,1,1,1.9-1.9A1.35,1.35,0,0,1,32.06,25.31Z"/><path class="cls-1" d="M38,25.21a1.61,1.61,0,0,1-1.61,1.61,1.64,1.64,0,0,1-1.15-.47,1.62,1.62,0,0,1-.47-1.14,1.6,1.6,0,0,1,1.62-1.62,1.62,1.62,0,0,1,1.14.47A1.64,1.64,0,0,1,38,25.21Z"/><path class="cls-1" d="M44,25.11A1.88,1.88,0,0,1,42.14,27a1.9,1.9,0,0,1-1.34-.55,1.87,1.87,0,0,1-.55-1.33,1.88,1.88,0,0,1,1.89-1.89,1.87,1.87,0,0,1,1.33.55A1.92,1.92,0,0,1,44,25.11Z"/><path class="cls-1" d="M47.85,27.16A2.16,2.16,0,1,1,50,25,2.15,2.15,0,0,1,47.85,27.16Z"/><path class="cls-1" d="M49.26,29.42a2.35,2.35,0,0,1,0,2.82,2.33,2.33,0,0,1-2.83,0,2.35,2.35,0,0,1,0-2.82,2.33,2.33,0,0,1,2.83,0Z"/><path class="cls-1" d="M49.15,35.35a2.9,2.9,0,0,1,.31,1.3,2.87,2.87,0,0,1-.31,1.3,2.82,2.82,0,0,1-2.61,0,2.87,2.87,0,0,1-.31-1.3,2.9,2.9,0,0,1,.31-1.3,2.9,2.9,0,0,1,2.61,0Z"/><path class="cls-1" d="M49,41.28a4.56,4.56,0,0,1,.16,1.19A4.5,4.5,0,0,1,49,43.66a4.47,4.47,0,0,1-2.37,0,4.5,4.5,0,0,1-.16-1.19,4.56,4.56,0,0,1,.16-1.19,4.76,4.76,0,0,1,2.37,0Z"/><polygon class="cls-1" points="46.77 49.37 46.77 48.3 46.77 47.22 47.84 47.22 48.92 47.22 48.92 48.3 48.92 49.37 47.84 49.37 46.77 49.37"/></g></g></svg>