<svg xmlns="http://www.w3.org/2000/svg" viewBox="0 0 287.71 72"><title>ObraFinCabeza</title><g id="Layer_2" data-name="Layer 2"><g id="ornamentos"><path d="M13.31,0h9.76s4.58,5.58,7.53,8.77v8.12c-2.3,2.45-5,.88-7.69,1.47l-4.13-5.21c-.14-1.29-.41-3.65-.66-5.87-1.26-.86-1.26-.86-8.48,6.57L15.73,20c4.08,1.94,6.5,3.35,9.09,4.26,4,1.4,7.28,7.61,7.28,7.61v11.9a10.88,10.88,0,0,1-2,3.8,69.87,69.87,0,0,0,3.54,6.19v6.63C29.66,63.91,21.53,72,21.53,72h-5.9l-12-12c.53-3.55,4.71-5.19,7.8-9.44L15.8,57c.35,2.49-.84,5.43-2.74,8.19,3.22,2.11,6.79.64,10.15,1l4.39-4.38v-6c-2-3.28-5.59-4.53-8.93-6.4-2.44-1.36-5.84-1.13-7.35-4.12C6.87,45,4.41,42.81,3.47,38.29,3,36.17,1.18,34.34,0,32.42l6.62-7c1.12-3.12-2-4.2-3-6.28V11.67c.09-.46,0-1.07.29-1.37C7.22,6.6,10.6,3,13.31,0ZM9.81,35c4.1,2.16,8.53,3.7,12.34,6.38,1.92,1.36,3.53,1.24,5.39-.57-.46-2.16.87-4.62-.93-7.13C20.53,34,15.8,30,10.47,27.76,8.88,30.23,9.69,32.66,9.81,35Z"/><path d="M272.73,21c.11,4.92,5.71,2.19,7.41,5.73,1.46,3,4.71,5.14,7.16,7.65.51,3.48,1.19,7-2.53,9.4V58.72L276.7,66H265.87L258,56.41c.5-4,4.5-5.55,8.82-5.8V46.38l-8.95-6c.51.84.06.44.05,0-.05-4,0-8.06,0-11.56,1.29-1.58,2.2-2.71,3.53-4.33L257.53,18,264.3,6h16.29c1.46,3.28,2.8,6.28,4.11,9.2-.5,2.83-3.11,3.81-4.51,5.8h-7.46c-.47-4,1.08-8.33-1.23-12.47L267,13.14c.31,2.65-1.77,5.78,1.46,7.86Zm.38,31.11c-.67-2.33-.45-4.65-3.07-2.62a8.6,8.6,0,0,0,2.73,1.78v2.59c-.17,3.36-3.6,3.35-2.22,5.82,6.63.67,6.63.67,8-.69-.31-2.61,1.78-5.67-1.47-7.72C275.64,51.27,274.2,51.27,273.11,52.11Zm-1.66-12.6c2-1.16,4.76,1.05,6.92-1.35-2.53-5.18-8-5.73-12.45-7.8-.39-.18-1.4,1-2.13,1.49Z"/></g></g></svg>