<svg xmlns="http://www.w3.org/2000/svg" viewBox="0 0 1119.14 36.24"><defs><style>.cls-1{fill:#c1401f;}.cls-2{fill:#fff;}</style></defs><title>ObraIndice2</title><g id="Layer_2" data-name="Layer 2"><g id="ornamentos"><path class="cls-1" d="M1119.14,27.06l-.06-3.43c-.86-.59-1.06,0-1.63,0a1,1,0,0,1,0-2,1.06,1.06,0,0,1,.37.08c0-2.86,0-5.71,0-8.56a5.52,5.52,0,0,0-.55,1.3,1,1,0,0,1-.31,1.65.92.92,0,0,1,.27.67,20.24,20.24,0,0,0,.14,3.11,1,1,0,0,1-.7,1.23,1,1,0,0,1-1.23-.7,22.07,22.07,0,0,1-.2-3,1,1,0,0,1-1.79-.6,2.74,2.74,0,0,0-.22-1.45c-.59-1,.72-1.89,1.48-1.29a.9.9,0,0,1,.54,0h.06a6.68,6.68,0,0,1,1.12-2.4,1,1,0,0,1,1.37-.36l0,0c0-3,0-5.9,0-8.83-.42-.42-.62-.73-.91-.87a2.13,2.13,0,0,0-1-.13L653.76,2l-2.21-2h-3.94L645.49,2h-4l-2.2-2c-2,.12-4.19-.67-5.58,1.81l-50.87.07c-.54-.55-1-1-1.66-1.66-.65.54-1.33,1.09-2.11,1.72L577,.15l-22,0-2.12,1.94L551.42.68a7.09,7.09,0,0,0-1.79-.51c-3.67,0-7.34,0-10.83,0L537,2c-.62-.48-1.27-1-2-1.55-3.66-.17-3.66-.17-6.17,1.64l-50.34.06-2-1.83-2.12,1.92c-2.08.76-2.82-1.3-4-1.91L432,.39c-.56.56-1,1-1.72,1.72l-22.12,0-3.25-2-3.38,2.18h-3.63c-.57-.52-1.3-1.18-2.1-1.89h-10l-2.06,1.9c-2,.66-2.95-.9-4.1-1.86l-1.78,1.78L375.67.52h-6l-2,1.74L365.56.41l-32.13,0L332,1.81a5.57,5.57,0,0,1-1.74.61c-10.39.05-20.78.05-31.11.07L297.66,1C295-.48,292.93.94,290.79,2.2L289.21.62,287.1,2.37,285,.51,265,.54l-2.11,2h-2L259.38,1c-.26-.17-.53-.49-.79-.49-8,0-16.06,0-23.89,0l-1.81,1.81-30.15,0-3.06-2-4.43,2.43L192.16.63,136.06.7l-1.43,1.37a5.88,5.88,0,0,1-1.73.61c-11.74,0-23.47,0-35.14.07L96.27,1.26a6.74,6.74,0,0,0-1.8-.5c-19.1,0-38.21,0-57.13.05l-2,2-35,0C.23,4.38.12,5.62,0,6.9H3.11C4.75,8.15,3.7,10,4.2,11.49a13.41,13.41,0,0,0,2.1,3.09L3.43,20.39l-.24.11a1.13,1.13,0,0,1,.3.71.85.85,0,0,1-.32.75c0,.12-.07.23-.1.35s0,.31,0,0a1.13,1.13,0,0,1-.7.93l2.08,1L.32,25.71v3.48a.5.5,0,0,1,.19.12A5.14,5.14,0,0,0,4.15,31c1.86-.07,1.37,2.39,0,2a19.14,19.14,0,0,1-3.8-1.5v.79l2.24,2.24a3.08,3.08,0,0,0,.78.55,3.33,3.33,0,0,0,1,0L577,34.35l2.12,1.88,2.11-1.75L583,36.16l20.53,0,1.72-1.72,46.36-.06,2.1,1.87h3.93l2.12-1.93,1.43,1.42a6.69,6.69,0,0,0,1.78.53c13.74,0,27.48,0,41.06,0l1.79-1.8,30.16,0c1.55,1,3.42,2.25,5.86,1.79l3.44-2.39,3.33,2.34,54-.07,1.51-1.38c2-1.29,4.39-.37,6.6-.57L812.8,36c2.23.81,2.85-1.48,4.88-2.14l3.57,2c1.5.28,3.81.85,5.45-1.76L828.88,36,1006,35.77l2.1-2,1.41,1.42a6.48,6.48,0,0,0,1.78.54c30.52,0,61-.05,91.35-.09l2.74-2.4a18,18,0,0,0,3.93,2.3c1.16.33,3,.33,3.74-.38,1.27-1.3,2.83-1.4,4.18-1.93.25-.37.54-.62.58-.9C1118,30.57,1117.29,28.68,1119.14,27.06ZM6.54,10.15c.22-.23.5-.67.66-.63a5.52,5.52,0,0,1,1.35.63c-.22.22-.49.66-.66.63A6.86,6.86,0,0,1,6.54,10.15Zm1,19.13c-.24-.44-.48-.88-.72-1.3l.72-.72a6.68,6.68,0,0,1,.63,1.36C8.24,28.78,7.8,29.05,7.57,29.28ZM6.45,24.1c.15-.79.32-1.68.51-2.72a11.44,11.44,0,0,1,1.6.86c.75.59,1.43,1.25,2.14,1.89C9.2,25.69,7.87,25.69,6.45,24.1ZM20,10.78c-.47-.14-1.25-.44-1.27-.72A14.39,14.39,0,0,1,19,7.39l1.28.05c.12.9.29,1.79.32,2.69C20.61,10.35,20.11,10.82,20,10.78ZM25.33,25.9a1,1,0,0,1-2,.12,1,1,0,0,1,0-1.94V22.93a1,1,0,0,1,2,0Zm12.44-4.72-.72-.71c.24-.42.48-.86.72-1.3.22.22.66.5.63.66A6.37,6.37,0,0,1,37.77,21.18Zm6-4c-.23-.22-.67-.5-.63-.66a6.14,6.14,0,0,1,.62-1.36c.23.23.67.5.63.67A6.29,6.29,0,0,1,43.81,17.15Zm9.38,7.78c-.15-1.1-.23-1.71-.39-2.87,1.61-.37,1.79-2.86,3.85-2.36,0,1.67,0,3.36,0,5.44Zm3.63-5.85c.29-1.3.38-2.31,1.91-1.13A5,5,0,0,1,56.82,19.08ZM76.36,6.66A6.6,6.6,0,0,1,75,6l.71-.72L77,6C76.8,6.25,76.53,6.7,76.36,6.66ZM77,12.1c.15-1.06-.62-2.53,1.27-2.78l2.8,2.8C79.73,13.37,78.39,13.55,77,12.1Zm5,15.1a4.31,4.31,0,0,1,0-6.1A4.31,4.31,0,0,1,82.08,27.2ZM100.18,9l-.71-.72L100.18,7c.23.22.67.49.63.66A5.88,5.88,0,0,1,100.18,9ZM110,10.73c-.27-.27-.5-.49-.72-.72a6.86,6.86,0,0,1,1.35-.63c.17,0,.44.41.66.63Zm6-2.11c-.17,0-.44-.4-.66-.63l1.29-.71.72.71A5.88,5.88,0,0,1,116,8.62ZM124.36,15a5.88,5.88,0,0,1-.63-1.35c0-.17.4-.44.63-.66l.71,1.29Zm42.31,12c-.23-.23-.67-.5-.63-.66a6.14,6.14,0,0,1,.62-1.36l.72.72Zm2-6L168,20.3c.24-.42.48-.86.72-1.3.22.22.67.5.63.66A5.91,5.91,0,0,1,168.67,21ZM180.75,15a5.88,5.88,0,0,1-.63-1.35c0-.17.4-.44.62-.67.25.44.49.88.72,1.3ZM199.21,6.5a6.19,6.19,0,0,1-1.36-.63l.72-.71,1.3.71C199.64,6.09,199.37,6.54,199.21,6.5ZM213,23l-.72-.71L213,21c.22.22.66.49.63.66A6.86,6.86,0,0,1,213,23Zm2,6-.72-.72c.24-.42.48-.86.72-1.29.22.22.67.49.63.66A6.86,6.86,0,0,1,215,29ZM243.17,8.83l-.72-.71c.24-.42.48-.86.72-1.3.22.22.66.5.63.66A6.37,6.37,0,0,1,243.17,8.83Zm18.13,6c.23.23.67.5.63.66a6.14,6.14,0,0,1-.62,1.36l-.72-.72Zm-3.68,2.4c.17,0,.44.4.67.63l-1.3.72c-.27-.27-.49-.5-.72-.72A6.33,6.33,0,0,1,257.62,17.25Zm-1.17,6.84c.73-2.09,2.47-.88,3.54-.64C259.09,25,258.86,24.89,256.45,24.09Zm3.86-1.18c-.06.09-.1.17-.15.26.35-1.45.33-2.73,2-1.46A5.82,5.82,0,0,1,260.31,22.91Zm4.94-16.19a12.87,12.87,0,0,1-2.67-.31l.05-1.27c.9-.12,1.79-.29,2.69-.33.22,0,.69.49.64.64C265.83,5.93,265.52,6.71,265.25,6.72Zm10.5,11.76a6.07,6.07,0,0,1-1.35-.62l.71-.72,1.3.71C276.19,18.08,275.92,18.52,275.75,18.48Zm-.35-5.66q-2.17-2,0-4C276.84,10.13,276.84,11.48,275.4,12.82Zm24.52,11.67a6.29,6.29,0,0,1-1.35-.62l.72-.72,1.29.71C300.36,24.09,300.09,24.53,299.92,24.49Zm23.82-7.71-.72-.71.71-1.3c.23.22.67.5.63.66A5.87,5.87,0,0,1,323.74,16.78Zm2,8.06c-.22-.23-.45-.45-.72-.72.24-.42.48-.86.72-1.3.22.23.66.5.63.67A6.86,6.86,0,0,1,325.76,24.84Zm8.43,5.7c-1.63-.34-2.3-1.83-3.51-2.89.17-.82.37-1.7.57-2.64h4.28C334.26,27.38,335.62,29.14,334.19,30.54ZM458.67,18.62c-.23-.22-.67-.49-.63-.66a5.88,5.88,0,0,1,.63-1.35c.22.22.66.5.63.66A6.6,6.6,0,0,1,458.67,18.62ZM587.56,24.5l-.71-.72.71-1.3c.23.23.67.5.63.66A5.76,5.76,0,0,1,587.56,24.5ZM617.75,6.33,617,5.62c.23-.42.47-.86.72-1.3.22.22.66.5.63.66A6.6,6.6,0,0,1,617.75,6.33Zm46.32,2c-.24-.44-.48-.88-.72-1.3l.72-.72a6.86,6.86,0,0,1,.63,1.35C664.74,7.79,664.29,8.06,664.07,8.29ZM797,22.21l-.71-.71.71-1.3c.23.22.67.49.63.66A5.88,5.88,0,0,1,797,22.21Zm74.86-2.49a6.07,6.07,0,0,1-1.35-.62l.71-.72,1.3.71C872.3,19.32,872,19.76,871.86,19.72Zm149.21-5.22-.54.22a1,1,0,0,1-.61,1.77h-.71a.91.91,0,0,1-.93-.75,7.71,7.71,0,0,1-1.83.54c-1.26.18-1.8-1.74-.53-1.93a9.1,9.1,0,0,0,2.5-.84.94.94,0,0,1,1-1,.92.92,0,0,1,.63.24l.52-.21C1021.76,12.14,1022.28,14.07,1021.07,14.5Zm68.89,11a1.21,1.21,0,0,0-1-.29.86.86,0,0,1-.78.4,1.24,1.24,0,0,1-1-.56,1,1,0,0,1-.76-.46,1,1,0,0,1,.36-1.37,5.73,5.73,0,0,1,3.44-.46,1,1,0,0,1,.71,1,2.81,2.81,0,0,1,.44.35C1092.31,25,1090.89,26.37,1090,25.49Zm12.72-5.33a1,1,0,0,1-1,1,1,1,0,0,1-1-1,14.55,14.55,0,0,1,0-3.73,1,1,0,0,1,1-1,1,1,0,0,1,1,1A14.55,14.55,0,0,0,1102.68,20.16Z"/><path class="cls-2" d="M592.17,18.4c-1.1,2.35-1.74,3.7-2.39,5.07-1.13-.9-1.13-.9-.88-9.32,1.29-1.34,1.37.67,2,.73,1.6,1.06,3.22.44,4.8.4l1.61-1.65,27.51-.31c.65,1,1.71,2.72,2.36,3.77C631,17,631.74,14.3,633.55,13c1.16,1,1.19,1,.71,9.39L628.09,21l-2.46,1.9-28,.32Z"/><path class="cls-2" d="M426.05,13.38l3.75,4.52,4.05-2.34c1.44,1.35.4,3.12.77,4.65L437,22.74l-3.86.6-.72-3.24c-.17-.17-.54-.64-.62-.59-2.12,1.2-4.2,2.45-6.6,3.88l-25.1.29-6.79-3.83-1.23,3.65-2.84.27-.74-2.72,2.08-2.26-2-2.08c0-.7.06-1.35.09-2.24l3-1L393,17.16l.5.49c1.5-2.21,4.77-1.64,6.19-4Z"/><path class="cls-2" d="M450.23,13.12l25.95-.3,3.55,4.44,4.2-2.2c1.32,2.12.47,4.45.68,6.71-1.55,1.73-1.9-.53-3.16-.95l-3.76.05-2.06,1.92-27.9.32L443,18.67l-3,4.75c-2-1.49-1.33-2.94-1.31-4.16,0-1.9-.7-3.91.71-6l4.48,3.93C447.13,17,447.6,14,450.23,13.12Z"/><path class="cls-2" d="M737.75,13.35c.9,2,1.72,3.75,2.68,5.86,2.6-3.74,5.84-3.24,7.28-5.51l26.5-.31,3.54,4.44,4.21-2.2c1.31,2.13.47,4.46.68,6.72-1.56,1.72-1.91-.54-3.17-1l-3.75,0-2.07,1.92-25.54.3-7.32-4.14L738,24c-2-1.48-1.33-2.94-1.32-4.16C736.72,17.93,736,15.92,737.75,13.35Z"/><path class="cls-2" d="M982.72,15.81l-2,2.23,2.09,2.31L982,23l-2.25,0-2.11-1.93-3.93.05-2.1,2L945,23.4c-.94-1.2-2.16-2.75-3.17-4l-2.44.36c-1.87.42.69,3.52-2.11,3.42-1.25-2.13-.47-4.47-.64-6.71a20.31,20.31,0,0,1,.51-3.66c1,2.08,1.66,3.32,2.26,4.54.69,0,1.71.37,1.92.09,1.62-2.16,4.91-1.63,6.32-4l24.5-.28c1.07,1.09,2.44,2.49,4,4,1.85.64,2.4-1.69,4.2-2.2Z"/><path class="cls-2" d="M797.53,13.2l16-.18,2.11,1.86,9.85-.12,2.13,1.93c2,.62,2.92-.93,4.27-2.1a12.61,12.61,0,0,1,.45,7.63l-6-1.78-2.63,2.29-27.9.32c-1.21-.58-2-2.64-4-1.86l-2.11,2-2.13,0c-1.33-2.4-1-4.91-.58-7.3,2.54-2.26,3.45.81,5.13,1.28C794.94,17.43,795.58,14.55,797.53,13.2Z"/><path class="cls-2" d="M684.4,15.19c-.67,1-1.32,2-2.19,3.3.82,1.06,1.58,2,2.36,3-2.39,2.95-3.73-.84-6.32-1.1l-2.84,2.07-27.32.31L641.33,19c-.32,1-.7,2.13-1.09,3.34a2.37,2.37,0,0,1-3.49-.29l1.81-2.15c.37-2.12-.53-4.45.57-6.64,2.22-.08,1.15,1.65,1.57,2.86l2.93,1.11,2.5-4.37,17.33-.2,2.14,1.9,9.85-.11c.73.66,1.45,1.33,2.13,2,1.49.36,2.47-.32,3.44-1.37S683.3,14.16,684.4,15.19Z"/><path class="cls-2" d="M930.68,22.59,928,19.92,921,23.52l-23.81.27-2.58-3.72-5,.06c-.56,1.22-1.19,2.58-1.84,4-.29-.26-.73-.47-.74-.69-.08-2.9-.1-5.8-.13-9.15,2.12.5,2.92,2.39,4.39,3.44L898.24,14l23-.26,6.54,3.67,2-1.85,2.07.16c1.78,1.84-1.63,1.56-1.21,2.2Z"/><path class="cls-2" d="M225.47,23.69l-7.55.09-2.31-1.86-3.78,0-3.15,2.33L205.39,22l-5.65.06-2.18-2-3.91,0-2.2,2.08c-1.3-2.52-1-5-.47-8.13l2.55,1.84,4.24-.05,1.6-1.63,28.34-.33c1.22,1.2,2.4,2.36,4.13,4l3.57-5.59c1.77,4.3,1,7.47,1.2,10.31l-1,1c-1.26-1.5-2.52-3-3.21-3.82C228.42,19.29,227.74,22.14,225.47,23.69Z"/><path class="cls-2" d="M549.59,24a29.66,29.66,0,0,0-3.5-3.4c-1-.68-2.28-.84-3.79-1.34l5.63-5.15,27.94-.33,3.78,4.72L583.87,14c.17.34.7.91.66,1.44-.18,2.58.71,5.22-.3,7.71-.39.06-.74.22-.85.12-1.21-1.14-2.39-2.31-3.53-3.43l-6.68,3.86Z"/><path class="cls-2" d="M276.94,23.1l-24.82.28c-2.76-.89-3.27-5.33-8.11-3.39,1.81-3.23,3.66-4.48,5.26-6.34l26-.3,6.43,3.33c1.24-.29,2.21-3.14,4.66-.95l-2,3.2,2,3.1c-.59,1.71-1.33,1.61-5.49-1.25Z"/><path class="cls-2" d="M141,12.92c2.19.21,1.29,1.85,1.71,2.89,1.26,1.58,3.08.35,4.91,1.07L151,12.56l16.58-.2c.48.48,1,1,1.79,1.75l8-.09,1.78,1.74c2.59,1.34,4.64-.23,6.8-1.26.22.24.61.48.62.73.07,2,.08,4,.1,5.9-.9.92-.9.92-3-.9l-4,.05-2.06,1.95-25.9.3c-2.27-2.32-5.53-2.45-8.2-4.56-.66,2-1,3.12-1.48,4.26,0,.11-.45.09-.74.14-1.34-1.39-.57-3.14-.64-4.71S140.08,14.4,141,12.92Z"/><path class="cls-2" d="M1039.9,20.15l-2.41,2.26c-1.26-2.56-1-5.05-.54-7.52,1.59-.6,1.67.46,1.64,1.33,0,1.83,1.05,2.14,3.41,2.08l2.57-3.94,27.27-.32,3.69,4.51,4.28-2.49c1.46,1.6,1,3.45.25,5.65l-3.11-2-7.9,4.17-21.25.25c-.56-.5-1.2-1.51-2-1.71-1.25-.3-2.43-.34-3.45-1.4C1041.75,20.46,1040.62,20.4,1039.9,20.15Z"/><path class="cls-2" d="M132.36,17.39l3-5.24c1.81,3,1,5.39,1.19,7.63a24.54,24.54,0,0,1-.57,4l-3.62-5.16-7.09,3.94L104,22.84C101.74,21.45,98.35,21,96.57,18l.08-1.94,5.53-2.92,25.26-.29Z"/><path class="cls-2" d="M837.27,12.94c1.94.19,1.06,1.83,1.47,2.86,1.27,1.54,3,.49,4.68.81l2.19-2,3.82,0,2.13-2,2.06,1.81,2.07-1.78,1.72,1.69,15.39-.18,3.15,2c2.57.83,3.45-3.93,6.46-1.18a34.42,34.42,0,0,1,0,8.43c0,.27-.43.48-.9,1-.43-1.27-.82-2.39-1.21-3.53-1.44-1.25-3.14-.31-4.66-.54-.73.69-1.44,1.36-2.06,1.93l-27.89.32-2.2-1.9c-2.41-.35-4.31.57-6.15,1.76-1.3-1.78-.61-3.82-.69-5.72C836.62,15.43,835.94,14,837.27,12.94Z"/><path class="cls-2" d="M723.48,14l2.15,2,3.91,0,2.19-2.08c1.34,2.5,1,5,.53,7.86l-4.66-2.33-2.73,4.48-24.81.29c-2.21-1.9-5.92-1.94-7.44-5.16,0-1.31,0-2.48,1.87-2.74,1.14-.16,2.17-1.14,3.64-2Z"/><path class="cls-2" d="M336.4,21.67c-2.52,2.27-3.54-.46-4.66-1.09l-4.23.05-1.69,1.72-25.87.3-5.34-2.89c-.47-5.16,5.22-4.07,6.93-6.94l17.94-.2,2.15,1.89,1.58-1.63,7.84,3.89,2.45-2.2c1.8,1,.68,2.87,1.15,4.27A14.61,14.61,0,0,0,336.4,21.67Z"/><path class="cls-2" d="M363.66,24.1l-1.93-1.9c-4.38-.23-9.3.22-14.24,0-.94-1.25-2.62-2-2.86-2.89-.14-2.88,1.86-3.41,2.76-4.88l30.42-.35c.82,1.24,1.94,2.9,3.35,5l2.38-5.24c2,2.15.69,4.59,1.11,6.91l2.29,2.48-3.8.79c-.29-1.33-.48-2.24-.72-3.33-2-2.11-3.28-.26-4.72,1.21l-3.89.05L371.62,24Z"/><path class="cls-2" d="M532,20.17l-4.3,0-2.1,2-27.88.32-2.11-1.91c-2.66-1.15-3.44,3.48-6.5,1.57a13.22,13.22,0,0,1-.19-7c2.6-1.73,3.59,1,5.88,1.5l3.12-2.09,28-.32,3.79,4.8,3.62-5.2C536.57,16.9,532.82,18.18,532,20.17Z"/><path class="cls-2" d="M77.42,13.39l2.15,2,3.92,0,2.09-2c.24.24.68.47.69.71.08,2.88.09,5.77.13,9-2.26-.4-3-2.36-4.69-3.51l-2.1,1.69-19.52.22L57.82,23.3C56.13,22,54,21.94,52,21.48c-1.6-.35-3.12-1.86-5.15-2.33,0-.87-.11-1.76-.18-2.91l3-.73,1.91-1.82Z"/><path class="cls-2" d="M1023.6,14.52c1.12,1.5,3.42,2.24,3,4.87l-5.52,3L996,22.66l-5.29-3c-.4-2.5,1.84-3.32,3-4.84Z"/><path class="cls-2" d="M288.32,21.55l2.13-3.9-2-1.73c.2-1,.37-1.84.81-4,1.41,2,2.26,3.23,3.35,4.8l.06,5.25a3.14,3.14,0,0,1-.67.64C290.71,23.23,289.57,23.11,288.32,21.55Z"/><path class="cls-2" d="M343.14,22.17l-3.69,0c-2.28-2.41.07-3.47,1.08-4.85l-2.34-2.49,3.54-.5C343.28,16.86,342.08,19.19,343.14,22.17Z"/><path class="cls-2" d="M91.45,23c-1.39-1.21-.74-2.59-.83-3.8-.13-1.88-.07-3.77-.1-5.7,2.27.25,2.87,1.84,4,2.68,0,.65.25,1.73,0,1.87C92.6,19.15,93.09,21.81,91.45,23Z"/><path class="cls-2" d="M45.36,22.09l-5.11-.86,2.68-2.87L40.51,14.3l3.15-.53C45.3,16.23,44,18.57,45.36,22.09Z"/><path class="cls-2" d="M241.65,23.5c-1.34-5-1.34-5-.12-10C242.87,18.49,242.87,18.49,241.65,23.5Z"/><path class="cls-2" d="M539.9,24.81c-1.87-3.2-1.1-5.51-1.28-7.72A16.87,16.87,0,0,1,539,14C540.66,16.5,540.66,16.5,539.9,24.81Z"/><path class="cls-2" d="M1029.81,18.51l3.22,3.34-3.76.67a12.31,12.31,0,0,1-.16-7.83C1032.49,15.48,1029,18.22,1029.81,18.51Z"/><path class="cls-2" d="M689.41,12.72c1.53,4.38,1.51,6.82.79,9.26C688.51,22.07,688.51,22.07,689.41,12.72Z"/><path class="cls-2" d="M987.46,13.38c1.51,4.3,1.49,6.74.77,9.18C986.44,22.65,986.4,22.65,987.46,13.38Z"/><path class="cls-2" d="M532.63,20.16c2.06,1.16,2.06,1.16,1.21,3.81C531.7,23.26,533,21.44,532.63,20.16Z"/><path class="cls-2" d="M930.44,21l2.06,1.72C930.77,24.12,930.9,22.58,930.44,21Z"/></g></g></svg>