<svg xmlns="http://www.w3.org/2000/svg" viewBox="0 0 115 76.49"><defs><style>.cls-1{fill:#fff;}</style></defs><title>ObraHueco2</title><g id="Layer_2" data-name="Layer 2"><g id="indicaciones"><path class="cls-1" d="M70.64,33.57c2.37.48,3.07,3,4.93,3.89v3.66c-1.43,1.38-3.69,2.64-4.44,4.51a16.65,16.65,0,0,1-3.77,5.19v3.31l2.69.92,4.6,4.59h8.18c.87-1.76,1.61-3.7,3.52-4.8,1.53,1.63.42,3.63.73,5.44-1.33,1.63-2.47,3.52-4.94,2.95v2.23l2.41,2.4h8.81c1-.54,1.57-2.18,3.22-1.58a18.12,18.12,0,0,0,2.85-7.94l2.43-.25c.69,2.44.24,4.87.39,7.27l-1.6,1.76c1,1.38,2.42.58,3.57.79l5.85-6.28V53.79c-2.08-1.76-2.88.44-3.67.92h-3.49c-1.41-1.81-.11-3.8-.86-5.46l2.43-2.35c2.56-1.45,4.29,1,6.44,1.5,2.52.56,2.18,4,4.08,5.53v5.13c-1.73,1.18-1.25,3.85-3.14,5-.25,2.73-1.84,4.1-5.38,4l6.94,7.22c-1,1.33-2.47.5-3.77.77l-1.8-1.58H101.6l-1.76-1.64H90.55l-1.86-1.65H85.45l-2-1.69-2.29.72,1.78,2.14c-.07,2.08-1.72,2.5-2.7,4-.38-1.15-.39-2.26-1-2.85-1.93-1.89-2.06-4.62-3.6-6.59a35.4,35.4,0,0,0-5.33-5.11,12,12,0,0,1-3.59-5l-1.78.07c-.87,3.6-4.58,6.22-4.06,10.33l-1.73,1.78v4.7L56.62,76l-2.41-2.55v-6l-1.64-1.86V62.43l-1.64-1.76V56.58c2.62.54,3.1,3,4.22,4.83L60.79,50V46l-1.65-1.74V41.79c2,.28,2.61,2.39,4.22,3.19l4-4V39.15l3.28-2.86Z"/><path class="cls-1" d="M35.47,76.49,33,73.33c.44-1.5.92-3.14,1.44-4.89-1.79-1.74-2.55,1.15-3.84,1.17-1.61,0-2.24,1.29-3.42,1.75a17.55,17.55,0,0,1-4.24,1.56c-1.44.16-2.63.34-3.49,1.51H8a22,22,0,0,1-1.85,1.79c-1.24-.11-2.61.54-3.86-.46.45-1.57,1.83-2.43,2.93-3.4a30.66,30.66,0,0,1,3-1.77V68.94c-4-2.26-7.39-8.21-7.39-8.21V52.56L7.28,46.5H11.7l2.42,2.24c.05.88.11,1.94.21,3.77l-3.28,2.2H8.35L6.6,53.24,4.11,55.52v3A43.31,43.31,0,0,0,5.94,63c1.22,1.22,3,3,4.9,4.88h5.53c.17-.64.35-1.38.52-2l-1.77-1.9c.22-1.26-.39-2.67.64-4.09,1.83,1.73,3.53,3.36,5.23,5,1.7-.62,3.43,1.41,3.43,1.41h4.1l5.4-2.85-7.27-7.27c0-.7.55-1.35,2.36-1.24,1.67,1.15,3,3.2,5.06,4.79H38.9s1.6-2,3.29-1.42l3.45-3.3,1.69.17c1.18.88-.15,1.18-.39,1.74s-.52,1.43-.93,2.58L36.5,68.9c0,2.19,0,4.38,0,6.57C36.47,75.66,36.11,75.85,35.47,76.49Z"/><path class="cls-1" d="M0,25.81V18l1.86-3.17-.46-.35L7.94,7.91C6.54,5.11,2.45,5.76,1.6,2.53c.52-1.3.52-1.3,1.82-1.83C5,1.21,5.77,2.7,7.1,3.79h4.57l1.91,1.64H27.27l1.79,1.64h3.43C33.55,5,34.63,2.82,36.06,0c.71,3.05.33,5.45.47,7.89l8.92,8.74c1.21,2.6,1.93,4.17,2.75,5.92l-3.08,1.07-5.65-6.87c-2.35.14-3.86-.24-5.22,1.29-.64.73-2.44.43-3.9.63L29.87,21,27.68,23.2c-1.57-.85-.62-2.34-1-3.87l6.57-6.58-2.39-2.39H20.16L16,15.18c-.2.47,1,2.28-.78,3.5-1.38-2.59,0-5.13-.76-7.31l1.72-1.93c-1.07-1.38-2.53-.52-3.63-.75L5.3,16.17l-2,3.59v3.06l2.52,2.59c.35-1.06.65-2,1-2.93,1.72-1.2,3.64-.05,5.27-.68,1.75,1.82.61,3.85,1,5.82l-2.24,2.45H3.67L1.11,25.74Z"/><path class="cls-1" d="M79.19,8c.13-2.7-.21-5.13.31-7.65,2.46,1.15,1.06,3,1.3,4.36a27.05,27.05,0,0,1,.06,4.66c1,1.39,1.34.05,1.9-.19s1.44-.52,2.55-.92l2.88-2.87h6.49l1.65-1.64h11.4L110.09.45c1.24-.06,2-.32,2.27-.06a6.38,6.38,0,0,1,1.13,1.75,12,12,0,0,1-6.89,5.67c.85.79,1.65,1.53,2.44,2.28a17.73,17.73,0,0,1,2.31,2.36c.56.82.6,2.06,1.26,2.75.89,1,.54,2,.78,3a18.64,18.64,0,0,0,1.33,3l-1.36,1.51V26l-4.16,4.1h-5.06l-2.28-2.54V24.24l2.23-2.38h5c1.5-2,.25-3.95.9-5.46l-5.79-6c-1.68.67-2.26-1-3.4-1.45-1.31,1.08-.23,2.56-.78,3.7L101.2,14l-1.61,2.88c-1.5-.35-.86-1.68-1.28-2.53C97.16,13.16,96,12,94.87,10.86c-.21-.13-.42-.39-.64-.39-2.43,0-4.86,0-7.37,0-1.91,1.49-4.8,1.64-6.07,4.17l2.3,2.31h1.82c.78,2.48,3.45,4.45,2,7.58-3.27-.6-2.29-4.84-5.16-5.94H76.83c-2.12,1.79-5.25,2.32-6.66,4.89-1.37,0-2.52,0-2.48-1.74,0-.11-.12-.49,0-.64a43.13,43.13,0,0,1,4-4.08c1.72-1.4,2.37-3.41,3.53-5.12A25.31,25.31,0,0,1,79.19,8Z"/><path class="cls-1" d="M47.53,28.71c-.78-2.34,1.64-3.68,1.89-5.85.19-1.61,1.78-3.07,2.75-4.59s-.58-4,1.72-5.08c.18-.09.28-.43.31-.68.3-2-.9-4.44,1.41-6,.19-1.85.35-3.7.57-5.55,0-.19.37-.35.57-.53l2.39,4.7V11l1.63,1.86c-.41,3.07,1.49,5.4,2.95,7.78.68,1.11.28,2.1.5,3.11a4.18,4.18,0,0,1-3.39-3.85c-.16-1.36-1.44-1.26-2.54-1.05l-2.41,2.4c0,1,.45,2.52-.08,3-1.57,1.52-1.18,4.14-3.22,5.27l1.88,2-1.27,1.6-1.6-.93C50.73,33.36,49.38,34.1,49,36c-.23,1.33-2.83,2.3-3,3.58-.24,2.16-2.65,3.5-1.86,5.83-1.79-.3-2.65-1.6-3.34-3.09-.43-.93-.89-1.85-1.35-2.81,1.53-.87,1-3.23,2.5-4.46a6.53,6.53,0,0,0,2.52-3.94,3.25,3.25,0,0,1,3-2.4c.33,1.09-.81,2.61,1,3.21.62-.94,2-1.35,2-3C49.52,28.82,48.53,28.75,47.53,28.71Z"/><path class="cls-1" d="M29.57,44.15v1.58l-4.06,4.06H20.67c-1.06-1.28-3.43-1.9-2.29-4.39,1.73-1.06,3.64-.31,5-.47,2.68-1.72,5.56-2.54,6.93-5.06,1.6.33,3.07-.52,4.1.82A9.11,9.11,0,0,1,29.57,44.15Z"/><path class="cls-1" d="M82.28,35.64l2.87-1c.5-1.46.81-3.07,2.29-3.93,1.32-.76,2.71-1.39,4.53-2.31h4.36c.74.76,1.49,1.54,2.24,2.3V35L93,32.12C90.94,33.45,88,34,86.6,36.64H82.45Z"/><path class="cls-1" d="M98.63,43.45l.3,1.95c-1.12,2.76-4.29,2.7-6.19,4.48l-5-2.17c-.14-.63-.3-1.38-.39-1.8l-4.17-4.16-2.25-.62c.81-2,2.36-.83,4.06-1.32,1.21,1.79,2.58,3.82,3.42,5h6.36C95.76,44.22,96.42,42.66,98.63,43.45Z"/><path class="cls-1" d="M33.37,36.64H29.09c-2-2.51-4.77-3.88-7.75-5l-2.59,1.66L16.93,33l2.19-4.52h5.45c1.19,1.29,3,2.71,4.06,4.54S32.74,34.18,33.37,36.64Z"/><path class="cls-1" d="M64.07,23.72a3.48,3.48,0,0,1,3.14,2.77c.16,2.06,3,3.09,1.79,5.45a6,6,0,0,1-1.35-.56c-2-1.41-1.92-1.41-3.87,0a6,6,0,0,1-1.35.56,4.1,4.1,0,0,1,1.64-4.17Z"/><path class="cls-1" d="M50.93,56.58c-.26,0-.72.05-.74,0-.61-2.28-3.1-3.84-2.55-6.56,1.32.19,1.65-1.1,2.47-1.65s1.14-1.83,2.46-1.64a4.09,4.09,0,0,1-1.64,4.17Z"/><path class="cls-1" d="M48,50c-2.59-.65-3.55-2.38-3.29-4.93C47.31,45.72,48.26,47.46,48,50Z"/><path class="cls-1" d="M83,36.68l-1.43,1.68C80.41,36.92,81.68,37,83,36.68Z"/><path class="cls-1" d="M33,36.41l1.68,1.43C33.27,39,33.39,37.68,33,36.41Z"/><path class="cls-1" d="M69.36,31.94c1.13-.05,1.68.5,1.64,1.64C69.86,33.62,69.32,33.07,69.36,31.94Z"/><path class="cls-1" d="M55.86,41.57v-4a4.07,4.07,0,0,1-1.65-4.16c1.32-.2,1.65,1.09,2.47,1.64s1.15,1.84,2.46,1.64v4.93Z"/><path class="cls-1" d="M54.57,45.08a5.74,5.74,0,0,1,.07-2.2c.22-.49,1-.73,1.57-1.09a6,6,0,0,1-.06,2.2C55.93,44.49,55.12,44.72,54.57,45.08Z"/><path class="cls-1" d="M52.93,46.72c0-1.14.5-1.68,1.64-1.64C54.61,46.22,54.07,46.76,52.93,46.72Z"/><path class="cls-1" d="M59.5,36.86c-.26-2.54.69-4.28,3.29-4.92C63.05,34.48,62.09,36.22,59.5,36.86Z"/></g></g></svg>