<svg xmlns="http://www.w3.org/2000/svg" viewBox="0 0 600.6 213.06"><defs><style>.cls-1{fill:#c1401f;}</style></defs><title>ObraIndice1</title><g id="Layer_2" data-name="Layer 2"><g id="textos"><path d="M305.48,2.6a9.49,9.49,0,0,0-2.86,1.08,32.35,32.35,0,0,1-19.46,7.89c-2.71.15-5.29,1.28-8.09.94-4.15-.52-8.36-.69-12.47-1.4C255,9.78,247.33,8.55,239.69,7.34c-9-1.44-18-1.24-27-.72a149.14,149.14,0,0,0-17.38,2.53c-4.72.83-9.39,2-14,3-1-.83-.77-1.7.16-1.94,5.47-1.39,11-2.68,16.47-3.95,6.51-1.52,13-3.26,19.57-4.39,6.09-1,12.25-2.4,18.51-1,8.31-.09,16,2.76,23.92,4.81,3,.79,6.06,1.59,9.16,2.17a49.53,49.53,0,0,0,21.2-.25A35,35,0,0,0,301,2.57c.69-.46,1.33-1,1.75-1.3,1.48-.27,2.4,0,2.84,1.18Z"/><path d="M305.63,2.45a13,13,0,0,1,2.33.78c2.57,1.4,5.09,2.88,6.57,3.73,4.1.68,7,1.32,9.88,1.58a32.47,32.47,0,0,0,8.18,0c5.55-.94,11.15-1.7,16.55-3.48S360,2,365.43.46a6.6,6.6,0,0,1,1.83-.4c6.7.05,13.35-.46,20.07.82,11.46,2.18,22.9,4.32,34.09,7.65a32,32,0,0,0,4.81.68c.08.67.13,1,.18,1.39-.36.14-.76.48-1.06.4a103.76,103.76,0,0,0-18.41-3.55A20.38,20.38,0,0,1,404.48,7a93,93,0,0,0-26-1.56,193.53,193.53,0,0,0-26.6,4.15,82.82,82.82,0,0,1-26.91,1.68,38.27,38.27,0,0,1-16.52-5.59c-1.22-.75-2.55-1.52-2.94-3.11Z"/><path class="cls-1" d="M600.6,210.45c-1.38.91-2.47,2.11-3.68,2.34a36.68,36.68,0,0,1-6.55.24H11.53a45.29,45.29,0,0,1-7.28-.24C3.05,212.6,2,211.35,0,210c2-1.29,3.06-2.48,4.27-2.7a37.6,37.6,0,0,1,6.55-.22q289.78,0,579.56.1C593.67,207.2,597.71,205.21,600.6,210.45Z"/></g></g></svg>