<svg xmlns="http://www.w3.org/2000/svg" viewBox="0 0 91 85.53"><defs><style>.cls-1{fill:#fff;}</style></defs><title>ObraHueco1</title><g id="Layer_2" data-name="Layer 2"><g id="ornamentos"><path class="cls-1" d="M16,35V27.23c2.53-1.39,1.8-4.89,4.25-6.46,1.31-.83,2.3-1.11,3.75-.07v7.58c2.09,2.85,2.33,6.68,5.62,8.08,2.63,1.12,5.4,1.88,8.18,4.17h6.9c1.6,1.72.63,3.42,1,5.15C43,47.15,40,46.14,37,46.5c-1.31.33-1.87,2.64-4,1.88-3.36,3.26-7.34,6-9,10.81V65c-1.65,2.05-2.16,1.88-6-2V59.66l-2-2.25V54.34c.18-1.84,3.24-2.69,1.74-5.09-.24-.24-.48-.68-.72-.68-4,0-8.06,0-12.08,0C3.86,46.61,1.6,46.79,0,45.72V41.09l6.17-2.56H17C18.69,36.45,16.22,36.37,16,35Z"/><path class="cls-1" d="M75,51.08v7.75c-2.53,1.39-1.8,4.89-4.25,6.46-1.31.83-2.3,1.11-3.75.07V57.78c-2.09-2.85-2.33-6.68-5.62-8.08-2.63-1.12-5.4-1.88-8.18-4.17H46.3c-1.6-1.72-.63-3.42-1-5.15C48,38.91,51,39.92,54,39.56c1.31-.33,1.87-2.64,4-1.88,3.36-3.26,7.34-6.05,9-10.81v-5.8c1.65-2.06,2.16-1.88,6,2V26.4l2,2.25v3.07c-.18,1.84-3.24,2.68-1.74,5.09.24.24.48.68.72.68,4,0,8.06,0,12.08,0,1.08,1.93,3.34,1.75,4.94,2.82V45l-6.17,2.56H74C72.31,49.61,74.78,49.69,75,51.08Z"/><path class="cls-1" d="M41,80.51v-12c-2.24.27-2.24.27-3.08,1H29.59c-2-2.47-6.67-1.76-7.56-5.58-.13-.54.27-1.19.42-1.8,1.9-1.37,4.11.21,6.06-.58a95.79,95.79,0,0,1,8.8-3.91c3.44-1.16,3.13-4.72,5.69-7V40.56c1.67-1.89,3.45-.84,5.43-1.27,1.44,2.69.43,5.69.75,8.54,2.74,5.94,6.62,10.82,14.38,13.61l5,.26c2.06,3.32-1.19,4.09-2.29,5.83h-4l-2.15,2h-4c-.78-.71-1.5-1.38-2.19-2l-2,.16c-.23.23-.68.47-.68.71,0,4,0,8,0,11.86-1.63,1.46-2.17,3.28-2.85,5.27H43.81C42.85,83.79,42.8,81.68,41,80.51Z"/><path class="cls-1" d="M50.91,18.56a38,38,0,0,0,3.28-2.07c1.83-.17,4.81,0,7.77.05,1.89,2.38,5.69,2.07,7,5.06v2c-.26.27-.46.62-.74.72-2.64,1-6.1-1.15-8.14,2.14-2.63.1-4.49,2.06-6.81,2.94-.5.19-.51,1.7-.75,2.61L49,35.61c-.3,3.57.33,7.21-.42,10.92H43.66c-1.38-1.57-.53-3.31-.7-4.89a37.39,37.39,0,0,1,0-4c-.51-.5-1.16-.89-1.42-1.46-1-2.24-2-4.53-2.94-6.78l-9.86-4.91H22.56c-.25-1-.49-1.87-.67-2.58,1.43-3.33,5.25-3,7.17-5.42H35.2c1.24.68,2,2.72,4.13,2,.24-.22.69-.45.7-.68,0-4,0-8.07,0-11.15L43.19.41c1.28-.89,3,0,4.41-.3l3,5.79c0,3.75,0,8.17.29,12.66-1.3.16-2.89,0-1.5,1.79C49.88,19.8,50.36,19.24,50.91,18.56Z"/></g></g></svg>