<svg xmlns="http://www.w3.org/2000/svg" viewBox="0 0 84 91.78"><title>ObraIntro2</title><g id="Layer_2" data-name="Layer 2"><g id="ornamentos"><path d="M12.54,44.78c-1.21-.39-2.32-.69-3.39-1.11-.33-.13-.75-.55-.76-.85C8.33,40.57,6.6,39.51,5.2,38.2a7.27,7.27,0,0,1-1.47-1.62C2.55,34.5,1.42,32.39.36,30.24a2.65,2.65,0,0,1,.75-3.48,3.23,3.23,0,0,0,.82-1.48C2.3,23.87,3,23,4.6,23c1.3,0,2.58-.53,3.87-.58a43.25,43.25,0,0,1,5.34.16c2,.18,4,.51,6,.73a7.64,7.64,0,0,0,1.39-.2A5.59,5.59,0,0,1,23,22.94c2,.41,4.05.9,6.07,1.37.7.17,1.38.4,2.23.65a19.05,19.05,0,0,1-.4-2.38,37.37,37.37,0,0,1,1-8.09c0-.21,0-.5.14-.61,1.65-1.44,1.28-3.73,2.32-5.42.11-.18.14-.4.24-.58,1.24-2,2.44-4,3.76-5.93a14.09,14.09,0,0,1,2-1.95,2.59,2.59,0,0,0,3.5.24c.43-.26,1.29.09,1.92.26.47.13.88.46,1.34.63A3.37,3.37,0,0,1,49.7,3.57a12.91,12.91,0,0,0,1.65,3A13.6,13.6,0,0,1,53,11.66a30.94,30.94,0,0,0,.78,4.19,33.84,33.84,0,0,1,1.15,8.89c0,.26.06.51.12,1,1.75-.29,3.49-.42,4.93-1.33a17.17,17.17,0,0,1,3.53-1.48A43.61,43.61,0,0,1,73.05,21a21.36,21.36,0,0,1,5.44.41,4.59,4.59,0,0,1,3.87,4.14c.08.63.25,1.24.3,1.87a3.55,3.55,0,0,1-1.34,3.37,14.24,14.24,0,0,0-3.46,4,16.55,16.55,0,0,1-3.8,4.61,1,1,0,0,0-.32.34C72.4,43.06,69.81,45.2,66.87,47c-.3.19-.57.42-1.05.78a12.76,12.76,0,0,0,1.46,1.06,18.53,18.53,0,0,1,6.13,5.75c1,1.44,2.14,2.85,3.21,4.28.1.12.26.24.28.38.49,2.81,2.89,3.23,5,4a7.54,7.54,0,0,1,1,.42,1.6,1.6,0,0,1,.57,2.71c-1.22,1.58-2.37,3.22-3.71,4.69a37.87,37.87,0,0,1-4,3.63,2,2,0,0,1-1.5.18,66.82,66.82,0,0,1-7.14-1.86A34.72,34.72,0,0,1,59,69.33c-.94-.63-2-1.17-3.08-1.84-.62,3.05-1.23,6-1.81,8.89a4.19,4.19,0,0,0,.08.92c.09,2.51-.77,4.83-1.41,7.19-.46,1.71-1.06,3.39-1.45,5.12-.2.91-.58,1.45-1.46,1.6a22,22,0,0,1-6,.51,8.78,8.78,0,0,1-4.13-1.17,8.28,8.28,0,0,1-3.19-4.35,3.71,3.71,0,0,0-1.28-1.88,10.2,10.2,0,0,1-3.21-4.8c-.51-1.39-.91-2.81-1.35-4.22-.08-.25-.09-.59-.26-.74-1.6-1.46-1.58-3.43-1.69-5.76-.54.58-.9.9-1.18,1.28a10.61,10.61,0,0,1-4.34,3.51,32.25,32.25,0,0,1-6.74,2.62c-2.21.45-4.38,1.11-6.57,1.66A1.88,1.88,0,0,1,7.69,77a21.8,21.8,0,0,0-1.58-2.34,2.29,2.29,0,0,0-1-.64,1.79,1.79,0,0,1-1.27-2,7.39,7.39,0,0,1,0-.94c.59-3.6,1.06-7.35,3.43-10.21,1.57-1.9,2-4.22,3.34-6.18a9.65,9.65,0,0,1,3.26-2.88c.66-.4,1.37-.74,2-1.18s.6-1,0-1.27C13.94,48.45,13.38,46.54,12.54,44.78Zm12.19,22.9.73-.33c-.32,1-.57,2-1.84,2.21-.25,0-.44.39-.65.6a11.29,11.29,0,0,1-1.23,1.17c-1,.69-2,1.32-3,2,0,0-.15-.1-.23-.15l1.9-2.4,0,0a10.2,10.2,0,0,0,3-6.14l1,.39,1.35-4.86.34.09-.64,3.32a14.65,14.65,0,0,0,1.7-7.59c-1.4,1.27-2.64,2.38-3.87,3.51s-2.47,2.26-3.67,3.42-2.29,2.3-3.45,3.44a29.38,29.38,0,0,1-3.68,3.47c-1.32.91-1.85,2.61-3.48,3.16a13.56,13.56,0,0,1,1-1.42c.39-.56.67-1.2,1.07-1.74,1-1.44,2.12-2.86,3.2-4.27a10.64,10.64,0,0,1,.85-.92q2.16-2.19,4.33-4.36c1.41-1.41,2.81-2.83,4.25-4.21a2,2,0,0,0,.85-1.74,4.09,4.09,0,0,1-3.05-.09.58.58,0,0,0-.29,0c-1.88.62-3.92.91-5.46,2.3a34.41,34.41,0,0,0-6.17,6.9C8.72,64.76,7.77,66.4,6,67.14c0-.2-.07-.54,0-.6.92-.55,1.2-1.6,1.78-2.39A23.2,23.2,0,0,0,11,59a8.11,8.11,0,0,1,2.64-3.58l7.48-5.9a18.88,18.88,0,0,0-3.38,1A39.44,39.44,0,0,0,13.66,53a8.24,8.24,0,0,0-1.26,1.18c-1.3,1.36-1.84,3.13-2.55,4.81a4.78,4.78,0,0,1-.79,1.5A18.17,18.17,0,0,0,5.57,66c-.27.59-.05.88.49,1.07a.9.9,0,0,1,0,1.39c-.17.15-.59,0-1.13,0-.19,1.21-.39,2.52-.59,3.78a4.59,4.59,0,0,0,.71.42,3.51,3.51,0,0,1,2.54,2.46c.44,1.43,1.15,1.59,2.74,1.33.92-.15,1.85-.33,2.77-.51a30.09,30.09,0,0,0,9.31-3.68,17.81,17.81,0,0,0,2.82-2,11.34,11.34,0,0,0,3.59-7.24s-.1-.12-.15-.18l-.7.64.21-2.49-.14,0q-1,2.86-1.93,5.73a1.74,1.74,0,0,0,.8-.91c.38-.79.74-1.58,1.11-2.37,0,1.76-.83,3.13-1.7,4.57l-.9-.67V66.13c1.39-1.49,1.45-3.43,1.77-5.28-.59,1.76-1.17,3.52-1.76,5.28l-.64,1.58-.81.84.31.19ZM40,22,39.91,22c-.08-.86-.75-.82-1.49-.82.68-1,1.28-1.84,1.9-2.69.28-.39.59-.76.88-1.13a15.73,15.73,0,0,0-.2,1.8c0,.22.34.44.52.66l.27-.17c-.18-.75.49-1.72-.64-2.25a6.94,6.94,0,0,0,.62-3.08,11,11,0,0,1,.28-3.74A16.32,16.32,0,0,0,42.32,8c0-1.58.09-3.16,0-4.73a1.58,1.58,0,0,0-.52-1,2.54,2.54,0,0,0-2.42.25,11.14,11.14,0,0,0-1.32,1.67c-.54.86-1,1.77-1.52,2.65a26.89,26.89,0,0,0-2.11,3.72c-.54,1.42-.52,3.05-1.7,4.22-.09.09-.08.29-.11.44-.35,1.66-.81,3.3-1,5-.15,1.47-.46,3,.48,4.38.43-2.1.87-4.2,1.32-6.4.52,2.45,1,4.71,1.56,7.25l2.47-1.73.2.3-2.53,2c.15,1.05-.23,2.29.87,3.16.62,0,1.09-1.1,1.86-.32-.36.45-.75.89-1.09,1.37-.21.3-.12.45.13.5l.86.66.33.76,1.33-1.39.78.55-1,1.22-.15-.92-1,1.14L39,33.83l.36-.93h2.29c-.84-.69-1.25-1.3-.45-2.09a.74.74,0,0,0,.21-.55c0-.27-.35-.53-.32-.77a2.81,2.81,0,0,1,.42-.85c-.45-.71-.85-.25-1.24-.11-.82-.8-.22-1.52.3-2a3.56,3.56,0,0,0,.94-2s-.11-.1-.25-.22l-.53,1.11-.88-1.68-.26-.48.36-.69,1.08-.1L41,22ZM33,41.32l2.49-1.84a2.43,2.43,0,0,0-2.45,1.88c-.71.47-1.3,1-1,2Zm-2.54-4.38a2.43,2.43,0,0,0-2-.87c.35.26.67.4.82.64s-.43.4.06.65.4-.25.59-.39.37,0,.57-.07c.74,1.05,1.15-.36,1.75-.22l-.92-.8.65-.06A15.9,15.9,0,0,0,28.75,34c-.14-.06-.39.12-.59.19a3.48,3.48,0,0,1-.87-2.32,16.25,16.25,0,0,0,4.52,2,10.25,10.25,0,0,0-2.66-1.48,14.89,14.89,0,0,0-1.88-.51l-1.22-1.23.13-.16,1.64.82-.19-.75c.84.16,1.63.38,1.73,1.4l1.42-.35a2.76,2.76,0,0,1-.81-.46,1.43,1.43,0,0,1-.25-.61l-1.91-.94-.17,1A30,30,0,0,1,24.25,29,15.23,15.23,0,0,0,18,26.48a12.1,12.1,0,0,1-4.66-1.18,7.45,7.45,0,0,0-3.82-.82c-1,0-1.11-.21-.87-1.4-1.74.37-3.37.7-5,1.08a.83.83,0,0,0-.47.56c-.06,1.22-.87,2-1.6,2.78A1.85,1.85,0,0,0,1.32,30,11.14,11.14,0,0,1,2.8,32.8,8.89,8.89,0,0,0,5,36.51,13,13,0,0,0,9.3,39.65a24.63,24.63,0,0,0,3.62,1c2.41.54,4.81,1.18,7.25,1.55,2.71.41,5.38.24,7.54-1.8a2.73,2.73,0,0,0,.4-.74A18.45,18.45,0,0,1,26.06,39c-2.13-1-4.21-2.12-6.36-3.08s-4.35-1.9-6.59-2.64A16.27,16.27,0,0,1,7.76,30a5.74,5.74,0,0,1-.69-1c1.14.63,2,1.06,2.82,1.57s1.33,1.24,2.4.75a1.17,1.17,0,0,1,1,.3,3.67,3.67,0,0,0,3,.83c3-.16,5.71.76,8.5,1.47,2,.52,2,.63,3.43.18l3.21,1.82-.75.12.36.76Zm1.87,22.81c.1,0,.24,0,.28-.06.5-.78.55-1.89,1.68-2.24.16-.05.19-.5.31-.86a3.09,3.09,0,0,0-2.24,3.18l-.26,2c-.26.34-.67,1-.76,1-1-.42-.72.46-.93.83l-.57,1.56.38.08.15-1.67.77.07c-.06.34-.09.66-.17.95-.36,1.27-.79,2.51-1.08,3.79a5.15,5.15,0,0,0,.88,4.77,4.83,4.83,0,0,1,.87,2,24.82,24.82,0,0,0,3,7.24c.2.35.84.81,1,.72,1.18-.55,1.17.24,1.36,1A14.54,14.54,0,0,0,38,86.88a5.48,5.48,0,0,0,5.64,3.54c-.25-1-.57-2-.72-3a33.57,33.57,0,0,1-.3-3.61c-.14-3.06-.27-6.11-.36-9.17,0-1.57,0-3.15,0-4.73,0-1.15-.12-2.31-.07-3.47.06-1.58.26-3.16.35-4.74,0-.77,0-1.55-.09-2.44-1.3-.16-2.45-.29-3.58-.46a2.67,2.67,0,0,0-2.89,1.46c-1,1.64-1.84,3.32-2.86,4.91a7.35,7.35,0,0,0-1.37,3.64l0-.05-.27.66L31,69.11c.07-.77.12-1.55.24-2.31.26-1.7.56-3.4.85-5.1A1.87,1.87,0,0,0,32.36,59.75ZM77.19,69.93c1.45-.14,2-1.59,3-2.24.11-.07,0-.42,0-.64L80,66.89c-.41.53-.8,1.09-1.24,1.59s-1,1-1.5,1.48l-1.54.73C76.51,71,76.82,70.4,77.19,69.93Zm-28-26.68c.61-.13.75-.92,1.55-.93.51,0,1-.69,1.55-1.13l-.5-.93c-.37.49-.65,1.18-.93,1.19-1.3,0-1.36,1-1.63,1.83l-2.66,2.35A5,5,0,0,0,49.23,43.25ZM48,26.17l.34.6-.35.47a1.92,1.92,0,0,0-2,.64c0,.33,0,.66.06,1,.11.65.34,1.09,1,.4a3.6,3.6,0,0,0,.79-.45c1-1,2-2.06,3-3.09l0,0c.36,1.33-1.1,1.8-1.23,2.95l2.17-2.41.31.57c1-.52.83-1.49,1-2.32a18.27,18.27,0,0,0,1-1.78c.06-.13-.27-.43-.59-.9-.16,1.17-.27,1.94-.37,2.72-.77-.55-.22-1.24-.22-1.87a24.88,24.88,0,0,0-.13-5.33c-.41-1.81-.66-3.62-.89-5.44a12.59,12.59,0,0,0-2.13-6,5.51,5.51,0,0,1-1.06-2,1.63,1.63,0,0,0-1.33-1.47A4.87,4.87,0,0,1,46.21,2c-1.75-.9-1.71-.93-3.3.4,0,1.67.07,3.46,0,5.24-.12,2.56-.38,5.12-.52,7.68-.07,1.3.1,2.63,0,3.92-.25,2.24.35,4.37.59,6.54a.65.65,0,0,0,.22.39c.5.47,1,.93,1.69,1.55,1.1-1.34,2.17-2.69,3.26-4A7.39,7.39,0,0,1,49,22.9l0,0-.52,1.41-.41.66-1.14,1.24Zm8.47,24.7-.17-1-.78,1.07,1-.07c-.16.33,0,.79-.69.82a13.4,13.4,0,0,0-2.14.46l0,.4h3.08c.07-.61.13-1.11.16-1.62Zm-7.54-4.75c-.1-.51-.38-.57-.75-.27S47,46,47.51,47L49,46.07c.14.94.74.78,1.27.66.45-1,.84-1.95,1.24-2.86l-.27-.17ZM46.78,49.4c-1.87.43-2.14,1.17-1,2.75a3.22,3.22,0,0,0,2.33-3,6.62,6.62,0,0,1-1,.57c-.07,0-.26-.2-.4-.31l.77-1C46.55,48.43,46.82,49,46.78,49.4Zm3.06-17.67c.31-.93,1.59-1.45,1.16-2.72-2,.48-3,2.2-4.3,3.55a3.09,3.09,0,0,0-.4,1.94c0,.31.38.63.71,1.11l1.39-2.14.45.54.85-1.34ZM30.75,28c.6-.1,1.16-.46,1.78.14a6.17,6.17,0,0,0,1.69.82,2.89,2.89,0,0,0-.7-1.47A6.37,6.37,0,0,0,30,25.32C27.38,24.83,24.9,23.7,22.2,24a31.88,31.88,0,0,1-8.93-.64,19,19,0,0,0-3.62-.06c-.14,0-.29.23-.57.47,1.61.28,3,.6,4.48.75a1.57,1.57,0,0,1,1.54,1.06c1.63-1.05,3.17.38,4.57-.09l.6,1c.65-.18.14-1.5,1.23-.86-.17.34-1,.73,0,1.17l.57-1c1.38.45,2.66.93,4,1.25a2.23,2.23,0,0,0,1.75-.15c1.24-1.24,2.09.1,3.09.33,0,0-.08.49-.12.76l-1.53-.46-.11.38,2.11.91ZM74.59,69.66l3-1.61-1,1.35c1-.69,2.1-1.23,2.29-2.44-1.15-.18-2.2-.31-3.24-.5A28.34,28.34,0,0,1,63.65,61.4c-1.18-.87-2.27-1.88-3.44-2.77a1.65,1.65,0,0,0-1.12-.37c-1,.16-1.9.47-3,.77.32.93.54,1.74.88,2.48a22.4,22.4,0,0,0,1.19,2.06l-.5.41-.72-1.69c-.94,3.73,0,5,3.29,6.29a5.5,5.5,0,0,1,1,.62,9,9,0,0,0,3.2,1.91,12.1,12.1,0,0,1,3.1,1.12c1.74,1,3.62.78,5.46.83a11.14,11.14,0,0,0,2.63-.52,2.46,2.46,0,0,0,1.61-1.2c-1.78.45-3.51.81-5.53-.2.51-.1.73-.21.9-.16.83.22,1.4,0,1.63-.86,0-.19.25-.33.38-.5ZM68.92,33.39l0,0a6,6,0,0,1-1,1.09,32.74,32.74,0,0,1-3.46,1.84c-2.4,1.08-4.82,2.08-7.25,3.09-1,.42-2.09.77-3.16,1.17,1.3,1.73,2,3.65,3.46,5.05a3.51,3.51,0,0,1,.81,1.51c.57,1.83,1.24,2.18,3,1.53a5.24,5.24,0,0,1,1-.24,2.94,2.94,0,0,0,2.61-1.69,4,4,0,0,1,1.19-1.2c.57-.46,1.2-.85,1.79-1.3,1.65-1.3,2.93-3,4.42-4.42a33.45,33.45,0,0,0,4.21-5.5c1.72-2.48,2.06-5.38,2.77-8.17a13.72,13.72,0,0,0,.41-2.18c.09-1.12-.07-1.25-1.16-1.47-.77-.16-1.53-.4-2.3-.54a7.53,7.53,0,0,0-1.7-.16c-.73,0-1.46.15-2.19.24-1.52.17-3,.25-4.54.55-1.64.34-3.25.87-4.87,1.32a3.14,3.14,0,0,0-1.18.43c-2,1.7-5,1.93-6.49,4.11l-.72-.32-1.27,2.64-.6-.66,1-1.23-.26-.19c-.42.79-1.94.91-1.29,2.43l1.47-.21,0,0-.24.91-1,1c-1.06,1-2.33,1.87-2.78,3.21.54.76,1,1.47,1.5,2.09,1.79,2,2.79,2.61,4.77.73a4.49,4.49,0,0,1,2.78-1.09,12.73,12.73,0,0,0,3.58-1.31c.36-1.53,1.84-1.7,2.92-2.3,1.41-.78,2.95-1.34,4-2.62l.52,0,1.89-1.19.2.32c-2.48,2.16-5.65,3.31-8.35,5.15l.16.27Zm-23.31,57a17.2,17.2,0,0,0,2-.12c1-.18,2.1-.3,2.49-1.39a25.65,25.65,0,0,0,1.75-7.28,2.75,2.75,0,0,1,.29-1.36,3.42,3.42,0,0,0,.13-2.73c-.1-.51-.33-1-.4-1.52A1.81,1.81,0,0,1,52,74.8c1.06-1.42,1.19-3.09,1.47-4.74.19-1.19.43-2.38.73-3.54.18-.69.76-1.33.75-2,0-1.55-.25-3.1-.41-4.71a3.39,3.39,0,0,0-1,.08,6.09,6.09,0,0,1-3.21.53,7.42,7.42,0,0,0-2.94.09,2.06,2.06,0,0,1-2.13-.45,13.32,13.32,0,0,0-2-.93c-.17,2.39-.32,4.47-.46,6.56a4.11,4.11,0,0,0,.07.78c.09.83.16,1.66.29,2.49.08.55.24,1.1.36,1.64a3.32,3.32,0,0,1,.21,1c-.15,1.18-.37,2.36-.57,3.55-.07.4-.35,1-.18,1.18.68.8.42,1.69.41,2.55,0,2-.17,3.89-.15,5.84a5.1,5.1,0,0,0,.57,1.63,5.7,5.7,0,0,0,0,1.16C44,88.73,45.42,89.14,45.61,90.39ZM73.4,64.25l.1-.33c-.92-.25-1.82-.7-2.8-.08-.56-1-1.77-.86-2.6-1.42s-1.74-1.07-2.73-1.67c.34-.2.42-.28.51-.29a.7.7,0,0,1,.44.09c1.88,1.6,4.21,2,6.52,2.58a7.67,7.67,0,0,1,1.6.83,2.21,2.21,0,0,1,.81-.32c.55,0,1.23.34,1.63.13.77-.43,1.1.52,1.7.34a7.65,7.65,0,0,0,.84-.39c-.46-.26-.77-.42-1.06-.62-1-.7-2.11-1.43-2.36-2.65-.36-1.81-1.64-3-2.61-4.36-.62-.9-1.4-1.7-2-2.6a17.12,17.12,0,0,0-4.14-3.64l-.71,1.79c1.37.63,1.37.63,1,1.72a4.8,4.8,0,0,1-.56-.53,3.16,3.16,0,0,0-2.84-1.5,7.07,7.07,0,0,1-2.2-.17,2.08,2.08,0,0,0-2,.36c-.1.09-.39-.06-.5-.08l-.21-1.38c-1.68.1-.67,1.59-1.32,2.31s-.41,1.75-.53,2.35c.94,1,1.63,1.78,2.35,2.53a10.47,10.47,0,0,0,1.13,1.08c.87.68,1.74,1.38,2.67,2q3.32,2.1,6.72,4.08a2.89,2.89,0,0,0,2.44.28l-.9-.77ZM36.77,39.09l3.92,4.64,3.67-1.12c.48-2,1-4.2,1.59-6.48-.17-.11-.34-.21-.51-.33a3.42,3.42,0,0,1-.32-.26,9.36,9.36,0,0,1-1.56.38C40.85,36.07,38.83,37.6,36.77,39.09ZM33,46.16c1.53,0,3.17-.12,4.79,0,1,.1,1.51-.12,1.83-1,.13-.33.31-.65.48-1l-3.67-4.26-3.07,2.22a2.4,2.4,0,0,1-1.52,2.56Zm13.92-9.8c-.82,3-2.29,5.62-1.41,8.72,1.53-.85,4.41-4.26,4.78-5.59A2.25,2.25,0,0,0,49.13,37,22.25,22.25,0,0,0,46.93,36.36ZM44.71,49a1.84,1.84,0,0,0,.38-2.28,3.67,3.67,0,0,1-.24-1.21,1.88,1.88,0,0,0-3.05-1.31A5,5,0,0,0,40,46.32c-.4,1-.08,1.82-.28,2.7a1.52,1.52,0,0,0,1,.47C42.08,49.37,43.44,49.14,44.71,49Zm-11.78-.8.31-.1c.47,1.13.36,2.56,1.44,3.4.67-.68.67-.68,0-1.77l1.69-.38a7.44,7.44,0,0,0,1.79-.54,1.63,1.63,0,0,0,.66-1.09c.08-.59-.44-.82-.93-.85a19.37,19.37,0,0,0-5.27,0c-.24,1.84-.24,1.84.28,2.65ZM24.52,49c0,1.57,0,1.57-1.35,1.95a.34.34,0,0,0-.19.24c.12.43-.06.56-.46.57a1.28,1.28,0,0,0-.58.15,1.61,1.61,0,0,0-.38.33c1.38-.18,2.75-.34,4.11-.56a1.66,1.66,0,0,0,.76-.49c.3-.29.51-.72.85-.9.86-.46.49-.91.14-1.64-.33,1.13-1.37,1-1.66,1.49Zm-6.29-2.29c3.43,1.29,6.84.08,10.31-.31-.42-.25-.77-.72-1.27-.6-.91.21-1.78.61-2.69.8-.27.06-.64-.34-1-.54-.62.69-.62.67-1.47.65C20.83,46.71,19.53,46.73,18.23,46.73Zm20.94,5.18-.3-.44a21.36,21.36,0,0,1-2.42,1.36,20,20,0,0,1-2.7.79l.12.47,2.84-.64C35,54.55,35,54.55,36,55.75c.44-.33,1.06-.58,1.29-1a4.49,4.49,0,0,0,.21-1.67Zm2.54,1c-.52.18-.74.24-.94.33a6.71,6.71,0,0,0-.65.35l-.18-.26,1.31-1.1c-1.48-.49-1.62-.48-2,.79a4.33,4.33,0,0,1-.86,2c-.08.09,0,.37.07.8A8.41,8.41,0,0,0,41.71,53Zm-25-7.84c.21-1.47.39-1.6,1.33-1.48,1.19.16,2.37.31,3.57.39a7.7,7.7,0,0,0,1.48-.19c-1.78-.35-3.54-.35-5.27-.54a2.92,2.92,0,0,0-2.58.84Zm18.54-6.43L41,35.15A6.17,6.17,0,0,0,35.22,38.68ZM49.49,52.22l-.17,1.62c1.75.09.69-1.5,1.41-1.86l-1.58-2.4L49,52Zm1.57-5,.19.4,1.91-.26c0-.58-.06-1,0-1.33s.09-.67.11-1,0-.69,0-1.15ZM18.77,33.35c-.44.71.29,1,.83,1.2,1.38.51,2.79.93,4.19,1.34a2.94,2.94,0,0,0,.89,0,28,28,0,0,0-4.49-1.86C19.71,33.87,19.27,33.59,18.77,33.35Zm-.08,11.44c1.31.56,5.49.7,6.62,0ZM80,28.79l-.85,1,1.71-.46L81,28.08l-1.62-.8ZM30,57.39l-.48,5C30.44,60.77,30.11,59.07,30,57.39Zm23.4-2.49-1.7.12.07,1.13C52.91,56.45,53.22,55.78,53.43,54.9ZM28,28.79l2.6,1.2.13-.28C29.84,29.39,29.46,28,28,28.79Zm5.78,2.56c.5,1,1.35,1.1,2.29,1.11C34.89,31.29,34.89,31.29,33.8,31.35ZM32,29.18l2.74,1.72C34.3,29.61,33.18,29.39,32,29.18Zm-.85,28.28.42,0a4.69,4.69,0,0,0,0-3.22C31.4,55.33,31.28,56.39,31.15,57.46Zm45,8,.07.45,2.49-.42L78.66,65ZM51,50.15l.39.16.56-.89L50.76,49ZM29.2,59.93l-.21,0L28.74,62l.36,0C29.13,61.33,29.17,60.63,29.2,59.93Zm26.31-4c.83,1.2.83,1.2,1.44.08ZM12.7,41.3l0,.33,2.2.33,0-.27Zm53.1,7.59-1.63.16C65.19,49.65,65.19,49.65,65.8,48.89ZM48.64,53.22C47.51,53,47.33,53.6,47,54l.18.26ZM19,53.1l-1.51,1.14C19.06,54,19.06,54,19,53.1Zm7.26-1.49.59,1.45.49-1.14ZM73.42,64.44l.19.5,1.93-.4v-.1ZM43,54.77c.07.81.07.81,1.11.25Zm4.58-.16c.81.18.81.18,1.17-.64ZM33.48,33.28l.2-.38L32,32.06l-.17.34ZM30.35,54.1h-.52v1.55h.52Zm1.76-23.24.4-.2a4.92,4.92,0,0,0-.44-.78s-.31.13-.48.21Zm19.56,1c-.84.38-.84.38-.7,1.31ZM41.82,35c.5.69.88.6,1.61.1ZM11,41.8c.08-.13.13-.32.25-.38a2.92,2.92,0,0,1,.75-.23C11,40.54,11,41.19,11,41.8Zm.85,1.91c-.41-.87-.41-.87-1.22-.63ZM28.71,57.54l1.09-.86H28.58Zm4.77-6.76c-.24-.25-.36-.47-.51-.5s-.39.21-.39.32a.61.61,0,0,0,.33.44C33,51.08,33.21,50.91,33.48,50.78Zm-4.38-13-.15.37,1.19.33.09-.33Zm45.54,36,.08.31,1-.28-.07-.27ZM32.92,52.16l.06.39h1a2.06,2.06,0,0,0-.13-.53A7.44,7.44,0,0,0,32.92,52.16ZM21.75,49.85l.13.27.9-.44-.14-.29ZM68,45.41c-.49.09-1.06.1-1.08.8Zm-38.75.87c.22-.52.31-1-.53-1.2C28.93,45.58,29.08,45.93,29.24,46.28Zm-2.69-3.44-.5.44.74.76.37-.34ZM35,58.44l.18.17a2,2,0,0,0,.44-.42,2.06,2.06,0,0,0,.15-.58l-.17-.06Zm1.8-22.95h.34l-.18-1-.32.06Zm-2.27,24,0,.31h1v-.2ZM12.22,57.6l.26.22.58-.67L12.88,57Zm31-30.32-.31.19.41.65.23-.13Zm10.09-1.73.38.19.26-1.19-.29-.07ZM51.31,58l0,.39.88-.26-.06-.2ZM39.05,56.48l-.22-.29-.84.56.16.25Z"/></g></g></svg>