<svg xmlns="http://www.w3.org/2000/svg" viewBox="0 0 77.44 77.37"><defs><style>.cls-1{fill:#c1401f;}</style></defs><title>ObraIntro5</title><g id="Layer_2" data-name="Layer 2"><g id="textos"><path class="cls-1" d="M38.58,0C59.27-.46,77.48,16.74,77.44,38.6A38.61,38.61,0,0,1,38.85,77.37C16.53,77.44.11,59.06,0,38.87-.12,17.37,17.91-.4,38.58,0Zm.17.85C18.51.44.86,17.53.87,38.7c0,19.51,15.68,37.86,38,37.8A37.7,37.7,0,0,0,76.58,38.58C76.56,17,58.66.5,38.75.86Z"/><path class="cls-1" d="M2.32,38.54C1.91,19,18.79,2.2,38.68,2.15c18.64,0,36.42,15.09,36.52,36.31a36.44,36.44,0,1,1-72.88.08Zm.85.11a35.58,35.58,0,1,0,71.16-.29C74.19,17.94,57.24,3,38.57,3,19.6,3,2.83,19.06,3.17,38.65Z"/><path class="cls-1" d="M4.47,38.65a34.24,34.24,0,1,1,35,34.23A34.12,34.12,0,0,1,4.47,38.65Zm.93-.15a33.35,33.35,0,1,0,66.69.26A33.16,33.16,0,0,0,38.85,5.23,33.11,33.11,0,0,0,5.4,38.5Z"/><path class="cls-1" d="M70.74,38.73a32,32,0,1,1-64-.19,31.64,31.64,0,0,1,32-31.92C57.38,6.62,70.64,21.56,70.74,38.73ZM7.66,38.5C7.25,55.1,20.91,69.7,38.53,69.79A31.16,31.16,0,1,0,38.8,7.47,30.85,30.85,0,0,0,7.66,38.5Z"/></g></g></svg>