<svg xmlns="http://www.w3.org/2000/svg" viewBox="0 0 90 90"><defs><style>.cls-1{fill-rule:evenodd;}</style></defs><title>ObraTitulo2</title><g id="Layer_2" data-name="Layer 2"><g id="ornamentos"><path class="cls-1" d="M53.94,5.87s-3.41,1-4.15,8.81c-.33,3.59-2.74,4.91-4.64,5-1.71.15-4.32-1.27-4.77-4.84C39.45,7,36,6.16,36,6.16s3.16-1.85,5,3.14c0,0,2.46-1.38,3.79.83a4,4,0,0,0-2.27,1.73c-1,1.49-1.59,6.76,2.57,7.18,4.21-.6,3.49-5.82,2.4-7.27a4.15,4.15,0,0,0-2.34-1.68C46.48,7.84,49,9.14,49,9.14,50.73,4.12,53.94,5.87,53.94,5.87ZM38,3.29s2.24-1.4,5.19,1.36c0,0,1-.39-.73-2A6.33,6.33,0,0,1,44.9,0a6.5,6.5,0,0,1,2.5,2.55c-1.72,1.67-.68,2-.68,2,2.85-2.84,5.16-1.52,5.16-1.52a5,5,0,0,0-3.4,3.46s-1-1-3.48.61c-2.47-1.55-3.51-.48-3.51-.48A4.93,4.93,0,0,0,38,3.29Z"/><path class="cls-1" d="M5.87,36.06s1,3.41,8.81,4.15c3.59.33,4.91,2.74,5,4.64.15,1.71-1.27,4.32-4.84,4.77C7,50.55,6.16,54,6.16,54S4.31,50.83,9.3,49c0,0-1.38-2.46.83-3.79a4,4,0,0,0,1.73,2.27c1.49,1,6.76,1.59,7.18-2.57-.6-4.21-5.82-3.49-7.27-2.4a4.15,4.15,0,0,0-1.68,2.34C7.84,43.52,9.14,41,9.14,41,4.12,39.27,5.87,36.06,5.87,36.06ZM3.29,52s-1.4-2.25,1.36-5.2c0,0-.39-1-2,.73A6.33,6.33,0,0,1,0,45.1a6.5,6.5,0,0,1,2.55-2.5c1.67,1.72,2,.68,2,.68-2.84-2.85-1.52-5.16-1.52-5.16a5,5,0,0,0,3.46,3.4s-1,1,.61,3.48c-1.55,2.47-.48,3.51-.48,3.51A4.94,4.94,0,0,0,3.29,52Z"/><path class="cls-1" d="M36.06,84.13s3.41-1,4.15-8.81c.33-3.59,2.74-4.91,4.64-5,1.71-.15,4.32,1.27,4.77,4.84C50.55,83,54,83.84,54,83.84s-3.16,1.85-5-3.14c0,0-2.46,1.38-3.79-.82a4.1,4.1,0,0,0,2.27-1.74c1-1.49,1.59-6.76-2.57-7.18-4.21.6-3.49,5.82-2.4,7.27a4.15,4.15,0,0,0,2.34,1.68c-1.28,2.25-3.78,1-3.78,1C39.27,85.88,36.06,84.13,36.06,84.13ZM52,86.71s-2.24,1.4-5.19-1.36c0,0-1,.39.73,2A6.33,6.33,0,0,1,45.1,90a6.5,6.5,0,0,1-2.5-2.55c1.72-1.67.68-2,.68-2C40.43,88.27,38.12,87,38.12,87a5,5,0,0,0,3.4-3.46s1,1,3.48-.61c2.47,1.55,3.51.48,3.51.48A4.93,4.93,0,0,0,52,86.71Z"/><path class="cls-1" d="M84.13,53.94s-1-3.41-8.81-4.15c-3.59-.33-4.91-2.74-5-4.64-.15-1.71,1.27-4.32,4.84-4.77C83,39.45,83.84,36,83.84,36s1.85,3.16-3.14,5c0,0,1.38,2.46-.82,3.79a4.1,4.1,0,0,0-1.74-2.27c-1.49-1-6.76-1.59-7.18,2.57.6,4.21,5.82,3.49,7.27,2.4a4.15,4.15,0,0,0,1.68-2.34c2.25,1.28,1,3.77,1,3.77C85.88,50.73,84.13,53.94,84.13,53.94ZM86.71,38s1.4,2.24-1.36,5.19c0,0,.39,1,2-.73A6.33,6.33,0,0,1,90,44.9a6.5,6.5,0,0,1-2.55,2.5c-1.67-1.72-2-.68-2-.68C88.27,49.57,87,51.88,87,51.88a5,5,0,0,0-3.46-3.4s1-1-.61-3.48c1.55-2.47.48-3.51.48-3.51A4.93,4.93,0,0,0,86.71,38Z"/><path d="M65.09,26.38a1.47,1.47,0,1,0-1.46-1.46A1.46,1.46,0,0,0,65.09,26.38Z"/><path d="M26.72,24.92a1.47,1.47,0,1,0-1.47,1.46A1.47,1.47,0,0,0,26.72,24.92Z"/><path d="M25.25,63.29a1.47,1.47,0,1,0,1.47,1.46A1.46,1.46,0,0,0,25.25,63.29Z"/><path d="M63.63,64.75a1.46,1.46,0,1,0,1.46-1.46A1.46,1.46,0,0,0,63.63,64.75Z"/><path d="M45.29,48.13a3.41,3.41,0,1,0-3.41-3.41A3.41,3.41,0,0,0,45.29,48.13Z"/><path d="M30.33,34.05c3.19,3.19,9.57,6.06,9.57,6.06s-2.86-6.38-6-9.58-5.51-2-5.51-2S27.14,30.86,30.33,34.05Z"/><path d="M33.94,59.78C37.13,56.59,40,50.21,40,50.21s-6.38,2.86-9.57,6.06-2,5.5-2,5.5S30.74,63,33.94,59.78Z"/><path d="M59.67,56.18c-3.19-3.2-9.57-6.06-9.57-6.06s2.86,6.38,6,9.57,5.5,2,5.5,2S62.86,59.37,59.67,56.18Z"/><path d="M56.06,30.44C52.87,33.63,50,40,50,40s6.39-2.86,9.58-6,2-5.5,2-5.5S59.25,27.25,56.06,30.44Z"/><path d="M23.75,24.21s-3.58-2.25-6,.18c-2.15,2.15-.24,3.52-.24,3.52a1.64,1.64,0,0,0,2.4,0c.94-.94.15-1.61.15-1.61a.56.56,0,0,0-.82,0c-.42.42.31.85.31.85a.84.84,0,0,1-.85-.3c-.46-.46.09-.82.24-1s.76-.69,1.64.19a1.65,1.65,0,0,1-.19,2.3c-.3.31-1.57,1.64-3.39-.18s-.16-3.67.42-4.25S20.69,21.32,23.75,24.21Z"/><path d="M25.42,25.75s-.3.49-.94.09a3.05,3.05,0,0,0-1.42-.39s1.15-.85,1.79-.46S25.45,25.54,25.42,25.75Z"/><path d="M29.25,29.33,23,23.08a13,13,0,0,0-2.45-1.79c-.49-.06-.23-1.17-.23-1.17s1.12-.26,1.17.22a13.19,13.19,0,0,0,1.8,2.46l6.25,6.25Z"/><path d="M24.4,23.56s-2.25-3.58.18-6c2.16-2.15,3.52-.24,3.52-.24a1.63,1.63,0,0,1,0,2.4c-.94.94-1.61.15-1.61.15a.57.57,0,0,1,0-.82c.43-.43.85.3.85.3a.84.84,0,0,0-.3-.85c-.45-.45-.82.09-1,.25s-.7.75.18,1.63a1.67,1.67,0,0,0,2.31-.18c.3-.3,1.64-1.58-.18-3.4s-3.68-.15-4.25.43S21.52,20.49,24.4,23.56Z"/><path d="M26,25.23s.48-.3.09-.94a3,3,0,0,1-.4-1.43s-.85,1.16-.45,1.79S25.73,25.26,26,25.23Z"/><path d="M24.29,66.16s-2.25,3.58.18,6c2.15,2.15,3.52.24,3.52.24A1.64,1.64,0,0,0,28,70c-.94-.94-1.61-.15-1.61-.15a.57.57,0,0,0,0,.82c.43.43.85-.3.85-.3a.84.84,0,0,1-.3.85c-.46.45-.82-.09-1-.24s-.7-.76.18-1.64a1.66,1.66,0,0,1,2.3.18c.31.3,1.64,1.58-.18,3.4s-3.67.15-4.25-.43S21.4,69.23,24.29,66.16Z"/><path d="M25.83,64.49s.49.3.1.94a3,3,0,0,0-.4,1.43s-.85-1.15-.45-1.79S25.62,64.46,25.83,64.49Z"/><path d="M29.41,60.67l-6.25,6.25a12.77,12.77,0,0,0-1.79,2.46c-.06.48-1.17.22-1.17.22s-.26-1.11.23-1.17a13,13,0,0,0,2.45-1.79l6.25-6.25Z"/><path d="M23.64,65.52s-3.58,2.24-6-.19c-2.15-2.15-.24-3.51-.24-3.51a1.64,1.64,0,0,1,2.4,0c.94.94.15,1.61.15,1.61a.56.56,0,0,1-.82,0c-.43-.42.3-.85.3-.85a.84.84,0,0,0-.85.3c-.45.46.09.82.25,1s.76.69,1.63-.19a1.64,1.64,0,0,0-.18-2.3c-.3-.31-1.58-1.64-3.4.18s-.15,3.67.43,4.25S20.58,68.4,23.64,65.52Z"/><path d="M25.31,64s-.3-.49-.94-.09a3.11,3.11,0,0,1-1.43.39s1.16.85,1.79.46S25.34,64.18,25.31,64Z"/><path d="M66.24,65.63s3.58,2.24,6-.18c2.15-2.16.24-3.52.24-3.52a1.62,1.62,0,0,0-2.39,0c-.94.94-.16,1.6-.16,1.6a.56.56,0,0,0,.82,0c.43-.42-.3-.85-.3-.85a.84.84,0,0,1,.85.31c.46.45-.09.82-.24,1s-.76.7-1.64-.18a1.67,1.67,0,0,1,.18-2.31c.3-.3,1.58-1.64,3.4.18s.15,3.67-.42,4.25S69.31,68.51,66.24,65.63Z"/><path d="M64.57,64.08s.31-.48.94-.09a3,3,0,0,0,1.43.4s-1.15.84-1.79.45S64.54,64.29,64.57,64.08Z"/><path d="M60.75,60.5,67,66.75a12.77,12.77,0,0,0,2.46,1.79c.48.06.22,1.17.22,1.17s-1.11.27-1.17-.22A12.77,12.77,0,0,0,66.72,67l-6.25-6.25Z"/><path d="M65.6,66.27s2.24,3.58-.19,6c-2.15,2.16-3.52.25-3.52.25a1.64,1.64,0,0,1,0-2.4c.94-.94,1.61-.15,1.61-.15a.56.56,0,0,1,0,.82c-.42.42-.85-.31-.85-.31a.84.84,0,0,0,.31.85c.45.46.82-.09,1-.24s.7-.76-.18-1.64a1.67,1.67,0,0,0-2.31.18c-.3.31-1.64,1.58.18,3.4s3.67.15,4.25-.43S68.48,69.34,65.6,66.27Z"/><path d="M64.05,64.6s-.49.31-.09,1A3.05,3.05,0,0,1,64.35,67s.85-1.15.46-1.79S64.26,64.57,64.05,64.6Z"/><path d="M65.71,23.67s2.25-3.58-.18-6c-2.16-2.15-3.52-.24-3.52-.24a1.63,1.63,0,0,0,0,2.4c.94.94,1.61.15,1.61.15a.56.56,0,0,0,0-.82c-.43-.42-.86.3-.86.3a.82.82,0,0,1,.31-.84c.45-.46.82.09,1,.24s.7.76-.18,1.64a1.66,1.66,0,0,1-2.31-.19c-.3-.3-1.64-1.57.18-3.4s3.67-.15,4.25.43S68.59,20.61,65.71,23.67Z"/><path d="M64.16,25.34s-.48-.3-.09-.94a3,3,0,0,0,.4-1.42s.85,1.15.45,1.79S64.37,25.37,64.16,25.34Z"/><path d="M60.58,29.17l6.25-6.26a13,13,0,0,0,1.79-2.45c.06-.49,1.18-.23,1.18-.23s.26,1.11-.23,1.17a13.55,13.55,0,0,0-2.46,1.79l-6.25,6.26Z"/><path d="M66.36,24.32s3.58-2.25,6,.18c2.16,2.15.25,3.52.25,3.52a1.63,1.63,0,0,1-2.4,0c-.94-.94-.15-1.61-.15-1.61a.56.56,0,0,1,.82,0c.42.43-.31.85-.31.85a.84.84,0,0,0,.85-.3c.46-.46-.09-.82-.24-1s-.76-.7-1.64.18a1.67,1.67,0,0,0,.18,2.31c.31.3,1.58,1.63,3.4-.19s.15-3.67-.42-4.25S69.42,21.44,66.36,24.32Z"/><path d="M64.69,25.86s.3.49.94.1a3,3,0,0,1,1.42-.4s-1.15-.85-1.79-.45S64.66,25.65,64.69,25.86Z"/></g></g></svg>