<svg xmlns="http://www.w3.org/2000/svg" viewBox="0 0 657.7 20.3"><defs><style>.cls-1{fill:#c1401f;}</style></defs><title>ObraIntro4</title><g id="Layer_2" data-name="Layer 2"><g id="ornamentos"><path class="cls-1" d="M227,19.77h-4.15l-1-2.65,6.72-6a9.34,9.34,0,0,0-6.27-4.23v-5l2.61-.63c3.09,2.66,5.27,6.2,9.39,7.25v4.15Z"/><path class="cls-1" d="M233.85,5c1.88-1.35,2.57-3.07,4.11-3.34a7.32,7.32,0,0,1,2,.87c2.16,2,4.25,4.16,6.31,6.19v4l-7,7h-2c-1.69-1.23-.73-3-1.1-5.14l5.95-3.38Z"/><path class="cls-1" d="M570.32,4.84l.12-2c1.28-1.64,3.11-.41,4.71-1.08l7.11,8v3.41c-2.87,2.12-4.7,5.94-8.5,7.08-2.19-1.38-1.18-3.21-1.45-4.71.8-2.48,4.43-3.13,4-6.37C574,8.16,571.72,7.11,570.32,4.84Z"/><path class="cls-1" d="M209.9,11.32c-3.43,1.83-3.53,6.13-6.74,8.45h-4.7q-.28-1.44-.54-2.7l5.79-5.75A5.29,5.29,0,0,0,203,10c-1.6-1.67-3.38-3.19-4.82-5-.41-.51.1-1.75.2-2.85l4-.21a7.75,7.75,0,0,1,3.72,4.15C206.74,7.79,208.31,9.17,209.9,11.32Z"/><path class="cls-1" d="M110.26,12.83c-2.44,2.44-4.78,4.79-7.35,7.35-.69-.27-2.06-.39-2.31-1-.47-1.15-.32-2.55-.46-4.29L105.06,11l-4.92-3.86c.39-2-.56-3.84,1.08-5.07.21-.17.63-.06,1-.08s.81-.15,1,0c2.34,2.36,4.63,4.76,7.11,7.34Z"/><path class="cls-1" d="M288.86,1.69,296.26,9v3.84l-7,7.2c-2.82-.4-2.83-.4-3-2.66,0-.66,0-1.33,0-2,1.42-1.64,2.86-3.32,4.54-5.28a15.74,15.74,0,0,0-2.09-2c-.49-.32-1.35-.1-1.79-.45A30.53,30.53,0,0,1,284.23,5C285.73,3.89,286.42,2.17,288.86,1.69Z"/><path class="cls-1" d="M476.32,9.26c-2.05-1.33-4.63-1.94-6-4.3,1.26-1,2-2.55,3.51-3,.84.26,1.58.27,2,.65,2.16,2.05,4.25,4.2,6.42,6.37v4l-7.41,7-2.37-.36c-.08-1.48-.14-2.75-.2-3.86C473,13.05,476.77,12.51,476.32,9.26Z"/><path class="cls-1" d="M122.26,13l-6.78,6.69c-2.66-.23-2.68-.23-2.89-2.24-.07-.63,0-1.27,0-2.9l3.69-2.28V8.48l-2.91-.57c-.88-.82-.88-.82-.38-5.09a2.23,2.23,0,0,1,3.26.2c2,2,4.06,4,6,6Z"/><path class="cls-1" d="M149.33,8.66c1.17-3.94-.53-6.55,2.36-6.87.75,0,1.23-.14,1.4,0,2.41,2.35,4.77,4.73,7.17,7.13v4.18l-7.33,7a12,12,0,0,1-1.65.08c-.27,0-.52-.34-1-.69V14.8c.68-1.65,4.69.56,3.48-4.23Z"/><path class="cls-1" d="M140.63,20.08c-1.92-.44-4.55,1.13-4.6-2.71,1.23-2.38,4-3.76,5.72-6.33l-5.5-4.86c-.56-3.3.16-4.4,1.95-4.22l9.44,9.44c-.31.81-2.37,1.5-1.53,3.63Z"/><path class="cls-1" d="M129.88,19.77h-4.83c-1-1.31-1.21-2.48,0-3.53s2.51-2,3.15-2.57c.49-3.85-2.26-4.6-3.53-6.41-.28-1.8-1.13-3.71.65-5.28.19-.16.63,0,1,0s.8-.15,1,0c2.29,2.33,4.54,4.7,7,7.31v3.9l-3.67,3.1Z"/><path class="cls-1" d="M645.64,3.5,648.55.39c.29-.07.65-.25.74-.16,2.82,2.78,5.61,5.58,8.41,8.38-1.6,3.34-3.14,6.73-6.86,9.16h-4.06c-1-1.28-1.18-2.4,0-3.53l4.9-4.9C651.6,5.63,647.05,6.9,645.64,3.5Z"/><path class="cls-1" d="M260.39,10.57l-6.13,6.12c-.21,1-.41,1.95-.64,3.08h-5c-1.51-1.43-.43-3.25-.79-4.83,2.08-1.34,4.86-1.73,6-4.36l-6.16-6.15.74-2.66h5c.21.78.45,1.7,1.14,4.24Z"/><path class="cls-1" d="M60.54,10c.94,2.81-2.54,4.65-2.61,7.55L51.45,20.3c-2-1.65-.7-3.48-1.46-5.09l4.27-2V8.65l-4-3.32V2.62l2.43-.87Z"/><path class="cls-1" d="M552.28,9.66,545.45,3.4,549,.31c1.15.31,1.87,1.82,3.69,1.82,2.06,0,.75,2.75,2.12,3.77a28.1,28.1,0,0,1,3.25,3.18c-.16,1,0,1.83-.4,2.2-2.72,2.84-5.53,5.6-8.94,9L545.92,16Z"/><path class="cls-1" d="M584,5.49c.14-1.4.2-2,.26-2.67,1.32-1.52,3.09-.48,4.92-.88.78,4,4.21,6.1,6.57,8.77l-8.65,8.62-3-2c.12-4.82,3.85-4.62,6.46-6.68Z"/><path class="cls-1" d="M546.35,10.69,537,20l-3-2.61c-.08-4.86,3.62-4.74,5.82-6.24,0-.64.11-1.28.17-1.93C538,8,535.4,7.3,534,5V3c1.23-1.68,3-.72,4.56-1C542.52,3.65,541.91,9,546.35,10.69Z"/><path class="cls-1" d="M532.26,9.8v3L524.64,20l-2.24-.31c-.08-1.49-.15-2.77-.21-3.88.83-3.17,3.83-3.27,5.88-4.59-1.05-2.66-3.89-2.85-5.81-4.26V2.71L525,1.78Z"/><path class="cls-1" d="M487.24,14l3-3.12-6-5V3c1.28-1.69,3.07-.67,4.58-1,3.89,1.68,3.23,7.06,6.89,8.38l-9.17,9.18-2.24-2.07C484,14.28,485.23,13.71,487.24,14Z"/><path class="cls-1" d="M412,19.9l-1.36-.3c-1.12-1.47-.39-3.13-.51-5.52l3.81-2.65c.55-4.14-3.71-4.41-3.83-6.47-.19-2.55.85-3,1.77-3L420,10.13c0-.2,0,1.09.08,1.71C417.2,14.7,414.68,17.21,412,19.9Z"/><path class="cls-1" d="M352.82,10l-4.57-5.32c0-1.35,0-2.74,2.12-2.68.14,0,.62-.15.78,0,2.34,2.36,4.63,4.77,7.11,7.35v3.44l-7,7.2c-2.81-.4-2.82-.4-3-2.68,0-.66,0-1.33,0-2Z"/><path class="cls-1" d="M337.25,1.17a18.31,18.31,0,0,1,8.3,10.19c-.48,1.74-3.94,2.45-3.51,5.5-1.61,1.3-2.36,4.25-5.46,2.72-1.25-1.39-.07-3.11-.63-4.49l3.76-3.75c-.18-1.69-1.87-2.25-2.78-3.4a31.64,31.64,0,0,0-2.63-2.66C335.22,4,336.13,2.72,337.25,1.17Z"/><path class="cls-1" d="M322.26,7.27V2.41L325,2l8.79,8.79c-1.43,3.29-6.07,4.54-6.07,9h-5.12c-.2-.76-.45-1.65-.9-3.3l6.44-5.08C326.77,8.53,324.35,8.28,322.26,7.27Z"/><path class="cls-1" d="M301.08,20l-2.17-.13c-1.59-1.29-.56-3.09-.86-4.58.56-1.65,2.2-1,3.19-1.58a30.21,30.21,0,0,0,3.58-3.12L298.13,4l.32-1.4c1.47-1.11,3.13-.39,4.68-.47,3,1.39,2.75,5,4.8,7.07.67.68.11,2.55.11,3.42Z"/><path class="cls-1" d="M283.85,11l-5.51,5.52c-.35,1.13-.71,2.26-1,3.23h-4.58l-1-3.18,6.58-5.54c-1.28-1.28-2.22-2.21-3-3l-3-.61V2.25l2.34-.49Z"/><path class="cls-1" d="M260.82,1.77H265c1.09,4,4.44,6.18,7,9.05-1.38,1.37-2.59,3.13-4.26,4-2.11,1.18-1,3.77-2.73,4.9h-4.2l-1-2.43c2.3-2.11,4.47-4.09,7.14-6.55l-7.15-6.52Z"/><path class="cls-1" d="M215.3,19.77h-4.87c-.17-1.05-.32-1.95-.46-2.75l5.38-5.38L210,6.29,213.09,2c3-.12,4.6,1.86,4.75,3.34.3,2.84,2.69,3.56,4.14,5.71a34.19,34.19,0,0,1-3.89,3.81C216.34,16.06,216.25,18.05,215.3,19.77Z"/><path class="cls-1" d="M173.79,16.72c1.47-1.17,3.06-2.42,4.25-3.35.46-3.67-2.53-4.34-3.78-6.22V2.4l2.06-.61a9.18,9.18,0,0,1,1.66.92c2.3,2,4.55,4,6.28,5.59v3.39l-8.39,8.41-1.45-.22C174.26,19.05,174.07,18.12,173.79,16.72Z"/><path class="cls-1" d="M164.85,20.2a17.54,17.54,0,0,0-3.59-.8V14.7c1.67-1.61,5.58.55,4.4-4.12-.83-.36-2.7-1.17-3.4-1.5V2.39c1-.13,2.21-.69,2.74-.3,3.36,2.5,5.45,6,7.05,9.92-.16,2.13-2.23,2.93-3.43,4.37C167.58,17.63,166.33,18.72,164.85,20.2Z"/><path class="cls-1" d="M66.53,3.38l5.73,5.74v5.67c-1.49.89-3.06,1.7-4.48,2.72s-2.26,3.26-4.62,1.75c-1-1.42-.35-3-.4-4.68l3.5-1.21V8.8c-.72-1.35-4.05.2-3.47-3.8Z"/><path class="cls-1" d="M561.07,1.77h2l7.14,7.14v3.88l-3.67,3.68-5.51,3.11c-1.51-1.23-.47-3-.81-4.66l4-4.24c.55-3.3-3.18-3.9-4.09-6.6Z"/><path class="cls-1" d="M422.26,7.59V2.67l2-.66a6.34,6.34,0,0,1,1.64.84C428,4.91,430.08,7,432.06,9v3.25a9.09,9.09,0,0,1-.9,1.62c-2,2.24-3.94,4.44-5.56,6.24l-2.82-.35c-1.56-1.34-.16-3.17-.89-4.56,2.1-1.54,4.94-1.73,6-4.38l-2.64-2.64Z"/><path class="cls-1" d="M38.26,20.25V14.56l4.93-3.43L35.67,5.44,39.15,2c3,3,6,6.05,8.93,9.1.16.17,0,.64,0,1C42.42,19.07,42.42,19.07,38.26,20.25Z"/><path class="cls-1" d="M317,11.22l-7-6.15.21-2.25c1.31-1.52,3.08-.48,4.56-.8,1.59.59,1.1,2.11,1.47,3.21l5.47,5.46-9.4,9.36c-1.05.16-2.53,0-2.34-1.91Z"/><path class="cls-1" d="M76.89,20.08c-2.47.23-2.67-1-2.8-2.68l7.23-5.93C77.81,10.15,75.57,9,74.26,6.84V2.5l2.84-.8,7.16,7.71v3.72Z"/><path class="cls-1" d="M373,1.77h1.67l9.07,8.75c-3.09,3.09-6.1,6.12-9.21,9.25-1.1,0-2.48.12-2.54-2.28,1-2.76,4.2-4.19,5.86-6.87L375.23,8l-2.79-.56C372.08,4.24,372.13,4.25,373,1.77Z"/><path class="cls-1" d="M596.11,17.12c1.91-2.44,4.52-4.35,6-6.24C602,9.6,602.13,9.15,602,9c-1.85-1.91-3.74-3.78-6.16-6.2l3.4-1.65-.63-.64c.23-.08.6-.3.68-.22,3,3,6.07,6,8.9,8.86-.25,1.08-.18,1.88-.55,2.27-2.77,2.88-5.62,5.68-8.52,8.57Z"/><path class="cls-1" d="M362.57,2l9.1,8.87L362.52,20l-1.66-.16c-.78-.78-.78-.78-.82-4.62,2.13-1.2,4.59-2,6.32-4.83L360,4.57c.11-.64.22-1.26.37-2.18Z"/><path class="cls-1" d="M435.17,13.77h2.22l3.27-3.3-6.06-4.7c-.53-3.37.44-4.23,2.55-4,.66.06,1.33,0,1.92,0,1.65.58,1.15,2.11,1.53,3.21,1.19,1.19,2.36,2.37,3.66,3.66v3.81l-7.38,7-2.66-3.23C434.54,15.41,434.87,14.55,435.17,13.77Z"/><path class="cls-1" d="M512.77,1.92c2.53,2.53,4.88,4.87,7.28,7.28.34,2.75-2.79,3.47-3.47,5.45A10.58,10.58,0,0,1,512.87,20l-2-.12c-1.59-1.3-.55-3.09-.89-4.73l4-4.24c.55-3.3-3.18-3.9-4-6.33.1-.63.19-1.25.34-2.19Z"/><path class="cls-1" d="M97.9,12.24s0,.93-.37,1.17a11.65,11.65,0,0,1-2.82.93l-5.9,5.89-2.39-4.72A4.15,4.15,0,0,0,89.07,14a36.07,36.07,0,0,1,3-3l-6-5.09c0-1.64-.26-2.57.06-2.89a4.56,4.56,0,0,1,1.65-.88Z"/><path class="cls-1" d="M625.25,7.77H623C622,6,618.69,5.29,620.75,1.93l2.93-.18,8.4,8.4c-1.47,2.83-4.78,5-7.28,7.94l-2.72-1.16c-.6-3.55,3.13-4.15,4-6.85Z"/><path class="cls-1" d="M196.26,8.44v3.23L188,20c-.48,0-1.85,0-1.67-2.68l4-4.61V9.22l-4-4.4c-.11-2.07.55-2.93,2.17-2.82.37.07.77,0,1,.2C191.87,4.41,194.3,6.65,196.26,8.44Z"/><path class="cls-1" d="M498.29,5c.35-1.54-.69-3.29,1-5,2.48,2.48,5,5,7.43,7.45a25.1,25.1,0,0,1,1.62,2c-.17,3-2.86,3.76-4.07,5.7v2l-5.78,2.81c-.1-1.74-.18-3-.27-4.62l4.1-4.53C502.26,7.57,499.56,6.82,498.29,5Z"/><path class="cls-1" d="M10.26,12.77l-7,7H1.05L0,17,7.37,11l-7-7c0-.21.12-.71.24-1.46l2.57-.83,7.13,7.11Z"/><path class="cls-1" d="M24.26,6.71V2.45l2.39-.91,7.61,8v3.92c-1.87,1.71-4.32,4-6.8,6.21-.2.19-.61.14-1,.21-1.63.11-2.3-.77-2.16-3.45l4.49-2.66h.8l.84-2.45C29.1,8.54,26.52,7.85,24.26,6.71Z"/><path class="cls-1" d="M634.57,17.77c-.2-1.34-.3-2-.42-2.7l4.13-4.77c-.45-3-3.08-3.78-4-5.62v-4c1.15-1.55,1.52,0,2.21.34.85.37,1.74.64,3,1.09,0,3.12,3.22,4.79,4.95,6.89-.46,1.23-.53,2-.92,2.36-2.06,2.17-4.21,4.26-6.32,6.38Z"/><path class="cls-1" d="M448,4.87c-.06-1.95.39-3,2.15-2.87a6.26,6.26,0,0,1,1.65.85C454,4.91,456.06,7,458.06,9c-.08.87.11,1.74-.24,2.12-1.79,2-3.73,3.8-5.57,5.65l-.65,2.94-2.65.18c-1.62-1.51-.56-3.28-.91-4.82l4-4.2C452.47,7.53,448.78,6.91,448,4.87Z"/><path class="cls-1" d="M398,15l5.34-3.07c.26-.68.49-1,.42-1.13C402,8.91,400.07,7,398.19,5.16c-.39-1.84-.3-3.33,1.5-3.2l8.14,8.1a17.69,17.69,0,0,1-7.23,10l-1.88-.31C397.35,18.31,398.39,16.55,398,15Z"/><path class="cls-1" d="M387,19.93l-2.81-2.81,6.79-6L384,4.19c0-.92,0-2.26,2.14-2.18.11,0,.58-.14.74,0,3,3,5.93,6.1,8.91,9.19Z"/><path class="cls-1" d="M470.26,8.34V13.5l-4.65,1.1-4.71,5c-1.23-1.23-.16-3-.65-5.08l4.05-3.21c.54-3.83-3.45-4.27-3.93-7-.08-1.54.58-2.4,2.19-2.29.37.07.78,0,1,.2C466,4.41,468.42,6.65,470.26,8.34Z"/><path class="cls-1" d="M11.52,5.53,14.6,2.45l8.62,8.63-9,9c-.84.18-2.35.15-2.16-3.09,1.61-1.63,3.67-3.66,5.47-5.48Z"/><path class="cls-1" d="M610.82,1.77H613l7.47,7.37a19.35,19.35,0,0,1-1.85,3c-1.78,2-3.72,3.77-5.56,5.61-1.61-.36-3.37.69-4.9-.93L614,10.66c.49-3.28-3.17-3.9-4.09-6.59C610.2,3.41,610.52,2.55,610.82,1.77Z"/></g></g></svg>