<svg xmlns="http://www.w3.org/2000/svg" viewBox="0 0 740.92 18.47"><defs><style>.cls-1{fill:#c1401f;}</style></defs><title>ObraQuote2B</title><g id="Layer_2" data-name="Layer 2"><g id="bloques"><path class="cls-1" d="M238,15.3l-6.1-6.11L238,3.07V1l1.64-1c3.64.38,4.65,3.13,4.78,5.82l3.8.78v5.17l-3.28.67c-1.49,1.79-1.36,5-4.52,5.91C238.38,18.35,238.27,18.23,238,15.3Zm2.69-2.79c1.62-1.73,1.54-2.83.36-4.33l-2.79.43Z"/><path class="cls-1" d="M222.28,8.83c-.7,3.39-2.49,4-3.32,5.35s-1.37,2.69-2.15,4.26a8,8,0,0,1-2.61-1c-2.84-2.66-5.56-5.46-7.88-7.76l9-9c1,1.2,3.07,2.12,2.58,4.55ZM215,12.24c1.24-1.37,1.42-2.7,0-4.05-1.05.16-2.51-.61-2.75,1.27Z"/><path class="cls-1" d="M94.26,8.82c-.42,1.95-.38,2.36-.56,2.55C91.4,13.71,89.07,16,87,18.06c-1.94.46-2.77-.55-3.74-1.45-1.91-1.79-3.93-3.47-5.06-4.46-.65-2.78.35-3.61,1.26-4.58C81.27,5.66,83,3.64,83.94,2.51c2.78-.65,3.61.35,4.58,1.26C90.44,5.55,92.45,7.24,94.26,8.82ZM84.9,8.18c-1.42,1.35-1.47,2.69.18,4.12l3-.61-.73-3.51Z"/><path class="cls-1" d="M188.81,18.29l-2.55-.54L185.71,15,180.2,9.48A6,6,0,0,1,181,8.14c2.54-2.59,5.11-5.14,7.68-7.7a7,7,0,0,1,3.66,4.93c.37,1.59,2.53,2.76,3.7,3.93-.25,1.09-.19,1.88-.55,2.26C193.24,13.92,190.91,16.18,188.81,18.29Zm3.49-9a5.7,5.7,0,0,0-6.5-.22L188,11.31Z"/><path class="cls-1" d="M169.92,10.21c0,.43.05.87-.13,1-2.3,2.36-4.63,4.68-6.85,6.89-2.33.39-3.32-.46-2.93-3.44l-7.53-5.94c7.25.16,6.8-6.3,10.52-8.48,2.06,1.26,2.63,3.44,3.57,5.46C167.35,7.44,169.79,8.05,169.92,10.21Zm-7,2c1.24-1.37,1.42-2.7,0-4.05-1.05.16-2.51-.61-2.75,1.27Z"/><path class="cls-1" d="M136.91,2.19c1.32,0,1.79-.15,2,0,2.38,2.3,4.73,4.64,7,6.89.09,1.44.28,2.84-1.59,3.08-2.58.33-3.94,1.79-4.44,4.33-.15.72-1,1.29-1.45,1.83-1-.36-1.7-.42-2.1-.81-2.35-2.24-4.61-4.56-6.25-6.2-.38-2.75,1.12-3.29,1.95-4.2C133.75,5.24,135.63,3.47,136.91,2.19ZM136,12.48l3.95-.76c-.26-1.38-.47-2.5-.7-3.75L136,8.6Z"/><path class="cls-1" d="M58,17.43v-2.6l-6-4c-.36-2.47,1.93-3.19,3.1-4.69H57c1.9-.72,0-4.47,3.46-3.93.11,0,.53,0,.71.15,2.36,2.31,4.68,4.65,6.71,6.68.47,2-.55,2.86-1.5,3.78-1.88,1.83-3.72,3.71-5.62,5.61ZM62,7.9l-4,.75c.26,1.39.47,2.5.71,3.75L62,11.78Z"/><path class="cls-1" d="M112.57,18.23l-8.45-8.42c1.17-3.13,5.18-4.67,6.86-7.71,3.91.34,5.09,2.41,5.41,5.45L120,8.86v2.58A14.81,14.81,0,0,0,116.53,13a5.77,5.77,0,0,0-2.23,3C114,17.57,113.44,18.27,112.57,18.23Zm.34-6.05c1.42-1.35,1.47-2.68-.18-4.11l-3,.6.73,3.51Z"/><path class="cls-1" d="M29.86,12.69,26,11.44V8.94a13.5,13.5,0,0,0,3.33-1.19,6.68,6.68,0,0,0,2.56-2.83c.43-1.13-.05-2.63,1.87-2.73.56.16,1.31.15,1.7.53C37.79,4.94,40,7.24,41.89,9.1c.4,3.23-1.43,3.05-3,3.18-1.49,1.92-1.44,4.94-4.53,5.91C32.11,18.19,30.8,16.79,29.86,12.69ZM32,12.48l3.95-.76c-.26-1.38-.47-2.5-.7-3.75L32,8.6Z"/><path class="cls-1" d="M258,8.36l5.32-4.23c.75-2.23,1-3.1,1.32-3.95h2.19a27,27,0,0,1,2.74,4.69c.78,2.24,4.28,0,4.39,3.87-1.14,2.3-4.11,4-5.78,6.22l-.73,2.85Zm12.31,1A5.75,5.75,0,0,0,263.89,9c.15,1,.32,2.09.48,3.16h.3Z"/><path class="cls-1" d="M9.07,18c-4,.64-2.7-2.55-3.91-3.75a11.3,11.3,0,0,0-5-2.73C.1,10.71.05,9.82,0,9,4.5,7,4.5,7,7,2.18H9.33c1.06,1.64,2.23,3.45,3.39,5.26.54,1.44,3.31-.26,3.19,2.32,0,.51.13,1,0,1.15C13.68,13.69,11,15.92,9.07,18ZM10,7.9,6,8.65c.26,1.39.47,2.5.71,3.75L10,11.78Z"/><path class="cls-1" d="M522,15.3l-6.1-6.11L522,3.07V1l1.64-1c3.64.38,4.65,3.13,4.78,5.82l3.8.78v5.17l-3.28.67c-1.49,1.79-1.36,5-4.52,5.91C522.38,18.35,522.27,18.23,522,15.3Zm2.69-2.79c1.62-1.73,1.54-2.83.36-4.33l-2.79.43Z"/><path class="cls-1" d="M506.28,8.83c-.7,3.39-2.49,4-3.32,5.35s-1.37,2.69-2.15,4.26a8,8,0,0,1-2.61-1c-2.84-2.66-5.56-5.46-7.88-7.76l9-9c1,1.2,3.07,2.12,2.58,4.55ZM499,12.24c1.24-1.37,1.42-2.7,0-4.05-1.05.16-2.51-.61-2.75,1.27Z"/><path class="cls-1" d="M378.26,8.82c-.42,1.95-.38,2.36-.56,2.55-2.3,2.34-4.63,4.65-6.67,6.69-1.94.46-2.77-.55-3.74-1.45-1.91-1.79-3.93-3.47-5.06-4.46-.65-2.78.35-3.61,1.26-4.58,1.78-1.91,3.47-3.93,4.45-5.06,2.78-.65,3.61.35,4.58,1.26C374.44,5.55,376.45,7.24,378.26,8.82Zm-9.36-.64c-1.42,1.35-1.47,2.69.18,4.12l3-.61-.73-3.51Z"/><path class="cls-1" d="M472.81,18.29l-2.55-.54L469.71,15,464.2,9.48A6,6,0,0,1,465,8.14c2.54-2.59,5.11-5.14,7.68-7.7a7,7,0,0,1,3.66,4.93c.37,1.59,2.53,2.76,3.7,3.93-.25,1.09-.19,1.88-.55,2.26C477.24,13.92,474.91,16.18,472.81,18.29Zm3.49-9a5.7,5.7,0,0,0-6.5-.22L472,11.31Z"/><path class="cls-1" d="M453.92,10.21c-.05.43.05.87-.13,1-2.3,2.36-4.63,4.68-6.85,6.89-2.33.39-3.32-.46-2.93-3.44l-7.53-5.94c7.25.16,6.8-6.3,10.52-8.48,2.06,1.26,2.63,3.44,3.57,5.46C451.35,7.44,453.79,8.05,453.92,10.21Zm-7,2c1.24-1.37,1.42-2.7,0-4.05-1.05.16-2.51-.61-2.75,1.27Z"/><path class="cls-1" d="M420.91,2.19c1.32,0,1.79-.15,2,0,2.38,2.3,4.73,4.64,7,6.89.09,1.44.28,2.84-1.59,3.08-2.58.33-3.94,1.79-4.44,4.33-.15.72-1,1.29-1.45,1.83-1-.36-1.7-.42-2.1-.81-2.35-2.24-4.61-4.56-6.25-6.2-.38-2.75,1.12-3.29,1.95-4.2C417.75,5.24,419.63,3.47,420.91,2.19ZM420,12.48l3.95-.76c-.26-1.38-.47-2.5-.7-3.75L420,8.6Z"/><path class="cls-1" d="M342,17.43v-2.6l-6-4c-.36-2.47,1.93-3.19,3.1-4.69H341c1.9-.72-.05-4.47,3.46-3.93.11,0,.53,0,.71.15,2.36,2.31,4.68,4.65,6.71,6.68.47,2-.55,2.86-1.5,3.78-1.88,1.83-3.72,3.71-5.62,5.61Zm4-9.53-4,.75c.26,1.39.47,2.5.71,3.75l3.25-.62Z"/><path class="cls-1" d="M396.57,18.23l-8.45-8.42c1.17-3.13,5.18-4.67,6.86-7.71,3.91.34,5.09,2.41,5.41,5.45L404,8.86v2.58A14.81,14.81,0,0,0,400.53,13a5.77,5.77,0,0,0-2.23,3C398,17.57,397.44,18.27,396.57,18.23Zm.34-6.05c1.42-1.35,1.47-2.68-.18-4.11l-3,.6.73,3.51Z"/><path class="cls-1" d="M313.86,12.69,310,11.44V8.94a13.5,13.5,0,0,0,3.33-1.19,6.68,6.68,0,0,0,2.56-2.83c.43-1.13-.05-2.63,1.87-2.73.56.16,1.31.15,1.7.53,2.34,2.22,4.59,4.52,6.44,6.38.4,3.23-1.43,3.05-3,3.18-1.49,1.92-1.44,4.94-4.53,5.91C316.11,18.19,314.8,16.79,313.86,12.69Zm2.13-.21,3.95-.76c-.26-1.38-.47-2.5-.7-3.75L316,8.6Z"/><path class="cls-1" d="M542,8.36l5.32-4.23c.75-2.23,1-3.1,1.32-3.95h2.19a27,27,0,0,1,2.74,4.69c.78,2.24,4.28,0,4.39,3.87-1.14,2.3-4.11,4-5.78,6.22l-.73,2.85Zm12.31,1A5.75,5.75,0,0,0,547.89,9c.15,1,.32,2.09.48,3.16h.3Z"/><path class="cls-1" d="M293.07,18c-4,.64-2.7-2.55-3.91-3.75a11.3,11.3,0,0,0-5-2.73c0-.84-.09-1.73-.14-2.56,4.5-2,4.5-2,7-6.81h2.35c1.06,1.64,2.23,3.45,3.39,5.26.54,1.44,3.31-.26,3.19,2.32,0,.51.13,1,0,1.15C297.68,13.69,295,15.92,293.07,18ZM294,7.9l-4,.75c.26,1.39.47,2.5.71,3.75l3.25-.62Z"/><path class="cls-1" d="M665.26,8.82c-.42,1.95-.38,2.36-.56,2.55-2.3,2.34-4.63,4.65-6.67,6.69-1.94.46-2.77-.55-3.74-1.45-1.91-1.79-3.93-3.47-5.06-4.46-.65-2.78.35-3.61,1.26-4.58,1.78-1.91,3.47-3.93,4.45-5.06,2.78-.65,3.61.35,4.58,1.26C661.44,5.55,663.45,7.24,665.26,8.82Zm-9.36-.64c-1.42,1.35-1.47,2.69.18,4.12l3-.61-.73-3.51Z"/><path class="cls-1" d="M740.92,10.21c0,.43.05.87-.13,1-2.3,2.36-4.63,4.68-6.85,6.89-2.33.39-3.32-.46-2.93-3.44l-7.53-5.94c7.25.16,6.8-6.3,10.52-8.48,2.06,1.26,2.63,3.44,3.57,5.46C738.35,7.44,740.79,8.05,740.92,10.21Zm-7,2c1.24-1.37,1.42-2.7,0-4.05-1,.16-2.51-.61-2.75,1.27Z"/><path class="cls-1" d="M707.91,2.19c1.32,0,1.79-.15,2,0,2.38,2.3,4.73,4.64,7,6.89.09,1.44.28,2.84-1.59,3.08-2.58.33-3.94,1.79-4.44,4.33-.15.72-1,1.29-1.45,1.83-1-.36-1.7-.42-2.1-.81-2.35-2.24-4.61-4.56-6.25-6.2-.38-2.75,1.12-3.29,2-4.2C704.75,5.24,706.63,3.47,707.91,2.19ZM707,12.48l4-.76c-.26-1.38-.47-2.5-.7-3.75L707,8.6Z"/><path d="M629,17.43v-2.6l-6-4c-.36-2.47,1.93-3.19,3.1-4.69H628c1.9-.72-.05-4.47,3.46-3.93.11,0,.53,0,.71.15,2.36,2.31,4.68,4.65,6.71,6.68.47,2-.55,2.86-1.5,3.78-1.88,1.83-3.72,3.71-5.62,5.61Zm4-9.53-4,.75c.26,1.39.47,2.5.71,3.75l3.25-.62Z"/><path class="cls-1" d="M683.57,18.23l-8.45-8.42c1.17-3.13,5.18-4.67,6.86-7.71,3.91.34,5.09,2.41,5.41,5.45L691,8.86v2.58A14.81,14.81,0,0,0,687.53,13a5.77,5.77,0,0,0-2.23,3C685,17.57,684.44,18.27,683.57,18.23Zm.34-6.05c1.42-1.35,1.47-2.68-.18-4.11l-3,.6.73,3.51Z"/><path class="cls-1" d="M600.86,12.69,597,11.44V8.94a13.5,13.5,0,0,0,3.33-1.19,6.68,6.68,0,0,0,2.56-2.83c.43-1.13,0-2.63,1.87-2.73.56.16,1.31.15,1.7.53,2.34,2.22,4.59,4.52,6.44,6.38.4,3.23-1.43,3.05-3,3.18-1.49,1.92-1.44,4.94-4.53,5.91C603.11,18.19,601.8,16.79,600.86,12.69Zm2.13-.21,4-.76c-.26-1.38-.47-2.5-.7-3.75L603,8.6Z"/><path d="M580.07,18c-4,.64-2.7-2.55-3.91-3.75a11.3,11.3,0,0,0-5-2.73c0-.84-.09-1.73-.14-2.56,4.5-2,4.5-2,7-6.81h2.35c1.06,1.64,2.23,3.45,3.39,5.26.54,1.44,3.31-.26,3.19,2.32,0,.51.13,1,0,1.15C584.68,13.69,582,15.92,580.07,18ZM581,7.9l-4,.75c.26,1.39.47,2.5.71,3.75l3.25-.62Z"/></g></g></svg>