<svg xmlns="http://www.w3.org/2000/svg" viewBox="0 0 2414.33 63.16"><defs><style>.cls-1{fill:#c1401f;}</style></defs><title>ObraBarraFin</title><g id="Layer_2" data-name="Layer 2"><g id="ornamentos"><path class="cls-1" d="M2403.88,63.16h-1.17c-.36-.47-1.42-.51-2.05-1.13s-1.75-1.87-1.75-1.87h-.56c-.43-.38-.79-1-1.24-1-.64-.11-.88-.59-1.29-.89s-.63-.95-1.32-.82c-.06,0-.14-.1-.21-.15-.62-.49-1-1.32-1.85-1.49-.73-.14-.85-1.21-1.75-1.12-.12,0-.31-.17-.4-.31-1-1.42-2.76-2-3.87-3.29-.33-.38-1-.27-1.34-.78a8,8,0,0,0-1.07-1.1h-2.75c-.42.32-.82.84-1.32,1-.67.16-.79.83-1.65,1h-.16l-2,1.94c-.94-.14-1.11,1.22-2.06,1.06-.47.47-.87,1.14-1.43,1.36a3.2,3.2,0,0,0-1.52,1.12c-.38.51-1.08.38-1.4.87s-1.12.57-1.58,1-.68,1-1.29,1.08-1,.83-1.48,1.24-1,.38-1.42.84a5.34,5.34,0,0,1-1.41.87.53.53,0,0,1-.12-.78c.08-.14.35-.26.33-.35-.15-.78.53-1.31.57-2a4.25,4.25,0,0,0,0-.51l.5-.54v-.8c.14-.29.31-.64.5-1s.33-.53.5-.8c.1-.54-.19-1.1.21-1.66s.3-1,.58-1.49a1.43,1.43,0,0,0,.2-.92c0-.4.35-.53.45-.81a2.8,2.8,0,0,0,0-1l.53-.57v-1s.59-.4,1-.61v-1c0-.24.34-.52.29-.65-.28-.83.38-1.35.62-2a7.49,7.49,0,0,0,.58-1.71c.06-.45.5-.84.53-1.43a4.6,4.6,0,0,1,.65-1.46,3.39,3.39,0,0,1-1.06-.38,6.23,6.23,0,0,0-1.72-1.19,4.15,4.15,0,0,1-1.18-1.15c-.37-.42-1-.32-1.37-.74s-.77-1.33-1.69-1.22c-.46-.45-.89-.94-1.39-1.34-.32-.26-.77-.37-1.12-.61s-.69-.56-1.05-.81c-.21-.15-.47-.22-.68-.35-.6-.38-.84-1.22-1.67-1.32s-.85-1.19-1.75-1.13c-.2,0-.46-.28-.61-.49-1-1.32-2.64-1.85-3.71-3.1-.4-.48-1.33-.36-1.5-1.19.07-.06.14-.16.21-.17.46,0,1.38-.16,1.38-.16h23.48a14.33,14.33,0,0,0,.76-1.41V21.34c.24-.21,0-.63,0-.63V19.64l1-.62V18s.71-.45.7-.64a3.3,3.3,0,0,1,.54-1.73c.2-.44,0-1.06.5-1.46.14-.11.08-.51.09-.78s-.11-.7,0-.8c.7-.51.31-1.4.72-1.92a2.41,2.41,0,0,0,.39-1.23c.08-.41.55-.81.49-1.15-.14-.89.86-1.41.6-2.27a3,3,0,0,0,.63-1.95c.59-.35.42-.93.49-1.46,0-.23.31-.42.49-.67l.11-1.85.81-.06c.45.62.14,1.28.23,1.89a6.41,6.41,0,0,0,1.19.61V4l.36.36c.27.56-.08,1.34.63,1.73-.32.8.56,1.28.53,2.05,0,.61.77,1.06.47,1.79.55.39.4,1.22,1,1.58v2.78l.39.39c.23.26-.05.69.13.91.75,1,.84,2.2,1.48,3.44v1.62l1,.63v3.53c.13.08.27.23.4.23H2412l.55-.46c.53-.1,1.08,0,1.55-.05.29.46.25.73,0,1a1.85,1.85,0,0,1-1,.57c-.34.06-.6.79-.9.79-.93,0-1.12,1.22-2,1.15-.54.51-1,1.06-1.62,1.53a16.09,16.09,0,0,1-1.37.89,8,8,0,0,0-1.7,1.26c-.5.59-1.32.64-1.75,1.22s-1.13.55-1.59,1-.65,1-1.3,1.07-1,.84-1.47,1.25-.91.23-1.22.68a8.71,8.71,0,0,1-.93,1,1.89,1.89,0,0,0-1.33.77v2.41l1,.58v.75l.61.66c-.47,1,.61,1.57.63,2.47s.76,1.52.67,2.42c.93.49.06,1.82,1.09,2.27v.77l1,.61v5.48l2,3.49v.93a6,6,0,0,0,1,.61Zm-25.72-30.55c0,.39.72.56.72.56v1.49l-.87-.5h-1.41l-.48-1-.5,1.05c-.37-.52-.35-1.25-1.12-1.43-.29.62-.05,1.28-.11,1.91,0,.14.09.28.16.45a9.08,9.08,0,0,1,1.15.16c.09,0,.12.26.18.38l-1,.08.11,1,.9-.25v-.83l.86.5.39-2.09.39,2.09h.36v1.2a2.61,2.61,0,0,0,1.39.23c.06.16.09.42.18.44.33.08.39-.17.37-.44.09,0,.25,0,.26,0a4.51,4.51,0,0,1,1.5-2c.52-.23.75-.32,1-.44,0,0,0-.17,0-.26l-1.37-2.82a11.23,11.23,0,0,0-1.21.12c-.09,0-.13.29-.19.44-.38,0-.57.17-.55.55h-.56c0-.38-.17-.56-.49-.39-.12-.43-.08-.86-.56-.48A1.53,1.53,0,0,0,2378.16,32.61Zm6,2.22c-.59.89.1,1.88-.44,2.68l-.84-.46v2c.49.36,1.36.27,1.47,1.11l-.51.68c.24.37-.2.9.25,1.08l1.46-1.2-.6-.87.55-1-.95-.37c-.32-.78.12-1.36.5-2C2384.76,36,2384.48,35.43,2384.16,34.83ZM2372.3,38.1c.44-.36.34-1.08.88-1.36,0,0,0-.18,0-.26a5.36,5.36,0,0,0-.24-.48l-.94.79C2372.24,37.21,2371.84,37.69,2372.3,38.1Zm13.16-3.9.35,0c0-.24.08-.49.09-.74,0-.06-.14-.18-.18-.17s-.35.12-.35.19A3.74,3.74,0,0,0,2385.46,34.2Zm-4.56,3.13c.49.34.84.51,1.09-.16A.83.83,0,0,0,2380.9,37.33Zm4.73-6.93a.66.66,0,0,0,0,1.11A.66.66,0,0,0,2385.63,30.4Zm-7.19.56a.67.67,0,0,0,0-1.11A.66.66,0,0,0,2378.44,31Zm4.07,1.46-.2-.36c-.06.06-.18.14-.17.18a1.76,1.76,0,0,0,.17.37Zm-4.43,6.08-.2-.35c-.06.06-.18.13-.17.18a1.76,1.76,0,0,0,.17.37Zm-7.66,6.56c-.07-.06-.14-.18-.19-.17a2,2,0,0,0-.37.17c.06.06.14.18.18.17A2.11,2.11,0,0,0,2370.42,45.06ZM2389,41.94l.19-.2a1.76,1.76,0,0,0-.37-.17s-.12.11-.18.17Zm-2.57-1.3c-.06-.07-.14-.19-.18-.18a1.64,1.64,0,0,0-.38.18c.07.06.14.18.19.17A1.76,1.76,0,0,0,2386.46,40.64Zm-9.05-.36.2-.2a2,2,0,0,0-.37-.17s-.12.11-.19.17Zm5.53.55.2-.19a1.41,1.41,0,0,0-.37-.18c-.05,0-.12.11-.18.18Zm-11.5-3.43-.19-.36c-.07.06-.19.14-.18.18a1.41,1.41,0,0,0,.18.37Zm-1.3-.36c-.06.06-.18.14-.17.18a1.76,1.76,0,0,0,.17.37c.06-.06.18-.13.17-.18A1.76,1.76,0,0,0,2370.14,37Zm12.17-27.66c-.06.06-.18.14-.17.18a1.76,1.76,0,0,0,.17.37c.06-.06.18-.13.17-.18A1.76,1.76,0,0,0,2382.31,9.38Zm.75,5.18-.2-.2a1.76,1.76,0,0,0-.17.37s.11.12.17.18Zm-7.31,12-.36.2c.07.06.14.18.19.17a2,2,0,0,0,.37-.17Zm1.11,2.77-.36.19c.06.06.14.19.18.18a1.81,1.81,0,0,0,.37-.18Zm12.44,1.22.2.36c.06-.07.18-.14.17-.19a1.76,1.76,0,0,0-.17-.37Zm2.06.55-.2-.19a1.76,1.76,0,0,0-.17.37s.11.12.17.18Zm-1.11,2.77-.2-.2a1.76,1.76,0,0,0-.17.37s.11.12.17.18Zm-2.13-.48c-.06-.06-.14-.18-.18-.17a2.11,2.11,0,0,0-.38.17c.07.07.14.19.19.18A1.57,1.57,0,0,0,2388.12,33.44Z"/><path class="cls-1" d="M.28,40.58l0-8.34a33.29,33.29,0,0,1,6-1.26c5.64-.21,11.33-.18,17-.17q112.68.17,225.35.33c4.66,0,9.31-.42,14-.58,3.28-.12,6.58-.17,9.88-.16q107,.13,214,.3,60.22.11,120.45.3c16.3,0,32.59-.12,48.83-.77.94,0,1.89-.07,2.83,0,7,.24,14,.77,20.92.66s13.74-.85,21-.22c4.87.42,10.19-.31,15.3-.31q160.86.24,321.72.5c10.31,0,20.73.69,30.94-.64a32.84,32.84,0,0,1,5.52.26,37,37,0,0,0,5.55.36c9.54-1,19.27.64,28.87-.51,4-.48,8.45-.14,12.7-.13l141.73.29q124.7.26,249.39.51,114.8.25,229.59.59c39.68.1,79.35.1,119,.3,7.94,0,15.77-.46,23.74-.38,6.34.05,12.87.82,19.28-.33,1.87-.33,4.57.23,6.88.38a31.66,31.66,0,0,0,5.55.32c10.21-1.4,20.65-.64,30.94-.64q80.08.06,160.16.37l6.1,0,7.27,3-4.78,1.65c-5.35.12-10.29-1-15.55-.08-2.3.39-5.46-.26-8.24-.39s-6-.64-8.35-.21c-6.53,1.19-13,.43-19.37.16-5.68-.24-11.16-.16-16.77,0-7.47.26-15,.34-22.49.34-21.26,0-42.54.21-63.77-.22-19.2-.39-38.34.18-57.51,0-19.84-.22-39.68-.2-59.52-.25-19.37,0-38.74,0-58.11-.07s-38.74-.1-58.11-.15L1565.21,35c-7.89,0-15.74-.41-23.67-.14-7.51.25-15.11.07-22.66.07q-12,0-24.09,0c-8,0-16.06-.08-24.09-.1-7.56,0-15.12,0-22.68,0q-12,0-24.09-.09-85.73-.26-171.44-.49-72.93-.16-145.86-.18c-3.73,0-7.55.57-11.16.34a35.85,35.85,0,0,0-9.52.32,15.37,15.37,0,0,1-4.19.1c-11-1.15-22.21.42-33.22-.56-10.73.92-21.57.37-32.36.37q-103.45-.09-206.91-.26c-35.9-.06-71.81-.5-107.68-.17-15.2.13-30.45.06-45.72.55-20.66.66-41.56.32-62.32-.1-7.53-.15-14.84.38-22.3.28-17-.22-34-.09-51-.15-5.64,0-11.41.07-16.89-.41-5.64-.49-10.77.61-16.31.33s-11.31,0-17,0-11.34,0-17,0l-104.88-.15c-5.15,0-10.29.3-15.4.47-7.81.28-15.78.3-23.7.28Q178,35,46.87,34.85c-11.81,0-23.62-.06-35.43,0a48.31,48.31,0,0,0-4.9.46C6.26,36.74,8,37.05,10,37.06q21.24.11,42.5.13,90,.14,180,.27c7.52,0,15,.16,22.53-.6,4.5-.46,9.41-.16,14.13-.15q89.28.16,178.57.34,85,.15,170,.21c5.14,0,10.31-.59,15.42-.46,5.51.15,11-.71,16.55.15a35.18,35.18,0,0,0,9.5.16c8.3-1.19,16.68-.22,25-.39,9.27-.19,18.64-.22,28-.1s18.89.05,28.34.06l28.35,0,28.35,0q73.67.14,147.33.28c31.18,0,62.35-.05,93.52.13,12.19.07,24.37-.2,36.56,0,5.51.07,10.94-1.25,16.58-.27,5.2-1,10.16.2,15.22.31,4.62.11,9.38-.81,13.94-.61,9.87.43,19.65-.2,29.49,0,9.43.17,18.89.1,28.34.12q92.1.18,184.2.35,113.36.22,226.7.49l259.35.62c22.67.06,45.35.15,68,.13,6.09,0,12.34-.84,18.2-.41,5.68.41,11.27.49,16.87.45,15.53-.12,31-.55,46.57-.62,19.37-.08,38.75.22,58.11.06,5.15,0,10.05.93,15.27.32a51.82,51.82,0,0,1,13.91.45c8.33-1.12,16.89-.46,25.34-.55,2.31,0,4.63.2,6.88.31a13.52,13.52,0,0,1,2.49,1.65c.26.29-.4.74-.74,1.26a25.66,25.66,0,0,1-3.72.52q-32.6,0-65.2-.1L1812.31,41c-9.85,0-19.69.13-29.55,0-8.77-.14-17.55.63-26.35.09-8.41-.53-16.85.3-25.29-.25-5.49-.36-10.84.73-16.67.12a100.6,100.6,0,0,0-16.65,0c-4.82.32-9.39-.75-14-.19-4.17.51-8.18,1-12.4.19-5.44,1.37-11-.76-16.56.13-5.06.8-10.23.24-15.33-.16-10.16,1.5-20.39-.35-30.65.07-9.74.4-19.61.2-29.41.22s-19.59-.32-29.42-.1-19.84,0-29.76,0L1489.13,41l-29.77-.08c-9.92,0-19.84,0-29.76-.07-5.11,0-10.27-.56-15.29-.35a125,125,0,0,1-14-.19c-4-.28-8.26.4-12.4.39q-64.48-.12-129-.32c-25,0-50.07,0-75.1-.06-60-.11-120-.33-179.94-.34-13.65,0-27.33-.5-41,.3-5,.29-10.27-.6-15.39-.52-8.8.13-17.65,0-26.39.78a45.6,45.6,0,0,1-9.84,0c-5.26-.71-10.43.58-15.26-.09-4.51-.62-9.32.69-13.44-.73-13.93,1.58-28.12.71-42.18.72-52.42,0-104.85-.16-157.28-.22q-53.13-.06-106.27,0c-3.28,0-6.63,0-9.83.32a156.77,156.77,0,0,1-25.27,0c-2.23-.17-4.57-.06-6.86,0-22.56.1-45.12.29-67.68.28q-102.75,0-205.49-.19c-17.39,0-34.69.82-52.12.76Q115.39,41,21.15,41.06C14.6,41.05,8,41.12.28,40.58Z"/><path class="cls-1" d="M2116.57,44.13l3.1,1.8-3,1.62c-2.52.07-5.3.22-8.08.22q-127.55-.26-255.08-.52-167.94-.39-335.87-.79-90.71-.21-181.39-.34c-20,0-39.94,0-59.9,0-7.37,0-14.78.77-22.17.21-6.91-.53-13.73.19-20.68,0-7.72-.23-15.63-.27-23.53.16s-16,.07-24.06,0l-24.09-.08q-12.06,0-24.1,0l-151.63-.18q-73.68-.09-147.35-.24c-14.5,0-29.1-.33-43.48.05-30.56.82-61.1.42-91.64.43q-94.95,0-189.91-.2c-23.07,0-46.16-.19-69.2.19-54.7.89-109.42.18-164.12.34-31.65.09-63.3-.11-95-.09-7,0-14.1-.2-21,.08s-13.89.09-20.76.57a46.28,46.28,0,0,1-5.65,0c-18.61-1-37.21.07-55.81-.11-18.89-.19-37.79,0-56.68-.07-6.14,0-12.28-.09-18.41-.16-3,0-5.46-.59-7.17-2.13L1.9,43.1c1.45-.16,2.3-.33,3.16-.34,11.51-.14,23-.07,34.52.35,5,.19,10-.55,15.11-.43,2.31,0,4.73-.13,6.89.14a31.42,31.42,0,0,0,9.68,0c5-.91,10.23.75,15.21-.27,11.69,1.31,23.33-.32,35,0s23.62.14,35.43.15l280.59.41c9.91,0,19.82.08,29.72.06,5.63,0,11.23.23,16.83-.6a59.49,59.49,0,0,1,9.85-.16c13.61.41,27.21,0,40.81.08s27.4.07,41.1.09q21.25,0,42.51,0l41.09,0,41.1,0q20.55,0,41.1.1,36.84.08,73.67.11c5.17,0,10.32-.26,15.48-.4a28.82,28.82,0,0,1,4.12-.1c7.47,1,14.9.7,22.35.05,12.94,1.41,25.81-.92,39,.12,8.55.67,17.65-.2,26.51-.19q161.55.22,323.09.49c7.52,0,15.09-.61,22.55-.37,7.08.23,14,.74,20.95-.23,7.83,1,15.58.22,23.43.08s15.86-.17,23.8-.16c6.93,0,13.71.86,20.74.51a136,136,0,0,1,17.92-.17c5.73.49,11,.06,16.52,0,5-.09,10.12.42,15.19.51,6.1.1,12.25.22,18.32,0,20.17-.71,40.31-.79,60.5-.05,4.61.17,9.31-.34,14-.33q80.77.18,161.55.48c8,0,16.07-.7,23.91.56,22.54-1.32,45.19-.26,67.78-.4,23.13-.14,46.28,0,69.42.06q34,.07,68,.15t68,.11q76.53.19,153.06.42C2112.86,44,2114.27,44.05,2116.57,44.13Z"/></g></g></svg>