<svg xmlns="http://www.w3.org/2000/svg" viewBox="0 0 639 42.25"><defs><style>.cls-1{fill:#c1401f;}</style></defs><title>ObraIntro3</title><g id="Layer_2" data-name="Layer 2"><g id="ornamentos"><path class="cls-1" d="M636.5,1.68l-3.16,2.15A3.59,3.59,0,0,1,632.82,0h-5.14L629,1.39,626.53,4.2a3.88,3.88,0,0,1-.8-4.2h-5.62a4.79,4.79,0,0,1-.36,3.79c-1.47-.16-2-1.6-3-2.31A16.4,16.4,0,0,0,618.15,0H612.8c.36.62.24,1.48-.23,4.4-1.29-1.29-2.1-2.09-3-3L611.18,0h-5.56c.43.81.3,1.54-.23,4.33l-2.88-2.88c.49-.5,1-1,1.45-1.45h-5.05c.37,1.12-.13,2.4-.25,3.76l-2.27.46A3.73,3.73,0,0,1,595.51,0H569l1.56,1.8-3.22,1.72A3.23,3.23,0,0,1,567.08,0H562l1.52,1.46c-1.21,1.11-2,1.84-2.67,2.46L558,1.49,559.52,0h-5c.51,1.14.31,2.61-.93,4.18l-2.69-3.11,2-1.07H547c.42.8.29,1.54-.23,4.31l-2.88-2.88L545.3,0h-6.45l1.27,1.36c-1,1.11-1.69,2-2.45,2.81A3.91,3.91,0,0,1,536.86,0h-5.47l1,2.2-1.68,1.68c-.92-1.34-1.1-1.6-.68-3.88H117.93c1.09,1.43,2.46,2,2.73,3.63l-3.54.65c.37-2,.55-2.95.81-4.28H0V.86C1.07.66,2,.71,3.23.49c.22,1.16.38,1.62.67,3.73H.45C.31,3.17.17,2.31,0,1.39V30.63H3.27c.17,1.06.33,1.75.55,2.94-1.1.21-2.1.42-3.33.65-.17-.91-.3-1.57-.49-2.57V38H3.27c.17,1.06.32,1.61.55,2.8-1.11.21-2.1.35-3.33.58-.17-.91-.3-1.64-.49-2.63v3.48H639V0h-4.18C635.29.48,635.83,1,636.5,1.68Zm-83,6.08c1.47,1.27,1.43,1.75.16,3.86h-2.16c-.18-1.06-.39-2-.65-3.22C552,8.16,552.78,7.9,553.48,7.76ZM551.4,18.45c-.24-1.15-.4-1.94-.55-2.65,1.27-1.46,2.6-1.42,3.65-.16V17.8C553.45,18,552.63,18.2,551.4,18.45Zm3.1,3.16v3.45c-1,.17-1.76.32-3,.55-.21-1.11-.36-2.1-.59-3.33C552.13,22.06,552.39,21.91,554.5,21.61ZM547,7.29c.22,1.17.37,2.22.67,3.27h-3.45a13,13,0,0,1-.55-2.76C544.78,7.59,545.78,7.53,547,7.29ZM546.53,18h-2.16c-.18-1.06-.39-1.71-.65-3,1.16-.23,1.95-.48,2.65-.62C547.84,15.66,547.79,16.9,546.53,18Zm.58,3.65v3.45c-1.06.17-1.62.32-2.81.55-.21-1.11-.43-2.1-.66-3.33C544.8,22.06,546.05,21.91,547.11,21.61Zm-.06,8a12.27,12.27,0,0,1,.55,2.67c-1.11.21-2.1.5-3.33.73-.22-1.16-.37-2.34-.67-3.4Zm-10.5-.23,2.89-.56c.2,1.11.39,2.1.62,3.33l-3.51.67Zm0-4.81V22.37c1.05-.18,2-.39,3.22-.64.23,1.15.34,1.94.48,2.65C539,25.84,537.6,25.8,536.55,24.53Zm0-16.37c1.05-.19,2-.39,3.22-.65.24,1.15.34,1.94.49,2.65-1.27,1.46-2.66,1.42-3.71.16Zm2.72,6.32c1.46,1.27,1.42,2.42.15,3.48h-2.15c-.19-1.06-.4-1.8-.65-3C537.77,14.69,538.56,14.62,539.27,14.48ZM532.91,8.2c-.28,1.44-1.6,2-2.74,3.37-.23-1.31-.41-2.29-.55-3.09C530.92,7.33,531.9,7.35,532.91,8.2Zm-.75,6.28c1.46,1.27,1.42,2.42.16,3.48h-2.16c-.19-1.06-.39-1.8-.65-3C530.66,14.69,531.45,14.62,532.16,14.48Zm-2,11.07c-.23-1.15-.35-1.94-.49-2.65,1.27-1.46,2.64-1.42,3.7-.15v2.16C532.32,25.09,531.41,25.3,530.17,25.55Zm2.73,6.6-2.48.38c-1-1.33-1.12-2.31.32-3.85ZM525.78,1.06c-.2,1.49-1.62,2-2.66,3.48-.27-1.36-.46-2.34-.62-3.13C523.76.21,524.74.27,525.78,1.06Zm-.73,6.69c1.47,1.27,1.42,1.76.16,3.87h-2.16c-.19-1.06-.39-2-.65-3.23C523.56,8.16,524.35,7.89,525.05,7.75ZM496.41,1.41V3.57c-1.05.19-2.14.39-3.38.65-.23-1.16-.26-1.95-.4-2.65C493.9.1,494.3.15,496.41,1.41Zm-1.05,14.22v2.16a12.8,12.8,0,0,1-2.86.64c-.23-1.15-.52-1.94-.67-2.65C493.1,14.32,494.3,14.36,495.36,15.63Zm.55,15.84c-1.27,1.46-2.67,1.42-3.72.16V29.47c1.05-.19,1.92-.39,3.15-.65C495.58,30,495.77,30.77,495.91,31.47ZM482,1.05c-1.19,1.28-2.11,2.15-3.39,3.47-.28-1.52-.43-2.31-.78-4.26Zm-3,27.86,2.46,2.64L479,34.37C477.54,32.47,477.53,30.72,479,28.91ZM479,21.8c.85.85,1.66,1.65,2.47,2.47-.22,1.67-1.51,1-2.44,1.12C477.69,24.2,477.85,23,479,21.8Zm2.91-11.32c-1.11.2-2.1.29-3.33.52-.22-1.16-.38-1.49-.67-3.61h3.45C481.48,8.45,481.63,9.28,481.86,10.48Zm-7.33-9.11c-1,.81-1.53,2.13-3.18,2.45-.15-.8-.3-1.59-.44-2.29C472.16.13,473.34.13,474.53,1.37ZM472.1,14.45c.71,1.14,1.4,2.23,2.16,3.46l-2.48.39C470.74,17,470.67,16,472.1,14.45Zm-.2-6.83q1.91,1.79,0,3.56Q470,9.41,471.9,7.62Zm.3,13.78c.27,1.35.47,2.33.62,3.12-1.26,1.2-2.24,1.14-3.28.35C469.74,23.39,471.16,22.88,472.2,21.4ZM457.56.42c1.4,1.25,1.39,2.42,0,3.75-.56-.63-1.15-1.23-1.67-1.89a10.05,10.05,0,0,1-.75-1.41Zm-7.14.07c1.46,1.27,1.42,2.68.16,3.73h-2.16c-.19-1-.39-1.92-.65-3.15C448.92.83,449.71.63,450.42.49ZM451,7.36v3.45c-1.06.17-1.54.32-2.74.55-.2-1.1-.47-2.1-.7-3.33C448.73,7.81,449.94,7.66,451,7.36Zm-.59,7.1c1.47,1.27,1.42,2.44.16,3.5h-2.16c-.18-1.06-.39-1.81-.65-3C448.92,14.68,449.71,14.61,450.41,14.46Zm.59,7.12V25l-2.89.55c-.21-1.11-.39-2.1-.63-3.33ZM440.43,1c1.06-.19,2.07-.39,3.31-.65.23,1.16.3,1.95.44,2.65-1.27,1.46-2.69,1.42-3.75.16Zm-10.66,0a11.23,11.23,0,0,1,.55,2.68c-1.1.21-2.09.5-3.32.73-.23-1.17-.38-2.36-.67-3.41ZM422.48.25V3.69a11.36,11.36,0,0,1-2.69.55c-.21-1.1-.49-2.09-.72-3.32C420.23.69,421.42.54,422.48.25Zm-2.1,21.6,2.41,2.41c-1.53,1.14-1.53,1.17-4.81.54C418.26,23.39,419.59,22.83,420.38,21.85Zm.08-7.23c.56.62,1.14,1.23,1.66,1.88a9.49,9.49,0,0,1,.76,1.41l-2.4.46C419.08,17.12,419.08,16,420.46,14.62ZM406.64.24V3.69l-2.89.55c-.21-1.11-.39-2.1-.63-3.33Zm-6.34,0V3.69l-2.89.55c-.21-1.11-.39-2.1-.62-3.33Zm-7.39,0c0,1.65,0,2.44,0,3.44L390,4.23c-.21-1.1-.4-2.09-.63-3.32Zm-.46,7.15c.18.91.33,1.7.55,2.89l-3.32.63c-.23-1.17-.38-2-.67-3.52Zm-.68,23c1.46,1.27,1.42,2.37.15,3.43h-2.15c-.19,0-.4-1.77-.65-3C390.27,30.56,391.06,30.51,391.77,30.37Zm-2.59-5.85a2.62,2.62,0,0,1,3.49-.49C391.86,26.15,390.73,25.63,389.18,24.52ZM385.51.23V3.68l-2.89.55c-.2-1.1-.39-2.1-.62-3.33Zm.33,10.51c-1.17.22-2.44.37-3.5.67V8c1.06-.17,1.69-.32,2.88-.55C385.43,8.52,385.61,9.51,385.84,10.74ZM378.12.23V3.68l-2.89.55c-.21-1.11-.39-2.1-.62-3.33Zm.07,7c.22,1.16.37,2.24.67,3.29h-3.45a14.08,14.08,0,0,1-.55-2.78C376,7.58,377,7.5,378.19,7.27Zm-3.26,10.09c.15-.79.3-1.58.44-2.39,1.81.1,2,1.88,3.37,2.26C377.39,18.68,376.22,18.52,374.93,17.36Zm3.4,6.8c-.14,1.55-1.84,1.81-2.64,4.08-.36-2-.53-3-.68-3.82C376.32,23.28,377.29,23.3,378.33,24.16ZM371.78.23V3.68l-2.89.55c-.2-1.11-.39-2.1-.62-3.33Zm-1.33,7.5c1.46,1.27,1.42,1.78.16,3.89h-2.16c-.19-1.06-.39-2-.65-3.24C369,8.15,369.74,7.87,370.45,7.73Zm-1.6,6.89,2.31,2.66c-.24,1.19-1.57,1.75-2.37,2.74C367.35,18.26,367.37,16.51,368.85,14.62ZM364,1.06a11.65,11.65,0,0,1,.55,2.67c-1.1.21-2.09.5-3.32.73-.23-1.16-.38-2.35-.68-3.4Zm-10.29.29c1.2-1.29,2.37-1.13,3.59,0l-2.47,2.46C353.19,3.58,353.87,2.28,353.73,1.35Zm0,7.18a5.77,5.77,0,0,1,1.2-.66c.2.49.43,1,.58,1.47a11.08,11.08,0,0,1,0,1.93l-3.88-.6C352.55,9.7,353.09,9.07,353.7,8.53Zm1.84,8.85c-1.27,1.2-2.25,1.14-3.28.35.2-1.49,1.62-2,2.66-3.48C355.19,15.6,355.38,16.58,355.54,17.38Zm-14.39-16V3.52c-1,.19-1.81.39-3,.65-.23-1.16-.43-1.95-.57-2.65C338.8.06,340.1.1,341.15,1.36Zm-.23,6c.17.91.32,1.7.55,2.89l-3.33.63c-.22-1.17-.37-2-.67-3.52ZM333.76.22V3.67c-1.06.17-1.56.32-2.76.55-.2-1.11-.46-2.1-.69-3.33C331.48.67,332.7.51,333.76.22Zm0,7.11v3.44c-1.06.18-1.57.33-2.76.55-.21-1.1-.46-2.09-.69-3.32C331.48,7.77,332.7,7.62,333.76,7.33ZM319.55.71c.22,1.17.37,2,.67,3.51h-3.45c-.17-.9-.33-1.69-.55-2.88Zm-2.27,21.07c.81.82,1.61,1.62,2.9,2.9L317,26.83A3.72,3.72,0,0,1,317.28,21.78Zm0-7.14,2.47,2.47c-.22,1.67-1.51,1-2.44,1.12C316,17,316.14,15.86,317.24,14.64Zm2.35-7.25c.18.91.33,1.7.56,2.89l-3.33.63c-.23-1.17-.38-2-.67-3.52ZM312,.56a2.32,2.32,0,0,1,.1,3.66h-1.81c-.8-1-2.17-1.59-2.41-3C309.1.07,310.6.85,312,.56ZM289.4.2V3.65c-1.06.17-1.6.32-2.79.55-.21-1.1-.44-2.1-.67-3.33C287.1.65,288.34.5,289.4.2Zm-.7,7.52c1.47,1.27,1.42,1.79.16,3.9H286.7c-.18-1.06-.39-2-.65-3.25C287.21,8.14,288,7.86,288.7,7.72Zm.64,7.07c.18,1.05.35,1.63.57,2.63-.84.75-1.68,1.53-2.55,2.27-.12.1-.4,0-.59,0-1.15-1.25-.29-2.79-.75-4.9Zm.13,9.34c-.14,1.55-1.83,1.81-2.63,4.08-.36-2-.54-3-.68-3.82C287.46,23.25,288.44,23.27,289.47,24.13ZM255.6,1c1.06-.19,2.08-.39,3.31-.65.24,1.16.3,1.95.44,2.65-1.27,1.47-2.69,1.42-3.75.16Zm3.68,29.51c.21,1.11,0,2.1.23,3.33-1.17.22-1.8.37-3.91.67A5.25,5.25,0,0,0,256.66,31,11.51,11.51,0,0,1,259.28,30.47Zm-3-6.54,2.48-.39c1.05,1.34,1.12,2.32-.31,3.86Zm3.31-13.69c-1.26,1.2-2.24,1.14-3.28.35.2-1.49,1.62-2,2.66-3.48C259.23,8.46,259.42,9.44,259.58,10.24Zm-8,16.91-2.47-2.47c.22-1.67,1.52-1,2.45-1.12C252.84,24.75,252.68,25.93,251.58,27.15Zm-.25,7.35c-.72-1.14-1.4-2.24-2.17-3.47l2.48-.38C252.69,32,252.76,33,251.33,34.5Zm-.05-19.57c1.16,1.39,1.19,1.39.5,5.3l-2.91-2.9Zm-2.09-4.34c.2-1.49,1.62-2,2.66-3.48.27,1.35.47,2.33.62,3.12C251.21,11.44,250.23,11.38,249.19,10.59ZM242.65,0h2.16c.19,1.06.39,2.11.65,3.34-1.15.24-1.94.28-2.65.43C241.35,2.5,241.39,2.11,242.65,0Zm-8.17,1c1.05-.18,2-.39,3.21-.64.23,1.15.35,1.94.49,2.64-1.27,1.47-2.65,1.43-3.7.16Zm3.68,9.74c-1.17.23-1.57.38-3.68.67V7.92c1.05-.18,1.78-.33,3-.56C237.65,8.47,237.93,9.46,238.16,10.69Zm-2.66,3.93L238,17.08c-.22,1.67-1.52,1-2.45,1.13C234.24,17,234.4,15.83,235.5,14.62ZM238,25a11.85,11.85,0,0,1-2.35.27c-.25,0-.52-.7-.64-1.12,0-.13.38-.57.57-.56.8,0,1.58.18,2.38.28ZM227.08,1c1.06-.18,2.12-.39,3.36-.65.23,1.16.27,2,.42,2.65-1.27,1.47-1.66,1.42-3.78.16ZM228,7.23c1,.93,1.6,1.46,2.15,2.08a5.92,5.92,0,0,1,.65,1.19c-.49.2-1,.44-1.46.59a12,12,0,0,1-1.94,0C227.67,9.51,227.82,8.53,228,7.23Zm3.08,10.09-2.4,2.41c-1.08-1.48-1.08-1.48-.52-5.33ZM213.89,0c1.09,1.43,2.46,2,2.73,3.63l-3.54.65C213.45,2.34,213.64,1.36,213.89,0ZM200,.43c1.28,1.19,1.27,2.37,0,3.56C198.73,2.8,198.73,1.62,200,.43ZM192.94,20l-2.47-2.47c.22-1.66,1.52-1,2.45-1.12C194.2,17.63,194,18.8,192.94,20Zm-.15,7.17c-.56-.63-1.14-1.23-1.66-1.89a9.93,9.93,0,0,1-.76-1.41l2.4-.45C194.17,24.69,194.17,25.86,192.79,27.19Zm.4-26.44c.14,0,.58.37.57.57,0,.79-.18,1.58-.29,2.37l-1.12.05a12,12,0,0,1-.28-2.36C192.09,1.14,192.77.87,193.19.75ZM187,.17V3.62c-1.06.17-1.91.32-3.1.55-.21-1.11-.29-2.1-.52-3.33C184.5.62,184.83.47,187,.17Zm-.23,10c-1.26,1.21-2.24,1.15-3.28.36.2-1.49,1.62-2,2.66-3.48C186.37,8.44,186.57,9.42,186.72,10.21ZM176.39.94c1.05-.19,1.69-.4,2.93-.65.23,1.15.49,1.94.63,2.65-1.27,1.46-2.51,1.42-3.56.16Zm2.31,22.59c1.28,1.2,1.12,2.38,0,3.6l-2.47-2.47C176.47,23,177.77,23.67,178.7,23.53ZM176.33,17c0-.13.38-.57.57-.56.8,0,1.58.18,2.37.28,0,.38,0,.75,0,1.13a12.66,12.66,0,0,1-2.35.28C176.72,18.12,176.45,17.43,176.33,17Zm2.11-9.23c1.67.21,1,1.51,1.12,2.44-1.19,1.29-2.37,1.13-3.59,0Zm-7-7.33c1.47,1.27,1.42,2.72.16,3.77h-2.16c-.19-1-.39-1.94-.65-3.18C169.93.81,170.72.59,171.42.45ZM161.8,24.39c1.2-1.29,2.38-1.13,3.59,0l-2.47,2.46C161.26,26.62,161.94,25.32,161.8,24.39Zm1.13-4.66c-1.67-.22-1-1.52-1.13-2.45,1.2-1.28,2.38-1.12,3.6,0Zm-.26-8.65c-1.29-1.2-1.13-2.38,0-3.6L165.11,10C164.89,11.62,163.6,10.94,162.67,11.08ZM154.2.93c1.06-.19,2.13-.39,3.37-.65.23,1.16.27,2,.41,2.65-1.27,1.46-1.66,1.42-3.78.16ZM148.32.44c1.46,1.27,1.42,2.73.16,3.78h-2.16c-.19-1-.39-1.94-.65-3.18C146.83.81,147.62.58,148.32.44Zm1,9.77c-1.19,1.29-2.37,1.13-3.59,0l2.47-2.46C149.9,8,149.22,9.28,149.35,10.21Zm.12,7.1c-.15.79-.29,1.58-.44,2.38-1.81-.09-2-1.87-3.37-2.25C147,16,148.18,16.15,149.47,17.31ZM142.59.16V3.6c-1.06.18-1.94.33-3.13.56-.21-1.11-.28-2.1-.51-3.33C140.12.6,140.47.45,142.59.16Zm-2.13,8.3a5.47,5.47,0,0,1,1.19-.65,15.36,15.36,0,0,1,.59,1.46,11.91,11.91,0,0,1,0,1.94l-3.88-.61C139.3,9.63,139.84,9,140.46,8.46Zm.91,11.61h-2.16c-.19-1.06-.4-1.94-.65-3.17,1.15-.24,1.94-.37,2.65-.51C142.67,17.66,142.63,19,141.37,20.07ZM135.19.15V3.6c-1.05.17-1.79.33-3,.55-.21-1.1-.35-2.09-.58-3.32C132.8.6,133.08.45,135.19.15Zm0,10.09c-1.3,1.15-2.28,1.12-3.31.26C132,9,133.69,8.69,134.5,6.42,134.86,8.46,135,9.44,135.17,10.24Zm-17-3.46c.83,1.75,1.4,3,2,4.18l-1.68,1.68C117.34,11,117.33,11,118.18,6.78Zm.07,7.83c.81.81,1.61,1.62,2.9,2.9L118,19.66A3.73,3.73,0,0,1,118.25,14.61Zm-6.79.3a4.64,4.64,0,0,1,0,4.71c-1.46-.16-2-1.59-3-2.31C109.49,16.51,110.05,15.19,111.46,14.91Zm-.26-7.52,2.26,2.8c-.16,1.11-1.58,1.62-2.32,2.67C109.67,11.12,109.72,9.36,111.2,7.39Zm2.66,17-2.64,2.47-2.82-2.45C110.3,22.94,112.05,22.92,113.86,24.4Zm-9.92-4.35c-.56-.63-1.14-1.23-1.66-1.89a9.72,9.72,0,0,1-.76-1.4l2.4-.46C105.32,17.55,105.32,18.72,103.94,20.05Zm0,7.11c-.56-.63-1.15-1.23-1.67-1.89a10.05,10.05,0,0,1-.75-1.41l2.4-.45C105.32,24.66,105.31,25.83,103.94,27.16Zm-2.61-17,2.52-2.18c1.11,1,1.15,1,.48,5.19ZM104.56.7c.11.69.26,1.67.39,2.48-1.34,1-2.32,1.11-3.86-.32ZM94,.76C95.06.59,95.91.44,97.1.21c.21,1.11.29,2.1.52,3.33-1.17.22-1.51.37-3.62.67Zm3.17,22.48v3.45a11.22,11.22,0,0,1-2.64.55c-.21-1.1-.52-2.1-.75-3.33C95,23.69,96.11,23.54,97.17,23.24Zm-2.76-6.49,2.4-.45c1.4,1.25,1.4,2.42,0,3.75-.56-.63-1.14-1.23-1.66-1.89A9.93,9.93,0,0,1,94.41,16.75ZM90.83.14V3.59L88,4.14C87.74,3,87.55,2,87.32.81Zm-1.15,7c1.46,1.27,1.42,2.35.15,3.4H87.67a15.06,15.06,0,0,1-.64-3C88.18,7.33,89,7.3,89.68,7.16Zm0,12.89c-.55-.63-1.14-1.23-1.66-1.89a9.93,9.93,0,0,1-.76-1.41l2.4-.45C91.11,17.54,91.1,18.72,89.72,20.05Zm.15,7.05L87.4,24.63c.22-1.67,1.52-1,2.45-1.12C91.13,24.7,91,25.88,89.87,27.1ZM83.44,1.28V3.44c-1.06.19-1.8.39-3,.65-.24-1.16-.44-1.95-.58-2.65C81.1,0,82.38,0,83.44,1.28Zm.21,8.9c-1.26,1.2-2.24,1.14-3.28.35.2-1.48,1.62-2,2.66-3.47C83.3,8.41,83.5,9.39,83.65,10.18ZM76.09.5c.22,1.16.37,1.61.67,3.72H73.31c-.17-1-.32-1.8-.55-3C73.87,1,74.86.73,76.09.5ZM73.81,27c-1.29-1.19-1.13-2.37,0-3.65l2.39.44C76,25.5,74.58,26,73.81,27Zm1.8,6.76H73.45c-.19-1.06-.39-1.71-.65-2.94,1.16-.24,2-.48,2.65-.63C76.92,31.5,76.87,32.74,75.61,33.8ZM73.83,7.39H76c.19,1.06.39,1.94.65,3.18-1.16.23-2,.36-2.65.51C72.53,9.81,72.57,8.45,73.83,7.39ZM62.32,1.27V3.43c-1.06.19-1.9.39-3.14.65-.23-1.15-.38-1.94-.53-2.65C59.92,0,61.26,0,62.32,1.27Zm.2,7.27L59,10.24c0-.17-.18-1.15-.31-2C60.06,7.23,61,7.16,62.52,8.54Zm-2.91,6.05c.81.82,1.61,1.62,2.9,2.9l-3.16,2.15A3.72,3.72,0,0,1,59.61,14.59ZM62,24c-.28,1.44-1.6,2-2.74,3.38-.24-1.32-.41-2.3-.55-3.1C60,23.18,61,23.2,62,24Zm-16.59-13a2.14,2.14,0,0,1,0-3.56C46.68,8.68,46.68,9.86,45.4,11.05Zm.31,8.57c-1.23-1.25-1.27-1.24-.46-5.53C46.6,16.48,46.6,18.05,45.71,19.62ZM38.32.39c1.29,1.19,1.12,2.37,0,3.65L35.9,3.6C36.17,1.93,37.55,1.4,38.32.39ZM28.52.9,31.23.31a4.75,4.75,0,0,1,.32,5.06c-1.49-.15-2-1.61-3-2.33Zm3.6,9.27c-1.27,1.2-2.25,1.14-3.28.35C29,9,30.46,8.53,31.5,7,31.77,8.39,32,9.37,32.12,10.17Zm-.43,6v3.44c-1.06.18-1.58.33-2.77.55-.21-1.1-.46-2.09-.69-3.32C29.4,16.56,30.63,16.41,31.69,16.12Zm0,8.24v2.16c0,.19-1.69.4-2.93.65-.23-1.15-.49-1.94-.63-2.65C29.4,23.06,30.63,23.1,31.69,24.36ZM21.12.74C22.18.57,23,.42,24.23.19c.21,1.1.29,2.1.52,3.33-1.17.22-1.51.37-3.63.67Zm2.8,22.85c1.46,1.27,1.42,1.76.16,3.87H21.92c-.19-1.06-.39-2-.65-3.23C22.42,24,23.22,23.73,23.92,23.59ZM21,16.78c1.17-.22,2.2-.37,3.25-.67v3.45a13.56,13.56,0,0,1-2.76.55C21.33,19,21.27,18,21,16.78ZM7.39.74C8.45.56,9.07.41,10.26.18c.21,1.11.4,2.1.63,3.33-1.16.23-2.44.38-3.5.67Zm3.13,9.13c-.64,2.37-2.07.23-2.94.6C8.52,9,9.5,8.92,10.52,9.87Zm-3.13,7c1.06-.19,1.79-.4,3-.65.24,1.15.45,1.94.59,2.65C9.73,20.34,8.45,20.3,7.39,19ZM1,9.29c.79,0,1.58.18,2.37.28l0,1.13A12,12,0,0,1,1,11c-.24,0-.51-.7-.63-1.12C.37,9.72.78,9.28,1,9.29Zm0,7,2.38.44C3.1,18.37,1.73,18.9,1,19.91-.33,18.71-.17,17.54,1,16.25Zm.89,9.84a5.92,5.92,0,0,1-1.19.65c-.2-.49-.44-1-.59-1.46a11.22,11.22,0,0,1,0-1.94l3.88.6C3,24.92,2.49,25.55,1.88,26.09ZM7.6,41.44c-.22-1.16-.37-2.36-.67-3.42h3.45c.17,1.06.32,1.65.55,2.85C9.82,41.07,8.83,41.21,7.6,41.44Zm-.21-7V31c1.06-.18,1.67-.33,2.87-.56.2,1.11.4,2.1.63,3.33C9.73,34,8.45,34.1,7.39,34.39Zm.22-7.45c-.23-1.16-.38-1.59-.68-3.7h3.45c.17,1.05.33,1.79.55,3C9.83,26.43,8.84,26.71,7.61,26.94ZM18,40.74c-1.06.18-1.94.39-3.18.65-.23-1.16-.36-2-.51-2.65,1.27-1.47,2.63-1.43,3.69-.16Zm-3.17-7.49V31.09a13.11,13.11,0,0,1,2.87-.64c.23,1.15.52,1.94.66,2.65C17.05,34.56,15.84,34.52,14.79,33.25Zm-.08-6.5c-.22-1.17-.37-2-.67-3.51h3.45c.17.9.32,1.69.55,2.88ZM14.07,10l3.49-1.7c0,.18.18,1.16.31,2C16.53,11.3,15.55,11.37,14.07,10ZM18,17.25v2.16c-1.06.19-1.94.39-3.17.65-.24-1.15-.37-1.95-.51-2.65C15.55,16,16.9,16,18,17.25ZM14.72,3.78c-.22-1.17-.37-1.67-.67-3.78A5.25,5.25,0,0,0,17.5,1.06a9.68,9.68,0,0,1,.55,2.49C16.94,3.75,16,3.54,14.72,3.78Zm6.4,37.73V38.06c1.06-.17,1.92-.33,3.11-.55.2,1.1.28,2.09.51,3.32C23.58,41.06,23.24,41.21,21.12,41.51Zm.7-7.37c-.22-1.16-.37-2-.67-3.51H24.6c.17.9.32,1.7.55,2.89ZM24.1,12.67H22.33c-1.69-1.05-.79-3-.62-4.91.72-.14,1.52-.34,2.27-.49C25.6,9.15,25.56,10.56,24.1,12.67Zm4.42,28.84V38.06c1.05-.17,1.77-.32,3-.55.21,1.11.36,2.1.59,3.33C30.9,41.06,30.63,41.21,28.52,41.51Zm.36-7.71c-.17-1.06-.33-1.6-.55-2.79,1.1-.21,2.09-.44,3.32-.68.23,1.17.38,2.41.67,3.47Zm10.2,6.94c-1.06.19-1.84.39-3.07.65-.24-1.15-.42-1.94-.56-2.65,1.27-1.46,2.57-1.42,3.63-.16Zm-3.54-24c1.17-.22,1.43-.38,3.54-.67v3.45c-1.06.17-1.71.32-2.9.55C36,19,35.77,18,35.54,16.79Zm.37,16.47V31.1c1.06-.19,1.74-.39,3-.65.23,1.16.46,1.95.6,2.65C38.22,34.57,37,34.52,35.91,33.26ZM37.84,27a9.9,9.9,0,0,1-2.16-.6c-.26-1.89.07-3.1,3-2.83.39.62,1.14,1.81,1.94,3.1C40.14,27.33,38.93,27.09,37.84,27Zm.4-14.13L35.81,10.1l2.11-2.29c1.47.25,2.08,1.5,2.94,2.45ZM45.4,41.19H43.24c-.19-1-.39-1.85-.65-3.09l2.65-.55C46.7,38.82,46.66,40.14,45.4,41.19ZM43,31.72c.22-1.66,1.52-1,2.45-1.12,1.28,1.2,1.12,2.37,0,3.59Zm3-4.95c-1.81-.1-2-1.88-3.37-2.26,1.35-1.44,2.52-1.28,3.81-.12C46.25,25.18,46.1,26,46,26.77ZM45.4,4.07C44.24,2.62,44.18,1.63,45.14.6,47.07,1.33,46.56,2.46,45.4,4.07Zm7.36,37c-1.93-.74-1.41-1.87-.26-3.48C53.67,39,53.73,40,52.76,41.05Zm-.21-6.86-2.47-2.47c.22-1.66,1.52-1,2.45-1.12C53.81,31.8,53.65,33,52.55,34.19Zm.51-7.42c-1.81-.09-2-1.87-3.36-2.26,1.34-1.44,2.52-1.28,3.8-.12C53.36,25.18,53.21,26,53.06,26.77ZM52.2,14.91c1.23,1.25,1.27,1.25.46,5.53C51.31,18.05,51.31,16.48,52.2,14.91Zm-2.64-4.47,3-3L54.75,10C53.7,11.07,53.7,11.11,49.56,10.44Zm5.36-6.86c-1.05.17-1.64.32-2.83.55C51.88,3,51.67,2,51.44.8,52.6.58,53.87.43,54.92.13Zm7,27.05c.18,1.06.33,1.76.56,2.95-1.11.21-2.1.36-3.33.59a35.36,35.36,0,0,1-.67-3.54ZM59.08,41.19c-.17-1-.32-1.74-.55-2.93l3.33-.6c.22,1.17.38,1.42.67,3.53ZM69,1.06a11.08,11.08,0,0,1,.55,2.63c-1.1.2-2.09.52-3.32.75-.23-1.17-.38-2.33-.68-3.38Zm.68,6.18v3.45c-1.06.17-1.93.32-3.12.55-.21-1.11-.28-2.1-.51-3.33C67.25,7.69,67.6,7.54,69.71,7.24ZM65.84,24.36c1.2-1.29,2.38-1.13,3.59,0L67,26.8C65.3,26.59,66,25.29,65.84,24.36Zm3.87,7.12v2.16c-1.06.19-2,.4-3.28.65-.24-1.15-.31-1.94-.46-2.65C67.24,30.18,68.65,30.22,69.71,31.48Zm-4.23,8.9V38.22c1.06-.19,2.06-.39,3.3-.65.23,1.16.3,2,.45,2.65C68,41.68,66.54,41.64,65.48,40.38Zm.72-20.31c-.17-1.06-.32-1.84-.55-3,1.1-.21,2.1-.32,3.33-.55.22,1.16.37,1.47.67,3.58Zm7.1,21.12c-.17-1-.32-1.73-.55-2.93l3.33-.6c.22,1.17.37,1.42.67,3.53Zm0-21.54c-.11-.69-.26-1.67-.38-2.48,1.33-1.05,2.31-1.12,3.85.31Zm9.4,21.54H80.56c-.19-1-.4-1.84-.65-3.08l2.65-.55C84,38.83,84,40.14,82.72,41.19Zm-2.45-7.92V31.12c1.06-.19,1.77-.4,3-.65.23,1.15.45,1.94.59,2.65C82.6,34.58,81.33,34.54,80.27,33.27Zm0-8.64c.22-1.67,1.52-1,2.45-1.13,1.28,1.2,1.12,2.38,0,3.6ZM82.69,20l-2.5-2.88,2.54-2.54C84.19,16.38,84.17,18.13,82.69,20Zm5,20.37V38.23c0-.19,1.63-.4,2.87-.65.23,1.15.52,1.94.66,2.65C89.92,41.69,88.72,41.65,87.66,40.39Zm-.09-6.18c-.22-1.17-.37-1.47-.67-3.58h3.45c.17,1.06.32,1.73.55,2.92C89.79,33.76,88.8,34,87.57,34.21Zm10.66,6.55c-1.06.19-2.09.39-3.33.65-.23-1.15-.29-1.95-.43-2.65,1.27-1.46,1.64-1.42,3.76-.16Zm-1.3-7H94.78c-.19-1.06-.4-1.7-.65-2.94,1.15-.23,1.94-.48,2.65-.63C98.24,31.5,98.2,32.74,96.93,33.8ZM95.32,11.11c-1.47-1.27-1.43-2.66-.16-3.72h2.16c.18,1.06.39,1.91.64,3.15C96.81,10.77,96,11,95.32,11.11Zm8.78,19.48c1.14,1.3,1.12,2.28.28,3.29-1.45-.28-2-1.6-3.38-2.75Zm-2.37,10.6c-.17-1-.32-1.73-.55-2.92l3.33-.61c.22,1.17.38,1.42.67,3.53ZM112,40.91c-1.06.17-1.74.33-2.93.55-.21-1.1-.37-2.09-.6-3.32a34.44,34.44,0,0,1,3.53-.67Zm-.83-7.1c-1.1-.17-1.61-1.58-2.64-2.3.76-1.15,1.94-1,3-.87a18,18,0,0,1,2.71.67Zm0-29.81c-1.2-1.26-1.14-2.24-.33-3.3,1.62,0,1.78,1.9,4.47,2.48Zm8,37.26a11.17,11.17,0,0,1-1.94,0c.25-1.59.4-2.57.61-3.88,1,.93,1.6,1.47,2.14,2.08a5.32,5.32,0,0,1,.65,1.2A15.29,15.29,0,0,1,119.17,41.26Zm-1.69-7.87-2-2a5.07,5.07,0,0,1,5.78.2Zm.76-6.69c-1.1-.16-1.61-1.57-2.64-2.3.76-1.14,1.94-.95,3-.87a18.29,18.29,0,0,1,2.71.68Zm6.65,14.76c-.23-1.16-.38-2.38-.67-3.44h3.44c.18,1.06.33,1.66.55,2.85C127.11,41.08,126.12,41.23,124.89,41.46Zm2.83-24.53c-.2,1.48-1.62,2-2.66,3.47-.27-1.35-.47-2.33-.63-3.12C125.7,16.08,126.68,16.14,127.72,16.93Zm-2.25-9.51c.56.62,1.15,1.23,1.67,1.88a11.81,11.81,0,0,1,.76,1.41l-2.4.46C124.09,9.92,124.1,8.74,125.47,7.42Zm2.53,17c-1,.81-1.53,2.13-3.18,2.45-.16-.81-.3-1.59-.44-2.3C125.63,23.12,126.8,23.13,128,24.37Zm-.2,7.13v2.16c-1.06.19-1.77.39-3,.65-.23-1.15-.45-1.94-.59-2.65C125.47,30.2,126.74,30.24,127.8,31.5ZM124.9,4.32c-.23-1.17-.38-2.21-.67-3.26h3.45a13.74,13.74,0,0,1,.55,2.76C127.12,4,126.13,4.09,124.9,4.32Zm10.29,36.45c-1.05.19-1.91.39-3.15.65-.23-1.15-.37-1.94-.52-2.65,1.27-1.46,2.62-1.42,3.67-.16Zm-.94-7h-2.16a14.51,14.51,0,0,1-.65-2.93c1.16-.24,1.95-.49,2.65-.63C135.56,31.51,135.51,32.74,134.25,33.8Zm.56-7c-1.81-.1-2-1.88-3.37-2.26,1.35-1.45,2.53-1.28,3.81-.13C135.1,25.21,135,26,134.81,26.8ZM134.26,20l-2.9-2.9,3.16-2.15A3.72,3.72,0,0,1,134.26,20Zm7.16,3.52c1.14,1.3,1.12,2.28.28,3.29-1.45-.28-2-1.6-3.38-2.74Zm1.17,8v2.16c-1.06.18-2.06.39-3.29.65-.24-1.16-.31-2-.45-2.65C140.12,30.2,141.53,30.25,142.59,31.51Zm-2.86,10c-1.46-1.27-1.42-2.45-.16-3.51h2.16c.19,1.06.39,1.81.65,3C141.23,41.3,140.44,41.39,139.73,41.53Zm8.75-18.06c1.2,1.27,1.14,2.25.33,3.31-1.61,0-1.77-1.9-4.47-2.48ZM145.76,40.4V38.24c1.05-.18,1.9-.39,3.14-.64.23,1.15.38,1.94.52,2.64C148.15,41.71,146.81,41.67,145.76,40.4Zm.4-6.6c-.17-1.06-.32-1.58-.55-2.78,1.11-.2,2.1-.45,3.33-.68.22,1.17.37,2.4.67,3.46Zm9.08-26.68c1.09,1.43,2.46,2,2.74,3.63l-3.55.65C154.81,9.43,155,8.45,155.24,7.12Zm.9,33.88-1.12,0a12,12,0,0,1-.28-2.36c0-.25.7-.51,1.12-.63.14,0,.58.37.57.56A23.78,23.78,0,0,1,156.14,41Zm2.29-7.33c-1.06.19-2,.39-3.22.65-.23-1.15-.34-1.94-.48-2.65,1.27-1.46,2.64-1.42,3.7-.16Zm-3.79-9.27c1.27-1.21,2.25-1.15,3.28-.36-.19,1.49-1.62,2-2.66,3.48C155,26.17,154.8,25.19,154.64,24.4Zm.42-4.73c-.1-.69-.25-1.67-.38-2.48,1.34-1.05,2.32-1.11,3.85.32Zm10.76,21.11c-1,.19-2.12.39-3.36.65-.23-1.15-.27-1.94-.41-2.65,1.27-1.46,1.66-1.42,3.77-.16Zm-1.36-7H162.3a14.32,14.32,0,0,1-.65-2.93c1.16-.23,1.95-.49,2.65-.63C165.77,31.51,165.72,32.74,164.46,33.8ZM161.6,4.23V.78c1.05-.17,1.87-.32,3.06-.55.21,1.11.31,2.1.54,3.33C164,3.78,163.71,3.94,161.6,4.23Zm8.22,3.22,2.31,2.66c-.24,1.19-1.56,1.75-2.37,2.74C168.32,11.09,168.34,9.34,169.82,7.45Zm2.34,24.07v2.16c-1.06.18-1.74.39-3,.65-.24-1.16-.47-1.95-.61-2.65C169.85,30.21,171.1,30.26,172.16,31.52Zm-3.51-6.95c1.27-1.47,2.45-1.42,3.51-.16v2.16c-1.06.19-1.81.39-3,.65C168.88,26.06,168.8,25.27,168.65,24.57Zm1.29,17c-1.46-1.27-1.42-2.46-.16-3.52h2.16c.19,1.06.39,1.82.65,3C171.44,41.31,170.65,41.39,169.94,41.54Zm-.67-21.47c-.17-1.06-.33-1.82-.55-3,1.1-.21,2.1-.34,3.33-.57.22,1.17.37,1.47.67,3.58Zm7.78,21.47c-1.46-1.27-1.42-2.46-.16-3.52h2.16c.19,1.06.39,1.82.65,3C178.54,41.31,177.75,41.4,177.05,41.54Zm-.63-7.32c-.22-1.17-.37-1.48-.67-3.59h3.45c.17,1.06.32,1.74.55,2.93C178.64,33.76,177.65,34,176.42,34.22ZM187,30.38v3.45c-1.06.17-1.91.32-3.1.55-.21-1.11-.29-2.1-.52-3.33C184.49,30.83,184.83,30.68,187,30.38Zm0,10.41c-1.06.19-2,.39-3.26.65-.23-1.16-.33-1.95-.47-2.65,1.27-1.47,2.67-1.42,3.73-.16Zm-1.12-13.66-2.47-2.47c.22-1.67,1.52-1,2.45-1.12C187.09,24.73,186.93,25.91,185.83,27.13Zm.3-6.74c-1.1-1.44-2.47-2-2.74-3.64l3.54-.65C186.56,18.07,186.38,19.05,186.13,20.39Zm7.28-12.56c.11.69.26,1.67.39,2.48-1.34,1-2.32,1.12-3.86-.31Zm-3.29,32.59V38.26c1-.19,1.93-.39,3.17-.65.23,1.15.37,2,.51,2.65C192.53,41.72,191.17,41.68,190.12,40.42Zm3.11-5.82c-1.09-1.43-2.46-2-2.73-3.63l3.54-.65C193.67,32.29,193.48,33.27,193.23,34.6Zm6.83-18.2c1.15,1.3,1.12,2.28.28,3.29-1.44-.28-2-1.6-3.37-2.74Zm.77,9.74c0,.24-.7.51-1.12.63-.13,0-.57-.38-.57-.57,0-.79.18-1.58.29-2.37l1.12,0A11.26,11.26,0,0,1,200.83,26.14Zm-.15,14.65c-1.06.19-1.78.4-3,.65-.23-1.15-.44-1.94-.59-2.65,1.27-1.46,2.55-1.42,3.61-.16Zm-.26-6.27c-1-.93-1.61-1.47-2.15-2.08a5.92,5.92,0,0,1-.65-1.19,13.11,13.11,0,0,1,1.46-.59,11.17,11.17,0,0,1,1.94,0C200.77,32.23,200.62,33.21,200.42,34.52ZM199.9,11.1c-1.05-1.33-1.12-2.31.31-3.85l2.17,3.47Zm10.28-9.78V3.48c-1.05.19-2.08.39-3.32.65-.23-1.16-.29-1.95-.43-2.65C207.7,0,208.07.06,210.18,1.32ZM209.46,17c-.2,1.49-1.62,2-2.66,3.48-.27-1.35-.46-2.33-.62-3.13C207.44,16.1,208.43,16.16,209.46,17Zm-2.14-9.7,2.17,3.47-2.48.39C206,9.77,205.89,8.79,207.32,7.25Zm-.2,16.18,2.39.44c-.28,1.67-1.65,2.2-2.42,3.21C205.8,25.89,206,24.71,207.12,23.43Zm0,18C205.94,40,205.88,39,206.84,38,208.77,38.7,208.26,39.83,207.1,41.44Zm-.51-7.53c-.1-.7-.25-1.67-.38-2.49,1.34-1,2.32-1.11,3.85.32Zm7.64-3.31c1.2,1.27,1.14,2.25.33,3.31-1.61,0-1.78-1.9-4.47-2.48Zm-2.38-6.69,2.48-.38c1,1.34,1.11,2.32-.32,3.85Zm-.61,17.66V38.12l2.89-.55c.21,1.1.39,2.1.62,3.32Zm3.32-21.18c-1.09-1.43-2.46-2-2.74-3.63l3.55-.65C215,18.08,214.81,19.06,214.56,20.39Zm-3.35-10.28L215,8.32l2,2A5.07,5.07,0,0,1,211.21,10.11Zm10.14,20.55c1.28,1.19,1.12,2.37,0,3.59l-2.47-2.47C219.12,30.11,220.42,30.79,221.35,30.66ZM219,24.76c.21-1.45,1.63-2,2.36-3l2.4,2.41C222.33,25.33,222.33,25.36,219,24.76ZM223.91,41c-1,.17-1.73.32-2.92.55-.21-1.11-.38-2.1-.61-3.33,1.17-.22,1.42-.37,3.53-.67Zm-2.54-21L218.6,17.3l2.67-2.46,2.78,2.43Zm.17-12.69,2.16,3.47-2.48.38C220.18,9.77,220.11,8.79,221.54,7.26Zm-.79-4.15V1c1.05-.19,1.73-.39,3-.65.24,1.16.47,2,.62,2.65C223.06,4.41,221.8,4.37,220.75,3.11Zm7.15,38.08c-.17-1-.32-1.71-.55-2.9l3.33-.62c.22,1.17.38,2.47.67,3.52Zm-.35-9.67c1.2-1.29,2.37-1.13,3.59,0L228.67,34C227,33.75,227.69,32.45,227.55,31.52Zm.46-4c-.28-1.53-.43-2.31-.79-4.26l4.18.78C230.21,25.36,229.28,26.22,228,27.55Zm6.47,14V38.13c1.05-.18,1.85-.33,3.05-.56.2,1.11.31,2.1.54,3.33C236.9,41.12,236.59,41.28,234.48,41.57Zm1.21-7.27c-1.46-1.27-1.42-2.61-.15-3.67h2.16c.18,1.06.39,1.89.64,3.12Zm8.74,6.89h-2.16c-.19-1-.39-1.82-.65-3,1.15-.24,1.94-.43,2.65-.57C245.73,38.84,245.69,40.14,244.43,41.19Zm0-7.39h-2.16c-.19,0-.39-1.68-.65-2.92,1.16-.23,1.95-.49,2.65-.63C245.73,31.52,245.69,32.74,244.43,33.8Zm-2.53-8.91c.81-2.12,1.94-1.6,3.49-.49C244,25.75,243,25.39,241.9,24.89Zm.11-8.11a11.26,11.26,0,0,1,2.36-.28c.24,0,.51.7.63,1.12,0,.13-.37.57-.57.57-.79,0-1.58-.18-2.37-.29Zm.12-6.22a12.58,12.58,0,0,1-.55-2.69c1.11-.21,2.1-.49,3.33-.72.22,1.16.37,2.36.67,3.41Zm9.41,30.63h-2.16c-.19-1-.4-1.82-.65-3,1.15-.24,1.94-.43,2.65-.57C252.84,38.84,252.8,40.14,251.54,41.19ZM249.26,3.12V1c0-.19,1.69-.39,2.93-.65.23,1.16.49,1.95.63,2.65C251.55,4.42,250.32,4.38,249.26,3.12Zm8.48,12.48a5.92,5.92,0,0,1,1.19-.65c.2.49.44,1,.59,1.46a10.72,10.72,0,0,1,0,1.94l-3.87-.6C256.59,16.78,257.12,16.15,257.74,15.6Zm-1.35,25.88c-.23-1.16-.38-2.4-.67-3.46h3.44c.18,1.06.33,1.67.56,2.87C258.61,41.09,257.62,41.25,256.39,41.48Zm9.77-.67c0,.19-1.64.4-2.88.65-.23-1.15-.51-1.94-.65-2.65,1.27-1.46,2.48-1.42,3.53-.15Zm-3.39-23.06c.93-1,1.46-1.6,2.08-2.14A6,6,0,0,1,266,15c.2.49.44,1,.59,1.47a11.81,11.81,0,0,1,0,1.93Zm3,16.51-2.46-2.47c.21-1.66,1.51-1,2.44-1.12C267.06,31.87,266.9,33,265.79,34.26Zm-.08-7-2.26-2.8c.16-1.11,1.57-1.62,2.31-2.67C267.24,23.51,267.19,25.26,265.71,27.23Zm-2.24-16.39c-.16-.71-.33-1.49-.53-2.43l2.85-1.3c.67,1.17,1.38,2.41,2.12,3.72C267.05,11.85,265.34,11,263.47,10.84ZM265.76,4c-.8-.8-1.6-1.61-2.41-2.41,1.4-1.16,1.4-1.19,4.76-.59C267.9,2.46,266.49,3,265.76,4Zm6.89,37.61-2.17-3.47,2.48-.39C274,39.1,274.08,40.08,272.65,41.62Zm0-6.3c-.36-2-.54-3-.68-3.82,1.3-1.15,2.28-1.12,3.32-.27C275.12,32.79,273.42,33,272.62,35.32Zm.22-8.22c-1.29-1.19-1.13-2.37,0-3.65l2.39.44C275,25.56,273.61,26.09,272.84,27.1Zm.23-12.72c.71,1.15,1.4,2.24,2.17,3.47l-2.49.39C271.71,16.9,271.64,15.92,273.07,14.38Zm-2.92-4.16,2.65-2.46,2.81,2.44C273.72,11.68,272,11.7,270.15,10.22Zm2.35-7.09V1c0-.19,1.62-.4,2.86-.65.23,1.15.52,1.94.66,2.65C274.75,4.43,273.56,4.39,272.5,3.13Zm7,38.36c-.22-1.17-.37-2.41-.67-3.47h3.45c.17,1.06.32,1.68.55,2.87Zm2.83-17.41c-.2,1.49-1.62,2-2.66,3.48-.27-1.35-.47-2.33-.62-3.12C280.3,23.23,281.28,23.29,282.32,24.08Zm-2.25-9.51c.56.63,1.15,1.23,1.67,1.89a11.07,11.07,0,0,1,.76,1.41l-2.4.45C278.69,17.07,278.7,15.9,280.07,14.57ZM278.84,31c1.05-.17,1.89-.32,3.08-.55.21,1.11.3,2.1.53,3.33-1.17.22-1.5.37-3.61.67Zm2.91-19.41H279.6c-.19-1.06-.4-2.13-.65-3.37,1.15-.23,1.94-.27,2.65-.41C283.06,9.11,283,9.51,281.75,11.62ZM279.5,4.35c-.22-1.17-.37-2.24-.67-3.29h3.45a13.91,13.91,0,0,1,.55,2.77C281.72,4,280.73,4.11,279.5,4.35Zm7.73,37.21c-1.47-1.27-1.42-2.48-.16-3.54h2.16c.18,1.06.39,1.82.65,3.06C288.72,41.31,287.93,41.41,287.23,41.56Zm-.58-6.89c-.28-1.52-.43-2.31-.79-4.26l4.18.79C288.85,32.48,287.92,33.35,286.65,34.67ZM296,11.62h-2.16c-.19-1.06-.39-2.13-.65-3.37,1.16-.23,1.95-.27,2.65-.41C297.28,9.11,297.23,9.51,296,11.62Zm1.14,21.56c-1.27,1.47-2.43,1.42-3.49.16V31.18c1.06-.18,1.8-.39,3-.65C296.89,31.69,297,32.48,297.11,33.18Zm-.21-15.82c-1.27,1.2-2.25,1.14-3.28.35.19-1.49,1.62-2,2.66-3.48C296.54,15.58,296.74,16.56,296.9,17.36ZM296,23.52c1.21,1.27,1.15,2.25.34,3.31-1.62,0-1.78-1.9-4.48-2.49Zm-1.63,18c-1.47-1.27-1.43-2.48-.16-3.54h2.16c.18,1.06.39,1.83.64,3.06C295.83,41.32,295,41.41,294.34,41.56Zm-.62-37.21c-.23-1.17-.38-2.24-.67-3.29h3.44a12.91,12.91,0,0,1,.56,2.77C295.94,4,295,4.12,293.72,4.35Zm9.09,10.59c1.16,1.4,1.2,1.4.5,5.31l-2.9-2.9Zm-2.13-4.38c.14-1.55,1.83-1.81,2.64-4.08.36,2,.53,3,.67,3.82C302.69,11.44,301.71,11.42,300.68,10.56Zm3.41,13c-.25,1.59-.4,2.57-.6,3.87-1-.93-1.61-1.46-2.15-2.08a5.92,5.92,0,0,1-.65-1.19c.49-.2,1-.44,1.46-.59A12,12,0,0,1,304.09,23.57Zm.1,6.85c0,1.65,0,2.44,0,3.45l-2.88.55c-.21-1.11-.4-2.1-.63-3.33Zm-2.75,11.14C300,40.29,300,39.08,301.28,38h2.16c.19,1.06.4,1.83.65,3.06C302.94,41.32,302.15,41.42,301.44,41.56Zm-.65-37.82c-.16-.71-.33-1.49-.53-2.42L303.11,0l2.12,3.72C304.37,4.75,302.66,3.9,300.79,3.74Zm6.47,13.86,2.92-2.92c.8.81,1.6,1.61,2.41,2.41C311.11,18.17,311.11,18.17,307.26,17.6Zm5.32,6.6c-1.48,1.07-1.48,1.07-4.76.59.22-1.45,1.63-2,2.36-3Zm-1.85,16.87c-1.81-.1-2-1.88-3.36-2.26,1.34-1.44,2.52-1.28,3.8-.12C311,39.48,310.88,40.26,310.73,41.07Zm-.5-7-2.77-2.43,2.68-2.68,2.76,2.65Zm-1.13-23-2.68-.55,4.85-2.84h0L314,8.2Zm8.42,30.05c-1.66-.22-1-1.52-1.12-2.45,1.2-1.28,2.37-1.12,3.59,0Zm-.66-6.42c-.28-1.52-.43-2.31-.79-4.26l4.18.79C319.06,32.49,318.13,33.36,316.86,34.68Zm9.32-23.06H324c-.19-1.06-.39-2.13-.65-3.36C324.53,8,325.32,8,326,7.84,327.49,9.11,327.44,9.51,326.18,11.62Zm.64,5.49c-.22,1.67-1.52,1-2.44,1.13-1.29-1.2-1.13-2.38,0-3.6Zm.6,23.87c-1.05.17-1.95.32-3.15.55-.2-1.1-.26-2.1-.49-3.33,1.17-.22,1.53-.37,3.64-.67Zm-3-10.41,2.38.44c-.27,1.67-1.65,2.2-2.42,3.22C323.08,33,323.25,31.86,324.41,30.57Zm-1-6.12c.14-.79.29-1.58.44-2.38,1.81.09,2,1.87,3.36,2.26C325.86,25.77,324.68,25.61,323.4,24.45Zm.53-20.1c-.23-1.16-.38-2.24-.67-3.29h3.44a13.06,13.06,0,0,1,.56,2.78C326.15,4,325.16,4.12,323.93,4.35Zm9.83,27.22v2.16a14.16,14.16,0,0,1-2.92.65c-.23-1.16-.49-2-.63-2.65C331.48,30.26,332.7,30.31,333.76,31.57Zm-2.15-9.87c.55.62,1.14,1.23,1.66,1.88A10.52,10.52,0,0,1,334,25l-2.4.46C330.23,24.2,330.23,23,331.61,21.7Zm0,19.86c-1.46-1.27-1.42-2.48-.16-3.54h2.16c.19,1.06.4,1.83.65,3.06C333.15,41.32,332.36,41.42,331.65,41.56ZM331,18c-.17-.9-.32-1.69-.55-2.88l3.33-.63c.22,1.17.37,2,.67,3.52Zm9.94-3.16.55,2.89-3.33.62c-.22-1.17-.38-2-.67-3.51Zm.23,15.64v3.45c-1,.17-1.71.32-2.9.55-.21-1.11-.39-2.1-.62-3.33C338.8,30.88,340.1,30.73,341.15,30.43ZM338,24.17c0-.13.38-.57.57-.56.79,0,1.58.18,2.37.28L341,25a12.66,12.66,0,0,1-2.35.28C338.43,25.28,338.16,24.59,338,24.17Zm0,17c-.17-1-.32-1.69-.55-2.88l3.33-.63c.22,1.17.37,2.46.67,3.51Zm10.47-.35c-1.06.19-2,.39-3.21.65-.23-1.16-.35-2-.49-2.65,1.27-1.46,2.64-1.42,3.7-.16Zm-3.86-16.23c1.34-1.45,2.52-1.29,3.8-.13-.14.79-.29,1.58-.44,2.39C346.24,26.77,346,25,344.69,24.61Zm1.18,9.7c-1.46-1.27-1.42-2.62-.16-3.68h2.16c.19,1.06.39,1.9.65,3.13ZM347.7,20c-.83-.83-2.32-1.64-2.32-2.51V15c1.05-.16,1.62-.3,2.36-.42A3.84,3.84,0,0,1,347.7,20Zm-2.32-8.64V8a12.58,12.58,0,0,1,2.69-.55c.21,1.11.49,2.1.72,3.33C347.63,11,346.43,11.1,345.38,11.4Zm-.18-7.18c-.17-1-.32-1.86-.55-3.06,1.11-.2,2.1-.3,3.33-.53.22,1.16.37,1.48.67,3.59Zm9.74,36.84c-1.44-.28-2-1.6-3.38-2.74l3.1-.55C355.8,39.07,355.78,40.05,354.94,41.06Zm-.39-6.76-2.19-2.52c1.06-1.12,1.06-1.15,5.19-.49ZM354.43,27l-2.49-2.49,2.61-2.61,3,2.83Zm9.28-19.57H364c.15,1.06.29,2.06.42,2.93a5.11,5.11,0,0,1-5.67-.33C360.08,9.29,361.28,8.45,363.71,7.39Zm-2,14.37c.94.94,1.78,1.77,2.68,2.68l-2.65,2.76-2.46-2.67Zm-2.28-4c.16-1.47,1.59-2,2.31-3,.8,1,2.12,1.53,2.4,2.94A4.67,4.67,0,0,1,359.38,17.72Zm2.37,23.68-2.47-2.47c.22-1.67,1.52-1,2.45-1.12C363,39,362.85,40.18,361.75,41.4Zm-.82-7.93-2-2a5.05,5.05,0,0,1,5.78.21Zm7.41,8c-.22-1.16-.37-2.42-.67-3.48h3.45c.17,1.06.32,1.68.55,2.87Zm.05-6.8c-.28-1.53-.42-2.31-.78-4.26l4.18.79C370.6,32.51,369.67,33.38,368.39,34.7Zm0-7.11c-.28-1.53-.42-2.31-.78-4.26l4.18.79C370.6,25.4,369.67,26.27,368.39,27.59Zm7.06,14c-.22-1.17-.37-2-.67-3.52h3.45c.17.91.32,1.7.55,2.89Zm.05-6.84c-.28-1.53-.42-2.31-.78-4.26l4.17.79C377.71,32.51,376.78,33.38,375.5,34.7Zm9.16-4.33c1.46,1.27,1.42,2.37.16,3.43h-2.16c-.19,0-.39-1.77-.65-3C383.16,30.56,384,30.51,384.66,30.37Zm-2.52-5.89q1.78-1.92,3.57,0Q383.92,26.4,382.14,24.48Zm1.05,17.09c-1.47-1.27-1.42-2.49-.16-3.55h2.16c.18,1.06.39,1.83.65,3.07C384.68,41.32,383.89,41.43,383.19,41.57Zm0-23.17c-1.46-1.27-1.42-2.56-.15-3.61h2.16c.18,1.05.39,1.86.64,3.1ZM391,15.65a6,6,0,0,1,1.19-.66c.2.49.44,1,.59,1.47a11.81,11.81,0,0,1,0,1.93l-3.87-.6C389.87,16.82,390.4,16.19,391,15.65Zm-1.4,25.54c-.18-1-.33-1.68-.56-2.88l3.33-.62c.23,1.16.38,2.45.67,3.5Zm8.5-18.43a5.32,5.32,0,0,1,1.2-.65c.2.48.43,1,.59,1.46a11.81,11.81,0,0,1,0,1.93L396,24.9C397,23.93,397.51,23.3,398.12,22.76ZM399.24,41a10.43,10.43,0,0,1-2.63.55c-.2-1.1-.52-2.09-.75-3.32,1.17-.23,2.33-.38,3.38-.67Zm-.31-6.64c-.56-.63-1.15-1.23-1.67-1.89a10.82,10.82,0,0,1-.76-1.4l2.4-.46C400.31,31.86,400.3,33,398.93,34.36ZM396.4,17.41c1-.81,1.53-2.13,3.18-2.45.15.81.3,1.59.44,2.29C398.77,18.66,397.59,18.65,396.4,17.41Zm0-7.11c1-.81,1.53-2.13,3.18-2.45.16.81.31,1.59.44,2.29C398.77,11.55,397.6,11.54,396.4,10.3ZM406,7.73c1.46,1.27,1.42,1.78.16,3.89H404c-.19-1.06-.39-2-.65-3.24C404.5,8.15,405.29,7.88,406,7.73ZM406.64,41c-1.06.17-1.58.32-2.77.55-.21-1.11-.46-2.1-.69-3.33,1.17-.22,2.4-.37,3.46-.67Zm-3.17-9.41c.8-.81,1.61-1.61,2.41-2.41,1.16,1.4,1.19,1.4.49,5.31Zm2.66-6.12L403.74,25c.27-1.67,1.65-2.2,2.42-3.21C407.45,23,407.29,24.2,406.13,25.48Zm-2.66-8.1V15.22c1-.18,1.89-.39,3.12-.64l.53,2.64C405.85,18.69,404.52,18.65,403.47,17.38ZM413.27.46c1.2,1.26,1.14,2.24.33,3.3-1.62,0-1.78-1.9-4.47-2.48Zm0,41L410.82,39c.22-1.67,1.52-1,2.45-1.13C414.55,39,414.39,40.2,413.29,41.42Zm.29-6.75c-1.09-1.43-2.46-2-2.73-3.63l3.54-.65C414,32.36,413.83,33.34,413.58,34.67Zm0-13.29c.27,1.35.46,2.33.62,3.12-1.26,1.2-2.25,1.14-3.28.35C411.1,23.37,412.52,22.86,413.56,21.38Zm-2.66-3.63c.2-1.49,1.62-2,2.66-3.48.27,1.35.47,2.33.62,3.12C412.92,18.6,411.94,18.54,410.9,17.75Zm-.61-7.12c1.18-1.28,2.11-2.15,3.39-3.47.28,1.53.42,2.31.78,4.26Zm10,30.56h-2.14c-.17-1-.35-1.82-.5-2.68a4.76,4.76,0,0,1,5.06-.25C422.44,39.7,421.1,40.14,420.29,41.19Zm-.3-8.73a18,18,0,0,1-2.71-.67l3.09-2.49c1.1.16,1.61,1.57,2.64,2.29C422.25,32.74,421.07,32.55,420,32.46Zm-.1-21.37c-.23-1.17-.38-1.58-.67-3.7h3.44c.18,1.06.33,1.79.55,3C422.11,10.58,421.12,10.86,419.89,11.09ZM427.42,29l2.77,2.64-2.67,2.47-2.78-2.44Zm-.54-10.57c-.23-1.15-.46-1.94-.6-2.65,1.27-1.46,2.54-1.42,3.59-.15v2.15C428.82,18,428.12,18.16,426.88,18.41Zm3,5.84c-.22,1.67-1.52,1-2.45,1.13-1.28-1.2-1.12-2.38,0-3.6C428.27,22.63,429.07,23.44,429.89,24.25Zm-2.47,17.49c-.76-1.05-1.56-2.17-2.36-3.3,1.22-1.27,2.88-.58,4.74-.26.14.71.29,1.5.46,2.44Zm-.48-31.18a12.11,12.11,0,0,1-.55-2.66c1.11-.21,2.1-.51,3.33-.74.22,1.17.37,2.35.67,3.4Zm7.16,31.08V38.19c1-.17,1.56-.33,2.75-.55.21,1.1.46,2.1.69,3.33C436.38,41.19,435.15,41.34,434.1,41.64Zm.2-7.67a3.72,3.72,0,0,1,.26-5l2.9,2.9Zm.25-15.7c-1.28-1.2-1.12-2.37,0-3.59L437,17.15C436.78,18.82,435.48,18.13,434.55,18.27Zm2.45,6c-.22,1.66-1.52,1-2.45,1.12-1.29-1.2-1.12-2.38,0-3.59Zm-.64-12.64H434.2c-.19-1.06-.39-2.11-.65-3.35,1.16-.23,1.95-.28,2.65-.42C437.66,9.12,437.62,9.51,436.36,11.62Zm-2.31-7.4c-.17-1-.32-1.85-.55-3,1.11-.21,2.1-.32,3.33-.55.22,1.17.38,1.48.67,3.59Zm10.61,37h-3.19a4.55,4.55,0,0,1,0-4.87c1.58.07,2.08,1.9,3.14,2.24Zm-4.13-8.37c.37-2,.56-3,.81-4.29,1.09,1.43,2.46,2,2.73,3.64Zm.15-8.33c.15-.8.29-1.58.44-2.39,1.81.1,2,1.88,3.37,2.26C443.14,25.81,442,25.65,440.68,24.49Zm.53-6.15c-.22-1.16-.38-1.44-.67-3.55H444c.18,1.05.33,1.72.56,2.91C443.43,17.9,442.44,18.11,441.21,18.34Zm0-7.25c-.22-1.16-.37-1.58-.67-3.7H444c.17,1.06.32,1.79.55,3C443.43,10.58,442.44,10.86,441.21,11.09Zm9.36,30.1h-2.16c-.19-1-.4-1.79-.65-3,1.15-.24,1.94-.44,2.65-.59C451.87,38.85,451.83,40.14,450.57,41.19Zm-2.64-9.55c1-.81,1.53-2.13,3.18-2.45.15.81.3,1.59.44,2.29C450.3,32.89,449.12,32.88,447.93,31.64Zm10.63-14.22c-1.2,1.28-2.38,1.12-3.59,0L457.43,15C459.1,15.19,458.42,16.49,458.56,17.42Zm-.17,4.16V25l-2.89.55c-.21-1.11-.39-2.1-.62-3.33Zm-1.63,8.3a5.74,5.74,0,0,1,1.2-.65c.2.49.43,1,.59,1.46a12,12,0,0,1,0,1.94l-3.88-.6C455.61,31.06,456.15,30.43,456.76,29.88Zm-1.34,11.66c-.23-1.17-.38-2-.67-3.52h3.44c.18.91.33,1.7.56,2.89Zm0-31a11.14,11.14,0,0,1-.56-2.66c1.11-.2,2.1-.5,3.33-.73.23,1.16.38,2.34.67,3.39Zm10.29-.25c-1.2,1.29-2.38,1.13-3.59,0l2.47-2.46C466.21,8.08,465.53,9.38,465.67,10.31ZM465.3,15c.1.69.26,1.67.38,2.48-1.33,1-2.31,1.11-3.85-.32Zm.48,26c-1,.18-1.83.33-3,.56-.21-1.11-.33-2.1-.56-3.33,1.17-.23,1.47-.38,3.58-.67Zm-3.35-9.7c0-.13.38-.57.57-.56.8,0,1.58.18,2.38.28l0,1.13a11.85,11.85,0,0,1-2.35.27C462.82,32.43,462.55,31.74,462.43,31.32Zm0-6.45c.2-1.49,1.62-2,2.66-3.48.27,1.35.47,2.34.62,3.13C464.45,25.72,463.47,25.66,462.43,24.87Zm2.7-21.09c-1.45-.28-2-1.6-3.38-2.74l3.1-.55C466,1.79,466,2.77,465.13,3.78Zm6.77,25.53c1.11.16,1.62,1.58,2.64,2.3-.75,1.15-1.93,1-3,.87a18,18,0,0,1-2.71-.67Zm-.07,12.13c-.73-.84-1.45-1.68-2.19-2.52,1.06-1.11,1.06-1.14,5.2-.48Zm7.23-.24c-1.11-1-1.95-1.69-2.81-2.45,1.89-1.48,3.64-1.49,5.45,0Zm-.12-22.88C477.8,17,477.82,16,478.66,15c1.44.28,2,1.6,3.38,2.74ZM489,41.05c-1.06.16-1.92.3-2.67.43a3.85,3.85,0,0,1,.06-5.43A31.75,31.75,0,0,0,489,38.56Zm-3.91-9.44c.14-.79.29-1.58.44-2.39,1.81.1,2,1.88,3.36,2.26C487.57,32.93,486.39,32.77,485.11,31.61Zm0-7.11c.15-.79.29-1.58.44-2.38,1.81.09,2,1.87,3.36,2.26C487.57,25.82,486.39,25.66,485.11,24.5Zm1-9.71h2.16c.19,1.05.4,1.86.65,3.09l-2.65.55C484.8,17.16,484.84,15.84,486.1,14.79Zm-.46-3.69c-.23-1.17-.38-1.59-.67-3.71h3.44c.18,1.06.33,1.8.55,3C487.86,10.59,486.87,10.87,485.64,11.1Zm-.05-6.88c-.17-1-.33-1.84-.55-3,1.1-.21,2.1-.32,3.33-.55.22,1.16.37,1.47.67,3.58Zm9.77,17.37V25c-1.06.17-1.51.32-2.71.55-.2-1.1-.48-2.1-.71-3.33C493.1,22,494.3,21.89,495.36,21.59Zm-2,20c-1.46-1.27-1.42-2.51-.15-3.57h2.15c.19,1.06.4,1.84.65,3.08C494.86,41.33,494.07,41.45,493.36,41.59Zm0-30.42c-1.46-1.27-1.42-2.72-.15-3.78h2.15c.19,1.06.4,2,.65,3.18C494.87,10.81,494.08,11,493.37,11.17ZM502.16.5c1.15,1.3,1.13,2.28.28,3.29-1.44-.28-2-1.6-3.37-2.74Zm.59,17.44c-1.06.17-1.65.32-2.84.55-.21-1.11-.42-2.1-.65-3.33,1.17-.22,2.43-.38,3.49-.67Zm.26,6.63c-1.3,1.15-2.27,1.13-3.31.27.14-1.56,1.84-1.81,2.64-4.08Zm-3.43,16V38.36c1.06-.19,1.81-.4,3.05-.65.23,1.15.43,1.94.57,2.65C501.93,41.82,500.64,41.78,499.58,40.52Zm.9-8.13c-1.47-1.27-1.43-1.76-.16-3.87h2.16c.18,1.05.39,2,.64,3.23C502,32,501.18,32.25,500.48,32.39Zm-.63-21.29c-.22-1.16-.37-1.59-.67-3.71h3.45c.17,1.06.32,1.8.55,3C502.07,10.59,501.08,10.87,499.85,11.1ZM509.27.5c1.15,1.31,1.12,2.28.28,3.3-1.44-.28-2-1.61-3.37-2.75Zm.45,21.65c.11.69.26,1.67.39,2.48-1.34,1.05-2.32,1.12-3.86-.32Zm-3.25-6.36c1.27-1.46,2.62-1.42,3.67-.16v2.16c-1.05.19-1.89.39-3.13.65C506.78,17.28,506.61,16.49,506.47,15.79Zm3.72,15.71c-1.25,1.41-2.42,1.4-3.62.16,1-.81,1.53-2.13,3.18-2.45C509.91,30,510.06,30.8,510.19,31.5Zm-3,9.55c-.34-.14-.43-.92-.63-1.43.08-1.93,2-2.19,2.62-3.69,1.47,1.74.67,3.23,1.12,5.45A13.42,13.42,0,0,1,507.16,41.05ZM507,11.1c-.22-1.16-.37-1.59-.67-3.71h3.45c.17,1.06.32,1.8.55,3C509.18,10.59,508.19,10.87,507,11.1Zm9.38,3.66c1.29,1.19,1.12,2.37,0,3.65L513.92,18C514.19,16.3,515.57,15.77,516.34,14.76Zm-.88-4.45a23.78,23.78,0,0,1,.29-2.38l1.12,0a11.78,11.78,0,0,1,.28,2.35c0,.25-.7.51-1.12.64C515.89,10.91,515.46,10.5,515.46,10.31Zm1.28,11.1c.28,1.52.43,2.31.79,4.26l-4.18-.79C514.54,23.6,515.47,22.73,516.74,21.41Zm-.47,20.12L514,38.72c.16-1.1,1.57-1.61,2.31-2.66C517.8,37.8,517.74,39.55,516.27,41.53Zm-2.67-9.91,2.65-2.46,2.81,2.44C517.17,33.08,515.42,33.1,513.6,31.62Zm2.72-27.53-2.4-2.41C515.4.6,515.4.6,519.24,1.17Zm7.16,17.72c.73.84,1.45,1.68,2.19,2.52-1.06,1.11-1.06,1.14-5.2.48ZM526,39.69v0h0v.82c-3.17,2.66-3.56-1-5.48-1.6,1-1,1.77-1.8,3.07-3.09.7,1.11,1.35,2.22,2.41,3.87Zm-2.51-5.57-2.77-2.44L523.38,29l2.77,2.64Zm-.66-16.7V15.26c1-.19,1.74-.39,3-.65.23,1.16.46,1.95.6,2.65C525.13,18.73,523.87,18.68,522.82,17.42Zm7.44,23.69a3.71,3.71,0,0,1,.26-5l2.9,2.9Zm7.11,0a3.72,3.72,0,0,1,.26-5l2.89,2.9Zm9.56-.28-3.36-2.3c.43-1.06.73-1.79.76-1.88L547.7,39Zm7.23-11.27a12.27,12.27,0,0,1,.55,2.67c-1.11.21-2.1.5-3.33.73-.22-1.16-.37-2.34-.67-3.4Zm-.58,12-2.24-2.93c.15-1,1.56-1.49,2.3-2.54C555.12,37.81,555.06,39.56,553.58,41.54Zm7-34c1.41,1.25,1.4,2.42.16,3.62-.81-1-2.13-1.53-2.45-3.19Zm.64,14.6c.1.69.26,1.67.38,2.49-1.34,1-2.32,1.11-3.85-.32Zm-.19,19c-1.45-.22-2-1.63-3-2.36l2.41-2.4C561.64,37.75,561.67,37.75,561.07,41.11ZM558.37,32c0-1.62,1.9-1.78,2.48-4.47.47,2.36.67,3.34.82,4.14C560.41,32.86,559.43,32.8,558.37,32Zm.36-13.42V15.13l2.89-.56c.2,1.11.39,2.1.62,3.33Zm9,3.16c1.45,1.35,1.29,2.52.13,3.81l-2.39-.44C565.55,23.29,567.33,23.08,567.71,21.73Zm-.69-6c0-.25.71-.51,1.13-.64.13,0,.57.38.56.57,0,.79-.18,1.58-.28,2.37l-1.13.05A12.66,12.66,0,0,1,567,15.72Zm.59,13.5c1.66.22,1,1.52,1.12,2.45-1.2,1.28-2.37,1.12-3.59,0Zm.13,12.1-2.61-2.62,2.78-2.43,2.28,2.11C569.94,39.85,568.69,40.46,567.74,41.32Zm0-28.65c-.47-2.36-.67-3.34-.83-4.14,1.27-1.2,2.25-1.14,3.31-.33C570.2,9.82,568.33,10,567.75,12.67Zm67.48-4.9c1.46,1.27,1.42,1.74.16,3.85h-2.16c-.19-1.06-.39-2-.65-3.22C633.73,8.17,634.53,7.91,635.23,7.77ZM626.79,8c.13,0,.57.38.57.57,0,.79-.18,1.58-.29,2.37L626,11a11.09,11.09,0,0,1-.28-2.35C625.68,8.38,626.37,8.12,626.79,8Zm-.29,6.79a2.14,2.14,0,0,1,0,3.56C625.22,17.15,625.22,16,626.5,14.78Zm2.37,10.29-2.49.39c-1-1.34-1.11-2.32.32-3.86C627.41,22.75,628.1,23.84,628.87,25.07ZM618.47,7.69a11.22,11.22,0,0,1,1.94,0c-.25,1.59-.4,2.57-.6,3.88-1-.93-1.61-1.47-2.15-2.08A5.92,5.92,0,0,1,617,8.28,13.93,13.93,0,0,1,618.47,7.69Zm0,7.11a11.17,11.17,0,0,1,1.94,0c-.25,1.59-.4,2.57-.61,3.88-1-.93-1.6-1.47-2.14-2.08a5.32,5.32,0,0,1-.65-1.2A15.29,15.29,0,0,1,618.47,14.8Zm-1.65,7.45,2.89-.55c.21,1.11.39,2.1.62,3.33l-3.51.67Zm-17.73,2.9c-1.16.23-2,.47-2.65.61-1.47-1.27-1.42-2.52-.16-3.58h2.16C598.63,23.24,598.83,23.91,599.09,25.15Zm-.23-16.6v2.16c-1.05.19-1.83.39-3.07.65-.23-1.16-.42-1.95-.56-2.65C596.5,7.25,597.81,7.29,598.86,8.55Zm-1,5.94c1.46,1.27,1.42,2.41.16,3.47h-2.16c-.19,0-.39-1.79-.65-3C596.41,14.7,597.2,14.63,597.91,14.49ZM591,.56c1.29,1.2,1.13,2.38,0,3.6l-2.46-2.47C588.75,0,590.05.7,591,.56Zm.49,8v2.16a14.32,14.32,0,0,1-2.93.65c-.23-1.16-.49-1.95-.63-2.65C589.18,7.24,590.41,7.29,591.47,8.55ZM577.34,1.09c0,1.62-1.9,1.78-2.48,4.48-.47-2.37-.67-3.35-.83-4.14C575.3.23,576.28.29,577.34,1.09Zm-.75,6.67c1.46,1.27,1.42,1.75.15,3.86h-2.15c-.19-1.06-.4-2-.65-3.22C575.09,8.16,575.88,7.9,576.59,7.76Zm1.18,10.14-2.65.54c-1.47-1.27-1.42-2.6-.16-3.65h2.16C577.3,15.84,577.51,16.66,577.77,17.9Zm-2.61,23.32c-1.13-1.67-1.14-1.67-.28-5.87l2,4.19C576.76,39.61,576,40.42,575.16,41.22Zm-1.35-8.36c.37-2,.56-2.95.79-4.18,1.28,1.19,2.15,2.12,3.47,3.4Zm0-7.11c.37-2,.56-2.95.79-4.18,1.28,1.19,2.15,2.12,3.47,3.4Zm8.13,15.36c-1.11-1.27-.18-2.76-.47-4.12,1.19-1.32,1.55-1.16,3.66-.1v1.82C584.08,39.5,583.39,40.88,581.94,41.11Zm-.87-9.47c.14-.79.29-1.58.44-2.38,1.81.09,2,1.87,3.36,2.25C583.53,33,582.35,32.8,581.07,31.64Zm-.16-21.31V8.17c1.06-.19,2-.39,3.26-.65.23,1.16.32,2,.46,2.65C583.36,11.64,582,11.59,580.91,10.33Zm3.72,7.58c-1.16.22-1.61.37-3.72.67V15.13c1.06-.17,1.8-.32,3-.55C584.11,15.69,584.4,16.68,584.63,17.91Zm-.47,3.83c.24,1.15.33,2,.47,2.65-1.27,1.46-2.66,1.42-3.72.16V22.39C582,22.2,582.93,22,584.16,21.74ZM583,3.17a5.92,5.92,0,0,1-1.19.65,15.36,15.36,0,0,1-.59-1.46,11.91,11.91,0,0,1,0-1.94l3.87.6C584.13,2,583.6,2.63,583,3.17Zm8.49,11.35V18c-1.06.17-1.59.33-2.78.55-.2-1.1-.45-2.09-.68-3.32C589.18,15,590.41,14.81,591.47,14.52Zm0,26.45c-1.06.17-1.74.34-2.6.49-1.07-1.92-1.16-3.48-.27-5.07,1.42.3,1.81,1.61,2.87,2.45Zm-3.17-9.31V29.5c1.06-.19,1.88-.39,3.11-.65.24,1.15.4,1.95.54,2.65C590.68,33,589.36,32.92,588.3,31.66Zm0-7.11V22.39c1.06-.19,1.88-.39,3.11-.65.24,1.16.4,2,.54,2.65C590.68,25.86,589.36,25.81,588.3,24.55Zm7.48,16.3c-1-1.19-.95-2.94.53-4.83l2.69,3.1Zm0-8c-.23-1.17-.38-2.24-.67-3.3h3.44a13.06,13.06,0,0,1,.56,2.78C598,32.56,597,32.64,595.81,32.87ZM605.7,7.39c.17,1.06.32,1.91.55,3.1-1.11.21-2.1.29-3.33.52-.22-1.16-.37-1.5-.67-3.62ZM605.18,18H603c-.19,0-.4-1.7-.65-2.94,1.15-.23,1.94-.48,2.65-.63C606.48,15.66,606.44,16.9,605.18,18Zm0,7.39H603c-.18-1.06-.39-1.84-.65-3.08,1.16-.23,1.95-.41,2.65-.55C606.48,23,606.44,24.29,605.17,25.35Zm-1.95,15.84c-1.31-1-.42-2.86-.81-4.62l2.75-.57c1.48,1.56.59,3.08,1.07,5.19Zm-.36-8.45c-.17-1.05-.32-1.87-.55-3.06,1.11-.21,2.1-.31,3.33-.54.22,1.17.38,1.49.67,3.6Zm9.75,8.41c-1.44-.28-2-1.6-3.37-2.75l3.09-.55C613.47,39.16,613.45,40.13,612.61,41.15Zm-3.18-9.48V29.51c1.05-.19,2-.4,3.21-.65.23,1.15.34,1.94.49,2.65C611.86,33,610.48,32.93,609.43,31.67Zm.6-6c-.23-1.16-.38-2-.68-3.51h3.45c.17.9.33,1.7.55,2.89Zm-.6-8.24V15.29c1.05-.19,2-.39,3.21-.65.23,1.16.35,1.95.49,2.65C611.86,18.75,610.48,18.71,609.43,17.45Zm.55-6.89c-.17-.9-.32-1.7-.55-2.89l3.33-.62c.22,1.17.37,2,.67,3.51Zm9.35,31-2.23-2.93c.14-1,1.55-1.49,2.29-2.54C620.87,37.83,620.81,39.59,619.33,41.56ZM616.42,32c1.18-1.28,2.11-2.15,3.39-3.47.28,1.53.42,2.31.78,4.26Zm10-2.83,2.82,2.45c-1.9,1.48-3.65,1.5-5.46,0Zm-.2,12a3.72,3.72,0,0,1,.26-5l2.9,2.9Zm7.35-1.48c-1.28-1.2-1.12-2.38,0-3.59.85.85,1.66,1.65,2.47,2.47C635.8,40.2,634.5,39.52,633.57,39.66Zm2.26-7.61a13.41,13.41,0,0,1-2.9.64c-.23-1.15-.5-1.94-.65-2.64,1.27-1.47,2.5-1.43,3.55-.16Zm-3.37-9.74c1.17-.22,2.32-.38,3.37-.67v3.44c-1.05.18-1.62.33-2.82.56C632.81,24.53,632.69,23.54,632.46,22.31Zm.67-3.94c-.22-1.16-.37-1.47-.67-3.58h3.45c.17,1.05.32,1.73.55,2.92C635.35,17.92,634.36,18.14,633.13,18.37Z"/></g></g></svg>