<svg xmlns="http://www.w3.org/2000/svg" viewBox="0 0 242.73 21.92"><defs><style>.cls-1{fill:#fb8713;}</style></defs><title>Reseñas_ornamentoTitulo</title><g id="Layer_2" data-name="Layer 2"><g id="ornamentos"><polygon class="cls-1" points="168.47 12.67 242.23 11.19 168.47 9.71 157.56 11.19 168.47 12.67"/><path class="cls-1" d="M121.36,21.92c0-2.35,8.61-11,11-11-2.35,0-11-8.61-11-11,0,2.35-8.61,11-11,11C112.75,11,121.36,19.57,121.36,21.92Z"/><path class="cls-1" d="M236.41,14.81c0-.83,3-3.86,3.86-3.86-.83,0-3.86-3-3.86-3.86,0,.83-3,3.86-3.86,3.86C233.38,11,236.41,14,236.41,14.81Z"/><path class="cls-1" d="M240.56,13.13A4.89,4.89,0,0,1,242.73,11a4.9,4.9,0,0,1-2.17-2.17A4.9,4.9,0,0,1,238.39,11,4.89,4.89,0,0,1,240.56,13.13Z"/><path class="cls-1" d="M139.77,18.53C139.77,16.91,155.4,11,157,11c-1.62,0-17.25-6-17.25-7.57,0,1.62-6,7.57-7.57,7.57C133.82,11,139.77,16.91,139.77,18.53Z"/><polygon class="cls-1" points="74.26 12.67 0.5 11.19 74.26 9.71 85.17 11.19 74.26 12.67"/><path class="cls-1" d="M6.32,14.81c0-.83-3-3.86-3.86-3.86.83,0,3.86-3,3.86-3.86,0,.83,3,3.86,3.85,3.86C9.35,11,6.32,14,6.32,14.81Z"/><path class="cls-1" d="M2.17,13.13A4.89,4.89,0,0,0,0,11,4.9,4.9,0,0,0,2.17,8.79,4.89,4.89,0,0,0,4.34,11,4.89,4.89,0,0,0,2.17,13.13Z"/><path class="cls-1" d="M103,18.53C103,16.91,87.33,11,85.7,11,87.33,11,103,5,103,3.38c0,1.62,6,7.57,7.57,7.57C108.91,11,103,16.91,103,18.53Z"/><path class="cls-1" d="M102.5,16.88C102.5,15.61,90.28,11,89,11,90.28,11,102.5,6.3,102.5,5c0,1.27,4.65,5.92,5.92,5.92C107.16,11,102.5,15.61,102.5,16.88Z"/></g></g></svg>