<svg xmlns="http://www.w3.org/2000/svg" viewBox="0 0 638.97 641.81" preserveAspectRatio="none"><title>Reseñas_marcoTitulo</title><g id="Layer_2" data-name="Layer 2"><g id="ornamentos"><path d="M611,27.91V612.4H28.06c-3.55-10-4.09-570.71-.44-584.5ZM602,603.73V36.55H36.78V603.73Z"/><path d="M10,441.19V619.33l13.24,9.84H201c-4.8,6.5-9.71,4.71-13.75,4.72q-76,.18-152,.08H21.09l-4.69,7.53H.93c0-5.64-.5-11,.13-16.13.79-6.55,3.59-13,3.63-19.47.31-50.67.15-101.33.21-152,0-4.34.53-8.67.82-13Z"/><path d="M.66,0,23.11,4.86l-.28,2.19H197.59l.44,3.16c-4,.58-8.07,1.66-12.11,1.67C147.57,12,109.21,12,70.85,12H22.76l-8.9,13-4-2.4V199.31l-3.58.35c-.48-4.2-1.37-8.4-1.38-12.6-.09-49.44,0-98.88-.08-148.33,0-7.54.76-15-3.82-22.19C-1,13.32.66,7.71.66,0Z"/><path d="M629.1,200.43V24.16l-15.22-12.9h-176c5-6.63,10-4.87,14-4.88,49.43-.13,98.87-.05,148.3-.12,7.54,0,14.91.64,22.15-3.9C625.89.15,632,2,636.66,2c4.81,9,1.64,15.47-5.12,21.75V200.42Z"/><path d="M632.32,619.61c5.81,5.71,9.22,12.16,4.22,21.41l-14.76.79-5.49-8.39H440l-.36-3.32c4.56-.56,9.12-1.6,13.69-1.62,36.65-.13,73.3-.07,110-.08,12.36,0,24.74-.5,37.07.14,10.22.53,19.24-1.41,28.28-9.34V441.91a9.44,9.44,0,0,1,2.21.15c.36.2.82.52.89.86a18.25,18.25,0,0,1,.55,3.78C632.32,504.22,632.32,561.75,632.32,619.61Z"/><path d="M575.63,576.8H62.1V65.35c8.86-3.4,494.1-4.74,513.1-1.51C578.54,73.29,579.28,561.65,575.63,576.8ZM70.43,71.65v495.5c13.16,3.31,485.88,2.92,495.72-.19,3.35-16.62,2.17-486.24-1.4-495.31Z"/><path d="M77.24,78.83c11.32-4,462.68-3.91,484.67.13V561.21c-9.11,3.73-469,4.69-484.67.86Zm9.34,8.51c0,31.6,0,62.47,0,93.34q0,46.67,0,93.34,0,46,0,92.06c0,31.11,0,62.23,0,93.34.06,30.92-.3,61.85.24,92.27,15.78,3.29,454.6,2.7,464.41-.31v-464Z"/></g></g></svg>