<svg xmlns="http://www.w3.org/2000/svg" viewBox="0 0 259.84 16.35"><defs><style>.cls-1{fill:#f48013;}</style></defs><title>Revistas_titleDeco</title><g id="Layer_2" data-name="Layer 2"><g id="textos"><path class="cls-1" d="M16.35,8.2A8.18,8.18,0,1,1,8.19,0,8.16,8.16,0,0,1,16.35,8.2Z"/><path class="cls-1" d="M46.79,8.24A7.67,7.67,0,1,1,39.14.55,7.66,7.66,0,0,1,46.79,8.24Z"/><path class="cls-1" d="M77.23,8.28a7.16,7.16,0,1,1-7.15-7.17A7.14,7.14,0,0,1,77.23,8.28Z"/><path class="cls-1" d="M107.66,8.34A6.65,6.65,0,1,1,101,1.67,6.63,6.63,0,0,1,107.66,8.34Z"/><path class="cls-1" d="M138.1,8.38A6.14,6.14,0,1,1,132,2.24,6.14,6.14,0,0,1,138.1,8.38Z"/><path class="cls-1" d="M168.54,8.42a5.63,5.63,0,1,1-5.62-5.62A5.63,5.63,0,0,1,168.54,8.42Z"/><path class="cls-1" d="M199,8.47a5.11,5.11,0,1,1-5.11-5.11A5.1,5.1,0,0,1,199,8.47Z"/><path class="cls-1" d="M229.4,8.52a4.6,4.6,0,1,1-4.59-4.61A4.58,4.58,0,0,1,229.4,8.52Z"/><path class="cls-1" d="M259.84,8.56a4.09,4.09,0,1,1-4.09-4.08A4.08,4.08,0,0,1,259.84,8.56Z"/></g></g></svg>