<svg xmlns="http://www.w3.org/2000/svg" viewBox="0 0 636.9 244.47"><defs><style>.cls-1,.cls-2,.cls-3,.cls-4,.cls-5,.cls-6{fill:none;stroke:#000;stroke-miterlimit:10;}.cls-1{stroke-width:5px;}.cls-2{stroke-width:7px;}.cls-3{stroke-width:3px;}.cls-5{stroke-width:4px;}.cls-6{stroke-width:2px;}</style></defs><title>Revistas_titulo</title><g id="Layer_2" data-name="Layer 2"><g id="textos"><path d="M60.14,18c-1.63,0-2.72.54-3.26,1.63a23.11,23.11,0,0,0-11.62,1.43q-5.92,2.23-6.73,10.4a7.46,7.46,0,0,0,2,7.2,8.84,8.84,0,0,0,6.11,2.65,6,6,0,0,0,3.88-2.24,4.79,4.79,0,0,0,1-3.95c0-1.63-.55-2.58-1.64-2.85A2.75,2.75,0,0,0,47.5,33.5a7.93,7.93,0,0,0-.61,1.63,1,1,0,0,1-1,.82c-1.36.27-2.25-.07-2.65-1a19.61,19.61,0,0,1-1-3.06A5.49,5.49,0,0,1,44.64,27a12.68,12.68,0,0,1,5.3-2q6.12-.4,11.22,4.69c3.4,3.4,5.37,8,5.91,13.73H65q-.81-3.68-4.89-3.67a4.44,4.44,0,0,0-3.47,1.63,5.45,5.45,0,0,0,0,7.34,4.44,4.44,0,0,0,3.47,1.63,5.5,5.5,0,0,0,5.3-3.67h1.22a20.82,20.82,0,0,1-7.95,15.09A23.06,23.06,0,0,1,41.79,66.6a.73.73,0,0,1-.82-.82,2.77,2.77,0,0,1,.82-2,31.39,31.39,0,0,1,3.87-2.45c1.5-.82,2-2.18,1.43-4.08A3.2,3.2,0,0,0,45.46,55,5.41,5.41,0,0,0,43,54.37a22.54,22.54,0,0,0-3,.2c-1,.14-1.57.07-1.84-.2a5.58,5.58,0,0,1-.82-2.25c-.34-1.22-.68-2.58-1.08-4.07a11.52,11.52,0,0,0-2-4.08,6.29,6.29,0,0,0-4.28-2.24,3.29,3.29,0,0,0-3.06.81A5.69,5.69,0,0,0,25,45.8q-.81,2.87,2,2.86c1.36.27,2,0,2-.82s.27-1.22.82-1.22q2,0,2,4.08a21.31,21.31,0,0,0,.81,6.52,13.06,13.06,0,0,0,5.37,6.53,1.16,1.16,0,0,1,.61,1.42c-.13.68-.34,1-.61,1a7.56,7.56,0,0,1-4.35-.61,8.43,8.43,0,0,1-3.87-2.65q-2-2-5.1-5.3a17.07,17.07,0,0,0-6.32-4.49c-2.72-1.36-4.21-1.22-4.49.41a1.68,1.68,0,0,0,.41,1.84A6.71,6.71,0,0,1,15.62,58c-1.08-.55-2-1-2.65-1.43A5,5,0,0,0,10.32,56,3.57,3.57,0,0,0,7,56.81c-.82.82-.68,2.31.47,4.49A10.55,10.55,0,0,0,1.9,63.54,4.88,4.88,0,0,0,.06,68.3,34.73,34.73,0,0,1,5.77,67,45.31,45.31,0,0,1,12,66.6a90.87,90.87,0,0,1,15.69,1.29A95.77,95.77,0,0,0,43,69.11c7.34.28,13.39-1.9,18.15-6.38A24.15,24.15,0,0,0,68.77,45.4a82.68,82.68,0,0,0-1-12.71,33.94,33.94,0,0,0-3.94-11.42Q62.18,18,60.14,18ZM98.19,0C91.06.27,85.28,2.86,80.8,7.82s-6.73,11-6.73,18.34A138.64,138.64,0,0,0,75.7,41.32a72,72,0,0,1,.82,15.49,38.62,38.62,0,0,1-1.63,11.9,4.75,4.75,0,0,0,4.89-1.91,15.8,15.8,0,0,0,2.45-5.5q6.1,2.85,5.3-2.85a10.45,10.45,0,0,0-2.45-4.9,4.8,4.8,0,0,1,3.06.82,3.09,3.09,0,0,0,1.83.81q2.44-.81.41-4.89A16.26,16.26,0,0,0,85.69,44q-3.47-3.06-5.5-4.69a10.41,10.41,0,0,1-2.45-4.15,13.49,13.49,0,0,1-.82-4.07c0-.55.41-.82,1.23-.82a1.66,1.66,0,0,1,1.22.41A11.3,11.3,0,0,0,86.3,36a17.47,17.47,0,0,0,6.12.82c2.72,0,4.08.68,4.08,2.1q.41.83-1,1c-1,.14-1.16.89-.61,2.24a1.77,1.77,0,0,0,.81,1.43,2.22,2.22,0,0,0,2.11.21,4.09,4.09,0,0,0,3.26-1.43,3.88,3.88,0,0,0,.82-3.47,5.34,5.34,0,0,0-2.45-4.14,18.38,18.38,0,0,0-4.15-1.84,21.25,21.25,0,0,0-3.87-.81,4.4,4.4,0,0,1-2.65-1c-.27-.27-.34-.89-.2-1.84a22.58,22.58,0,0,0,.2-3.06,9.11,9.11,0,0,0-.41-2.85c-.27-.82-1.09-1.36-2.45-1.63a2.74,2.74,0,0,0-3.66,1.63,27.92,27.92,0,0,1-2.45,4.08,7.5,7.5,0,0,1-1.84.61c-.68.14-1-.07-1-.61a23.71,23.71,0,0,1,4.9-17.13A20.4,20.4,0,0,1,96.9,2V3.67c-2.44.54-3.67,2.17-3.67,5a5.44,5.44,0,0,0,1.43,3.67,4.92,4.92,0,0,0,3.94,1.63,4.44,4.44,0,0,0,3.47-1.63,5.44,5.44,0,0,0,1.43-3.67,2.94,2.94,0,0,0-.82-2.92,15.31,15.31,0,0,0-2.45-2V2a19.16,19.16,0,0,1,13.26,5.57c3.39,3.4,5,7.14,4.68,11.22a9.09,9.09,0,0,1-1.63,5.5,5.62,5.62,0,0,1-4.89,2.24,6.09,6.09,0,0,1-3.06-.81,2.65,2.65,0,0,1-1.42-2.45c.27-.54,1.22-1.09,2.85-1.63,1.09-.54,1.36-1.5.82-2.85,0-1.09-.82-1.64-2.45-1.64a7.84,7.84,0,0,0-4.08,1.23,4,4,0,0,0-2,3.67,8.89,8.89,0,0,0,2.65,6.11,8.17,8.17,0,0,0,7.14,2.45q7.74-.81,10.19-6.73a21.82,21.82,0,0,0,1.63-11.62A4.38,4.38,0,0,0,125.11,9a1.76,1.76,0,0,0-.82-2.11,14,14,0,0,1-2-1.63A31.54,31.54,0,0,0,110.63,1,78,78,0,0,0,98.19,0ZM43,76.45a95.77,95.77,0,0,0-15.36,1.23A98.49,98.49,0,0,1,12,78.9a45.31,45.31,0,0,1-6.19-.41A43.43,43.43,0,0,1,.06,77.27,4.82,4.82,0,0,0,1.9,82,10.55,10.55,0,0,0,7.47,84.2C6.32,86.38,6.18,87.87,7,88.69a3.57,3.57,0,0,0,3.32.81A5,5,0,0,0,13,88.89c.68-.41,1.57-.88,2.65-1.43a6.71,6.71,0,0,1-1.22,2.65A1.68,1.68,0,0,0,14,92c.55,1.63,2,1.77,4.49.41a17.07,17.07,0,0,0,6.32-4.49q3.06-3.25,5.1-5.3a8.43,8.43,0,0,1,3.87-2.65,7.56,7.56,0,0,1,4.35-.61c.27,0,.48.34.61,1a1.17,1.17,0,0,1-.61,1.43,13,13,0,0,0-5.37,6.52,21.35,21.35,0,0,0-.81,6.52c0,2.72-.68,4.15-2,4.15-.55,0-.82-.41-.82-1.29s-.68-1.09-2-.82c-1.9,0-2.58,1-2,2.92A5.68,5.68,0,0,0,26.84,103a3.29,3.29,0,0,0,3.06.81,6,6,0,0,0,4.28-2.45,13.75,13.75,0,0,0,2-4.14c.4-1.36.74-2.65,1.08-3.87a5.58,5.58,0,0,1,.82-2.25c.27-.27.88-.34,1.84-.2a21,21,0,0,0,3,.2,7.76,7.76,0,0,0,2.45-.4c.82-.28,1.36-1.09,1.63-2.45.54-1.9.07-3.26-1.43-4.08a32.64,32.64,0,0,1-3.87-2.44A2.39,2.39,0,0,1,41,80.12c0-.81.28-1.22.82-1.22a23.06,23.06,0,0,1,16.92,4.89A20.84,20.84,0,0,1,66.66,99l-1.22.41c-.82-2.79-2.58-4.15-5.3-4.15a6.56,6.56,0,0,0-3.47,1.84,5,5,0,0,0-1.42,3.53,5.43,5.43,0,0,0,1.42,3.67,4.44,4.44,0,0,0,3.47,1.63q4.08,0,4.89-3.67h2q-.81,8.57-5.91,13.66t-11.22,4.69a12.68,12.68,0,0,1-5.3-2,5.49,5.49,0,0,1-2.44-4.89,19.61,19.61,0,0,1,1-3.06c.4-.95,1.29-1.29,2.65-1a1,1,0,0,1,1,.82A7.93,7.93,0,0,0,47.5,112a2.75,2.75,0,0,0,2.44,1.22c1.09-.27,1.64-1.22,1.64-2.85a4.65,4.65,0,0,0-1-3.88,6,6,0,0,0-3.88-2.24,8.84,8.84,0,0,0-6.11,2.65q-2.87,2.66-2,7.14.81,8.14,6.73,10.39a23.11,23.11,0,0,0,11.62,1.43c.54,1.09,1.63,1.63,3.26,1.63q2,0,3.67-3.26a33.94,33.94,0,0,0,3.94-11.42,81.8,81.8,0,0,0,1-12.64,24.2,24.2,0,0,0-7.61-17.4Q54,76.05,43,76.45Zm31.88.41a37.88,37.88,0,0,1,1.63,11.83,72.63,72.63,0,0,1-.82,15.56,135.53,135.53,0,0,0-1.63,15.09c0,7.34,2.24,13.52,6.73,18.41s10.26,7.48,17.39,7.75a78,78,0,0,0,12.44-1,36.6,36.6,0,0,0,11.62-3.87c.55-.55,1.23-1.16,2-1.84a2,2,0,0,0,.82-2.24,4.38,4.38,0,0,0-1.23-3.26,22.07,22.07,0,0,0-1.63-11.69q-2.44-5.91-10.19-6.73a8.17,8.17,0,0,0-7.14,2.45,8.89,8.89,0,0,0-2.65,6.11,4,4,0,0,0,2,3.67,7.34,7.34,0,0,0,4.08,1.29c1.63,0,2.45-.61,2.45-1.69.54-1.36.27-2.31-.82-2.86-1.63-.54-2.58-1.09-2.85-1.63a2.65,2.65,0,0,1,1.42-2.45,6.09,6.09,0,0,1,3.06-.81,4.7,4.7,0,0,1,4.89,2,10,10,0,0,1,1.63,5.71c.28,4.14-1.29,7.88-4.68,11.28a19.37,19.37,0,0,1-13.26,5.5v-1.63a15.31,15.31,0,0,0,2.45-2,2.82,2.82,0,0,0,.82-2.85,5.44,5.44,0,0,0-1.43-3.67,4.44,4.44,0,0,0-3.47-1.63,4.92,4.92,0,0,0-3.94,1.63,5.44,5.44,0,0,0-1.43,3.67c0,2.72,1.23,4.35,3.67,4.89v1.63a20.56,20.56,0,0,1-15.08-8.15,23.89,23.89,0,0,1-4.9-17.2c0-.54.34-.74,1-.61a7.5,7.5,0,0,1,1.84.61,27.92,27.92,0,0,1,2.45,4.08,2.74,2.74,0,0,0,3.66,1.63c1.36-.27,2.18-.81,2.45-1.63a9.07,9.07,0,0,0,.41-2.85,18.39,18.39,0,0,0-.2-2.86,3.29,3.29,0,0,1,.2-2,12.52,12.52,0,0,1,2.65-.81q1.83-.41,3.87-1a18.38,18.38,0,0,0,4.15-1.84,5.32,5.32,0,0,0,2.45-4.07,3.88,3.88,0,0,0-.82-3.47,4.09,4.09,0,0,0-3.26-1.43,2.22,2.22,0,0,0-2.11.21,1.75,1.75,0,0,0-.81,1.42c-.55,1.36-.34,2.11.61,2.25s1.29.47,1,1q0,2-4.08,2a17.47,17.47,0,0,0-6.12.82,11.3,11.3,0,0,0-6.93,5.3,1.17,1.17,0,0,1-1.43.61q-1-.19-1-1a13.55,13.55,0,0,1,.82-4.07,10.14,10.14,0,0,1,2.45-4.08q2-1.64,5.5-4.69a16.37,16.37,0,0,0,4.69-6.39q2-4.08-.41-4.89a3.09,3.09,0,0,0-1.83.81,4.8,4.8,0,0,1-3.06.82,10.46,10.46,0,0,0,2.45-4.89q.81-5.72-5.3-2.86a15.8,15.8,0,0,0-2.45-5.5,4.84,4.84,0,0,0-4.89-1.84Z"/><path d="M576.76,18c1.63,0,2.72.54,3.27,1.63a23.13,23.13,0,0,1,11.62,1.43c4,1.49,6.25,5,6.79,10.4a7.48,7.48,0,0,1-2,7.2,9,9,0,0,1-6.18,2.65,5.92,5.92,0,0,1-3.87-2.24,4.73,4.73,0,0,1-1-3.95c0-1.63.54-2.58,1.63-2.85a2.75,2.75,0,0,1,2.44,1.22,7.93,7.93,0,0,1,.61,1.63,1,1,0,0,0,1,.82c1.36.27,2.31-.07,2.72-1a19.61,19.61,0,0,0,1-3.06A5.39,5.39,0,0,0,592.26,27a12.63,12.63,0,0,0-5.3-2q-6.12-.4-11.22,4.69c-3.39,3.4-5.37,8-5.91,13.73h2q.81-3.68,4.89-3.67a4.44,4.44,0,0,1,3.47,1.63,5.45,5.45,0,0,1,0,7.34,4.44,4.44,0,0,1-3.47,1.63,5.5,5.5,0,0,1-5.3-3.67h-1.22a20.82,20.82,0,0,0,8,15.09,23.14,23.14,0,0,0,17,4.89.72.72,0,0,0,.81-.82,2.76,2.76,0,0,0-.81-2,32.6,32.6,0,0,0-3.94-2.45c-1.5-.82-2-2.18-1.43-4.08A3.22,3.22,0,0,1,591.44,55a5.48,5.48,0,0,1,2.52-.61,22.54,22.54,0,0,1,3,.2c1,.14,1.57.07,1.84-.2a5.46,5.46,0,0,0,.81-2.25c.28-1.22.62-2.58,1-4.07a11.33,11.33,0,0,1,2-4.08A6.29,6.29,0,0,1,607,41.73a3.29,3.29,0,0,1,3.06.81,5.63,5.63,0,0,1,1.84,3.26q.81,2.87-2,2.86c-1.36.27-2,0-2-.82s-.27-1.22-.82-1.22c-1.35,0-2,1.36-2,4.08a21.31,21.31,0,0,1-.81,6.52,13.21,13.21,0,0,1-5.3,6.53,1.16,1.16,0,0,0-.61,1.42c.13.68.34,1,.61,1a7.4,7.4,0,0,0,4.28-.61A8.43,8.43,0,0,0,607,62.93q2-2,5.1-5.3a17.07,17.07,0,0,1,6.32-4.49q4.08-2,4.48.41c.35.55.14,1.16-.4,1.84A6.86,6.86,0,0,0,621.28,58c1.08-.55,2-1,2.71-1.43a5.1,5.1,0,0,1,2.65-.61,3.42,3.42,0,0,1,3.27.81c.81.82.68,2.31-.41,4.49a10.55,10.55,0,0,1,5.5,2.24,4.88,4.88,0,0,1,1.84,4.76,28.56,28.56,0,0,0-5.71-1.22A34.85,34.85,0,0,0,625,66.6a98.68,98.68,0,0,0-15.76,1.29A94.9,94.9,0,0,1,594,69.11c-7.41.28-13.46-1.9-18.22-6.38A24.13,24.13,0,0,1,568.2,45.4a82.68,82.68,0,0,1,1-12.71,32.43,32.43,0,0,1,3.87-11.42Q574.72,18,576.76,18Zm-38-18A23.56,23.56,0,0,1,556.1,7.82q6.74,7.34,6.73,18.34a138.64,138.64,0,0,1-1.63,15.16,72,72,0,0,0-.82,15.49A38.62,38.62,0,0,0,562,68.71a4.75,4.75,0,0,1-4.89-1.91,15.61,15.61,0,0,1-2.44-5.5q-6.12,2.85-5.31-2.85a10.45,10.45,0,0,1,2.45-4.9,4.8,4.8,0,0,0-3.06.82,3.09,3.09,0,0,1-1.83.81q-2.45-.81-.41-4.89A16.36,16.36,0,0,1,551.21,44c2.31-2,4.15-3.6,5.5-4.69a10.41,10.41,0,0,0,2.45-4.15,13.19,13.19,0,0,0,.82-4.07c0-.55-.41-.82-1.23-.82a1.66,1.66,0,0,0-1.22.41A11.3,11.3,0,0,1,550.6,36a17.47,17.47,0,0,1-6.12.82c-2.72,0-4.08.68-4.08,2.1q-.4.83,1,1c1,.14,1.16.89.62,2.24a1.78,1.78,0,0,1-.82,1.43,2.11,2.11,0,0,1-2,.21,4.07,4.07,0,0,1-3.26-1.43,3.88,3.88,0,0,1-.82-3.47,5.34,5.34,0,0,1,2.45-4.14,17.92,17.92,0,0,1,4.08-1.84,21.25,21.25,0,0,1,3.87-.81,4.4,4.4,0,0,0,2.65-1c.27-.27.34-.89.21-1.84a21,21,0,0,1-.21-3.06,9.11,9.11,0,0,1,.41-2.85c.27-.82,1.09-1.36,2.45-1.63a2.76,2.76,0,0,1,3.67,1.63,27.09,27.09,0,0,0,2.44,4.08A7.65,7.65,0,0,0,559,28c.68.14,1-.07,1-.61a23.71,23.71,0,0,0-4.9-17.13A20.4,20.4,0,0,0,540,2V3.67c2.44.54,3.67,2.17,3.67,5a5.44,5.44,0,0,1-1.43,3.67,4.87,4.87,0,0,1-3.87,1.63,4.44,4.44,0,0,1-3.47-1.63,5.44,5.44,0,0,1-1.43-3.67,2.79,2.79,0,0,1,.82-2.92,15.71,15.71,0,0,1,2.44-2V2c-5.5.27-9.92,2.11-13.32,5.57s-5,7.14-4.69,11.22a9.1,9.1,0,0,0,1.64,5.5,5.62,5.62,0,0,0,4.89,2.24,6.09,6.09,0,0,0,3.06-.81,2.66,2.66,0,0,0,1.43-2.45c-.28-.54-1.23-1.09-2.86-1.63-1.09-.54-1.36-1.5-.82-2.85,0-1.09.82-1.64,2.45-1.64a7.84,7.84,0,0,1,4.08,1.23,3.93,3.93,0,0,1,2.11,3.67A8.68,8.68,0,0,1,532,28.2a8.17,8.17,0,0,1-7.14,2.45q-7.74-.81-10.19-6.73A21.82,21.82,0,0,1,513,12.3,4.38,4.38,0,0,1,511.79,9a1.76,1.76,0,0,1,.82-2.11,14,14,0,0,0,2-1.63A31.6,31.6,0,0,1,526.27,1a78.8,78.8,0,0,1,12.5-1ZM594,76.45a94.9,94.9,0,0,1,15.29,1.23A98.82,98.82,0,0,0,625,78.9a41.72,41.72,0,0,0,11.83-1.63A4.82,4.82,0,0,1,635,82a10.55,10.55,0,0,1-5.5,2.24c1.09,2.18,1.22,3.67.41,4.49a3.42,3.42,0,0,1-3.27.81,5.1,5.1,0,0,1-2.65-.61c-.74-.41-1.63-.88-2.71-1.43a6.86,6.86,0,0,0,1.22,2.65c.54.68.75,1.29.4,1.84q-.81,2.44-4.48.41a17.07,17.07,0,0,1-6.32-4.49q-3.06-3.25-5.1-5.3a8.43,8.43,0,0,0-3.87-2.65,7.4,7.4,0,0,0-4.28-.61c-.27,0-.48.34-.61,1a1.17,1.17,0,0,0,.61,1.43,13.15,13.15,0,0,1,5.3,6.52A21.35,21.35,0,0,1,605,94.8c0,2.72.69,4.15,2,4.15.55,0,.82-.41.82-1.22s.68-1.16,2-.89c1.9,0,2.58,1,2,2.92a5.63,5.63,0,0,1-1.84,3.27,3.29,3.29,0,0,1-3.06.81,6,6,0,0,1-4.28-2.45,13.48,13.48,0,0,1-2-4.14c-.41-1.36-.75-2.65-1-3.87a5.46,5.46,0,0,0-.81-2.25c-.27-.27-.88-.34-1.84-.2a21,21,0,0,1-3,.2,7.87,7.87,0,0,1-2.52-.4c-.81-.28-1.36-1.09-1.63-2.45-.54-1.9-.07-3.26,1.43-4.08a33.93,33.93,0,0,0,3.94-2.44,2.37,2.37,0,0,0,.81-1.64c0-.81-.27-1.22-.81-1.22a23.14,23.14,0,0,0-17,4.89,20.84,20.84,0,0,0-8,15.16l1.22.41c.82-2.79,2.58-4.15,5.3-4.15a6.56,6.56,0,0,1,3.47,1.84,5,5,0,0,1,1.42,3.53,5.43,5.43,0,0,1-1.42,3.67,4.44,4.44,0,0,1-3.47,1.63q-4.08,0-4.89-3.67h-2q.81,8.57,5.91,13.66T587,120.56a12.63,12.63,0,0,0,5.3-2,5.39,5.39,0,0,0,2.51-4.89,19.61,19.61,0,0,0-1-3.06c-.41-.95-1.36-1.29-2.72-1a1,1,0,0,0-1,.82,7.93,7.93,0,0,1-.61,1.63,2.75,2.75,0,0,1-2.44,1.22c-1.09-.27-1.63-1.22-1.63-2.85a4.58,4.58,0,0,1,1-3.88,5.92,5.92,0,0,1,3.87-2.24,9,9,0,0,1,6.18,2.65c1.91,1.77,2.58,4.15,2,7.14-.54,5.43-2.79,8.9-6.79,10.39A23.13,23.13,0,0,1,580,125.86a3.34,3.34,0,0,1-3.27,1.7c-1.36,0-2.58-1.16-3.67-3.33a32.43,32.43,0,0,1-3.87-11.42,81.8,81.8,0,0,1-1-12.64c.27-7.13,2.79-12.91,7.54-17.4s10.81-6.59,18.22-6.32Zm-32,.41a37.88,37.88,0,0,0-1.63,11.83,72.63,72.63,0,0,0,.82,15.56,135.53,135.53,0,0,1,1.63,15.09c0,7.34-2.24,13.52-6.73,18.41a23.72,23.72,0,0,1-17.33,7.75,78.8,78.8,0,0,1-12.5-1,36.68,36.68,0,0,1-11.62-3.87c-.55-.55-1.23-1.16-2-1.84a2,2,0,0,1-.82-2.24,4.38,4.38,0,0,1,1.23-3.26,22.07,22.07,0,0,1,1.63-11.69q2.45-5.91,10.19-6.73A8.17,8.17,0,0,1,532,117.3a8.68,8.68,0,0,1,2.72,6.11,3.93,3.93,0,0,1-2.11,3.67,7.34,7.34,0,0,1-4.08,1.29c-1.63,0-2.45-.61-2.45-1.69-.54-1.36-.27-2.31.82-2.86,1.63-.54,2.58-1.09,2.86-1.63a2.66,2.66,0,0,0-1.43-2.45,6.09,6.09,0,0,0-3.06-.81,4.7,4.7,0,0,0-4.89,2,10,10,0,0,0-1.64,5.71c-.27,4.14,1.3,7.88,4.69,11.28s7.82,5.23,13.32,5.5v-1.63a15.71,15.71,0,0,1-2.44-2,2.69,2.69,0,0,1-.82-2.85,5.44,5.44,0,0,1,1.43-3.67,4.44,4.44,0,0,1,3.47-1.63,4.87,4.87,0,0,1,3.87,1.63,5.44,5.44,0,0,1,1.43,3.67c0,2.72-1.23,4.35-3.67,4.89v1.63a20.56,20.56,0,0,0,15.08-8.15,23.89,23.89,0,0,0,4.9-17.2c0-.54-.34-.74-1-.61a7.65,7.65,0,0,0-1.84.61,27.09,27.09,0,0,0-2.44,4.08,2.75,2.75,0,0,1-3.67,1.63c-1.36-.27-2.18-.81-2.45-1.63a9.07,9.07,0,0,1-.41-2.85,17.15,17.15,0,0,1,.21-2.86,3.36,3.36,0,0,0-.21-2,12.52,12.52,0,0,0-2.65-.81q-1.83-.41-3.87-1a17.92,17.92,0,0,1-4.08-1.84,5.32,5.32,0,0,1-2.45-4.07,3.88,3.88,0,0,1,.82-3.47,4.07,4.07,0,0,1,3.26-1.43,2.11,2.11,0,0,1,2,.21,1.76,1.76,0,0,1,.82,1.42c.54,1.36.34,2.11-.62,2.25s-1.29.47-1,1q0,2,4.08,2a17.47,17.47,0,0,1,6.12.82,11.3,11.3,0,0,1,6.93,5.3,1.17,1.17,0,0,0,1.43.61q1-.19,1-1a13.25,13.25,0,0,0-.82-4.07,10.14,10.14,0,0,0-2.45-4.08c-1.35-1.09-3.19-2.65-5.5-4.69a16.47,16.47,0,0,1-4.69-6.39q-2-4.08.41-4.89a3.09,3.09,0,0,1,1.83.81,4.8,4.8,0,0,0,3.06.82,10.46,10.46,0,0,1-2.45-4.89q-.81-5.72,5.31-2.86a15.61,15.61,0,0,1,2.44-5.5A4.84,4.84,0,0,1,562,76.86Z"/><path class="cls-1" d="M122.25,34.32H517A19.84,19.84,0,0,0,536.8,54.1V91.47A19.78,19.78,0,0,0,517,111.18H122.25a19.78,19.78,0,0,0-19.77-19.71V54.1a19.84,19.84,0,0,0,19.77-19.78Z"/><line class="cls-2" x1="107.4" y1="226.97" x2="536.4" y2="226.97"/><line class="cls-3" x1="107.9" y1="236.97" x2="536.9" y2="236.97"/><line class="cls-4" x1="107.9" y1="243.97" x2="536.9" y2="243.97"/><line class="cls-5" x1="312.9" y1="111.47" x2="312.9" y2="226.47"/><line class="cls-6" x1="306.9" y1="111.47" x2="306.9" y2="226.47"/><line class="cls-6" x1="319.9" y1="111.47" x2="319.9" y2="226.47"/></g></g></svg>