<svg xmlns="http://www.w3.org/2000/svg" viewBox="0 0 105.98 71.65"><title>Revistas_deco_subtitulo</title><g id="Layer_2" data-name="Layer 2"><g id="imagen_suelta"><path d="M86.61,33.43c-13.48-2.25-19,3.83-20.71,6.5C67.33,37,70.11,29.38,63.39,23.1,55.57,15.8,53,0,53,0s-2.08,13.72-9.87,22.58c-6.73,7.65-3.48,16.16-2.59,18.12-1-1.93-6.13-9.78-21.16-7.27,0,0-15.1,4-19.37,17.38,0,0,17.09-6,22.5,2.56S37.33,81,53,66.19C68.65,81,78.06,61.92,83.48,53.37S106,50.81,106,50.81C101.71,37.42,86.61,33.43,86.61,33.43Z"/></g></g></svg>