<svg xmlns="http://www.w3.org/2000/svg" viewBox="0 0 20.15 20.16"><title>Timeline_init</title><g id="Layer_2" data-name="Layer 2"><g id="menú"><path d="M16.11,1.77,18.29,4A8.43,8.43,0,0,0,19.35,6c.55.58-.34,1.61.8,1.78V12.3a5,5,0,0,0-.54.57v1.69c-.48.45-1.18.86-1.48,1.46a4.8,4.8,0,0,1-1,1.48c-.52.51-1,1-1.53,1.54a1.37,1.37,0,0,0-.51.08c-.52.27-1,.58-1.54.88a1.66,1.66,0,0,0-.2.16H6.83A18.8,18.8,0,0,1,3.94,18a2.32,2.32,0,0,1-1.69-1.51c-.21-.56-.64-.82-.91-1.26a7.36,7.36,0,0,0-1-1.51V11.22c.13-.12,0-.24-.13-.37A3.75,3.75,0,0,1,.05,9a2.55,2.55,0,0,1,.54-.45V7.25c.41-1,.83-1.81,1.32-2.78.83-.83,2.74-2.79,2.74-2.79h.54s.64-.61,1-1L7.42.57,7.9.08a13.62,13.62,0,0,0,2.85,0c1.07-.22,1.83.5,2.77.62S15.11,1.6,16.11,1.77Zm0,13.44L18,11.42V9.2a.54.54,0,0,0,0-.19c-.19-.25-.5-.48-.48-.66a2.63,2.63,0,0,0-.55-1.68c-.28-.51-.44-1.08-.7-1.6s-1-.56-1.49-1c-.26-.24-.51-.5-.81-.8-.3,0-.81.15-1,0-.51-.51-1.36-.4-1.74-1.06H9l-.66.62c-.64-.35-1.12.06-1.6.47-.88-.13-1,1.06-1.71,1.05-1,0-.42,1-1,1.29s-.7,1.14-1.12,1.69S3,8.58,2.26,9a3.77,3.77,0,0,0,.1,1.8l.4.4v1.61c.66.38.48,1.29,1.12,1.71s.52,1.68,1.36,1.79,1,.91,1.82,1.17h.85l.63.51a9.59,9.59,0,0,1,2.22,0c.84.22,1.25-.63,2-.57s1.18-.63,1.87-.7Z"/></g></g></svg>