<svg xmlns="http://www.w3.org/2000/svg" viewBox="0 0 44.31 10.09"><title>Timeline_hist</title><g id="Layer_2" data-name="Layer 2"><g id="menú"><path d="M9,8.8,6.23,10.09,4,8.75c-.06-1.67-.15-3.31-.16-4.94,0-1,.09-2,.12-2.64C5.54-.39,6.92.26,8.49.25,9.43,3.1,9,5.73,9,8.8Z"/><path d="M20.23,0h4.31c1.34,2.72.66,5.53.49,8.57l-4.64.86A26.93,26.93,0,0,1,20.23,0Z"/><path d="M40.69,9H36c-1.39-2.46-.51-5.17-.64-7.61,1.27-1.63,2.75-1.11,4.27-1C41.21,2.92,40,5.66,40.69,9Z"/><path d="M12.1.17a8.33,8.33,0,0,1,1.48,1.27,1.85,1.85,0,0,1,.12,1.2,26.15,26.15,0,0,0-.59,3,14.48,14.48,0,0,0,.35,2.77l-1.59.35A14.7,14.7,0,0,1,12.1.17Z"/><path d="M15.14,1.24l2-1c.41,3,1.13,5.76-.26,8.48-.06.1-.4,0-.78.09a33.31,33.31,0,0,0,0-4A27.15,27.15,0,0,0,15.14,1.24Z"/><path d="M.61,9.47A15.28,15.28,0,0,1,.66.76,14.16,14.16,0,0,1,.61,9.47Z"/><path d="M28.32,8.75a7.22,7.22,0,0,1-.57-1.89c0-2-.3-4.07.28-6.47C29.31,3.71,29.32,4.11,28.32,8.75Z"/><path d="M32.1,8.78a6.91,6.91,0,0,1-.62-1.9c.07-2-.41-4.15.33-6.48C33.17,3.39,33.19,4.19,32.1,8.78Z"/><path d="M43.63.56c.21.34.6.68.6,1A37,37,0,0,1,44,8.84C42.66,5.31,42.65,4.37,43.63.56Z"/></g></g></svg>