<svg xmlns="http://www.w3.org/2000/svg" viewBox="0 0 125.62 10.87"><defs><style>.cls-1{fill:#fc8813;}</style></defs><title>Timline_title</title><g id="Layer_2" data-name="Layer 2"><g id="ornamentos"><path class="cls-1" d="M69.39,10.67V.78L70,.12h2.32l.48.44.49-.42.39.4h1.75c-.06,0,0-.62.73-.29l.39.33h1.77c.06,0,.12-.08.18-.12L78.91.1l.64.78v9.78A81.92,81.92,0,0,1,69.39,10.67Zm1.45-1.39a43,43,0,0,0,7.28,0c.19-4.7.15-6.34-.16-7.75H72.18a1.23,1.23,0,0,0-.41.13L71.45,2,71,1.52A38.69,38.69,0,0,0,70.84,9.28Z"/><path class="cls-1" d="M125.62.58V10.64c-.1.08-.16.17-.22.17h-9.75A26.51,26.51,0,0,1,115.52,4l.35-.34-.43-.49.43-.48-.33-.33a2.17,2.17,0,0,1-.11-.42c0-.22,0-.45,0-.61l.69-.72Zm-.87,6.67c-.16-.42-.32-.82-.49-1.22-.26-.62.61-.86.46-1.47l-.44-.49c-.07-.65.06-1.34-.06-2-4-.21-6-.17-7.4.13v7c0,.06.09.11.18.22h7.08l.58-1.18-.36-.42Z"/><path class="cls-1" d="M21.69,10.78H11.82A77.27,77.27,0,0,1,11.77.61H15.1l.45-.45H17l.47.37.45-.37c.31.12.48.6.94.42l.49-.45.57.52L21.19,0l.69,1.12c0,3,0,6.21,0,9.45C21.87,10.63,21.77,10.68,21.69,10.78Zm-1.37-1.4a48.11,48.11,0,0,0,0-7.78A31.36,31.36,0,0,0,13,1.73c0,2.22,0,4.44,0,6.54l-.47.47.75.64Z"/><path class="cls-1" d="M.16.12.69.54l.47-.4.47.43L2.2,0l1,.48H9.12L9.57.15l.53.52c.05.06.14.12.14.18v9.74c-1.42.32-5.09.37-10.08.15A89.58,89.58,0,0,1,.16.12Zm1.28,9.3h6.7a3.53,3.53,0,0,0,.46,0c.06,0,.11-.1.25-.22,0-2.17,0-4.4,0-6.63,0-.36.15-.78-.24-1.06H2.11a3.65,3.65,0,0,0-.47,0c-.06,0-.11.1-.2.18Z"/><path class="cls-1" d="M68,10.82h-10c-.13-.14-.22-.19-.22-.25,0-3.25,0-6.5,0-9.84L59,.49l.35-.35h4.19c.28.11.43.61.94.43l.48-.44.48.43.41-.4.55.42h1.4a2.52,2.52,0,0,1,.18.48Zm-8.18-9.3c-.33.41-.68.58-.67,1.06,0,2.07,0,4.15,0,6l.65.87h6.57L67,8.73V3a1.59,1.59,0,0,0-.12-.41l-1-1H63.2l-.94.49-.6-.53Z"/><path class="cls-1" d="M56.32,10.82H46.87c-.22,0-.44,0-.62-.05s-.17-.16-.17-.22V.81l.69-.69H51l.49.45h1.38L53.41,0l1,.53h1.68a1.51,1.51,0,0,1,.19.48C56.32,4.23,56.32,7.41,56.32,10.82ZM47.47,2.21V8.73l.7.69h6a3.69,3.69,0,0,0,.47,0c.06,0,.12-.08.22-.15l.49-.54V2.16l-.65-.63H48.15Z"/><path class="cls-1" d="M114.45.73V3.18l-.39.39.41.51v2.3l-.44.49v3.24l.46.48c-.3.3-5.55.37-10.57.15-.27-.38.34-.38.28-.65l-.49-.58.54-1V.75A80.66,80.66,0,0,1,114.45.73ZM113.05,2h-7.63s-.1.11-.19.21l.38.47-.4.47.42.48-.43.48V8.74l.68.68h7c.06,0,.11-.1.21-.18Z"/><path class="cls-1" d="M41.1,0l.66.61.88-.42.46.35h1.4a1.74,1.74,0,0,1,.17.48c0,3.17,0,6.35,0,9.52-.28.39-.7.23-1.06.23H34.67c-.12-.13-.2-.18-.22-.25a.58.58,0,0,1,0-.23V5l.46-.49c.22-.62-.69-.81-.48-1.46a4.62,4.62,0,0,0,0-1.34c.73-.36.28-1.16.64-1.64l.54.48L36,.17H38l.6.49,1-.6.67.46ZM36.54,9.42h6a3.53,3.53,0,0,0,.46,0c.07,0,.12-.1.17-.15l.5-.5V2.15l-.65-.61H41.19l-.5.4-.38-.38H36.47l-.61.66V8.75Z"/><path class="cls-1" d="M102.86,10.78H92.79a79.56,79.56,0,0,1,0-10.15h9.91a.46.46,0,0,1,.15.16.49.49,0,0,1,0,.21V5.9l-.46.5V8.25l.46.49Zm-1.4-1.4V2.45a.59.59,0,0,0,0-.23c0-.06-.09-.11-.22-.25h-2.8L98,1.56c-.33.1-.49.6-1,.41l-.48-.45-.5.47H94.22l-.67,1.32V9.16c0,.06.1.12.18.22Z"/><path class="cls-1" d="M81,.62H91c.09.1.19.15.19.21v9.76a1.21,1.21,0,0,1-.16.16.53.53,0,0,1-.2.07H81.21c-.13-.14-.22-.19-.22-.25C81,7.32,81,4.07,81,.62Zm.93,1.58V4.53l.45.49L82,5.41V8.76l.63.66h6.52a3.53,3.53,0,0,0,.46,0c.06,0,.11-.1.17-.15.2-4.57.16-6.43-.16-7.76H86.81L86.32,2c-.5.18-.66-.32-.93-.44H82.6Z"/><path class="cls-1" d="M23.27,3.15l-.53-.58.5-1L23.31.3c.15-.07.28-.18.41-.18h3.49l.5.45.34-.34A3.12,3.12,0,0,1,29.6.16L30,.52l.76-.46.72.46.45-.4h.91c.08.11.24.23.24.35,0,3.26,0,6.51,0,9.77a2.17,2.17,0,0,1-.08.43c-.05.05-.11.14-.17.14H23.51l-.68-.67.3-.36s.14-.08.14-.14Zm.93-1.6V9a.59.59,0,0,0,0,.23c0,.07.1.11.22.24h6.63c.36,0,.78.15,1.06-.24V2a.6.6,0,0,0,0-.23,1.08,1.08,0,0,0-.19-.2Z"/><path class="cls-1" d="M77.09,8H71.84c-.32-.53-.13-1.07-.16-1.59s0-1.24,0-1.85-.16-1.07.16-1.6h5.25c.33.52.14,1.07.16,1.59s0,1.23,0,1.85S77.41,7.45,77.09,8Z"/><path class="cls-1" d="M118.25,8.49V3.08c.52-.33,1.07-.14,1.59-.16s1.23,0,1.85,0h1.6V7.84l-.5.5c-.06.05-.11.14-.17.15a3.68,3.68,0,0,1-.47,0Z"/><path class="cls-1" d="M14,8V3.1c.1-.09.16-.19.21-.19h5.12s.11.1.15.16a.48.48,0,0,1,.07.2V7.8c-.14.13-.19.22-.25.22Z"/><path class="cls-1" d="M2.37,8V3.1c.09-.09.14-.18.2-.19a3.69,3.69,0,0,1,.47,0H7.67c.39.28.23.69.24,1,0,1.3,0,2.61,0,3.84-.13.12-.18.21-.24.22a3.53,3.53,0,0,1-.46,0Z"/><path class="cls-1" d="M65.62,8.05c-1-.3-1.61.68-2.6.37l-.41-.37-.49.44H60.74c-.22-.3-.63-.45-.73-1l.49-.68V4.16L60,3.23c.39-.39,1.55-.42,5.52-.24,0,0,.15.11.15.17C65.63,4.7,65.62,6.25,65.62,8.05Z"/><path class="cls-1" d="M54,8.46H51.44L51,8.06l-.48.43H49.12c-.08-.11-.23-.23-.24-.35,0-.69,0-1.39,0-2.14l-.42-.52.48-.57V3H53.8c.08.07.17.12.18.18a3.65,3.65,0,0,1,0,.47Z"/><path class="cls-1" d="M106.62,8.49V3.1c.09-.09.15-.19.21-.19h4.65l.15.16a.48.48,0,0,1,.07.2v5c-.14.12-.19.22-.25.22Z"/><path class="cls-1" d="M42.35,8H37.43a.85.85,0,0,1-.19-.21.58.58,0,0,1,0-.23V3.15c.28-.39.7-.23,1.06-.24,1.3,0,2.6,0,3.84,0,.12.13.21.18.22.24a3.53,3.53,0,0,1,0,.46Z"/><path class="cls-1" d="M94.94,8.26V3.15c.28-.39.7-.23,1.06-.24,1.24,0,2.47,0,3.92,0l.67.85-.4.77c.19.55.78,1.21-.1,1.84V7.74l-.62.66c-.08,0-.14.09-.21.09H96C95.65,8.48,95.23,8.64,94.94,8.26Z"/><path class="cls-1" d="M88.46,3.61V6.38l.35.42L88.25,8l-1.45.07-.5.4-.37-.38a1.93,1.93,0,0,0-1.79.52l-.79-.76V3.05c.59-.32,1.21-.09,1.81-.13a12.69,12.69,0,0,1,1.85,0,4.89,4.89,0,0,1,1.88.13Z"/><path class="cls-1" d="M30.68,2.91V7.83c-.09.09-.14.18-.2.19A3.69,3.69,0,0,1,30,8H25.84c-.39-.28-.23-.7-.23-1.06,0-1.3,0-2.6,0-3.83.13-.13.18-.22.24-.23a3.68,3.68,0,0,1,.47,0Z"/></g></g></svg>