<svg xmlns="http://www.w3.org/2000/svg" viewBox="0 0 25.86 28.06"><defs><style>.cls-1{fill:#fc8813;}</style></defs><title>Timline_hito</title><g id="Layer_2" data-name="Layer 2"><g id="menú"><path class="cls-1" d="M.44,21.5C.22,20.07.11,19.4,0,18.69c1.89-1.86,5.1-1.94,6.38-4.64-1.3-2.32-3.69-3.13-5.82-4.3L.07,7.5c1.44-1.88,3.42-.67,5.18-1L7.57,8.61H9.68c2.55-2.26,0-5.5,1.69-8.25L14,0c2.46,2.45-.12,5.69,2,8.64C18.94,9,21.61,4.88,25.42,7c.12.72.29,1.7.44,2.57L22.8,12.68l-3,.63c.42,3.72,3.88,3.29,6,4.9-.09.87-.19,1.84-.32,3H20.16L18,19.07l-1.55,3.76L15.32,22c-.15,1.7-.31,3.39-.49,5.37l-2.61.71c-2.75-1.46-.63-4.08-2-6-.06-.06-.31-.53-.57-.54C6.81,21.48,4,21.5.44,21.5Z"/></g></g></svg>