<svg xmlns="http://www.w3.org/2000/svg" viewBox="0 0 292.97 29.57" fill="white"><defs><style>.cls-1{opacity:0.85;}.cls-2{fill-rule:evenodd;}</style></defs><title>TrasRevistas_Titulo_deco2</title><g id="Layer_2" data-name="Layer 2"><g id="textos"><g class="cls-1"><path d="M147,0a3.9,3.9,0,0,0-2.86,1.19,4,4,0,0,0-1.2,2.87,3.83,3.83,0,0,0,1.2,2.76,4,4,0,0,0,5.73,0A3.78,3.78,0,0,0,151,4.06a3.93,3.93,0,0,0-1.15-2.87A3.9,3.9,0,0,0,147,0Zm3.12,9.53a4.91,4.91,0,0,1-1.35.57,4,4,0,0,1-1.72.1A21,21,0,0,1,148.93,18a10.89,10.89,0,0,1-1.51,6.51,22,22,0,0,0,.62-3.85,20.42,20.42,0,0,0-.1-4,18,18,0,0,0-1-3.75,9.88,9.88,0,0,0-2-3.17,10.41,10.41,0,0,1-.47,4.11,6.22,6.22,0,0,1-1.82,2.92,5.23,5.23,0,0,1-2.92,1.35,7.39,7.39,0,0,1-3.9-.73,3.62,3.62,0,0,0,1,2.76,4.75,4.75,0,0,0,2.6,1.3,5.63,5.63,0,0,0,3.12-.47,6.66,6.66,0,0,0,2.86-2.55,2.33,2.33,0,0,1,.1,1.56A10.55,10.55,0,0,1,145,21.5l-.78,1.56a3.94,3.94,0,0,0-.47,1.51,4.54,4.54,0,0,0,.57,2.86,5.61,5.61,0,0,0,1.82,2.13,3.06,3.06,0,0,0,2-1.66q.7-1.33,1.25-2.65a5.18,5.18,0,0,0,.36-1.82c.05-.68.05-1.36.05-1.93a13.18,13.18,0,0,1,.05-1.51c.05-.47.21-.73.47-.78a.62.62,0,0,1,.68.21,4.41,4.41,0,0,1,.57.73c.21.37.42.68.62,1a2.22,2.22,0,0,0,.94.78,3.08,3.08,0,0,0,2.76.26,4.21,4.21,0,0,0,2.29-2.08,12.43,12.43,0,0,1-3.85-2.19,13.27,13.27,0,0,1-2.5-2.7,9.87,9.87,0,0,1-1.35-2.92,9.54,9.54,0,0,1-.47-2.76ZM173.5.15a18.06,18.06,0,0,1-1.61,2.29,10.09,10.09,0,0,1-2.19,1.93,12.1,12.1,0,0,1-3.38,1.41,23.51,23.51,0,0,1-5.15.62,9,9,0,0,1-4.27-.73c-1.15-.57-2.39-1.25-3.7-2a2.57,2.57,0,0,1,.1.94,4.06,4.06,0,0,1-.21,1,19.5,19.5,0,0,0,4.11,2.34,13.13,13.13,0,0,0,5.21,1,21.08,21.08,0,0,0,6.19-.78,13,13,0,0,0,4.74-2.29,5.27,5.27,0,0,1-2.76,2.5,14.91,14.91,0,0,1-5.26,1.46,25.45,25.45,0,0,1-6.56-.1,20.71,20.71,0,0,1-6.72-2.13,12.07,12.07,0,0,0,4.48,2.76,16.66,16.66,0,0,0,5.1.83,32.49,32.49,0,0,0,5.47-.37c1.82-.31,3.64-.67,5.47-1s3.59-.78,5.36-1.09a27,27,0,0,1,4.79-.47,3,3,0,0,0-.21-2.55,6,6,0,0,0-1.82-2.4,2.09,2.09,0,0,0-1.51-.47,8.06,8.06,0,0,0-1.56.26c-.57.1-1.09.26-1.61.37a2.49,2.49,0,0,1-1.51-.16A2.22,2.22,0,0,0,175,1.35c-.1-.68-.63-1.09-1.51-1.2Zm6.77,2a8.14,8.14,0,0,1,2.34,2.29,4.2,4.2,0,0,1,.88,2.71A3.84,3.84,0,0,1,183,9c-.36.52-.73,1.09-1.09,1.61s-.68,1-1,1.51a3,3,0,0,0-.36,1.67,2.07,2.07,0,0,0,.83,1.25,4,4,0,0,0,1.61.62,5.4,5.4,0,0,0,2-.05,5,5,0,0,0,1.87-.68,5.81,5.81,0,0,0,2.29-2.71,3.54,3.54,0,0,0-.42-3.54,6.74,6.74,0,0,1-.88,2.34A6.93,6.93,0,0,1,186.47,13a5.84,5.84,0,0,1-1.82,1.15,2.32,2.32,0,0,1-1.93-.26A5.13,5.13,0,0,0,186.21,12a5.59,5.59,0,0,0,1.41-4.11A4.92,4.92,0,0,0,187,5.57a7.31,7.31,0,0,0-1.61-2A6.07,6.07,0,0,0,183,2.29a5,5,0,0,0-2.76-.15ZM146.7,1.77c.42,0,.62.16.62.52s-.21.68-.62.68-.52-.21-.52-.68.16-.52.52-.52Z"/><path d="M4.06,1.19A3.9,3.9,0,0,0,1.2,2.39,4,4,0,0,0,0,5.25,3.83,3.83,0,0,0,1.2,8a3.9,3.9,0,0,0,2.86,1.2A3.9,3.9,0,0,0,6.92,8,3.78,3.78,0,0,0,8.07,5.25,3.93,3.93,0,0,0,6.92,2.39a3.9,3.9,0,0,0-2.86-1.2ZM3.8,3c.42,0,.62.15.62.52s-.21.68-.62.68S3.28,4,3.28,3.49,3.43,3,3.8,3Z"/><path d="M289,2.08a3.67,3.67,0,0,1,2.81,1.2A3.67,3.67,0,0,1,293,6.09a3.63,3.63,0,0,1-1.2,2.76A3.67,3.67,0,0,1,289,10a3.81,3.81,0,0,1-2.91-1.2,4,4,0,0,1,0-5.57A3.81,3.81,0,0,1,289,2.08Zm.21,1.72c-.42,0-.62.21-.62.57a.55.55,0,0,0,.62.62c.36,0,.57-.21.57-.62a.52.52,0,0,0-.57-.57Z"/><path d="M120.56.15a21.37,21.37,0,0,0,1.56,2.24,8.76,8.76,0,0,0,2.19,1.93,14.14,14.14,0,0,0,3.44,1.46,22.61,22.61,0,0,0,5.1.62,8.85,8.85,0,0,0,4.27-.78,38.59,38.59,0,0,0,3.75-2,2.5,2.5,0,0,0-.16.94,4.22,4.22,0,0,0,.21.94,20.51,20.51,0,0,1-4.11,2.4,13.12,13.12,0,0,1-5.21,1,20.78,20.78,0,0,1-6.14-.78,12.2,12.2,0,0,1-4.74-2.29,5.4,5.4,0,0,0,2.71,2.55,16.12,16.12,0,0,0,5.26,1.46,28.54,28.54,0,0,0,6.61-.16A19.24,19.24,0,0,0,142,7.55a11.82,11.82,0,0,1-4.48,2.81,16.39,16.39,0,0,1-5.1.78,33.29,33.29,0,0,1-5.47-.37c-1.82-.31-3.64-.62-5.47-1s-3.59-.73-5.31-1a28,28,0,0,0-4.84-.47,3.11,3.11,0,0,1,.21-2.6,6.43,6.43,0,0,1,1.82-2.4,2.17,2.17,0,0,1,1.51-.47c.52.05,1,.15,1.61.26s1,.26,1.56.37a2.47,2.47,0,0,0,1.51-.16A2.11,2.11,0,0,1,119,1.35c.1-.73.62-1.09,1.56-1.2Zm-6.82,2a7.32,7.32,0,0,0-2.34,2.24,4.62,4.62,0,0,0-.88,2.7A3.41,3.41,0,0,0,111,9a17.05,17.05,0,0,0,1,1.61,12.79,12.79,0,0,1,1,1.56,2.49,2.49,0,0,1,.36,1.61A1.89,1.89,0,0,1,112.6,15a4,4,0,0,1-1.61.62,5.36,5.36,0,0,1-2-.05,5,5,0,0,1-1.82-.62,6,6,0,0,1-2.34-2.76,3.44,3.44,0,0,1,.42-3.49,7.71,7.71,0,0,0,.88,2.29,6.4,6.4,0,0,0,1.51,2,4.71,4.71,0,0,0,1.82,1.09,2.22,2.22,0,0,0,1.87-.26A5,5,0,0,1,107.81,12a5.55,5.55,0,0,1-1.41-4.06A4.64,4.64,0,0,1,107,5.57a6.73,6.73,0,0,1,1.61-2A7.29,7.29,0,0,1,111,2.24a5,5,0,0,1,2.76-.1Z"/><path class="cls-2" d="M188.24,3.75,289,5.2V6L189.38,7.65c.57-1.09-.21-2.6-1.15-3.9Z"/><path class="cls-2" d="M104.74,3.75,4.06,5.2V6l99.53,1.61c-.57-1.09.21-2.6,1.15-3.9Z"/></g></g></g></svg>