<svg xmlns="http://www.w3.org/2000/svg" viewBox="0 0 592.22 222.22"><defs><style>.cls-1{fill:#d79f2e;}</style></defs><title>VemosIndice1</title><g id="Layer_2" data-name="Layer 2"><g id="ornamentos"><path class="cls-1" d="M402.13,220.44a4.65,4.65,0,0,1-4.35,1c-.27-.3-.74-.58-.79-.92a30.31,30.31,0,0,1-.06-7.84c1.47-1.32,2.83-1.1,4.57-.39C402.72,214.86,401.68,217.76,402.13,220.44Z"/><path class="cls-1" d="M386.28,212c.77,3.14.07,6,.4,8.36-1.75,1.58-3.09,1.43-4.47.74-.23-.35-.59-.66-.65-1a33.86,33.86,0,0,1-.09-7.09C382.83,211.28,384.25,211.51,386.28,212Z"/><path class="cls-1" d="M354.92,212.18l0,8.27c-.08.1-.19.33-.35.4a5.22,5.22,0,0,1-1.68.6,16.31,16.31,0,0,1-2.61-.29c-.72-3-.31-5.88-.15-8.53C351.49,211.25,352.85,211.31,354.92,212.18Z"/><path class="cls-1" d="M370.08,212a24.21,24.21,0,0,1,.13,8.59,3.53,3.53,0,0,1-4.3.47c-.89-.94-.92-1.78-.33-8C366.52,211.65,367.88,211.43,370.08,212Z"/><path class="cls-1" d="M307.67,220.65c-1.46,1.19-3.2.89-5.33,0a24.23,24.23,0,0,1-.07-7.27c1.51-1.71,3.29-1.29,5.08-.81a4.34,4.34,0,0,1,.34,1.14C307.71,215.94,307.68,218.19,307.67,220.65Z"/><path class="cls-1" d="M119,220.38c-1.82,1.44-3.15,1.44-4.92.37a31.23,31.23,0,0,1-.11-7.22,3.3,3.3,0,0,1,4.29-1.51C119.79,214.82,118.61,217.83,119,220.38Z"/><path class="cls-1" d="M130.23,220.9a38.94,38.94,0,0,1-.15-8.16c1.91-1.54,3.31-1.05,4.84.49l0,6.47a2.73,2.73,0,0,1-2.51,1.77A8.22,8.22,0,0,1,130.23,220.9Z"/><path class="cls-1" d="M9,220.93l-2.75,1.28L4,220.86c0-1.68-.13-3.31-.13-4.94,0-1,.1-2,.13-2.64,1.59-1.55,3-.9,4.53-.9C9.44,215.23,9,217.86,9,220.93Z"/><path class="cls-1" d="M192.15,212.63c2.07-.91,3.44-1.11,5,.2.05,1.61.17,3.45.17,5.3,0,1-.18,2-.28,3.06l-3.67.28a7.25,7.25,0,0,1-1.23-2.45C192,217,192.14,214.87,192.15,212.63Z"/><path class="cls-1" d="M176.36,211.93l4.88,0c1.49,2.63.47,5.34.7,7.69-1.2,1.56-2.61,1.79-4.4,1.88C175.83,218.69,177.31,215.59,176.36,211.93Z"/><path class="cls-1" d="M145.51,213.37c1.53-1.65,2.81-2,4.69-1,.73,2.6.11,5.47.18,8.18-1.8,1.57-3.2,1.1-4.64-.39C145.06,217.84,145.5,215.39,145.51,213.37Z"/><path class="cls-1" d="M418.27,219.67c-1.39,2-2.75,2.08-4.19,1.75-.33-.4-.75-.69-.82-1a36.17,36.17,0,0,1-.14-7.91c3.26-1.47,4.62.41,6.1,2.31l-1.4,1.38C418,217.23,418.11,218.43,418.27,219.67Z"/><path class="cls-1" d="M338.75,220.34c-1.48,1.45-2.86,1.23-4.51.67-1.22-2.16-.43-4.66-.5-7,0-.68.68-1.38.92-1.84.52-.2.71-.34.89-.32,1,.07,1.94.19,3.18.32.07,1,.2,2,.19,3C338.9,217,338.8,218.79,338.75,220.34Z"/><path class="cls-1" d="M20.26,212.18l4.31,0c1.32,2.72.63,5.53.44,8.57l-4.64.83A26.74,26.74,0,0,1,20.26,212.18Z"/><path class="cls-1" d="M223.66,212.45a24.25,24.25,0,0,1,3-.48,9.26,9.26,0,0,1,2,.53,29,29,0,0,1,0,7.66c-1.68,1.27-3,1.2-4.33.3-.15-.18-.39-.34-.4-.51C223.9,217.66,223.8,215.37,223.66,212.45Z"/><path class="cls-1" d="M322.89,221.27c-1.13,0-1.94,0-2.73,0a3.68,3.68,0,0,1-1.09-.46c-.88-.91-.92-2.58-.17-7.69a3.07,3.07,0,0,1,3.89-.22C323.72,214,323.75,215.05,322.89,221.27Z"/><path class="cls-1" d="M260.3,221.34l-4.24,0c-1.34-2.71-.38-5.36-.79-8.17a22.66,22.66,0,0,1,2.72-.6,9.87,9.87,0,0,1,2,.33C261,215.46,260.55,218.08,260.3,221.34Z"/><path class="cls-1" d="M291.82,212.43a27.35,27.35,0,0,1,0,8.13,8,8,0,0,1-1.87.68,13.74,13.74,0,0,1-2.23-.19c-.36-.53-.77-.85-.78-1.19,0-2.24,0-4.48,0-6.46C288.51,211.51,290,212.24,291.82,212.43Z"/><path class="cls-1" d="M239.71,212.24l4.65,0c1.54,2.51.39,5.19.88,7.58-2.33,1.19-2.33,1.19-5.05.7C239.43,218.06,240.16,215.46,239.71,212.24Z"/><path class="cls-1" d="M212.92,212.35l0,7.62c-1.12,1.47-2.55,1.12-4,.78-.25-.34-.71-.66-.72-1-.05-2.29,0-4.58,0-6.83C209.36,211.56,210.77,211.74,212.92,212.35Z"/><path class="cls-1" d="M271.73,212.39l4.24,0c1.09,2.72.78,5.33.58,7.74-1.46,1.4-2.81,1.25-4.54.51C271.19,218.26,271.44,215.65,271.73,212.39Z"/><path class="cls-1" d="M40.67,221.28l-4.71,0c-1.38-2.46-.49-5.17-.6-7.61,1.27-1.63,2.76-1.1,4.27-1C41.22,215.21,40,217.94,40.67,221.28Z"/><path class="cls-1" d="M103.46,221.58l-4.35,0c-1.31-2.43-.59-5.1-.63-7.52,1.27-1.59,2.7-1.21,4.35-.85C104.22,215.59,103.44,218.26,103.46,221.58Z"/><path class="cls-1" d="M66.75,212.41l4.46,0c1.53,2.45.73,5.15.74,7.62-1.25,1.6-2.71,1.1-4,1-.34-.42-.8-.73-.83-1.07C66.93,217.72,66.87,215.43,66.75,212.41Z"/><path class="cls-1" d="M161.75,212.41c1.66-.84,2.62-.88,3.67.17.31,2.21.65,4.64,1,7.41l-3.58,1.75-1.7-1.27c.1-1.46.18-2.88.28-4.3C161.54,215,161.64,213.72,161.75,212.41Z"/><path class="cls-1" d="M87,211.82a25.25,25.25,0,0,1,.06,9.17l-2.82.42c-.45-.53-.85-.8-.94-1.14a24.17,24.17,0,0,1-.62-7.45Z"/><path class="cls-1" d="M55.58,221.11l-2.81.26c-.41-.39-.92-.63-1-1-.4-2.41-.71-4.84-1.11-7.63l4.51-.37C56.27,215.28,55.92,217.9,55.58,221.11Z"/><path class="cls-1" d="M373.32,212.12l1.61.92c.2,2.43.62,4.87-.35,7.25-.12.3-.63.45-1,.67C372.61,217.77,372.6,217.56,373.32,212.12Z"/><path class="cls-1" d="M232.1,212.48l1.41.41a44.54,44.54,0,0,1,0,6.64c0,.35-.4.69-.61,1l-1.44-.45c0-2.12-.06-4.37,0-6.62C231.47,213.16,231.88,212.82,232.1,212.48Z"/><path class="cls-1" d="M309.71,213.25l1.78-.58c1,2.61.67,5.22,0,7.82,0,.19-.67.25-1.24.44C309.34,218.52,309.94,216,309.71,213.25Z"/><path class="cls-1" d="M299.76,221.92c-1.91-4.08-1.92-4.64-.66-9.12.36.08,1,.08,1,.25A14,14,0,0,1,299.76,221.92Z"/><path class="cls-1" d="M343.34,221.25c-3.25-2.3-1.73-5.17-2-7.76l1.81-.79C344.1,215.55,343.52,218.18,343.34,221.25Z"/><path class="cls-1" d="M12.12,212.31a8.74,8.74,0,0,1,1.48,1.28,1.8,1.8,0,0,1,.11,1.2,28.64,28.64,0,0,0-.61,3,15.32,15.32,0,0,0,.35,2.77l-1.59.35A14.66,14.66,0,0,1,12.12,212.31Z"/><path class="cls-1" d="M158.62,213a11.51,11.51,0,0,1,0,7.27l-1.62-.39c-.07-1.9-.15-3.89-.23-5.93Z"/><path class="cls-1" d="M377.16,213.27l1.39-.35c.93,2.62.39,5.25.42,7.8-1.32.43-2.13-.6-1.87-1C378.55,217.59,376.13,215.72,377.16,213.27Z"/><path class="cls-1" d="M201.83,220.55c-3.32-1.67-.76-4.57-1.72-6.61-.13-.27.84-1.07,1.72-2.13A35.92,35.92,0,0,1,201.83,220.55Z"/><path class="cls-1" d="M262.92,213l1.35-.39c.42,2.72,1.52,5.48-1.39,7.95Z"/><path class="cls-1" d="M15.15,213.4l2-1c.39,3,1.1,5.76-.3,8.48,0,.1-.39.05-.78.09a31.37,31.37,0,0,0,0-4A24.07,24.07,0,0,0,15.15,213.4Z"/><path class="cls-1" d="M172.12,212.5l1.73-.33c1.2,3,.19,6,.62,9.64-2.06-1.8-1.32-3.34-1.54-4.69S172.44,214.3,172.12,212.5Z"/><path class="cls-1" d="M296.1,212.78c-.5,2.6-.54,5,.84,7.26l-1.72,1C294,215.89,294.05,214.6,296.1,212.78Z"/><path class="cls-1" d="M409.25,213.13c1.45,1.08,1.45,1.08.44,7.17C408.15,219.22,408.15,219.22,409.25,213.13Z"/><path class="cls-1" d="M122,213.12l1.12.21c1.21,1.26-.58,2.25-.32,3.46s1.46,2.23,0,3.35C121,218.76,121,218.68,122,213.12Z"/><path class="cls-1" d="M170.08,220.38c-1.46-1.32-.7-2.86-1-4.21-.22-1.18-.49-2.34-.71-3.38,1-1.11,1.88-.56,2,.21C170.6,215.4,170.94,217.87,170.08,220.38Z"/><path class="cls-1" d="M58.44,213.31l1.7-.48a19.82,19.82,0,0,1,.13,8.09c-1.5-1.11-.82-2.43-1-3.57S58.77,214.93,58.44,213.31Z"/><path class="cls-1" d="M153.05,212.55c1.72,7.08,1.72,7.08.65,7.76-.24-.31-.67-.63-.68-.95C153,217.09,153,214.82,153.05,212.55Z"/><path class="cls-1" d="M78.87,212.88c1.25,1.23.62,2.54.83,3.7s.39,2.33.56,3.4l-1.12.81c-.15-.06-.42-.09-.44-.18A15.73,15.73,0,0,1,78.87,212.88Z"/><path class="cls-1" d="M.59,221.56a15.2,15.2,0,0,1,.09-8.71A14.24,14.24,0,0,1,.59,221.56Z"/><path class="cls-1" d="M406.12,220.06l-1.2.09c-.81-5.65-.81-5.65,1.22-7.27-.14,1.44-.34,2.57-.34,3.7A34.09,34.09,0,0,0,406.12,220.06Z"/><path class="cls-1" d="M345.47,218.53c.27-1.19.49-2,.61-2.82s.11-1.59.18-2.64c.59.31,1,.44,1,.57,0,2.28,0,4.55,0,7.06C345.8,220.72,346,219.43,345.47,218.53Z"/><path class="cls-1" d="M269,221.64c-1-1.84-1.49-2.62-1.88-3.32.38-1.89.74-3.62,1.29-6.31C269.47,215.44,268.93,217.93,269,221.64Z"/><path class="cls-1" d="M361.91,220.66a31.25,31.25,0,0,1-.39-8.83C363,214.72,363,214.72,361.91,220.66Z"/><path class="cls-1" d="M390,212.46a17.43,17.43,0,0,1,.55,6.09,27.37,27.37,0,0,1-.32,2.81C388.77,218.27,388.77,218.27,390,212.46Z"/><path class="cls-1" d="M393.89,212.4c.64,2.93.56,5.73.25,9.75C392.63,217.57,392.61,216.66,393.89,212.4Z"/><path class="cls-1" d="M190.57,220.25l-2,.13a15.74,15.74,0,0,1-.32-2.36,19.27,19.27,0,0,1,.53-6.15C190.28,214.83,189,217.58,190.57,220.25Z"/><path class="cls-1" d="M220.19,220.52a25.91,25.91,0,0,1-.25-7.8c1.7,0,1.36,1.38,2,2.15-.22.88-.48,1.83-.68,2.79S221.49,219.74,220.19,220.52Z"/><path class="cls-1" d="M236.75,220.67a6.94,6.94,0,0,1-.57-1.83c0-2-.29-4,.34-6.31C237.84,215.73,237.85,216.34,236.75,220.67Z"/><path class="cls-1" d="M248.5,212a25.28,25.28,0,0,1,.23,9C247.24,217.59,247.23,217,248.5,212Z"/><path class="cls-1" d="M252.2,220.44c-.23-.28-.64-.55-.66-.84-.18-2.23,0-4.45,0-7.39C253,215.31,253,215.8,252.2,220.44Z"/><path class="cls-1" d="M280.08,211.72a19.83,19.83,0,0,1,.46,3.33c-.15,1.82.48,3.73-.44,5.6-.38-.3-.87-.5-.86-.7C279.25,217.53,278.75,215.05,280.08,211.72Z"/><path class="cls-1" d="M283.36,221.69c-.15-2.66-.28-4.28-.32-5.9,0-1-.38-2.09.5-2.95C284.79,215.37,284.79,215.89,283.36,221.69Z"/><path class="cls-1" d="M185.25,211.33a19.05,19.05,0,0,1,0,8.81C184.28,217.62,184.24,215.1,185.25,211.33Z"/><path class="cls-1" d="M137.91,219.85c-.08-1.62-.21-3.23-.24-4.85,0-.79.12-1.59.25-3.07,2.06,2.92.28,5.41,1.35,7.7Z"/><path class="cls-1" d="M315.83,213.18c0,2.19,0,4.39-.06,6.59,0,.3-.39.6-.81,1.21a12.8,12.8,0,0,1-.41-2.55C314.65,216.65,314.22,214.81,315.83,213.18Z"/><path class="cls-1" d="M326.33,220.49a9.77,9.77,0,0,1-.28-1.76,27.24,27.24,0,0,1,.48-5.54A9,9,0,0,1,326.33,220.49Z"/><path class="cls-1" d="M330.66,212.53c.84,2.94.59,5.47.3,8.74C329.52,217.58,329.52,217.09,330.66,212.53Z"/><path class="cls-1" d="M357.8,213.18c1.2,5.21,1.2,5.21.25,7.85a6.7,6.7,0,0,1-.54-1.84C357.54,217.18,357.69,215.18,357.8,213.18Z"/><path class="cls-1" d="M575.13,220.51a4.69,4.69,0,0,1-4.35,1c-.27-.31-.74-.59-.79-.93a30.31,30.31,0,0,1-.06-7.84c1.47-1.32,2.83-1.1,4.57-.39C575.72,214.93,574.68,217.83,575.13,220.51Z"/><path class="cls-1" d="M559.28,212.08c.77,3.14.07,6,.4,8.37-1.75,1.57-3.09,1.42-4.47.74-.23-.36-.59-.67-.65-1a33.85,33.85,0,0,1-.09-7.09C555.83,211.35,557.25,211.58,559.28,212.08Z"/><path class="cls-1" d="M527.92,212.25l0,8.27c-.08.11-.19.33-.35.4a5.22,5.22,0,0,1-1.68.6,16.31,16.31,0,0,1-2.61-.29c-.72-3-.31-5.88-.15-8.52C524.49,211.32,525.85,211.38,527.92,212.25Z"/><path class="cls-1" d="M543.08,212.05a24.26,24.26,0,0,1,.13,8.6,3.54,3.54,0,0,1-4.3.46c-.89-.94-.92-1.78-.33-8C539.52,211.72,540.88,211.5,543.08,212.05Z"/><path class="cls-1" d="M480.67,220.73c-1.46,1.18-3.2.89-5.33,0a24.29,24.29,0,0,1-.07-7.28c1.51-1.71,3.29-1.29,5.08-.81a4.34,4.34,0,0,1,.34,1.14C480.71,216,480.68,218.26,480.67,220.73Z"/><path class="cls-1" d="M591.27,219.74c-1.39,2-2.75,2.09-4.19,1.75-.33-.4-.75-.68-.82-1a36.17,36.17,0,0,1-.14-7.91c3.26-1.47,4.62.41,6.1,2.31l-1.4,1.38C591,217.3,591.11,218.51,591.27,219.74Z"/><path class="cls-1" d="M511.75,220.41c-1.48,1.45-2.86,1.23-4.51.67-1.22-2.16-.43-4.66-.5-7,0-.69.68-1.39.92-1.85.52-.19.71-.34.89-.32,1,.08,1.94.19,3.18.33.07,1,.2,2,.19,3C511.9,217,511.8,218.86,511.75,220.41Z"/><path class="cls-1" d="M495.89,221.34c-1.13,0-1.94,0-2.73,0a3.65,3.65,0,0,1-1.09-.45c-.88-.91-.92-2.58-.17-7.7a3.08,3.08,0,0,1,3.89-.22C496.72,214,496.75,215.12,495.89,221.34Z"/><path class="cls-1" d="M433.3,221.41l-4.24,0c-1.34-2.72-.38-5.36-.79-8.17a20.85,20.85,0,0,1,2.72-.6,9.13,9.13,0,0,1,2,.32C434,215.53,433.55,218.15,433.3,221.41Z"/><path class="cls-1" d="M464.82,212.51a27.29,27.29,0,0,1,0,8.12,8,8,0,0,1-1.87.68,12.7,12.7,0,0,1-2.23-.19c-.36-.53-.77-.85-.78-1.19,0-2.24,0-4.48,0-6.46C461.51,211.58,463,212.31,464.82,212.51Z"/><path class="cls-1" d="M444.73,212.46l4.24,0c1.09,2.72.78,5.33.58,7.74-1.46,1.4-2.81,1.25-4.54.51C444.19,218.33,444.44,215.73,444.73,212.46Z"/><path class="cls-1" d="M546.32,212.2l1.61.91c.2,2.43.62,4.87-.35,7.25-.12.3-.63.45-1,.67C545.61,217.84,545.6,217.63,546.32,212.2Z"/><path class="cls-1" d="M482.71,213.32l1.78-.58c1,2.62.67,5.22,0,7.82,0,.2-.67.25-1.24.44C482.34,218.59,482.94,216.1,482.71,213.32Z"/><path class="cls-1" d="M472.76,222c-1.91-4.08-1.92-4.64-.66-9.12.36.08,1,.08,1,.25A14,14,0,0,1,472.76,222Z"/><path class="cls-1" d="M516.34,221.32c-3.25-2.3-1.73-5.17-2.05-7.75l1.81-.8C517.1,215.62,516.52,218.25,516.34,221.32Z"/><path class="cls-1" d="M550.16,213.34l1.39-.34c.93,2.61.39,5.25.42,7.8-1.32.42-2.13-.6-1.87-1C551.55,217.66,549.13,215.79,550.16,213.34Z"/><path class="cls-1" d="M435.92,213.06l1.35-.4c.42,2.72,1.52,5.48-1.39,8Z"/><path class="cls-1" d="M469.1,212.86c-.5,2.59-.54,5,.84,7.25l-1.72,1C467,216,467.05,214.67,469.1,212.86Z"/><path class="cls-1" d="M582.25,213.2c1.45,1.08,1.45,1.08.44,7.18C581.15,219.29,581.15,219.29,582.25,213.2Z"/><path class="cls-1" d="M579.12,220.13l-1.2.09c-.82-5.65-.82-5.65,1.22-7.27-.14,1.44-.34,2.57-.34,3.7A34.09,34.09,0,0,0,579.12,220.13Z"/><path class="cls-1" d="M518.47,218.61c.27-1.19.49-2,.61-2.82s.11-1.6.18-2.64c.59.31,1,.43,1,.56,0,2.28,0,4.55,0,7.06C518.8,220.79,519,219.5,518.47,218.61Z"/><path class="cls-1" d="M442,221.71l-1.88-3.31c.38-1.9.74-3.63,1.29-6.32C442.47,215.51,441.93,218,442,221.71Z"/><path class="cls-1" d="M534.91,220.73a31.25,31.25,0,0,1-.39-8.83C536,214.79,536,214.79,534.91,220.73Z"/><path class="cls-1" d="M563,212.53a17.43,17.43,0,0,1,.55,6.09,27.37,27.37,0,0,1-.32,2.81C561.77,218.35,561.77,218.35,563,212.53Z"/><path class="cls-1" d="M566.89,212.48c.64,2.92.56,5.73.25,9.74C565.63,217.65,565.61,216.73,566.89,212.48Z"/><path class="cls-1" d="M421.5,212.07a25.28,25.28,0,0,1,.23,9C420.24,217.66,420.23,217.11,421.5,212.07Z"/><path class="cls-1" d="M425.2,220.51c-.23-.28-.64-.54-.66-.84-.18-2.23,0-4.45,0-7.38C426,215.38,426,215.87,425.2,220.51Z"/><path class="cls-1" d="M453.08,211.8a19.63,19.63,0,0,1,.46,3.32c-.15,1.83.48,3.73-.44,5.6-.38-.3-.87-.5-.87-.7C452.25,217.6,451.75,215.12,453.08,211.8Z"/><path class="cls-1" d="M456.36,221.76c-.15-2.66-.28-4.28-.32-5.9,0-1-.38-2.08.5-3C457.79,215.45,457.79,216,456.36,221.76Z"/><path class="cls-1" d="M488.83,213.25c0,2.2,0,4.39-.06,6.59,0,.31-.39.6-.81,1.21a12.8,12.8,0,0,1-.41-2.55C487.65,216.72,487.22,214.88,488.83,213.25Z"/><path class="cls-1" d="M499.33,220.56a9.66,9.66,0,0,1-.28-1.75,27.39,27.39,0,0,1,.48-5.55A9,9,0,0,1,499.33,220.56Z"/><path class="cls-1" d="M503.66,212.6c.84,2.94.59,5.47.3,8.74C502.52,217.65,502.52,217.16,503.66,212.6Z"/><path class="cls-1" d="M530.8,213.25c1.2,5.21,1.2,5.21.25,7.86a6.75,6.75,0,0,1-.54-1.85C530.54,217.26,530.69,215.25,530.8,213.25Z"/><path class="cls-1" d="M28.3,221a6.73,6.73,0,0,1-.55-1.89c0-2-.28-4.07.3-6.47C29.31,215.94,29.32,216.34,28.3,221Z"/><path class="cls-1" d="M32.08,221a6.52,6.52,0,0,1-.61-1.9c.08-2.05-.39-4.16.36-6.48C33.18,215.64,33.2,216.43,32.08,221Z"/><path class="cls-1" d="M43.65,212.86c.21.34.6.68.6,1a38,38,0,0,1-.24,7.25C42.66,217.6,42.65,216.66,43.65,212.86Z"/><path class="cls-1" d="M47.58,213.17c.17.35.49.69.49,1,0,2-.14,4-.24,6.06,0,.17-.26.31-.58.69A12.7,12.7,0,0,1,47.58,213.17Z"/><path class="cls-1" d="M63.84,220.6c-1-1.9-.8-3.94-.77-6a10.51,10.51,0,0,1,.68-2.19C64.92,215.47,64.25,218,63.84,220.6Z"/><path class="cls-1" d="M75.83,213.4c0,1.59.06,3.19,0,4.78,0,.78-.12,1.56-.21,2.66C74.24,218.38,74.24,218.38,75.83,213.4Z"/><path class="cls-1" d="M91.63,220.81c-1.17-2.54-.32-5.05-.26-7.57A14.43,14.43,0,0,1,91.63,220.81Z"/><path class="cls-1" d="M95.93,213.54c0,1.84.06,3.69,0,5.53a16.31,16.31,0,0,1-.54,2.41C94.13,218.35,94.9,215.85,95.93,213.54Z"/><path class="cls-1" d="M107,213.27a30.09,30.09,0,0,1,.16,7.73C105.79,218.12,105.77,217.62,107,213.27Z"/><path class="cls-1" d="M110.67,220.65c-.92-2.51-.64-4.93-.28-7.34C111.74,215.76,110.93,218.26,110.67,220.65Z"/><path class="cls-1" d="M125.85,212.9c2,1.42,2,1.42,1.1,7-.12-.13-.34-.26-.36-.41C126.34,217.36,126.11,215.24,125.85,212.9Z"/><path class="cls-1" d="M204.67,220c0-2.21,0-4.41.06-6.62,0-.29.43-.57.87-1.12a17.31,17.31,0,0,1,.34,2.55c0,1.8-.11,3.59-.18,5.38Z"/><path class="cls-1" d="M216.67,212.57c.21.31.6.62.61.94a47.6,47.6,0,0,1-.06,7.23C215.77,217.68,215.77,217.68,216.67,212.57Z"/><path class="cls-1" d="M142.24,213.49a15.3,15.3,0,0,1,.21,7.51A9.17,9.17,0,0,1,142.24,213.49Z"/><path d="M339.49,14.54l8.5,7.75c-.79,1.92,2.16,2.4,1.4,5.06l-3.67,2c.8,0,.27,0-.28,0-1.52-1.63-.42-3.62-.73-5.41-1.92-2.56-8.86-6.08-8.86-6.08H299.94l-1.87-1.64H294.2s-2.75-3.28-4.26-5.17c-3.29.86-6.74,6-6.74,6h-3a6.7,6.7,0,0,0-1.82.82H242.73c-1.32.85-2.41,1.47-4.36,2.58-1.17,1.18-5,5.09-5,5.09v3.11s-3,.84-4.55.41a2.66,2.66,0,0,1-.41-.64,1.08,1.08,0,0,1,0-.81c1.66-2.6,1.86-5.77,3.29-8.44a5.4,5.4,0,0,1,3.46-2.93c1.91-.54,3.6-1.83,5.92-3.29H277.8a31.6,31.6,0,0,0,5.36-3.12,45.35,45.35,0,0,0,4.08-4c.1-1.82.21-3.66.32-5.63L290.37,0c.53,2.46.17,4.87.29,7.17,1.88,2.72,8.17,6.62,8.17,6.62h38.11S339.33,14.44,339.49,14.54Z"/></g></g></svg>