<svg xmlns="http://www.w3.org/2000/svg" viewBox="0 0 902.78 46.69"><title>VemosTitulo</title><g id="Layer_2" data-name="Layer 2"><g id="ornamentos"><path d="M144.14,24.62V22.57s1.73-1.8,2.7-2.85h3.51c1.46-.66,2.15-2.61,4.12-1.9a20.88,20.88,0,0,1,2,2.85h3.83c1.68-1.68,1.4-3.82-.87-6.92a3.26,3.26,0,0,1,.4-.71c.46-.5.95-1,1.45-1.46V8.26l2.94-5.71h3.86c.83,1.79,2.64,3.91,2.52,5.92-.16,2.54,2.48,3.57,2.14,5.77-.42,1.73-4,2.89-.8,5.1l1.54-1.53H181c2.09,1.58,5.5,1.83,7,4.83-.06.58-.12,1.19-.18,1.79-.76.75-.76.75-6.35.77-1.1,1.62-3.34,1.46-4.55,2.63-1.59,1.52-4.3,1-5.35,3.26-.74,1.59-1.59,3.14-2.65,5.24v8.79c-1.54,1.71-3.37.91-5.58.5-.41-2.61.06-5.41-.22-8.15-2.36-1.29-1.74-4.48-4-5.95s-3.41-4.5-6.64-4.63C150.56,23.82,147.25,26,144.14,24.62Z"/><path d="M27.68,19.75a36.12,36.12,0,0,0,3.13-2c1.74-.17,4.59,0,7.41,0,1.8,2.27,5.42,2,6.71,4.83v2c-.25.25-.43.58-.7.68-2.52.95-5.82-1.1-7.77,2-2.51.09-4.28,2-6.49,2.8-.48.19-.49,1.63-.71,2.49L25.87,36c-.29,3.41.31,6.87-.4,10.42h-4.7c-1.33-1.5-.52-3.16-.68-4.67a36.49,36.49,0,0,1,0-3.77c-.48-.49-1.09-.86-1.35-1.4-1-2.13-1.89-4.32-2.81-6.46L6.5,25.44H.63C.4,24.53.17,23.65,0,23c1.37-3.17,5-2.85,6.83-5.17H12.7c1.18.65,1.91,2.6,3.93,1.87.23-.21.67-.42.67-.64,0-3.86,0-7.71,0-10.65l3-6c1.22-.85,2.81,0,4.2-.29.94,1.79,1.78,3.4,2.88,5.52,0,3.58,0,7.8.28,12.08-1.25.15-2.75,0-1.43,1.71C26.7,20.93,27.15,20.4,27.68,19.75Z"/><path d="M865.51,25.44h-5.93l-4.17-3.07c.26-1,.22-1.94.57-2.14,1.28-.71,2.7-1.19,5.67-2.42h10.59c1.06-3.72.06-7.28.72-10.87,2.54-1.65,1.38-7.18,6.46-6.8,1,1.78,2.42,3.48,3,5.42.51,1.75.11,3.77.11,5.31l1.73,1.73c-.72,1.24-1.44,2.48-2.06,3.57,2.13,2.68,3.54,1.43,5-.27H893a54.07,54.07,0,0,1,5.34,3,46.62,46.62,0,0,1,4.48,4.4l-7.71.36c-2.17,1.65-2.17,1.65-5.08,1.83-1.8.48-5.5,4.7-9.47,11v7.33c-1.73,1.4-3.35.62-4.86.77-.29-.52-.83-1-.84-1.56-.08-2.88,0-5.76,0-8.36ZM877.85,29l.68-.68a5.51,5.51,0,0,0-1.28-.6c-.16,0-.41.38-.63.6Z"/><path d="M453.19,35.23v9.13l-2.72.46-3-2.62V36.42s-2.88-2.12-1.88-4c-2.32-3.26-5.33-5.29-9.78-7-1.63-.06-4.41,0-7,0-.23-1.19-.35-1.77-.55-2.8a24.45,24.45,0,0,1,3.19-2.87c.94-.61,2.18-.77,5.18-2h6.14a15.81,15.81,0,0,0,2,1.83c1.32-2.29.56-4.52.69-6.65.12-1.89,0-3.79,0-5.68,2.73-1.4,1.4-5.66,5.17-6.3,1.14,1.2,2.64,2.8,4.44,4.56V9.06a26.48,26.48,0,0,0,1.84,2.12c.68,1.9-1.07,2.68-1.91,3.9.32,1.47-.68,3.16.85,4.53a5.82,5.82,0,0,1,2-.85h10.24c1.7,1.56,4,2.79,5.13,4.74-.23.7-.4,1.21-.63,1.94h-7.28c-2.69,1.56-5.41,2.19-7.55,4C455.87,31,455.77,33.47,453.19,35.23Zm-.76-12,.68-.68a5.91,5.91,0,0,0-1.28-.59c-.16,0-.42.38-.63.59Z"/><path d="M719.94,25.44l-5.24-2.8c-.05-.57-.11-1.19-.19-2l5.34-2.86H729l1.45,1.48c1.26-1.39,1.12-2.45-.67-4.9V9.23a14.32,14.32,0,0,0,1.84-2.82c.32-.85.07-1.92.07-3.81L735.29,0a20.54,20.54,0,0,1,2,.85c2.42,1.27,1.66,4.75,4,6.08v7.72l-1.82,2.07c.28.29.5.72.73.72,4.41,0,8.83,0,13.56,0l4.35,5.24c-.79,2.24-3.11,0-4.52.91-1.15,2.05-3.08,1.86-4.35,1.84l-8.91,9.12c-1.58,1,0,3.23-2,4.64s-.2,3.69-1.35,5.47l-2.5.26c-1.68-2.13-.53-4.47-.86-6.65-1.6-1.14-1.38-3.64-2.65-4.6-1.63-1.24-.13-5.16-3.74-4.35L723,25.44Z"/><path d="M331,25.44h-7a15,15,0,0,1-2,1.07c-4.12,1.28-6.47,4.72-9.42,7.32-1,1.9.62,4.63-2.4,6v6.43l-2.79.41c-2.5-1.71,1-5.65-2.94-6.24V34.24c-3.12-3.4-5.86-7.15-10.3-8.8h-5.76l-.82-2.22c1.32-3.49,4.78-3.6,7.11-5.28.89-.63,2.78-.42,4.22.75s1.65.87,4.95.64c2.23-2.34-.8-3.13-1.3-4.67V9.58c1.62-2.56,2.06-5.94,4.93-7.65,2.71-.24,3.72,1.69,4.62,3.84.47,1.12,1.11,2.17,1.89,3.66v5.34L312,16.89c0,.69.07,1.33.1,2,2.08,2.29,3.27.32,4.64-1.05h7.55C326.17,20.44,331.79,19.69,331,25.44Zm-23.2-9.27-1.21,0c-.11.85-.27,1.7-.3,2.55,0,.21.46.65.61.61.45-.13,1.18-.42,1.2-.68A12.85,12.85,0,0,0,307.76,16.17Z"/><path d="M588.63,20.45V6.11L591.79.54a4,4,0,0,1,4.32,2.94,7.09,7.09,0,0,0,2.06,3.7v9.64l-2,2.31,2.72.73,2.16-2.05h9.37c.91,2.11,3.81,1.47,4.64,2.64.37,2.89-1.53,3.41-2.51,4.93l-1.89-1.5c-2.64,1.59-5.63,2.67-8.3,4.24-2.91,1.71-4.6,4.81-6.07,7.9,0,2.55,0,5.09,0,7.64,0,.23-.39.46-.74.86H591.2c-1.32-1.53-.53-3.18-.68-4.69a25.28,25.28,0,0,1,0-3.1,44.67,44.67,0,0,0-2.77-5.28A42.55,42.55,0,0,0,584,27.34c-2.24.8-2.92-1.17-4.4-1.9h-5.39l-2.84-2.84,4.9-4.79h9.6Z"/></g></g></svg>