<svg xmlns="http://www.w3.org/2000/svg" viewBox="0 0 950.49 949.39" preserveAspectRatio="none"><defs><style>.cls-1{fill:#d79f2e;}</style></defs><title>VemosMarco2</title><g id="Layer_2" data-name="Layer 2"><g id="ornamentos"><path class="cls-1" d="M3.85,5.11c-1-1.79-1-3.13.39-4.62l6,0c20.21,0,40.42,0,60.62.14Q122,.89,173.15,1.2c5.26,0,10.52,0,15.79-.06,1.47,0,2.94-.07,4.4-.22A30.24,30.24,0,0,1,197,.33c2.45,0,4.9.37,7.35.56,1.67.13,3.35.33,5,.33q8.73,0,17.42-.62c4.39-.32,8.83,0,13.24.12,1.83,0,3.7.49,5.48.26,6.3-.83,12.57-.39,18.86-.12,2.27.09,4.56-.24,6.85-.24q55.26.1,110.52.24c2.52,0,5.05-.06,7.57,0,2.74,0,5.5-.1,8.21.18,2.52.26,4.95-1,7.45-.22,4.91-.77,9.88-.31,14.82-.64s9.68,0,14.52,0c5,0,10.11,0,15.16,0q42.32.11,84.62.22,48.63.16,97.26.4c2.91,0,5.82-.13,8.72-.16s5.8.13,8.7.24c3.3.13,6.53-.86,9.91-.08,3,.7,6.21-.38,9.34,0a14.6,14.6,0,0,0,3.08-.45c1.46-.14,3.06-.6,4.36-.18,3.89,1.24,7.85,0,11.75.72,2.63.49,5.24-.7,8,0,2.59.63,5.44.24,8.18.13,2.07-.08,4.22-.88,6.18-.51a13,13,0,0,0,5.53-.16,6.61,6.61,0,0,1,2.5.1c3.29.56,6.58,1.17,9.87,0,3.52,1.06,7-.3,10.56-.09,6.28.37,12.61-.56,18.87.69,3.07-1.06,6.25-.52,9.38-.51,2.29,0,4.57.43,6.86.65a13.76,13.76,0,0,0,3.12.2c4.32-.61,8.65,0,13-.26a47.29,47.29,0,0,1,9.14.07c2.09.26,4.14-.2,6.13.16,2.17.39,4.14-.16,6.21-.41a24.3,24.3,0,0,1,6.25.27c3.91.57,7.78-.27,11.68-.16,5.83.17,11.67-.12,17.51-.12,2.09,0,4.17.3,6.26.42a24,24,0,0,0,3.69.07,83.93,83.93,0,0,1,20.71.19,4.44,4.44,0,0,0,1.24.13C886.72.27,895.35,1.39,904,1.2s17.26,0,25.89.14c2.29,0,4.63,1,6.84.66,3-.42,5.79.36,8.69.31a4.8,4.8,0,0,1,1.19.29c1.05.78.94,1.75.43,2.81-1.43,1.22-3.19.75-4.82.75-12.21,0-24.42-.1-36.63-.16-13.47-.07-26.95-.23-40.42-.16-5.61,0-11.19-.65-16.82-.37-3.09.16-6.33.81-9.32,0s-5.84.61-8.61-.65c-5.53.65-11.1.09-16.63.5A30,30,0,0,1,805.6,5c-3.44-.68-7,.25-10.47-.22a25.87,25.87,0,0,0-8,.12c-2.48.45-4.86-.68-7.41.26-1.59.59-3.67-.29-5.54-.32-4.91,0-9.83.16-14.72-.08a19.56,19.56,0,0,0-4.95.16,29.47,29.47,0,0,1-9.28,0,76.48,76.48,0,0,0-10.67-.57c-5.15,0-10.34-.19-15.46,0s-10.37-.6-15.6-.07c-4.31.45-8.72,0-13.08,0-5.83,0-11.67.14-17.5-.08a34.63,34.63,0,0,0-9.31.45c-2.21.51-4.44-1.21-6.77-.4-4.15-1.12-8.34-.37-12.48-.07a70,70,0,0,1-8.69-.07c-3.45-.17-7-.78-10.47,0a30.16,30.16,0,0,1-8.78.29,72.41,72.41,0,0,0-9.2,0c-3.15.17-6.32.06-9.48.05-10.73,0-21.47-.16-32.2,0-4.38,0-8.7-.73-13.12-.25-4.16.45-8.41.08-12.62.08-4.42,0-8.84,0-13.26,0s-8.85-.07-13.27-.09-8.84,0-13.26,0c-4.21,0-8.42-.09-12.63-.11-4.42,0-8.84,0-13.26,0s-8.85,0-13.27,0S452,4,447.54,4L434.9,4c-4.42,0-8.84-.09-13.26,0-5.41.06-10.82.26-16.23.32-2.84,0-5.7.37-8.53-.23A5.87,5.87,0,0,0,395,3.89c-11.26,1.47-22.56.67-33.84.69-32.42,0-64.84-.16-97.26-.1-4.59,0-9.25-.72-13.8.6-7.25-.83-14.49.58-21.73.16-1.25-.07-2.49-.29-3.73-.46a8.31,8.31,0,0,0-2.46-.35c-8.15,1.54-16.37.59-24.54.64C175.34,5.2,153,5,130.72,5c-3.78,0-7.55.34-11.32.33-3.55,0-7.09-.3-10.63-.37-3.37-.07-6.8-.39-10.09.1-3.09.47-6.2-.4-9.25.55A6,6,0,0,1,87,5.41,15.44,15.44,0,0,0,84.51,5c-2.07.07-4.19.63-6.2.35a26.69,26.69,0,0,0-6.19-.14,14.3,14.3,0,0,1-5.56-.08c-1.63-.47-3.54.92-5.49,0a4.79,4.79,0,0,0-3,0,24.48,24.48,0,0,1-8.77.4c-5-.43-10,.31-14.86-.38-6.19-.89-12.38,1-18.52-.37C11.82,6.18,7.74,4.68,3.85,5.11Z"/><path class="cls-1" d="M3.85,948.25c-1-1.79-1-3.13.39-4.62l6,0c20.21,0,40.42,0,60.62.13q51.17.24,102.33.55c5.26,0,10.52,0,15.79-.06,1.47,0,2.94-.07,4.4-.22a30.24,30.24,0,0,1,3.7-.59c2.45,0,4.9.37,7.35.56,1.67.13,3.35.33,5,.33q8.73,0,17.42-.62c4.39-.33,8.83,0,13.24.12,1.83,0,3.7.49,5.48.26,6.3-.83,12.57-.39,18.86-.13,2.27.1,4.56-.23,6.85-.23l110.52.24c2.52,0,5.05-.06,7.57,0,2.74,0,5.5-.09,8.21.19,2.52.26,4.95-1,7.45-.22,4.91-.77,9.88-.31,14.82-.64s9.68,0,14.52,0c5,0,10.11,0,15.16,0q42.32.12,84.62.23,48.63.16,97.26.39c2.91,0,5.82-.12,8.72-.15s5.8.13,8.7.24c3.3.13,6.53-.87,9.91-.08,3,.7,6.21-.38,9.34,0a15.28,15.28,0,0,0,3.08-.45c1.46-.14,3.06-.6,4.36-.18,3.89,1.24,7.85,0,11.75.72,2.63.49,5.24-.7,8,0,2.59.63,5.44.23,8.18.13,2.07-.08,4.22-.88,6.18-.51a13,13,0,0,0,5.53-.16,6.61,6.61,0,0,1,2.5.1c3.29.56,6.58,1.17,9.87,0,3.52,1.07,7-.29,10.56-.08,6.28.37,12.61-.56,18.87.69,3.07-1.07,6.25-.52,9.38-.51,2.29,0,4.57.43,6.86.65a13.76,13.76,0,0,0,3.12.2c4.32-.62,8.65,0,13-.26a47.29,47.29,0,0,1,9.14.07c2.09.26,4.14-.2,6.13.16,2.17.39,4.14-.16,6.21-.41a24.3,24.3,0,0,1,6.25.27c3.91.57,7.78-.27,11.68-.16,5.83.17,11.67-.12,17.51-.12,2.09,0,4.17.3,6.26.42a24,24,0,0,0,3.69.07,83.93,83.93,0,0,1,20.71.19,4.44,4.44,0,0,0,1.24.13c8.58-1.48,17.21-.36,25.81-.56s17.26,0,25.89.15c2.29,0,4.63,1,6.84.66,3-.42,5.79.36,8.69.31a4.8,4.8,0,0,1,1.19.29c1.05.78.94,1.75.43,2.81-1.43,1.22-3.19.75-4.82.75-12.21,0-24.42-.1-36.63-.16-13.47-.07-26.95-.23-40.42-.16-5.61,0-11.19-.65-16.82-.37-3.09.16-6.33.81-9.32,0s-5.84.6-8.61-.66c-5.53.66-11.1.1-16.63.51a30,30,0,0,1-8.14-.3c-3.44-.67-7,.26-10.47-.21a25.87,25.87,0,0,0-8,.12c-2.48.45-4.86-.68-7.41.26-1.59.59-3.67-.29-5.54-.32-4.91,0-9.83.16-14.72-.08a19.55,19.55,0,0,0-4.95.15,29.17,29.17,0,0,1-9.28,0,76.48,76.48,0,0,0-10.67-.57c-5.15,0-10.34-.19-15.46,0s-10.37-.6-15.6-.07c-4.31.45-8.72,0-13.08,0-5.83,0-11.67.14-17.5-.08a34.63,34.63,0,0,0-9.31.45c-2.21.51-4.44-1.22-6.77-.41-4.15-1.11-8.34-.37-12.48-.06a70,70,0,0,1-8.69-.07c-3.45-.17-7-.78-10.47-.05a30.87,30.87,0,0,1-8.78.29,72.41,72.41,0,0,0-9.2,0c-3.15.17-6.32.06-9.48,0-10.73,0-21.47-.16-32.2,0-4.38,0-8.7-.73-13.12-.25-4.16.45-8.41.08-12.62.08-4.42,0-8.84,0-13.26,0s-8.85-.08-13.27-.09-8.84,0-13.26,0c-4.21,0-8.42-.1-12.63-.11-4.42,0-8.84,0-13.26,0s-8.85,0-13.27,0l-13.26-.08-12.64,0c-4.42,0-8.84-.09-13.26,0-5.41.06-10.82.26-16.23.32-2.84,0-5.7.36-8.53-.23A5.59,5.59,0,0,0,395,947c-11.26,1.46-22.56.67-33.84.69-32.42,0-64.84-.16-97.26-.1-4.59,0-9.25-.72-13.8.6-7.25-.83-14.49.58-21.73.16-1.25-.07-2.49-.29-3.73-.46a8.67,8.67,0,0,0-2.46-.36c-8.15,1.55-16.37.6-24.54.65-22.32.13-44.63-.06-66.94-.08-3.78,0-7.55.34-11.32.33-3.55,0-7.09-.3-10.63-.37-3.37-.07-6.8-.4-10.09.1-3.09.46-6.2-.4-9.25.55a6,6,0,0,1-2.46-.19,15.44,15.44,0,0,0-2.46-.42c-2.07.07-4.19.63-6.2.35a27.26,27.26,0,0,0-6.19-.15,14.49,14.49,0,0,1-5.56-.07c-1.63-.47-3.54.92-5.49,0a4.79,4.79,0,0,0-3,0,24.48,24.48,0,0,1-8.77.4c-5-.43-10,.31-14.86-.39-6.19-.88-12.38,1-18.52-.37C11.82,949.31,7.74,947.82,3.85,948.25Z"/><path class="cls-1" d="M5.11,943.52c-1.79,1-3.13,1-4.62-.39,0-1.83,0-3.9,0-6,0-20.21,0-40.42.14-60.62q.22-51.16.54-102.33c0-5.26,0-10.52-.06-15.79,0-1.47-.07-2.94-.22-4.4a30.4,30.4,0,0,1-.59-3.71c0-2.45.37-4.89.56-7.34.13-1.67.33-3.35.33-5q0-8.73-.62-17.43c-.32-4.38,0-8.82.12-13.23,0-1.83.49-3.7.26-5.48C.15,695.52.59,689.25.86,683c.09-2.27-.24-4.56-.24-6.85q.1-55.26.24-110.52c0-2.52-.06-5.05,0-7.58,0-2.73-.1-5.49.18-8.2.26-2.52-1-4.95-.22-7.45C0,537.44.47,532.48.14,527.54s0-9.68,0-14.52c0-5,0-10.11,0-15.16q.11-42.32.22-84.62Q.56,364.61.8,316c0-2.91-.13-5.82-.16-8.72s.13-5.8.24-8.7C1,295.26,0,292,.8,288.65c.7-3-.38-6.21,0-9.34a14.6,14.6,0,0,0-.45-3.08c-.14-1.46-.6-3.06-.18-4.36,1.24-3.89,0-7.85.72-11.75.49-2.63-.7-5.24,0-8.05.63-2.59.24-5.45.13-8.18-.08-2.07-.88-4.22-.51-6.18a13,13,0,0,0-.16-5.53,6.61,6.61,0,0,1,.1-2.5c.56-3.3,1.17-6.58,0-9.87,1.06-3.53-.3-7-.09-10.56.37-6.28-.56-12.61.69-18.87C0,187.31.53,184.12.54,181c0-2.28.43-4.56.65-6.85a13.76,13.76,0,0,0,.2-3.12c-.61-4.32,0-8.65-.26-13a47.4,47.4,0,0,1,.07-9.15c.26-2.08-.2-4.14.16-6.13.39-2.16-.16-4.13-.41-6.21a24.32,24.32,0,0,1,.27-6.25c.57-3.91-.27-7.77-.16-11.67.17-5.83-.12-11.67-.12-17.51,0-2.09.3-4.17.42-6.26a24,24,0,0,0,.07-3.69,83.93,83.93,0,0,1,.19-20.71,4.44,4.44,0,0,0,.13-1.24C.27,60.65,1.39,52,1.2,43.42s0-17.26.14-25.89c0-2.29,1-4.64.66-6.84-.42-3,.36-5.79.31-8.69A4.8,4.8,0,0,1,2.6.81c.78-1,1.75-.95,2.81-.43,1.22,1.43.75,3.19.75,4.81,0,12.22-.1,24.43-.16,36.64-.07,13.47-.23,27-.16,40.42,0,5.61-.65,11.19-.37,16.81.16,3.1.81,6.34,0,9.32s.61,5.85-.65,8.62c.65,5.53.09,11.09.5,16.63A30.06,30.06,0,0,1,5,141.77c-.68,3.43.25,6.95-.22,10.47a25.87,25.87,0,0,0,.12,8c.45,2.48-.68,4.86.26,7.41.59,1.58-.29,3.67-.32,5.54,0,4.91.16,9.83-.08,14.72A19.56,19.56,0,0,0,5,192.91a29.47,29.47,0,0,1,0,9.28,76.42,76.42,0,0,0-.57,10.66c0,5.16-.19,10.34,0,15.47s-.6,10.37-.07,15.6c.45,4.31,0,8.71,0,13.08,0,5.83.14,11.67-.08,17.49a34.69,34.69,0,0,0,.45,9.32c.51,2.21-1.21,4.44-.4,6.77-1.12,4.14-.37,8.34-.07,12.48a70,70,0,0,1-.07,8.69c-.17,3.45-.78,7,0,10.47A30.16,30.16,0,0,1,4.42,331a72.41,72.41,0,0,0,0,9.2c.17,3.15.06,6.32.05,9.47,0,10.74-.16,21.48,0,32.21,0,4.38-.73,8.69-.25,13.12.45,4.16.08,8.41.08,12.62,0,4.42,0,8.84,0,13.26s-.07,8.84-.09,13.27,0,8.84,0,13.26c0,4.21-.09,8.42-.11,12.63,0,4.42,0,8.84,0,13.26s0,8.85,0,13.27S4,495.41,4,499.83c0,4.21,0,8.43,0,12.64,0,4.42-.09,8.84,0,13.26.06,5.41.26,10.82.32,16.23,0,2.84.37,5.7-.23,8.52a6,6,0,0,0-.16,1.87c1.47,11.26.67,22.56.69,33.84,0,32.42-.16,64.84-.1,97.26,0,4.59-.72,9.25.6,13.8-.83,7.25.58,14.49.16,21.73-.07,1.25-.29,2.49-.46,3.73a8.31,8.31,0,0,0-.35,2.46c1.54,8.15.59,16.37.64,24.54C5.2,772,5,794.34,5,816.65c0,3.78.34,7.55.33,11.32,0,3.54-.3,7.09-.37,10.63-.07,3.37-.39,6.79.1,10.09.47,3.09-.4,6.2.55,9.24a6,6,0,0,1-.19,2.47A15.44,15.44,0,0,0,5,862.86c.07,2.07.63,4.19.35,6.19a26.79,26.79,0,0,0-.14,6.2,14.25,14.25,0,0,1-.08,5.55c-.47,1.64.92,3.55,0,5.5a4.79,4.79,0,0,0,0,3,24.48,24.48,0,0,1,.4,8.77c-.43,5,.31,10-.38,14.86-.89,6.19,1,12.38-.37,18.51C6.18,935.55,4.68,939.63,5.11,943.52Z"/><path class="cls-1" d="M949.36,943.52c-1.79,1-3.14,1-4.63-.39,0-1.83,0-3.9,0-6,0-20.21,0-40.42.14-60.62q.23-51.16.54-102.33c0-5.26,0-10.52-.06-15.79,0-1.47-.07-2.94-.22-4.4a32.47,32.47,0,0,1-.59-3.71c.06-2.45.37-4.89.56-7.34.13-1.67.33-3.35.34-5q0-8.73-.62-17.43c-.33-4.38,0-8.82.12-13.23,0-1.83.49-3.7.25-5.48-.82-6.3-.39-12.57-.12-18.86.1-2.27-.24-4.56-.23-6.85q.11-55.26.24-110.52c0-2.52-.06-5.05-.05-7.58,0-2.73-.09-5.49.18-8.2.26-2.52-1-4.95-.22-7.45-.77-4.92-.3-9.88-.63-14.82s0-9.68,0-14.52c0-5,0-10.11,0-15.16q.11-42.32.23-84.62.15-48.63.39-97.26c0-2.91-.12-5.82-.16-8.72s.14-5.8.25-8.7c.13-3.3-.87-6.53-.09-9.91.7-3-.38-6.21,0-9.34a15.28,15.28,0,0,0-.45-3.08c-.14-1.46-.6-3.06-.19-4.36,1.25-3.89,0-7.85.73-11.75.48-2.63-.71-5.24,0-8.05.63-2.59.23-5.45.12-8.18-.08-2.07-.87-4.22-.51-6.18a12.86,12.86,0,0,0-.15-5.53,6.6,6.6,0,0,1,.09-2.5c.57-3.3,1.18-6.58,0-9.87,1.06-3.53-.3-7-.09-10.56.38-6.28-.56-12.61.7-18.87-1.07-3.07-.52-6.26-.51-9.39,0-2.28.43-4.56.65-6.85a13.19,13.19,0,0,0,.19-3.12c-.61-4.32,0-8.65-.26-13a49.05,49.05,0,0,1,.07-9.15c.27-2.08-.2-4.14.16-6.13.39-2.16-.16-4.13-.41-6.21a23.89,23.89,0,0,1,.28-6.25c.56-3.91-.28-7.77-.16-11.67.17-5.83-.12-11.67-.12-17.51,0-2.09.29-4.17.42-6.26a22.78,22.78,0,0,0,.06-3.69,83.93,83.93,0,0,1,.2-20.71,4.08,4.08,0,0,0,.12-1.24c-1.48-8.58-.36-17.21-.55-25.81s0-17.26.14-25.89c0-2.29,1-4.64.66-6.84-.42-3,.36-5.79.31-8.69a4.83,4.83,0,0,1,.3-1.19c.78-1,1.74-.95,2.81-.43,1.21,1.43.74,3.19.74,4.81,0,12.22-.09,24.43-.15,36.64-.07,13.47-.23,27-.17,40.42,0,5.61-.64,11.19-.36,16.81.15,3.1.81,6.34,0,9.32s.61,5.85-.65,8.62c.66,5.53.1,11.09.51,16.63a30.06,30.06,0,0,1-.3,8.14c-.67,3.43.26,6.95-.22,10.47a26.18,26.18,0,0,0,.13,8c.45,2.48-.69,4.86.26,7.41.59,1.58-.3,3.67-.32,5.54-.06,4.91.15,9.83-.09,14.72a20,20,0,0,0,.16,4.95,29.17,29.17,0,0,1,0,9.28,73.48,73.48,0,0,0-.57,10.66c0,5.16-.2,10.34,0,15.47s-.61,10.37-.07,15.6c.44,4.31,0,8.71,0,13.08,0,5.83.15,11.67-.08,17.49a34.69,34.69,0,0,0,.46,9.32c.51,2.21-1.22,4.44-.41,6.77-1.11,4.14-.37,8.34-.06,12.48a72,72,0,0,1-.07,8.69c-.17,3.45-.79,7,0,10.47a30.5,30.5,0,0,1,.28,8.78,70.6,70.6,0,0,0,0,9.2c.16,3.15.05,6.32.05,9.47,0,10.74-.16,21.48,0,32.21.06,4.38-.72,8.69-.24,13.12.45,4.16.08,8.41.07,12.62,0,4.42,0,8.84,0,13.26s-.08,8.84-.09,13.27,0,8.84,0,13.26c0,4.21-.1,8.42-.11,12.63,0,4.42,0,8.84,0,13.26s0,8.85,0,13.27-.05,8.84-.07,13.26c0,4.21,0,8.43,0,12.64,0,4.42-.09,8.84,0,13.26.06,5.41.27,10.82.33,16.23,0,2.84.36,5.7-.23,8.52a5.67,5.67,0,0,0-.16,1.87c1.46,11.26.67,22.56.69,33.84,0,32.42-.16,64.84-.11,97.26,0,4.59-.71,9.25.61,13.8-.84,7.25.57,14.49.16,21.73-.07,1.25-.29,2.49-.46,3.73a8,8,0,0,0-.36,2.46c1.55,8.15.6,16.37.65,24.54.12,22.31-.07,44.63-.08,66.94,0,3.78.33,7.55.33,11.32,0,3.54-.31,7.09-.38,10.63-.07,3.37-.39,6.79.11,10.09.46,3.09-.41,6.2.54,9.24a6.19,6.19,0,0,1-.18,2.47,14.43,14.43,0,0,0-.43,2.46c.07,2.07.63,4.19.36,6.19a26.79,26.79,0,0,0-.15,6.2,14.44,14.44,0,0,1-.07,5.55c-.47,1.64.92,3.55,0,5.5a4.79,4.79,0,0,0,0,3,24.48,24.48,0,0,1,.4,8.77c-.43,5,.32,10-.38,14.86-.88,6.19,1,12.38-.37,18.51C950.42,935.55,948.92,939.63,949.36,943.52Z"/></g></g></svg>