<svg xmlns="http://www.w3.org/2000/svg" viewBox="0 0 257.4 4.73"><defs><style>.cls-1{fill:#d79f2e;}</style></defs><title>VemosIntro1</title><g id="Layer_2" data-name="Layer 2"><g id="ornamentos"><path class="cls-1" d="M174.78,4a2,2,0,0,1-1.89.42c-.12-.13-.32-.25-.34-.4a13,13,0,0,1,0-3.41,1.67,1.67,0,0,1,2-.17C175,1.53,174.59,2.79,174.78,4Z" transform="translate(0)"/><path class="cls-1" d="M167.89.29a25.43,25.43,0,0,1,.18,3.64,1.53,1.53,0,0,1-1.95.32,1.54,1.54,0,0,1-.28-.44,14.53,14.53,0,0,1,0-3.08C166.39,0,167,.08,167.89.29Z" transform="translate(0)"/><path class="cls-1" d="M154.26.37V4s-.09.15-.16.18a2.56,2.56,0,0,1-.73.26,7.54,7.54,0,0,1-1.13-.13,11.86,11.86,0,0,1-.07-3.7C152.77,0,153.36,0,154.26.37Z" transform="translate(0)"/><path class="cls-1" d="M160.85.28A10.51,10.51,0,0,1,160.91,4a1.53,1.53,0,0,1-1.87.2c-.39-.41-.4-.77-.15-3.46C159.3.14,159.89,0,160.85.28Z" transform="translate(0)"/><path class="cls-1" d="M133.73,4.05c-.64.52-1.4.39-2.32,0a10.44,10.44,0,0,1,0-3.16c.65-.75,1.43-.56,2.21-.35a2.17,2.17,0,0,1,.14.49C133.74,2,133.73,3,133.73,4.05Z" transform="translate(0)"/><path class="cls-1" d="M51.71,3.93a1.62,1.62,0,0,1-2.14.17,13.25,13.25,0,0,1,0-3.14A1.43,1.43,0,0,1,51.38.3C52.07,1.52,51.55,2.83,51.71,3.93Z" transform="translate(0)"/><path class="cls-1" d="M56.6,4.16A16.42,16.42,0,0,1,56.54.61a1.37,1.37,0,0,1,2.1.21V3.64a1.2,1.2,0,0,1-1.09.77A3.72,3.72,0,0,1,56.6,4.16Z" transform="translate(0)"/><path class="cls-1" d="M3.89,4.17,2.7,4.73l-1-.59c0-.73-.06-1.44-.06-2.15,0-.43.05-.86.06-1.14C2.42.17,3,.46,3.7.45A11.26,11.26,0,0,1,3.89,4.17Z" transform="translate(0)"/><path class="cls-1" d="M83.52.56C84.42.17,85,.08,85.7.65c0,.7.08,1.5.08,2.31,0,.44-.08.88-.12,1.32l-1.6.13a3.35,3.35,0,0,1-.53-1.07C83.45,2.45,83.51,1.54,83.52.56Z" transform="translate(0)"/><path class="cls-1" d="M76.65.26h2.12c.65,1.15.21,2.32.31,3.35a2.22,2.22,0,0,1-1.91.81C76.42,3.2,77.07,1.85,76.65.26Z" transform="translate(0)"/><path class="cls-1" d="M63.24.89a1.45,1.45,0,0,1,2-.42A14.58,14.58,0,0,1,65.36,4c-.78.68-1.39.47-2-.18A10.3,10.3,0,0,1,63.24.89Z" transform="translate(0)"/><path class="cls-1" d="M181.79,3.62a1.54,1.54,0,0,1-1.81.77c-.15-.18-.33-.3-.36-.46A15.78,15.78,0,0,1,179.56.5c1.42-.65,2,.17,2.65,1l-.61.6C181.66,2.56,181.73,3.09,181.79,3.62Z" transform="translate(0)"/><path class="cls-1" d="M147.23,3.92a1.66,1.66,0,0,1-2,.29c-.53-.94-.18-2-.22-3.07,0-.29.3-.6.41-.8a2.13,2.13,0,0,1,.38-.14l1.38.14c0,.45.09.88.09,1.32C147.3,2.45,147.26,3.24,147.23,3.92Z" transform="translate(0)"/><path class="cls-1" d="M8.8.37h1.88c.57,1.18.27,2.41.19,3.73l-2,.36A11.93,11.93,0,0,1,8.8.37Z" transform="translate(0)"/><path class="cls-1" d="M97.21.49A9.09,9.09,0,0,1,98.52.28a3.76,3.76,0,0,1,.89.23,12.4,12.4,0,0,1,0,3.33A1.46,1.46,0,0,1,97.54,4c-.06-.08-.16-.15-.17-.22C97.31,2.75,97.27,1.76,97.21.49Z" transform="translate(0)"/><path class="cls-1" d="M140.34,4.32a11.07,11.07,0,0,1-1.19,0,1.58,1.58,0,0,1-.47-.2c-.38-.39-.4-1.12-.07-3.34a1.34,1.34,0,0,1,1.69-.1C140.7,1.15,140.71,1.62,140.34,4.32Z" transform="translate(0)"/><path class="cls-1" d="M113.13,4.35h-1.84c-.58-1.18-.16-2.33-.34-3.55a8.44,8.44,0,0,1,1.18-.26,3.74,3.74,0,0,1,.89.14A8.46,8.46,0,0,1,113.13,4.35Z" transform="translate(0)"/><path class="cls-1" d="M126.84.48a11.59,11.59,0,0,1,0,3.53,3.28,3.28,0,0,1-.81.3,7,7,0,0,1-1-.08c-.15-.24-.33-.38-.34-.52,0-1,0-1.95,0-2.81C125.4.08,126.06.39,126.84.48Z" transform="translate(0)"/><path class="cls-1" d="M104.19.39h2c.67,1.1.17,2.26.38,3.3a2.31,2.31,0,0,1-2.2.3C104.07,2.92,104.38,1.79,104.19.39Z" transform="translate(0)"/><path class="cls-1" d="M92.54.44V3.76c-.49.63-1.11.48-1.73.33-.11-.14-.31-.28-.32-.43,0-1,0-2,0-3C91,.1,91.61.18,92.54.44Z" transform="translate(0)"/><path class="cls-1" d="M118.11.46H120a7.12,7.12,0,0,1,.25,3.36,1.57,1.57,0,0,1-2,.23A8.66,8.66,0,0,1,118.11.46Z" transform="translate(0)"/><path class="cls-1" d="M17.68,4.33h-2C15,3.24,15.42,2.07,15.37,1c.55-.71,1.2-.48,1.86-.45C17.91,1.69,17.39,2.87,17.68,4.33Z" transform="translate(0)"/><path class="cls-1" d="M45,4.46H43.08c-.57-1.06-.26-2.22-.27-3.27C43.35.49,44,.65,44.69.81,45.3,1.85,45,3,45,4.46Z" transform="translate(0)"/><path class="cls-1" d="M29,.47H31c.66,1.06.32,2.24.32,3.31-.54.69-1.18.48-1.75.44-.15-.19-.35-.32-.36-.46C29.09,2.78,29.07,1.78,29,.47Z" transform="translate(0)"/><path class="cls-1" d="M70.3.47C71,.1,71.44.09,71.9.54c.13,1,.28,2,.45,3.22l-1.56.77L70.05,4l.12-1.87C70.21,1.57,70.26,1,70.3.47Z" transform="translate(0)"/><path class="cls-1" d="M37.82.21a10.93,10.93,0,0,1,0,4l-1.23.18c-.19-.23-.37-.34-.41-.49A10.41,10.41,0,0,1,36,.65Z" transform="translate(0)"/><path class="cls-1" d="M24.16,4.25l-1.22.11c-.18-.17-.4-.27-.43-.41C22.34,2.9,22.2,1.85,22,.64l2-.16A7.82,7.82,0,0,1,24.16,4.25Z" transform="translate(0)"/><path class="cls-1" d="M162.26.34l.7.4a6.71,6.71,0,0,1-.15,3.15c-.06.14-.28.2-.42.3C162,2.8,162,2.71,162.26.34Z" transform="translate(0)"/><path class="cls-1" d="M100.88.5l.61.18a18.44,18.44,0,0,1,0,2.88c0,.16-.17.31-.26.46l-.63-.2c0-.92,0-1.9,0-2.88C100.61.79,100.78.65,100.88.5Z" transform="translate(0)"/><path class="cls-1" d="M134.61.83l.77-.25a5.35,5.35,0,0,1,0,3.4c0,.09-.3.11-.54.19C134.45,3.12,134.71,2,134.61.83Z" transform="translate(0)"/><path class="cls-1" d="M130.29,4.6c-.83-1.77-.84-2-.29-4,.16,0,.43,0,.45.11A6.06,6.06,0,0,1,130.29,4.6Z" transform="translate(0)"/><path class="cls-1" d="M149.23,4.31c-1.41-1-.75-2.25-.89-3.37l.79-.34A9.05,9.05,0,0,1,149.23,4.31Z" transform="translate(0)"/><path class="cls-1" d="M5.27.43A4,4,0,0,1,5.91,1a.79.79,0,0,1,0,.53A11.33,11.33,0,0,0,5.7,2.8,6.05,6.05,0,0,0,5.84,4l-.69.15A6.41,6.41,0,0,1,5.27.43Z" transform="translate(0)"/><path class="cls-1" d="M68.94.74a5,5,0,0,1,0,3.16l-.7-.17c0-.83-.07-1.69-.1-2.58Z" transform="translate(0)"/><path class="cls-1" d="M163.93.84l.6-.15a10.26,10.26,0,0,1,.19,3.39c-.58.19-.93-.26-.82-.43C164.53,2.72,163.48,1.91,163.93.84Z" transform="translate(0)"/><path class="cls-1" d="M87.72,4c-1.44-.73-.33-2-.75-2.87,0-.12.37-.47.75-.93A15.08,15.08,0,0,1,87.72,4Z" transform="translate(0)"/><path class="cls-1" d="M114.28.72l.58-.17c.19,1.18.66,2.38-.6,3.45Z" transform="translate(0)"/><path class="cls-1" d="M6.59.9,7.48.47C7.65,1.79,8,3,7.34,4.16c0,0-.17,0-.33,0A14.42,14.42,0,0,0,7,2.45,10.81,10.81,0,0,0,6.59.9Z" transform="translate(0)"/><path class="cls-1" d="M74.81.51l.75-.15c.52,1.31.08,2.61.27,4.19-.9-.78-.57-1.45-.67-2S75,1.29,74.81.51Z" transform="translate(0)"/><path class="cls-1" d="M128.7.63a4.19,4.19,0,0,0,.36,3.15l-.75.44C127.77,2,127.81,1.42,128.7.63Z" transform="translate(0)"/><path class="cls-1" d="M177.88.78c.63.47.63.47.19,3.12C177.4,3.43,177.4,3.43,177.88.78Z" transform="translate(0)"/><path class="cls-1" d="M53,.78l.49.09c.52.55-.26,1-.14,1.5s.63,1,0,1.46C52.58,3.23,52.58,3.19,53,.78Z" transform="translate(0)"/><path class="cls-1" d="M73.92,3.94c-.63-.58-.3-1.25-.41-1.84s-.21-1-.31-1.46c.43-.49.82-.25.85.08A7.34,7.34,0,0,1,73.92,3.94Z" transform="translate(0)"/><path class="cls-1" d="M25.4.86l.74-.21a8.68,8.68,0,0,1,.06,3.52c-.66-.48-.36-1.06-.44-1.55S25.55,1.56,25.4.86Z" transform="translate(0)"/><path class="cls-1" d="M66.52.53c.75,3.08.75,3.08.28,3.37-.1-.13-.29-.27-.29-.41C66.49,2.51,66.51,1.52,66.52.53Z" transform="translate(0)"/><path class="cls-1" d="M34.28.67c.54.54.27,1.11.36,1.61s.17,1,.25,1.48l-.49.35c-.07,0-.19,0-.19-.08A6.84,6.84,0,0,1,34.28.67Z" transform="translate(0)"/><path class="cls-1" d="M.26,4.45A6.61,6.61,0,0,1,.3.66,6.21,6.21,0,0,1,.26,4.45Z" transform="translate(0)"/><path class="cls-1" d="M176.51,3.8l-.52,0c-.35-2.45-.35-2.45.53-3.16-.06.63-.14,1.12-.14,1.61S176.46,3.29,176.51,3.8Z" transform="translate(0)"/><path class="cls-1" d="M150.16,3.13c.11-.52.21-.87.26-1.22s.05-.7.08-1.15c.25.13.45.19.45.24,0,1,0,2,0,3.07C150.3,4.08,150.4,3.52,150.16,3.13Z" transform="translate(0)"/><path class="cls-1" d="M116.91,4.48c-.45-.8-.64-1.14-.82-1.44.17-.82.33-1.57.57-2.74A13.17,13.17,0,0,1,116.91,4.48Z" transform="translate(0)"/><path class="cls-1" d="M157.3,4.05a13.6,13.6,0,0,1-.17-3.83C157.79,1.47,157.79,1.47,157.3,4.05Z" transform="translate(0)"/><path class="cls-1" d="M169.5.49a7.66,7.66,0,0,1,.24,2.65,10.59,10.59,0,0,1-.14,1.22C169,3,169,3,169.5.49Z" transform="translate(0)"/><path class="cls-1" d="M171.2.47a14.13,14.13,0,0,1,.11,4.23A5.17,5.17,0,0,1,171.2.47Z" transform="translate(0)"/><path class="cls-1" d="M82.83,3.88,82,3.93a6,6,0,0,1-.14-1A8.42,8.42,0,0,1,82.07.24C82.7,1.52,82.15,2.71,82.83,3.88Z" transform="translate(0)"/><path class="cls-1" d="M95.71,4A11,11,0,0,1,95.59.61c.74,0,.59.59.87.93-.1.38-.21.79-.3,1.21S96.27,3.65,95.71,4Z" transform="translate(0)"/><path class="cls-1" d="M102.9,4.06a3.26,3.26,0,0,1-.25-.8A9.61,9.61,0,0,1,102.8.52C103.38,1.91,103.38,2.18,102.9,4.06Z" transform="translate(0)"/><path class="cls-1" d="M108,.29a11.23,11.23,0,0,1,.1,3.92C107.46,2.72,107.46,2.48,108,.29Z" transform="translate(0)"/><path class="cls-1" d="M109.62,4c-.1-.12-.28-.24-.29-.37-.08-1,0-1.93,0-3.21C110,1.73,110,1.94,109.62,4Z" transform="translate(0)"/><path class="cls-1" d="M121.73.17a7.55,7.55,0,0,1,.2,1.45,5.93,5.93,0,0,1-.19,2.43c-.16-.13-.37-.22-.37-.3A8.21,8.21,0,0,1,121.73.17Z" transform="translate(0)"/><path class="cls-1" d="M123.16,4.5c-.07-1.15-.12-1.86-.14-2.56,0-.44-.17-.91.22-1.28C123.78,1.76,123.78,2,123.16,4.5Z" transform="translate(0)"/><path class="cls-1" d="M80.52,0a8.29,8.29,0,0,1,0,3.83A5.86,5.86,0,0,1,80.52,0Z" transform="translate(0)"/><path class="cls-1" d="M59.94,3.7c0-.7-.09-1.4-.1-2.1,0-.35,0-.7.1-1.34.9,1.27.13,2.35.59,3.35Z" transform="translate(0)"/><path class="cls-1" d="M137.27.8c0,1,0,1.91,0,2.87,0,.13-.16.26-.35.52a5.79,5.79,0,0,1-.17-1.11C136.76,2.31,136.57,1.51,137.27.8Z" transform="translate(0)"/><path class="cls-1" d="M141.84,4a4,4,0,0,1-.13-.76,13,13,0,0,1,.21-2.41A3.93,3.93,0,0,1,141.84,4Z" transform="translate(0)"/><path class="cls-1" d="M143.72.52a10,10,0,0,1,.13,3.8C143.22,2.72,143.22,2.5,143.72.52Z" transform="translate(0)"/><path class="cls-1" d="M155.51.8c.52,2.27.52,2.27.11,3.42a2.75,2.75,0,0,1-.23-.8C155.4,2.54,155.47,1.67,155.51.8Z" transform="translate(0)"/><path class="cls-1" d="M250,4a2,2,0,0,1-1.89.42c-.12-.13-.32-.25-.34-.4a13,13,0,0,1,0-3.41,1.68,1.68,0,0,1,2-.17C250.23,1.56,249.78,2.83,250,4Z" transform="translate(0)"/><path class="cls-1" d="M243.09.33A25.1,25.1,0,0,1,243.26,4a1.52,1.52,0,0,1-1.94.32c-.11-.15-.26-.28-.29-.44a14.53,14.53,0,0,1,0-3.08C241.58,0,242.2.11,243.09.33Z" transform="translate(0)"/><path class="cls-1" d="M229.46.4l0,3.6s-.08.14-.16.17a2.23,2.23,0,0,1-.72.26,6.52,6.52,0,0,1-1.14-.13,12.16,12.16,0,0,1-.06-3.7C228,0,228.56,0,229.46.4Z" transform="translate(0)"/><path class="cls-1" d="M236,.31a10.51,10.51,0,0,1,.06,3.74,1.53,1.53,0,0,1-1.87.2c-.39-.41-.4-.77-.14-3.46C234.5.17,235.09.08,236,.31Z" transform="translate(0)"/><path class="cls-1" d="M208.92,4.08c-.64.52-1.39.39-2.32,0a10.78,10.78,0,0,1,0-3.16c.66-.75,1.43-.56,2.21-.35a1.91,1.91,0,0,1,.15.49C208.93,2,208.92,3,208.92,4.08Z" transform="translate(0)"/><path class="cls-1" d="M257,3.65a1.55,1.55,0,0,1-1.82.77c-.15-.18-.33-.3-.36-.45a15.89,15.89,0,0,1-.06-3.44c1.42-.64,2,.17,2.65,1l-.61.6C256.85,2.6,256.92,3.12,257,3.65Z" transform="translate(0)"/><path class="cls-1" d="M222.43,4a1.67,1.67,0,0,1-2,.29c-.53-.94-.19-2-.22-3.06,0-.3.29-.61.4-.8A2,2,0,0,1,221,.23l1.39.15c0,.44.08.87.08,1.31C222.49,2.48,222.45,3.27,222.43,4Z" transform="translate(0)"/><path class="cls-1" d="M215.53,4.35c-.49,0-.84,0-1.19,0a1.9,1.9,0,0,1-.47-.2c-.38-.4-.4-1.13-.07-3.35a1.34,1.34,0,0,1,1.69-.1C215.9,1.18,215.91,1.65,215.53,4.35Z" transform="translate(0)"/><path class="cls-1" d="M188.33,4.38h-1.84c-.59-1.18-.17-2.33-.35-3.55a8.23,8.23,0,0,1,1.19-.26,4.36,4.36,0,0,1,.88.14A8.61,8.61,0,0,1,188.33,4.38Z" transform="translate(0)"/><path class="cls-1" d="M202,.51A11.94,11.94,0,0,1,202,4a3.6,3.6,0,0,1-.81.3,6.91,6.91,0,0,1-1-.08c-.16-.23-.34-.38-.34-.52,0-1,0-1.95,0-2.81C200.59.11,201.25.43,202,.51Z" transform="translate(0)"/><path class="cls-1" d="M193.3.49h1.84a7,7,0,0,1,.25,3.36,1.57,1.57,0,0,1-2,.23A8.66,8.66,0,0,1,193.3.49Z" transform="translate(0)"/><path class="cls-1" d="M237.45.38l.7.39A6.63,6.63,0,0,1,238,3.93c-.05.13-.28.19-.42.29C237.14,2.83,237.14,2.74,237.45.38Z" transform="translate(0)"/><path class="cls-1" d="M209.8.87l.78-.26a5.42,5.42,0,0,1,0,3.4c0,.09-.29.11-.54.19C209.64,3.16,209.9,2.07,209.8.87Z" transform="translate(0)"/><path class="cls-1" d="M205.48,4.63c-.83-1.77-.84-2-.29-4,.16,0,.44,0,.46.11A6.07,6.07,0,0,1,205.48,4.63Z" transform="translate(0)"/><path class="cls-1" d="M224.42,4.34c-1.41-1-.75-2.25-.89-3.37l.79-.34A9.05,9.05,0,0,1,224.42,4.34Z" transform="translate(0)"/><path class="cls-1" d="M239.12.88l.61-.16a10,10,0,0,1,.18,3.39c-.58.19-.93-.26-.81-.43C239.73,2.75,238.67,1.94,239.12.88Z" transform="translate(0)"/><path class="cls-1" d="M189.47.75l.58-.17c.19,1.18.67,2.38-.6,3.46Z" transform="translate(0)"/><path class="cls-1" d="M203.89.66a4.22,4.22,0,0,0,.36,3.16l-.74.43C203,2,203,1.45,203.89.66Z" transform="translate(0)"/><path class="cls-1" d="M253.07.81c.63.47.63.47.19,3.12C252.59,3.46,252.59,3.46,253.07.81Z" transform="translate(0)"/><path class="cls-1" d="M251.71,3.83l-.53,0c-.35-2.45-.35-2.45.54-3.15-.06.62-.15,1.11-.15,1.6S251.66,3.32,251.71,3.83Z" transform="translate(0)"/><path class="cls-1" d="M225.35,3.16c.11-.51.21-.87.26-1.22s0-.7.08-1.15c.26.13.45.19.45.25,0,1,0,2,0,3.07C225.49,4.11,225.59,3.55,225.35,3.16Z" transform="translate(0)"/><path class="cls-1" d="M192.11,4.51l-.82-1.44c.17-.82.32-1.57.56-2.74C192.32,1.82,192.08,2.9,192.11,4.51Z" transform="translate(0)"/><path class="cls-1" d="M232.49,4.09a14.06,14.06,0,0,1-.17-3.84C233,1.5,233,1.5,232.49,4.09Z" transform="translate(0)"/><path class="cls-1" d="M244.69.52a7.42,7.42,0,0,1,.24,2.65,10.59,10.59,0,0,1-.14,1.22C244.17,3.05,244.17,3.05,244.69.52Z" transform="translate(0)"/><path class="cls-1" d="M246.39.5a14.13,14.13,0,0,1,.11,4.23A5.21,5.21,0,0,1,246.39.5Z" transform="translate(0)"/><path class="cls-1" d="M183.2.32a11,11,0,0,1,.1,3.92C182.65,2.75,182.65,2.51,183.2.32Z" transform="translate(0)"/><path class="cls-1" d="M184.81,4c-.1-.12-.28-.24-.29-.37-.08-1,0-1.93,0-3.2C185.16,1.76,185.17,2,184.81,4Z" transform="translate(0)"/><path class="cls-1" d="M196.93.2a9.69,9.69,0,0,1,.2,1.45,6.3,6.3,0,0,1-.19,2.43c-.17-.13-.38-.22-.38-.3A8.09,8.09,0,0,1,196.93.2Z" transform="translate(0)"/><path class="cls-1" d="M198.35,4.53c-.06-1.15-.12-1.86-.14-2.56,0-.44-.16-.91.22-1.28C199,1.79,199,2,198.35,4.53Z" transform="translate(0)"/><path class="cls-1" d="M212.46.83c0,1,0,1.91,0,2.87,0,.13-.17.26-.36.53a6,6,0,0,1-.17-1.11C212,2.34,211.76,1.54,212.46.83Z" transform="translate(0)"/><path class="cls-1" d="M217,4a5,5,0,0,1-.13-.76,13.08,13.08,0,0,1,.21-2.41A3.93,3.93,0,0,1,217,4Z" transform="translate(0)"/><path class="cls-1" d="M218.91.55a9.83,9.83,0,0,1,.13,3.8C218.42,2.75,218.41,2.54,218.91.55Z" transform="translate(0)"/><path class="cls-1" d="M230.71.84c.52,2.26.52,2.26.1,3.41a3.57,3.57,0,0,1-.23-.8C230.6,2.58,230.66,1.71,230.71.84Z" transform="translate(0)"/><path class="cls-1" d="M12.3,4.19a3,3,0,0,1-.24-.82A11.88,11.88,0,0,1,12.19.56C12.74,2,12.74,2.18,12.3,4.19Z" transform="translate(0)"/><path class="cls-1" d="M13.94,4.21a2.81,2.81,0,0,1-.26-.82A9.41,9.41,0,0,1,13.83.57C14.42,1.87,14.43,2.22,13.94,4.21Z" transform="translate(0)"/><path class="cls-1" d="M19,.66c.09.15.26.3.26.45a16.33,16.33,0,0,1-.1,3.15A4.41,4.41,0,0,1,19,.66Z" transform="translate(0)"/><path class="cls-1" d="M20.68.8c.07.15.21.3.21.45,0,.88-.06,1.76-.1,2.64,0,.07-.11.13-.26.3A5.6,5.6,0,0,1,20.68.8Z" transform="translate(0)"/><path class="cls-1" d="M27.75,4a5.21,5.21,0,0,1-.34-2.59,4.76,4.76,0,0,1,.3-.95A6.28,6.28,0,0,1,27.75,4Z" transform="translate(0)"/><path class="cls-1" d="M33,.9c0,.69,0,1.38,0,2.08,0,.34,0,.67-.09,1.15C32.27,3.06,32.27,3.06,33,.9Z" transform="translate(0)"/><path class="cls-1" d="M39.83,4.12c-.51-1.1-.14-2.19-.12-3.29A6.24,6.24,0,0,1,39.83,4.12Z" transform="translate(0)"/><path class="cls-1" d="M41.7,1c0,.8,0,1.6,0,2.4a6.79,6.79,0,0,1-.24,1.05A4,4,0,0,1,41.7,1Z" transform="translate(0)"/><path class="cls-1" d="M46.52.84a13,13,0,0,1,.07,3.36C46,3,46,2.73,46.52.84Z" transform="translate(0)"/><path class="cls-1" d="M48.1,4.05A6.19,6.19,0,0,1,48,.86C48.57,1.93,48.21,3,48.1,4.05Z" transform="translate(0)"/><path class="cls-1" d="M54.7.68c.88.62.88.62.48,3-.06-.06-.15-.11-.16-.18C54.91,2.62,54.81,1.7,54.7.68Z" transform="translate(0)"/><path class="cls-1" d="M89,3.78c0-1,0-1.92,0-2.88,0-.13.19-.25.38-.49a9.3,9.3,0,0,1,.15,1.11c0,.78-.05,1.56-.08,2.34Z" transform="translate(0)"/><path class="cls-1" d="M94.17.54c.09.13.26.27.27.41a20.81,20.81,0,0,1,0,3.14C93.78,2.76,93.78,2.76,94.17.54Z" transform="translate(0)"/><path class="cls-1" d="M61.82.94a6.69,6.69,0,0,1,.1,3.26A4,4,0,0,1,61.82.94Z" transform="translate(0)"/></g></g></svg>