<svg viewBox="0 0 737 36.25" xmlns="http://www.w3.org/2000/svg"><g fill="#f5f5f5"><path d="m565.18 32.77v-30.2c.83-.68 1.49-1.36 2.14-1.89h7.07a13 13 0 0 1 1.48 1.23l1.48-1.28a7.63 7.63 0 0 1 1.21 1.47h5.33c-.18-.24.11-2.1 2.21-1.1l1.2 1h5.39c.19 0 .37-.22.56-.34l1.12-1.16c.58.7 1.17 1.41 2 2.37v29.85a254 254 0 0 1 -31.19.05zm4.57-4.24a130.42 130.42 0 0 0 22.25-.07c.57-14.34.47-19.35-.49-23.65q-8.82 0-17.65 0a4 4 0 0 0 -1.24.41c-.33.33-.67.66-1 1l-1.52-1.38c-.85 4.85-.96 12.47-.35 23.69z"/><path d="m313.94 33.34h-30.88c-.68-5.77-.77-24-.17-32.39 1.53-1.26 2.27.65 3.44.85l1-1 2.21 1.35 3.12-1.77 2 1.57 1.5-1.28c1.49 1.65 3.1 2.18 4.9.67s3.39-1.09 5.08.76h7.22c.31.42.57.6.57.78.07 9.95.01 19.9.01 30.46zm-26.26-28.4c-1 4.19-1.08 10.29-.46 23.68a125.31 125.31 0 0 0 22.35-.05v-23.63z"/><path d="m737 2.1v30.68c-.31.27-.48.54-.66.54-9.92 0-19.85 0-29.76 0-.93-4.48-1-9.88-.38-20.89l1-1.06c-.44-.49-.87-1-1.32-1.47l1.33-1.48-1-1a6.45 6.45 0 0 1 -.34-1.27c-.06-.69 0-1.38 0-1.87l2.13-2.18zm-2.74 20.48c-.52-1.28-1-2.5-1.5-3.71-.81-1.88 1.86-2.61 1.4-4.47l-1.35-1.5c-.2-2 .18-4.11-.18-6.11-12.31-.64-18.16-.53-22.58.4v21.22c0 .18.27.36.53.67h21.6l1.82-3.58-1.11-1.28z"/><path d="m419.85 33.34h-30.22c-.7-5.73-.79-22.65-.15-31.24h10.2l1.42-1.42h4.25l1.44 1.14 1.38-1.13c.95.36 1.46 1.84 2.88 1.28l1.51-1.39 1.75 1.61 4-2 2.1 3.43v29.08c0 .17-.3.35-.56.64zm-4.23-4.26a149.43 149.43 0 0 0 0-23.75c-12-.6-17.6-.5-22.25.4-.07 6.76 0 13.54 0 20l-1.44 1.44 2.28 2z"/><path d="m354.1.87 1.61 1.28 1.44-1.22 1.44 1.32c.49-.47 1-.94 1.72-1.61l3.09 1.46h18l1.42-1.1c.61.6 1.11 1.1 1.61 1.61.14.17.41.35.41.53q0 14.85 0 29.72c-4.33 1-15.53 1.14-30.77.47a269.58 269.58 0 0 1 .03-32.46zm3.75 28.21h20.45a9.46 9.46 0 0 0 1.41 0c.19 0 .34-.3.75-.67 0-6.6 0-13.41 0-20.23 0-1.09.47-2.36-.72-3.22h-19.85a11 11 0 0 0 -1.41 0c-.19 0-.35.3-.63.57z"/><path d="m318.09 2.1h11.8c.57-.5 1.1-1 1.73-1.48 1.3-.6 2.81.77 2.81.77h3.31l1.54-1.39 1.23 1.23c2.86.52 6-.11 9.06.32.77 5.41.86 23.53.15 31.79h-31c-.25-.24-.55-.4-.58-.59a10 10 0 0 1 0-1.45zm4.26 26.5a129.57 129.57 0 0 0 22.72 0v-23.43a129.57 129.57 0 0 0 -22.72 0z"/><path d="m560.94 33.34h-30.57c-.37-.41-.66-.59-.66-.76 0-9.94 0-19.88 0-30.09l3.83-.73 1.06-1.08h12.66c.88.37 1.38 2 3 1.39l1.53-1.43 1.54 1.41 1.31-1.31 1.79 1.36h4a5.36 5.36 0 0 1 .53 1.48c.04 9.68-.02 19.36-.02 29.76zm-25-29.11c-1 1.29-2.13 1.84-2.11 3.32.08 6.53 0 13.07 0 18.82l2.07 2.71h20.1l2.13-2.08c0-5.83 0-11.75 0-17.67a4.88 4.88 0 0 0 -.36-1.33l-3.07-3.06h-8.25l-2.88 1.53a16.64 16.64 0 0 1 -1.82-2.24z"/><path d="m525.44 33.22h-28.81c-.67 0-1.35-.11-1.91-.15-.24-.31-.5-.49-.5-.67 0-9.93 0-19.86 0-29.71.75-.74 2.11-2 2.11-2h12.78c.5.47 1 1 1.54 1.42h4.14s1.05-1.11 1.78-1.78a30.27 30.27 0 0 0 3.13 1.06h5.14a12.6 12.6 0 0 1 .58 2c.03 9.71.02 19.41.02 29.83zm-27.01-26.22v20l2.15 2.13h18.42a13.45 13.45 0 0 0 1.42 0c.2 0 .38-.24.68-.44l1.47-1.69v-20.14l-2-1.92h-20c-.79.74-1.46 1.41-2.14 2.06z"/><path d="m702.92 2.42v7.49s-.87.77-1.3 1.2a4.32 4.32 0 0 1 .59 1.53v7l-.71 1.48v9.88l1.38 1.49c-.91.91-16.91 1.13-32.2.45-.85-1.16 1-1.17.85-2l-1.53-1.72 1.66-2.93v-23.82a246.51 246.51 0 0 1 31.26-.05zm-4.26 3.73c-8.22 0-15.84 0-23.46 0-.15 0-.31.33-.59.64l1.18 1.45-1.24 1.46 1.3 1.47-1.33 1.46v14.31c.72.73 1.39 1.4 2.1 2.1q10.67 0 21.38 0c.18 0 .35-.28.66-.55z"/><path d="m479 .31 2 1.88 2.71-1.29c.13.1.58.44 1.41 1.2h4.26a3.65 3.65 0 0 1 .54 1.34q0 14.52 0 29c-.86 1.19-2.13.71-3.23.72-9.18 0-18.36 0-27.32 0-.37-.4-.6-.55-.67-.75a3.21 3.21 0 0 1 -.05-.7v-16.22c.52-.52 1-1 1.43-1.49.66-1.88-2.1-2.47-1.48-4.46.4-1.27.08-2.77.08-4.1 2.22-1.08.85-3.53 2-5l1.65 1.48c.37-.38.71-.72 1.2-1.24h5.91c.6.52 1.12.95 1.83 1.52l3.12-1.82 2 1.4zm-12.38 30.42 15-.85c1-1.17 2.27-.65 3.42-.82.19 0 .35-.29.53-.45l1.5-1.61v-20.24s-1.59-1.39-2.07-1.82h-5.7c-.61.44-1.08.82-1.54 1.19a10.69 10.69 0 0 1 -1.16-1.9h-11.77l-1.9 2.08v20.63z"/><path d="m137.74 19.85-1.74 1.82 1.51 2.63-1.18 1.43c-.29 1.36.77 1.81 1.14 2.6a9.11 9.11 0 0 1 .3 2.85l-2 2.16h-29c-.7-5.88-.75-24-.08-31.24h30.43c.29.27.58.41.61.6a9.73 9.73 0 0 1 0 1.43zm-5.09 9.15c1-4.19 1.08-10.29.46-23.68a126.28 126.28 0 0 0 -22.35 0v23.06c.3.27.47.56.64.56q10.6.06 21.25.06z"/><path d="m667.42 33.34h-31.31c-.68-6-.73-23.65-.09-31.24h30.83a2.11 2.11 0 0 1 .46.48 1.52 1.52 0 0 1 .1.67v15.05l-1.41 1.57v5.67l1.42 1.5zm-4.26-4.26v-21.4a1.89 1.89 0 0 0 0-.7c-.08-.2-.31-.35-.7-.62h-8.53a15 15 0 0 0 -1.24-1.36c-1 .31-1.5 1.83-3 1.24l-1.46-1.36a5.24 5.24 0 0 1 -1.55.8h-6.51c-.65 1.27-1.28 2.49-2.14 4.18v18.57c0 .18.28.36.55.68z"/><path d="m101.91 33.34h-30.5a242.94 242.94 0 0 1 0-31.24h30.49a241.13 241.13 0 0 1 .01 31.24zm-4.51-4.26c1-1.26 2.33-1.75 2-3.41l-1.29-1.53 1.31-1.49v-12.83l-1-1.13c-.77-1.48.22-2.8-.89-3.75h-22.46v22.93a1.48 1.48 0 0 0 .14.66 3 3 0 0 0 .53.55z"/><path d="m600.7 2.1h30.67c.26.3.55.47.55.64v29.79a3.75 3.75 0 0 1 -.5.47 1.28 1.28 0 0 1 -.61.21h-29.42c-.38-.42-.67-.59-.67-.76-.02-9.91-.02-19.83-.02-30.35zm3.53 4.83v7.07a4 4 0 0 0 .69 1.5 10.21 10.21 0 0 1 -1.4 1.21v10.23a13.89 13.89 0 0 1 2.13 2.14h19.87a13.78 13.78 0 0 1 1.41-.15c.19 0 .35-.29.52-.45a165.28 165.28 0 0 0 -.45-23.54h-8.48s-1 .84-1.49 1.27c-1.53.55-2-1-2.85-2h-8.5c-.8 1.42-1.45 2.72-1.45 2.72z"/><path d="m424.62 9.92-1.62-1.75c.34-.72.72-1.51 1.55-3.23 0-.55.11-2.15.19-3.71.46-.2.86-.54 1.26-.54h10.65l1.5 1.31 1-1c1.52-.67 3.13-.33 4.72-.22l1.13 1.13 2.34-1.43 2.19 1.43 1.39-1.23h2.77c.25.35.72.71.72 1.07v29.81a6.72 6.72 0 0 1 -.25 1.31c-.17.15-.34.44-.52.44q-14.19 0-28.33 0l-2.05-2 .91-1.09c.09-.09.41-.25.41-.42.04-6.65.04-13.28.04-19.88zm2.81-5v22.61a2 2 0 0 0 0 .7c.08.2.31.34.68.74h20.23c1.1 0 2.36.47 3.21-.73v-21.97a1.87 1.87 0 0 0 0-.71c-.08-.2-.3-.34-.57-.62z"/><path d="m31.27 33.05c-1.15.07-1.82.16-2.5.16h-28.03c-.35-.35-.58-.49-.67-.69a2 2 0 0 1 0-.69v-10.6c1.81-2.18 1.81-2.18.09-4.44.33-.33.68-.65 1-1 .11-.12.11-.32.16-.49l-1.18-1.15 1.18-1.48c-.32-.44-.77-.92-.61-1.49v-2.78c-.24-.4.29-.95.71-1.4-.42-.54-.93-1-1.42-1.51v-2.85c.47-.23.85-.64 1.23-.64h29.37c.37.44.65.62.65.79.02 9.87.02 19.78.02 30.26zm-26.98-28.11v23.26c0 .17.29.34.44.52 13.6.62 19.55.5 23.68-.48q0-11.32 0-22.66c0-.17-.29-.34-.56-.64z"/><path d="m142.45 2.1h30.28c1.05.88.32 2.15.55 3.3-.44.49-.9 1-.75 1.56v2.78c-.22.47.25 1 .71 1.47l-1.31 1.44 1.5 1.73a7.4 7.4 0 0 1 -.85 1.74c-1.53 1.83-1.1 3.38.6 4.93a18.62 18.62 0 0 1 -1.36 1.53v4.2c.46.42.93.93 1.62 1.69-.66 1.41-1.38 3-2.16 4.87h-28.75a259.66 259.66 0 0 1 -.08-31.24zm26.55 2.84h-12a12.45 12.45 0 0 0 -1.5 1.42h-2.62a26 26 0 0 0 -2.25-1.77l-2.37 1.41-1.4-1.09c-.79.83-1.42 1.5-1.31 2.17v9.78a4.86 4.86 0 0 0 -2 1.53l1.29 1.34v8.87a148.43 148.43 0 0 0 24.14 0z"/><path d="m36.21 32.73v-14.21c-.2-.56.27-1.3.93-2.33a16.92 16.92 0 0 0 -1.64-2.19v-11.55c.56-.23.74-.46.93-.46q14.84.01 29.67.01c.91 4.74 1.07 17.28.41 30.8-6.65.59-24.4.58-30.3-.07zm3.55-27.79v9.12l-1.36 1.48 1.22 1.46c-.47.64-1.18 1.17-1.22 1.74-.08 1.05-.4 2.26.6 3.26a3 3 0 0 1 .37 3.79c-.4.79-1.31 1.32-1 2.42 1.16.9 1.24 2.55 2.25 3.58 1.37-1 1.9-3 4-2.67l1.5 1.35 1.48-1.36h4.22l1.51 1.37 1.37-1.38c1.28 0 2.9.11 4.5 0s3.29.72 4.77-.67c0-5.62 0-11.29 0-17 0-.18.24-.36.36-.55.34-.33.67-.67 1-1l-1.33-1.53c-.25-1.1.5-2.36-.59-3.41z"/><path d="m248.51 5.6c-.75-.9-1-1.23-1.33-1.57.67-.66 1.34-1.33 2-1.93h22.64c.52-.58 1-1 1.53-1.52.5.47 1 .94 1.53.81h2.79c.23 1 .63 1.42.63 1.81v29.4c-.5.35-.68.6-.86.6-9.44 0-18.88 0-28.27 0-1.44-1.38.27-4-2.1-4.9.49-.53.95-1 1.39-1.54zm2.61 1.4v21.45c0 .18.29.35.56.64h21.68l2.11-2v-18.58a11.22 11.22 0 0 0 0-1.42c0-.19-.27-.36-.41-.53l-1.71-1.71h-20.09z"/><path d="m216.74 36.25-5-5c.42-.49.86-1 1.29-1.47l-1.32-1.48 1-1c.12-.19.35-.37.35-.56 0-7.55 0-15.1 0-22.45l-1.33-1.6c.91-.91 22.81-.94 31-.14v30.21c-.28.26-.44.53-.63.56-1.18.17-2.47-.39-3.48.94zm21.31-31.32c-6.92 0-13.8 0-20.69 0-.17 0-.34.26-.8.62v11.23a5.62 5.62 0 0 0 -2 1.63c.45.46 1.29 1.35 1.29 1.35v8.76a154.37 154.37 0 0 0 24.14 0v-21.59z"/><path d="m177.53 2.1h29.23c.24.23.47.37.55.57s0 .46.73.69v19.14c-.23.48.24 1 .72 1.5-.33.32-1.43 1.23-1.43 1.23v7.3c-4.78.91-16.75 1.06-29.36.41-.15-.17-.42-.35-.42-.53-.02-9.9-.02-19.8-.02-30.31zm26.86 10.47c0-1.11.07-2.25 0-3.39-.11-1.3.44-2.69-.6-4.1h-20.3c-.19 0-.38.16-.62.27l-1.82 1.92v9.59a14.68 14.68 0 0 0 -2 1.54c.45.45 1.29 1.36 1.29 1.36v8.74a135.28 135.28 0 0 0 24.15-.15v-13.1l1.23-1.25z"/><path d="m589 24.82h-16.31c-1-1.65-.39-3.38-.5-5a52 52 0 0 1 0-5.72c.06-1.59-.47-3.25.49-4.88h16.32c1 1.66.39 3.38.51 5a54.76 54.76 0 0 1 0 5.73c-.12 1.59.42 3.24-.51 4.87z"/><path d="m289.69 9.2h16.45c.27.28.49.42.57.62a2.09 2.09 0 0 1 0 .71v13.47c-.85 1.2-2.12.72-3.21.73-4.45 0-8.9 0-13.13 0-.38-.4-.65-.55-.68-.74a9.46 9.46 0 0 1 0-1.41z"/><path d="m714.28 26.24v-16.51c1.62-1 3.31-.42 4.91-.5 1.91-.1 3.83 0 5.74 0h5v15.02l-1.56 1.53c-.18.16-.34.42-.53.44a9.73 9.73 0 0 1 -1.43 0z"/><path d="m396.19 24.7v-15c.29-.26.47-.55.64-.56h15.6a3.63 3.63 0 0 1 .45.5 1.19 1.19 0 0 1 .22.61v13.83c-.42.37-.59.66-.76.67-5.18-.05-10.34-.05-16.15-.05z"/><path d="m360.69 24.82v-15c.29-.27.44-.54.63-.57a11 11 0 0 1 1.41 0h14.15c1.19.86.7 2.12.71 3.22.05 4 0 8 0 11.71-.4.37-.55.64-.74.67a9.46 9.46 0 0 1 -1.41 0z"/><path d="m342.23 9.37v15c-1.9.92-3.85.25-5.72.39a37.79 37.79 0 0 1 -5.63 0c-1.85-.13-3.78.51-5.69-.38v-15c1.9-.92 3.85-.25 5.72-.39a37.65 37.65 0 0 1 5.62 0c1.86.13 3.79-.51 5.7.38zm-11.13 2 .5.5a4.34 4.34 0 0 0 .45-.95c0-.12-.29-.31-.45-.47z"/><path d="m553.84 24.9c-3.13-.9-4.94 2.1-7.94 1.1l-1.27-1.12-1.48 1.35h-4.22c-.66-.92-1.9-1.38-2.21-3.08l1.47-2.07v-8.08l-1.65-2.86c1.18-1.18 4.72-1.28 16.84-.72.15.17.44.34.44.51.03 4.75.02 9.46.02 14.97z"/><path d="m518.31 26.24h-7.73a20 20 0 0 0 -1.44-1.44c-.45.39-.94.82-1.48.73h-4.19c-.24.23-.7-.12-.72-.48-.07-2.13 0-4.26 0-6.55l-1.3-1.58c.37-.43 1.27-1.73 1.27-1.73v-6h15c.24.24.53.39.56.58a9.87 9.87 0 0 1 0 1.44z"/><path d="m678.78 26.12v-16.47c.29-.26.46-.55.63-.56h14.19a3.63 3.63 0 0 1 .45.5 1.19 1.19 0 0 1 .22.61v15.25c-.41.37-.58.66-.75.67-4.71 0-9.43 0-14.74 0z"/><path d="m482.81 24.82h-15c-.27-.28-.49-.43-.57-.63a2 2 0 0 1 0-.7v-13.43c.86-1.19 2.12-.71 3.22-.72 4-.05 7.95 0 11.71 0 .37.4.64.55.67.74a9.46 9.46 0 0 1 0 1.41z"/><path d="m115.05 15.13 2.58-.66a12.91 12.91 0 0 0 .24-1.86 27.6 27.6 0 0 0 -.38-2.8l-1.58 3.39c-2-.82 0-2.47-1-3.24.45-.46.62-.77.78-.77h13c.29.41.53.59.53.77v14.38c-2.18.75-4.51.28-6.77.36s-4.63 0-6.84 0c-1.07-1.72-.47-3.37-.57-4.95-.04-1.4.01-2.81.01-4.62zm5.84-1.4c-.31-1.1-.21-2.2-1.45-1.24a4.45 4.45 0 0 0 1.24.84c.06.85.12 1.69.21 2.82l2.69-.18c-.8-1.42-1.48-2.42-2.69-2.24zm1.42 4.73c-.37-.37-.53-.66-.7-.67-.62 0-1.44-.19-1.8.13s-.41 1.18-.45 1.81c0 .13.74.52.89.41a25.18 25.18 0 0 0 2.06-1.68zm3.89-7-.5-.92c-.16.16-.47.35-.44.47a3.89 3.89 0 0 0 .44.95zm-9.73 8.32c.16.15.35.47.47.44a5.41 5.41 0 0 0 1-.44c-.16-.16-.35-.47-.47-.45a4.57 4.57 0 0 0 -1 .4zm9.43-6.19-.9.41c.16.16.35.48.47.45a4.82 4.82 0 0 0 1-.45z"/><path d="m643.28 25.37v-15.52c.84-1.19 2.11-.7 3.2-.72 3.76-.05 7.52 0 11.91 0l2 2.58-1.2 2.36c.57 1.67 2.35 3.66-.32 5.58v4.15l-1.87 2a2.17 2.17 0 0 1 -.64.29c-3.3 0-6.59 0-9.88 0-1.07-.09-2.32.43-3.2-.72z"/><path d="m95.14 10v14.82h-16.52c-1.08-1.7-.31-3.5-.53-5.19a22 22 0 0 1 0-5c.17-1.68-.5-3.45.45-5.09h16.09c.18.02.37.33.51.46zm-4.26 6.85c1 1 1.91 1 2.92-.13l-.43-2.12-2.49.52zm-4.33-.51c.3.29.78 1 1 .92.77-.24.76-1.75 0-2.28-.11-.08-.43-.09-.46 0-.09.38-.28.78-.54 1.4zm-2.74 6.19c.16.15.35.47.47.44a5.41 5.41 0 0 0 1-.44c-.16-.16-.35-.47-.47-.45a4.57 4.57 0 0 0 -1 .49z"/><path d="m623.4 11.2v8.46l1.07 1.34c-.53 1.12-1.08 2.26-1.71 3.61l-4.44.21-1.54 1.18-1.14-1.14c-2.16-.76-3.87.49-5.46 1.57l-2.4-2.3v-14.61c1.76-1 3.62-.33 5.39-.42a41.12 41.12 0 0 1 5.55 0c1.89.18 3.85-.46 6 .44z"/><path d="m447.31 9.2v15c-.28.27-.44.54-.62.57a9.6 9.6 0 0 1 -1.42 0h-12.72c-1.2-.85-.71-2.11-.72-3.21-.05-4 0-7.95 0-11.71.4-.38.55-.65.74-.68a11 11 0 0 1 1.41 0z"/><path d="m22.84 17.59 1.3.53v6c-.3.26-.47.55-.65.55q-7 0-14.11 0c-1.18-.86-.7-2.12-.71-3.22-.05-4 0-7.94 0-11.81 1.83-1.18 3.63-.38 5.32-.61a21.92 21.92 0 0 1 5 0c1.67.15 3.41-.48 5.34.56-.13.73-.27 1.53-.45 2.51l-1.94-1.7c-.23.75-.43 1.37-.66 2.11l3.24 1.58c-.58 1.2-1.15 2.37-1.68 3.5a3.23 3.23 0 0 0 -1.33.2c-.23-.9-.13-2-1.37-1a11.25 11.25 0 0 0 1.37 1c.08.2.17.88.4.93.85.19.99-.43.93-1.13zm-6.48 5.81c1-1 1-1.9-.13-2.92l-2.11.43c.2 1 .37 1.77.51 2.49zm5-.83c.15.15.35.47.46.44a5.18 5.18 0 0 0 1-.44c-.16-.16-.35-.47-.47-.45a4.57 4.57 0 0 0 -1.02.45zm-10.48-10.86.51-.51a5.18 5.18 0 0 0 -1-.44c-.11 0-.31.29-.46.44.34.18.65.35.95.51z"/><path d="m164.72 9.2v15.27l-2.4 1.35-.73-.73-1.45 1.15h-4l-1.62-1.42h-5.42v-15c.25-.25.39-.48.59-.57a2.09 2.09 0 0 1 .71 0zm-12.95 7.48-.51-.5a3.89 3.89 0 0 0 -.44.95c0 .12.28.31.44.47z"/><path d="m48.29 13.94c-2.3-.26-3 .19-3.72.66-1.08-1.49-.29-3.18-.52-4.75.35-.26.7-.74 1.06-.74h13.87c.37.41.67.58.67.76v14.16a4.2 4.2 0 0 1 -.53.51 1.25 1.25 0 0 1 -.62.19h-14c-.84-2.09-.26-4-.4-5.81 0-.38.36-.78.55-1.17 1.18.34.66 1.46 1.14 2.45l4.06.6-1.35 1.69c.34 1.17 1.26.81 2.38.65.56-1.95.17-4.05.29-6-.34-.91-1.64-1.14-1.42-2.32-1.19.21-1.41-1.09-1.44-.82 3.24.6 5.12 1.21 6.85.54.18-1.49.89-2.86-.39-3.9l-1.77 1.28c-1.93 0-2.78-2.94-4.59-.77 1.06.95 1.59 2.14-.12 2.79zm7 2.79c.37.37.53.66.69.67.62 0 1.45.19 1.81-.13s.41-1.18.45-1.81c0-.13-.74-.52-.89-.41a25.18 25.18 0 0 0 -2.1 1.68z"/><path d="m255.61 24.82v-15c.28-.27.43-.49.63-.57a2 2 0 0 1 .7 0h13.43c1.19.86.71 2.12.72 3.22.05 4 0 8 0 11.71-.4.37-.55.64-.74.67a9.46 9.46 0 0 1 -1.41 0z"/><path d="m235.73 9.2v15c-.29.27-.44.53-.63.56a9.48 9.48 0 0 1 -1.41 0h-12.69c-1.19-.86-.7-2.12-.72-3.22-.05-4 0-8 0-11.7.41-.38.56-.65.75-.68a11 11 0 0 1 1.41 0zm-3.53 8.42a3 3 0 0 0 0-4.31 3 3 0 0 0 0 4.31zm-8.72-1.62.91-.5c-.16-.16-.35-.48-.46-.45a5.18 5.18 0 0 0 -1 .44z"/><path d="m184.94 9.2h14.91c1.32 1.73.17 3.74.64 5.53a9.53 9.53 0 0 1 0 4.15c-.35 1.91.43 3.87-.5 5.94h-10.63l-.94-.94-3.21 1.12c-1.04-1.08-1.05-7.39-.27-15.8zm6.63 12.26c.31 1.1.21 2.2 1.45 1.24a4.26 4.26 0 0 0 -1.29-.85c-.26-.91.69-2.19-.83-2.71-.62 1.86-.62 1.86.67 2.32zm-1-10.46.5.91c.16-.15.47-.35.45-.46a4.64 4.64 0 0 0 -.45-1zm6.39 2.54-.96.46c.16.16.35.48.47.45a4.57 4.57 0 0 0 .95-.45z"/></g></svg>