<svg xmlns="http://www.w3.org/2000/svg" viewBox="0 0 605 40" preserveAspectRatio="none"><defs><style>.cls-1{fill:#d79f2e;}</style></defs><title>VemosIntro3</title><g id="Layer_2" data-name="Layer 2"><g id="ornamentos"><path class="cls-1" d="M602.63,1.59l-3,2a3.43,3.43,0,0,1-.5-3.62h-4.86l1.23,1.31L593.19,4a3.67,3.67,0,0,1-.75-4h-5.32a4.51,4.51,0,0,1-.35,3.59c-1.39-.15-1.85-1.51-2.83-2.19A17.58,17.58,0,0,0,585.26,0h-5.07c.34.59.23,1.4-.21,4.17l-2.85-2.85L578.66,0h-5.27c.41.76.29,1.46-.21,4.1l-2.73-2.73L571.82,0H567c.35,1.06-.12,2.27-.23,3.56L564.66,4a3.56,3.56,0,0,1-.84-4H538.75l1.47,1.7-3.05,1.64A3.07,3.07,0,0,1,536.91,0h-4.85l1.43,1.38L531,3.71l-2.63-2.3L529.75,0H525c.49,1.08.29,2.47-.87,4L521.6,1l1.9-1h-5.62c.39.76.27,1.46-.23,4.08l-2.72-2.73L516.28,0h-6.1l1.2,1.29L509.07,4A3.68,3.68,0,0,1,508.3,0h-5.18l1,2.09c-.08.07-.84.83-1.59,1.59-.87-1.28-1-1.52-.64-3.68H111.65c1,1.35,2.33,1.86,2.59,3.44l-3.35.61c.35-1.86.52-2.79.76-4H0V.82C1,.63,1.93.67,3.06.46,3.27,1.56,3.41,2,3.69,4H.43C.29,3,.17,2.18,0,1.32V29H3.1c.16,1,.3,1.66.52,2.78L.47,32.4C.3,31.54.18,30.91,0,30v6H3.1c.16,1,.3,1.52.52,2.65-1.05.19-2,.33-3.15.55C.3,38.34.18,37.64,0,36.71V40H605V0h-4ZM524,7.34c1.39,1.21,1.35,1.66.16,3.66h-2.05c-.18-1-.37-1.88-.61-3C522.62,7.73,523.37,7.48,524,7.34Zm-2,10.13c-.22-1.09-.38-1.84-.52-2.51,1.21-1.38,2.46-1.34,3.46-.15v2C524,17,523.23,17.23,522.06,17.47Zm2.94,3v3.27c-1,.16-1.67.3-2.8.52-.19-1.05-.34-2-.56-3.15C522.75,20.89,523,20.74,525,20.46ZM517.9,6.91c.21,1.1.35,2.09.64,3.09h-3.27a12.58,12.58,0,0,1-.52-2.62C515.8,7.19,516.74,7.12,517.9,6.91ZM517.45,17h-2c-.18-1-.37-1.61-.62-2.78,1.1-.23,1.85-.46,2.51-.6C518.69,14.83,518.65,16,517.45,17Zm.55,3.46v3.26c-1,.17-1.54.31-2.66.53-.2-1.05-.41-2-.63-3.16C515.82,20.88,517,20.74,518,20.46ZM517.94,28a11.19,11.19,0,0,1,.52,2.52c-1,.2-2,.48-3.15.7-.21-1.11-.35-2.22-.63-3.22ZM508,27.77l2.73-.52c.2,1.05.38,2,.59,3.15L508,31Zm0-4.54V21.18c1-.17,1.88-.37,3.05-.61.22,1.09.32,1.84.46,2.51C510.31,24.46,509,24.42,508,23.23Zm0-15.51c1-.17,1.88-.37,3.05-.61.22,1.09.33,1.84.46,2.51C510.31,11,509,11,508,9.77Zm2.57,6c1.39,1.2,1.35,2.29.15,3.29h-2c-.18-1-.37-1.7-.62-2.87C509.16,13.91,509.91,13.84,510.57,13.71Zm-6-6C504.29,9.13,503,9.65,502,11c-.22-1.25-.38-2.18-.52-2.93C502.67,6.94,503.6,7,504.56,7.76Zm-.72,6c1.39,1.2,1.35,2.29.15,3.29h-2c-.18-1-.37-1.7-.62-2.87C502.43,13.91,503.18,13.84,503.84,13.71ZM502,24.19c-.22-1.09-.33-1.84-.46-2.5,1.2-1.39,2.5-1.35,3.5-.15v2C504,23.76,503.13,24,502,24.19Zm2.59,6.25-2.35.36c-1-1.26-1.06-2.19.3-3.65C503.17,28.24,503.82,29.27,504.55,30.44ZM497.81,1c-.19,1.41-1.54,1.89-2.52,3.3-.26-1.28-.44-2.21-.59-3C495.9.2,496.82.26,497.81,1Zm-.7,6.34c1.39,1.2,1.35,1.66.16,3.66h-2c-.18-1-.37-1.88-.61-3C495.7,7.73,496.45,7.47,497.11,7.34ZM470,1.33V3.38c-1,.18-2,.37-3.2.61-.22-1.09-.25-1.84-.38-2.5C467.62.1,468,.14,470,1.33Zm-1,13.46v2.05a11.61,11.61,0,0,1-2.7.61c-.23-1.09-.5-1.84-.64-2.5C466.87,13.56,468,13.6,469,14.79Zm.52,15c-1.2,1.39-2.52,1.35-3.52.16V27.9c1-.18,1.81-.37,3-.61C469.21,28.38,469.39,29.13,469.52,29.79ZM456.33,1c-1.13,1.22-2,2-3.22,3.29-.26-1.44-.4-2.18-.74-4Zm-2.81,26.38,2.33,2.5-2.32,2.67A3.71,3.71,0,0,1,453.52,27.37Zm0-6.73L455.81,23c-.21,1.58-1.44.93-2.32,1.06C452.27,22.91,452.43,21.79,453.47,20.64Zm2.75-10.72c-1.05.19-2,.28-3.15.5-.21-1.11-.36-1.42-.64-3.42h3.27C455.86,8,456,8.79,456.22,9.92ZM449.29,1.3c-.93.77-1.46,2-3,2.32-.15-.76-.29-1.51-.41-2.17C447,.12,448.15.13,449.29,1.3ZM447,13.68,449,17l-2.35.36C445.69,16.06,445.62,15.13,447,13.68Zm-.19-6.46a2,2,0,0,1,0,3.37A2,2,0,0,1,446.79,7.22Zm.29,13c.25,1.28.44,2.2.59,3-1.2,1.13-2.13,1.08-3.11.33C444.74,22.14,446.09,21.66,447.08,20.26ZM433.21.4c1.33,1.18,1.32,2.29,0,3.55-.53-.6-1.08-1.17-1.57-1.79a8.88,8.88,0,0,1-.72-1.33Zm-6.76.06C427.84,1.67,427.8,3,426.6,4h-2c-.18-1-.37-1.82-.62-3C425,.79,425.79.6,426.45.46ZM427,7v3.27c-1,.16-1.46.3-2.59.52-.19-1-.44-2-.66-3.15C424.85,7.4,426,7.25,427,7Zm-.55,6.72c1.38,1.21,1.34,2.31.15,3.31h-2.05c-.17-1-.37-1.71-.61-2.88C425,13.9,425.78,13.83,426.45,13.69Zm.55,6.74V23.7l-2.73.52c-.2-1-.38-2-.59-3.15ZM417,1c1-.18,1.95-.38,3.13-.62.22,1.09.28,1.84.42,2.51C419.34,4.25,418,4.2,417,3ZM406.91,1a12.15,12.15,0,0,1,.52,2.55c-1.05.19-2,.46-3.15.68-.21-1.1-.36-2.23-.64-3.23ZM400,.23V3.5a12.15,12.15,0,0,1-2.55.52c-.19-1-.46-2-.68-3.15C397.87.66,399,.51,400,.23Zm-2,20.46L400.29,23c-1.45,1.08-1.45,1.1-4.55.51C396,22.14,397.26,21.62,398,20.69Zm.08-6.85c.53.59,1.08,1.16,1.57,1.79a8.4,8.4,0,0,1,.72,1.33l-2.27.43C396.78,16.21,396.79,15.1,398.09,13.84ZM385,.23V3.49L382.27,4c-.2-1-.38-2-.59-3.15Zm-6,0V3.49L376.27,4c-.2-1-.38-2-.59-3.15Zm-7,0V3.49L369.27,4c-.2-1-.38-2-.59-3.15ZM371.57,7c.16.86.31,1.61.52,2.73l-3.15.6L368.31,7Zm-.65,21.76c1.39,1.2,1.35,2.24.15,3.24h-2a14.2,14.2,0,0,1-.62-2.84C369.51,28.93,370.25,28.89,370.92,28.76Zm-2.45-5.54a2.48,2.48,0,0,1,3.31-.47C371,24.76,369.94,24.27,368.47,23.22ZM365,.22V3.49L362.27,4c-.2-1-.38-2-.59-3.15Zm.31,10c-1.11.21-2.31.35-3.31.63V7.54c1-.16,1.6-.31,2.73-.52C364.92,8.06,365.09,9,365.31,10.17ZM358,.22V3.48L355.27,4c-.2-1-.38-2-.6-3.16Zm.06,6.66c.21,1.11.36,2.12.64,3.12h-3.27a13.51,13.51,0,0,1-.52-2.63C356,7.17,356.9,7.1,358.06,6.88ZM355,16.43c.13-.75.27-1.49.41-2.25,1.71.09,1.91,1.77,3.19,2.14C357.31,17.68,356.2,17.53,355,16.43Zm3.21,6.44c-.14,1.47-1.74,1.72-2.5,3.87-.34-1.93-.51-2.86-.64-3.62C356.29,22,357.22,22.06,358.2,22.87ZM352,.22V3.48L349.27,4c-.2-1-.38-2-.59-3.15Zm-1.26,7.1c1.38,1.2,1.34,1.68.15,3.68h-2.05c-.17-1-.37-1.89-.61-3.06C349.32,7.71,350.07,7.45,350.74,7.32Zm-1.51,6.52,2.18,2.52c-.23,1.13-1.48,1.65-2.25,2.6C347.81,17.29,347.82,15.63,349.23,13.84ZM344.65,1a11.1,11.1,0,0,1,.53,2.54c-1.05.19-2,.47-3.16.69-.21-1.11-.35-2.23-.63-3.23Zm-9.74.28c1.13-1.22,2.25-1.07,3.4,0L336,3.59C334.39,3.39,335,2.16,334.91,1.28Zm0,6.79A5.32,5.32,0,0,1,336,7.46c.19.46.41.91.56,1.38a12,12,0,0,1,0,1.83l-3.67-.57C333.79,9.18,334.3,8.59,334.88,8.07Zm1.74,8.38c-1.2,1.14-2.12,1.08-3.1.33.18-1.4,1.53-1.88,2.51-3.29C336.29,14.77,336.47,15.7,336.62,16.45ZM323,1.29v2c-1,.18-1.72.37-2.89.62-.22-1.1-.4-1.85-.54-2.51C320.77.05,322,.09,323,1.29ZM322.78,7c.16.86.31,1.61.52,2.73l-3.15.6c-.21-1.11-.35-1.86-.64-3.33ZM316,.21V3.47c-1,.16-1.48.31-2.61.52-.19-1.05-.43-2-.65-3.15C313.84.63,315,.49,316,.21Zm0,6.73V10.2c-1,.16-1.48.31-2.61.52-.2-1.05-.43-2-.65-3.15C313.84,7.36,315,7.22,316,6.94ZM302.54.67c.21,1.11.36,1.86.64,3.33h-3.27c-.16-.86-.3-1.61-.52-2.73Zm-2.15,20,2.75,2.75-3,2A3.54,3.54,0,0,1,300.39,20.62Zm0-6.76,2.34,2.34c-.2,1.58-1.43.93-2.31,1.06C299.17,16.13,299.32,15,300.36,13.86ZM302.59,7c.16.86.31,1.61.52,2.73l-3.15.59c-.21-1.1-.35-1.85-.64-3.32ZM295.36.53A2.21,2.21,0,0,1,295.45,4h-1.72c-.75-1-2.05-1.51-2.28-2.88C292.66.07,294.07.8,295.36.53ZM274,.19V3.46c-1,.16-1.51.3-2.64.52-.2-1-.42-2-.64-3.15C271.83.62,273,.47,274,.19Zm-.66,7.11c1.39,1.21,1.35,1.7.15,3.7h-2c-.18-1-.37-1.9-.62-3.07C271.93,7.71,272.68,7.44,273.34,7.3ZM274,14c.17,1,.33,1.54.54,2.49-.8.71-1.59,1.46-2.42,2.15-.11.1-.37,0-.55,0-1.1-1.19-.28-2.64-.72-4.64Zm.12,8.85c-.13,1.47-1.73,1.71-2.5,3.86-.34-1.93-.5-2.86-.63-3.61C272.17,22,273.09,22,274.07,22.85ZM242,.91c1-.18,2-.37,3.14-.61.22,1.09.28,1.84.41,2.5C244.35,4.19,243,4.15,242,3Zm3.48,27.94c.2,1,0,2,.22,3.15-1.1.21-1.7.36-3.7.64a5,5,0,0,0,1-3.27A11.2,11.2,0,0,1,245.48,28.85Zm-2.84-6.2,2.35-.36c1,1.27,1,2.19-.3,3.65C244,24.86,243.36,23.82,242.64,22.65Zm3.13-13c-1.2,1.14-2.13,1.08-3.11.34.19-1.41,1.54-1.89,2.52-3.3C245.44,8,245.62,8.94,245.77,9.69Zm-7.58,16-2.33-2.34c.2-1.58,1.43-.94,2.31-1.07C239.39,23.44,239.24,24.55,238.19,25.71Zm-.24,7c-.67-1.09-1.32-2.12-2-3.29l2.35-.36C239.24,30.28,239.31,31.21,238,32.67Zm0-18.54c1.1,1.33,1.13,1.33.47,5l-2.75-2.75Zm-2-4.11c.19-1.4,1.54-1.88,2.52-3.29.26,1.28.44,2.21.59,3C237.84,10.83,236.91,10.77,235.93,10ZM229.74,0h2c.17,1,.37,2,.61,3.16-1.09.23-1.84.27-2.51.41C228.51,2.36,228.55,2,229.74,0ZM222,.9c1-.17,1.87-.37,3-.61.22,1.09.33,1.84.46,2.51C224.3,4.18,223,4.14,222,3Zm3.48,9.22c-1.1.21-1.48.36-3.48.64V7.49c1-.16,1.68-.3,2.81-.52C225,8,225.27,9,225.48,10.12ZM223,13.84l2.34,2.34c-.21,1.57-1.44.93-2.32,1.06C221.77,16.11,221.93,15,223,13.84Zm2.33,9.82a12.11,12.11,0,0,1-2.23.26c-.23,0-.48-.67-.6-1.06,0-.13.35-.55.54-.54.75,0,1.5.17,2.25.27ZM215,.9c1-.18,2-.37,3.18-.61.22,1.09.26,1.84.39,2.51C217.37,4.18,217,4.14,215,3Zm.89,5.94c.92.88,1.52,1.39,2,2a5.35,5.35,0,0,1,.62,1.13,13.91,13.91,0,0,1-1.39.56,10.58,10.58,0,0,1-1.83,0C215.55,9,215.7,8.08,215.89,6.84Zm2.92,9.56-2.28,2.28c-1-1.4-1-1.4-.49-5ZM202.51,0c1,1.35,2.33,1.85,2.59,3.44l-3.36.61C202.09,2.22,202.27,1.29,202.51,0ZM189.37.41a2,2,0,0,1,0,3.37A2,2,0,0,1,189.37.41ZM182.67,19l-2.33-2.34c.2-1.58,1.43-.93,2.31-1.06C183.87,16.69,183.72,17.8,182.67,19Zm-.14,6.78c-.53-.59-1.08-1.16-1.57-1.79a8.4,8.4,0,0,1-.72-1.33l2.27-.43C183.84,23.37,183.84,24.48,182.53,25.74Zm.38-25c.13,0,.55.35.54.54,0,.75-.17,1.5-.27,2.25l-1.07,0a12.11,12.11,0,0,1-.26-2.23C181.86,1.08,182.52.82,182.91.71ZM177,.16V3.43c-1,.16-1.8.3-2.93.52-.2-1.05-.28-2-.49-3.15C174.68.59,175,.44,177,.16Zm-.21,9.51c-1.2,1.14-2.13,1.08-3.11.33.19-1.4,1.54-1.88,2.52-3.29C176.45,8,176.64,8.92,176.79,9.67ZM167,.89c1-.18,1.61-.37,2.78-.62.22,1.1.46,1.84.59,2.51-1.2,1.39-2.37,1.35-3.37.15Zm2.19,21.39c1.22,1.13,1.07,2.25,0,3.4l-2.33-2.34C167.08,21.77,168.31,22.41,169.19,22.28ZM167,16.11c0-.13.35-.54.54-.54.75,0,1.5.17,2.25.27,0,.36,0,.71,0,1.07a11.3,11.3,0,0,1-2.23.26C167.32,17.16,167.06,16.51,167,16.11Zm2-8.75c1.57.21.93,1.44,1.06,2.32-1.13,1.21-2.25,1.06-3.4,0C167.41,8.89,168.17,8.13,169,7.36ZM162.3.42c1.39,1.2,1.35,2.58.15,3.58h-2c-.18-1-.37-1.84-.62-3C160.89.77,161.63.56,162.3.42Zm-9.11,22.67c1.13-1.22,2.25-1.06,3.4,0l-2.33,2.34C152.68,25.2,153.32,24,153.19,23.09Zm1.07-4.41c-1.58-.21-.94-1.44-1.07-2.32,1.14-1.22,2.25-1.06,3.41,0C155.79,17.14,155,17.91,154.26,18.68ZM154,10.49c-1.22-1.14-1.06-2.25,0-3.4l2.34,2.33C156.12,11,154.89,10.36,154,10.49ZM146,.88c1-.18,2-.37,3.18-.61.23,1.09.26,1.84.4,2.5-1.21,1.39-1.58,1.35-3.58.15ZM140.43.42c1.38,1.2,1.34,2.58.15,3.58h-2.05c-.17-1-.37-1.84-.61-3C139,.77,139.76.55,140.43.42Zm1,9.25c-1.14,1.22-2.25,1.06-3.4,0l2.33-2.34C141.92,7.56,141.28,8.79,141.41,9.67Zm.1,6.72c-.13.75-.27,1.49-.41,2.26-1.72-.09-1.91-1.78-3.19-2.14C139.18,15.14,140.3,15.29,141.51,16.39ZM135,.15V3.41c-1,.17-1.83.31-3,.52-.2-1-.26-2-.48-3.15C132.66.57,133,.43,135,.15ZM133,8a5.35,5.35,0,0,1,1.13-.62,13.91,13.91,0,0,1,.56,1.39,10.58,10.58,0,0,1,0,1.83L131,10C131.89,9.12,132.4,8.52,133,8Zm.86,11h-2c-.18-1-.37-1.83-.62-3,1.1-.22,1.85-.35,2.51-.49C135.08,16.72,135,18,133.84,19ZM128,.15V3.41c-1,.16-1.7.31-2.83.52-.19-1-.32-2-.54-3.15C125.73.57,126,.43,128,.15Zm0,9.55c-1.23,1.08-2.16,1.06-3.14.25.13-1.47,1.74-1.72,2.5-3.87C127.68,8,127.84,8.94,128,9.7ZM111.9,6.42c.78,1.66,1.31,2.8,1.86,4L112.16,12C111.1,10.39,111.09,10.39,111.9,6.42Zm.06,7.41,2.74,2.75-3,2A3.53,3.53,0,0,1,112,13.83Zm-6.43.29a4.42,4.42,0,0,1,0,4.46c-1.39-.15-1.85-1.51-2.83-2.19C103.67,15.64,104.19,14.38,105.53,14.12ZM105.28,7l2.14,2.65c-.15,1-1.49,1.53-2.19,2.52C103.83,10.52,103.88,8.87,105.28,7Zm2.52,16.11-2.5,2.33-2.67-2.32C104.43,21.72,106.08,21.7,107.8,23.11ZM98.41,19c-.53-.59-1.08-1.16-1.57-1.78a9.07,9.07,0,0,1-.72-1.34l2.27-.43C99.72,16.62,99.71,17.73,98.41,19Zm0,6.73c-.53-.59-1.08-1.16-1.58-1.78a11.47,11.47,0,0,1-.72-1.34l2.28-.43C99.72,23.35,99.71,24.46,98.41,25.71ZM95.94,9.58c.79-.69,1.59-1.37,2.38-2.07,1.06,1,1.09,1,.46,4.92ZM99,.66c.1.65.24,1.58.36,2.35-1.26,1-2.19,1-3.65-.3ZM89,.72c1-.16,1.81-.3,2.94-.52.19,1.05.27,2,.49,3.15C91.32,3.56,91,3.71,89,4ZM92,22v3.26a10.75,10.75,0,0,1-2.5.52c-.19-1-.49-2-.71-3.15C89.9,22.43,91,22.29,92,22Zm-2.61-6.15,2.27-.43C93,16.61,93,17.72,91.68,19c-.53-.59-1.08-1.16-1.57-1.79A8.4,8.4,0,0,1,89.39,15.86ZM86,.13V3.4l-2.73.52c-.2-1-.38-2-.59-3.15ZM84.9,6.78C86.29,8,86.25,9,85.05,10H83a13.56,13.56,0,0,1-.61-2.84C83.49,6.94,84.24,6.91,84.9,6.78ZM85,19c-.53-.59-1.08-1.17-1.57-1.79a8.4,8.4,0,0,1-.72-1.33l2.27-.43C86.26,16.61,86.25,17.72,85,19Zm.14,6.68-2.34-2.34c.21-1.58,1.44-.93,2.32-1.06C86.28,23.39,86.13,24.5,85.09,25.66ZM79,1.21V3.26c-1,.17-1.7.37-2.87.61-.22-1.09-.42-1.84-.55-2.51C76.78,0,78,0,79,1.21Zm.2,8.43c-1.2,1.14-2.12,1.08-3.1.33.18-1.4,1.53-1.88,2.51-3.29C78.87,8,79.05,8.89,79.2,9.64ZM72,.47c.21,1.11.36,1.53.64,3.53H69.41c-.16-1-.3-1.71-.52-2.84C69.94,1,70.88.69,72,.47ZM69.88,25.6c-1.22-1.13-1.06-2.25,0-3.46l2.26.42C71.91,24.14,70.61,24.64,69.88,25.6ZM71.59,32h-2c-.17-1-.37-1.61-.61-2.78,1.09-.22,1.84-.46,2.51-.6C72.82,29.83,72.78,31,71.59,32ZM69.9,7h2c.17,1,.37,1.83.61,3-1.09.23-1.84.35-2.51.49C68.67,9.28,68.71,8,69.9,7ZM59,1.21v2c-1,.18-1.8.37-3,.61-.22-1.09-.36-1.84-.5-2.5C56.74,0,58,0,59,1.21Zm.19,6.88L55.89,9.7c0-.17-.17-1.1-.29-1.86C56.86,6.84,57.79,6.78,59.19,8.09Zm-2.75,5.73,2.74,2.74-3,2A3.52,3.52,0,0,1,56.44,13.82Zm2.25,8.94c-.26,1.37-1.51,1.89-2.6,3.2-.22-1.25-.38-2.18-.51-2.93C56.81,21.94,57.73,22,58.69,22.76ZM43,10.46a2,2,0,0,1,0-3.37A2,2,0,0,1,43,10.46Zm.29,8.12c-1.17-1.18-1.21-1.18-.44-5.24C44.12,15.6,44.12,17.09,43.28,18.58ZM36.28.37c1.22,1.13,1.06,2.24,0,3.46L34,3.41C34.25,1.83,35.55,1.33,36.28.37ZM27,.85,29.57.29a4.48,4.48,0,0,1,.3,4.79C28.46,5,28,3.56,27,2.88Zm3.41,8.77c-1.2,1.14-2.13,1.08-3.11.34.19-1.41,1.54-1.89,2.52-3.29C30.08,7.94,30.26,8.87,30.41,9.62ZM30,15.26v3.26c-1,.17-1.5.31-2.62.52-.2-1-.43-2-.65-3.15C27.83,15.68,29,15.54,30,15.26Zm0,7.81v2a13,13,0,0,1-2.77.62c-.22-1.1-.46-1.85-.6-2.51C27.83,21.83,29,21.87,30,23.07ZM20,.7c1-.16,1.82-.31,2.94-.52.2,1.05.27,2,.49,3.15C22.33,3.54,22,3.68,20,4Zm2.65,21.64C24,23.54,24,24,22.8,26H20.75c-.17-1-.37-1.88-.61-3.05C21.23,22.72,22,22.47,22.65,22.34Zm-2.73-6.45C21,15.68,22,15.54,23,15.26v3.26a12.42,12.42,0,0,1-2.61.52C20.19,18,20.14,17.06,19.92,15.89ZM7,.7C8,.53,8.59.39,9.71.17c.2,1.05.39,2,.6,3.16C9.21,3.54,8,3.68,7,4Zm3,8.64c-.6,2.25-2,.22-2.78.57C8.06,8.5,9,8.45,10,9.34ZM7,16c1-.18,1.69-.37,2.86-.62.22,1.1.42,1.85.55,2.51C9.21,19.26,8,19.22,7,18ZM.92,8.79c.76,0,1.5.17,2.25.27l.05,1.07A12.31,12.31,0,0,1,1,10.39c-.24,0-.49-.67-.6-1.06C.35,9.2.74,8.78.92,8.79Zm0,6.6,2.26.42c-.26,1.58-1.56,2.08-2.29,3C-.32,17.72-.16,16.6.93,15.39Zm.85,9.31a5.35,5.35,0,0,1-1.13.62c-.19-.46-.41-.91-.56-1.39a12,12,0,0,1,0-1.83l3.67.57C2.87,23.59,2.36,24.19,1.78,24.7ZM7.2,39.24C7,38.14,6.84,37,6.56,36H9.83c.16,1,.3,1.56.52,2.69C9.3,38.89,8.36,39,7.2,39.24ZM7,32.56V29.3c1-.16,1.58-.31,2.71-.52.2,1,.38,2,.6,3.15C9.21,32.14,8,32.28,7,32.56Zm.2-7C7,24.41,6.85,24,6.57,22H9.83c.16,1,.31,1.7.52,2.83C9.3,25,8.37,25.29,7.2,25.51ZM17,38.57c-1,.18-1.83.37-3,.61-.22-1.09-.35-1.84-.49-2.51,1.21-1.38,2.49-1.34,3.49-.15Zm-3-7.09v-2a11.89,11.89,0,0,1,2.72-.61c.22,1.09.49,1.84.62,2.5C16.14,32.72,15,32.68,14,31.48Zm-.07-6.15L13.3,22h3.26c.16.86.31,1.61.52,2.73ZM13.32,9.46l3.31-1.61c0,.17.17,1.09.29,1.86C15.65,10.7,14.72,10.77,13.32,9.46ZM17,16.33v2.05c-1,.18-1.83.37-3,.61-.22-1.09-.35-1.84-.48-2.51C14.72,15.1,16,15.14,17,16.33ZM13.94,3.57C13.73,2.47,13.58,2,13.3,0a5,5,0,0,0,3.27,1,9.33,9.33,0,0,1,.52,2.36C16,3.56,15.1,3.36,13.94,3.57ZM20,39.3V36c1-.16,1.81-.3,2.94-.52.19,1.05.27,2,.49,3.15C22.32,38.87,22,39,20,39.3Zm.66-7c-.21-1.1-.36-1.85-.64-3.32h3.27c.16.86.3,1.61.52,2.73ZM22.82,12H21.15c-1.61-1-.76-2.86-.6-4.65C21.24,7.21,22,7,22.7,6.88,24.23,8.66,24.2,10,22.82,12ZM27,39.3V36c1-.16,1.68-.3,2.8-.52.2,1.05.34,2,.56,3.15C29.26,38.88,29,39,27,39.3Zm.34-7.3c-.16-1-.31-1.52-.52-2.64,1.05-.2,2-.42,3.15-.64.21,1.1.35,2.28.63,3.28ZM37,38.57c-1,.18-1.74.38-2.91.62-.22-1.09-.39-1.84-.53-2.51,1.2-1.39,2.44-1.34,3.44-.15ZM33.65,15.89c1.11-.21,1.35-.35,3.35-.63v3.26c-1,.17-1.62.31-2.75.53C34.06,18,33.87,17.06,33.65,15.89ZM34,31.49v-2c1-.18,1.65-.37,2.82-.62.22,1.1.44,1.84.57,2.51C36.19,32.73,35,32.69,34,31.49Zm1.83-5.92a10.94,10.94,0,0,1-2-.57c-.25-1.8.07-2.94,2.81-2.69l1.83,3C38,25.88,36.86,25.64,35.83,25.57Zm.38-13.38-2.3-2.63,2-2.16c1.4.23,2,1.41,2.79,2.31ZM43,39h-2c-.18-1-.37-1.75-.62-2.92,1.1-.22,1.85-.39,2.51-.53C44.22,36.76,44.18,38,43,39Zm-2.29-9c.2-1.57,1.43-.93,2.31-1.06,1.22,1.13,1.07,2.25,0,3.4Zm2.82-4.68c-1.71-.1-1.91-1.78-3.19-2.14,1.28-1.37,2.39-1.22,3.61-.12C43.79,23.84,43.65,24.58,43.51,25.35ZM43,3.86c-1.1-1.38-1.16-2.31-.25-3.3C44.57,1.26,44.08,2.33,43,3.86Zm7,35c-1.83-.69-1.34-1.76-.25-3.29C50.81,37,50.87,37.88,50,38.86Zm-.21-6.48L47.42,30c.2-1.58,1.43-.94,2.31-1.07C51,30.11,50.8,31.22,49.75,32.38Zm.49-7c-1.71-.09-1.91-1.78-3.19-2.14,1.28-1.37,2.39-1.22,3.61-.12C50.52,23.84,50.38,24.58,50.24,25.35Zm-.82-11.23c1.17,1.18,1.21,1.18.44,5.24C48.58,17.09,48.58,15.6,49.42,14.12Zm-2.5-4.23,2.85-2.84,2.07,2.38C50.84,10.49,50.84,10.52,46.92,9.89ZM52,3.39c-1,.16-1.56.3-2.68.52-.2-1.05-.4-2-.62-3.15C49.8.55,51,.4,52,.12ZM58.62,29c.16,1,.31,1.66.52,2.79-1,.2-2,.35-3.15.56-.21-1.1-.35-1.35-.63-3.35ZM55.94,39c-.16-1-.31-1.65-.52-2.77l3.15-.57c.21,1.1.35,1.34.64,3.34ZM65.36,1a10.61,10.61,0,0,1,.52,2.49c-1,.2-2,.5-3.15.71C62.52,3.1,62.38,2,62.1,1ZM66,6.86v3.26c-1,.16-1.83.31-3,.52-.19-1-.26-2-.48-3.15C63.67,7.28,64,7.14,66,6.86Zm-3.66,16.2c1.13-1.21,2.25-1.06,3.4,0L63.4,25.38C61.82,25.17,62.47,23.94,62.34,23.06ZM66,29.81v2c-1,.18-1.94.37-3.11.62-.22-1.1-.29-1.84-.43-2.51C63.67,28.57,65,28.61,66,29.81Zm-4,8.42v-2c1-.18,2-.38,3.12-.62.22,1.09.29,1.84.42,2.51C64.34,39.47,63,39.42,62,38.23ZM62.68,19c-.17-1-.31-1.74-.52-2.87,1-.19,2-.3,3.15-.52.21,1.1.35,1.39.63,3.39ZM69.4,39c-.16-1-.31-1.64-.52-2.77,1.05-.2,2-.35,3.15-.57.21,1.1.35,1.34.64,3.34Zm0-20.4c-.1-.65-.25-1.58-.37-2.35,1.27-1,2.2-1.05,3.65.3ZM78.31,39h-2c-.18-1-.37-1.75-.61-2.92l2.5-.52C79.55,36.76,79.51,38,78.31,39ZM76,31.5v-2c1-.18,1.68-.37,2.85-.61.22,1.09.42,1.84.56,2.5C78.21,32.74,77,32.7,76,31.5Zm0-8.18c.21-1.58,1.44-.94,2.32-1.07,1.21,1.14,1.06,2.25,0,3.4ZM78.29,19l-2.37-2.73c.71-.71,1.56-1.55,2.41-2.41C79.71,15.51,79.69,17.17,78.29,19ZM83,38.24V36.19a11.75,11.75,0,0,1,2.71-.61c.22,1.09.5,1.84.63,2.51C85.14,39.47,84,39.43,83,38.24Zm-.09-5.85c-.21-1.11-.35-1.39-.63-3.39h3.26c.16,1,.31,1.64.52,2.76C85,32,84.08,32.17,82.91,32.39ZM93,38.59c-1,.18-2,.37-3.15.62-.22-1.1-.27-1.85-.41-2.51,1.2-1.39,1.56-1.35,3.56-.15ZM91.78,32h-2c-.17-1-.37-1.61-.61-2.78,1.09-.22,1.84-.46,2.51-.59C93,29.83,93,31,91.78,32ZM90.24,10.51C88.86,9.31,88.9,8,90.09,7h2c.17,1,.37,1.81.61,3C91.66,10.2,90.91,10.38,90.24,10.51ZM98.56,29c1.08,1.23,1.06,2.16.26,3.12-1.36-.27-1.89-1.52-3.19-2.6ZM96.32,39c-.16-1-.31-1.64-.52-2.77,1-.19,2-.35,3.15-.57.21,1.1.35,1.34.64,3.34Zm9.68-.26c-1,.16-1.64.3-2.77.52-.2-1-.35-2-.57-3.15,1.1-.21,1.34-.36,3.34-.64ZM105.22,32c-1-.16-1.53-1.49-2.5-2.18.71-1.08,1.83-.9,2.86-.82a16.92,16.92,0,0,1,2.57.64Zm0-28.22c-1.14-1.2-1.08-2.13-.32-3.13,1.53,0,1.69,1.8,4.24,2.35Zm7.6,35.28a12,12,0,0,1-1.83,0c.23-1.5.37-2.43.57-3.67.92.88,1.51,1.39,2,2a5.32,5.32,0,0,1,.61,1.13C113.75,38.7,113.3,38.92,112.83,39.07Zm-1.6-7.45-1.88-1.88a4.78,4.78,0,0,1,5.47.19Zm.72-6.34c-1-.15-1.53-1.49-2.5-2.17.72-1.09,1.84-.91,2.86-.83a18.21,18.21,0,0,1,2.57.64Zm6.29,14c-.21-1.11-.35-2.26-.63-3.26h3.26c.16,1,.31,1.57.52,2.7C120.34,38.9,119.41,39,118.24,39.26ZM120.92,16c-.19,1.4-1.53,1.88-2.52,3.29-.25-1.28-.44-2.21-.59-3C119,15.22,119.94,15.28,120.92,16ZM118.8,7c.53.59,1.08,1.17,1.57,1.79a8.4,8.4,0,0,1,.72,1.33l-2.27.43C117.49,9.39,117.49,8.28,118.8,7Zm2.39,16.05c-.92.77-1.45,2-3,2.32-.15-.77-.29-1.51-.42-2.17C119,21.89,120.06,21.89,121.19,23.07ZM121,29.83v2c-1,.18-1.67.37-2.85.62-.22-1.1-.42-1.85-.56-2.51C118.8,28.59,120,28.63,121,29.83ZM118.25,4.09C118,3,117.9,2,117.62,1h3.26a12.58,12.58,0,0,1,.52,2.62C120.36,3.81,119.42,3.87,118.25,4.09ZM128,38.6c-1,.18-1.81.37-3,.62-.22-1.1-.36-1.84-.49-2.51,1.2-1.39,2.47-1.35,3.47-.15Zm-.89-6.6h-2a13.3,13.3,0,0,1-.61-2.77c1.09-.23,1.84-.47,2.51-.6C128.34,29.83,128.3,31,127.11,32Zm.53-6.63c-1.72-.09-1.92-1.78-3.19-2.14,1.27-1.37,2.39-1.21,3.6-.11C127.91,23.86,127.78,24.61,127.64,25.37Zm-.52-6.46-2.75-2.75,3-2A3.53,3.53,0,0,1,127.12,18.91Zm6.77,3.33c1.09,1.23,1.06,2.16.27,3.12-1.37-.27-1.9-1.52-3.2-2.6ZM135,29.83v2.05c-1,.17-1.94.37-3.12.61-.22-1.09-.29-1.84-.42-2.51C132.66,28.6,134,28.64,135,29.83Zm-2.7,9.49c-1.39-1.2-1.35-2.32-.15-3.32h2c.18,1,.37,1.71.62,2.88C133.71,39.11,133,39.19,132.3,39.32Zm8.28-17.1c1.14,1.2,1.08,2.13.32,3.13-1.53,0-1.69-1.79-4.24-2.35Zm-2.58,16v-2c1-.18,1.8-.37,3-.62l.5,2.51C140.27,39.49,139,39.45,138,38.25Zm.39-6.25c-.17-1-.31-1.5-.53-2.63,1-.19,2-.42,3.15-.64.22,1.1.36,2.27.64,3.27ZM147,6.74c1,1.35,2.33,1.86,2.59,3.44l-3.35.62C146.57,8.93,146.74,8,147,6.74Zm.86,32.08-1.07,0a10.6,10.6,0,0,1-.26-2.23c0-.23.66-.48,1.06-.6.13,0,.54.35.53.54A21.53,21.53,0,0,1,147.84,38.82ZM150,31.88c-1,.18-1.87.37-3,.62-.22-1.1-.33-1.85-.47-2.51,1.21-1.39,2.51-1.35,3.51-.15Zm-3.59-8.78c1.2-1.14,2.13-1.08,3.11-.34-.19,1.41-1.53,1.89-2.52,3.3C146.75,24.78,146.56,23.85,146.41,23.1Zm.4-4.47c-.1-.66-.24-1.59-.36-2.35,1.27-1,2.19-1.06,3.65.3Zm10.19,20c-1,.18-2,.37-3.18.62-.22-1.1-.26-1.85-.39-2.51,1.2-1.39,1.57-1.35,3.57-.15ZM155.71,32h-2a13,13,0,0,1-.62-2.77c1.1-.22,1.85-.46,2.51-.6C157,29.83,156.91,31,155.71,32ZM153,4V.74c1-.16,1.77-.3,2.9-.52.2,1.05.29,2,.51,3.15C155.31,3.58,155,3.73,153,4Zm7.79,3L163,9.57c-.22,1.13-1.48,1.65-2.24,2.6C159.37,10.5,159.39,8.84,160.79,7.05ZM163,29.84v2c-1,.18-1.64.38-2.81.62-.23-1.09-.45-1.84-.58-2.51C160.81,28.6,162,28.65,163,29.84Zm-3.32-6.58c1.2-1.39,2.32-1.34,3.32-.15v2c-1,.18-1.71.38-2.88.62C159.9,24.68,159.81,23.93,159.68,23.26Zm1.22,16.07c-1.39-1.21-1.35-2.33-.15-3.33h2c.18,1,.37,1.72.62,2.89C162.31,39.11,161.57,39.19,160.9,39.33ZM160.26,19c-.16-1-.3-1.72-.52-2.85,1-.2,2-.32,3.15-.53.21,1.1.36,1.38.64,3.38Zm7.37,20.33c-1.39-1.2-1.35-2.33-.15-3.33h2c.18,1,.37,1.72.62,2.89C169,39.11,168.3,39.19,167.63,39.33ZM167,32.4c-.22-1.1-.36-1.4-.64-3.4h3.27c.16,1,.3,1.64.52,2.77C169.14,32,168.2,32.18,167,32.4Zm10-3.64V32c-1,.16-1.81.3-2.94.52-.19-1-.27-2-.49-3.15C174.68,29.19,175,29,177,28.76Zm0,9.86c-1,.18-1.91.37-3.08.61-.23-1.09-.31-1.84-.45-2.51,1.21-1.38,2.53-1.34,3.53-.15Zm-1.06-12.93c-.8-.81-1.56-1.57-2.34-2.34.21-1.58,1.44-.94,2.32-1.07C177.14,23.42,177,24.53,175.94,25.69Zm.28-6.39c-1-1.35-2.33-1.86-2.59-3.44l3.36-.62C176.64,17.11,176.46,18,176.22,19.3Zm6.9-11.88c.1.65.25,1.58.36,2.34-1.26,1-2.19,1.06-3.64-.3ZM180,38.27V36.22c1-.17,1.83-.37,3-.61.23,1.09.35,1.84.49,2.51C182.28,39.5,181,39.46,180,38.27ZM183,32.76c-1-1.35-2.33-1.86-2.59-3.44l3.35-.61C183.36,30.57,183.19,31.5,183,32.76Zm6.47-17.23c1.08,1.23,1.06,2.16.26,3.11-1.36-.26-1.89-1.51-3.19-2.6Zm.73,9.21c0,.24-.67.49-1.07.6-.12,0-.54-.35-.53-.53,0-.75.17-1.5.27-2.25l1.06,0A11.51,11.51,0,0,1,190.15,24.74ZM190,38.62c-1,.18-1.68.37-2.85.62-.23-1.1-.43-1.84-.56-2.51,1.2-1.39,2.41-1.35,3.41-.15Zm-.25-5.94c-.92-.88-1.51-1.39-2-2a5.35,5.35,0,0,1-.62-1.13c.46-.19.91-.41,1.39-.56a12,12,0,0,1,1.83,0C190.09,30.52,189.94,31.45,189.75,32.68Zm-.49-22.17c-1-1.26-1.06-2.19.3-3.64l2.05,3.28ZM199,1.25v2c-1,.18-2,.37-3.14.62-.22-1.1-.28-1.84-.42-2.51C196.65,0,197,.05,199,1.25Zm-.68,14.8c-.19,1.41-1.54,1.89-2.52,3.29-.26-1.28-.44-2.21-.59-3C196.41,15.25,197.34,15.3,198.32,16.05Zm-2-9.18,2.05,3.28-2.35.37C195,9.25,194.93,8.32,196.29,6.87Zm-.19,15.31,2.26.42c-.26,1.58-1.56,2.08-2.29,3C194.85,24.51,195,23.4,196.1,22.18Zm0,17.06c-1.1-1.38-1.15-2.31-.24-3.3C197.66,36.64,197.17,37.71,196.08,39.24Zm-.48-7.14c-.1-.65-.24-1.58-.36-2.35,1.26-1,2.19-1.05,3.65.3ZM202.83,29c1.14,1.2,1.08,2.13.32,3.13-1.53,0-1.69-1.8-4.24-2.35Zm-2.26-6.33,2.35-.36c1,1.26,1.06,2.19-.3,3.65C202,24.84,201.3,23.81,200.57,22.64ZM200,39.35V36.09l2.73-.52c.2,1,.38,2,.59,3.15Zm3.14-20c-1-1.36-2.33-1.86-2.59-3.44l3.36-.62C203.55,17.12,203.38,18.05,203.14,19.31ZM200,9.57l3.59-1.69,1.88,1.88A4.8,4.8,0,0,1,200,9.57ZM209.57,29c1.22,1.14,1.06,2.25,0,3.41l-2.34-2.34C207.46,28.51,208.69,29.15,209.57,29Zm-2.25-5.57c.2-1.38,1.54-1.86,2.23-2.84l2.28,2.27C210.5,24,210.5,24,207.32,23.45ZM212,38.77c-1,.16-1.64.31-2.77.52-.2-1-.36-2-.57-3.15,1.1-.21,1.34-.35,3.34-.63Zm-2.41-19.88L207,16.38l2.53-2.33,2.62,2.3Zm.16-12c.68,1.08,1.32,2.12,2.05,3.29l-2.35.36C208.46,9.25,208.39,8.33,209.75,6.87ZM209,2.94V.9c1-.18,1.64-.37,2.81-.62.22,1.1.44,1.85.58,2.51C211.19,4.18,210,4.14,209,2.94ZM215.78,39c-.17-1-.31-1.62-.52-2.75l3.15-.58c.21,1.1.35,2.33.63,3.33Zm-.34-9.16c1.13-1.22,2.25-1.06,3.4,0l-2.33,2.34C214.93,32,215.57,30.72,215.44,29.84Zm.44-3.76c-.27-1.44-.41-2.19-.75-4l4,.74C218,24,217.08,24.83,215.88,26.08ZM222,39.36V36.1c1-.17,1.76-.31,2.89-.53.19,1,.29,2,.51,3.16C224.3,38.94,224,39.08,222,39.36Zm1.15-6.89c-1.38-1.2-1.34-2.47-.15-3.47h2.05c.18,1,.37,1.79.61,3ZM231.42,39h-2c-.18-1-.37-1.72-.62-2.89,1.1-.22,1.85-.41,2.51-.54C232.66,36.77,232.62,38,231.42,39Zm0-7h-2a12.89,12.89,0,0,1-.62-2.76c1.1-.22,1.85-.47,2.51-.6C232.66,29.84,232.62,31,231.42,32ZM229,23.57c.77-2,1.83-1.52,3.31-.47A2.49,2.49,0,0,1,229,23.57Zm.1-7.69a12.31,12.31,0,0,1,2.23-.26c.24,0,.49.67.6,1.06,0,.13-.35.55-.53.54-.76,0-1.5-.17-2.25-.27Zm.12-5.88a10.89,10.89,0,0,1-.52-2.55c1-.19,2-.46,3.15-.68.21,1.1.35,2.23.63,3.23Zm8.9,29h-2c-.18-1-.37-1.72-.62-2.89,1.1-.22,1.85-.41,2.51-.54C239.39,36.77,239.35,38,238.15,39ZM236,3v-2a13,13,0,0,1,2.77-.62c.22,1.1.46,1.85.6,2.51C238.17,4.19,237,4.15,236,3Zm8,11.82a5.9,5.9,0,0,1,1.14-.61,14.68,14.68,0,0,1,.55,1.38,10.06,10.06,0,0,1,0,1.84l-3.68-.57C242.94,15.88,243.44,15.29,244,14.77Zm-1.27,24.51c-.22-1.11-.36-2.28-.64-3.28h3.27c.16,1,.3,1.58.52,2.71C244.85,38.91,243.91,39.06,242.75,39.28Zm9.25-.64a12.42,12.42,0,0,1-2.73.62c-.22-1.1-.48-1.84-.62-2.51,1.2-1.39,2.35-1.35,3.35-.15Zm-3.22-21.83c.89-.92,1.39-1.52,2-2a5.43,5.43,0,0,1,1.14-.62,14.68,14.68,0,0,1,.55,1.38,10.11,10.11,0,0,1,0,1.84Zm2.87,15.63-2.34-2.34c.21-1.58,1.44-.93,2.32-1.06C252.85,30.17,252.7,31.29,251.65,32.44Zm-.08-6.66-2.14-2.65c.15-1.05,1.49-1.53,2.19-2.52C253,22.26,253,23.91,251.57,25.78Zm-2.12-15.52c-.15-.67-.31-1.41-.5-2.3l2.7-1.23c.63,1.11,1.3,2.29,2,3.52C252.84,11.22,251.22,10.41,249.45,10.26Zm2.17-6.47-2.28-2.27c1.33-1.1,1.33-1.13,4.51-.57C253.65,2.33,252.31,2.81,251.62,3.79Zm6.52,35.61-2.05-3.28,2.35-.37C259.43,37,259.5,38,258.14,39.4Zm0-6c-.34-1.93-.5-2.86-.64-3.62,1.24-1.08,2.16-1.06,3.14-.25C260.48,31,258.87,31.29,258.11,33.44Zm.21-7.78c-1.22-1.13-1.06-2.25,0-3.46l2.26.42C260.35,24.2,259.05,24.7,258.32,25.66Zm.22-12,2,3.28-2.35.37C257.25,16,257.18,15.07,258.54,13.62Zm-2.76-3.94c.79-.75,1.57-1.47,2.5-2.34L261,9.66A3.71,3.71,0,0,1,255.78,9.68ZM258,3v-2A11.54,11.54,0,0,1,260.71.3c.22,1.09.49,1.84.63,2.51C260.14,4.2,259,4.15,258,3Zm6.62,36.32c-.21-1.1-.36-2.28-.64-3.28h3.27c.16,1,.3,1.58.52,2.71C266.72,38.91,265.78,39.06,264.62,39.28ZM267.3,22.8c-.19,1.41-1.54,1.89-2.52,3.29-.26-1.28-.44-2.2-.59-2.95C265.39,22,266.32,22.05,267.3,22.8Zm-2.13-9c.53.59,1.08,1.16,1.58,1.78a11.47,11.47,0,0,1,.72,1.34l-2.28.43C263.86,16.17,263.87,15.05,265.17,13.8ZM264,29.38c1-.16,1.79-.31,2.92-.52.2,1.05.28,2,.5,3.15-1.11.21-1.42.35-3.42.63ZM266.76,11h-2c-.18-1-.37-2-.62-3.19,1.1-.22,1.85-.25,2.51-.39C268,8.62,268,9,266.76,11Zm-2.13-6.89C264.42,3,264.27,2,264,1h3.27a12.74,12.74,0,0,1,.52,2.63C266.73,3.82,265.79,3.9,264.63,4.11Zm7.31,35.23c-1.38-1.2-1.34-2.34-.15-3.34h2c.18,1,.37,1.72.61,2.9C273.36,39.12,272.61,39.21,271.94,39.34Zm-.54-6.51c-.27-1.45-.41-2.19-.75-4l4,.75C273.48,30.75,272.6,31.58,271.4,32.83ZM280.22,11h-2c-.18-1-.37-2-.62-3.19,1.1-.22,1.85-.25,2.51-.39C281.46,8.62,281.42,9,280.22,11Zm1.08,20.42c-1.2,1.38-2.3,1.34-3.3.15V29.52c1-.17,1.7-.37,2.88-.61C281.1,30,281.17,30.75,281.3,31.42Zm-.2-15c-1.2,1.14-2.13,1.08-3.11.34.19-1.41,1.54-1.89,2.52-3.3C280.77,14.75,281,15.68,281.1,16.43Zm-.87,5.84c1.13,1.2,1.08,2.13.31,3.13-1.53,0-1.68-1.8-4.23-2.35Zm-1.56,17.08c-1.38-1.21-1.34-2.35-.15-3.35h2.05c.18,1,.37,1.73.61,2.9C280.09,39.12,279.34,39.21,278.67,39.35Zm-.58-35.23C277.88,3,277.73,2,277.45,1h3.27a12.74,12.74,0,0,1,.52,2.63C280.19,3.83,279.25,3.9,278.09,4.12Zm8.61,10c1.1,1.32,1.13,1.32.47,5l-2.75-2.75Zm-2-4.15c.13-1.47,1.74-1.72,2.5-3.87.34,1.93.5,2.86.64,3.62C286.58,10.83,285.66,10.81,284.68,10Zm3.23,12.31c-.23,1.51-.38,2.44-.57,3.67-.92-.88-1.52-1.39-2-2a5.35,5.35,0,0,1-.62-1.13,14.68,14.68,0,0,1,1.38-.55A10.11,10.11,0,0,1,287.91,22.31ZM288,28.8v3.26l-2.73.53c-.2-1.05-.38-2-.59-3.16Zm-2.6,10.55C284,38.14,284.06,37,285.25,36h2.05c.18,1,.37,1.73.61,2.9C286.82,39.12,286.07,39.21,285.4,39.35Zm-.61-35.8c-.15-.68-.31-1.42-.51-2.3L287,0l2,3.52C288.17,4.5,286.55,3.69,284.79,3.55Zm6.12,13.12,2.77-2.77L296,16.18C294.55,17.2,294.55,17.2,290.91,16.67Zm5,6.24c-1.4,1-1.4,1-4.5.56.2-1.37,1.53-1.86,2.22-2.84Zm-1.75,16c-1.72-.09-1.91-1.77-3.19-2.13,1.27-1.37,2.39-1.22,3.6-.12C294.48,37.38,294.34,38.12,294.2,38.88Zm-.47-6.64-2.63-2.31,2.54-2.53c.77.74,1.55,1.48,2.61,2.51Zm-1.08-21.78-2.53-.52,4.59-2.69h0l2.53.52Zm8,28.45c-1.58-.2-.93-1.43-1.06-2.31,1.13-1.22,2.24-1.07,3.4,0ZM300,32.84c-.27-1.45-.4-2.19-.74-4l3.95.75C302.09,30.76,301.21,31.58,300,32.84ZM308.83,11h-2.05c-.18-1-.37-2-.61-3.18,1.09-.22,1.84-.26,2.51-.39C310.06,8.63,310,9,308.83,11Zm.6,5.2c-.2,1.58-1.43.94-2.31,1.07-1.22-1.14-1.07-2.25,0-3.41ZM310,38.8c-1,.16-1.85.31-3,.52-.2-1-.25-2-.47-3.15,1.11-.21,1.45-.35,3.45-.63ZM307.14,29l2.26.41c-.26,1.58-1.56,2.09-2.29,3C305.89,31.28,306.05,30.16,307.14,29Zm-.95-5.8c.14-.75.28-1.49.42-2.26,1.71.09,1.91,1.78,3.18,2.14C308.52,24.4,307.4,24.25,306.19,23.15Zm.5-19C306.48,3,306.34,2,306.06,1h3.26a12.74,12.74,0,0,1,.52,2.63C308.8,3.83,307.86,3.9,306.69,4.12ZM316,29.89v2a12.89,12.89,0,0,1-2.76.62c-.22-1.1-.47-1.84-.6-2.51C313.84,28.65,315,28.69,316,29.89Zm-2-9.35c.53.6,1.08,1.17,1.58,1.79a11.19,11.19,0,0,1,.72,1.33l-2.28.43C312.65,22.91,312.66,21.8,314,20.54ZM314,39.35c-1.39-1.2-1.35-2.35-.15-3.35h2c.18,1,.37,1.73.62,2.9C315.42,39.12,314.67,39.22,314,39.35ZM313.37,17c-.16-.86-.31-1.61-.52-2.73l3.15-.6.63,3.33Zm9.41-3c.16.86.3,1.61.52,2.73l-3.15.6c-.21-1.11-.36-1.86-.64-3.33ZM323,28.81v3.26c-1,.17-1.62.31-2.75.53-.19-1.05-.36-2-.58-3.16C320.77,29.23,322,29.09,323,28.81Zm-2.94-5.92c0-.13.35-.54.53-.54.76,0,1.5.17,2.25.27l.05,1.07a12.31,12.31,0,0,1-2.23.26C320.42,23.94,320.17,23.28,320.06,22.89Zm0,16.11c-.16-1-.3-1.6-.52-2.73l3.15-.59c.21,1.1.36,2.32.64,3.32Zm9.91-.33c-1,.17-1.86.37-3,.61-.22-1.09-.33-1.84-.47-2.51,1.2-1.38,2.5-1.34,3.5-.15ZM326.35,23.3c1.27-1.37,2.39-1.22,3.6-.12-.14.75-.27,1.49-.42,2.26C327.82,25.35,327.62,23.66,326.35,23.3Zm1.12,9.19c-1.39-1.2-1.35-2.49-.15-3.49h2c.18,1,.37,1.8.62,3ZM329.2,19c-.78-.78-2.2-1.55-2.2-2.37V14.24c1-.15,1.53-.28,2.24-.4A3.64,3.64,0,0,1,329.2,19ZM327,10.79V7.53A10.89,10.89,0,0,1,329.55,7c.2,1,.46,2,.68,3.15C329.13,10.37,328,10.51,327,10.79ZM326.83,4c-.16-1-.3-1.77-.52-2.9,1.05-.19,2-.29,3.15-.51.21,1.11.36,1.41.64,3.41Zm9.22,34.88c-1.36-.27-1.89-1.52-3.19-2.6l2.93-.52C336.87,37,336.85,37.92,336.05,38.88Zm-.37-6.41c-.69-.79-1.37-1.59-2.07-2.38,1-1.06,1-1.09,4.92-.46Zm-.11-6.94c-.77-.78-1.57-1.57-2.36-2.36l2.48-2.47,2.85,2.68ZM344.35,7h.26c.13,1,.27,1.95.39,2.77a4.82,4.82,0,0,1-5.37-.32C340.92,8.8,342.06,8,344.35,7Zm-1.93,13.6L345,23.14l-2.5,2.61-2.34-2.52Zm-2.16-3.82c.15-1.39,1.51-1.86,2.18-2.84.76.93,2,1.46,2.28,2.79A4.42,4.42,0,0,1,340.26,16.78ZM342.5,39.2l-2.33-2.34c.2-1.58,1.43-.93,2.31-1.06C343.7,36.93,343.55,38,342.5,39.2Zm-.77-7.51-1.88-1.88a4.8,4.8,0,0,1,5.47.19Zm7,7.6c-.21-1.1-.35-2.29-.63-3.29h3.26c.17,1,.31,1.59.52,2.72Zm.05-6.44c-.26-1.44-.4-2.19-.74-4l3.95.74C350.88,30.78,350,31.6,348.79,32.85Zm0-6.73c-.26-1.44-.4-2.19-.74-4l4,.74C350.88,24.05,350,24.87,348.79,26.12Zm6.68,13.21c-.21-1.11-.35-1.86-.63-3.33h3.26c.17.86.31,1.61.52,2.73Zm0-6.48c-.26-1.44-.4-2.18-.74-4l4,.75C357.61,30.78,356.73,31.6,355.52,32.85Zm8.67-4.09c1.39,1.2,1.35,2.24.15,3.24h-2a14.18,14.18,0,0,1-.62-2.85C362.78,28.93,363.52,28.89,364.19,28.76Zm-2.38-5.58a2,2,0,0,1,3.37,0A2,2,0,0,1,361.81,23.18Zm1,16.18c-1.39-1.2-1.35-2.36-.15-3.36h2c.18,1,.37,1.73.62,2.9C364.21,39.12,363.46,39.22,362.8,39.36Zm0-21.94c-1.39-1.2-1.35-2.42-.15-3.42h2c.18,1,.37,1.76.61,2.93C364.22,17.16,363.47,17.29,362.81,17.42Zm7.4-2.61a5.81,5.81,0,0,1,1.13-.61,14.77,14.77,0,0,1,.56,1.38,10.73,10.73,0,0,1,0,1.84l-3.67-.58C369.12,15.92,369.63,15.33,370.21,14.81ZM368.89,39c-.17-1-.31-1.6-.53-2.72l3.15-.6c.22,1.1.36,2.32.64,3.32Zm8.05-17.46a5.81,5.81,0,0,1,1.13-.61c.19.46.41.91.56,1.38a12.2,12.2,0,0,1,0,1.84L375,23.58C375.85,22.66,376.36,22.06,376.94,21.54ZM378,38.82a10.61,10.61,0,0,1-2.49.52c-.19-1-.49-2-.71-3.15,1.1-.21,2.2-.35,3.2-.63Zm-.3-6.29c-.53-.59-1.08-1.16-1.58-1.79a9.43,9.43,0,0,1-.71-1.33l2.27-.43C379,30.16,379,31.27,377.7,32.53Zm-2.4-16c.93-.76,1.46-2,3-2.32.15.77.29,1.51.41,2.17C377.55,17.66,376.44,17.66,375.3,16.48Zm0-6.73c.92-.76,1.45-2,3-2.32.15.77.29,1.51.41,2.17C377.55,10.93,376.44,10.93,375.31,9.75Zm9.08-2.43c1.38,1.2,1.34,1.68.15,3.68h-2.05c-.17-1-.37-1.89-.61-3.06C383,7.72,383.72,7.46,384.39,7.32Zm.61,31.5c-1,.17-1.49.31-2.62.53-.2-1.05-.43-2-.65-3.16,1.1-.21,2.27-.35,3.27-.63Zm-3-8.91,2.28-2.27c1.1,1.32,1.13,1.32.47,5Zm2.52-5.78-2.26-.42c.26-1.58,1.56-2.08,2.29-3C385.77,21.8,385.61,22.92,384.52,24.13ZM382,16.46V14.41c1-.17,1.79-.37,3-.61.22,1.09.37,1.84.5,2.51C384.26,17.69,383,17.65,382,16.46Zm9.28-16c1.14,1.2,1.08,2.13.31,3.13-1.53,0-1.68-1.8-4.23-2.35Zm0,38.78L389,36.87c.21-1.57,1.44-.93,2.32-1.06C392.49,36.94,392.34,38.06,391.3,39.21Zm.28-6.38c-1-1.36-2.33-1.86-2.59-3.44l3.35-.62C392,30.64,391.82,31.57,391.58,32.83Zm0-12.59c.26,1.28.44,2.21.59,3-1.2,1.14-2.12,1.08-3.1.33C389.22,22.12,390.57,21.65,391.55,20.24ZM389,16.8c.18-1.41,1.53-1.88,2.52-3.29.25,1.28.44,2.21.59,3C391,17.61,390,17.55,389,16.8Zm-.59-6.73c1.13-1.22,2-2,3.22-3.29.26,1.44.4,2.19.74,4ZM397.92,39h-2c-.16-1-.33-1.72-.48-2.54a4.53,4.53,0,0,1,4.8-.24C400,37.58,398.7,38,397.92,39Zm-.28-8.26a18.21,18.21,0,0,1-2.57-.64L398,27.74c1.05.15,1.53,1.49,2.5,2.17C399.79,31,398.67,30.81,397.64,30.74Zm-.1-20.24c-.21-1.1-.35-1.5-.63-3.5h3.26c.17,1,.31,1.69.53,2.82C399.65,10,398.71,10.28,397.54,10.5Zm7.14,16.93,2.62,2.51-2.53,2.33L402.15,30Zm-.51-10c-.22-1.09-.43-1.84-.57-2.5,1.2-1.39,2.4-1.35,3.4-.16v2.05C406,17,405.34,17.19,404.17,17.43ZM407,23c-.2,1.58-1.43.94-2.31,1.07-1.22-1.14-1.07-2.25,0-3.41Zm-2.34,16.56-2.23-3.13c1.16-1.2,2.73-.55,4.5-.24.12.67.26,1.42.43,2.31ZM404.23,10a10.81,10.81,0,0,1-.53-2.52c1.05-.2,2-.48,3.16-.7.21,1.11.35,2.22.63,3.22ZM411,39.42V36.16c1-.17,1.48-.31,2.61-.53.19,1,.43,2,.65,3.16C413.16,39,412,39.14,411,39.42Zm.19-7.25a3.53,3.53,0,0,1,.25-4.78l2.74,2.75Zm.24-14.87c-1.22-1.13-1.06-2.25,0-3.4.8.8,1.57,1.56,2.34,2.34C413.54,17.81,412.31,17.17,411.43,17.3ZM413.74,23c-.2,1.57-1.43.93-2.31,1.06-1.22-1.13-1.07-2.25,0-3.4Zm-.6-12h-2c-.18-1-.37-2-.62-3.17,1.1-.22,1.84-.26,2.51-.4C414.38,8.64,414.34,9,413.14,11ZM411,4c-.16-1-.31-1.76-.52-2.88,1-.2,2-.3,3.15-.52.21,1.1.35,1.4.63,3.4Zm10,35h-3a4.33,4.33,0,0,1,0-4.62c1.5.08,2,1.8,3,2.13Zm-3.91-7.93c.35-1.87.53-2.79.77-4.06,1,1.36,2.33,1.86,2.59,3.44Zm.15-7.89c.13-.75.27-1.49.41-2.25,1.71.09,1.91,1.77,3.19,2.14C419.56,24.43,418.45,24.28,417.24,23.18Zm.49-5.81c-.21-1.11-.35-1.37-.63-3.37h3.26c.16,1,.31,1.63.52,2.76C419.84,17,418.9,17.15,417.73,17.37Zm0-6.87c-.21-1.1-.35-1.5-.63-3.5h3.26c.17,1,.31,1.7.53,2.82C419.84,10,418.9,10.29,417.73,10.5ZM426.59,39h-2c-.18-1-.37-1.69-.62-2.86,1.1-.22,1.84-.42,2.51-.56C427.83,36.79,427.79,38,426.59,39Zm-2.5-9c.93-.77,1.46-2,3-2.32.14.76.28,1.51.41,2.17C426.34,31.14,425.23,31.13,424.09,30Zm10.07-13.47c-1.13,1.22-2.25,1.07-3.4,0l2.34-2.33C434.67,14.38,434,15.61,434.16,16.49ZM434,20.43V23.7l-2.73.52c-.2-1-.38-2-.59-3.15Zm-1.54,7.86a5.81,5.81,0,0,1,1.13-.61c.19.46.41.91.56,1.38a12.14,12.14,0,0,1,0,1.84l-3.67-.58C431.37,29.4,431.88,28.81,432.46,28.29Zm-1.27,11c-.22-1.11-.36-1.86-.64-3.33h3.26c.17.86.31,1.61.53,2.73Zm0-29.33a10.81,10.81,0,0,1-.53-2.52c1.05-.19,2-.48,3.16-.7.21,1.11.35,2.22.63,3.22Zm9.74-.24c-1.13,1.22-2.25,1.07-3.4,0l2.34-2.33C441.41,7.65,440.76,8.88,440.89,9.76Zm-.35,4.47c.1.65.25,1.58.36,2.35-1.26,1-2.19,1.05-3.64-.3ZM441,38.84c-1,.16-1.73.31-2.86.52-.2-1-.31-2-.53-3.15,1.11-.21,1.39-.35,3.39-.63Zm-3.17-9.19c0-.12.35-.54.54-.53.75,0,1.49.17,2.24.27l.05,1.06a11.51,11.51,0,0,1-2.23.27C438.2,30.7,437.94,30.05,437.83,29.65Zm0-6.1c.18-1.41,1.53-1.89,2.52-3.3.25,1.28.44,2.21.59,3C439.74,24.35,438.81,24.29,437.83,23.55Zm2.55-20c-1.37-.26-1.9-1.52-3.2-2.6l2.93-.52C441.2,1.7,441.17,2.62,440.38,3.58Zm6.41,24.17c1,.16,1.53,1.49,2.5,2.18-.71,1.08-1.83.9-2.86.82a18.2,18.2,0,0,1-2.56-.63Zm-.06,11.49-2.07-2.39c1-1.05,1-1.08,4.91-.46Zm6.84-.23-2.66-2.32a3.69,3.69,0,0,1,5.16,0Zm-.11-21.67c-1.08-1.23-1.06-2.16-.26-3.11,1.36.26,1.89,1.51,3.19,2.6ZM463,38.87l-2.53.4a3.64,3.64,0,0,1,.06-5.14A33.58,33.58,0,0,0,463,36.51Zm-3.7-8.94c.13-.75.27-1.5.41-2.26,1.72.09,1.91,1.78,3.19,2.14C461.62,31.18,460.51,31,459.3,29.93Zm0-6.73c.14-.75.27-1.5.41-2.26,1.72.09,1.91,1.78,3.19,2.14C461.63,24.45,460.51,24.29,459.3,23.2Zm.94-9.2h2c.18,1,.38,1.76.62,2.93l-2.51.52C459,16.25,459.05,15,460.24,14Zm-.44-3.49c-.21-1.1-.36-1.51-.64-3.51h3.27c.16,1,.3,1.7.52,2.83C461.9,10,461,10.29,459.8,10.51ZM459.75,4c-.16-1-.31-1.75-.52-2.88,1-.19,2-.3,3.15-.52.21,1.11.35,1.4.64,3.4ZM469,20.44v3.27c-1,.16-1.43.3-2.56.52-.19-1.05-.46-2-.68-3.15C466.87,20.87,468,20.73,469,20.44Zm-1.89,18.94C465.73,38.17,465.77,37,467,36H469c.17,1,.37,1.74.61,2.91C468.53,39.13,467.78,39.24,467.11,39.38Zm0-28.81C465.74,9.37,465.78,8,467,7h2c.17,1,.37,1.84.61,3C468.54,10.23,467.79,10.44,467.12,10.57ZM475.44.47c1.09,1.24,1.07,2.16.27,3.12-1.36-.26-1.89-1.51-3.19-2.6ZM476,17c-1,.16-1.56.31-2.69.52-.2-1-.4-2-.61-3.15,1.1-.21,2.3-.35,3.3-.63Zm.25,6.29c-1.23,1.08-2.16,1.06-3.14.25.14-1.47,1.74-1.72,2.5-3.87C476,21.58,476.12,22.51,476.25,23.27ZM473,38.36v-2c1-.18,1.71-.38,2.88-.62.22,1.09.41,1.84.54,2.51C475.22,39.6,474,39.55,473,38.36Zm.85-7.69c-1.39-1.2-1.35-1.67-.15-3.67h2c.18,1,.37,1.89.61,3.06C475.26,30.28,474.51,30.54,473.85,30.67Zm-.59-20.16c-.21-1.1-.36-1.51-.64-3.51h3.27c.16,1,.3,1.7.52,2.83C475.36,10,474.42,10.29,473.26,10.51Zm8.91-10c1.09,1.23,1.07,2.16.27,3.11-1.36-.26-1.89-1.51-3.19-2.6ZM482.6,21c.1.65.25,1.58.36,2.35-1.26,1-2.19,1.06-3.64-.3Zm-3.08-6c1.2-1.39,2.48-1.35,3.48-.15v2c-1,.18-1.79.37-3,.62C479.82,16.36,479.65,15.62,479.52,15ZM483,29.83c-1.18,1.33-2.29,1.32-3.42.15.92-.77,1.45-2,3-2.32C482.78,28.42,482.92,29.16,483,29.83Zm-2.87,9c-.32-.12-.4-.87-.59-1.35.08-1.83,1.85-2.07,2.48-3.49,1.4,1.65.63,3.06,1.06,5.16A12.82,12.82,0,0,1,480.17,38.86ZM480,10.51c-.21-1.1-.36-1.51-.64-3.51h3.27c.16,1,.3,1.7.52,2.83C482.09,10,481.15,10.29,480,10.51ZM488.87,14c1.21,1.13,1.06,2.25,0,3.46L486.58,17C486.83,15.43,488.13,14.93,488.87,14ZM488,9.76c0-.75.17-1.5.27-2.25l1.06,0a10.6,10.6,0,0,1,.26,2.23c0,.23-.66.48-1.06.6C488.45,10.33,488,9.94,488,9.76Zm1.21,10.51c.26,1.44.4,2.19.74,4l-4-.74C487.16,22.34,488,21.52,489.25,20.27Zm-.45,19.05-2.14-2.66c.15-1,1.49-1.53,2.19-2.52C490.25,35.79,490.2,37.45,488.8,39.32Zm-2.52-9.38,2.5-2.33,2.66,2.31A3.69,3.69,0,0,1,486.28,29.94Zm2.57-26.07-2.28-2.28c1.41-1,1.41-1,5.05-.48Zm6.77,16.78c.69.79,1.38,1.59,2.08,2.38-1,1.06-1,1.09-4.92.46ZM498,37.58v0h0v.77c-3,2.52-3.37-1-5.19-1.51l2.91-2.93C496.38,35,497,36,498,37.61Zm-2.37-5.28L493,30l2.54-2.54L498.15,30ZM495,16.49v-2c1-.18,1.65-.37,2.82-.61.22,1.09.44,1.84.57,2.5C497.19,17.73,496,17.69,495,16.49Zm7,22.44a3.53,3.53,0,0,1,.25-4.78L505,36.89Zm6.73,0a3.53,3.53,0,0,1,.25-4.78l2.74,2.75Zm9.06-.27-3.18-2.17.72-1.78,3.18,2.17C518.14,37.89,517.87,38.58,517.83,38.66ZM524.67,28a11.19,11.19,0,0,1,.52,2.52c-1,.2-2,.48-3.15.7-.21-1.1-.35-2.22-.63-3.22Zm-.54,11.33c-.67-.87-1.31-1.7-2.12-2.78.13-.92,1.47-1.4,2.17-2.4C525.58,35.8,525.53,37.46,524.13,39.33Zm6.66-32.17c1.33,1.18,1.33,2.29.15,3.43-.76-.93-2-1.46-2.32-3Zm.6,13.82c.1.66.25,1.59.37,2.35-1.27,1-2.2,1.06-3.65-.3Zm-.17,17.94c-1.38-.2-1.86-1.54-2.84-2.23l2.28-2.28C531.75,35.74,531.79,35.74,531.22,38.92Zm-2.56-8.63c0-1.53,1.8-1.68,2.35-4.24.44,2.24.63,3.17.78,3.92C530.59,31.11,529.66,31.05,528.66,30.29Zm.34-12.7V14.32l2.73-.52.6,3.15Zm8.51,3c1.37,1.27,1.21,2.38.11,3.6l-2.25-.42C535.46,22.05,537.14,21.85,537.51,20.58Zm-.66-5.7c0-.23.67-.48,1.07-.6.12,0,.54.36.53.54,0,.75-.17,1.49-.27,2.24l-1.06.05A11.32,11.32,0,0,1,536.85,14.88Zm.56,12.79c1.57.2.93,1.43,1.06,2.31-1.13,1.22-2.25,1.07-3.4,0C535.87,29.2,536.63,28.44,537.41,27.67Zm.13,11.45-2.48-2.48,2.63-2.3,2.16,2C539.61,37.73,538.43,38.31,537.54,39.12Zm0-27.12c-.45-2.24-.63-3.17-.78-3.92,1.2-1.14,2.12-1.08,3.13-.32C539.86,9.29,538.09,9.45,537.54,12Zm63.89-4.64c1.39,1.2,1.34,1.64.15,3.64h-2c-.18-1-.38-1.87-.62-3C600,7.73,600.76,7.49,601.43,7.36Zm-8,.21c.13,0,.54.35.54.54,0,.75-.17,1.49-.27,2.24l-1.07.05a10.6,10.6,0,0,1-.26-2.23C592.39,7.94,593,7.68,593.44,7.57ZM593.16,14a2,2,0,0,1,0,3.38A2,2,0,0,1,593.16,14Zm2.24,9.75-2.34.36c-1-1.26-1.06-2.19.3-3.65ZM585.56,7.28a9.66,9.66,0,0,1,1.84,0c-.24,1.5-.38,2.43-.57,3.67-.92-.88-1.52-1.39-2-2a5.61,5.61,0,0,1-.62-1.13A14.77,14.77,0,0,1,585.56,7.28Zm0,6.73a9.66,9.66,0,0,1,1.84,0c-.24,1.5-.38,2.43-.57,3.67-.92-.88-1.52-1.39-2-2a6.12,6.12,0,0,1-.61-1.13A14.77,14.77,0,0,1,585.56,14ZM584,21.07l2.73-.52c.2,1,.38,2,.6,3.15l-3.33.63Zm-16.79,2.74c-1.09.22-1.84.45-2.51.58-1.38-1.2-1.34-2.39-.15-3.39h2.05C566.77,22,567,22.64,567.21,23.81ZM567,8.1v2c-1,.18-1.74.37-2.91.61-.22-1.09-.39-1.84-.53-2.5C564.76,6.86,566,6.9,567,8.1Zm-.91,5.62c1.39,1.2,1.35,2.28.16,3.28h-2a14.05,14.05,0,0,1-.61-2.87C564.68,13.91,565.43,13.85,566.09,13.72ZM559.54.53c1.21,1.13,1.06,2.25,0,3.4L557.22,1.6C557.43,0,558.66.66,559.54.53ZM560,8.09v2.05a13.47,13.47,0,0,1-2.78.61c-.22-1.09-.46-1.84-.59-2.51C557.83,6.86,559,6.9,560,8.09ZM546.62,1c0,1.54-1.8,1.69-2.35,4.24-.45-2.24-.63-3.17-.78-3.92C544.69.21,545.62.27,546.62,1Zm-.71,6.32c1.38,1.2,1.34,1.65.15,3.65h-2c-.17-1-.37-1.88-.61-3C544.49,7.73,545.24,7.48,545.91,7.35ZM547,16.94l-2.5.52c-1.39-1.21-1.35-2.46-.16-3.46h2C546.59,15,546.78,15.77,547,16.94ZM544.56,39c-1.07-1.57-1.08-1.57-.27-5.55l1.86,4C546.08,37.51,545.32,38.26,544.56,39Zm-1.28-7.91c.35-1.87.53-2.79.74-3.95,1.22,1.12,2,2,3.29,3.21Zm0-6.73c.35-1.87.53-2.79.75-3.95,1.21,1.12,2,2,3.28,3.21ZM551,38.92c-1-1.2-.17-2.61-.44-3.9,1.12-1.25,1.47-1.09,3.47-.09v1.72C553,37.4,552.35,38.7,551,38.92Zm-.82-9,.42-2.26c1.71.09,1.91,1.78,3.18,2.14C552.48,31.21,551.36,31.05,550.15,30ZM550,9.78v-2c1-.18,1.91-.37,3.08-.62.22,1.1.31,1.85.45,2.51C552.32,11,551,11,550,9.78ZM553.53,17c-1.11.21-1.53.35-3.53.63V14.33c1-.16,1.71-.31,2.83-.52C553,14.85,553.31,15.79,553.53,17Zm-.45,3.62c.22,1.1.31,1.85.44,2.51-1.2,1.39-2.52,1.35-3.52.15v-2C551,21,551.91,20.83,553.08,20.58ZM552,3a5.35,5.35,0,0,1-1.13.62c-.19-.46-.41-.91-.56-1.38a12.2,12.2,0,0,1,0-1.84l3.67.57C553.05,1.89,552.54,2.49,552,3Zm8,10.74V17c-1,.16-1.5.3-2.63.52-.2-1.05-.42-2-.64-3.15C557.83,14.17,559,14,560,13.74Zm0,25c-1,.16-1.65.32-2.46.46a4.52,4.52,0,0,1-.26-4.8c1.35.29,1.72,1.53,2.72,2.32ZM557,30v-2c1-.18,1.77-.37,2.94-.62.23,1.1.38,1.85.52,2.51C559.25,31.21,558,31.17,557,30Zm0-6.73v-2c1-.18,1.78-.37,3-.62.22,1.1.37,1.85.51,2.51C559.25,24.48,558,24.44,557,23.24Zm7.08,15.44c-.92-1.13-.9-2.79.5-4.58L567.13,37Zm0-7.56c-.21-1.1-.35-2.12-.63-3.12h3.26a12.47,12.47,0,0,1,.53,2.63C566.21,30.83,565.27,30.9,564.1,31.12ZM573.47,7c.16,1,.31,1.81.52,2.94-1,.19-2,.27-3.15.49-.21-1.11-.35-1.43-.63-3.43ZM573,17h-2.05a12.63,12.63,0,0,1-.61-2.78c1.09-.22,1.84-.46,2.5-.59C574.21,14.83,574.17,16,573,17Zm0,7h-2c-.18-1-.37-1.74-.62-2.91,1.1-.22,1.85-.39,2.51-.53C574.21,21.76,574.17,23,573,24Zm-1.85,15c-1.24-1-.39-2.71-.77-4.37l2.61-.54c1.41,1.47.56,2.91,1,4.91Zm-.33-8c-.17-1-.31-1.77-.52-2.9,1-.19,2-.29,3.15-.51.21,1.11.35,1.41.63,3.41ZM580,39c-1.36-.27-1.89-1.52-3.19-2.6l2.93-.52C580.83,37.07,580.81,38,580,39Zm-3-9v-2c1-.18,1.87-.38,3-.62.22,1.1.33,1.84.46,2.51C579.3,31.22,578,31.18,577,30Zm.57-5.65c-.21-1.11-.36-1.86-.64-3.33h3.27c.16.86.3,1.61.52,2.73ZM577,16.52v-2c1-.18,1.87-.38,3-.62.22,1.1.33,1.84.46,2.51C579.3,17.76,578,17.72,577,16.52Zm.52-6.52c-.16-.86-.3-1.61-.52-2.73l3.15-.6c.21,1.11.36,1.86.64,3.33Zm8.86,29.35-2.12-2.78c.14-.92,1.47-1.4,2.17-2.4C587.83,35.82,587.78,37.48,586.38,39.35Zm-2.76-9c1.12-1.22,2-2,3.21-3.29.27,1.45.4,2.19.74,4Zm9.47-2.68L595.76,30a3.71,3.71,0,0,1-5.17,0ZM592.9,39a3.53,3.53,0,0,1,.24-4.77l2.75,2.74Zm7-1.4c-1.21-1.13-1.06-2.25,0-3.4l2.34,2.33C602,38.06,600.74,37.42,599.86,37.55ZM602,30.34a12.73,12.73,0,0,1-2.75.62c-.22-1.1-.47-1.85-.61-2.51,1.2-1.39,2.36-1.35,3.36-.15Zm-3.19-9.22c1.1-.21,2.19-.35,3.19-.63v3.26c-1,.16-1.54.31-2.67.52C599.14,23.23,599,22.29,598.81,21.12Zm.63-3.72c-.21-1.11-.35-1.4-.63-3.4h3.26c.16,1,.31,1.64.52,2.77C601.55,17,600.61,17.18,599.44,17.4Z"/></g></g></svg>