<svg xmlns="http://www.w3.org/2000/svg" viewBox="0 0 1114.42 23.8"><defs><style>.cls-1{fill:#d79f2e;}</style></defs><title>VemosIndice2</title><g id="Layer_2" data-name="Layer 2"><g id="ornamentos"><path class="cls-1" d="M958.2,3.47c.39-.83.77-1.66,1.33-2.84l4.6,2.93c2,.15,2.71-2,4.46-2.59,2.47,0,3.06,3,5.57,3.72L978.5,1l4.59,3L988.18.6c1.39,1.26,2.79,2.51,4.32,3.88,1.47-1.26,3-2.51,4.65-3.95l2.46,1.75c.59.43,1.16.88,1.63,1.23,2.3.27,2.77-2.07,4.85-2.86l5.16,3.44,4.36-3.65,4.84,3.41L1024.1.76c3.16-.34,3.57,2.65,5.55,3.7l4.62-4,4.33,2.92c2,.11,2.64-2.08,4.71-2.82l4.82,3.12,4.8-3.43,4.59,3,4.27-3,5.2,3.37,4.6-3.21,4.34,3.19L1080,.1l5.09,3.53L1089.8.1l5.07,3.08,4.2-3.18,5.36,3.41,3.35-3c3,.22,3.69,2.88,5.78,3.83l-.94,2.43-4.69-2.77L1106,6.59l8.42,8.05c-1,3-4,2.72-6.28,4.13l-4.93-3.1-4,3.44L1094,15.78l-4.32,3.16-4.91-3.42-4.8,4.09-4.58-3.82-3.8,3.45c-2.51.06-3-2.56-5.28-3.32l-4.46,3.68-4.49-3.66c-2.47-.15-2.22,3.18-4.7,3.37l-5.33-3.45-4.62,3.84-4.35-3.58-4.55,3.59-4.67-4-4.58,4.09L1020.23,16l-4.52,3.77-5.18-4.3c-.94.9-1.65,1.54-2.3,2.23s-1.22,1.44-2,2.36c-1-.71-1.82-1.23-2.56-1.82s-1.49-1.28-2.12-1.83c-2.25.15-2.45,2.44-4,3.26-2.53,0-3.27-2.8-5.64-3.65l-4.13,3.75c-2-1-3.56-2.08-4-4.22l4.43.75,1.76-2.36a33.39,33.39,0,0,0-11.83-9.82l-2,2.79c1.65,1.73,3.18,3.26,4.63,4.88,1.11,1.25,2.11,2.6,3.16,3.91l-5.16,3.94c-2.63-.47-3.48-4.14-6.6-3.8l-.44-.37c-.19-.69-.16-1.61-.6-2-3.16-3-6.38-5.92-9.7-8.73-.65-.56-1.8-.53-2.71-.77Zm50.62,10.37c-3.29-4.43-7.68-6.93-11.83-10.16L994.41,6.4c2.7,4.73,7.29,6.82,10.94,10.36Zm59.07-6.76c5.14,2.48,7.7,6.65,12.37,8.67l3-2.16c-3.17-4.19-7.35-6.71-11.12-9.68-.15-.12-.48,0-1.18,0Zm-36.73-1a30.93,30.93,0,0,0,12.08,9.85l2.93-2.61c-4.59-2.88-7.44-7.35-12.65-9.78Zm-15.32-1.86c-1.61.85-2.37,1.69-1.88,3.48,2.76,2.66,5.35,6,9.31,7.65,1.4.59,2.86.51,3.58-1.63C1024.29,9.54,1020.09,7.05,1015.84,4.21Zm35,2.72c2.41,3.38,5.59,5.3,8.47,7.54a16.63,16.63,0,0,0,2.64,1.41l2.4-1.91c-3.26-4.49-7.3-7.38-11.47-10a8.42,8.42,0,0,0-1.44,1.19A7.88,7.88,0,0,0,1050.87,6.93Zm37-.71c2.71,4.42,6.8,6.68,10.61,9.07,1.5-.29,2.49-.82,2.34-2.53-3.44-3.27-6.69-6.95-11.6-9Z"/><path class="cls-1" d="M156.59,18.85,154.14,23c-2.95,0-3.52-3.09-5.63-3.43L145,23.17,139.41,19l-3.54,4c-2.69-.19-3.31-3.09-5.64-3.71L126.31,23l-4.61-3.75c-2.26.38-2.93,3.18-5.32,3.7a4,4,0,0,1-3.15-4.24l3.58,1.3a19.49,19.49,0,0,0,1.94-1.92c.25-.32.16-.9.25-1.53a41.46,41.46,0,0,0-11-9.2,3.44,3.44,0,0,0-2,3.25c1.82,1.8,3.91,3.8,5.91,5.89a13.82,13.82,0,0,1,1.5,2.35l-6,4.39-4-4.24c-2.87.1-3.23,3.35-6,3.7l-4.22-3.61L89.74,23c-2.61-.38-3.38-3-5.68-3.9l-4.35,4L75,19.21,70.79,23l-5.16-4.19L60.55,23l-4.28-3.75L51.65,23,47,19,42.46,23.1l-4.61-3.89L33.67,23l-5.18-4.28c-1.5,1.15-2.84,2.16-4.2,3.19a3.45,3.45,0,0,1-3.48-3.13H25c.59-.94,1-1.54,1.44-2.27a41.57,41.57,0,0,0-11-9.37A2.87,2.87,0,0,0,12.7,10c1.75,1.74,3.72,3.6,5.58,5.57,1,1,1.8,2.27,2.69,3.41-2.76-.63-3.56,2.43-6.15,3.15L10.1,18.81,5,23.18l-5-5c2.74-1.67,3.51,1.63,5.75,1.45l2.87-2.95C5.72,13.93,2.37,12.14,0,8.9,1.1,6.46,3.6,5.67,5.56,3.79l5.05,3.26,4.86-3.48,4.76,3.62,3.38-3.08c2.53-.35,3.31,2.92,6.15,2.78l4.22-3,4.76,3L43.1,3.69l4.19,3.08c2.37.44,2.92-2.55,5.46-2.7L56.86,7l4-2.94c2.61-.06,3.42,2.55,5.45,3.77l4.88-4.1L75.73,7,79.82,4.1c2.78-.22,3,3.1,5.37,3.77,1.26-1.25,2.59-2.59,4.06-4.06L93.6,6.76c2.19.21,2.74-2.06,4.46-2.67,2.61-.13,3.18,2.77,5.56,3.89l4.73-4.16,3.76,3.05c2.62.09,2.75-3.34,5.82-2.71l3.58,3.78,2.27.35a8.58,8.58,0,0,0,.88,2.73c2.72,3.53,6.61,5.74,10,8.55.13.11.43,0,1.09,0l1.88-2.88L127.34,7.1l-3.7,1.34c-.2-1.95.84-3.21,2.36-4.17,2.44-.72,3,2.28,5.61,2.45.3-.21,1.06-.73,1.79-1.29.58-.44,1.13-.91,1.67-1.34,2.68-.09,3.32,2.76,5.6,3.59l2.41-.85,0,0,.21,5,9.41,7.83,3.71-1Zm-76.8,1.31c.7-.6,1.2-.84,1.42-1.24a12.32,12.32,0,0,0,.7-2.08c-3.56-3.3-6.37-7.33-11.08-9.63l-2.43,3C71.44,14.59,75.35,17.39,79.79,20.16ZM50.24,10.77c3,2.77,5.41,5.18,8,7.39.85.72,2.14.91,3.32,1.38l2.12-2.45C60.25,13,56.61,9.59,51.61,7.32,51.15,8.47,50.81,9.32,50.24,10.77ZM35,7.64c-1.91,0-2.91.8-3.37,2.77,2.67,4,6.54,6.78,10.92,9.09.73-.53,1.33-.92,1.86-1.38.14-.12.1-.46.21-1C42,13.4,38.22,10.69,35,7.64ZM97.73,20.12c1.7-1,3-1.67,2.78-3.5-3.32-2.91-6.62-5.84-10-8.72-.3-.26-.92-.15-1.8-.27-.34,1-.71,2-1,2.92a44.77,44.77,0,0,0,4,4.85C93.46,17.07,95.54,18.44,97.73,20.12Z"/><path class="cls-1" d="M698.83,5.15l1-2.33c1.82-.19,2.54.9,3.45,1.67.72.62,1.47,1.22,2.4,2l3.5-3.75c2.93-.41,2.84,3,4.92,3.81,2.45-.17,2.94-3.09,5.45-3.85l1.94,2.64-.13.14a5.37,5.37,0,0,0-5.2,3.46c4,2.77,6.59,7.43,11.81,8.48,1.33-.15,2.4-.55,2-2.83-1.6-1.54-3.59-3.38-5.48-5.32a14.94,14.94,0,0,1-1.58-2.36l0,0,5.28-4.28,4.64,3.84,4.4-3.65c2.42-.48,3,2.58,5.53,2.57l4-3L751.39,7l4.87-4.3,4.79,2.84,4.43-3,5.17,2.91L775,2.19l4.13,2.94c2.07.16,2.52-2.24,4.25-2.62,2.4-.53,2.91,2.37,5,2.74,1.84,0,2.49-2.1,4.56-2.91l4.72,3L802,2.06l5.7,4.56.49.38c2.71,4.69,7.31,7.22,11.24,10.1h3.27l.31.3c-.06,1.7-.85,2.75-3,3l-4.58-3.15-3.73,4.05L806.57,17,802,20.4a3.82,3.82,0,0,1-3.16-3.21c2.11,0,4.54.75,5.36-2.42A37,37,0,0,0,793.3,5.59c-1.87.33-2.86,1.19-2.89,2.63L799,17.34c-2.73-.71-3.72,2-6.08,3.07l-4.81-3.21-4.6,4.11-4.47-3.64-4.63,3.74-4.36-3.86-2.5-.2c-.07-.73-.14-1.46-.25-2.53-3.1-3.39-6.48-6.86-11.08-9.35l-2.6,3.06c3.82,3.82,7.07,7.65,11.63,9.44l2.44-.77c.22,1.66-.5,2.85-2.13,3.89-2.28-.07-3-2.83-5.35-3.64-1.07,1.1-2.23,2.31-3.58,3.69-2.29-.25-3-3-5.43-3.67l-3,1.39c.3-1.37.61-2.75.9-4.07A36.35,36.35,0,0,0,738,5.67c-1.79.45-2.69,1.42-2.76,3.56a62.32,62.32,0,0,0,5.6,5.29c2.28,1.74,4.44,3.86,7.53,4.2-.69.89-1.38,1.77-2.16,2.79l-4.36-4-4.41,3.91-4.69-4-4.54,4-4.64-3.64-4.32,3.64c-2.48-1.17-3.52-4.48-6.78-4.15l.11.11c-.11-.71-.22-1.41-.39-2.48-3.46-2.88-7.09-6-10.81-8.92-.48-.38-1.38-.23-2.08-.32ZM775,5.49c-1.23.8-2.49,1.46-2.17,3.39,3.64,2.65,6.26,6.69,10.46,8.56,2.07-.93,2.07-.93,3-2.7A35.94,35.94,0,0,0,775,5.49Z"/><path class="cls-1" d="M972.1,15.83a5,5,0,0,1-2.91,3.93c-2.63.1-3.26-2.87-5.32-3.42-1.2,1.23-2.37,2.41-3.79,3.85L954.65,16,950,20.17l-2.06-3.11c2-.14,4-.3,4.52-3.63-3.53-2.53-5.75-7.29-11.35-8.19l-1.94,2.38c2.54,2.28,4.84,4.48,7.3,6.49a3.9,3.9,0,0,1,1.62,3.09l-2.77-.12-3.6,3.14L937,16.29c-2.23.28-2.76,3.2-5.41,3.75l-4.15-3-4.66,3.11-5.88-4.35-.31-.26c-1-2.65-3.5-4-5.26-5.94C910,8.2,908,7.4,907.79,5.18l-.07.08a10.82,10.82,0,0,0,2.63-1.16A37.44,37.44,0,0,0,913.52.7l4.07,4.18c3,.18,3.39-3.06,6-3.55l4.29,3.55,3.83-3.46c2.78,0,3.36,3,5.89,3.61l3.62-3.92c2.94-.15,2.74,3.74,5.53,3.6L950.18.84c1.64,1.42,3.1,2.68,4.71,4.09l3.31-1.46.45.46c-.35,1.14-.7,2.28-1.09,3.57,3.14,3.86,7.21,6.7,11.11,9.42l3-1.46ZM920.82,7.16c2.43,4.87,7.08,6.79,10.44,9.75,2-.48,3.06-1.33,2.93-3.6l-11-9.26Z"/><path class="cls-1" d="M873.49,17.07h-2.17l-3.73,3.14-4.74-3.82-2.56.68.06.06V13.56L850,5.29h-3.32l-.05,0c-.11-1.72.58-2.81,2.84-3.05L853.57,5c1.46-1.23,2.94-2.48,4.56-3.83L863,5.43l5-3.51,4.44,3.22,4.19-2.93c2.95-.48,3.21,2.66,5.64,2.84l4.45-3.89L891.37,5,896,1.07l4.38,4.07,2.36.11-.06,0,.51,2.89c2.18,2,4.28,4.06,6.49,6,1.86,1.62,3.88,3,6.57,2.88l.23.24c-.29.86-.59,1.71-.82,2.39-3,.76-3.73-2.73-6.64-2.41l-3.59,3-4.79-4-2.53.95V13.89s-8.11-6.28-12-9.07l-3.37,2.32a79.16,79.16,0,0,0,11.63,11.09h3c-.66-.15-1.33.84-2.21,2.15l-5.27-3.24-4,2.91a6.06,6.06,0,0,1-1.55-.52c-1.58-1.17-3.11-2.4-4.66-3.61l-.55-.42A27.42,27.42,0,0,0,867.1,5l-2.46,2.33c1.69,2.33,3.79,4,5.62,6,1.16,1.21,2.14,2.58,3.2,3.88Z"/><path class="cls-1" d="M178.69,8.47c.2-1.85,1.16-3.17,3.29-4.16l4.2,3L191,4.15l5.09,4.15L200,4.63c2.32.08,2.93,2.49,5,3.45l4.24-3.57a11.84,11.84,0,0,1,1.86,1c1.48,1.21,2.53,3.1,4.84,2.92l.3.26c.44,1.12.57,2.55,1.36,3.29,2.87,2.71,5.91,5.24,9,7.69.69.55,1.86.49,2.81.71l.26.24c-.3.88-.6,1.76-.9,2.61-3,.1-3.76-2.6-6-3.64l-3.39,3.65c-2.56.07-3.17-2.8-5.42-3.76-2.1.35-2.67,3.19-4.93,3.76-1.52-.12-1.86-1.24-2-2.54l.29-.32c2.07-.12,3.86-.61,4.16-3.35-3.15-3.77-6.73-7.17-11.27-9.26-1.34.89-2.11,1.74-1.67,3.14l7.17,8.12h0l-6.3,4.72c-1.1-1.69-2.16-3.3-3.1-4.73l-4,1.5,0,0c.23-1.16.46-2.33.74-3.77-4.06-2.6-6.79-7.07-11-9.44l-2.94,1.44Z"/><path class="cls-1" d="M143.08,7.18l.78-3.2,5.44,3.3,4-2.93c2.4.38,3.36,2.8,5.5,3.82l4.23-3.67c1.86,1.1,3.52,2.1,4,4.24L162.6,7.67c-.53.9-1.11,1.87-1.67,2.79,3.18,4.32,7.14,7.09,11.12,9.74,1.25-.7,2.27-1.36,2.19-3.39-1.4-1.41-3.14-3.08-4.77-4.85-1-1-1.74-2.24-2.6-3.36l5.44-4.2a26.59,26.59,0,0,0,3.11,2.78,16.13,16.13,0,0,0,3.27,1.29l.38.35c.26.89.24,2.06.82,2.64a82.47,82.47,0,0,0,6.91,6.17c1.63,1.3,3,3.28,5.51,3l0,0c0,1.3-.21,2.43-2.08,2.81L186,19.84c-2.34.08-2.18,3.16-4.68,3.57L176,18.76c-1.18,1.7-2.31,3.31-3.09,4.42-3.35.42-3.18-2.75-5.46-3.42l-4.14,3.46c-2.57-.88-3.54-4.35-6.75-4l-.14-.14c-.12-.7-.23-1.41-.43-2.56-3.21-2.7-6.64-5.66-10.19-8.48-.68-.54-1.79-.54-2.71-.79Z"/><path class="cls-1" d="M835.82,17.28l-2.16.14-4.07,3.17-5-4.18-2.09,1-.31-.3c.05-.95.11-1.9.16-2.71-2.73-4.16-6.77-6.41-10.47-9h-3l0,0c.19-1.67,1.27-2.49,2.81-3.12L816,5.37l4.05-3.52,4.85,3.39c2,.07,2.62-2,4.25-2.7,2.3-.6,3.06,2.18,5.43,2.47l4.62-3.36,4.45,4.29,2.46-.69.06,0V8.57c3,3.94,6.72,6.26,10.26,8.48l3.16.17-.05-.06L858,19.86c-3,.8-3.51-2.22-6-2.38L848,20.38,843.21,17,839,20.26c-.57-.2-1.41-.25-1.86-.7a12.31,12.31,0,0,1-1.5-2.42l4.16-.19c.58-.86,1-1.45,1.59-2.39-3.93-3.22-6.75-7.75-12.61-9.44l-1.95,2.11c1.91,2.81,4.3,4.58,6.32,6.69A41.19,41.19,0,0,1,835.82,17.28Z"/><path class="cls-1" d="M259.32,8.66a8.59,8.59,0,0,0,2.58-1.1,24.67,24.67,0,0,0,2.64-3.08c1.93,0,2.22,1.42,3,2.26.65.67,1.41,1.25,2.33,2.06l4.86-4.19,4.72,3.46,4.43-3.7L288.2,8.3l2.44.27,0,0c.09.73.19,1.46.27,2.17,3.29,4.49,7.69,7.55,12.81,10.36L302,23.39c-.94-.78-1.69-1.37-2.4-2s-1.45-1.33-2.22-2.05l-4.51,4.08-4.5-4.08-2.27-.24A4.17,4.17,0,0,0,285,15.77c-3-3.19-6.72-5.51-10.22-8.55l-3.13,3.47c3.64,4,7.24,7.55,11.71,9.76l3-1.51a6.45,6.45,0,0,1-.42,2.12,17.1,17.1,0,0,1-2.19,2.46l-4.95-3.19-4.14,2.89c-2.47-.23-3.15-3-5.58-3.8l-4.12,3.71a6.75,6.75,0,0,1-4-4.09l0,0L265,20c1.18-.56,1.94-1.39,1.8-3.4-1-1-2.21-2.46-3.55-3.79s-3.22-2.19-3.79-4.23Z"/><path class="cls-1" d="M447.25,18.84a7.81,7.81,0,0,0-2.68.85A26.07,26.07,0,0,0,441.68,23c-2.61,0-3.29-2.8-5.47-3.59-.08,0-.37-.09-.5,0-1.29,1.1-2.56,2.23-4.15,3.64L427,19.34l-4.31,3.54c-2.58-.82-3.49-4.42-6.77-3.9l-.07-.06-.69-3c-3-2.54-6-5.16-9.14-7.57-.89-.69-2.25-.78-3.39-1.14l-.37-.41,1.22-2.95c1.16.71,2,1.16,2.74,1.68.61.41,1.16.9,2.08,1.62L413.24,4l5,4.13L422,4.58c2.33-.28,3.43,1.88,5.45,2.37.07,0,.37.06.55-.06,1.2-.83,2.37-1.71,3.55-2.57,1.81-.27,2.68,1,3.44,2.26a3.49,3.49,0,0,0,3,1.73l.36.32c-.17,2.32,1.5,3.56,3,4.79,2.05,1.72,4.58,2.94,5.74,5.58Zm-13.18-1.35c-5.37-6.35-9.4-10-11.16-10.16-1.46.57-2.51,1.44-2.2,3.51,3.09,3.46,6.44,6.91,11.1,9.1Z"/><path class="cls-1" d="M351.77,8.56a9.42,9.42,0,0,0,2.61-1.18,27,27,0,0,0,2.68-3.13c2.87.26,3.46,3.23,6,3.82,1.31-1.19,2.74-2.48,4.25-3.83l3.94,3.4c2.7.33,2.42-3.08,5.07-3.33l4.76,3.81,4.3-3.79c1.92.14,2.23,1.28,2.31,2.6l-.2.22c-2.09.08-3.79.7-4.22,3.58,1.32,1.31,2.89,2.77,4.31,4.36C388.64,16.3,390.4,17,390.5,19l.06-.07c-1.74,1.32-3.48,2.64-5.39,4.07l-4.25-3.77L378.59,19l.05,0c-.1-.72-.21-1.45-.34-2.35-3.33-3.37-6.66-6.91-11.07-9.07-.54.36-1.06.54-1.32.92a13,13,0,0,0-1,2,11.8,11.8,0,0,0,5.37,5.84A3.56,3.56,0,0,1,372.62,19l.07-.07-2.46.54-3,3.61c-2.77.14-2.93-3.09-5.46-3.91l-4.57,4c-1.76-1.09-3.24-2.28-3.88-4.23l0,0,4.6.87,1.48-2.71c-2.24-3.53-6-5.12-7.56-8.61Z"/><path class="cls-1" d="M353.29,19l-5.22,4.26-4.51-4.05-4.71,4.13-5-3-4.1,2.77-4.52-3.9L322,20.51l0,0c.24-1.34.48-2.68.74-4.09-2.87-2.52-6.28-4.39-8.22-7.78l.07-.07c2.72.19,3.63-2.15,5-3.66,2.64-.09,3.75,2,5.36,3.88l5.21-4.35,5,4.28,2.72-4c3.31-.18,3.82,2.9,6.2,3.4l4.09-3.67c1.83.09,2.23,1.16,2.36,2.47l-.32.36c-2.16,0-3.72.81-4.2,3.19.91,2.34,3.24,3.44,4.82,5.2.94,1,2.4,1.7,2.49,3.37Zm-26.54-8.19,11.42,9.56c2-1.36,2-1.36,2.94-3.51a45.48,45.48,0,0,0-11.34-9.49Z"/><path class="cls-1" d="M260.87,19l-5.16,4.33L251,19.26,248.88,19l.11.1c-.43-1.1-.59-2.44-1.33-3.25-2.94-3.24-6.6-5.62-10.16-8.55l-3.12,3.59c1.52,1.34,2.74,2.53,4.08,3.57,1.72,1.34,3.6,2.49,4.48,4.63L243,19a4,4,0,0,0-3,1.81,15.23,15.23,0,0,1-2.23,2.49c-2.73-.15-3.28-2.46-5-3.9l-3,1.25-.26-.24c.06-1.21.12-2.42.18-3.57A68.81,68.81,0,0,0,219.35,7.4l-3.09,1.34-.3-.26a4.51,4.51,0,0,1,2.82-4c2.54.12,3.25,3,5.62,3.55l3.6-4,5.29,4.29,3.83-3.61c2.4.08,3.14,2.44,5.15,3.26l4.47-3.72,4.36,4.1,2.33.23-.06-.06c.09.74.17,1.47.31,2.71,1.71,1.6,3.73,3.42,5.65,5.35a13.12,13.12,0,0,1,1.52,2.41Z"/><path class="cls-1" d="M647.14,5.13c.85.47,1.7.94,2.8,1.53l3.59-4.05,5.31,4.18c2.24-.53,2.87-3.4,5.23-3.85l4.56,3.69,3.31-3.9c2.62.16,3.13,2.66,5.85,3.82l1.9.3h0c.14,1,.28,1.92.37,2.51,2.27,3.1,5.56,4.71,7.09,7.92h0L682,21.42c-2.41-1.1-3.53-4.33-6.73-4.14l0,0a4.84,4.84,0,0,0-1.33-3.3c-3-3.19-6.15-6.19-10.42-8.17l-3,3.24,8.74,8.28.12-.12a9.47,9.47,0,0,0-2.56,1.15,28.75,28.75,0,0,0-2.72,3.08c-3,.2-3.15-3.1-5.72-3.9l-4.89,4.19-2.12-2.89.1-.12c2-.12,4-.37,4.39-3.24a25,25,0,0,0-7.13-7,3.86,3.86,0,0,1-2-2.85Z"/><path class="cls-1" d="M609.79,5l3.57,1.19L617,3.29l4.82,3.41,4.82-3.43,4.59,2.94,4.51-3.73,3.57,4.12h3l.13.11.17,2.05c2.28,2.35,4.52,4.59,6.67,6.91a29.46,29.46,0,0,1,2.1,2.85l-.1.12-2.61-.15c-1,.74-2.36,1.69-4,2.87L640,17.43l-2.09-.26a3,3,0,0,0,0-.74c-1.86-5.35-6.77-7.57-10.92-10.58-.12-.08-.42.1-1.05.26-.46.74-1.06,1.75-1.67,2.75,2.53,4.88,6.9,7.13,10.8,9.69l3-1.54a4.32,4.32,0,0,1-3.39,4.49l-2-1.74-2.4-2.1c-1.19,1.27-2.29,2.42-3.65,3.86-1.38-1.19-2.58-2.35-3.92-3.32a12.1,12.1,0,0,0-2.6-1.13l.1.08c-1-2.91-3.76-4.39-5.69-6.54-1.6-1.79-3.28-3.52-4.93-5.27Zm11.33,5.72-.34-.25-.06.41Z"/><path class="cls-1" d="M463.52,8.54l4.86-4.69,5.05,4.33,4.39-4.29,4.78,2.93c2.16.1,2.68-2.13,4.45-2.78a8,8,0,0,1,1.81.78c1.54,1.16,3,2.42,4.51,3.63l0,0c.86,2.45,3.05,3.77,4.68,5.57,1.44,1.6,3.55,2.63,4.23,4.89l.06-.07-2.27.29L496.85,22a6.52,6.52,0,0,1-1.91-.7c-1.5-1.18-2.91-2.49-4.36-3.75l-.34-.26A38.46,38.46,0,0,0,478.34,7c-1.71.89-2.91,1.69-2.58,3.65a39.35,39.35,0,0,0,11,9.16L489,19l-.14-.12a3.61,3.61,0,0,1-2.16,3.88l-4.51-3.52c-1.42,1.21-2.89,2.44-4.54,3.83l-4.55-4.84-2.08.68.1.1c-.07-.74-.14-1.48-.2-2.14l-7.28-8.39Z"/><path class="cls-1" d="M494.9,6.7l.43-2.49c3.17-1,3.79,2.71,7,2.19l2.55-2.49c2.39-.57,3.09,2.15,5.53,2.77h2.37l-.06-.06c.08,1.2.15,2.41.22,3.4,3,4.27,7.27,6.58,10.74,9.37l2.54-.78-.09-.08c-.54,2-.54,2-2.55,3.26l-4-2.95c-2.18-.34-2.24,2.43-2.91,2.54-3.7.7-4.49-2.36-7.08-2.82-1.13.92-2.42,2-3.73,3.07-2.05,0-3.06-1.2-3.47-3.08l-.06.07,4.16-.23,1.74-2.26c-3.26-2.94-5.93-6.48-9.91-8.55a16.88,16.88,0,0,0-3.45-1Z"/><path class="cls-1" d="M582.78,17.28c.17,2.27-1.11,3.54-3,4.67L575.89,19c-2.49-.23-3.13,2.48-5.33,2.76L565,17.43l-.16-.13c-2.52-2.62-4.93-5.36-7.57-7.84-2-1.85-4.35-3.11-7.27-2.54l0,0,2-3.32,5.35,3.19,3.89-3.33L566,6.81c2.06,0,2.76-2,4.39-2.75,2.06-.25,3,1,3.47,2.84l-.06,0c-2.15-.07-4.52-.63-5.45,2.6,3.36,3.67,6.7,7.53,11.55,9.27l2.94-1.43Z"/><path class="cls-1" d="M387.66,6.93l3.06.28,3.88-3a10.19,10.19,0,0,1,1.9.94c1.41,1.14,1.92,3.47,4.34,3.28l.25.23c.26.93.51,1.86.62,2.24,3,2.67,5.63,4.91,8.15,7.24a6.87,6.87,0,0,0,4.47,2.26l.12.12-1.67,2.77-5-4-3.63,3.86L399,19.06l-4.46,3.86a6.63,6.63,0,0,1-3.93-4l-.06.07,4.08.87c1.7-1.91,1.7-1.91,1.56-4.23-3-2.76-6.63-4.8-8.68-8.49Z"/><path class="cls-1" d="M536.67,6.4l2.26-.17,3.21-2.71c2.65-.11,3.26,2.74,5.73,3.54L550,6.49l0,0c.07,1.2.14,2.4.18,3.21,2.93,4,6.67,6.35,10.32,8.79h3l-.11-.1-1.93,3.39-5.3-3.3-3.87,3.3-4.77-3.29c-2.15.06-2.81,2.07-4.37,2.82-2.07.23-3-1.05-3.6-2.81l.1-.11c2.23.27,4.42.45,5.53-2.32-2-2-4-4-6-6.14-.95-1-1.73-2.22-2.59-3.34Z"/><path class="cls-1" d="M465.12,18.84l-5.25,3.92c-2.54-.79-3.47-4.4-6.77-3.88l.1.1c-.17-.94-.34-1.89-.52-2.92-3.21-2.68-6.41-5.28-9.53-8a5,5,0,0,0-3.38-1l-.12-.13c.25-.88.51-1.76.74-2.58,3-.09,3.79,2.72,5.95,3.36l2.79-3.61c3.47.22,4,3.13,6.38,4l4.58-4,2,3,.07-.07c-2.45,0-4.35.71-4.37,3.65,1.79,1.82,3.57,3.54,5.22,5.37a25.1,25.1,0,0,1,2,3Z"/><path class="cls-1" d="M620.14,17.28c.29,2-1,3.18-2.47,4.22-2.54.51-3.27-3-6.27-2.57l-3,2.66c-2.44-.17-3.1-2.87-5.12-3.94l-2.49,1.13.11.12V15.43c-3.46-3.85-7-7.15-11.19-9.34l-2.3.82h0c-.16-1.69.5-2.78,2.58-3.19l4.7,3.15,4-4.1c1.64,1.49,3.05,2.78,4.46,4.05l2.19.14-.13-.13c.23.93.17,2.11.72,2.75,3.18,3.6,6.37,7.25,11.05,9.11l3.28-1.33Zm-12.88-.88c.14,0,.36-.07.4-.16a1,1,0,0,0,.07-.66c-.22-.59-.49-.52-.64.19C607.05,16,607.2,16.19,607.26,16.4Z"/><path class="cls-1" d="M512.78,6.74a4.49,4.49,0,0,1,.52-1.32,19.06,19.06,0,0,1,1.83-1.74l5,3,4.28-3.16,4.88,3.36,4.19-3.12a3.51,3.51,0,0,1,3.22,2.83l-.12.14c-2.11,0-4.46-.65-5.42,2.49,1.82,2.36,4.26,4.32,6.45,6.51a22.19,22.19,0,0,1,2.06,2.8l-.1.11-2.19.2-3.23,2.82a6.71,6.71,0,0,1-1.91-.7c-1.49-1.15-2.88-2.42-4.31-3.65l-.5-.39c-3-4.51-7.24-7.53-11.69-10.28h-3Z"/><path class="cls-1" d="M685.83,6.67,691,2.82c2.54.82,3.41,4.37,6.64,4.06l-.06-.07a3.84,3.84,0,0,0,.29,1.41c3.31,4.86,7.4,8.76,13.17,10.55h0c0,1.47-1,2.08-2.31,2.54L705,18c-2.5,0-2.3,3.1-4.89,3.48l-4.71-4c-1.48,1.4-2.87,2.72-4.57,4.31l-2.1-3-.09.1c1.93-.36,3.89-.69,4.45-3.48L685.51,7Z"/><path class="cls-1" d="M573.9,6.9l2.16-.24,3.19-2.74c2.34-.26,2.91,1.93,4.86,2.8l3.18.2h0c.06,1.17.11,2.34.18,3.75,1.67,1.35,3.37,2.65,5,4.07a24.4,24.4,0,0,1,2.27,2.67l.13-.13-5.43,4.52-6.61-4.51.1.11c-1-2.72-3.55-4-5.29-6.05-1.25-1.46-3.31-2.23-3.75-4.39Z"/><path class="cls-1" d="M295.4,6.82l3.37,1.11,2.68-3.35c2.5.29,3,3.11,5.15,3.77l2,.26-.06,0,.24,2.1c2,2,4,4,5.92,6A11.21,11.21,0,0,1,316,19l-5.31,4.37c-4.6-6.15-11.22-10-15.83-16C295,7.21,295.22,7,295.4,6.82Z"/><path class="cls-1" d="M675.22,17.28c-.7,2.51-.7,2.51-3,4.2-1.92-.75-3.16-2-2.85-4.25l-.12.12a5.28,5.28,0,0,0,6-.05Z"/><path class="cls-1" d="M248.88,19c-.6,2.53-.6,2.53-2.94,4.3C244,22.54,242.85,21.24,243,19l-.08.07c2,1.1,4,1.4,6.05,0Z"/><path class="cls-1" d="M679.69,6.85c-.3-1.91.6-3.14,2.25-4a6.81,6.81,0,0,1,3.89,3.81l-.32.36-3.35-1-2.46.87Z"/><path class="cls-1" d="M879.73,15.92A5.9,5.9,0,0,1,877,20c-2.08.15-3-1-3.52-2.83l0,0c2.19.4,4-.48,5.72-1.69Z"/><path class="cls-1" d="M901.81,5.25l2.12-3.2a4,4,0,0,1,3.79,3.21l.07-.08h-6Z"/><path class="cls-1" d="M600.66,18.78a3.62,3.62,0,0,1-2.09,2.76c-1.63-1.12-4.14-1.36-3.75-4.27l-.13.13c1.91,1,3.84,1.85,6.08,1.5Z"/><path class="cls-1" d="M642.36,6.82c-.14-1.83.7-3.05,2.58-4l2.2,2.28-.49.54-4.16,1.26Z"/><path class="cls-1" d="M253.43,8.65c-.25-1.89.68-3.1,2.62-4.14l1.81,2.63,0,0-4.51,1.48Z"/><path class="cls-1" d="M290.64,8.57c-.29-1.9.73-3.05,2.53-4.07l2.23,2.32c-.18.19-.36.39-.53.59l-4.19,1.2Z"/><path class="cls-1" d="M377.1,20.45,376.45,23c-2.08-.11-2.37-1.21-2.3-2.57h3Z"/><path class="cls-1" d="M322,20.51l-2.13,3-2.29-3.09-.13.13,4.52-.1Z"/><path class="cls-1" d="M469.79,20.66c-.25.66-.51,1.32-.75,2-1.55-.13-2.41-.76-2.45-2.24l-.06.07,2.79-.3Z"/><path class="cls-1" d="M310,7c.22-.77.43-1.55.83-3l2.47,2.86-.38.41-2.77-.11Z"/><path class="cls-1" d="M451.66,20.43c-1.33,2.15-1.84,2.15-3,0l0,0h2.95Z"/><path class="cls-1" d="M606.72,5.45c1.23-2.14,1.63-2.17,3.07-.21l-.27.32-2.91-.22Z"/><path class="cls-1" d="M466.59,20.38l-1.47-1.54L465,19l1.53,1.47Z"/><path class="cls-1" d="M453.1,18.88a1.4,1.4,0,0,1-1.44,1.55l0,0c0-1,.52-1.51,1.56-1.42Z"/><path class="cls-1" d="M448.65,20.44c-1-.07-1.31-.74-1.4-1.6l-.13.16,1.57,1.4Z"/><path class="cls-1" d="M415.91,19l-1.46,1.51-.12-.12a1.4,1.4,0,0,1,1.51-1.45Z"/><path class="cls-1" d="M378.59,19a1.33,1.33,0,0,1-1.49,1.5l0,0a1.41,1.41,0,0,1,1.5-1.49Z"/><path class="cls-1" d="M374.15,20.46a1.38,1.38,0,0,1-1.46-1.52l-.07.07a1.49,1.49,0,0,1,1.52,1.46Z"/><path class="cls-1" d="M317.57,20.45,316,19a1.47,1.47,0,0,1,1.43,1.57Z"/><path class="cls-1" d="M207,20.75a1.46,1.46,0,0,1-1.32-1.67h0a1.48,1.48,0,0,1,1.61,1.35Z"/><path class="cls-1" d="M712.45,17.22A1.44,1.44,0,0,1,711,18.76h0a1.36,1.36,0,0,1,1.55-1.44Z"/><path class="cls-1" d="M688.69,18.74c-.87-.1-1.48-.48-1.53-1.45h0a1.33,1.33,0,0,1,1.44,1.55Z"/><path class="cls-1" d="M565,17.43l-1.62,1.38.11.11,1.35-1.62Z"/><path class="cls-1" d="M527.9,17.6l-1.77,1.24.09.08,1.18-1.71Z"/><path class="cls-1" d="M490.58,17.57l-1.75,1.27L489,19l1.27-1.65Z"/><path class="cls-1" d="M916.86,15.8l-1.51,1.48-.23-.25c.47-.5,1-1,1.43-1.49Z"/><path class="cls-1" d="M493.37,8.45A1.38,1.38,0,0,1,494.9,7l-.06-.07-1.45,1.53Z"/><path class="cls-1" d="M462,7c1,0,1.51.5,1.48,1.51l.09-.1A1.42,1.42,0,0,1,462.11,7Z"/><path class="cls-1" d="M438,8.31l1.62-1.37.12.13-1.38,1.56Z"/><path class="cls-1" d="M400.84,8.4l1.41-1.58.37.41-1.53,1.4Z"/><path class="cls-1" d="M350.47,6.88l1.3,1.68h0l-1.63-1.31Z"/><path class="cls-1" d="M313.25,6.86l1.3,1.68-.07.07-1.61-1.34Z"/><path class="cls-1" d="M308.58,8.61A1.44,1.44,0,0,1,310,7l.15.15a1.46,1.46,0,0,1-1.58,1.4Z"/><path class="cls-1" d="M257.86,7.14a1.32,1.32,0,0,1,1.46,1.52l.09-.09a1.36,1.36,0,0,1-1.53-1.46Z"/><path class="cls-1" d="M807.66,6.57l1.7-1.3,0,0L808.15,7Z"/><path class="cls-1" d="M721.5,5.27a1.47,1.47,0,0,1,1.44,1.55l0,0a1.38,1.38,0,0,1-1.54-1.43Z"/><path class="cls-1" d="M697.61,6.88l1.22-1.78.45.51-1.73,1.2Z"/><path class="cls-1" d="M605.22,7l1.5-1.52-.11-.11-1.52,1.51Z"/><path class="cls-1" d="M471,18.87l-1.2,1.79-.47-.51A1.54,1.54,0,0,1,471.09,19Z"/></g></g></svg>