<svg xmlns="http://www.w3.org/2000/svg" viewBox="0 0 192 47.14"><title>VemosIntro2</title><g id="Layer_2" data-name="Layer 2"><g id="ornamentos"><path d="M47.85,3.29H44.73l-.16.79-2.24.12-.18.64L40.54,5l-.16.61-2.09.21-.19.67-.78.08-.16.69-.55.14,0,.54,1.44.3.27,1.37.64.12.18.74.63.08.09.75.69.12.12.73.6.16.26,1.4.6.15.14,1.51.7.16L43,17.85l.71.19v6.27l-.77.17v3l-.75.15-.17,1.41-.67.16-.06.78-.67.15-.1.68-.74.17-.08.64-.73.09-.12.75-.74.08-.17.61a36.53,36.53,0,0,1-6.28.12l-.14-.73L30,32.47l-.13-.74-1.4-.11-.14-.73-.72-.12-.12-.72-.71-.12-.14-1.42-.7-.1-.13-1.55-.65-.1L25,24.49l-.63-.18c-.08-2.34-.06-4.71,0-7.1L25,17V15.53l-.64-.17c0-1.55-.09-3.12-.13-4.78H21.94l-.16-.68h-.55l-.17.61c-1.84.13-3.69,0-5.53.21l-.12.68H13.15l-.2.77-1.49.14-.1.68-.75.12-.14.6L9.07,14l-.15.63-.69.1-.13.71-.71.12-.12.7-.72.12L6.44,17l-.68.13-.13.71L5,17.93l-.13.71-.68.12v3.87l.7.14L5,24.32l.56.15a6.29,6.29,0,0,1,.09,2.26H5L4.85,26l-.71-.14L4,25.22,3.31,25,3.2,23.61H2.49l-.12.69-.6.17v7.92l.63.16.16,2.25L3.2,35l.13.71.6.14.26,1.49.66.11.14.72.58.16.16.66.67.18.14.58.71.12.13.7.74.09.11.65,1.4.23.14.61.78.13.18.65,2.09.23.2.65c2.93.09,5.88.08,8.86,0l.2-.65,2.2-.23.11-.66.73-.13.17-.63,1.45-.16v.88l-.64.16-.25,1.37-.6.15-.14.73-.68.1-.13.73-1.51.11-.11.7-1.44.14L21,47A63.32,63.32,0,0,1,13.13,47l-.15-.6-1.55-.21-.13-.61-1.52-.11-.15-.72-1.42-.12-.14-.69-.72-.11-.13-.65L6.51,43l-.11-.68-.73-.14-.11-.7-.67-.09-.13-.74-.66-.11-.17-.74-.65-.1L3.19,38.3l-.74-.14-.1-1.51-.69-.11-.13-.77-.6-.16-.24-2.2-.53-.15a83.07,83.07,0,0,1,0-10.35l.57-.15.08-2.39.78-.14V16.36l.77-.16q0-1.93.09-3.9l.73-.14.1-.73.66-.14L4.16,9.8l.68-.12L5,9l.64-.17.1-.67L6.4,8l.1-.64.74-.09.11-.69.75-.13.14-.6,1.5-.26L9.91,5,12,4.74l.2-.63L14.51,4l.16-.65,4.69-.11.18-.61a34.74,34.74,0,0,1,6.3,0l.16.68a21.82,21.82,0,0,0,3.87-.13L30,2.46l1.54-.07.15-.75a19.64,19.64,0,0,1,4.65.16v.6l-1.41.14-.14.71L31,3.36v.57l.6.15.1.69,1.4.25.18.59h1.49l.11-.71,1.44-.14.19-.63L38,4l.14-.63,2.2-.17.2-.72h2.31L43,1.65l2.38-.09L45.54,1C47.61.69,49.69.82,51.79.73l.2-.6C55.4-.12,58.83.07,62.27.06l.21.67c.37,0,.76,0,1.15,0l3.1,0a4.66,4.66,0,0,1,.81.12l.16.58a1.07,1.07,0,0,0,.27.06c1.15,0,2.3,0,3.45.06.45,0,.9.09,1.36.14l.18.62,3,.1.19.72,2.32.1.17.63,2.22.22.17.64,2.37.08.12.72,2.24.11.15.72,1.53.11.14.65,2.21.21L90,8l1.52.22.15.62L93.17,9l.17.68,1.43.13.13.71,1.52.11.12.74,1.51.07.15.67,1.46.19.09.62,1.42.23.16.6.79.11.16.71,1.42.11.12.73,1.38.14.17.67.77.11.19.63,1.4.24.13.6,1.39.25.17.59.79.08.15.75,1.44.09.12.73,1.37.14.19.62.78.13.15.65,1.4.29.14.59.72.11.11.69.75.11.13.63,1.43.2.12.64,1.37.23.18.62.77.13.16.67,1.42.14.11.69,1.4.13.21.72.67.12.14.66.77.12.15.64,1.4.25.15.6.7.12.13.69.72.11.13.71,1.4.16.13.67.74.11.13.64,1.37.24.16.6.74.13.12.69,1.5.12.14.7,1.41.15.17.68,1.5.12.15.62,1.41.24.15.6,1.49.22.18.61,1.52.11.13.73,1.5.07.21.68,2.18.21.17.62,2.23.21.15.59,3,.17.21.71h1c1.49,0,3,0,4.47,0,1,0,2,.08,3,.08s1.81-.08,2.72-.09l6.79,0,.61,0,.16-.65,2.22-.18c0-.1.07-.21.1-.32a2.06,2.06,0,0,0,.07-.29l1.5-.22.16-.62,1.4-.23.16-.61,1.49-.12.13-.71.73-.11.14-.58.69-.18.14-.66.67-.15.16-.67.59-.15.14-.69.7-.14.11-.72.7-.1.13-.7.7-.14.1-.68.64-.18.25-1.37.59-.16.11-1.49.72-.17.09-1.44.73-.16c.1-2.91,0-5.83,0-8.77l-.75-.15-.1-2.34-.64-.17-.23-2.2-.65-.13-.13-.75-.61-.12-.23-1.41-.65-.15-.09-.69-.72-.12-.12-.72-.68-.1-.13-.71-.73-.09-.14-.64-1.37-.24-.17-.61L179.93,9l-.13-.68-1.46-.15-.16-.71-2.25-.1-.16-.74c-3.15-.06-6.31,0-9.5,0l-.14.75-1.52.12-.11.69-.72.13-.16.59-1.4.27-.13.63-.71.17-.1.63-.72.1-.1.73-.74.11-.1,1.48-.69.19-.18,3-.6.18L158,17.84h-.69a15,15,0,0,1,0-3.84l.57-.19.19-2.34.65-.14.13-1.49.7-.17.09-.73.64-.15.14-.63L161.2,8l.12-.64.65-.11.13-.73.7-.09.14-.71,1.48-.13.12-.68.75-.14.16-.62L168.5,4l.15-.65c2.65-.09,5.28-.08,7.94,0l.17.62,2.22.24.15.61,1.51.22.16.59.75.12.12.71,1.41.13.13.69,1.36.16.22.72.75.12.15.6.59.13.15.78.67.18.25,1.38.64.09.09.75.71.14.13,1.42.68.15.16,1.49.64.12.17,2.26.63.19.15,4.71.65.18v.65l-.63.17-.18,4.7-.65.19-.19,2.21-.61.17-.13,1.56-.68.11L188.82,34l-.74.18-.1.61-.7.15-.11.72-.63.21-.14.61-.67.11-.14.7-.72.13-.11.67-.71.14-.14.63-.7.13-.15.67-.7.13-.14.7-1.4.15-.11.69-.72.13-.13.73-.71.05h-.68l-.19.64-1.51.22-.17.64-2.23.1-.15.75h-4l-.22.69a11.77,11.77,0,0,1-1.21.14l-4.58.06-.45,0-.2.61-.62,0-.2-.65c-.19,0-.4,0-.61,0-1.71,0-3.42,0-5.13,0-.45,0-.9-.08-1.37-.12l-.16-.64-4.57-.09-.22-.73-2.66-.08-.18-.64-2.7-.22-.16-.61-2.32-.19-.17-.62-2.22-.25-.16-.62-1.42-.11-.13-.7-.79-.1-.18-.66-1.74-.2-.16-.61-1.17-.21-.16-.6L133,37.32l-.13-.7-1.52-.12-.12-.7-1.4-.15-.16-.68-.78-.1-.18-.64L127.31,34l-.16-.62-.72-.12-.13-.68-1.42-.13-.13-.73-1.49-.1-.14-.73-.73-.1-.12-.61-1.39-.26-.15-.59L120,29.2l-.11-.66-1.39-.26-.16-.6-.79-.09-.15-.72L116,26.7l-.12-.67-.74-.1-.14-.62L113.62,25l-.16-.59-.75-.14-.11-.68-1.5-.11L111,22.8l-.74-.09-.13-.64-1.41-.23-.13-.59L107.06,21l-.14-.59-.73-.11-.13-.72-1.44-.1-.11-.72-.76-.1-.09-.62-1.49-.23-.16-.62-1.41-.24-.13-.61-.75-.1-.1-.66-1.38-.29-.17-.59-.8-.08L97.08,14,95,13.72l-.18-.59L94,13l-.1-.65-1.49-.14-.18-.69-1.41-.12-.14-.73-1.49-.08L89,9.89l-1.42-.21-.15-.61-1.39-.22-.17-.6-1.53-.13-.13-.7-1.53-.1-.17-.67-2.2-.2-.15-.64-2.33-.17L77.68,5l-3-.2-.2-.66-2.31-.1L72,3.34h-.63c-.89,0-1.79,0-2.68,0-.68,0-1.37-.09-2.1-.13l-.17-.66-7.11-.08-.17-.64h-.66l-.17.6H56.88l-.18-.6h-2l-.21.63c-1.08,0-2.19,0-3.29.06H47.92l-.08.81ZM33.29,32.43a6.72,6.72,0,0,0,2.21-.15l.19-.67H38l.13-.74.74-.13.09-.69.73-.12.09-.68.66-.15.23-1.41.6-.13.24-1.42L42,26a44.52,44.52,0,0,0,0-8.08l-.64-.17-.24-2.2-.61-.09-.12-.78-.68-.12-.13-1.42L38.92,13l-.1-.7-.73-.11L38,11.48l-.71-.11-.11-.72-.73-.11-.13-.62L34.89,9.7l-.12-.65h-2.2l-.15.67-.74.1-.13.66-.78.15L31,12l1.42.25.13.69.65.18c-.06.58.25.8.79.8l.17,1.44.7.11a31,31,0,0,1,0,4l-.72.09-.13.76c-1.6.06-3.17.07-4.75,0l-.18-.7-1.38-.28-.15-.59-.77-.1L26.67,18H26a52.83,52.83,0,0,0,0,7.12l.63.19.2,2.18.69.15.07.75.68.11.14.73.6.13c0,.58.28.82.81.82l.15.6.73.11.15.78h2.21ZM8.23,9.89l-.15.64-.7.12-.09.71-.73.12-.1.69-.66.18c.13.47-.31.89-.06,1.35H6.4L6.51,13l.74-.15.08-.62L8.79,12l.15-.62,1.5-.18.15-.71h2.25l.21-.82h2.3l.2-.68,5.08-.12c1,0,2,0,3,0,.2,0,.41,0,.61-.05l.12-.7L25.06,8c-.06-.75.18-1.46.05-2.24-2.45,0-4.84,0-7.22.11l-.17.63-2.9.17-.24.75H12.3l-.13.75-1.54.11-.12.68-.74.14-.15.6Zm19.45,7.85,1.37.28.15.56a10.24,10.24,0,0,0,4.09,0l-.12-3.07-.62-.15L32.29,14l-.64-.18-.11-.66L30.82,13l-.14-.71H29.31l-.14.68-.68.15-.14.66-.7.08-.11,1.53-.74.12,0,.68.57.18Zm-.85-8.06H29l.29-1.42L30,8.09V7.4l-.82-.12-.14-.69h-.57l-.16.57-.7.15-.1.8-.7.13Zm-.78,1.76,0,.62h.64l0-.62Z"/><path d="M47.84,3.3c4.53-.07,9-.07,13.6,0l.21.67,5.53.14.18.65,3.9.18.14.67,3.06.11.16.72,2.34.1.14.73,1.49.08L78.8,8l2.11.21.15.61,1.53.21.13.62,1.54.11.13.7,1.44.12.13.72,1.49.13.14.62L89,12.3l.16.59,1.49.23.16.6.74.13.12.68,1.47.13.17.72,1.4.12.15.71.74.09.11.64.74.14.12.67,1.47.13.16.71,1.41.15.12.68.77.1.11.64,1.42.22.14.63.73.13.11.64,1.36.27.19.62.74.11.17.7.68.08.18.67,1.41.19.14.64.69.14.14.66,1.4.24.15.6.73.09.12.75,1.49.09.13.72.73.11.14.62,1.41.23.15.62.72.1.11.71,1.49.12.15.72,1.42.13.12.69,1.41.16.17.66.82.12.13.62,1.42.22.13.64,1.48.15.16.67.73.09.16.66,2.2.23.11.68.72.12.16.6,2.21.24.15.63,1.51.09.16.69,2.26.22v.66a13.24,13.24,0,0,1-3.77-.13l-.22-.62H129l-.2-.73-2.2-.19-.16-.61-1.6-.18-.18-.61-2.1-.25-.17-.62-1.52-.12-.12-.71-1.53-.1-.14-.72-1.43-.13-.14-.68-.78-.11-.19-.63-1.41-.15-.13-.69-1.46-.12-.18-.71-1.41-.15-.12-.68-.74-.1-.14-.64L109.51,30l-.12-.61-.75-.15-.11-.67-1.45-.15-.17-.69-.74-.09L106,27l-1.4-.24-.14-.62-.73-.12-.11-.68-1.47-.15-.15-.69-.71-.11-.15-.72-1.41-.12-.13-.7-.74-.09-.13-.65-1.43-.19-.13-.66L95.73,21l-.14-.6-.71-.12-.14-.69-.73-.1-.13-.66-1.45-.18-.09-.7-.72-.11-.14-.62L90,17l-.14-.6-1.41-.25-.15-.6-1.41-.14-.17-.68L86,14.6,85.78,14l-1.42-.19-.14-.64-1.5-.19-.13-.6-1.4-.26-.16-.6-1.53-.13-.12-.7L78,10.52l-.16-.65-1.54-.15-.13-.65-1.5-.19-.17-.63-2.24-.13-.11-.7-1.57-.09-.15-.7-3-.16L67.2,5.8l-3.07-.17L64,5l-4.71-.2-.17-.63H50.31l-.17.64c-1.56,0-3.11.22-4.72.08V4.11L47.8,4l.05-.69Z"/><path d="M89.83,22.9l.14.59.74.12v.71l-1.49.14v1.48c-.6.27-1.08-.07-1.61,0l-.13-.63H86.09l-.18.62h-.85A21.77,21.77,0,0,1,85.19,22h.71l.16.58h.55l.11-.68.73-.12.15-.6h.71l.13,1.39Z"/><path d="M16.32,32.55h.55l.19.65,2.34.12.13-.79.71,0L20.39,34l.66.14.15.66.69.13.07.83h-1.6v1.52c-.55.38-1,0-1.5,0l-.2-.65H16.29l0-.79.62-.13a2,2,0,0,0,0-1.4l-.57-.12A3.83,3.83,0,0,1,16.32,32.55Z"/><path d="M48.58,8.05l.12-.68h.74l.16,1.44.61.11a4.65,4.65,0,0,1,0,2.4,5.78,5.78,0,0,1-2.27,0l-.14-.7h-.68l-.13.71-.69,0a31.17,31.17,0,0,1-.17-3.23Z"/><path d="M163.77,9.06h.69v.61h-.69Z"/></g></g></svg>