<svg xmlns="http://www.w3.org/2000/svg" viewBox="0 0 438.17 60.02"><defs><style>.cls-1{fill:#d79f2e;}</style></defs><title>VemosIntro4</title><g id="Layer_2" data-name="Layer 2"><g id="ornamentos"><path class="cls-1" d="M155,56.36l5.41,0c.45,0,.91,0,1.38.07l.31.75,1.29-.17.37-.55c.33,0,.68-.08,1-.08l6.38,0h18c3.85,0,7.7,0,11.55,0a13.38,13.38,0,0,0,2.62-.25,5.19,5.19,0,0,1,1.31-.44c1.67-.05,3.34,0,5,0l.48.58h1l.63-.52h4.54c1,0,2,0,3,0,.55,0,1.16-.06,1.51.55h1.84l.54-.51c8.26-.13,16.63-.11,25,0l.41.6h3.59l.3-.61h1.25l.4.56c.33,0,.7.09,1.07.09,2.24,0,4.47-.06,6.7-.06,2.59,0,5.17.05,7.76.07l9.46,0h1a6.48,6.48,0,0,1,0,2.28h-1l-1.05,0-.24.76H264l-.49-.69-.53.7h-5.1l-.51-.71-.54.64h-.48l-.44-1.47-.84.75-4.16.21-.34.51h-1.14l-.28-.65H246.3l-.3.68h-1.24l-.36-.52a11.67,11.67,0,0,0-4.17,0l-.4.59H233.4l-.88-.95-.11.09L232,57.26l-1.13-.07c-.18.3-.32.54-.48.77s-.35.43-.61.74h-1.24l-.25.68h-4.47l-.29-.57-1.19-.21-.39.74-.4,0-.19-1.19c-1-.42-1.33-.42-2.88-.07l-.4,1.3H209.2l-.35-.47a6,6,0,0,0-3.42,0l-.35.57h-3.64l-.37-.6H200c-.24.22-.29.72-.84.49l-.47-.59-.55.68h-3.66l-.35-.58h-1.73l-.39.56h-1.35l-.17-1.32-.41-.05-.9.76-.08-.07-.25.67c-4,.19-8,.05-11.93.05-.37-.63-.37-.63-.89-.7,0,.12-.06.24-.1.36s0,.2-.08.35h-2.19l-.39.59h-1.1l-.36-.56h-3.5l-.19-.6-.93-.86h-.44l-.25.58-.53.19-.15.67h-7.66l-.27-.67L156,58.63l-.29.72-.66.08Z"/><path class="cls-1" d="M155,44.85h12l.49-.7c1.77,0,3.57,0,5.37,0,1.24,0,2.47-.09,3.71-.09,1.53,0,3.06.07,4.6.08,1.34,0,2.68,0,4,0,.32,0,.64,0,1,0,1.8,0,3.6.09,5.39.08,2,0,3.92-.08,5.89-.1,1.69,0,3.39,0,5.08,0,2,0,4,0,6,0l11.07,0,14.86,0L248,44l14.38,0c1.93,0,3.87,0,5.81,0,.53,0,1.06.1,1.57.14l.45.65h2.08l.67.9.44-.84h5.17l.32.53,1.25.38c-.07.16-.11.39-.22.42a2.58,2.58,0,0,1-1,.24c-2,0-4-.13-6.05-.21a1.76,1.76,0,0,1-.27-.05l-.37-.53c-3.79,0-7.58.06-11.38,0s-7.58.14-11.29-.12c-.39-.56-.39-.56-.89-.61l-.24.61h-.62l-.32-.7-.69.61h-2l-.39-.52H243.2l-.47.54h-1.68l-.52-.56H210.78l-.32.49c-.54.25-.6-.26-.84-.47h-1.81l-.74.62-.56-.64H200l-.43.57a2.15,2.15,0,0,1-.7-.24,1.69,1.69,0,0,0-1.13-.33h-3l-.46.54H193l-.35-.51-1.26-.1-.38.57c-.13,0-.26.06-.39.07-1.7,0-3.39,0-5.08.06s-3.44.05-5.16.06c-2,0-4,0-6.05,0-.64,0-1.28,0-1.92,0l-7-.1c-.69,0-1.39,0-2.09,0l-1.69,0-6.7,0Z"/><path class="cls-1" d="M0,12.36l5.41,0c.45,0,.91.05,1.38.07l.31.75L8.39,13l.37-.55c.33,0,.68-.08,1-.08l6.38,0h18c3.85,0,7.7,0,11.55,0A13.38,13.38,0,0,0,48.37,12a5.19,5.19,0,0,1,1.31-.44c1.67,0,3.34,0,5,0l.48.58h1l.63-.52h4.54c1,0,2-.05,3,0,.55,0,1.16-.06,1.51.55h1.84l.54-.51c8.26-.13,16.63-.11,25,0l.41.6h3.59l.3-.61h1.25l.4.56c.33,0,.7.09,1.07.09,2.24,0,4.47-.06,6.7-.06,2.59,0,5.17,0,7.76.07l9.46,0h1a6.48,6.48,0,0,1,0,2.28h-1l-1,.05-.24.76H109l-.49-.69-.53.7h-5.1l-.51-.71-.54.64h-.48l-.44-1.47-.84.75-4.16.21-.34.51H94.42l-.28-.65H91.3l-.3.68H89.76l-.36-.52a11.67,11.67,0,0,0-4.17,0l-.4.59H78.4l-.88-1-.11.09L77,13.26l-1.13-.07c-.18.3-.32.54-.48.77s-.35.43-.61.74H73.54l-.25.68H68.82l-.29-.57-1.19-.21-.39.74-.4,0-.19-1.19c-1-.42-1.33-.42-2.88-.07l-.4,1.3H54.2l-.35-.47a6,6,0,0,0-3.42,0l-.35.57H46.44l-.37-.6H45c-.24.22-.29.72-.84.49l-.47-.59-.55.68H39.46l-.35-.58H37.38l-.39.56H35.64l-.17-1.32L35.06,14l-.9.76-.08-.07-.25.67c-4,.19-8,.05-11.93.05-.37-.63-.37-.63-.89-.7,0,.12-.06.24-.1.36s-.05.2-.08.35H18.64l-.39.59h-1.1l-.36-.56h-3.5l-.19-.6L12.17,14h-.44l-.25.58-.53.19-.15.67H3.14l-.27-.67L1,14.63l-.29.72L0,15.43Z"/><path class="cls-1" d="M30,.85H42l.49-.7c1.77,0,3.57,0,5.37,0,1.24,0,2.47-.09,3.71-.09,1.53,0,3.06.07,4.6.08,1.34,0,2.68,0,4,0,.32,0,.64,0,1,0,1.8,0,3.6.09,5.39.08,2,0,3.92-.08,5.89-.1,1.69,0,3.39,0,5.08,0,2,0,4,0,6,0L94.6,0l14.86,0L123,0l14.38,0c1.93,0,3.87,0,5.81,0,.53,0,1.06.1,1.57.14l.45.65h2.08l.67.9.44-.84h5.17l.32.53,1.25.38c-.07.16-.11.39-.22.42a2.58,2.58,0,0,1-1,.24c-2,0-4-.13-6.05-.21a1.76,1.76,0,0,1-.27,0l-.37-.53c-3.79,0-7.58.06-11.38,0s-7.58.14-11.29-.12c-.39-.56-.39-.56-.89-.61l-.24.61h-.62l-.32-.7-.69.61h-2l-.39-.52H118.2l-.47.54h-1.68l-.52-.56H85.78l-.32.49c-.54.25-.6-.26-.84-.47H82.81l-.74.62L81.51.92H75l-.43.57a2.15,2.15,0,0,1-.7-.24A1.69,1.69,0,0,0,72.71.92c-1,0-2,0-3,0l-.46.54H68L67.67,1,66.41.85,66,1.42c-.13,0-.26.06-.39.07-1.7,0-3.39,0-5.08.06s-3.44.05-5.16.06c-2,0-4,0-6,0-.64,0-1.28,0-1.92,0l-7-.1c-.69,0-1.39,0-2.09,0l-1.69.05-6.7,0Z"/><path class="cls-1" d="M119,12.36l5.41,0c.45,0,.91.05,1.38.07l.31.75,1.29-.17.37-.55c.33,0,.68-.08,1-.08l6.38,0h18c3.85,0,7.7,0,11.55,0a13.38,13.38,0,0,0,2.62-.25,5.19,5.19,0,0,1,1.31-.44c1.67,0,3.34,0,5,0l.48.58h1l.63-.52h4.54c1,0,2-.05,3,0,.55,0,1.16-.06,1.51.55h1.84l.54-.51c8.26-.13,16.63-.11,25,0l.41.6h3.59l.3-.61h1.25l.4.56c.33,0,.7.09,1.07.09,2.24,0,4.47-.06,6.7-.06,2.59,0,5.17,0,7.76.07l9.46,0h1a6.48,6.48,0,0,1,0,2.28h-1l-1.05.05-.24.76H228l-.49-.69-.53.7h-5.1l-.51-.71-.54.64h-.48l-.44-1.47-.84.75-4.16.21-.34.51h-1.14l-.28-.65H210.3l-.3.68h-1.24l-.36-.52a11.67,11.67,0,0,0-4.17,0l-.4.59H197.4l-.88-1-.11.09L196,13.26l-1.13-.07c-.18.3-.32.54-.48.77s-.35.43-.61.74h-1.24l-.25.68h-4.47l-.29-.57-1.19-.21-.39.74-.4,0-.19-1.19c-1-.42-1.33-.42-2.88-.07l-.4,1.3H173.2l-.35-.47a6,6,0,0,0-3.42,0l-.35.57h-3.64l-.37-.6H164c-.24.22-.29.72-.84.49l-.47-.59-.55.68h-3.66l-.35-.58h-1.73l-.39.56h-1.35l-.17-1.32-.41-.05-.9.76-.08-.07-.25.67c-4,.19-8,.05-11.93.05-.37-.63-.37-.63-.89-.7,0,.12-.06.24-.1.36s0,.2-.08.35h-2.19l-.39.59h-1.1l-.36-.56h-3.5l-.19-.6-.93-.86h-.44l-.25.58-.53.19-.15.67h-7.66l-.27-.67L120,14.63l-.29.72-.66.08Z"/><path class="cls-1" d="M119,.85h12l.49-.7c1.77,0,3.57,0,5.37,0,1.24,0,2.47-.09,3.71-.09,1.53,0,3.06.07,4.6.08,1.34,0,2.68,0,4,0,.32,0,.64,0,1,0,1.8,0,3.6.09,5.39.08,2,0,3.92-.08,5.89-.1,1.69,0,3.39,0,5.08,0,2,0,4,0,6,0L183.6,0l14.86,0L212,0l14.38,0c1.93,0,3.87,0,5.81,0,.53,0,1.06.1,1.57.14l.45.65h2.08l.67.9.44-.84h5.17l.32.53,1.25.38c-.07.16-.11.39-.22.42a2.58,2.58,0,0,1-1,.24c-2,0-4-.13-6.05-.21a1.76,1.76,0,0,1-.27,0l-.37-.53c-3.79,0-7.58.06-11.38,0s-7.58.14-11.29-.12c-.39-.56-.39-.56-.89-.61l-.24.61h-.62l-.32-.7-.69.61h-2l-.39-.52H207.2l-.47.54h-1.68l-.52-.56H174.78l-.32.49c-.54.25-.6-.26-.84-.47h-1.81l-.74.62-.56-.64H164l-.43.57a2.15,2.15,0,0,1-.7-.24,1.69,1.69,0,0,0-1.13-.33c-1,0-2,0-3,0l-.46.54H157L156.67,1l-1.26-.1-.38.57c-.13,0-.26.06-.39.07-1.7,0-3.39,0-5.08.06s-3.44.05-5.16.06c-2,0-4,0-6.05,0-.64,0-1.28,0-1.92,0l-7-.1c-.69,0-1.39,0-2.09,0l-1.69.05-6.7,0Z"/><path class="cls-1" d="M239,12.36l5.41,0c.45,0,.91.05,1.38.07l.31.75,1.29-.17.37-.55c.33,0,.68-.08,1-.08l6.38,0h18c3.85,0,7.7,0,11.55,0a13.38,13.38,0,0,0,2.62-.25,5.19,5.19,0,0,1,1.31-.44c1.67,0,3.34,0,5,0l.48.58h1l.63-.52h4.54c1,0,2-.05,3,0,.55,0,1.16-.06,1.51.55h1.84l.54-.51c8.26-.13,16.63-.11,25,0l.41.6h3.59l.3-.61h1.25l.4.56c.33,0,.7.09,1.07.09,2.24,0,4.47-.06,6.7-.06,2.59,0,5.17,0,7.76.07l9.46,0h1a6.48,6.48,0,0,1,0,2.28h-1l-1.05.05-.24.76H348l-.49-.69-.53.7h-5.1l-.51-.71-.54.64h-.48l-.44-1.47-.84.75-4.16.21-.34.51h-1.14l-.28-.65H330.3l-.3.68h-1.24l-.36-.52a11.67,11.67,0,0,0-4.17,0l-.4.59H317.4l-.88-1-.11.09L316,13.26l-1.13-.07c-.18.3-.32.54-.48.77s-.35.43-.61.74h-1.24l-.25.68h-4.47l-.29-.57-1.19-.21-.39.74-.4,0-.19-1.19c-1-.42-1.33-.42-2.88-.07l-.4,1.3H293.2l-.35-.47a6,6,0,0,0-3.42,0l-.35.57h-3.64l-.37-.6H284c-.24.22-.29.72-.84.49l-.47-.59-.55.68h-3.66l-.35-.58h-1.73l-.39.56h-1.35l-.17-1.32-.41-.05-.9.76-.08-.07-.25.67c-4,.19-8,.05-11.93.05-.37-.63-.37-.63-.89-.7,0,.12-.06.24-.1.36s-.05.2-.08.35h-2.19l-.39.59h-1.1l-.36-.56h-3.5l-.19-.6-.93-.86h-.44l-.25.58-.53.19-.15.67h-7.66l-.27-.67L240,14.63l-.29.72-.66.08Z"/><path class="cls-1" d="M239,.85h12l.49-.7c1.77,0,3.57,0,5.37,0,1.24,0,2.47-.09,3.71-.09,1.53,0,3.06.07,4.6.08,1.34,0,2.68,0,4,0,.32,0,.64,0,1,0,1.8,0,3.6.09,5.39.08,2,0,3.92-.08,5.89-.1,1.69,0,3.39,0,5.08,0,2,0,4,0,6,0,3.69,0,7.38,0,11.07,0l14.86,0L332,0l14.38,0c1.93,0,3.87,0,5.81,0,.53,0,1.06.1,1.57.14l.45.65h2.08l.67.9.44-.84h5.17l.32.53,1.25.38c-.07.16-.11.39-.22.42a2.58,2.58,0,0,1-1,.24c-2,0-4-.13-6.05-.21a1.76,1.76,0,0,1-.27,0l-.37-.53c-3.79,0-7.58.06-11.38,0s-7.58.14-11.29-.12c-.39-.56-.39-.56-.89-.61l-.24.61h-.62l-.32-.7-.69.61h-2l-.39-.52H327.2l-.47.54h-1.68l-.52-.56H294.78l-.32.49c-.54.25-.6-.26-.84-.47h-1.81l-.74.62-.56-.64H284l-.43.57a2.15,2.15,0,0,1-.7-.24,1.69,1.69,0,0,0-1.13-.33c-1,0-2,0-3,0l-.46.54H277L276.67,1l-1.26-.1-.38.57c-.13,0-.26.06-.39.07-1.7,0-3.39,0-5.08.06s-3.44.05-5.16.06c-2,0-4,0-6,0-.64,0-1.28,0-1.92,0l-7-.1c-.69,0-1.39,0-2.09,0l-1.69.05-6.7,0Z"/><path class="cls-1" d="M313,12.36l5.41,0c.45,0,.91.05,1.38.07l.31.75,1.29-.17.37-.55c.33,0,.68-.08,1-.08l6.38,0h18c3.85,0,7.7,0,11.55,0a13.38,13.38,0,0,0,2.62-.25,5.19,5.19,0,0,1,1.31-.44c1.67,0,3.34,0,5,0l.48.58h1l.63-.52h4.54c1,0,2-.05,3,0,.55,0,1.16-.06,1.51.55h1.84l.54-.51c8.26-.13,16.63-.11,25,0l.41.6h3.59l.3-.61h1.25l.4.56c.33,0,.7.09,1.07.09,2.24,0,4.47-.06,6.7-.06,2.59,0,5.17,0,7.76.07l9.46,0h1a6.48,6.48,0,0,1,0,2.28h-1l-1.05.05-.24.76H422l-.49-.69-.53.7h-5.1l-.51-.71-.54.64h-.48l-.44-1.47-.84.75-4.16.21-.34.51h-1.14l-.28-.65H404.3l-.3.68h-1.24l-.36-.52a11.67,11.67,0,0,0-4.17,0l-.4.59H391.4l-.88-1-.11.09L390,13.26l-1.13-.07c-.18.3-.32.54-.48.77s-.35.43-.61.74h-1.24l-.25.68h-4.47l-.29-.57-1.19-.21-.39.74-.4,0-.19-1.19c-1-.42-1.33-.42-2.88-.07l-.4,1.3H367.2l-.35-.47a6,6,0,0,0-3.42,0l-.35.57h-3.64l-.37-.6H358c-.24.22-.29.72-.84.49l-.47-.59-.55.68h-3.66l-.35-.58h-1.73l-.39.56h-1.35l-.17-1.32-.41-.05-.9.76-.08-.07-.25.67c-4,.19-8,.05-11.93.05-.37-.63-.37-.63-.89-.7,0,.12-.06.24-.1.36s-.05.2-.08.35h-2.19l-.39.59h-1.1l-.36-.56h-3.5l-.19-.6-.93-.86h-.44l-.25.58-.53.19-.15.67h-7.66l-.27-.67L314,14.63l-.29.72-.66.08Z"/><path class="cls-1" d="M293,.85h12l.49-.7c1.77,0,3.57,0,5.37,0,1.24,0,2.47-.09,3.71-.09,1.53,0,3.06.07,4.6.08,1.34,0,2.68,0,4,0,.32,0,.64,0,1,0,1.8,0,3.6.09,5.39.08,2,0,3.92-.08,5.89-.1,1.69,0,3.39,0,5.08,0,2,0,4,0,6,0,3.69,0,7.38,0,11.07,0l14.86,0L386,0l14.38,0c1.93,0,3.87,0,5.81,0,.53,0,1.06.1,1.57.14l.45.65h2.08l.67.9.44-.84h5.17l.32.53,1.25.38c-.07.16-.11.39-.22.42a2.58,2.58,0,0,1-1,.24c-2,0-4-.13-6.05-.21a1.76,1.76,0,0,1-.27,0l-.37-.53c-3.79,0-7.58.06-11.38,0s-7.58.14-11.29-.12c-.39-.56-.39-.56-.89-.61l-.24.61h-.62l-.32-.7-.69.61h-2l-.39-.52H381.2l-.47.54h-1.68l-.52-.56H348.78l-.32.49c-.54.25-.6-.26-.84-.47h-1.81l-.74.62-.56-.64H338l-.43.57a2.15,2.15,0,0,1-.7-.24,1.69,1.69,0,0,0-1.13-.33c-1,0-2,0-3,0l-.46.54H331L330.67,1l-1.26-.1-.38.57c-.13,0-.26.06-.39.07-1.7,0-3.39,0-5.08.06s-3.44.05-5.16.06c-2,0-4,0-6,0-.64,0-1.28,0-1.92,0l-6.95-.1c-.69,0-1.39,0-2.09,0l-1.69.05-6.7,0Z"/></g></g></svg>