<svg xmlns="http://www.w3.org/2000/svg" viewBox="0 0 188.14 39.33"><title>VemosFinCabeza</title><g id="Layer_2" data-name="Layer 2"><g id="ornamentos"><path d="M18.45,25.24V35.62a17,17,0,0,1-2.83,3.71c-3.56-1.32-.34-4.73-1.7-6.82L9.53,28.13,1.81,31.68C-.86,28.84,0,26.23.87,23.26l6.87-.66c.31-1.13.64-2.38,1-3.62C5.26,17.5,2.07,16,.09,12.83c0-3.21,0-3.21,4-4L7.13,11.6c2.1-.13,4.42.61,6.8-.69L11.31,6.55C10.88,3.64,13.67,2.84,15,1c2.37.32,4.9,3.9,4.9,3.9v5.46l2.59,1.46,5.34-2.95c3.13-.19,3.86,2.63,5.73,3.83-1.11,4.09-5.51,3.75-8,6v2.75s6.62,2.2,8.07,5.94c-3.09,3.06-3.07,3-7,1.18-1.16-.55-2.5-.71-3.7-1.21C22.1,27,18.45,25.24,18.45,25.24Z"/><path d="M76.16,28.67l-.59-3.75c2.51-2.48,6.8-2.58,8.51-6.19-1.73-3.09-4.93-4.17-7.76-5.73l-.67-3c1.92-2.5,4.57-.89,6.92-1.4l3.09,2.88h2.82c3.39-3,0-7.33,2.24-11L94.18,0C97.46,3.27,94,7.59,96.9,11.52c3.92.41,7.48-5,12.56-2.13.16,1,.39,2.26.59,3.42L106,16.9l-4,.84c.56,5,5.17,4.4,8,6.53-.12,1.17-.26,2.46-.42,4.06h-7l-2.9-2.9-2.07,5L96,29.31c-.21,2.26-.42,4.52-.66,7.16l-3.48,1c-3.67-2-.84-5.45-2.64-8-.09-.09-.42-.71-.76-.72C84.65,28.64,80.83,28.67,76.16,28.67Z"/><path d="M158.59,20.11l4.16-.84c-1.82-3.71-4.12-6.14-8.21-5.26.2-3.28-.55-5.6.68-7.83L164.67,11l3.59-3.41c.23-2.13.47-4.34.75-6.88L172.7.17c2.56,2,.91,4.52,1.71,6.59L171.56,10c1.45,2.64,4,1,7.19,1.75l4.36-6.61,4.67,4.4c-1.5,5.54-8.95,3.85-10.36,9.39l10.47,4.75c.07,1,.17,2.28.25,3.36-2.08,2.45-4.65.5-6.55,1.49l-3.23-3h-2.79c-3.25,3,.08,7.23-2.22,10.78l-3.69.45c-2.56-4.32.33-9.25-1.83-13.42l-3-.77-6.55,5.92c-2.75-1.08-2.75-1.08-3.72-3.36C155,22.61,157.46,21.71,158.59,20.11Z"/></g></g></svg>