<svg xmlns="http://www.w3.org/2000/svg" viewBox="0 0 2396.35 63.81"><defs><style>.cls-1{fill:#d79f2e;}</style></defs><title>VemosBarraFin</title><g id="Layer_2" data-name="Layer 2"><g id="ornamentos"><path class="cls-1" d="M.28,36.92l0-8.34a33.29,33.29,0,0,1,6-1.26c5.64-.21,11.33-.18,17-.17q112.68.17,225.35.33c4.66,0,9.31-.42,14-.58,3.28-.11,6.58-.17,9.88-.16q107,.14,214,.31,60.22.11,120.45.29c16.3,0,32.59-.12,48.83-.77.94,0,1.89-.07,2.83,0,7,.24,14,.77,20.92.66s13.74-.84,21-.22c4.87.43,10.19-.31,15.3-.3q160.86.22,321.72.49c10.31,0,20.73.7,30.94-.63a30.86,30.86,0,0,1,5.52.26,36.93,36.93,0,0,0,5.55.35c9.54-1,19.27.64,28.87-.51,4-.48,8.45-.14,12.7-.13l141.73.29q124.7.26,249.39.51,114.8.27,229.59.6c39.68.1,79.35.09,119,.29,7.94,0,15.77-.45,23.74-.38,6.34.06,12.87.83,19.28-.33,1.87-.33,4.57.23,6.88.39a31.61,31.61,0,0,0,5.55.31c10.21-1.39,20.65-.64,30.94-.63q80.08,0,160.16.36l6.1,0,7.27,3-4.78,1.66c-5.35.11-10.29-1-15.55-.09-2.3.39-5.46-.26-8.24-.39s-6-.63-8.35-.21c-6.53,1.19-13,.43-19.37.16-5.68-.24-11.16-.16-16.77,0-7.47.26-15,.34-22.49.34-21.26,0-42.54.21-63.77-.22-19.2-.39-38.34.19-57.51,0C1884,32,1864.2,32,1844.36,32q-29.05-.06-58.11-.06t-58.11-.16l-162.93-.41c-7.89,0-15.74-.41-23.67-.14-7.51.26-15.11.08-22.66.07q-12,0-24.09,0c-8,0-16.06-.08-24.09-.1-7.56,0-15.12,0-22.68,0-8,0-16.06-.06-24.09-.08q-85.73-.25-171.44-.5-72.93-.16-145.86-.18c-3.73,0-7.55.57-11.16.34a35.84,35.84,0,0,0-9.52.33,15.79,15.79,0,0,1-4.19.09c-11-1.15-22.21.42-33.22-.56-10.73.92-21.57.38-32.36.37q-103.45-.09-206.91-.25c-35.9-.06-71.81-.51-107.68-.18-15.2.14-30.45.06-45.72.55-20.66.67-41.56.32-62.32-.1-7.53-.15-14.84.38-22.3.28-17-.22-34-.09-51-.15-5.64,0-11.41.07-16.89-.41-5.64-.49-10.77.62-16.31.33s-11.31,0-17,0-11.34,0-17,0q-52.44-.09-104.88-.16c-5.15,0-10.29.3-15.4.48-7.81.27-15.78.29-23.7.28Q178,31.37,46.87,31.2c-11.81,0-23.62-.06-35.43,0a48.31,48.31,0,0,0-4.9.46C6.26,33.08,8,33.39,10,33.4q21.24.1,42.5.13,90,.15,180,.27c7.52,0,15,.16,22.53-.6,4.5-.45,9.41-.16,14.13-.15q89.28.16,178.57.35,85,.14,170,.2c5.14,0,10.31-.59,15.42-.45,5.51.14,11-.72,16.55.15a35.59,35.59,0,0,0,9.5.15c8.3-1.19,16.68-.22,25-.39,9.27-.19,18.64-.22,28-.1S731,33,740.46,33l28.35,0q14.18,0,28.35,0,73.67.13,147.33.28c31.18.05,62.35,0,93.52.13,12.19.07,24.37-.2,36.56,0,5.51.08,10.94-1.25,16.58-.27,5.2-1,10.16.2,15.22.32,4.62.1,9.38-.82,13.94-.62,9.87.43,19.65-.2,29.49,0,9.43.16,18.89.1,28.34.11l184.2.35q113.36.24,226.7.5l259.35.62c22.67,0,45.35.14,68,.12,6.09,0,12.34-.84,18.2-.41,5.68.41,11.27.5,16.87.45,15.53-.11,31-.55,46.57-.61,19.37-.08,38.75.21,58.11.06,5.15,0,10.05.93,15.27.32a51.41,51.41,0,0,1,13.91.44c8.33-1.11,16.89-.46,25.34-.55,2.31,0,4.63.2,6.88.31a13.52,13.52,0,0,1,2.49,1.65c.26.29-.4.74-.74,1.26a25.66,25.66,0,0,1-3.72.52q-32.6,0-65.2-.1l-238.08-.54c-9.85,0-19.69.13-29.55,0-8.77-.14-17.55.63-26.35.09-8.41-.52-16.85.3-25.29-.25-5.49-.36-10.84.73-16.67.12a100.6,100.6,0,0,0-16.65,0c-4.82.32-9.39-.75-14-.19-4.17.51-8.18,1-12.4.19-5.44,1.37-11-.76-16.56.13-5.06.8-10.23.24-15.33-.16-10.16,1.5-20.39-.34-30.65.08-9.74.4-19.61.2-29.41.21s-19.59-.31-29.42-.1-19.84,0-29.76,0l-31.18-.07-29.77-.08c-9.92,0-19.84,0-29.76-.07-5.11,0-10.27-.57-15.29-.36a125,125,0,0,1-14-.19c-4-.28-8.26.4-12.4.39q-64.48-.12-129-.32c-25-.05-50.07,0-75.1-.05q-90-.18-179.94-.34c-13.65,0-27.33-.51-41,.29-5,.29-10.27-.6-15.39-.52-8.8.13-17.65,0-26.39.79a46.23,46.23,0,0,1-9.84,0c-5.26-.71-10.43.58-15.26-.09-4.51-.62-9.32.69-13.44-.73-13.93,1.59-28.12.72-42.18.72-52.42,0-104.85-.15-157.28-.22q-53.13-.06-106.27,0c-3.28,0-6.63,0-9.83.32a155.63,155.63,0,0,1-25.27,0c-2.23-.17-4.57,0-6.86,0-22.56.1-45.12.29-67.68.28q-102.75,0-205.49-.19c-17.39,0-34.69.83-52.12.77q-94.24-.33-188.48-.3C14.6,37.39,8,37.46.28,36.92Z"/><path class="cls-1" d="M2116.57,40.47l3.1,1.81-3,1.61c-2.52.07-5.3.22-8.08.22q-127.55-.24-255.08-.52-167.94-.37-335.87-.79-90.71-.21-181.39-.34c-20,0-39.94-.05-59.9,0-7.37,0-14.78.77-22.17.21-6.91-.53-13.73.19-20.68,0-7.72-.23-15.63-.27-23.53.16s-16,.07-24.06.05l-24.09-.07q-12.06,0-24.1-.05-75.81-.09-151.63-.17-73.68-.11-147.35-.25c-14.5,0-29.1-.33-43.48,0-30.56.83-61.1.42-91.64.43q-94.95,0-189.91-.2c-23.07,0-46.16-.18-69.2.19-54.7.89-109.42.18-164.12.34-31.65.09-63.3-.1-95-.09-7,0-14.1-.2-21,.08s-13.89.1-20.76.57a46.28,46.28,0,0,1-5.65,0c-18.61-1-37.21.07-55.81-.11-18.89-.18-37.79,0-56.68-.06-6.14,0-12.28-.1-18.41-.17-3,0-5.46-.59-7.17-2.13l1.9-1.82c1.45-.16,2.3-.32,3.16-.33,11.51-.14,23-.08,34.52.35,5,.18,10-.56,15.11-.44,2.31.06,4.73-.12,6.89.14a31.42,31.42,0,0,0,9.68,0c5-.92,10.23.74,15.21-.27,11.69,1.3,23.33-.33,35,0s23.62.14,35.43.16l280.59.4c9.91,0,19.82.08,29.72.06,5.63,0,11.23.23,16.83-.6a60.6,60.6,0,0,1,9.85-.16c13.61.41,27.21,0,40.81.09s27.4.06,41.1.08l42.51,0,41.09,0q20.55,0,41.1,0t41.1.1q36.84.07,73.67.11c5.17,0,10.32-.26,15.48-.4a27.38,27.38,0,0,1,4.12-.09c7.47,1,14.9.69,22.35,0,12.94,1.41,25.81-.93,39,.11,8.55.68,17.65-.2,26.51-.18q161.55.23,323.09.48c7.52,0,15.09-.61,22.55-.37,7.08.23,14,.74,20.95-.22,7.83,1,15.58.22,23.43.07s15.86-.17,23.8-.16c6.93,0,13.71.87,20.74.51a137.71,137.71,0,0,1,17.92-.17c5.73.49,11,.06,16.52,0,5-.09,10.12.42,15.19.51,6.1.1,12.25.22,18.32,0,20.17-.71,40.31-.78,60.5,0,4.61.17,9.31-.34,14-.33q80.77.18,161.55.48c8,0,16.07-.7,23.91.57,22.54-1.32,45.19-.27,67.78-.4,23.13-.14,46.28,0,69.42.06q34,.06,68,.15t68,.1q76.53.2,153.06.43C2112.86,40.3,2114.27,40.39,2116.57,40.47Z"/><path class="cls-1" d="M2390.87,62.4c.14-20.72.28-41,.42-61.5,1.87-.28,3.48-1.52,4.71,0,0,3.43.11,6.48.1,9.54,0,8.89-.11,17.78-.07,26.67,0,4.64.36,9.28.31,13.92,0,3.94-.4,7.88-.65,12.29Z"/><path class="cls-1" d="M2374.9,63.81l-4.76-.93c-.59-20.66-.08-41.22,0-62.18l4.35,0c.16,4.27.4,8.31.42,12.36s-.21,8.3-.24,12.45c0,4.3,0,8.6.07,12.9s.12,8.33.15,12.49S2374.89,59.11,2374.9,63.81Z"/><path class="cls-1" d="M2380.45,1.1l4.46-1.1a26.66,26.66,0,0,1,.58,3.65c.12,11.41.24,22.82.26,34.24,0,5.9-.24,11.81-.28,17.71,0,2.13.25,4.26.41,6.71-1.39,2.38-3.19.75-4.77.32Z"/></g></g></svg>