<svg xmlns="http://www.w3.org/2000/svg" viewBox="0 0 27.94 1352.79"><defs><style>.cls-1{fill:#d79f2e;}</style></defs><title>VemosQuote1</title><g id="Layer_2" data-name="Layer 2"><g id="ornamentos"><path class="cls-1" d="M2.25,438.71v-2H3.9l2.91-1.44,3.73-3.75,1.22-2.85v-2.08l1.4-.19c.94,1,.31,2.11.49,3.13.29.65,1.3,1,.93,2l3.6,3.23h1.62l2.05,1.9h2.3l.2,1.91H20.15c-1.12.79-1.46,2.05-2.83,2.18a2.29,2.29,0,0,0-1.57,1.58c-.07,1.46-1.28,1.81-2,3l0,4.21-1.68.26a21.36,21.36,0,0,1-.24-4.43c-.27-.71-1.31-1-1-2-1.14-2.38-3.88-2.7-5.3-4.69Z"/><path class="cls-1" d="M8,392.55l-3-1.61H2.34l-.26-1.37c.76-1.16,2.12-.06,3-1a6.18,6.18,0,0,1,2.72-1.39,3.08,3.08,0,0,0,1.92-1.79l1.89-4V380L13,378.62c.53.24.53.24.56,2.82L15.87,386l1.19.24c.16.46.36,1,.57,1.6,2.12-.07,3.83,1.86,6.16,1l.3,1.57c-.32.19-.56.45-.82.48a13.64,13.64,0,0,0-2.75.28,10.55,10.55,0,0,0-2.63,1.65A11.75,11.75,0,0,0,14.51,397a6.08,6.08,0,0,1-.93,1.08v3l-1.78.34a32.73,32.73,0,0,1-.13-4c-.51-1-.83-1.67-1.32-2.64Z"/><path class="cls-1" d="M4.23,317.5l1-1h2l1.84-1.76,2.43-4.73c.13-.73-.54-1.87.4-2.77l1.36,1.35v2.7l1,1.06v.89L18,316.51h1.87l1.12.95H23.1l.39,1.14c-.65,1.25-2.08.22-2.65.84s-1.73.71-2.52,1.24c-1.24.83-3,1-3.2,2.92-.07.6-1.11,1.11-1.75,1.69v2.44l-1.38,2c-.95-1.34-.29-2.46-.73-3.57-1-.75-.94-2.33-2.21-3.15a18.66,18.66,0,0,1-2.66-2.5L3.77,319.4l-2.64-.13c-.17-1.08,1.05-1.06,1.07-1.76Z"/><path class="cls-1" d="M11.62,305.82c-.67-.74,0-1.9-.22-2.95a5.81,5.81,0,0,0-.6-.7c-.63-.51-.13-1.57-1-2-.7-.33.13-1.75-1.12-1.71a2.09,2.09,0,0,1-1.83-1.27c-.53-.81-1.49-.37-2-1a6.89,6.89,0,0,0-.7-.62c-1-.16-2.2.42-3.24-.42l1.27-1.37c1.41.25,2.64-.53,3.74-1.16.9-.52,2.07-.61,2.72-1.51a10.76,10.76,0,0,0,1.63-2.65c.26-.74.39-1.47,1.06-1.92.17-1.09-.27-2.21.33-3.25.84.12,1,1,1.6,1.28,0,.92,0,1.71,0,2.51a3.87,3.87,0,0,1,.41.78c.66,2,2.39,3.17,3.63,4.56l2.62,1.14h2.26L24,295c-1.34.88-2.47.42-3.07.49-1.83.95-3.3,1.64-4.71,2.44-1.57.89-1.84,2.76-2.89,4v2.8Z"/><path class="cls-1" d="M22.55,365.14c.45.48.9.93,1.35,1.38-.27.54-.27.54-2.92.57-.92.49-2.08.78-2.68,1.52-.82,1-2.51,1.06-2.78,2.06a6.77,6.77,0,0,1-2,2.62V376c-.51.6-.87,1.25-1.64,1.46-.69-1,0-2.18-.22-2.67L9.16,370H8.11c-.7-1.48-2.35-1.78-3.9-2.79-.11,0-.56-.05-1-.07s-.64,0-.95,0-.8-.24-1.28-.38l1.49-1.5h1.9s.69-.59,1-1h1.8c1.18-1.11,2.32-2.22,3.42-3.31V359c.26-.24.48-.47.71-.69.78-1.08-.37-2.51.69-3.58a8.5,8.5,0,0,1,1,1.33v2.45s1.86,1.26,1.23,2.5A24.88,24.88,0,0,1,17,363.54c.75.88,2.17.5,2.68,1.61Z"/><path class="cls-1" d="M4.67,248.78c-1,0-2.25,0-3.51,0-.12,0-.23-.2-.41-.37v-1.16c1.09-.62,2.21-.2,2.81-.29l2.73-1.38L10,241.94c.53-.89-.33-2.23,1-2.86l.45-2.51c.36,2.28,2.07,3.94,2.79,6.31l3.27,3.05h1.73l1,1h2.11c.08.5.17,1,.24,1.48-1.07.62-2,.28-3,.39-.86.82-2.23.75-3.06,1.69S15,252,14.25,252.75c0,1.22-1.16,2-1.24,3.24-.07,1.05-.82,2.06-1.29,3.16-1-1.07-.37-2.2-.55-3.22a35.37,35.37,0,0,1-2.28-4.19C8.05,250.25,6.34,249.67,4.67,248.78Z"/><path class="cls-1" d="M24,413.23c-.52,1.35-2.06-.09-2.68,1s-1.76.29-2.63.75l-3.86,3.87c-.36.82-.67,1.49-1.15,2.56,0,.6-.09,1.67-.15,2.81l-1.41.1c-.77-1.06-.24-2.2-.4-3.25l-1-1.05v-.91a34.82,34.82,0,0,1-3-3.06c-.82-1-2.26-1-3-2-1.12-.66-2.54.53-3.53-.69.9-.91,2.6.11,3.26-1.35,1.29.55,1.63-1.58,2.85-1.05l3-2.91,1.29-2.89c0-.23.07-1.3.13-2.5l1.43-.39c.72,1.36.26,2.79.37,3.82,2,1.94,3.74,3.71,5.83,5.8h1.3l1.05,1C22.48,413,23.32,412.52,24,413.23Z"/><path class="cls-1" d="M13.05,215v2.81l4.06,4c.88.6,2.28-.35,2.91,1l3.19.31.43,1.22c-1.32,1.15-2.83.11-4.16.63-.71.17-1,1.14-2,.89-1.15,1.07-2.29,2.15-3.17,3-.61,1.39-.83,2.72-1.61,3.46-1,.93-.11,2.17-.93,3-.61-1.09-.61-1.09-.67-3a13.92,13.92,0,0,1-1.63-2.86c-.32-1.11-.82-2.29-1.78-2.45-1.29-.22-1.74-1.21-2.81-2h-4c-.11-.57-.2-1-.28-1.41.31-.2.59-.53.8-.49,2.66.51,4.43-1.58,6.67-2.28.48-.16.83-.87,1.15-1.39a5.46,5.46,0,0,0,.91-2,3.75,3.75,0,0,1,.89-2.52c.4-.43.18-1.45.24-2.2,1.19,0,.61.83.84,1.23A5.77,5.77,0,0,0,13.05,215Z"/><path class="cls-1" d="M1,342.86a3.28,3.28,0,0,1,1.41-1H5.06c.78-.72,1.1-1.75,2-1.43,2.34-1.08,2.47-3.92,4.46-5.13V331l.51-.07c.27.58.41,1.33.85,1.7.91.77.18,1.89.69,2.57a3.46,3.46,0,0,1,.92,2c1.61,1.45,2.86,3.3,5,4.12h4.24c.09.62.17,1,.26,1.57-1.37.69-2.8.24-4.21.4-1,.36-1.25,1.79-2.47,1.89s-1.38,1.2-2.17,1.65c-1,.6-.49,2.15-1.68,2.65v2.91c-.42.38-.9.79-1.51,1.33-.69-.84-.29-1.91-.41-2.89-.45-.89-1-1.79-1.38-2.72a6.41,6.41,0,0,0-2-2.95c-.87-.57-1.76-1.09-2.8-1.73C4.05,342.94,2.41,343.78,1,342.86Z"/><path class="cls-1" d="M16.88,268.12l2.82,1.64h2.87c.07.54.14,1.09.23,1.81l-3.43.2c-.87.61-1.19,2-2.56,1.87a7.58,7.58,0,0,0-3.46,5.16c-.27,1.39-1.26,2.27-1.47,3.7-.92-1.17-.36-2.33-.43-2.81A46.29,46.29,0,0,0,9,274.77c-.94-1.43-3.1-1.38-3.85-3.06l-4.12,0c-.07-.54-.15-1.09-.24-1.82l3.43-.19c.57-1,1.55-.92,2.48-.91,1.78-.85,2.61-2.57,3.38-4.2.68-1.45,1.64-2.83,1.15-5.63l1.93,3.82v1.47a3.38,3.38,0,0,0,.3.41C14.84,266.05,16.18,267.42,16.88,268.12Z"/><path class="cls-1" d="M2.68,11.33H.63C0,11-.06,10.44.21,9.79c.1-.09.21-.3.32-.3,1.26,0,2.52,0,3.78,0L6.17,7.68l1.44-.43c0-.43,0-.73.08-1.1l1.89-2V1.32L10.9,0c.2.18.56.36.56.54C11.38,3,13.14,4.59,14,6.61a2.42,2.42,0,0,0,1,.89c.37.22.88.23,1.22.47.5.37.91.88,1.51,1.41h4a4.09,4.09,0,0,1-1.16,2.38H17.91s-3.61,3.17-5.1,4.67l-.47,1c-1.31,1.94-.19,3.36-1.22,4.38-1.08-.6-.07-1.87-.71-2.44-.84-.75-.84-1.6-.73-2.75C7.67,14.89,6.17,12.45,2.68,11.33Z"/><path class="cls-1" d="M3.06,200.16c-.71-.16-1.54.34-2.23-.34.15-.2.31-.58.43-.57a4,4,0,0,0,2.94-.93A15,15,0,0,1,7,197.14c.26-.12.45-.43.67-.65s.32-.23.32-.34c0-1.58,1.75-2.09,2.09-3.38a6.13,6.13,0,0,1,.88-1.53c.39-.71-.25-1.75.59-2.45.78.77.11,1.77.51,2.3.82,1.08,1.15,2.38,1.85,3.5.07.11,0,.33.1.42,1,1.16,2.1,2.3,3,3.23h2.76l2.68,1.43c-.6.75-1.47.26-2.17.48s-1,1-2,1c-.45,0-.86.85-1.37,1.19s-1.3.65-1.92,1a9.8,9.8,0,0,0-2,3.42c-.06.77,0,1.48-.68,2.11-.38.34-.41,1.06-.62,1.66-1.17-.84-.13-2.38-1.36-3.27-.7-.51-.84-1.8-1.4-3.15l-3.46-3H4.11C3.75,200.81,3.41,200.49,3.06,200.16Zm8.67,2.76.33-.34a2.66,2.66,0,0,0-.64-.3c-.08,0-.2.2-.31.3Zm0-2.59-.61.35c.1.1.23.31.31.29a2.85,2.85,0,0,0,.64-.3Z"/><path class="cls-1" d="M19.1,57.06h2.77c.1.49.2,1,.35,1.8-1.61.21-3,0-4.39.13-.86.6-1.24,1.71-2.51,2a2.16,2.16,0,0,0-1.77,2.35c-1,.47-.65,1.74-1.35,2.26-1.09.8.07,2.21-1,2.94-1.16-.65,0-2-1-2.89a5.8,5.8,0,0,1-1.42-2.68c-.26-1-.94-1.88-1.71-1.93-1.41-.1-1.53-1.54-3.1-1.82-1.2.21-2.35-1-3.88-1.63,1.19-.76,2.31-.31,3.37-.44C4.41,56,6,56,6.87,54.8a17.78,17.78,0,0,1,2.85-2.66V49.35c.48-.93.95-1.84,1.43-2.75,1.09.89,0,2.12.58,3.09a17.59,17.59,0,0,0,3.06,4.42A17.22,17.22,0,0,0,19.1,57.06Z"/><path class="cls-1" d="M11.58,163a14.39,14.39,0,0,1-1.32-2.2c-.27-.68-.13-1.52-.4-2.21a16,16,0,0,0-1.33-2.25l-.93,0-2.86-2.84H.67c-.09-.57-.16-1-.22-1.39,1-1,2.16-.31,3.2-.5.69-.27,1-1.3,2-.93l4.3-4.51v-1.71l.94-1c.17-.77-.33-1.62.38-2.26.55.24.55.24.58,2.89,2.78,4.54,2.5,4.32,7.11,7.41l3.26.17c0,.56.09,1,.14,1.61a23.93,23.93,0,0,1-4.36.23l-2.31,2.61-1.5.34c-.34.65-.66,1.31-1,2A12.11,12.11,0,0,1,12,160.73C11.6,161.2,12.19,162.24,11.58,163ZM8.21,151.83c-.21-.74-.14-1.48-1-.83.26.22.52.44.75.3.22.74.15,1.47,1,.82C8.71,151.9,8.45,151.68,8.21,151.83Zm5.28-.42.33-.34a2.66,2.66,0,0,0-.64-.3c-.08,0-.2.2-.31.3Zm-2.05,1.1c-.1.1-.31.23-.29.31a2.66,2.66,0,0,0,.3.64c.1-.11.31-.24.29-.31A2.66,2.66,0,0,0,11.44,152.51Zm-1.56,2.25-.34-.34a2.81,2.81,0,0,0-.29.64c0,.08.19.21.29.31Z"/><path class="cls-1" d="M11.6,41.67V44.3c-.32.48-.79.41-.73,0,.23-1.67-.89-2.84-1.44-4.19a9.18,9.18,0,0,0-2.3-3.36C6.33,36,5,36.25,4.44,35.21c-1.29.24-2-1.69-3.43-1-.15.08-.5-.27-1-.56,1.07-.21,2.2-.09,2.72-.6.71-.71,1.69-.59,2.39-1.25S7,31,7.75,30.13s.78-1.73,1.36-2.28c.74-.71.54-1.7,1.22-2.43.52-.56.46-1.67.66-2.54.18.06.38.08.39.13.24,2,1.27,3.6,2.14,5.32a6.5,6.5,0,0,0,3.12,3.09A18.28,18.28,0,0,0,22,33.54s0,.21.06.33C17.5,35.29,14.69,36.12,11.6,41.67Z"/><path class="cls-1" d="M3.34,105.28H.77l-.07-1H4.57s1.76-2.46,3.13-2.57a5.43,5.43,0,0,1,2-3c-.14-1.71,1-3,1.64-4.37.93.78-.1,2.14,1,3,.66.5.48,1.73,1.34,2.27.14,1.41.93,2,2.32,2.38.63.14,1.63,1.79,1.63,1.79l4.07,0A1.27,1.27,0,0,1,22,105.7H18.71s-2.21,2.17-2.83,2.8l-1.77.12c-.49,1.13-.72,2.67-1.61,3.43-1.12,1-.14,2.43-1.15,3.24-1-.85-.19-2.08-1-3.07a15,15,0,0,1-2-2.94,3.58,3.58,0,0,0-2.06-1.93A17.24,17.24,0,0,1,3.34,105.28Zm9.27,3-.34-.62c-.11.11-.32.24-.3.32a2.85,2.85,0,0,0,.3.64Z"/><path class="cls-1" d="M19,129.58C11.82,136,13.4,135.2,11.33,140c-.76-.62-.27-1.47-.44-2.27l-.92-1V135l-4.35-4.42H3.66C3,129,1.3,130.14.4,129.19a12.3,12.3,0,0,1,2.71-1.41,7.88,7.88,0,0,0,2.51-.89c2.22-1.33,2.17-1.26,3.42-3.31a24.39,24.39,0,0,1,1.45-2.77,6.7,6.7,0,0,0,.66-2.56c.18.06.39.09.39.14a16.56,16.56,0,0,0,2.14,5.31,6.54,6.54,0,0,0,3.13,3.1,18.68,18.68,0,0,0,5.32,2.12s0,.21.06.33C21.18,129.91,20.06,129.45,19,129.58Zm-7.62-1.87a1.14,1.14,0,0,0,0-1.91A1.14,1.14,0,0,0,11.37,127.71Z"/><path class="cls-1" d="M11.15,92.81c-.24-1.23-.12-2.37-.63-2.91-.7-.72-.58-1.69-1.24-2.4s-.86-1.86-1.69-2.64-1.75-.74-2.3-1.34c-.69-.77-1.7-.52-2.42-1.23-.54-.52-1.67-.43-2.58-.62.6-1.28,1.92-.18,2.43-.82.74-.93,1.63-.79,2.83-.82,1-1.44,2.77-2.41,3.58-4.46.65-1.63,1.69-3.11,1.77-5.1a2.65,2.65,0,0,1,.82,2.39l.93,1v1.47c0,.15,0,.35.09.44,1.34,1.35,2.7,2.69,4.06,4,.93.4,2.13-.2,3,1,.47.65,1.82-.47,2.37.7-2.77.69-6.26,2.42-7.52,3.73C13.8,86.07,12.1,89.73,11.15,92.81Zm3.09-12,.33-.34a3.07,3.07,0,0,0-.64-.29c-.08,0-.2.19-.31.3Z"/><path class="cls-1" d="M17.2,174.39h1.86c.36.35.7.67,1.06,1,.72.16,1.56-.35,2.39.49-1.43.4-2.38,1.72-4,1.42-1.26.23-1.59,1.67-3,2-1.66.44-2.22,2.43-2.48,4-.22,1.38-1.23,2.21-1.44,3.57-.88-.81-.37-1.65-.54-2.39q-.48-.51-1-1.05v-1.67c-1.21-1.26-2.29-2.41-2.65-2.79-1.52-.91-2.14-1.59-2.77-1.59-.94,0-1.26-.88-2-1s-1.54.22-2.17-.46c1-1,2.16-.32,3.21-.51.7-.24.95-1.4,2-.86a47.36,47.36,0,0,1,4.84-4.66v-1.67a1.26,1.26,0,0,1,.3-.76c.13-.79.26-1.67.43-2.67,1.23,1,.5,2.17.64,2.86a11.86,11.86,0,0,0,1.25,2.66C14.4,171.75,15.82,173,17.2,174.39Zm-4.59,4.68.34-.34a3.32,3.32,0,0,0-.64-.29c-.08,0-.21.19-.31.3Z"/><path class="cls-1" d="M3.55,889.71v-2H5.2l2.91-1.44,3.72-3.75,1.23-2.85v-2.08l1.4-.2c.93,1,.3,2.12.48,3.14.29.65,1.31,1,.93,2l3.61,3.23h1.62l2,1.91h2.31l.2,1.91h-4.2c-1.11.79-1.45,2-2.82,2.17a2.3,2.3,0,0,0-1.57,1.59c-.07,1.46-1.29,1.81-2,3v4.21l-1.67.26a20.73,20.73,0,0,1-.24-4.43c-.27-.71-1.32-1-1-2C11,892,8.23,891.69,6.82,889.7Z"/><path class="cls-1" d="M9.34,843.55l-3-1.61H3.63c-.1-.58-.18-1-.25-1.37.76-1.16,2.12-.06,3-1.05a6.13,6.13,0,0,1,2.71-1.38A3.07,3.07,0,0,0,11,836.36l1.89-4V831l1.35-1.33c.52.23.52.23.56,2.82.76,1.49,1.5,2.93,2.33,4.57l1.19.24c.17.46.36,1,.57,1.6,2.13-.08,3.84,1.86,6.17.95l.29,1.58c-.31.19-.55.45-.82.48a12.86,12.86,0,0,0-2.74.28,10.42,10.42,0,0,0-2.64,1.65A11.78,11.78,0,0,0,15.81,848a5.8,5.8,0,0,1-.93,1.09v3l-1.77.33a32.52,32.52,0,0,1-.13-4l-1.32-2.64Z"/><path class="cls-1" d="M5.52,768.5l1.05-1h2l1.83-1.76,2.44-4.73c.13-.73-.54-1.87.4-2.78l1.36,1.35v2.71l.95,1v.9l3.71,3.23h1.86l1.12,1H24.4l.39,1.15c-.65,1.25-2.08.22-2.65.83-.71.77-1.74.72-2.52,1.25-1.24.83-3,1-3.21,2.92-.06.6-1.1,1.1-1.74,1.69v2.43c-.53.79-.93,1.37-1.38,2-.94-1.34-.28-2.46-.73-3.57-1-.75-.93-2.33-2.21-3.15a18.58,18.58,0,0,1-2.65-2.5l-2.63-1.12-2.64-.12c-.18-1.08,1-1.06,1.06-1.77Z"/><path class="cls-1" d="M12.92,756.82c-.67-.75-.05-1.9-.23-3a4.46,4.46,0,0,0-.59-.7c-.63-.52-.13-1.57-1-2-.7-.33.14-1.76-1.11-1.71a2.11,2.11,0,0,1-1.83-1.27c-.53-.81-1.49-.37-2-1a5.77,5.77,0,0,0-.69-.62c-1.05-.17-2.2.42-3.25-.43l1.28-1.36c1.41.25,2.64-.53,3.74-1.17.9-.51,2.07-.6,2.72-1.5a10.76,10.76,0,0,0,1.63-2.65c.26-.74.38-1.47,1.06-1.92.17-1.09-.27-2.21.33-3.25.84.12,1,1,1.6,1.28,0,.91,0,1.71,0,2.5a5.3,5.3,0,0,1,.41.78c.65,2,2.39,3.18,3.63,4.57l2.62,1.14h2.26L25.26,746c-1.33.88-2.46.42-3.06.49-1.83.94-3.3,1.64-4.72,2.44-1.57.89-1.83,2.76-2.88,4v2.79Z"/><path class="cls-1" d="M23.84,816.14c.45.48.91.93,1.36,1.38-.27.53-.27.53-2.93.57-.92.49-2.07.78-2.68,1.51-.81,1-2.5,1.07-2.77,2.07a6.86,6.86,0,0,1-2,2.62V827c-.5.6-.86,1.25-1.63,1.45-.69-1,0-2.17-.22-2.66l-2.5-4.85H9.41c-.7-1.48-2.36-1.78-3.9-2.8l-1-.06a7.49,7.49,0,0,1-1,0,10,10,0,0,1-1.28-.38c.56-.56,1-1,1.48-1.5h1.9s.7-.59,1.05-1h1.8c1.18-1.12,2.31-2.22,3.42-3.31V810c.26-.24.48-.47.7-.69.79-1.08-.36-2.51.7-3.58a8.12,8.12,0,0,1,1,1.32v2.46s1.86,1.26,1.23,2.5a25.78,25.78,0,0,1,2.79,2.53c.74.88,2.16.5,2.68,1.61Z"/><path class="cls-1" d="M6,699.78H2.45c-.11,0-.22-.2-.4-.37v-1.16c1.1-.62,2.22-.2,2.82-.29l2.73-1.38,3.69-3.64c.53-.89-.33-2.24,1-2.86l.46-2.51c.36,2.28,2.07,3.94,2.79,6.31l3.26,3H20.5l1.05,1h2.11c.08.51.16,1,.24,1.48-1.08.63-2,.29-3,.4-.86.82-2.23.75-3.06,1.69s-1.55,1.55-2.33,2.32c0,1.21-1.16,2-1.25,3.24A11.05,11.05,0,0,1,13,710.15c-1-1.07-.37-2.2-.55-3.23a36.81,36.81,0,0,1-2.29-4.18C9.35,701.25,7.64,700.67,6,699.78Z"/><path class="cls-1" d="M25.33,864.23c-.52,1.35-2.06-.09-2.69,1s-1.75.28-2.63.74c-1.28,1.3-2.63,2.65-3.85,3.88-.37.81-.67,1.48-1.15,2.56,0,.6-.09,1.67-.15,2.81l-1.41.1c-.77-1.06-.25-2.2-.4-3.25l-1-1v-.91a38,38,0,0,1-3-3.07c-.81-1-2.25-1-3-2-1.11-.66-2.54.53-3.52-.69.9-.91,2.6.11,3.26-1.35,1.28.55,1.63-1.59,2.85-1l3-2.92L13,856.15c0-.23.07-1.3.13-2.49l1.43-.39c.72,1.36.25,2.79.37,3.82l5.83,5.79H22l1.06,1C23.78,864,24.62,863.52,25.33,864.23Z"/><path class="cls-1" d="M14.35,666v2.82l4.06,4c.87.6,2.28-.35,2.91,1l3.19.3.43,1.22c-1.32,1.16-2.84.12-4.17.64-.7.17-1,1.14-2,.89l-3.16,3c-.61,1.38-.83,2.72-1.62,3.46-1,.93-.11,2.17-.92,3-.61-1.08-.61-1.08-.67-3a13.47,13.47,0,0,1-1.63-2.86C10.48,679.3,10,678.12,9,678c-1.3-.22-1.75-1.21-2.81-2h-4c-.11-.57-.2-1-.28-1.41.3-.2.59-.53.8-.49,2.66.51,4.43-1.58,6.67-2.28.48-.16.83-.87,1.14-1.39a5.4,5.4,0,0,0,.92-2,3.78,3.78,0,0,1,.88-2.53c.41-.42.18-1.44.24-2.2,1.19,0,.62.84.85,1.24A5.41,5.41,0,0,0,14.35,666Z"/><path class="cls-1" d="M2.29,793.85a3.19,3.19,0,0,1,1.41-1H6.36c.78-.73,1.09-1.75,2-1.44,2.34-1.07,2.47-3.91,4.46-5.13V782l.51-.07c.27.58.4,1.33.85,1.7.91.77.18,1.88.68,2.57a3.44,3.44,0,0,1,.93,2c1.61,1.45,2.86,3.3,5,4.12H25c.1.62.18,1.05.27,1.57-1.38.69-2.8.24-4.21.4-1,.36-1.26,1.79-2.48,1.89s-1.38,1.2-2.16,1.65c-1,.6-.49,2.15-1.68,2.64v2.92c-.42.38-.89.79-1.51,1.33-.68-.85-.29-1.91-.4-2.9-.46-.89-1-1.78-1.39-2.71a6.32,6.32,0,0,0-2-3c-.87-.57-1.76-1.09-2.8-1.73C5.34,793.94,3.7,794.78,2.29,793.85Z"/><path class="cls-1" d="M18.18,719.12,21,720.76h2.88l.23,1.82-3.43.19c-.87.61-1.19,2-2.56,1.88a7.59,7.59,0,0,0-3.47,5.16c-.26,1.39-1.25,2.26-1.46,3.7-.92-1.17-.36-2.34-.43-2.81a48.29,48.29,0,0,0-2.42-4.92c-.94-1.44-3.1-1.38-3.85-3.06H2.35c-.07-.53-.14-1.08-.24-1.81l3.44-.2c.57-1,1.54-.91,2.48-.9,1.78-.85,2.61-2.57,3.37-4.2.68-1.45,1.65-2.83,1.16-5.63l1.93,3.81v1.48a3.38,3.38,0,0,0,.3.41C16.13,717.05,17.48,718.41,18.18,719.12Z"/><path class="cls-1" d="M4,462.33h-2c-.65-.34-.7-.89-.42-1.54.09-.09.2-.3.32-.3,1.26,0,2.52,0,3.77,0,.69-.65,1.36-1.3,1.86-1.78l1.44-.43c0-.43.06-.73.09-1.1l1.89-2v-2.82L12.2,451c.19.18.56.36.55.53-.08,2.42,1.69,4.06,2.52,6.08a2.36,2.36,0,0,0,1,.89c.37.22.87.22,1.21.47.51.37.91.87,1.52,1.41l4,0a4.09,4.09,0,0,1-1.16,2.39H19.2s-3.61,3.17-5.1,4.67a9.51,9.51,0,0,1-.47,1c-1.3,1.94-.18,3.35-1.22,4.38-1.07-.6-.06-1.87-.7-2.44-.84-.76-.84-1.6-.74-2.75C9,465.88,7.47,463.45,4,462.33Z"/><path class="cls-1" d="M4.36,651.16c-.72-.16-1.55.34-2.23-.34.15-.2.31-.58.43-.57a3.94,3.94,0,0,0,2.94-.94,15.87,15.87,0,0,1,2.8-1.17c.27-.12.45-.43.68-.66s.31-.22.31-.33c0-1.58,1.75-2.1,2.09-3.38a6.28,6.28,0,0,1,.89-1.53c.39-.71-.26-1.75.59-2.45.78.77.11,1.76.51,2.3.82,1.08,1.15,2.38,1.85,3.49.07.12,0,.34.09.43,1,1.16,2.11,2.3,3,3.22H21l2.68,1.43c-.61.75-1.47.26-2.17.48s-1,1-2,1c-.44,0-.85.84-1.36,1.19s-1.31.65-1.92,1a9.94,9.94,0,0,0-1.95,3.43c-.06.77,0,1.48-.68,2.11-.38.34-.42,1.06-.63,1.66-1.16-.84-.13-2.38-1.35-3.27-.7-.51-.84-1.8-1.41-3.15l-3.45-3H5.4ZM13,653.92l.34-.34a2.66,2.66,0,0,0-.64-.3c-.08,0-.21.19-.31.3Zm0-2.59-.62.34c.11.11.24.32.32.3a3.07,3.07,0,0,0,.64-.3Z"/><path class="cls-1" d="M20.4,508.06h2.77c.09.5.2,1,.35,1.81-1.61.21-3,.05-4.39.13-.87.6-1.24,1.71-2.52,2a2.15,2.15,0,0,0-1.76,2.35c-1,.46-.66,1.74-1.36,2.26-1.08.8.07,2.21-1,2.94-1.16-.66,0-2-1-2.89a5.62,5.62,0,0,1-1.42-2.68c-.27-1-.94-1.88-1.72-1.93-1.4-.1-1.53-1.54-3.09-1.82-1.2.2-2.36-1-3.88-1.63,1.19-.77,2.31-.31,3.37-.44C5.71,507,7.28,507,8.17,505.8A18.34,18.34,0,0,1,11,503.13v-2.79l1.42-2.74c1.1.89,0,2.12.59,3.09a17.33,17.33,0,0,0,3.06,4.42A17.22,17.22,0,0,0,20.4,508.06Z"/><path class="cls-1" d="M12.88,614a15.34,15.34,0,0,1-1.33-2.2c-.26-.68-.13-1.53-.4-2.21a14.29,14.29,0,0,0-1.33-2.25l-.93,0L6,604.44H2c-.09-.57-.16-1-.22-1.4,1-.95,2.16-.31,3.2-.49.68-.27,1-1.31,2-.93,1.39-1.46,2.8-3,4.3-4.51v-1.71l1-1c.16-.77-.34-1.62.38-2.26.55.24.55.24.58,2.89,2.78,4.53,2.5,4.32,7.1,7.41l3.27.17c.05.56.09,1,.14,1.61a23.09,23.09,0,0,1-4.36.22L17,607.06l-1.5.34c-.33.65-.65,1.31-1,2a11.29,11.29,0,0,1-1.21,2.37C12.89,612.2,13.49,613.23,12.88,614ZM9.51,602.83c-.21-.74-.15-1.48-1-.83.26.22.52.44.76.29.21.74.15,1.48,1,.83C10,602.9,9.75,602.68,9.51,602.83Zm5.27-.42.34-.34a2.85,2.85,0,0,0-.64-.3c-.08,0-.21.19-.31.3Zm-2,1.09c-.11.11-.31.24-.3.32a3.37,3.37,0,0,0,.3.64c.11-.11.32-.24.3-.32A3.07,3.07,0,0,0,12.74,603.5Zm-1.56,2.26-.34-.34a2.66,2.66,0,0,0-.3.64c0,.08.19.21.3.31Z"/><path class="cls-1" d="M12.9,492.67v2.63c-.32.48-.78.41-.73,0,.24-1.67-.89-2.84-1.44-4.2a9.08,9.08,0,0,0-2.29-3.35c-.82-.75-2.12-.54-2.7-1.59-1.29.25-2-1.68-3.43-1-.15.07-.5-.27-1-.57,1.07-.2,2.2-.09,2.71-.59.72-.71,1.69-.6,2.4-1.25s1.87-.84,2.64-1.69.78-1.73,1.36-2.29c.73-.71.54-1.69,1.21-2.42.53-.56.46-1.67.66-2.55.19.07.39.09.4.14.24,2,1.27,3.59,2.13,5.32a6.57,6.57,0,0,0,3.13,3.09,18.45,18.45,0,0,0,5.33,2.12s0,.21.05.32C18.8,486.29,16,487.12,12.9,492.67Z"/><path class="cls-1" d="M4.64,556.28H2.07L2,555.33H5.86s1.77-2.46,3.14-2.57a5.4,5.4,0,0,1,2-3c-.14-1.71,1-3,1.64-4.37.93.78-.1,2.13,1,3,.65.5.48,1.73,1.33,2.27A2.53,2.53,0,0,0,17.3,553c.63.15,1.63,1.79,1.63,1.79H23a1.27,1.27,0,0,1,.26,1.91H20s-2.22,2.17-2.84,2.8l-1.77.12c-.49,1.13-.71,2.67-1.6,3.43-1.13,1-.14,2.42-1.16,3.24-1-.85-.18-2.08-1-3.07a15.05,15.05,0,0,1-2-2.94,3.56,3.56,0,0,0-2-1.93A16.82,16.82,0,0,1,4.64,556.28Zm9.27,3-.34-.62c-.11.11-.32.24-.3.32a3.07,3.07,0,0,0,.3.64Z"/><path class="cls-1" d="M20.29,580.58C13.12,587,14.7,586.2,12.63,591c-.76-.62-.27-1.47-.44-2.27l-.93-1V586L6.9,581.55H5c-.63-1.55-2.37-.41-3.26-1.36a11.64,11.64,0,0,1,2.7-1.41,7.84,7.84,0,0,0,2.52-.89c2.21-1.33,2.16-1.26,3.41-3.31a26.35,26.35,0,0,1,1.46-2.78c.5-.62.46-1.68.66-2.55.18.06.38.08.39.13.24,2,1.27,3.6,2.14,5.32a6.5,6.5,0,0,0,3.12,3.09,18.28,18.28,0,0,0,5.33,2.12s0,.21.06.34C22.48,580.91,21.35,580.45,20.29,580.58Zm-7.62-1.87a1.14,1.14,0,0,0,0-1.91A1.14,1.14,0,0,0,12.67,578.71Z"/><path class="cls-1" d="M12.44,543.81c-.23-1.23-.11-2.38-.62-2.91-.7-.72-.59-1.69-1.24-2.4s-.86-1.86-1.7-2.64-1.74-.74-2.29-1.35-1.7-.51-2.42-1.22c-.54-.52-1.68-.43-2.58-.62.6-1.28,1.91-.18,2.43-.82.74-.93,1.63-.79,2.82-.82,1-1.45,2.78-2.41,3.59-4.46.64-1.63,1.69-3.11,1.77-5.1a2.62,2.62,0,0,1,.81,2.39l.93,1v1.48c0,.15,0,.35.09.43,1.34,1.36,2.7,2.7,4.06,4.05.93.41,2.13-.19,3,1,.46.65,1.82-.47,2.37.7-2.77.69-6.27,2.42-7.52,3.72C15.1,537.07,13.4,540.72,12.44,543.81Zm3.09-12,.34-.34a3.07,3.07,0,0,0-.64-.29c-.08,0-.21.19-.31.29Z"/><path class="cls-1" d="M18.5,625.39h1.86c.35.35.7.66,1.05,1,.72.17,1.56-.34,2.4.5-1.44.39-2.38,1.72-4,1.41-1.27.24-1.59,1.68-3,2-1.67.43-2.22,2.43-2.48,4-.23,1.38-1.23,2.21-1.44,3.57-.88-.81-.38-1.66-.54-2.39l-1-1v-1.67L8.74,630c-1.51-.91-2.14-1.58-2.77-1.59-.93,0-1.26-.87-2-1s-1.54.22-2.18-.46c1-1,2.17-.33,3.22-.51.7-.24,1-1.4,2-.86a46.35,46.35,0,0,1,4.84-4.66v-1.67a1.19,1.19,0,0,1,.3-.76c.12-.79.26-1.67.42-2.68,1.23,1,.51,2.18.65,2.87a11.56,11.56,0,0,0,1.25,2.65C15.7,622.75,17.12,624,18.5,625.39Zm-4.59,4.68.34-.34a3.07,3.07,0,0,0-.64-.3c-.08,0-.21.2-.32.3Z"/><path class="cls-1" d="M5.85,1341.71v-2H7.5l2.91-1.44,3.72-3.75,1.23-2.85v-2.07l1.4-.2c.93,1,.3,2.11.48,3.13.29.66,1.31,1,.93,2l3.61,3.23h1.62l2,1.9h2.31l.2,1.91h-4.2c-1.11.8-1.45,2.05-2.82,2.18a2.27,2.27,0,0,0-1.57,1.59c-.07,1.45-1.29,1.81-2,3v4.21l-1.67.26a20.7,20.7,0,0,1-.24-4.43c-.27-.7-1.32-1-1-2-1.15-2.38-3.89-2.7-5.3-4.68Z"/><path class="cls-1" d="M11.64,1295.54l-3-1.6H5.94l-.26-1.37c.76-1.15,2.12-.06,3-1a6.15,6.15,0,0,1,2.71-1.39,3,3,0,0,0,1.93-1.79l1.89-4v-1.45l1.35-1.32c.52.23.52.23.56,2.81.76,1.5,1.5,2.93,2.33,4.57l1.19.25c.17.46.36,1,.57,1.59,2.13-.07,3.84,1.87,6.17,1l.29,1.57a2.6,2.6,0,0,1-.82.49,12.86,12.86,0,0,0-2.74.28,10.11,10.11,0,0,0-2.64,1.64,11.9,11.9,0,0,0-3.37,4.22,5.75,5.75,0,0,1-.93,1.08v3l-1.77.34a32.63,32.63,0,0,1-.13-4L14,1297.85Z"/><path class="cls-1" d="M7.82,1220.49l1-1h2l1.83-1.75,2.44-4.73c.13-.74-.54-1.88.4-2.78l1.36,1.35v2.71l.95,1.05v.89l3.71,3.23h1.86l1.12,1H26.7l.39,1.14c-.65,1.26-2.08.22-2.65.84s-1.74.71-2.52,1.24c-1.24.83-3,1-3.21,2.93-.06.59-1.1,1.1-1.74,1.69v2.43l-1.38,2c-.94-1.34-.28-2.45-.73-3.57-1-.75-.93-2.33-2.21-3.15a19.13,19.13,0,0,1-2.65-2.5l-2.63-1.11-2.64-.13c-.18-1.07,1-1.06,1.06-1.76Z"/><path class="cls-1" d="M15.22,1208.81c-.67-.74-.05-1.9-.23-3a5.61,5.61,0,0,0-.59-.7c-.63-.51-.13-1.56-1-2-.7-.32.14-1.75-1.11-1.7a2.12,2.12,0,0,1-1.83-1.28c-.53-.81-1.49-.37-2-1a8.22,8.22,0,0,0-.69-.62c-1-.16-2.2.42-3.25-.42l1.28-1.37c1.41.25,2.64-.53,3.74-1.16.9-.51,2.07-.6,2.72-1.5a11,11,0,0,0,1.63-2.66c.26-.74.38-1.46,1.06-1.91.17-1.09-.27-2.21.33-3.26.84.13,1,1,1.6,1.28,0,.92,0,1.71,0,2.51a4.84,4.84,0,0,1,.41.78c.65,2,2.39,3.18,3.63,4.56l2.62,1.14h2.26l1.78,1.42c-1.33.88-2.46.41-3.06.49-1.83.94-3.3,1.64-4.72,2.43-1.57.89-1.83,2.76-2.88,4v2.79Z"/><path class="cls-1" d="M26.14,1268.13c.45.49.91.94,1.36,1.38-.27.54-.27.54-2.93.57-.92.5-2.07.78-2.68,1.52-.81,1-2.5,1.07-2.77,2.07a6.88,6.88,0,0,1-2,2.61V1279c-.5.59-.86,1.25-1.63,1.45-.69-1,0-2.18-.22-2.67l-2.5-4.84h-1c-.7-1.47-2.36-1.77-3.9-2.79-.11,0-.56-.05-1-.07a6,6,0,0,1-1,0c-.41-.08-.81-.24-1.28-.38l1.48-1.5h1.9s.7-.58,1-1h1.8c1.18-1.11,2.31-2.22,3.42-3.31V1262c.26-.24.48-.46.7-.69.79-1.07-.36-2.51.7-3.57a8.12,8.12,0,0,1,1,1.32v2.45s1.86,1.26,1.23,2.5a26.86,26.86,0,0,1,2.79,2.53c.74.89,2.16.51,2.68,1.61Z"/><path class="cls-1" d="M8.27,1151.77c-1,0-2.25,0-3.52,0-.11,0-.22-.2-.4-.36v-1.17c1.1-.61,2.22-.2,2.82-.29l2.73-1.37c1-1,2.35-2.33,3.69-3.65.53-.88-.33-2.23,1-2.85l.46-2.51c.36,2.28,2.07,3.93,2.79,6.31l3.26,3H22.8l1.05.95H26c.08.5.16,1,.24,1.48-1.08.63-2,.29-3,.39-.86.82-2.23.76-3.06,1.69s-1.55,1.55-2.33,2.32c0,1.22-1.16,2-1.25,3.25a11,11,0,0,1-1.28,3.15c-1-1.06-.37-2.2-.55-3.22a37.69,37.69,0,0,1-2.29-4.18C11.65,1153.25,9.94,1152.66,8.27,1151.77Z"/><path class="cls-1" d="M27.63,1316.22c-.52,1.35-2.06-.08-2.69,1s-1.75.28-2.63.74l-3.85,3.87-1.15,2.56c0,.6-.09,1.68-.15,2.82l-1.41.1c-.77-1.06-.25-2.2-.4-3.26l-1-1v-.92a36.3,36.3,0,0,1-3-3.06c-.81-1-2.25-1-3-2-1.11-.66-2.54.53-3.52-.69.9-.91,2.6.11,3.26-1.35,1.28.55,1.63-1.58,2.85-1,1.15-1.13,2.29-2.23,3-2.92l1.29-2.89c0-.23.07-1.3.13-2.49l1.43-.4c.72,1.36.25,2.79.37,3.82l5.83,5.8H24.3l1.06,1C26.08,1316,26.92,1315.51,27.63,1316.22Z"/><path class="cls-1" d="M16.65,1118v2.82c1.36,1.36,2.71,2.69,4.06,4,.87.6,2.28-.34,2.91,1l3.19.31.43,1.22c-1.32,1.16-2.84.11-4.17.64-.7.17-1,1.13-2,.88l-3.16,3c-.61,1.39-.83,2.73-1.62,3.46-1,.93-.11,2.18-.92,3-.61-1.08-.61-1.08-.67-3a13.42,13.42,0,0,1-1.63-2.85c-.32-1.12-.83-2.3-1.78-2.46-1.3-.22-1.75-1.21-2.81-2h-4l-.28-1.41c.3-.19.59-.53.8-.49,2.66.51,4.43-1.57,6.67-2.28.48-.15.83-.87,1.14-1.39a5.35,5.35,0,0,0,.92-2,3.78,3.78,0,0,1,.88-2.53c.41-.42.19-1.44.24-2.2,1.19,0,.62.83.85,1.24A5.72,5.72,0,0,0,16.65,1118Z"/><path class="cls-1" d="M4.59,1245.85a3.22,3.22,0,0,1,1.41-1H8.66c.78-.72,1.09-1.74,2-1.43,2.34-1.08,2.47-3.92,4.46-5.13V1234l.51-.06c.27.57.4,1.32.85,1.7.91.77.18,1.88.68,2.57a3.42,3.42,0,0,1,.93,2c1.61,1.46,2.86,3.3,5,4.13l4.23,0c.1.62.18,1,.27,1.57-1.37.69-2.8.25-4.21.41-1,.35-1.26,1.78-2.48,1.89s-1.38,1.19-2.16,1.64c-1,.6-.49,2.15-1.68,2.65v2.92c-.42.37-.89.79-1.51,1.32-.68-.84-.28-1.91-.4-2.89-.46-.89-1-1.79-1.39-2.72a6.29,6.29,0,0,0-2-2.94c-.87-.57-1.76-1.1-2.8-1.73C7.64,1245.93,6,1246.78,4.59,1245.85Z"/><path class="cls-1" d="M20.48,1171.12l2.81,1.64h2.88c.07.54.14,1.09.23,1.81l-3.43.2c-.87.61-1.19,2-2.56,1.88a7.55,7.55,0,0,0-3.47,5.16c-.26,1.39-1.25,2.26-1.46,3.69-.92-1.17-.36-2.33-.43-2.8a47.54,47.54,0,0,0-2.42-4.93c-.94-1.43-3.1-1.38-3.85-3H4.65c-.07-.54-.14-1.09-.24-1.82l3.44-.19c.57-1,1.54-.91,2.48-.91,1.78-.85,2.61-2.57,3.37-4.2.68-1.44,1.65-2.83,1.16-5.63l1.93,3.82v1.48c.12.16.2.3.3.41C18.43,1169.05,19.78,1170.41,20.48,1171.12Z"/><path class="cls-1" d="M6.27,914.32h-2a1.05,1.05,0,0,1-.42-1.54c.09-.1.2-.31.32-.31,1.26,0,2.52,0,3.77,0l1.86-1.79,1.44-.42c0-.43.06-.74.09-1.1l1.89-2v-2.82L14.5,903c.19.18.56.37.55.54-.08,2.41,1.69,4.05,2.52,6.08a2.41,2.41,0,0,0,1,.88c.37.22.87.23,1.21.48.51.37.91.87,1.52,1.4h4a4.13,4.13,0,0,1-1.16,2.39H21.5s-3.61,3.18-5.1,4.67c-.4.85-.66,1.38-.47,1-1.3,1.94-.18,3.36-1.22,4.38-1.07-.59-.06-1.87-.7-2.44-.84-.75-.84-1.6-.74-2.74C11.27,917.88,9.77,915.45,6.27,914.32Z"/><path class="cls-1" d="M6.66,1103.16c-.72-.17-1.55.33-2.23-.34.15-.2.31-.59.43-.57a4,4,0,0,0,2.94-.94,15.89,15.89,0,0,1,2.8-1.18c.27-.12.45-.43.68-.65s.31-.22.31-.34c0-1.58,1.75-2.09,2.1-3.38a6.13,6.13,0,0,1,.88-1.53c.39-.7-.26-1.75.59-2.44.78.76.11,1.76.51,2.29.82,1.08,1.15,2.38,1.85,3.5.07.12,0,.33.09.43,1.05,1.15,2.11,2.29,3,3.22h2.76l2.68,1.44c-.61.75-1.47.26-2.17.47s-1,1-2,1c-.44,0-.85.85-1.36,1.19s-1.31.66-1.92,1a9.9,9.9,0,0,0-1.95,3.42c-.06.77,0,1.49-.68,2.11-.38.34-.42,1.06-.63,1.66-1.16-.84-.13-2.37-1.35-3.26-.7-.51-.84-1.8-1.41-3.16l-3.45-3H7.7Zm8.66,2.75.34-.34a3.07,3.07,0,0,0-.64-.29c-.08,0-.21.19-.31.3Zm0-2.58-.62.34c.11.1.24.31.32.3a3.69,3.69,0,0,0,.64-.3Z"/><path class="cls-1" d="M22.7,960.06h2.77c.09.49.2,1,.35,1.8-1.61.22-3,0-4.39.14-.87.6-1.24,1.71-2.52,2a2.14,2.14,0,0,0-1.76,2.34c-1,.47-.66,1.75-1.36,2.26-1.08.81.07,2.21-1,3-1.16-.66,0-2-1-2.89a5.61,5.61,0,0,1-1.42-2.69c-.27-1-.94-1.88-1.72-1.93-1.4-.09-1.53-1.54-3.09-1.82-1.2.21-2.36-1-3.88-1.62,1.19-.77,2.31-.32,3.37-.45C8,959,9.58,959,10.47,957.79a18.74,18.74,0,0,1,2.85-2.66v-2.79l1.42-2.75c1.1.89,0,2.12.59,3.1a17.46,17.46,0,0,0,3.06,4.41A17.24,17.24,0,0,0,22.7,960.06Z"/><path class="cls-1" d="M15.18,1066a14.32,14.32,0,0,1-1.33-2.2c-.26-.68-.13-1.52-.4-2.2a14.38,14.38,0,0,0-1.33-2.26l-.93,0-2.85-2.84-4.07,0-.22-1.4c1-1,2.16-.31,3.2-.49.68-.27,1-1.31,2-.94l4.3-4.51v-1.71l.95-1c.16-.77-.34-1.61.38-2.25.55.23.55.23.58,2.89,2.78,4.53,2.5,4.32,7.1,7.41l3.27.17c.05.56.09,1,.14,1.6a22.27,22.27,0,0,1-4.36.23l-2.32,2.61-1.5.34c-.33.66-.65,1.32-1,2a11.54,11.54,0,0,1-1.21,2.37C15.19,1064.19,15.79,1065.23,15.18,1066Zm-3.37-11.15c-.21-.74-.15-1.48-1-.83.26.22.52.44.76.3.21.74.15,1.48,1,.83C12.31,1054.9,12.05,1054.68,11.81,1054.82Zm5.27-.42.34-.34a3.32,3.32,0,0,0-.64-.29c-.08,0-.21.19-.31.3Zm-2,1.1c-.1.11-.31.24-.3.31a3.11,3.11,0,0,0,.3.64c.11-.1.32-.23.3-.31A2.85,2.85,0,0,0,15,1055.5Zm-1.56,2.25-.34-.34a3.07,3.07,0,0,0-.3.64c0,.08.19.21.3.32Z"/><path class="cls-1" d="M15.2,944.66v2.63c-.32.48-.78.41-.73,0,.24-1.67-.89-2.84-1.44-4.19a9.2,9.2,0,0,0-2.29-3.36c-.82-.74-2.12-.53-2.7-1.58-1.29.24-2-1.69-3.43-1-.15.07-.5-.27-1-.57,1.07-.21,2.2-.09,2.71-.6.72-.71,1.7-.59,2.4-1.25s1.87-.83,2.64-1.69.78-1.72,1.36-2.28c.73-.71.54-1.7,1.21-2.43.53-.56.46-1.67.66-2.54.19.06.39.09.4.14.24,2,1.27,3.59,2.13,5.31a6.59,6.59,0,0,0,3.13,3.1,18.86,18.86,0,0,0,5.33,2.12s0,.21.05.32C21.1,938.28,18.29,939.11,15.2,944.66Z"/><path class="cls-1" d="M6.94,1008.27H4.37l-.08-1H8.16s1.77-2.45,3.14-2.57a5.38,5.38,0,0,1,2-3c-.14-1.72,1-3,1.64-4.38.93.79-.1,2.14,1,3,.65.5.48,1.73,1.33,2.26.15,1.41.93,2,2.33,2.38.63.15,1.63,1.79,1.63,1.79H25.3a1.26,1.26,0,0,1,.26,1.9H22.31s-2.22,2.17-2.84,2.8l-1.77.13c-.49,1.12-.71,2.67-1.6,3.42-1.13,1-.14,2.43-1.16,3.25-1-.86-.18-2.09-1-3.08a14.69,14.69,0,0,1-2-2.93,3.5,3.5,0,0,0-2.05-1.93A17.28,17.28,0,0,1,6.94,1008.27Zm9.27,3-.34-.61c-.11.1-.32.23-.3.31a2.66,2.66,0,0,0,.3.64Z"/><path class="cls-1" d="M22.59,1032.58C15.42,1039,17,1038.2,14.93,1043c-.76-.62-.27-1.48-.44-2.28l-.93-1V1038l-4.36-4.43H7.26c-.63-1.55-2.37-.42-3.26-1.37a12.46,12.46,0,0,1,2.7-1.41,7.84,7.84,0,0,0,2.52-.89c2.21-1.33,2.16-1.26,3.41-3.31a26.21,26.21,0,0,1,1.46-2.77,6.7,6.7,0,0,0,.66-2.56c.18.06.38.09.39.14.24,2,1.27,3.59,2.14,5.32a6.59,6.59,0,0,0,3.12,3.09,18.57,18.57,0,0,0,5.33,2.12s0,.21.06.34C24.78,1032.91,23.65,1032.45,22.59,1032.58ZM15,1030.7a1.14,1.14,0,0,0,0-1.91A1.14,1.14,0,0,0,15,1030.7Z"/><path class="cls-1" d="M14.74,995.8c-.23-1.23-.11-2.37-.62-2.9-.7-.73-.59-1.69-1.24-2.41s-.86-1.85-1.7-2.63-1.74-.75-2.29-1.35c-.69-.77-1.7-.51-2.42-1.22-.54-.53-1.68-.43-2.58-.62.6-1.29,1.91-.19,2.43-.83.74-.92,1.63-.79,2.82-.82,1-1.44,2.78-2.41,3.59-4.46.64-1.63,1.69-3.11,1.77-5.1a2.65,2.65,0,0,1,.81,2.4l.93,1v1.48c0,.14,0,.34.09.43,1.34,1.35,2.7,2.69,4.06,4.05.93.4,2.13-.2,3,.95.46.66,1.82-.47,2.37.7-2.77.69-6.27,2.43-7.52,3.73C17.4,989.06,15.7,992.72,14.74,995.8Zm3.09-12,.34-.34a2.66,2.66,0,0,0-.64-.3c-.08,0-.21.19-.31.3Z"/><path class="cls-1" d="M20.8,1077.38h1.86l1.05,1c.72.17,1.56-.34,2.4.49-1.44.4-2.38,1.72-4,1.42-1.27.23-1.59,1.67-3,2-1.67.44-2.22,2.43-2.48,4-.23,1.38-1.23,2.21-1.44,3.58-.88-.81-.38-1.66-.54-2.4-.32-.34-.64-.68-1-1v-1.68L11,1082c-1.51-.91-2.14-1.58-2.77-1.59-.93,0-1.26-.88-2-1s-1.54.22-2.18-.45c1-1,2.17-.33,3.22-.52.7-.24.95-1.4,2-.86a46.31,46.31,0,0,1,4.84-4.65v-1.67a1.17,1.17,0,0,1,.3-.76c.12-.8.26-1.67.42-2.68,1.23,1,.51,2.17.65,2.86a11.86,11.86,0,0,0,1.25,2.66C18,1074.74,19.42,1076,20.8,1077.38Zm-4.59,4.69.34-.34a3.07,3.07,0,0,0-.64-.3c-.08,0-.21.19-.32.3Z"/></g></g></svg>