<svg xmlns="http://www.w3.org/2000/svg" viewBox="0 0 93.26 67.22"><defs><style>.cls-1{fill:#d79f2e;}</style></defs><title>VemosIntro5</title><g id="Layer_2" data-name="Layer 2"><g id="ornamentos"><path class="cls-1" d="M56.35,48.35c0,.36.11.76.12,1.16,0,1.57.07,3.13.09,4.7,0,.57-.05,1.13-.05,1.7q0,4.11.11,8.22c0,.59,0,1.18,0,1.64l-.57.76-.66.68H55l-.18-.43-.28,0L46,66.9c-2,0-4,.06-6,.06-.47,0-1,.08-1.29-.46-.35.09-.35.78-.84.45l-.68-.8-.13-7.09.51-.16c0-.92,0-1.84,0-2.77s0-2.08,0-3.12c0-.68-.08-1.35-.09-2a10.1,10.1,0,0,1,0-1.35,1.17,1.17,0,0,1,.38-.63l0-1a5.34,5.34,0,0,1,.62-.07c3.77-.08,7.54-.16,11.31-.21,1.65,0,3.31,0,5,0a.67.67,0,0,1,.52.2A3.47,3.47,0,0,0,56.35,48.35Z"/><path class="cls-1" d="M66.57,10.49l.3-1.11,1-.08c0-.39.13-.77.66-.69l.12-.51,1.61,0,.16-.54.54-.09.14-.56,1-.16.15-.41L73.35,6l.12-.47,1.58-.12L75.2,5,77,4.77c.37-.81,1.17-.38,1.78-.68l.14-.38,1.19-.25.17-.5,2.23,0,.2-.52.59,0c1-.07,2-.13,3-.22.23,0,.52,0,.61-.31,0-.06.19-.11.29-.13.31,0,.63-.09.94-.1l4.16-.09h.7L93,5.13c-.22,0-.41,0-.61,0-1.14,0-2.27,0-3.41.08a3.87,3.87,0,0,0-1.53.22c-1.32.63-2.74.41-4.14.6l-.13.46-1.61.14-.15.49-1.7.24-.16.41c-.84.25-1.9-.29-2.53.78l-1,0-.17.52c-.64.12-1.44-.15-1.78.72l-.54.07-.09.44c-.39.11-.91.1-1.08.34-.27.39-.63.33-1,.45a1.11,1.11,0,0,1-.28,0l-.11.45c-.43.19-1,0-1.22.64l-1,.2c0,.38-.13.75-.62.74l-.3,1-1,.08-.17.58-.46.13-.11.45-.51.11-.13.48-1,.27a2,2,0,0,1-1.19,1.3l-.26.95c-.31.06-.64.15-.51.63-.45,0-.76.2-.69.7l-.47.1-.11.46-.44.1-.09.57-.56.13-.1.46-.49.19,0,1L59,23,59,23.5l-.45.16-.08.5-.58.17-.06,1.05-.47.16-.15,1.09-.46.15-.1.57-.44.19L56,29.1l-.53.15-.06.57L55,30l-.13,2.23-.51.2-.07,1.64-.51.19a3.66,3.66,0,0,1,0,.74c-.08.41.08.87-.39,1.22-.2.15-.18.62-.28,1l-.44.19-.08,5.27c-.43.07-.52.35-.49.73s0,.77,0,1.19l-2.27,0L49,44l-.1-5.78.53-.27c0-.57,0-1.16,0-1.75s-.16-1.06.41-1.46c.17-.12.14-.55.18-.84s0-.53,0-.83l.46-.15c0-.43.07-.88.11-1.33,0-.11,0-.27.08-.32.54-.37.49-.94.49-1.49,0-.14,0-.27,0-.43l.45-.21c.05-.38.09-.75.16-1.13,0-.22,0-.51.35-.55.07,0,.15-.22.17-.34s0-.49.08-.79l.46-.13.07-.59.39-.15.24-1.05.49-.14.14-1,.55-.23,0-1,.51-.18c.1-.27,0-.66.43-.81.15,0,.19-.42.31-.63A1.15,1.15,0,0,1,56.4,20c.08-.35.12-.73.67-.66l.12-1,.94-.28.3-1.09.88-.14.33-1.11.9-.13.3-1.12.47-.09.13-.44,1-.28-.07-.09c.2-.22.52-.4.59-.65.1-.41.36-.47.67-.49l.1-.47.56-.08.14-.48,1-.17.15-.53Z"/><path class="cls-1" d="M31.4,18.66c-.12-1-.29-1.17-1.22-1.35-.21-.9-.37-1.07-1.24-1.17l-.09-.36-.74-.65.07-.11-.5-.1-.12-.45-.47-.06-.58-.59-.09.06-.07-.52-.75-.64.06-.11-.52-.1L25,12.08l-1-.18-.13-.49-.58-.09-.1-.44-.48-.11-.17-.52-1-.13-.14-.48-.55-.14-.15-.45L20.06,9l-.2-.44-1.45-.18-.18-.51-.5-.07-.13-.49-1.09,0-.24-.6-1-.12-.16-.44L13.45,6l-.23-.49-1.7-.07L11.33,5a4.75,4.75,0,0,1-.54,0c-.48-.09-1,.06-1.39-.45-.15-.19-.59-.18-.9-.19-.61,0-1.23,0-1.86,0l-.23-.5L3.54,3.72c-.3,0-.57,0-.83-.27s-.63-.19-1-.22S.9,3.18.41,3.16A11.34,11.34,0,0,1,.39.08C2.2-.14,4,.17,5.87.11L6.09.6l1.74,0c.52,0,1.05,0,1.57,0a1.89,1.89,0,0,1,1.41.44c.21.22.72.16,1.12.23l.16.45,1.05,0,.25.5L15,2.46l.17.47,2.32-.05.15.55.06-.06.7.68.87.06.76.69.1.43,1.08.09.18.41L22.5,6l.15.46,1.61.05.12.55.49.16.27.93c.44,0,.63.28.69.65l.93.24c0,.35.23.6.68.52l.13.49.54.09c.12.25.09.6.5.63.09,0,.15.29.24.47l1,.21.33,1,1.06.11.15,1,.41.14.15.57.55.14.11.46,1.1.05L33.85,16l1,.3.25,1,.43.16c.26.77.22.9.74,1.12l.07.55.47.11.11.44.57.11.15,1L38,21l.28,1.13.45.1.14,1.07c.4,0,.69.2.65.64l.48.17.12,1.59.43.15c.18.48.07,1.09.78,1.26l0,2.15a2.18,2.18,0,0,1,1.25,1.93c0,.59,0,1.18,0,1.77l.51.21a2.21,2.21,0,0,0,0,.25c.09.6,0,1.23.55,1.73.2.16.15.64.17,1,.06,2,.1,4,.16,6,0,.25,0,.5,0,.77l.49.23,0,1c-.35,0-.68.14-.65.64l-2.19,0L41,44.11l-.09-4.73-.52-.17a.84.84,0,0,1,0-.2c0-1.14,0-2.27-.08-3.41a3.61,3.61,0,0,0-.15-.86.78.78,0,0,0-.41-.39l-.2-1.1-.5-.16,0-2.25-.53-.19L38.18,29l-.45-.14-.12-1.66L37,27l-.1-.43-.5-.12c0-.25,0-.48,0-.7-.07-.44,0-1-.6-1.14-.1,0-.12-.3-.18-.47L35.19,24,35.06,23l-.47-.26-.22-1-.43-.07-.12-.6-.48-.1c0-.45-.18-.69-.65-.62l-.11-.49-.45-.09-.27-1Z"/><path class="cls-1" d="M77.13,17.07l-1,.19-.14.43L75,18l-.16.46-.56.09-.1.46-.93.16-.14.54-.52.16-.14.41-.57.09c-.07.28-.11.56-.47.65-.11,0-.16.32-.24.52l-1,.08-.15.61-.41.1-.12.45-.56.1-.08.5-.6.59.06.07-.61.21,0,1-.51.16L67,25.9l-.47.14-.11.44-.43.1-.22,1.13-.45.12-.09.47-.45.15c-.08.57-.08.57-.53.79L64,30.36l-.4.15a4.67,4.67,0,0,0-.07.57.84.84,0,0,1-.3.62,3.36,3.36,0,0,0-.51,1l-.32.11L62.29,34l-.55.26-.11,1.09-.41.18-.17,3.33-.52.17.06,3-.47.21L60,44.45c-.31.14-.75.08-.55.59l-2.34,0-.27-.94L56.4,44l0-1.93.5-.24,0-2.72.59-.23-.05-2.94.54-.19,0-1.52.55-.28.19-1.61.44-.12.07-.58.46-.2.23-1.67.42-.16a.49.49,0,0,1,.53-.6l.21-1.72,1-.9.24-.84.44-.15.06-.54c.67.1.3-1,1.07-.79l.13-1,.58-.19.1-.5.42-.09.11-.6.55-.08.13-.5.44-.15.07-.51.53-.11.13-.45.48-.11.07-.58.55-.09.12-.45,1-.29.15-.43.55-.1.1-.49c.46,0,.69-.18.63-.66l.94-.13.16-.45.58-.16.12-.45,1.1-.2.11-.47c.45,0,.68-.18.63-.67L75.88,14l.16-.43,1.12-.28.12-.46.56-.08.12-.47,1.64-.14c.18-.6.7-.59,1.18-.62s1.13,0,1.7,0l.24-.56a6.15,6.15,0,0,0,.75,0c.44-.08.91,0,1.25-.47.14-.21.66-.22,1-.23,1,0,2-.05,3-.07l.2-.52,2.9-.05.22.42,1,.07,0,2.45-.75.69-5.18.09-.19.55c-.59,0-1.2,0-1.81,0s-1,.13-1.47.2c0,0-.12,0-.13,0-.44.69-1.22.37-1.85.63l-.16.39-1.8.13-.11.57-.56.1-.13.46C78.36,16.61,77.58,16.23,77.13,17.07Z"/><path class="cls-1" d="M1.84,11.76l-.18-.5-1,0-.14-.59L0,10.51,0,9.4l.41-.19.12-1.1a25.07,25.07,0,0,1,4.75.1l.19.47,2.31,0L8,9.16c.5,0,1,0,1.53,0s1.09-.18,1.53.43c.16.22.7.17,1.12.25l.15.47,1.62,0,.12.6c.34,0,.62.12.6.53l1.76.21.12.47.6.09.17.42.35.06c.48.05,1,0,1.28.54.08.13.35.15.54.21l.1.41.56.08.14.53c.7-.1.85,1,1.64.73l.16.52.57.09.07.33,1.2.76.12.52.54.11.15.44.44.12.12.51,1.07.28.17.94.53.1L27.83,21l-.08.09.5.11c.07.29.11.67.56.62l.27,1c.32.07.6.16.67.56,0,.11.26.19.44.31l.09.49.44.1c.08.32.1.73.63.69l.21,1.62.45.14.1.48.52.21.2,1,.45.18.13,1,.52.24.21,2.1.45.17c0,.15,0,.29,0,.42.1.53,0,1.1.54,1.52.17.13.15.54.17.83,0,.45,0,.91,0,1.35l.51.22.21,3,.48.2c.23,1.53.08,3.08.19,4.62l-.16-.12-.73.64.2.2-2.27,0-.59-.59-.12.06c0-.67,0-1.35,0-2-.07-1.2-.17-2.39-.26-3.59,0-.09,0-.23,0-.26-.55-.38-.37-1-.53-1.53l-.45-.1-.21-3.44-.46-.23-.25-1.55-.42-.18-.13-1.08-.46-.15-.14-.56-.53-.13L29,28l-.44-.13-.19-.57-.46-.11-.29-1.6-1-.26-.07-1c-.3-.1-.57-.2-.66-.57,0-.1-.3-.14-.5-.22l-.18-1-.52-.21-.12-.47-.32,0-.71-.76-.1.09-.14-.47-.45-.1-.13-.53L22.19,20l-.12-.47-.47-.1-.14-.56-1.08-.09-.07-.36-.75-.65.06-.09-.5-.1L19,17.1l-1.06-.22-.1-.45-.59-.09-.11-.44-1-.21-.25-.5-.93,0-.19-.52a1,1,0,0,1-.9-.42c-.14-.22-.6-.24-1-.36l-.15-.41-1,0-.27-.6-2.83.06c-.09-.23-.15-.38-.22-.54l-1.93-.17c-.09,0-.23,0-.26-.05-.38-.56-1-.45-1.5-.45C3.76,11.71,2.81,11.74,1.84,11.76Z"/><path class="cls-1" d="M.74,19.08l-.11-.44-.48-.2,0-2.12.61-.62c.21-.13.45-.22.66.08a.65.65,0,0,0,.47.16c1.2.06,2.4.1,3.63.15l.23.45c.52,0,1,0,1.52.05s1.09-.15,1.52.44c.15.21.66.17,1,.24l.17.44,1.71.06.13.6,1.1.05.15.49,1.09,0,.16.46,1.08.23.13.43.45.1.13.42.09-.09.72.65-.08.11,1.05.09.13.52.46.13.17.48.51.07.11.35.67.64,1.07.83.12.51.52.08.12.53.44.13.11.45.61.17L23,27.28l.55.11.19.51.44.15.08.51.49.16.11.93.48.19.2,1.08.45.1.26,1.71.48.19.12,1.54.47.21c.17.43.09.95.57,1.29.18.12.14.59.16.91s0,.9,0,1.36l.54.25a35.84,35.84,0,0,1,.16,5.86,6.76,6.76,0,0,1-2.7.28c-.34,0-.48-.19-.5-.51s.1-.72-.34-.94c-.08,0-.05-.34-.06-.52-.08-1.17-.16-2.35-.24-3.55L24.38,39l-.05-2.26c-.91-.4-.59-1.21-.76-1.87l-.46-.16L23,33.59l-.56-.17-.18-1.63-.45-.13-.15-1.07-.56-.12-.1-.55-.41-.1-.37-1-.93-.3-.12-1-.44-.12-.72-.7L18,26.26l-.47-.12-.12-.46-.57-.18-.1-.46L16.14,25,16,24.51l-.44-.09-.2-.54-1-.12-.08-.4-.77-.58,0-.1-1-.1-.2-.47L11.85,22l-.14-.62-1.77,0L9.72,21,8.15,20.8,8,20.31,6.8,20.24l-.18-.45c-.8-.22-1.73.26-2.48-.52Z"/><path class="cls-1" d="M70.77,34.32l-.47.2-.09.5-.42.15-.08,1-.58.23-.09,1-.43.21-.13,2.23-.53.26L68,43.71l-.51.29c0,.2,0,.4,0,.6a.44.44,0,0,1-.36.5.68.68,0,0,0-.25.09c-.49.4-.48.4-.81,0L64.34,45l-.1-5.34.47-.21.23-1.06.44-.12.09-1.63.54-.27.06-1.66.47-.14L66.6,34l.45-.15.24-1.11.45-.13,0-1.12c.69-.16.5-.8.69-1.26l.39-.13.21-.94c.23-.16.75-.11.52-.66l.52-.16.08-.55.44-.14.24-1,.91-.31.31-1,1-.25.13-1,1.11-.28.12-.44c.26-.07.67,0,.56-.54l1.07-.27.11-.44.57-.12.1-.58.9-.13.16-.42,1.1-.25.24-.48,1.64-.12.13-.45,1.1-.15.18-.49,1.55-.23.16-.41,2.37-.27c.15-.46.62-.49,1-.51,1.91-.06,3.81-.08,5.77-.11l.06,3c-1.3.4-2.68.11-4,.32l-.15.38-3.5.3-.21.49L84.29,22l-.13.44-1.71.3-.18.44-.89.15-.17.43L80,23.9l-.19.46-1,.27-.12.39-.51.12L78,25.7l-.47.12-.11.43-.17.07c-.41.08-.85.06-1,.59,0,.1-.3.14-.48.21l-.07.38-1.1.35-.12.93-.59.12-.07.56-.44.14-.09.38-1.14,1,0,.88c-.27.13-.52.27-.57.64,0,.14-.33.23-.53.36Z"/><path class="cls-1" d="M31.77,2.6l0-.66c.54.06.54.06.52.65Z"/></g></g></svg>