<svg xmlns="http://www.w3.org/2000/svg" viewBox="0 0 737 36.25"><defs><style>.cls-1{fill:#d79f2e;}</style></defs><title>VemosQuote2B</title><g id="Layer_2" data-name="Layer 2"><g id="bloques"><path class="cls-1" d="M171.82,3.48V33.67c-.83.69-1.49,1.36-2.14,1.89h-7.07a12.94,12.94,0,0,1-1.48-1.22c-.51.45-1,.86-1.48,1.27a7.05,7.05,0,0,1-1.21-1.47h-5.33c.18.25-.12,2.14-2.21,1.15l-1.2-1c-1.65,0-3.52,0-5.39,0-.19,0-.37.22-.56.34l-1.12,1.12c-.58-.71-1.17-1.42-2-2.38V3.53A254,254,0,0,1,171.82,3.48Zm-4.57,4.24A129.4,129.4,0,0,0,145,7.79c-.57,14.34-.47,19.35.49,23.64,5.88,0,11.77,0,17.65,0a4.27,4.27,0,0,0,1.24-.4c.33-.33.67-.66,1-1l1.51,1.38C167.75,26.56,167.86,18.93,167.25,7.72Z"/><path class="cls-1" d="M423.06,2.9h30.88c.68,5.77.77,24,.17,32.4-1.53,1.26-2.27-.65-3.44-.86l-1,1-2.21-1.36c-1,.56-1.92,1.1-3.12,1.77l-2-1.57-1.46,1.29c-1.49-1.65-3.1-2.19-4.9-.67s-3.39,1.08-5.08-.77h-7.22c-.31-.42-.57-.6-.57-.78C423.05,23.41,423.06,13.46,423.06,2.9Zm26.26,28.4c1-4.18,1.08-10.28.46-23.68a127.22,127.22,0,0,0-22.35,0V31.3Z"/><path class="cls-1" d="M0,34.14V3.46c.31-.26.48-.54.66-.54q14.88,0,29.76,0c.93,4.49,1,9.89.38,20.9l-1.05,1.05,1.32,1.48L29.74,27.8l1,1a6.45,6.45,0,0,1,.34,1.27c.06.68,0,1.38,0,1.87L29,34.14ZM2.74,13.67c.52,1.28,1,2.5,1.5,3.7.81,1.89-1.86,2.62-1.4,4.48l1.35,1.5c.2,2-.18,4.1.18,6.1,12.31.64,18.16.54,22.58-.39,0-7.07,0-14.15,0-21.23,0-.17-.27-.35-.53-.67H4.81L3,10.75,4.13,12Z"/><path class="cls-1" d="M317.15,2.9h30.22c.7,5.73.79,22.65.15,31.24h-10.2l-1.42,1.42h-4.25l-1.44-1.14-1.38,1.14c-.95-.37-1.46-1.85-2.88-1.28l-1.51,1.39-1.75-1.61-4,2-2.1-3.44c0-9.11,0-19.09,0-29.07C316.59,3.37,316.89,3.2,317.15,2.9Zm4.23,4.26a149.56,149.56,0,0,0,0,23.76c12,.59,17.6.5,22.25-.4.07-6.76,0-13.54,0-20l1.44-1.43-2.28-2Z"/><path class="cls-1" d="M382.9,35.37l-1.61-1.27-1.44,1.21L378.41,34l-1.72,1.61-3.09-1.47h-18l-1.39,1.16-1.61-1.61c-.14-.18-.41-.35-.41-.53q0-14.86,0-29.72c4.33-1,15.53-1.14,30.77-.47A269.41,269.41,0,0,1,382.9,35.37ZM379.15,7.16H358.7a9.46,9.46,0,0,0-1.41,0c-.19,0-.34.29-.75.67,0,6.6,0,13.41,0,20.22,0,1.1-.47,2.37.72,3.22h19.83a9.46,9.46,0,0,0,1.41,0c.19,0,.35-.3.63-.56Z"/><path class="cls-1" d="M418.91,34.14h-11.8c-.57.51-1.1,1-1.73,1.49-1.3.6-2.81-.78-2.81-.78h-3.31l-1.54,1.4L396.49,35c-2.86-.52-6,.11-9.06-.32-.77-5.41-.86-23.54-.15-31.8h31c.25.25.55.4.58.59a10.15,10.15,0,0,1,0,1.46ZM414.65,7.65a127.66,127.66,0,0,0-22.72,0V31.08a128.6,128.6,0,0,0,22.72,0Z"/><path class="cls-1" d="M176.06,2.9h30.57c.37.42.66.59.66.76,0,10,0,19.89,0,30.1l-3.83.73-1.08,1.07H189.74c-.88-.36-1.38-2-3-1.39l-1.53,1.43-1.54-1.4-1.31,1.3-1.79-1.36h-4a5.21,5.21,0,0,1-.53-1.47C176.05,23,176.06,13.3,176.06,2.9ZM201.1,32c1-1.28,2.13-1.83,2.11-3.31-.08-6.54,0-13.07,0-18.82l-2.07-2.72H181l-2.12,2.13c0,5.83,0,11.75,0,17.67a5,5,0,0,0,.34,1.27l3.07,3.07h8.25l2.88-1.52A16.77,16.77,0,0,1,195.25,32Z"/><path class="cls-1" d="M211.56,3h28.81c.67,0,1.35.1,1.91.15.24.31.5.49.5.67,0,9.92,0,19.85,0,29.7-.75.75-2.11,2-2.11,2H227.91l-1.54-1.42h-4.14s-1.07,1.12-1.8,1.78a30.94,30.94,0,0,0-3.13-1.07h-5.14a12.75,12.75,0,0,1-.58-2C211.55,23.15,211.56,13.44,211.56,3Zm27,26.2V9.3l-2.15-2.14H218.05a13.46,13.46,0,0,0-1.42,0c-.2,0-.38.23-.68.44-.53.58-1.15,1.25-1.52,1.67v20.1l2,1.91h20Z"/><path class="cls-1" d="M34.08,33.83v-7.5s.87-.76,1.3-1.19a4.35,4.35,0,0,1-.59-1.54v-7l.71-1.49V5.21L34.12,3.73C35,2.82,51,2.59,66.32,3.28c.85,1.16-1,1.16-.85,2L67,7c-.42.74-.85,1.49-1.66,2.93V33.78A248.39,248.39,0,0,1,34.08,33.83Zm4.26-3.73c8.22,0,15.84,0,23.46,0,.15,0,.31-.33.59-.64L61.21,28l1.24-1.44-1.3-1.47,1.33-1.47V9.3l-2.1-2.09c-7.11,0-14.24,0-21.38,0-.18,0-.35.28-.66.54Z"/><path class="cls-1" d="M258,35.93l-2-1.88-2.69,1.29a15.05,15.05,0,0,1-1.41-1.2h-4.26a3.54,3.54,0,0,1-.54-1.33q0-14.52,0-29.05c.86-1.18,2.13-.71,3.23-.71,9.18,0,18.36,0,27.32,0,.37.4.6.55.67.75a3.12,3.12,0,0,1,.05.7V20.75c-.52.52-1,1-1.43,1.5-.66,1.88,2.1,2.46,1.48,4.46-.4,1.27-.08,2.77-.08,4.1-2.22,1.08-.85,3.52-2,5l-1.65-1.48c-.37.38-.71.71-1.2,1.23h-5.91c-.6-.51-1.12-.94-1.83-1.51l-3.14,1.82-2-1.4ZM270.38,5.52l-15,.84c-1,1.18-2.27.66-3.42.83-.19,0-.35.29-.53.45l-1.53,1.58V29.49s1.59,1.38,2.11,1.81h5.66c.61-.44,1.08-.81,1.54-1.18A10.36,10.36,0,0,1,260.4,32h11.77l1.9-2.07V9.3Z"/><path class="cls-1" d="M599.26,16.4l1.7-1.83c-.49-.84-1-1.75-1.51-2.62l1.18-1.44c.29-1.35-.77-1.81-1.14-2.6a9,9,0,0,1-.3-2.84l2-2.17h29c.7,5.88.75,24,.08,31.24H599.89c-.29-.26-.58-.41-.61-.59a9.73,9.73,0,0,1,0-1.43Zm5.09-9.11c-1,4.19-1.08,10.29-.46,23.68a126.26,126.26,0,0,0,22.35,0V7.86c-.3-.26-.47-.55-.64-.55Q615,7.28,604.35,7.29Z"/><path class="cls-1" d="M69.58,2.9h31.31c.68,6,.73,23.66.09,31.24H70.15a1.92,1.92,0,0,1-.46-.48,1.48,1.48,0,0,1-.1-.67c0-5,0-10,0-15L71,16.38V10.71l-1.42-1.5Zm4.26,4.26v21.4a1.9,1.9,0,0,0,0,.7c.08.21.31.35.7.62h8.53a15.51,15.51,0,0,0,1.25,1.4c1-.31,1.5-1.83,3-1.24l1.46,1.36a5.11,5.11,0,0,1,1.55-.81h6.51c.65-1.26,1.28-2.48,2.14-4.17,0-5.81,0-12.19,0-18.57,0-.18-.28-.37-.55-.69Z"/><path class="cls-1" d="M635.09,2.9h30.5a243,243,0,0,1,0,31.24H635.12C634.44,27.82,634.42,9.66,635.09,2.9Zm4.51,4.26c-1,1.27-2.33,1.76-2,3.42l1.29,1.53L637.6,13.6V26.43l1,1.12c.77,1.49-.22,2.8.89,3.75h22.4V8.38a1.45,1.45,0,0,0-.14-.66,3,3,0,0,0-.53-.56Z"/><path class="cls-1" d="M136.3,34.14H105.63c-.26-.29-.55-.46-.55-.64,0-9.92,0-19.84,0-29.78a3.2,3.2,0,0,1,.5-.47,1.18,1.18,0,0,1,.61-.21h29.44c.38.42.67.59.67.76C136.3,13.71,136.3,23.63,136.3,34.14Zm-3.53-4.82V22.24a4,4,0,0,0-.69-1.51,10.27,10.27,0,0,1,1.4-1.2V9.31a13.51,13.51,0,0,1-2.13-2.15H111.48a9.79,9.79,0,0,1-1.41.15c-.19,0-.35.3-.52.45A165.28,165.28,0,0,0,110,31.3h8.48s1-.83,1.49-1.26c1.53-.56,2,1,2.85,2h8.5C132.12,30.62,132.77,29.32,132.77,29.32Z"/><path class="cls-1" d="M312.38,26.32,314,28.08c-.34.72-.72,1.51-1.55,3.23,0,.55-.11,2.14-.19,3.7a4,4,0,0,1-1.26.55c-3.55,0-7.1,0-10.65,0l-1.52-1.38-1,1c-1.52.67-3.13.33-4.72.22L292,34.34l-2.31,1.42-2.19-1.43c-.36.33-.85.76-1.39,1.23h-2.77c-.25-.34-.72-.7-.72-1.06,0-9.94,0-19.87,0-29.81a6.82,6.82,0,0,1,.25-1.32c.17-.15.34-.43.52-.43q14.19,0,28.33,0L313.72,5l-.91,1.09c-.09.08-.41.25-.41.41Q312.37,16.42,312.38,26.32Zm-2.81,5V8.72a2,2,0,0,0,0-.7c-.08-.2-.31-.35-.68-.74-6.6,0-13.42,0-20.23,0-1.1,0-2.36-.48-3.21.73V30a1.81,1.81,0,0,0,0,.7c.08.2.3.35.57.62Z"/><path class="cls-1" d="M705.73,3.2c1.15-.08,1.82-.16,2.5-.16h28c.35.35.58.49.67.69a1.89,1.89,0,0,1,0,.68V15c-1.81,2.18-1.81,2.18-.09,4.45-.33.33-.68.65-1,1-.11.12-.11.33-.16.5l1.13,1.13-1.18,1.49c.36.43.77.92.61,1.48v2.79c.24.43-.24.94-.71,1.45.46.49.93,1,1.42,1.46v2.85c-.47.23-.85.63-1.23.63-9.86,0-19.73,0-29.37,0-.37-.44-.65-.61-.65-.79C705.73,23.58,705.73,13.68,705.73,3.2Zm27,28.1c0-8.14,0-15.7,0-23.25,0-.18-.29-.35-.44-.52-13.6-.62-19.55-.5-23.68.47q0,11.34,0,22.67c0,.17.29.34.56.63Z"/><path class="cls-1" d="M594.55,34.14H564.27c-1-.88-.32-2.15-.55-3.29.44-.49.9-1,.75-1.57V26.51c.22-.47-.25-1-.71-1.47l1.31-1.44-1.5-1.73a7.4,7.4,0,0,1,.85-1.74c1.53-1.83,1.1-3.38-.6-4.93a20.38,20.38,0,0,1,1.36-1.54V9.47c-.46-.42-.93-.93-1.62-1.69.66-1.41,1.38-2.95,2.16-4.88h28.75A259.67,259.67,0,0,1,594.55,34.14ZM568,31.3h12a12.45,12.45,0,0,0,1.5-1.42h2.62a26.36,26.36,0,0,0,2.25,1.78l2.35-1.43c.47.38.94.74,1.4,1.1.79-.83,1.42-1.5,1.31-2.17V19.38a4.94,4.94,0,0,0,2-1.53c-.43-.44-1.29-1.35-1.29-1.35V7.64a148.43,148.43,0,0,0-24.14,0Z"/><path class="cls-1" d="M700.79,3.51V17.73c.2.56-.27,1.3-.93,2.32a16.28,16.28,0,0,0,1.64,2.21V33.79c-.56.24-.74.47-.93.47H670.9c-.91-4.73-1.07-17.28-.41-30.79C677.14,2.86,694.89,2.87,700.79,3.51ZM697.24,31.3V22.19l1.36-1.48-1.22-1.42c.47-.65,1.18-1.17,1.22-1.75.08-1.08.44-2.29-.64-3.26a3,3,0,0,1-.37-3.8c.4-.78,1.31-1.31,1-2.41-1.16-.9-1.24-2.56-2.25-3.59-1.37,1-1.9,3-4,2.68l-1.5-1.35-1.48,1.35h-4.22c-.52-.47-1-.92-1.51-1.36l-1.37,1.37c-1.28,0-2.9-.1-4.5,0s-3.29-.72-4.77.67c0,5.62,0,11.28,0,17,0,.19-.24.37-.36.56l-1,1L673,27.9c.25,1.1-.5,2.35.59,3.4Z"/><path class="cls-1" d="M488.49,30.64c.75.9,1,1.24,1.33,1.57-.67.67-1.34,1.34-2,1.93H465.15c-.52.58-1,1.06-1.53,1.52-.5-.46-1-.93-1.53-.81H459.3c-.23-1-.63-1.42-.63-1.8,0-9.88,0-19.75,0-29.4.5-.36.68-.6.86-.6,9.44,0,18.88,0,28.27,0,1.44,1.38-.27,4,2.1,4.9-.49.53-.95,1-1.39,1.53Zm-2.61-1.38c0-7.22,0-14.34,0-21.46,0-.17-.29-.34-.56-.64H463.62l-2.11,2V27.73a11.16,11.16,0,0,0,0,1.42c0,.2.27.36.41.54l1.71,1.71h20.09Z"/><path class="cls-1" d="M520.26,0l5,5-1.29,1.47,1.32,1.48-1,1c-.12.19-.35.37-.35.56,0,7.55,0,15.1,0,22.45l1.33,1.6c-.91.9-22.81.94-31,.14V3.48c.28-.26.44-.53.63-.55,1.18-.18,2.47.38,3.48-.94ZM499,31.32c6.92,0,13.8,0,20.69,0,.17,0,.34-.25.8-.61V19.47a5.85,5.85,0,0,0,2-1.63c-.45-.46-1.29-1.36-1.29-1.36V7.73a155.62,155.62,0,0,0-24.14,0V29.32Z"/><path class="cls-1" d="M559.47,34.14H530.24c-.24-.22-.47-.36-.55-.57s0-.45-.73-.69V13.75c.23-.49-.24-1-.72-1.5.33-.33,1.43-1.23,1.43-1.23V3.72c4.78-.91,16.75-1.07,29.36-.41.15.17.42.35.42.52C559.47,13.73,559.47,23.63,559.47,34.14ZM532.61,23.67c0,1.12-.07,2.26,0,3.39.11,1.31-.44,2.7.6,4.11h20.29c.19,0,.38-.16.62-.27L556,29V19.38a15.56,15.56,0,0,0,2-1.54c-.45-.45-1.29-1.36-1.29-1.36V7.73c-7.86-.66-18.47-.6-24.15.16V21l-1.23,1.23Z"/><path class="cls-1" d="M148,11.42h16.27c1,1.66.39,3.39.5,5a52,52,0,0,1,0,5.72c-.06,1.59.47,3.25-.49,4.87H148.05c-1-1.65-.39-3.38-.51-5a54.57,54.57,0,0,1,0-5.72C147.61,14.71,147.07,13.05,148,11.42Z"/><path class="cls-1" d="M447.31,27H430.86c-.27-.27-.49-.42-.57-.62a2,2,0,0,1,0-.7V12.28c.85-1.19,2.12-.71,3.21-.72,4.45-.05,8.9,0,13.13,0,.38.39.65.55.68.74a9.44,9.44,0,0,1,0,1.41Z"/><path class="cls-1" d="M22.72,10V26.52c-1.62,1-3.31.42-4.91.5-1.91.1-3.83,0-5.74,0h-5V12l1.56-1.54c.18-.15.34-.41.53-.44a11.35,11.35,0,0,1,1.43,0Z"/><path class="cls-1" d="M340.81,11.55V26.6c-.29.26-.47.55-.64.55-5.18,0-10.37,0-15.6,0a3.13,3.13,0,0,1-.45-.5,1.16,1.16,0,0,1-.22-.61c0-4.68,0-9.36,0-13.82.42-.38.59-.67.76-.67C329.84,11.55,335,11.55,340.81,11.55Z"/><path class="cls-1" d="M376.31,11.42v15c-.29.27-.44.54-.63.56a9.46,9.46,0,0,1-1.41,0H360.12c-1.19-.85-.7-2.11-.71-3.21-.05-4,0-8,0-11.71.4-.38.55-.65.74-.67a9.46,9.46,0,0,1,1.41,0Z"/><path class="cls-1" d="M394.77,26.87v-15c1.9-.91,3.85-.24,5.72-.39a37.79,37.79,0,0,1,5.63,0c1.85.12,3.78-.51,5.69.38v15c-1.9.92-3.85.24-5.72.39a37.65,37.65,0,0,1-5.62,0C398.61,27.13,396.68,27.76,394.77,26.87Zm11.13-2-.5-.51a4.64,4.64,0,0,0-.45,1c0,.11.29.3.45.46Z"/><path class="cls-1" d="M183.16,11.35c3.13.92,4.94-2.08,7.94-1.12l1.27,1.13L193.85,10h4.22c.66.93,1.9,1.38,2.21,3.08l-1.47,2.08v8.05l1.65,2.86c-1.18,1.19-4.72,1.28-16.84.73-.15-.17-.44-.34-.44-.52C183.15,21.57,183.16,16.85,183.16,11.35Z"/><path class="cls-1" d="M218.69,10h7.73a19.33,19.33,0,0,0,1.44,1.45c.45-.39.94-.82,1.48-.74h4.19c.24-.22.7.13.72.49.07,2.13,0,4.26,0,6.54.35.44.79,1,1.3,1.58-.37.43-1.27,1.73-1.27,1.73v6h-15c-.24-.24-.53-.39-.56-.58a9.71,9.71,0,0,1,0-1.43Z"/><path d="M58.22,10.13V26.59c-.29.27-.46.56-.63.56-4.72,0-9.43,0-14.19,0a3.13,3.13,0,0,1-.45-.5,1.16,1.16,0,0,1-.22-.61c0-5.15,0-10.31,0-15.24.41-.38.58-.67.75-.67C48.19,10.13,52.91,10.13,58.22,10.13Z"/><path class="cls-1" d="M254.19,11.42h15c.27.29.49.43.57.63a2,2,0,0,1,0,.7V26.19c-.86,1.19-2.12.71-3.22.72-4,.05-7.95,0-11.71,0-.37-.4-.64-.55-.67-.74a9.46,9.46,0,0,1,0-1.41Z"/><path class="cls-1" d="M622,21.12l-2.58.66a13,13,0,0,0-.24,1.85,27.24,27.24,0,0,0,.38,2.8c.76-1.64,1.17-2.51,1.58-3.38,2,.82,0,2.47,1,3.24-.45.46-.62.77-.78.77-4.41,0-8.81,0-13,0-.29-.41-.53-.59-.53-.77,0-4.69,0-9.38,0-14.39,2.18-.75,4.51-.28,6.77-.35s4.63,0,6.84,0c1.07,1.71.47,3.37.57,4.95C622,17.9,622,19.31,622,21.12Zm-5.84,1.4c.31,1.1.21,2.2,1.45,1.23a4.21,4.21,0,0,0-1.24-.83c-.06-.85-.12-1.69-.21-2.83l-2.69.18C614.22,21.69,614.9,22.7,616.11,22.52Zm-1.42-4.74c.37.38.53.67.7.67.62,0,1.44.19,1.8-.13s.41-1.17.45-1.8c0-.13-.74-.52-.89-.42A25.18,25.18,0,0,0,614.69,17.78Zm-3.89,7.06.5.91c.16-.16.47-.35.44-.46a4.14,4.14,0,0,0-.44-1Zm9.73-8.32c-.16-.16-.35-.47-.47-.44a4.27,4.27,0,0,0-.95.44c.16.16.35.47.47.45A4.57,4.57,0,0,0,620.53,16.52Zm-9.43,6.19.91-.51c-.16-.16-.35-.47-.47-.44a4.27,4.27,0,0,0-.95.44Z"/><path class="cls-1" d="M93.72,10.88V26.39c-.84,1.2-2.11.71-3.2.72-3.76.06-7.52,0-11.91,0l-2-2.57,1.2-2.36c-.57-1.67-2.35-3.66.32-5.58V12.44l1.87-2c.25-.11.45-.28.64-.28,3.3,0,6.59,0,9.88,0C91.59,10.21,92.84,9.73,93.72,10.88Z"/><path class="cls-1" d="M641.86,26.21V11.42h16.52c1.08,1.7.31,3.5.53,5.19a22.09,22.09,0,0,1,0,5c-.17,1.68.5,3.44-.45,5.09q-8.06,0-16.09,0C642.19,26.69,642,26.38,641.86,26.21Zm4.26-6.85c-1-1-1.91-1-2.92.13l.43,2.11,2.49-.52Zm4.33.51c-.3-.29-.78-1-1-.93-.77.25-.76,1.75-.05,2.28.11.08.43.1.46,0C650.05,20.89,650.19,20.49,650.45,19.87Zm2.74-6.19c-.16-.16-.35-.47-.47-.44a4.27,4.27,0,0,0-1,.44c.16.16.35.47.47.45A4.57,4.57,0,0,0,653.19,13.68Z"/><path class="cls-1" d="M113.6,25.05V16.59l-1.07-1.31c.53-1.13,1.08-2.27,1.71-3.61l4.44-.22,1.54-1.22c.47.48.8.81,1.14,1.14,2.16.77,3.87-.48,5.46-1.57l2.4,2.31V26.73c-1.76,1-3.62.32-5.39.41a38.08,38.08,0,0,1-5.55,0c-1.89-.17-3.85.47-6-.43Z"/><path class="cls-1" d="M289.69,27V12c.28-.27.44-.54.62-.56a9.59,9.59,0,0,1,1.42,0h12.72c1.2.86.71,2.12.72,3.22.05,4,0,8,0,11.71-.4.37-.55.64-.74.67A9.46,9.46,0,0,1,303,27Z"/><path class="cls-1" d="M714.16,18.66l-1.3-.54v-6c.3-.27.47-.55.65-.55q7.05,0,14.11,0c1.18.86.7,2.12.71,3.21,0,4,0,7.94,0,11.81-1.83,1.18-3.63.39-5.32.61a21.92,21.92,0,0,1-5,0c-1.67-.15-3.41.48-5.34-.57.13-.72.27-1.52.45-2.51l1.91,1.75.66-2.11-3.24-1.58c.58-1.19,1.15-2.36,1.68-3.49a3.08,3.08,0,0,0,1.33-.21c.23.91.13,2,1.37,1a11.25,11.25,0,0,0-1.37-1c-.08-.19-.17-.87-.4-.92C714.24,17.33,714.1,18,714.16,18.66Zm6.48-5.82c-1,1-1,1.91.13,2.92l2.11-.42c-.2-1-.37-1.78-.51-2.5Zm-5,.84c-.15-.16-.35-.47-.46-.44a4.14,4.14,0,0,0-1,.44c.16.16.35.47.47.45A4.57,4.57,0,0,0,715.67,13.68Zm10.45,10.86-.51.5a4.64,4.64,0,0,0,1,.45c.11,0,.31-.29.46-.45Z"/><path class="cls-1" d="M572.28,27V11.78l2.4-1.35s.29.28.73.73L576.86,10h4c.35.31.83.74,1.62,1.42h5.46v15c-.25.24-.39.48-.59.57a2.1,2.1,0,0,1-.71,0Zm13-7.47.51.5a4.07,4.07,0,0,0,.44-.95c0-.12-.28-.31-.44-.47Z"/><path class="cls-1" d="M688.71,22.3c2.3.27,3-.19,3.72-.66,1.08,1.49.29,3.18.52,4.76-.35.26-.7.73-1.06.74-4.7.05-9.39,0-13.87,0-.37-.41-.67-.58-.67-.75q0-7.09,0-14.16a3.6,3.6,0,0,1,.53-.51,1.25,1.25,0,0,1,.62-.19h14c.84,2.09.26,4,.4,5.81,0,.37-.36.78-.55,1.16-1.18-.33-.66-1.45-1.14-2.45l-4.06-.59,1.35-1.7c-.34-1.16-1.26-.8-2.38-.64-.56,1.95-.17,4.05-.29,6,.34.91,1.64,1.14,1.42,2.32,1.19-.21,1.41,1.09,1.44.81-3.24-.6-5.12-1.2-6.85-.53-.18,1.49-.89,2.86.39,3.89L684,24.33c1.93,0,2.78,2.94,4.59.77C687.53,24.14,687,23,688.71,22.3Zm-7-2.78c-.37-.37-.53-.66-.69-.67-.62,0-1.45-.19-1.81.13s-.41,1.18-.45,1.8c0,.14.74.52.89.42A25.18,25.18,0,0,0,681.75,19.52Z"/><path class="cls-1" d="M481.39,11.42v15c-.28.26-.43.49-.63.57a2,2,0,0,1-.7,0H466.63c-1.19-.85-.71-2.11-.72-3.21-.05-4,0-7.95,0-11.71.4-.38.55-.65.74-.67a9.46,9.46,0,0,1,1.41,0Z"/><path class="cls-1" d="M501.27,27V12c.29-.27.44-.54.63-.56a9.49,9.49,0,0,1,1.41,0H516c1.19.86.7,2.13.72,3.22,0,4,0,8,0,11.71-.41.38-.56.65-.75.67a9.46,9.46,0,0,1-1.41,0Zm3.53-8.41a3,3,0,0,0,0,4.3A3,3,0,0,0,504.8,18.63Zm8.72,1.65-.91.5c.16.16.35.47.46.45a4.64,4.64,0,0,0,1-.45Z"/><path class="cls-1" d="M552.06,27H537.15c-1.32-1.73-.17-3.73-.64-5.53a9.53,9.53,0,0,1,0-4.15c.35-1.9-.43-3.86.5-5.94h10.62l.94.95,3.21-1.16C552.83,12.32,552.84,18.63,552.06,27Zm-6.63-12.25c-.31-1.1-.21-2.2-1.45-1.24a4.05,4.05,0,0,0,1.29.84c.26.91-.69,2.19.83,2.72C546.72,15.23,546.72,15.23,545.43,14.79Zm1.05,10.46-.5-.92c-.16.16-.47.35-.45.47a4.57,4.57,0,0,0,.45.95Zm-6.39-2.54.92-.51c-.16-.16-.35-.47-.47-.44a4.07,4.07,0,0,0-.95.44Z"/></g></g></svg>