<svg xmlns="http://www.w3.org/2000/svg" viewBox="0 0 737 36.25"><defs><style>.cls-1{fill:#d79f2e;}</style></defs><title>VemosQuote2</title><g id="Layer_2" data-name="Layer 2"><g id="bloques"><path class="cls-1" d="M565.18,32.77V2.57c.83-.68,1.49-1.36,2.14-1.89h7.07a13,13,0,0,1,1.48,1.23L577.35.63a7.63,7.63,0,0,1,1.21,1.47h5.33C583.71,1.86,584,0,586.1,1l1.2,1c1.65,0,3.52,0,5.39,0,.19,0,.37-.22.56-.34L594.37.5c.58.7,1.17,1.41,2,2.37V32.72A254,254,0,0,1,565.18,32.77Zm4.57-4.24A130.42,130.42,0,0,0,592,28.46c.57-14.34.47-19.35-.49-23.65q-8.82,0-17.65,0a4,4,0,0,0-1.24.41c-.33.33-.67.66-1,1L570.1,4.84C569.25,9.69,569.14,17.31,569.75,28.53Z"/><path class="cls-1" d="M313.94,33.34H283.06c-.68-5.77-.77-24-.17-32.39,1.53-1.26,2.27.65,3.44.85l1-1,2.21,1.35L292.66.38l2,1.57L296.16.67c1.49,1.65,3.1,2.18,4.9.67s3.39-1.09,5.08.76h7.22c.31.42.57.6.57.78C314,12.83,313.94,22.78,313.94,33.34ZM287.68,4.94c-1,4.19-1.08,10.29-.46,23.68a125.31,125.31,0,0,0,22.35-.05V4.94Z"/><path class="cls-1" d="M737,2.1V32.78c-.31.27-.48.54-.66.54-9.92,0-19.85,0-29.76,0-.93-4.48-1-9.88-.38-20.89l1-1.06c-.44-.49-.87-1-1.32-1.47l1.33-1.48-1-1a6.45,6.45,0,0,1-.34-1.27c-.06-.69,0-1.38,0-1.87L708,2.1Zm-2.74,20.48c-.52-1.28-1-2.5-1.5-3.71-.81-1.88,1.86-2.61,1.4-4.47l-1.35-1.5c-.2-2,.18-4.11-.18-6.11-12.31-.64-18.16-.53-22.58.4,0,7.07,0,14.15,0,21.22,0,.18.27.36.53.67h21.6L734,25.5l-1.11-1.28Z"/><path class="cls-1" d="M419.85,33.34H389.63c-.7-5.73-.79-22.65-.15-31.24h10.2L401.1.68h4.25l1.44,1.14L408.17.69c.95.36,1.46,1.84,2.88,1.28L412.56.58l1.75,1.61,4-2,2.1,3.43c0,9.12,0,19.1,0,29.08C420.41,32.87,420.11,33.05,419.85,33.34Zm-4.23-4.26a149.43,149.43,0,0,0,0-23.75c-12-.6-17.6-.5-22.25.4-.07,6.76,0,13.54,0,20l-1.44,1.44,2.28,2Z"/><path class="cls-1" d="M354.1.87l1.61,1.28L357.15.93l1.44,1.32c.49-.47,1-.94,1.72-1.61L363.4,2.1h18L382.82,1c.61.6,1.11,1.1,1.61,1.61.14.17.41.35.41.53q0,14.85,0,29.72c-4.33,1-15.53,1.14-30.77.47A269.58,269.58,0,0,1,354.1.87Zm3.75,28.21H378.3a9.46,9.46,0,0,0,1.41,0c.19,0,.34-.3.75-.67,0-6.6,0-13.41,0-20.23,0-1.09.47-2.36-.72-3.22H359.89a11,11,0,0,0-1.41,0c-.19,0-.35.3-.63.57Z"/><path class="cls-1" d="M318.09,2.1h11.8c.57-.5,1.1-1,1.73-1.48,1.3-.6,2.81.77,2.81.77h3.31L339.28,0l1.23,1.23c2.86.52,6-.11,9.06.32.77,5.41.86,23.53.15,31.79h-31c-.25-.24-.55-.4-.58-.59a10,10,0,0,1,0-1.45Zm4.26,26.5a129.57,129.57,0,0,0,22.72,0V5.17a129.57,129.57,0,0,0-22.72,0Z"/><path class="cls-1" d="M560.94,33.34H530.37c-.37-.41-.66-.59-.66-.76,0-9.94,0-19.88,0-30.09l3.83-.73L534.6.68h12.66c.88.37,1.38,2,3,1.39L551.79.64l1.54,1.41L554.64.74l1.79,1.36h4a5.36,5.36,0,0,1,.53,1.48C561,13.26,560.94,22.94,560.94,33.34Zm-25-29.11c-1,1.29-2.13,1.84-2.11,3.32.08,6.53,0,13.07,0,18.82l2.07,2.71H556L558.13,27c0-5.83,0-11.75,0-17.67A4.88,4.88,0,0,0,557.77,8L554.7,4.94h-8.25l-2.88,1.53a16.64,16.64,0,0,1-1.82-2.24Z"/><path class="cls-1" d="M525.44,33.22H496.63c-.67,0-1.35-.11-1.91-.15-.24-.31-.5-.49-.5-.67,0-9.93,0-19.86,0-29.71.75-.74,2.11-2,2.11-2h12.78c.5.47,1,1,1.54,1.42h4.14S515.84,1,516.57.33a30.27,30.27,0,0,0,3.13,1.06h5.14a12.6,12.6,0,0,1,.58,2C525.45,13.1,525.44,22.8,525.44,33.22ZM498.43,7V27l2.15,2.13H519a13.45,13.45,0,0,0,1.42,0c.2,0,.38-.24.68-.44L522.57,27V6.86l-2-1.92h-20C499.78,5.68,499.11,6.35,498.43,7Z"/><path class="cls-1" d="M702.92,2.42V9.91s-.87.77-1.3,1.2a4.32,4.32,0,0,1,.59,1.53v7l-.71,1.48V31l1.38,1.49c-.91.91-16.91,1.13-32.2.45-.85-1.16,1-1.17.85-2L670,29.22l1.66-2.93V2.47A246.51,246.51,0,0,1,702.92,2.42Zm-4.26,3.73c-8.22,0-15.84,0-23.46,0-.15,0-.31.33-.59.64l1.18,1.45L674.55,9.7l1.3,1.47-1.33,1.46V26.94c.72.73,1.39,1.4,2.1,2.1q10.67,0,21.38,0c.18,0,.35-.28.66-.55Z"/><path class="cls-1" d="M479,.31l2,1.88L483.71.9c.13.1.58.44,1.41,1.2h4.26a3.65,3.65,0,0,1,.54,1.34q0,14.52,0,29c-.86,1.19-2.13.71-3.23.72-9.18,0-18.36,0-27.32,0-.37-.4-.6-.55-.67-.75a3.21,3.21,0,0,1-.05-.7V15.49c.52-.52,1-1,1.43-1.49.66-1.88-2.1-2.47-1.48-4.46.4-1.27.08-2.77.08-4.1,2.22-1.08.85-3.53,2-5l1.65,1.48c.37-.38.71-.72,1.2-1.24h5.91c.6.52,1.12.95,1.83,1.52L474.39.38l2,1.4ZM466.62,30.73l15-.85c1-1.17,2.27-.65,3.42-.82.19,0,.35-.29.53-.45L487.07,27V6.76S485.48,5.37,485,4.94H479.3c-.61.44-1.08.82-1.54,1.19a10.69,10.69,0,0,1-1.16-1.9H464.83l-1.9,2.08V26.94Z"/><path class="cls-1" d="M137.74,19.85,136,21.67l1.51,2.63-1.18,1.43c-.29,1.36.77,1.81,1.14,2.6a9.11,9.11,0,0,1,.3,2.85l-2,2.16h-29c-.7-5.88-.75-24-.08-31.24h30.43c.29.27.58.41.61.6a9.73,9.73,0,0,1,0,1.43ZM132.65,29c1-4.19,1.08-10.29.46-23.68a126.28,126.28,0,0,0-22.35,0V28.38c.3.27.47.56.64.56Q122,29,132.65,29Z"/><path class="cls-1" d="M667.42,33.34H636.11c-.68-6-.73-23.65-.09-31.24h30.83a2.11,2.11,0,0,1,.46.48,1.52,1.52,0,0,1,.1.67c0,5,0,10,0,15.05L666,19.87v5.67l1.42,1.5Zm-4.26-4.26V7.68a1.89,1.89,0,0,0,0-.7c-.08-.2-.31-.35-.7-.62h-8.53A15,15,0,0,0,652.69,5c-1,.31-1.5,1.83-3,1.24l-1.46-1.36a5.24,5.24,0,0,1-1.55.8h-6.51c-.65,1.27-1.28,2.49-2.14,4.18,0,5.81,0,12.19,0,18.57,0,.18.28.36.55.68Z"/><path class="cls-1" d="M101.91,33.34H71.41a242.94,242.94,0,0,1,0-31.24h30.49A241.13,241.13,0,0,1,101.91,33.34ZM97.4,29.08c1-1.26,2.33-1.75,2-3.41l-1.29-1.53,1.31-1.49V9.82l-1-1.13c-.77-1.48.22-2.8-.89-3.75H75.07V27.87a1.48,1.48,0,0,0,.14.66,3,3,0,0,0,.53.55Z"/><path class="cls-1" d="M600.7,2.1h30.67c.26.3.55.47.55.64,0,9.92,0,19.84,0,29.79a3.75,3.75,0,0,1-.5.47,1.28,1.28,0,0,1-.61.21H601.39c-.38-.42-.67-.59-.67-.76C600.7,22.54,600.7,12.62,600.7,2.1Zm3.53,4.83V14a4,4,0,0,0,.69,1.5,10.21,10.21,0,0,1-1.4,1.21V26.94a13.89,13.89,0,0,1,2.13,2.14h19.87a13.78,13.78,0,0,1,1.41-.15c.19,0,.35-.29.52-.45A165.28,165.28,0,0,0,627,4.94h-8.48s-1,.84-1.49,1.27c-1.53.55-2-1-2.85-2h-8.5C604.88,5.63,604.23,6.93,604.23,6.93Z"/><path class="cls-1" d="M424.62,9.92,423,8.17c.34-.72.72-1.51,1.55-3.23,0-.55.11-2.15.19-3.71.46-.2.86-.54,1.26-.54,3.55,0,7.1,0,10.65,0L438.15,2l1-1c1.52-.67,3.13-.33,4.72-.22L445,1.91,447.34.48l2.19,1.43L450.92.68h2.77c.25.35.72.71.72,1.07,0,9.93,0,19.87,0,29.81a6.72,6.72,0,0,1-.25,1.31c-.17.15-.34.44-.52.44q-14.19,0-28.33,0l-2.05-2,.91-1.09c.09-.09.41-.25.41-.42C424.62,23.15,424.62,16.52,424.62,9.92Zm2.81-5V27.53a2,2,0,0,0,0,.7c.08.2.31.34.68.74,6.6,0,13.42,0,20.23,0,1.1,0,2.36.47,3.21-.73V6.27a1.87,1.87,0,0,0,0-.71c-.08-.2-.3-.34-.57-.62Z"/><path class="cls-1" d="M31.27,33.05c-1.15.07-1.82.16-2.5.16H.74c-.35-.35-.58-.49-.67-.69a2,2,0,0,1,0-.69V21.23c1.81-2.18,1.81-2.18.09-4.44.33-.33.68-.65,1-1,.11-.12.11-.32.16-.49L.14,14.15l1.18-1.48C1,12.23.55,11.75.71,11.18V8.4C.47,8,1,7.45,1.42,7,1,6.46.49,6,0,5.49V2.64C.47,2.41.85,2,1.23,2,11.09,2,21,2,30.6,2c.37.44.65.62.65.79C31.27,12.66,31.27,22.57,31.27,33.05ZM4.29,4.94c0,8.15,0,15.71,0,23.26,0,.17.29.34.44.52,13.6.62,19.55.5,23.68-.48q0-11.32,0-22.66c0-.17-.29-.34-.56-.64Z"/><path class="cls-1" d="M142.45,2.1h30.28c1.05.88.32,2.15.55,3.3-.44.49-.9,1-.75,1.56V9.74c-.22.47.25,1,.71,1.47l-1.31,1.44,1.5,1.73a7.4,7.4,0,0,1-.85,1.74c-1.53,1.83-1.1,3.38.6,4.93a18.62,18.62,0,0,1-1.36,1.53v4.2c.46.42.93.93,1.62,1.69-.66,1.41-1.38,3-2.16,4.87H142.53A259.66,259.66,0,0,1,142.45,2.1ZM169,4.94H157a12.45,12.45,0,0,0-1.5,1.42h-2.62a26,26,0,0,0-2.25-1.77L148.26,6l-1.4-1.09c-.79.83-1.42,1.5-1.31,2.17v9.78a4.86,4.86,0,0,0-2,1.53l1.29,1.34v8.87a148.43,148.43,0,0,0,24.14,0Z"/><path class="cls-1" d="M36.21,32.73V18.52c-.2-.56.27-1.3.93-2.33A16.92,16.92,0,0,0,35.5,14V2.45c.56-.23.74-.46.93-.46Q51.27,2,66.1,2c.91,4.74,1.07,17.28.41,30.8C59.86,33.39,42.11,33.38,36.21,32.73ZM39.76,4.94v9.12L38.4,15.54,39.62,17c-.47.64-1.18,1.17-1.22,1.74C38.32,19.79,38,21,39,22a3,3,0,0,1,.37,3.79c-.4.79-1.31,1.32-1,2.42,1.16.9,1.24,2.55,2.25,3.58,1.37-1,1.9-3,4-2.67l1.5,1.35,1.48-1.36h4.22l1.51,1.37,1.37-1.38c1.28,0,2.9.11,4.5,0s3.29.72,4.77-.67c0-5.62,0-11.29,0-17,0-.18.24-.36.36-.55.34-.33.67-.67,1-1L64,8.35c-.25-1.1.5-2.36-.59-3.41Z"/><path class="cls-1" d="M248.51,5.6c-.75-.9-1-1.23-1.33-1.57.67-.66,1.34-1.33,2-1.93h22.64c.52-.58,1-1,1.53-1.52.5.47,1,.94,1.53.81h2.79c.23,1,.63,1.42.63,1.81,0,9.87,0,19.75,0,29.4-.5.35-.68.6-.86.6-9.44,0-18.88,0-28.27,0-1.44-1.38.27-4-2.1-4.9.49-.53.95-1,1.39-1.54ZM251.12,7c0,7.21,0,14.33,0,21.45,0,.18.29.35.56.64h21.68l2.11-2V8.51a11.22,11.22,0,0,0,0-1.42c0-.19-.27-.36-.41-.53l-1.71-1.71H253.26Z"/><path class="cls-1" d="M216.74,36.25l-5-5c.42-.49.86-1,1.29-1.47l-1.32-1.48,1-1c.12-.19.35-.37.35-.56,0-7.55,0-15.1,0-22.45l-1.33-1.6c.91-.91,22.81-.94,31-.14V32.76c-.28.26-.44.53-.63.56-1.18.17-2.47-.39-3.48.94ZM238.05,4.93c-6.92,0-13.8,0-20.69,0-.17,0-.34.26-.8.62V16.78a5.62,5.62,0,0,0-2,1.63c.45.46,1.29,1.35,1.29,1.35v8.76a154.37,154.37,0,0,0,24.14,0V6.93Z"/><path class="cls-1" d="M177.53,2.1h29.23c.24.23.47.37.55.57s0,.46.73.69V22.5c-.23.48.24,1,.72,1.5-.33.32-1.43,1.23-1.43,1.23v7.3c-4.78.91-16.75,1.06-29.36.41-.15-.17-.42-.35-.42-.53C177.53,22.51,177.53,12.61,177.53,2.1Zm26.86,10.47c0-1.11.07-2.25,0-3.39-.11-1.3.44-2.69-.6-4.1H183.49c-.19,0-.38.16-.62.27l-1.82,1.92v9.59a14.68,14.68,0,0,0-2,1.54c.45.45,1.29,1.36,1.29,1.36v8.74a135.28,135.28,0,0,0,24.15-.15V15.25L205.72,14Z"/><path class="cls-1" d="M589,24.82H572.69c-1-1.65-.39-3.38-.5-5a52,52,0,0,1,0-5.72c.06-1.59-.47-3.25.49-4.88H589c1,1.66.39,3.38.51,5a54.76,54.76,0,0,1,0,5.73C589.39,21.54,589.93,23.19,589,24.82Z"/><path class="cls-1" d="M289.69,9.2h16.45c.27.28.49.42.57.62a2.09,2.09,0,0,1,0,.71V24c-.85,1.2-2.12.72-3.21.73-4.45,0-8.9,0-13.13,0-.38-.4-.65-.55-.68-.74a9.46,9.46,0,0,1,0-1.41Z"/><path class="cls-1" d="M714.28,26.24V9.73c1.62-1,3.31-.42,4.91-.5,1.91-.1,3.83,0,5.74,0h5V24.25l-1.56,1.53c-.18.16-.34.42-.53.44a9.73,9.73,0,0,1-1.43,0Z"/><path class="cls-1" d="M396.19,24.7v-15c.29-.26.47-.55.64-.56,5.18,0,10.37,0,15.6,0a3.63,3.63,0,0,1,.45.5,1.19,1.19,0,0,1,.22.61c0,4.69,0,9.37,0,13.83-.42.37-.59.66-.76.67C407.16,24.7,402,24.7,396.19,24.7Z"/><path class="cls-1" d="M360.69,24.82v-15c.29-.27.44-.54.63-.57a11,11,0,0,1,1.41,0h14.15c1.19.86.7,2.12.71,3.22.05,4,0,8,0,11.71-.4.37-.55.64-.74.67a9.46,9.46,0,0,1-1.41,0Z"/><path class="cls-1" d="M342.23,9.37v15c-1.9.92-3.85.25-5.72.39a37.79,37.79,0,0,1-5.63,0c-1.85-.13-3.78.51-5.69-.38v-15c1.9-.92,3.85-.25,5.72-.39a37.65,37.65,0,0,1,5.62,0C338.39,9.12,340.32,8.48,342.23,9.37Zm-11.13,2,.5.5a4.34,4.34,0,0,0,.45-.95c0-.12-.29-.31-.45-.47Z"/><path class="cls-1" d="M553.84,24.9C550.71,24,548.9,27,545.9,26l-1.27-1.12-1.48,1.35h-4.22c-.66-.92-1.9-1.38-2.21-3.08l1.47-2.07V13l-1.65-2.86c1.18-1.18,4.72-1.28,16.84-.72.15.17.44.34.44.51C553.85,14.68,553.84,19.39,553.84,24.9Z"/><path class="cls-1" d="M518.31,26.24h-7.73a20,20,0,0,0-1.44-1.44c-.45.39-.94.82-1.48.73h-4.19c-.24.23-.7-.12-.72-.48-.07-2.13,0-4.26,0-6.55l-1.3-1.58c.37-.43,1.27-1.73,1.27-1.73v-6h15c.24.24.53.39.56.58a9.87,9.87,0,0,1,0,1.44Z"/><path class="cls-1" d="M678.78,26.12V9.65c.29-.26.46-.55.63-.56,4.72,0,9.43,0,14.19,0a3.63,3.63,0,0,1,.45.5,1.19,1.19,0,0,1,.22.61c0,5.16,0,10.31,0,15.25-.41.37-.58.66-.75.67C688.81,26.12,684.09,26.12,678.78,26.12Z"/><path class="cls-1" d="M482.81,24.82h-15c-.27-.28-.49-.43-.57-.63a2,2,0,0,1,0-.7V10.06c.86-1.19,2.12-.71,3.22-.72,4-.05,7.95,0,11.71,0,.37.4.64.55.67.74a9.46,9.46,0,0,1,0,1.41Z"/><path class="cls-1" d="M115.05,15.13l2.58-.66a12.91,12.91,0,0,0,.24-1.86,27.6,27.6,0,0,0-.38-2.8l-1.58,3.39c-2-.82,0-2.47-1-3.24.45-.46.62-.77.78-.77,4.41,0,8.81,0,13,0,.29.41.53.59.53.77,0,4.69,0,9.38,0,14.38-2.18.75-4.51.28-6.77.36s-4.63,0-6.84,0c-1.07-1.72-.47-3.37-.57-4.95C115,18.35,115.05,16.94,115.05,15.13Zm5.84-1.4c-.31-1.1-.21-2.2-1.45-1.24a4.45,4.45,0,0,0,1.24.84c.06.85.12,1.69.21,2.82l2.69-.18C122.78,14.55,122.1,13.55,120.89,13.73Zm1.42,4.73c-.37-.37-.53-.66-.7-.67-.62,0-1.44-.19-1.8.13s-.41,1.18-.45,1.81c0,.13.74.52.89.41A25.18,25.18,0,0,0,122.31,18.46Zm3.89-7-.5-.92c-.16.16-.47.35-.44.47a3.89,3.89,0,0,0,.44.95Zm-9.73,8.32c.16.15.35.47.47.44a5.41,5.41,0,0,0,1-.44c-.16-.16-.35-.47-.47-.45A4.57,4.57,0,0,0,116.47,19.73Zm9.43-6.19L125,14c.16.16.35.48.47.45a4.82,4.82,0,0,0,1-.45Z"/><path class="cls-1" d="M643.28,25.37V9.85c.84-1.19,2.11-.7,3.2-.72,3.76-.05,7.52,0,11.91,0l2,2.58-1.2,2.36c.57,1.67,2.35,3.66-.32,5.58V23.8l-1.87,2a2.17,2.17,0,0,1-.64.29c-3.3,0-6.59,0-9.88,0C645.41,26,644.16,26.52,643.28,25.37Z"/><path class="cls-1" d="M95.14,10V24.82H78.62c-1.08-1.7-.31-3.5-.53-5.19a22,22,0,0,1,0-5c.17-1.68-.5-3.45.45-5.09,5.37,0,10.73,0,16.09,0C94.81,9.56,95,9.87,95.14,10Zm-4.26,6.85c1,1,1.91,1,2.92-.13l-.43-2.12-2.49.52Zm-4.33-.51c.3.29.78,1,1,.92.77-.24.76-1.75,0-2.28-.11-.08-.43-.09-.46,0C87,15.36,86.81,15.76,86.55,16.38Zm-2.74,6.19c.16.15.35.47.47.44a5.41,5.41,0,0,0,1-.44c-.16-.16-.35-.47-.47-.45A4.57,4.57,0,0,0,83.81,22.57Z"/><path class="cls-1" d="M623.4,11.2v8.46L624.47,21c-.53,1.12-1.08,2.26-1.71,3.61l-4.44.21L616.78,26l-1.14-1.14c-2.16-.76-3.87.49-5.46,1.57l-2.4-2.3V9.52c1.76-1,3.62-.33,5.39-.42a41.12,41.12,0,0,1,5.55,0c1.89.18,3.85-.46,6,.44Z"/><path class="cls-1" d="M447.31,9.2v15c-.28.27-.44.54-.62.57a9.6,9.6,0,0,1-1.42,0H432.55c-1.2-.85-.71-2.11-.72-3.21-.05-4,0-7.95,0-11.71.4-.38.55-.65.74-.68a11,11,0,0,1,1.41,0Z"/><path class="cls-1" d="M22.84,17.59l1.3.53v6c-.3.26-.47.55-.65.55q-7,0-14.11,0c-1.18-.86-.7-2.12-.71-3.22-.05-4,0-7.94,0-11.81,1.83-1.18,3.63-.38,5.32-.61a21.92,21.92,0,0,1,5,0c1.67.15,3.41-.48,5.34.56-.13.73-.27,1.53-.45,2.51L21.94,10.4c-.23.75-.43,1.37-.66,2.11l3.24,1.58c-.58,1.2-1.15,2.37-1.68,3.5a3.23,3.23,0,0,0-1.33.2c-.23-.9-.13-2-1.37-1a11.25,11.25,0,0,0,1.37,1c.08.2.17.88.4.93C22.76,18.91,22.9,18.29,22.84,17.59ZM16.36,23.4c1-1,1-1.9-.13-2.92l-2.11.43c.2,1,.37,1.77.51,2.49Zm5-.83c.15.15.35.47.46.44a5.18,5.18,0,0,0,1-.44c-.16-.16-.35-.47-.47-.45A4.57,4.57,0,0,0,21.33,22.57ZM10.88,11.71l.51-.51a5.18,5.18,0,0,0-1-.44c-.11,0-.31.29-.46.44C10.27,11.38,10.58,11.55,10.88,11.71Z"/><path class="cls-1" d="M164.72,9.2V24.47l-2.4,1.35-.73-.73-1.45,1.15h-4l-1.62-1.42H149.1v-15c.25-.25.39-.48.59-.57a2.09,2.09,0,0,1,.71,0Zm-12.95,7.48-.51-.5a3.89,3.89,0,0,0-.44.95c0,.12.28.31.44.47Z"/><path class="cls-1" d="M48.29,13.94c-2.3-.26-3,.19-3.72.66-1.08-1.49-.29-3.18-.52-4.75.35-.26.7-.74,1.06-.74,4.7,0,9.39,0,13.87,0,.37.41.67.58.67.76,0,4.72,0,9.45,0,14.16a4.2,4.2,0,0,1-.53.51,1.25,1.25,0,0,1-.62.19h-14c-.84-2.09-.26-4-.4-5.81,0-.38.36-.78.55-1.17,1.18.34.66,1.46,1.14,2.45l4.06.6-1.35,1.69c.34,1.17,1.26.81,2.38.65.56-1.95.17-4.05.29-6-.34-.91-1.64-1.14-1.42-2.32-1.19.21-1.41-1.09-1.44-.82,3.24.6,5.12,1.21,6.85.54.18-1.49.89-2.86-.39-3.9L53,11.92c-1.93,0-2.78-2.94-4.59-.77C49.47,12.1,50,13.29,48.29,13.94Zm7,2.79c.37.37.53.66.69.67.62,0,1.45.19,1.81-.13s.41-1.18.45-1.81c0-.13-.74-.52-.89-.41A25.18,25.18,0,0,0,55.25,16.73Z"/><path class="cls-1" d="M255.61,24.82v-15c.28-.27.43-.49.63-.57a2,2,0,0,1,.7,0h13.43c1.19.86.71,2.12.72,3.22.05,4,0,8,0,11.71-.4.37-.55.64-.74.67a9.46,9.46,0,0,1-1.41,0Z"/><path class="cls-1" d="M235.73,9.2v15c-.29.27-.44.53-.63.56a9.48,9.48,0,0,1-1.41,0H221c-1.19-.86-.7-2.12-.72-3.22-.05-4,0-8,0-11.7.41-.38.56-.65.75-.68a11,11,0,0,1,1.41,0Zm-3.53,8.42a3,3,0,0,0,0-4.31A3,3,0,0,0,232.2,17.62ZM223.48,16l.91-.5c-.16-.16-.35-.48-.46-.45a5.18,5.18,0,0,0-1,.44Z"/><path class="cls-1" d="M184.94,9.2h14.91c1.32,1.73.17,3.74.64,5.53a9.53,9.53,0,0,1,0,4.15c-.35,1.91.43,3.87-.5,5.94H189.36l-.94-.94L185.21,25C184.17,23.92,184.16,17.61,184.94,9.2Zm6.63,12.26c.31,1.1.21,2.2,1.45,1.24a4.26,4.26,0,0,0-1.29-.85c-.26-.91.69-2.19-.83-2.71C190.28,21,190.28,21,191.57,21.46Zm-1-10.46.5.91c.16-.15.47-.35.45-.46a4.64,4.64,0,0,0-.45-1Zm6.39,2.54L196,14c.16.16.35.48.47.45a4.57,4.57,0,0,0,.95-.45Z"/></g></g></svg>