<svg xmlns="http://www.w3.org/2000/svg" viewBox="0 0 79.71 78.89"><defs><style>.cls-1{fill:#fff;}</style></defs><title>Vemos_orna_cont4</title><g id="Layer_2" data-name="Layer 2"><g id="ornamentos"><path class="cls-1" d="M31.45,72.16l3.43-.06.15-1L36,71c.3-.7-.08-1.36-.07-2.07l-1-.16-.14-1-2.09-.18-.16-1a70.78,70.78,0,0,0-7.71,0l-.11,1-1.07.14-.14.87-.91.18-.16,1-1,.13V74.4l.83.18.2.89,3.17.19v.9l-.85.15-.12.87a6.73,6.73,0,0,1-2,.06l-.21-.91-1-.1-.13-1-1-.13-.15-2A6.57,6.57,0,0,0,17,73.42l-.13.84-2.16.17-.16,1a48.71,48.71,0,0,1-6.51.06l-.16-.88-2-.35-.15-.93-1-.23v-.81l2-.37.15-.84h5.54l.17,1,2.14.16.22.89.77,0,.18-.91,2.22-.15.14-1,1-.16.16-.88.89-.2.12-1.08,1-.17.12-1,1-.13.15-1,1-.09.2-1L28,65.26l.16-.85,1-.12c.23-.61.24-.75.05-2.26l-.88-.12L28.17,61l-1.09-.15-.17-1.09-.85-.15v-.81l.83-.19.28-2.15.89-.16.25-2.07.9-.13L29.33,53l1-.11.11-1h3.22v1l-.87.15c0,.7-.12,1.4-.13,2.11,0,1.41,0,2.83,0,4.24a1.33,1.33,0,0,1-.09.34l-.88.12-.16.92-1,.14v2l1,.19.13,1.11.93.17.16.89,1.11.12.21,1,1.85.2.33,2,.94.17.18,1h.89l.12-.85,1-.15.14-1,.9-.16.17-1,1-.09.31-2,.82-.21V58.75l-.85-.17-.2-4.42L40.7,54l-.28-2-.89-.17-.13-1-1-.15-.1-.9-1-.16-.17-1L36,48.47l-.18-.88a33.13,33.13,0,0,0-6.46-.18l-.12,1.07-4.2.13c-.07.32-.12.59-.19.85,0,0-.07.09-.17.22H23.62l0,0-.1-2.25-.82-.15-.31-3.22-.93-.2V39.51l0,0,.88.08.31,2.05,2.1.13.15,1H27l.14-1,1.07-.17.16-.85h.77l.35,3,2,.33.14.86,3.15.3.14.87,2.05.25.19.93,2.17.1v-2.3l-1-.18-.16-2-.89-.17-.34-2-.92-.14-.17-1L35,39.48l-.13-1.08-1-.09-.15-1.05-1-.09-.16-.92-1.1-.2-.15-.89-3-.34c0-.15-.07-.28-.09-.41s-.05-.27-.08-.48l-3.33-.1V32.77l4.31-.15.06-.83-.93-.19-.15-1-1-.15-.15-1-1-.13-.15-1-1-.14-.14-1-1-.14-.19-.89-2-.16-.15-1-1-.09-.17-.94H18.24L18,26l-1,.13-.12,1-1.08.14-.13.86H12.6l-.18-.89L10.28,27l-.18-.9L9.1,26l-.19-1.06H5.76l-.14,1-1,.14L4.4,27A12,12,0,0,1,.22,27V25l.88-.19.14-2.21,3.16-.14.2-.87,1-.12.14-1.09,1-.12.25-2,2-.35.16-.84h1.15v1l-1,.19v.86H11.3l.26,1.11h.83l.16-.88,3.21-.3.05-.88,0,0,1.05-.09v-1L15.79,17l0,0L15.72,16l-1-.1-.17-1.12-4.19-.1-.15-.89-2.18-.34L7.9,10.24l-.85-.15-.36-2-.84-.13L5.58,5.75,4.74,5.6l0-.76.84-.21.32-2.15a13.56,13.56,0,0,1,4.17,0c0,.15.06.31.08.46s.05.32.09.54l1,.16.23,2,1,.1.14,1,2,.16.15,2.18,1,.2v1.95l-.86.15v2.1l.89.13.14,1,1,.15.19,2,1,.2.13.93.95.15.23,1,.86.12.11,1h1l.12-5.46.84-.16v-1l-.81-.18-.11-.94-1-.19-.24-1.88-.91-.2a23.5,23.5,0,0,1,0-4.52l.95-.11.34-2,.89-.2.11-1,1-.13.17-1.08h2L24.85.12h2.22l.13,1h2.16l.2-.85A14.36,14.36,0,0,1,31.45.06c2.8,0,5.61,0,8.41,0A12.21,12.21,0,0,1,41.51.3l.13.87,1.11.11.11,1,1,.1.13.95,1,.16.16,2.09,1,.15.17,1.1.87.12v2a6,6,0,0,1-2,0l-.16-1-1-.16L43.85,7H40.74l-.18.89L39.4,8l-.2.91-.86.16-.17,1-1,.15-.15.87-1,.22-.18,1-.83.06-.21-2.13a40.35,40.35,0,0,0-5.5,0v1.11h2.19l.16,1,3.15.28a6.72,6.72,0,0,1,0,2l-1,.15-.16,1-3.15.2-.17.8h-1l-.2-.88H26L25.84,15l-1.05-.22-.1-1-.79,0-.36,2.05-.86.16c0,.5-.05,1-.06,1.54s0,1,0,1.6l1,.16.3,3.16.88.17.12,2.23,1,.16L26,26l1,.12.12.92h1.08l.21-.89h.78l.17.83,1,.14.16,4.34h.86l.36-2,1-.14.15-.88.78-.07c.25,1.81.05,3.58.23,5.4l1,.15L35,36l1,.15.13,1.08.92.19.28,2,.9.15.16,2.08,1,.12.16,2.16.92.17.24,2.07,1,.15.19.95h.84V44.13L41.76,44l-.24-2-.89-.2V40.72H41.7l.19.88,2,.17L44,40.62l.84-.14a10.51,10.51,0,0,0,.19-3.17L44,37.17l-.13-.93-1-.17c0-.57-.07-1.11-.06-1.66,0-2.08.12-4.15.16-6.23,0-1.05,0-2.09,0-3.17l.89-.2L44,22.74l1.06-.18.12-.92,2.06-.3c0-.31,0-.63,0-.95s0-.6,0-.94l-.94-.19a12.62,12.62,0,0,1,.07-3.3h.9l.12,2.11,1,.17.13.91h2.25l.1-2h.87l.15.83,2,.09L54,16h1.2l.19.82.74.06.15-.93a.91.91,0,0,1,1.12,0l.09,1c.69.37,1.3-.18,2.06,0,.05-1.14.13-2.21.15-3.28,0-.74-.05-1.49-.08-2.24l0,0H62l0,0v4.39l2.22.16.16,1,.87.15.18.9,2.08.25c.27.69-.1,1.35,0,2.07l-.89.13v1l.84.15.15.95,1.16.17.18.92.93.07,0,0v1.09l-1.1.15v.86a35.28,35.28,0,0,0,6.66,0l.15-.9,1-.12a22.68,22.68,0,0,0-.08-5.52l-.91-.12-.13-1.07-1-.13-.13-1-.9-.18-.22-2.07,0,0,1.11,0,.11,1,1,.1.11,1,1,.14.13,1,.92.17.27,2.05.9.19V23.6l-1,.17-.14,2.12-1,.15a6.6,6.6,0,0,0-.05,2.13l1,.13.3,3.12.9.13L79,33.71l.73.26v2l-.86.23-.1,4.43-2.06.19-.31,2-2,.15-.14,1a9.78,9.78,0,0,1-3.14-.1l-.17-.86-1.06-.13-.12-1h-1c-.17,1.08,0,2.16-.17,3.3h-2a3.78,3.78,0,0,1-.1-1.58c0-.55,0-1.1,0-1.72H65.29v3.11l-1.07.24-.13,2.18-.9.12L63,48.51H61.93l0,0-.13-1.09-2.2-.07-2.11-.09-.15-.83L53,46.23l-.17-.91-1.95-.38-.17-.9H48.51l-.14,1.1-.91.18,0,.74.92.2.11,1.05.88.16-.06.88-.77-.06-.29-.77-3.1-.15L45,48.5l-1,.09-.17,3.31-.81.21v.8l.89.18V64.17l6.56.2.17.91,1.15.1.24,1.06h1.87l.18-1,.93-.12.33-2,.87-.12.16-2.07,1-.2.14-3.3.9-.18V54.28h-.9l-.15.83-2,.28-.17,1-1,.13-.15,1-1.14.11-.21.86a25,25,0,0,1-5.31.16l-.15-1-1-.11a9.83,9.83,0,0,1,.06-2.17l2.14-.23.17-.84c1.49,0,3-.07,4.42-.07A12.21,12.21,0,0,0,56.2,54l.12-.89L57.43,53l.13-.94,2.06-.16h0c.07,1.26.13,2.52.2,3.78,0,.19,0,.38,0,.62l.91.19v4.43l0,0-.87-.08c0-.15-.07-.3-.11-.45s-.07-.32-.12-.56l-1-.07-.28,2.23-1,.17v2.16l-1.08.17-.12,2-1.07.11c0,.76-.06,1.5-.05,2.24a25,25,0,0,1-.06,5.6l-.79.17-.46,1.84-2,.38-.11.85-2.08.27-.18.87c-4.45.12-8.92.15-13.44,0L35.86,78l-3-.34c0-.16-.07-.28-.09-.41s0-.27-.06-.44l-2.14-.34-.13-.88-1.05-.12-.21-2-1-.16-.14-1.1-.88-.13V68.91l.84-.06.2.94,1,.12.14,1,2,.18.08,1.06h-.89v1l.87-.07ZM56.27,32.68v0l.06-2.08,1-.18V28.3l-.95-.17-.18-2.07-1-.15-.15-1-1-.11-.17-1a6.67,6.67,0,0,0-3.11,0,31.48,31.48,0,0,0,0,3.22l1,.21,0,.83-1.12.17v6.65l-.93.21.05.76c1.43.48,2.81.15,4.15.17l.32,3.28.84-.07.17-.82h1l.17,1.08c.63,0,1.21,0,1.79,0a8.23,8.23,0,0,0,1.57-.09,8.81,8.81,0,0,1,3.32.16l.17.9a7,7,0,0,0,2-.12l.16-2,1-.19-.06-1-1-.2-.15-2-1-.13-.17-1.06-.92-.11-.18-1-2.1-.21-.15-.86H57.56l-.19,1Zm19.09,4.43-3.17.27v1h2.08c.35.3.14,1.14.89.92l.23-1h2.13V35.06l-.83,0-.17.85-1,.16ZM58.67,30.45a6.67,6.67,0,0,0,2,0v-2c-.72,0-1.36-.27-2,0ZM38.42,1.29v1l.95.14.13.86h1.06a6.24,6.24,0,0,0,0-2ZM17,18.28v2h1c.24-.75-.17-1.36-.2-2ZM75.51,33.8h2v-.94c-.69.17-1.3-.34-2,0Zm-66.36-11,0,.84h2.09l-.08-.91c-.54,0-1,0-1.47,0A4.31,4.31,0,0,0,9.15,22.76ZM27.23,10.28v1.11l1-.07v-1ZM50.51,73.14V72.2l-.79,0v1ZM39.5,48.3h.91l0-.79-.87.07Z"/><path class="cls-1" d="M22.64,53H21.47v3.23l-2.12.2v1l.83.17v.82l-2,.31v2l3.2.28,0,.86L20.35,62l-.12,1-.87.19-.17,1.06-.92.13-.18.94-3.38.16-.18.87h-2l-.15-.81-2.07-.34-.32-2-.85-.12L9,62.06H4.73L4.41,60l-.9-.18-.13-1-1-.13-.14-2.18-.84-.15-.29-2.08-.9-.17c0-2.19-.42-4.4,0-6.67l.85-.11v-.85l-.8-.14a29.59,29.59,0,0,1,0-6.62l.88-.2.14-2.23,1-.12.18-2.06,3.18-.27L5.72,34l3.14-.2.2-1c1.13,0,2.25,0,3.41,0v1.08L11.39,34l-.19.83-2,.33v2l.89.15.23,2.12.88.2.32,2,.82,0,.15-2.11.89-.13.17-1.07,1-.1.2-1,1-.15.17-.92h1l.19,2.05c.71,0,1.42,0,2.13,0s1.43.07,2.19.11l.07,1.11,0,0-2.15.08-.19,2.16-.92.2v.84l.81.15.34,2.18.86.16v2l-.85.17v3.1l.92.18.12,1h1l.17-.82,1-.17.12-1.09h.93l0,0v2.08l-.91.18L22.62,53ZM3.51,38.44c.11,2.66-.16,5.22,0,7.81l1.06.17.15,1,1,.24-.09.65-2,.38V51.8l.87.18.25,3.17.89.14.33,2.13.86.1.13,1.07,1,.13.14.9h1l.16-.92.77.06.32,2h2.05l.12-1.09.91-.12v-2l-2-.12-.17-1-1-.14-.21-2-.81-.18L9,52,8,51.8l-.11-2.13-1-.19a19,19,0,0,1,.16-4.37L8,44.93l0-.8L6.83,44l-.12-1-.8-.17L5.59,40.6l-1-.15V39.6l2.18-.11V37.18l-2,.2-.2.95Z"/><path class="cls-1" d="M60.76,60.87c.43,0,.86.07,1.3.09.29,0,.58,0,.92,0l.16-1.07a6.25,6.25,0,0,1,2.07,0l.15.86h.85l.15-1,1.12-.12.2-.88h3.16l.17.92a16.6,16.6,0,0,0,5.4,0l.25-2,.88-.18c.08-1.43.15-2.85.23-4.31h1c0,3.27.15,6.5,0,9.78l-.94.22-.15,1.15-.89.18-.35,2-.87.12-.17,1-1.93.25-.19.94-2.12.21-.16.89-1.1.13-.15.94a33.81,33.81,0,0,1-5.33,0l-.19-1L62,69.74l-.15-2c.6-.28.6-.28,1.17,0l.14.86a6.61,6.61,0,0,0,3.16.08V66.58l-1-.11-.13-1-1-.12L64,64.43l-.82,0-.16.88-1,.14-.14,1.07-1,0V64.45l1-.18V62.09l-1-.11,0-1.14Zm7.76,6.85-.87.06,0,.88.82-.07Z"/><path class="cls-1" d="M66.43,10.22a11,11,0,0,1,2,0,10.4,10.4,0,0,0,2.42-.12V6.84l-1-.21-.13-.94H66.53l-.17-.86-2-.33-.21-1L62,3.35l-.14-.87-3.18-.17-.14-1L57.43,1.2V.05c.31,0,.6-.06.89,0,.89.05,1.77.15,2.65.17.69,0,1.38-.08,2.08-.09h5.24a2,2,0,0,1,.3.07l.15,1,1,.12.12,2.18,1,.18.18,2,1,.12.16,1H73l.13-1,1-.11.14-2,1-.16.14-1a6.79,6.79,0,0,1,3.2,0c.06,1,0,2.08,0,3.17l-1,.12-.17,1.06L74.33,7c0,.16-.06.29-.08.43s0,.21,0,.37l-1,.2-.14,1-1,.19c-.07,1.47-.13,2.95-.2,4.44-.69.36-1.29-.29-2-.1l-.27-2c-1-.23-2.06-.05-3.19-.21V10.2Z"/><path class="cls-1" d="M57.45,10.2l-2.2.1-.23.86-.82.06c0-.69-.45-1.28-.16-2.05a13.83,13.83,0,0,1,3.39.06v1Z"/><path class="cls-1" d="M37.3,21.53l-3.49-.06v-1h3.41l.06,1.1Z"/><path class="cls-1" d="M66.45,10.2H63.09l0,0,.07-.87a14.78,14.78,0,0,1,3.21-.11l0,1Z"/><path class="cls-1" d="M30.47,23.88V22.62l.93-.18.14-.88,1.1-.06a1,1,0,0,1,0,1.15l-.88.17-.09.78c-.35.4-.78.27-1.18.26Z"/><path class="cls-1" d="M57.43,10.22l2.16.07v1.1l0,0-2.1-.19-.07-1Z"/><path class="cls-1" d="M61.93,48.51l-.08,2.11-1.08.05,0,0L61,48.61l1-.08Z"/><path class="cls-1" d="M24.7,57.46h-.86V55.25h.86Z"/><path class="cls-1" d="M37.28,21.55h2.1v1l-2-.12,0-.93Z"/><path class="cls-1" d="M63.09,10.19v1.1l-1.15.08,0,0V10.28l1.15-.07Z"/><path class="cls-1" d="M15.81,18.2H14.76l-.13-1.11,1.18,0,0,0v1.19Z"/><path class="cls-1" d="M60.77,50.67l-.09,1.11-1.08.07h0l.08-1.09,1.09-.07Z"/><path class="cls-1" d="M22.62,53h1v1.11l-.93,0V53Z"/><path class="cls-1" d="M49.37,12.65v.79h-.82v-.79Z"/><path class="cls-1" d="M73.12,14.69l-.94,0V13.8H73l.1.92Z"/><path class="cls-1" d="M12.51,16.81V16h.91l.06.84Z"/><path class="cls-1" d="M13.64,33.93h.93v.88h-.88Z"/><path class="cls-1" d="M15.74,35v1h-.89l0-.91Z"/><path class="cls-1" d="M30.45,23.86v.91h-.93l0-.84,1-.05Z"/><path class="cls-1" d="M69.78,23.72v-.91l.9-.07v.88l-.92.08Z"/><path class="cls-1" d="M56.27,32.68v1.1h-.94v-1l1-.09Z"/></g></g></svg>