<svg xmlns="http://www.w3.org/2000/svg" viewBox="0 0 47.59 48.77"><title>VemosTitulo2</title><g id="Layer_2" data-name="Layer 2"><g id="ornamentos"><path d="M18.09,26.89a33,33,0,0,1-5.25.28c-1.93,1.32-2.71,4.15-4.9,4.18L0,23.45c.68-.88,2.75-2.46,3.16-4.39C3.69,16.57,6,16.28,6.44,14c4.13,1.54,5.83,4.78,8.51,6.83,1.7-2,4.23-3.35,5.14-5.32.38-2.43-1.19-3-2-4-.65-.79-1.41-1.5-2.09-2.2V5.61C17,3.41,19.56,2,21.29,0h4l8.17,8.23c-2.07,2.08-4.26,4.25-6.74,6.74.87,2.54,3.48,4.19,5.62,6.11.83-.17,1.67-.09,2.07-.47,2-1.92,3.92-3.95,5.73-5.82L47.59,22v4.3l-5.2,5.24H37.53l-4.26-4.32c-3,.49-4.36,3.61-6.54,5.52-.4,3.15,2.52,3.95,4,6.08V44l-6.52,4.74c.2,0-.68.15-1.09-.23-2.54-2.4-5-4.91-7.09-7-.51-4.06,4-4.33,4.23-8.12l-2.17-2.86v-3.6a24.88,24.88,0,0,1,3.32,2.37h4.05L30,24.74,25.89,19H21.37l-3.28,2.88Z"/></g></g></svg>