<?xml version="1.0" standalone="no"?>
<!DOCTYPE svg PUBLIC "-//W3C//DTD SVG 20010904//EN"
 "http://www.w3.org/TR/2001/REC-SVG-20010904/DTD/svg10.dtd">
<svg version="1.0" xmlns="http://www.w3.org/2000/svg"
 width="261.000000pt" height="261.000000pt" viewBox="0 0 261.000000 261.000000"
 preserveAspectRatio="xMidYMid meet">
<metadata>
Created by potrace 1.11, written by Peter Selinger 2001-2013
</metadata>
<g transform="translate(0.000000,261.000000) scale(0.100000,-0.100000)"
fill="#000000" stroke="none">
<path d="M1263 2203 c-11 -15 -25 -47 -32 -70 -7 -27 -23 -51 -41 -65 -16 -11
-32 -34 -35 -50 -4 -17 -42 -64 -97 -121 -50 -50 -94 -102 -99 -114 -8 -20 -2
-25 57 -53 l66 -30 74 66 c41 36 72 69 69 73 -2 4 7 24 20 44 14 20 25 50 25
69 0 19 8 44 17 58 13 19 16 43 14 114 -1 50 -6 95 -10 99 -5 5 -17 -4 -28
-20z"/>
<path d="M1379 2227 c-1 -1 -2 -47 -4 -102 -2 -87 1 -103 18 -122 13 -15 20
-39 21 -81 3 -53 7 -63 38 -93 19 -19 38 -45 41 -59 5 -17 23 -32 59 -49 80
-38 104 -37 146 5 l36 36 -29 15 c-34 19 -55 42 -91 103 -15 25 -42 61 -60 81
-17 20 -35 47 -39 60 -12 44 -29 74 -61 109 -17 19 -34 47 -38 61 -5 21 -31
47 -37 36z"/>
<path d="M565 2142 c5 -128 24 -162 92 -162 21 0 49 -12 82 -37 28 -21 49 -39
47 -40 -2 -2 -30 -4 -62 -6 -44 -1 -64 2 -78 16 -31 27 -66 21 -79 -16 -5 -13
7 -33 43 -71 l50 -53 117 -1 c65 -1 125 3 133 8 11 7 14 33 15 115 l1 106 -70
63 c-39 35 -75 68 -79 72 -14 14 -25 -16 -21 -58 l4 -39 -27 20 c-16 11 -57
49 -93 85 -35 36 -67 66 -71 66 -3 0 -5 -31 -4 -68z m231 -130 c-9 -9 -37 8
-31 18 5 8 11 7 21 -1 8 -6 12 -14 10 -17z m24 -27 c10 -12 10 -15 -4 -15 -9
0 -16 7 -16 15 0 8 2 15 4 15 2 0 9 -7 16 -15z"/>
<path d="M2109 2176 c-1 -9 -2 -21 -3 -26 -2 -21 -88 -98 -114 -103 -15 -3
-44 -22 -65 -42 -22 -22 -37 -30 -37 -22 0 8 7 17 15 21 11 4 15 22 15 71 0
36 -3 65 -8 65 -4 0 -39 -31 -76 -69 l-69 -70 0 -99 c1 -135 4 -142 58 -142
34 0 47 -5 59 -22 21 -30 74 -32 106 -3 14 12 44 34 68 49 23 14 42 32 43 39
1 6 2 24 3 38 3 30 -10 69 -22 69 -5 0 -17 -18 -27 -40 -10 -22 -21 -40 -24
-41 -32 -6 -85 -3 -117 6 l-39 11 116 57 c155 77 161 83 157 183 -3 66 -6 79
-20 82 -11 2 -19 -3 -19 -12z"/>
<path d="M820 1661 c-39 -41 -76 -71 -92 -75 -15 -3 -45 -21 -66 -41 -22 -19
-57 -42 -78 -51 -81 -34 -184 -84 -184 -89 0 -3 61 -5 136 -4 125 0 137 2 157
22 15 15 36 22 64 24 51 1 136 39 181 80 29 27 32 35 32 89 0 55 -2 61 -34 87
-19 15 -39 27 -43 27 -4 0 -37 -31 -73 -69z"/>
<path d="M1743 1692 c-7 -4 -13 -35 -14 -71 l-2 -64 55 -53 c34 -32 65 -54 78
-54 13 0 33 -11 46 -25 19 -21 32 -25 81 -25 49 0 60 -4 78 -25 17 -21 29 -25
78 -26 32 -1 62 2 68 8 17 17 -22 53 -95 87 -40 18 -98 56 -129 85 -32 28 -64
51 -73 51 -8 0 -42 27 -75 60 -59 59 -73 67 -96 52z"/>
<path d="M1287 1632 c-32 -34 -34 -62 -7 -87 11 -10 20 -26 19 -34 -4 -49 15
-55 51 -16 34 36 30 99 -8 138 l-28 27 -27 -28z"/>
<path d="M1417 1503 c-9 -21 -23 -47 -32 -59 -12 -16 -13 -23 -2 -37 11 -15
17 -16 57 -4 38 11 45 17 48 41 2 16 1 44 -3 63 -5 26 -11 33 -29 33 -17 0
-27 -10 -39 -37z"/>
<path d="M1173 1500 c-29 -12 -29 -17 3 -74 18 -32 31 -45 41 -42 8 3 20 6 26
6 7 0 18 4 26 9 10 7 5 20 -25 60 -21 28 -41 51 -44 50 -3 0 -15 -4 -27 -9z"/>
<path d="M1043 1383 c-19 -7 -17 -88 2 -103 23 -19 81 -7 149 31 l59 32 -52
14 c-29 7 -61 17 -71 23 -19 10 -66 12 -87 3z"/>
<path d="M1470 1355 c-41 -19 -69 -35 -61 -35 7 0 36 -11 64 -25 71 -36 111
-36 149 2 l30 30 -37 29 c-21 15 -45 29 -54 31 -9 1 -50 -13 -91 -32z"/>
<path d="M440 1310 c-4 -3 3 -24 17 -48 22 -38 29 -42 63 -42 22 0 40 -5 43
-13 3 -7 31 -27 63 -44 37 -20 90 -64 141 -117 77 -80 85 -86 124 -86 70 0 78
9 77 97 l-1 78 -42 40 c-23 22 -49 52 -59 67 -14 22 -25 27 -52 26 -19 -1 -37
-5 -40 -10 -3 -5 -12 -4 -20 3 -7 6 -38 12 -68 13 -34 1 -62 8 -73 18 -18 16
-153 30 -173 18z"/>
<path d="M1176 1240 c-39 -52 -40 -67 -6 -78 25 -9 32 -6 69 32 47 48 50 61
17 70 -13 3 -30 8 -38 11 -7 3 -26 -13 -42 -35z"/>
<path d="M1378 1244 c-11 -23 -9 -28 23 -58 32 -29 35 -36 32 -75 -4 -58 9
-71 68 -71 l49 0 0 42 c0 44 -46 148 -65 148 -5 0 -21 9 -35 20 -34 27 -58 25
-72 -6z"/>
<path d="M1951 1247 c-11 -20 -19 -23 -66 -22 -44 1 -67 -5 -127 -35 l-73 -37
-2 -84 c-3 -78 -1 -85 24 -111 15 -15 31 -28 35 -28 5 0 49 39 98 87 61 59
108 95 150 114 169 79 231 112 227 123 -2 7 -46 12 -128 14 -123 3 -126 2
-138 -21z"/>
<path d="M1041 946 c-7 -8 -23 -17 -37 -20 -14 -4 -29 -18 -35 -34 -10 -25 -7
-30 45 -77 30 -27 61 -66 69 -85 9 -19 29 -51 46 -70 17 -19 31 -40 31 -45 0
-14 39 -86 58 -108 8 -9 17 -29 18 -43 3 -32 9 -38 27 -31 11 4 14 31 15 124
0 104 -2 121 -20 139 -14 16 -19 36 -19 77 0 51 -3 58 -41 97 -32 33 -122 90
-141 90 -3 0 -10 -6 -16 -14z"/>
<path d="M1559 945 c-8 -9 -26 -17 -40 -20 -31 -6 -100 -81 -128 -139 -16 -36
-21 -65 -21 -134 0 -77 -3 -91 -20 -107 -16 -15 -20 -29 -18 -64 2 -24 9 -46
15 -48 15 -5 63 44 63 64 0 8 9 26 20 40 11 14 20 32 20 40 0 8 14 28 31 45
17 17 52 64 80 104 27 40 65 88 84 107 49 48 46 73 -12 99 -27 12 -50 23 -53
25 -3 2 -12 -4 -21 -12z"/>
<path d="M647 903 c-64 -17 -62 -15 -91 -78 -29 -61 -34 -113 -11 -121 8 -4
15 -12 15 -19 0 -7 -7 -18 -15 -25 -19 -15 -22 -214 -4 -226 17 -10 47 27 87
107 50 99 91 107 92 18 0 -37 12 -49 48 -49 11 0 40 44 86 127 58 107 69 136
71 181 2 48 -1 55 -26 73 -35 25 -175 31 -252 12z m23 -163 c-26 -33 -38 -40
-66 -40 -22 0 -33 4 -29 11 13 20 88 69 107 69 17 0 16 -5 -12 -40z"/>
<path d="M1720 862 c-13 -2 -16 -22 -15 -121 l0 -119 33 -38 c17 -22 37 -54
44 -71 13 -35 27 -40 59 -22 15 7 19 19 17 46 -2 21 2 38 9 40 6 2 41 -24 77
-58 54 -50 66 -67 66 -93 0 -45 14 -64 35 -46 57 47 60 133 9 220 l-37 61 36
32 37 32 -26 50 c-44 89 -46 89 -196 90 -73 0 -140 -1 -148 -3z m251 -125 c9
-7 21 -22 28 -34 11 -21 10 -23 -17 -23 -31 0 -79 41 -67 59 8 14 36 13 56 -2z
m-106 -57 c3 -5 1 -10 -4 -10 -6 0 -11 5 -11 10 0 6 2 10 4 10 3 0 8 -4 11
-10z"/>
</g>
</svg>
