<?xml version="1.0" encoding="utf-8"?>
<!-- Generator: Adobe Illustrator 22.0.0, SVG Export Plug-In . SVG Version: 6.00 Build 0)  -->
<svg version="1.1" id="Layer_1" xmlns="http://www.w3.org/2000/svg" xmlns:xlink="http://www.w3.org/1999/xlink" x="0px" y="0px"
	 viewBox="0 0 260 260" style="enable-background:new 0 0 260 260;" xml:space="preserve">
<style type="text/css">
	.st0{fill:none;}
	.st1{fill:#FFFFFF;}
</style>
<title>menuOrnament</title>
<rect class="st0" width="260" height="260"/>
<g id="Layer_2_1_">
	<g id="ornamentos">
		<path class="st1" d="M56.3,190.9l-3.4-1.6c-3.1-6.7,3.4-11.2,4.1-16.9c3.5-1.5,7.1-2.7,10.8-3.5h17.6c2.2,1.2,4.3,2.7,6.2,4.3v9.9
			l-14.3,25.9h-3.9c-4.1-1.8-0.6-6.5-3-10.2l-4.5-0.9c-4.4,6.4-5.1,14.8-11.9,19.3c-0.8-0.8-1.7-1.3-1.7-1.7c0-6.4,0-13,0-19.2
			c1.6-1.8,2.9-3.7,3.9-5.8H63l5.8-7.3c1.9-0.5,3.8-0.8,5.7-0.9h-9.2C65.3,182.4,57.7,185.8,56.3,190.9z"/>
		<path class="st1" d="M200.3,192.4c1.3,2.7,2.6,5.4,4,8c1.4,2.6,2.6,4,3.6,5.7v11l-5.4,6.1c-3.4-2.6-1.4-6.1-2.1-8.9l-14.1-13
			c-3.9,1.7,0,6.4-2.1,9.9l-5.1,1.3c-1.5-5.5-4.8-10.3-9.3-13.7c0-8,0-16.2,0-24.8h28.8c6.5,2.6,4.8,10.1,10,13
			c-3.1,1.9-4,5.7-8,5.7c-0.9-3.8-3.7-6.8-7.4-7.9l-4,2.1l5.1,5.6H200.3z M185.1,190.7c0,0-1.3,0.9-1.2,1.3c0.3,0.9,0.7,1.8,1.2,2.6
			c0,0,1.3-0.9,1.2-1.3c-0.3-0.9-0.8-1.7-1.3-2.5L185.1,190.7z"/>
		<path class="st1" d="M75.2,56.9c0-4.5-1-8.4,0.9-11c4.9,5,10.1,9.8,15.6,14.3v21.4c-1.9,0.8-2.5,1.4-3,1.4H65.7l-9.9-9.9
			c0-1.4,0-3.9,1.6-4.7c3.4-2.5,5.7,0,7.9,2.3h12.2c0.5-0.4,0.9-0.9,1.3-1.4c-4-1.9-7.6-4.4-10.8-7.5h-5.6c-6.1,0-5.4-7.6-6.7-11.2
			v-13c-1.7,0,0,0,0,1c6.2,6.1,13,13,19.4,18.4c0,1.8,1.3,3.1,3.8,2.5c0,2.5,0,5.4,3.8,2.9c-1.2-1-2.4-2-3.8-2.9
			C79.3,57.3,77.5,56,75.2,56.9z"/>
		<path class="st1" d="M191.4,59.7c3.4,0,4.5-5.8,9.2-3.8l9.5-9.5c0-2.1-0.8-4.7,2.3-5.4c0.8,0.9,1.4,1.4,1.4,1.8
			c0,5.1,0,10.1,0,15.2c-7.1,8-18.3,9.5-27,15.9c5.1,1.9,10.6,2.4,15.9,1.7l4.4-8.7c3.8,3.9,1.8,7.3,2.5,10.2
			c-2.7,5.6-9.7,5.1-13,11.4H189c-1.2-3.1-2.6-4.4-4-4.4h-7.5c0-1.7-1.3-2.1-1.3-2.5c0-7.5,0-15.2,0-21.8l14.1-14.3
			c1.7,4.1,0,9.2,1.2,14c-2.5,0-5.4,0-2.9,3.8C189.6,62.3,190.5,61,191.4,59.7z"/>
		<path class="st1" d="M58,129.1l2.7,2.7c4.1,2.7,8.8,0,13,1.8c1,0.9,2.3,2.2,3.6,0h6.6c3.1,5,7.2,9.4,11.9,13V162
			c-4,3.2-7.5,1.3-11.3,2.1c-4.5-4.7-9.7-9.3-14.1-14.7c-4.4-5.3-13-5.7-15.8-11.5h-7.1c-1.6-2.9-3.4-5.7-5.3-8.4
			C46.8,128.6,52.5,129.7,58,129.1z"/>
		<path class="st1" d="M173.6,167.6c-1.9-1.9-3.9-3.7-6-5.3v-16.7c4.7-2.9,9.6-5.5,14.7-7.6h10.8c0.8-1.7,1.9-3.2,3.2-4.4h23.9
			c2.9,3,0,2.9-1.6,3.5c-7.9,3.9-15.8,8-24,11.4c-1.7,0.7-3.3,1.7-4.5,3L173.6,167.6z"/>
		<path class="st1" d="M38.6,120c6-3.3,12.3-6.2,18.7-8.7c7.3-2.2,9.6-9.7,17-9.7l14.4-14.8c2.1,2.3,4.6,4.3,7.4,5.8v11.4
			c-4.8,5.7-11.3,9.7-18.5,11.4h-7.6c-1.4,3.4-2.7,4.7-4.1,4.4L38.6,120z"/>
		<path class="st1" d="M172.4,84l-6.2,6.2c-6.9,2.9-11.3-3.5-17-4.4l-1.3-5.2l-7-7V62.7l-4-4.5c0-6.5,0-13,0-20.2
			c5.1,0,3.4,2.9,4.4,6.2c2.1,1.7,4,3.5,5.7,5.6c1.2,2,2.2,4.2,2.9,6.5c0.9,2.8,2.3,5.5,4.1,7.8C161,69.6,161.8,80.9,172.4,84z"/>
		<path class="st1" d="M133.7,217.1c-2.5-2.9-0.8-6.1-1.2-9.1l3.9-4.1v-16.7c2.4-7.8,7.2-14.6,13.7-19.4c3.4,1,5.2-1.8,7.5-3.9
			c1.3,5.2,8.9,1.8,9.5,7.5c0,1.2,0,2.6-1.3,3.2c-8.8,7-12.2,18.8-21.5,25.9c1.2,4.3-3.9,6-4.3,9.7
			C139.3,213.5,136.9,216.2,133.7,217.1z"/>
		<path class="st1" d="M127.6,36.8c3.2,4.7,0.8,9.9,1.8,14.7c1,4.8-1.9,8-3.9,11.8c3.5,5.8-4.9,8.4-3.8,14l-14.4,13l0,0l-12.2-5.8
			c0-1.9,0-3.5,0.8-4.3c2.5-2.9,5.3-5.4,8-8.2c2.5-2.9,5.2-5.6,8.2-8c3.4-2.5,1.6-7.1,5.2-9.5c3.1-2.1,5.2-5.4,5.7-9.1
			C124.2,42.3,125.7,39.4,127.6,36.8z"/>
		<path class="st1" d="M125.5,217.1c-5.2,0,0-7.6-5.3-8c-0.9-3.5-3.9-6.5-4.5-9.6c-0.6-3.1-4-6.2-6.4-8.9c-2.3-2.7-1.7-7-5.3-9.3
			c-3.1-2.3-6-4.9-8.7-7.6c0.9-2.2,1.3-5.2,2.3-5.3c3-0.2,5.8-1.7,7.6-4.1l10.5,6l7.1,7.1v11.4l3.9,4.1c0,7.6,0,15.3,0,22.9
			C126.8,216.2,126,216.6,125.5,217.1z"/>
		<path class="st1" d="M172,104.1V92.3c1.5-0.8,3.1-1.6,4.7-2.2l12.1,12.1c6.1,0,8,5.3,11.9,8c3.6,3.1,7.8,5.5,12.3,7.1
			c4.3,0.9,5.8,3.9,8.3,6.4c-3.9,3.4-8.6,0.9-13,1.7c-1.8-1.5-3.3-3.3-4.3-5.4h-11.3c-1.4,0-2.7-1-4.1-4.4h-3.8
			C180,112.4,175.7,108.6,172,104.1z"/>
		<path class="st1" d="M139.5,127.5c7.9-1.3,12.2-7.8,18.3-5.2l6.2,5.2l-5.8,5.8h-7.5C148.5,130.1,144.6,130,139.5,127.5z"/>
		<path class="st1" d="M154.2,155.8h-9.9c-3-2.3-0.9-6.1-1.9-9.1c3.1-2.2,3.6-6,5.4-10.1l6.1,10.8L154.2,155.8z"/>
		<path class="st1" d="M102.3,122.9c8.8-4.9,13,4.1,22.8,2.3l-14.3,7.8c0,0-1.3,0-1.8,0c-4.8,0.8-6.5,0-6.7-5.7
			C102.3,126.1,102.3,124.8,102.3,122.9z"/>
		<path class="st1" d="M125.2,100l5.6-5.6l5.4,6.2v7.4l-4.8,5.1c-4.1,0-2.1-3.4-2.1-5.1S124.5,105.1,125.2,100z"/>
		<path class="st1" d="M142.4,106.5h4.1c2.2,5.3,1.9,4.7,1.4,11.9l-9.5,2.7l-1.4-1.9c-0.6-3,1.7-4.3,3-6.4
			C141.1,110.9,141.8,108.7,142.4,106.5z"/>
		<path class="st1" d="M120.1,132.5c2.3,1,4.8,1.7,7.3,2.1v2.2c-3.2,2.3-6,5.1-8.3,8.3l-5.2-2.1v-2.5L120.1,132.5z"/>
		<path class="st1" d="M138.5,133.4h2.2c3.6,2.1,6.2,3.8,8.6,5.3c-1.1,2.6-1.9,5.3-2.3,8h-2.2c-2.3-3.1-5.2-5.8-8.6-7.9
			C137.3,136.1,137.9,134.5,138.5,133.4z"/>
		<path class="st1" d="M127.4,119.2v0.8c-2.7,0.4-5.3,1.2-7.8,2.3l-5.6-10.1v-0.8l5.7-2.3C121.8,112.9,124.4,116.3,127.4,119.2z"/>
	</g>
</g>
</svg>
